<?xml version="1.0" encoding="UTF-8"?>
<svg id="Layer_1" data-name="Layer 1" xmlns="http://www.w3.org/2000/svg" viewBox="0 0 72 72">
  <path d="M4.5,58.5c3.5,0,7-4.5,10.5-4.5s7,4.5,10.5,4.5,7-4.5,10.5-4.5,7,4.5,10.5,4.5,7-4.5,10.5-4.5,7,4.5,10.5,4.5" style="fill: none; stroke: #010101; stroke-miterlimit: 10; stroke-width: 4px;"/>
  <rect x="22.5" y="22.5" width="27" height="9" rx=".5" ry=".5" style="fill: #010101; stroke-width: 0px;"/>
  <rect x="31.5" y="13.5" width="9" height="4.5" rx=".5" ry=".5" style="fill: #010101; stroke-width: 0px;"/>
  <path d="M17.08,28.37l-7.92,11.88c-.1.15-.11.34-.03.5l4.37,13.24,9,4.5v-8.5c0-.28.22-.5.5-.5h26c.28,0,.5.22.5.5v8.5l9-4.5,4.37-13.24c.08-.16.07-.35-.03-.5l-7.92-11.88c-.27-.41-.92-.22-.92.28v6.85c0,.28-.22.5-.5.5H18.5c-.28,0-.5-.22-.5-.5v-6.85c0-.49-.64-.69-.92-.28Z" style="fill: #010101; stroke-width: 0px;"/>
</svg>