<svg id="Airplane" data-name="Layer 1" xmlns="http://www.w3.org/2000/svg" viewBox="0 0 72 72">
  <path d="M12.93,28.94l18.08,12.05,12.73-12.73-28.16-3.13c-.3-.03-.6.07-.82.29l-1.98,1.98c-.45.45-.37,1.19.15,1.54Z" style="fill: var(--icon-line-color, currentColor); stroke-width: 0px;"/>
  <path d="M43.06,59.07l-12.05-18.08,12.73-12.73,3.13,28.16c.03.3-.07.6-.29.82l-1.98,1.98c-.45.45-1.19.37-1.54-.15Z" style="fill: var(--icon-line-color, currentColor); stroke-width: 0px;"/>
  <path d="M9.88,49.39l1.12-1.12c.14-.14.32-.23.51-.27l16.32-3.83-3.83,16.32c-.04.19-.13.37-.27.51l-1.12,1.12c-.53.53-1.42.31-1.66-.39l-2.67-8.01-8.01-2.67c-.71-.24-.92-1.13-.39-1.66Z" style="fill: var(--icon-line-color, currentColor); stroke-width: 0px;"/>
  <path d="M53.28,25.08l-19.09,19.09c-1.76,1.76-14.15,11.3-15.91,9.55h0c-1.76-1.76,7.79-14.15,9.55-15.91l19.09-19.09c3.18-3.18,7.79-4.94,9.55-3.18h0c1.76,1.76,0,6.36-3.18,9.55Z" style="fill: var(--icon-line-color, currentColor); stroke-width: 0px;"/>
</svg>