<svg version="1.1" id="AlarmBell2" xmlns="http://www.w3.org/2000/svg" xmlns:xlink="http://www.w3.org/1999/xlink" x="0px" y="0px" viewBox="0 0 72 72" style="enable-background:new 0 0 72 72;" xml:space="preserve"><path style="fill:none;stroke-width:var(--icon-stroke-width-m, calc(var(--icon-stroke-width, 5) * 1));stroke-miterlimit:10;" d="M27.25,52.98c-3.51,3.51-9.21,3.51-12.73,0 c-3.51-3.51-3.51-9.21,0-12.73"/><path style="fill:none;stroke-width:var(--icon-stroke-width-m, calc(var(--icon-stroke-width, 5) * 1));stroke-miterlimit:10;" d="M46.34,21.16c-6.33-6.33-14.44-4.89-24.18,1.27 L8.68,30.96c-1.08,0.69-1.25,2.2-0.34,3.1l12.55,12.55l12.55,12.55c0.91,0.91,2.42,0.74,3.1-0.34l8.53-13.48 C51.23,35.6,52.67,27.49,46.34,21.16L46.34,21.16z"/><path style="fill:none;stroke-width:var(--icon-stroke-width-m, calc(var(--icon-stroke-width, 5) * 1));stroke-miterlimit:10;" d="M15.05,15.33c4.98-8.2,14.71-12.71,21.74-10.08"/><path style="fill:none;stroke-width:var(--icon-stroke-width-m, calc(var(--icon-stroke-width, 5) * 1));stroke-miterlimit:10;" d="M52.17,52.45c8.2-4.98,12.71-14.71,10.08-21.74"/></svg>