<?

<svg version="1.1" id="{{componentName}}" xmlns="http://www.w3.org/2000/svg" xmlns:xlink="http://www.w3.org/1999/xlink" x="0px" y="0px"
	 viewBox="0 0 72 72" style="enable-background:new 0 0 72 72;" 
<path style="opacity:0.5;fill: var(--icon-fill, {{default.iconFill}});" d="M22.5,31.5c0,0-9-4.5-9-9s9-9,9-9V31.5z"/>
<path style="opacity:0.5;fill: var(--icon-fill, {{default.iconFill}});" d="M58.5,49.5c0,0-4.5,9-9,9s-9-9-9-9H58.5z"/>
<path style="fill:none;stroke-width:var(--icon-stroke-width-m, calc(var(--icon-stroke-width, {{default.iconStrokeWidth}}) * 1));stroke-linecap: var(--icon-stroke-linecap, {{default.iconStrokeLinecap}});stroke-linecap: var(--icon-stroke-linejoin,  {{default.iconStrokeLinejoin}});stroke-miterlimit:10;" d="
	M22.5,31.5c0,0-9-4.5-9-9s9-9,9-9V31.5z"/>
<path style="fill:none;stroke-width:var(--icon-stroke-width-m, calc(var(--icon-stroke-width, {{default.iconStrokeWidth}}) * 1));stroke-linecap: var(--icon-stroke-linecap, {{default.iconStrokeLinecap}});stroke-linecap: var(--icon-stroke-linejoin,  {{default.iconStrokeLinejoin}});stroke-miterlimit:10;" d="
	M22.5,22.5h7c11.05,0,20,8.95,20,20v7"/>
<path style="fill:none;stroke-width:var(--icon-stroke-width-m, calc(var(--icon-stroke-width, {{default.iconStrokeWidth}}) * 1));stroke-linecap: var(--icon-stroke-linecap, {{default.iconStrokeLinecap}});stroke-linecap: var(--icon-stroke-linejoin,  {{default.iconStrokeLinejoin}});stroke-miterlimit:10;" d="
	M58.5,49.5c0,0-4.5,9-9,9s-9-9-9-9H58.5z"/>
</svg>
