<svg id="ArrowHeadedTwowayHorizontal" data-name="Layer 1" xmlns="http://www.w3.org/2000/svg" viewBox="0 0 72 72">
  <path d="M22.5,14.78c-3.23,2.05-9,6.18-9,9.42,0,4.5,11.12,11.8,11.12,11.8V13.5s-.87.48-2.12,1.28Z" style="fill: var(--icon-fill, rgba(0, 0, 0, 0)); opacity: var(--icon-fill-opacity, 1); stroke-width: 0px;"/>
  <path d="M47.38,36v22.5s11.12-6.2,11.12-10.7-11.12-11.8-11.12-11.8Z" style="fill: var(--icon-fill, rgba(0, 0, 0, 0)); opacity: var(--icon-fill-opacity, 1); stroke-width: 0px;"/>
  <path d="M22.5,14.78c-3.23,2.05-9,6.18-9,9.42,0,4.5,11.12,11.8,11.12,11.8V13.5s-.87.48-2.12,1.28Z" style="fill: none;  stroke-linecap: round; stroke-linejoin: round; stroke-width:var(--icon-stroke-width-m, calc(var(--icon-stroke-width, 5) * 1));"/>
  <line x1="54" y1="24.2" x2="24.62" y2="24.2" style="fill: none;  stroke-linecap: round; stroke-linejoin: round; stroke-width:var(--icon-stroke-width-m, calc(var(--icon-stroke-width, 5) * 1));"/>
  <path d="M47.38,36v22.5s11.12-6.2,11.12-10.7-11.12-11.8-11.12-11.8Z" style="fill: none;  stroke-linecap: round; stroke-linejoin: round; stroke-width:var(--icon-stroke-width-m, calc(var(--icon-stroke-width, 5) * 1));"/>
  <line x1="18" y1="47.8" x2="47.25" y2="47.8" style="fill: none;  stroke-linecap: round; stroke-linejoin: round; stroke-width:var(--icon-stroke-width-m, calc(var(--icon-stroke-width, 5) * 1));"/>
</svg>