<?

<svg version="1.1" id="{{componentName}}" xmlns="http://www.w3.org/2000/svg" xmlns:xlink="http://www.w3.org/1999/xlink" x="0px" y="0px"
	 viewBox="0 0 72 72" style="enable-background:new 0 0 72 72;" 
<circle style="opacity:0.5;fill: var(--icon-fill, {{default.iconFill}});" cx="36" cy="36" r="4.5"/>
<g style="opacity:0.5;">
	<path style="fill: var(--icon-fill, {{default.iconFill}});" d="M14.27,45L27,57.73c0,0,3.18-9.55,0-12.73S14.27,45,14.27,45z"/>
	<path style="fill: var(--icon-fill, {{default.iconFill}});" d="M57.73,27L45,14.27c0,0-3.18,9.55,0,12.73S57.73,27,57.73,27z"/>
	<path style="fill: var(--icon-fill, {{default.iconFill}});" d="M45,45c-3.18,3.18,0,12.73,0,12.73L57.73,45C57.73,45,48.18,41.82,45,45z"/>
	<path style="fill: var(--icon-fill, {{default.iconFill}});" d="M14.27,27c0,0,9.55,3.18,12.73,0s0-12.73,0-12.73L14.27,27z"/>
</g>
<line style="fill:none;stroke-width:var(--icon-stroke-width-m, calc(var(--icon-stroke-width, {{default.iconStrokeWidth}}) * 1));stroke-linecap: var(--icon-stroke-linecap, {{default.iconStrokeLinecap}});stroke-linecap: var(--icon-stroke-linejoin,  {{default.iconStrokeLinejoin}});stroke-miterlimit:10;" x1="58.5" y1="13.5" x2="51.75" y2="20.25"/>
<line style="fill:none;stroke-width:var(--icon-stroke-width-m, calc(var(--icon-stroke-width, {{default.iconStrokeWidth}}) * 1));stroke-linecap: var(--icon-stroke-linecap, {{default.iconStrokeLinecap}});stroke-linecap: var(--icon-stroke-linejoin,  {{default.iconStrokeLinejoin}});stroke-miterlimit:10;" x1="20.64" y1="51.36" x2="13.5" y2="58.5"/>
<g>
	<path style="fill:none;stroke-width:var(--icon-stroke-width-m, calc(var(--icon-stroke-width, {{default.iconStrokeWidth}}) * 1));stroke-linecap: var(--icon-stroke-linecap, {{default.iconStrokeLinecap}});stroke-linecap: var(--icon-stroke-linejoin,  {{default.iconStrokeLinejoin}});stroke-miterlimit:10;" d="
		M14.27,45L27,57.73c0,0,3.18-9.55,0-12.73S14.27,45,14.27,45z"/>
	<path style="fill:none;stroke-width:var(--icon-stroke-width-m, calc(var(--icon-stroke-width, {{default.iconStrokeWidth}}) * 1));stroke-linecap: var(--icon-stroke-linecap, {{default.iconStrokeLinecap}});stroke-linecap: var(--icon-stroke-linejoin,  {{default.iconStrokeLinejoin}});stroke-miterlimit:10;" d="
		M57.73,27L45,14.27c0,0-3.18,9.55,0,12.73S57.73,27,57.73,27z"/>
	<path style="fill:none;stroke-width:var(--icon-stroke-width-m, calc(var(--icon-stroke-width, {{default.iconStrokeWidth}}) * 1));stroke-linecap: var(--icon-stroke-linecap, {{default.iconStrokeLinecap}});stroke-linecap: var(--icon-stroke-linejoin,  {{default.iconStrokeLinejoin}});stroke-miterlimit:10;" d="
		M45,45c-3.18,3.18,0,12.73,0,12.73L57.73,45C57.73,45,48.18,41.82,45,45z"/>
	<path style="fill:none;stroke-width:var(--icon-stroke-width-m, calc(var(--icon-stroke-width, {{default.iconStrokeWidth}}) * 1));stroke-linecap: var(--icon-stroke-linecap, {{default.iconStrokeLinecap}});stroke-linecap: var(--icon-stroke-linejoin,  {{default.iconStrokeLinejoin}});stroke-miterlimit:10;" d="
		M14.27,27c0,0,9.55,3.18,12.73,0s0-12.73,0-12.73L14.27,27z"/>
</g>
<line style="fill:none;stroke-width:var(--icon-stroke-width-m, calc(var(--icon-stroke-width, {{default.iconStrokeWidth}}) * 1));stroke-linecap: var(--icon-stroke-linecap, {{default.iconStrokeLinecap}});stroke-linecap: var(--icon-stroke-linejoin,  {{default.iconStrokeLinejoin}});stroke-miterlimit:10;" x1="13.5" y1="13.5" x2="20.64" y2="20.64"/>
<line style="fill:none;stroke-width:var(--icon-stroke-width-m, calc(var(--icon-stroke-width, {{default.iconStrokeWidth}}) * 1));stroke-linecap: var(--icon-stroke-linecap, {{default.iconStrokeLinecap}});stroke-linecap: var(--icon-stroke-linejoin,  {{default.iconStrokeLinejoin}});stroke-miterlimit:10;" x1="51.36" y1="51.36" x2="58.5" y2="58.5"/>
<circle style="fill:none;stroke-width:var(--icon-stroke-width-m, calc(var(--icon-stroke-width, {{default.iconStrokeWidth}}) * 1));stroke-linecap: var(--icon-stroke-linecap, {{default.iconStrokeLinecap}});stroke-linecap: var(--icon-stroke-linejoin,  {{default.iconStrokeLinejoin}});stroke-miterlimit:10;" cx="36" cy="36" r="4.5"/>
</svg>
