<svg id="ArrowHeadedDiagonalTrBlSplit" data-name="Layer 1" xmlns="http://www.w3.org/2000/svg" viewBox="0 0 72 72">
  <g style="opacity: .5;">
    <path d="M58.5,13.5c-3.18-3.18-12.73,0-12.73,0l12.73,12.73s3.18-9.55,0-12.73Z" style="fill: red; stroke-width: 0px;"/>
    <path d="M13.5,58.5c3.18,3.18,12.73,0,12.73,0l-12.73-12.73s-3.18,9.55,0,12.73Z" style="fill: red; stroke-width: 0px;"/>
  </g>
  <g>
    <g>
      <path d="M58.5,13.5c-3.18-3.18-12.73,0-12.73,0l12.73,12.73s3.18-9.55,0-12.73Z" style="fill: none;  stroke-linecap: round; stroke-linejoin: round; stroke-width:var(--icon-stroke-width-m, calc(var(--icon-stroke-width, 5) * 1));"/>
      <path d="M13.5,58.5c3.18,3.18,12.73,0,12.73,0l-12.73-12.73s-3.18,9.55,0,12.73Z" style="fill: none;  stroke-linecap: round; stroke-linejoin: round; stroke-width:var(--icon-stroke-width-m, calc(var(--icon-stroke-width, 5) * 1));"/>
    </g>
    <line x1="27" y1="45" x2="20.25" y2="51.75" style="fill: none;  stroke-linecap: round; stroke-linejoin: round; stroke-width:var(--icon-stroke-width-m, calc(var(--icon-stroke-width, 5) * 1));"/>
    <line x1="52.14" y1="19.86" x2="45" y2="27" style="fill: none;  stroke-linecap: round; stroke-linejoin: round; stroke-width:var(--icon-stroke-width-m, calc(var(--icon-stroke-width, 5) * 1));"/>
  </g>
</svg>