<svg id="ArrowHeadedDiagonalTlBrSplit" data-name="Layer 1" xmlns="http://www.w3.org/2000/svg" viewBox="0 0 72 72">
  <g style="opacity: .5;">
    <path d="M13.5,13.5c-3.18,3.18,0,12.73,0,12.73l12.73-12.73s-9.55-3.18-12.73,0Z" style="fill: red; stroke-width: 0px;"/>
    <path d="M45.77,58.5s9.55,3.18,12.73,0,0-12.73,0-12.73l-12.73,12.73Z" style="fill: red; stroke-width: 0px;"/>
  </g>
  <g>
    <line x1="45" y1="45" x2="52.14" y2="52.14" style="fill: none;  stroke-linecap: round; stroke-linejoin: round; stroke-width:var(--icon-stroke-width-m, calc(var(--icon-stroke-width, 5) * 1));"/>
    <line x1="19.86" y1="19.86" x2="27" y2="27" style="fill: none;  stroke-linecap: round; stroke-linejoin: round; stroke-width:var(--icon-stroke-width-m, calc(var(--icon-stroke-width, 5) * 1));"/>
  </g>
  <g>
    <path d="M13.5,13.5c-3.18,3.18,0,12.73,0,12.73l12.73-12.73s-9.55-3.18-12.73,0Z" style="fill: none;  stroke-linecap: round; stroke-linejoin: round; stroke-width:var(--icon-stroke-width-m, calc(var(--icon-stroke-width, 5) * 1));"/>
    <path d="M45.77,58.5s9.55,3.18,12.73,0,0-12.73,0-12.73l-12.73,12.73Z" style="fill: none;  stroke-linecap: round; stroke-linejoin: round; stroke-width:var(--icon-stroke-width-m, calc(var(--icon-stroke-width, 5) * 1));"/>
  </g>
</svg>