<?

<svg version="1.1" id="{{componentName}}" xmlns="http://www.w3.org/2000/svg" xmlns:xlink="http://www.w3.org/1999/xlink" x="0px" y="0px"
	 viewBox="0 0 72 72" style="enable-background:new 0 0 72 72;" 
<g style="opacity:0.5;">
	<path style="fill: var(--icon-fill, {{default.iconFill}});" d="M13.5,58.5c3.18,3.18,12.73,0,12.73,0L13.5,45.77C13.5,45.77,10.32,55.32,13.5,58.5z"/>
	<path style="fill: var(--icon-fill, {{default.iconFill}});" d="M45.77,13.5L58.5,26.23c0,0,3.18-9.55,0-12.73S45.77,13.5,45.77,13.5z"/>
</g>
<path style="fill:none;stroke-width:var(--icon-stroke-width-m, calc(var(--icon-stroke-width, {{default.iconStrokeWidth}}) * 1));stroke-linecap: var(--icon-stroke-linecap, {{default.iconStrokeLinecap}});stroke-linecap: var(--icon-stroke-linejoin,  {{default.iconStrokeLinejoin}});stroke-miterlimit:10;" d="
	M13.5,45.77c0,0-3.18,9.55,0,12.73s12.73,0,12.73,0"/>
<path style="fill:none;stroke-width:var(--icon-stroke-width-m, calc(var(--icon-stroke-width, {{default.iconStrokeWidth}}) * 1));stroke-linecap: var(--icon-stroke-linecap, {{default.iconStrokeLinecap}});stroke-linecap: var(--icon-stroke-linejoin,  {{default.iconStrokeLinejoin}});stroke-miterlimit:10;" d="
	M58.5,26.23c0,0,3.18-9.55,0-12.73s-12.73,0-12.73,0"/>
<line style="fill:none;stroke-width:var(--icon-stroke-width-m, calc(var(--icon-stroke-width, {{default.iconStrokeWidth}}) * 1));stroke-linecap: var(--icon-stroke-linecap, {{default.iconStrokeLinecap}});stroke-linecap: var(--icon-stroke-linejoin,  {{default.iconStrokeLinejoin}});stroke-miterlimit:10;" x1="19.48" y1="51.75" x2="52.14" y2="19.86"/>
<g>
	<path style="fill:none;stroke-width:var(--icon-stroke-width-m, calc(var(--icon-stroke-width, {{default.iconStrokeWidth}}) * 1));stroke-linecap: var(--icon-stroke-linecap, {{default.iconStrokeLinecap}});stroke-linecap: var(--icon-stroke-linejoin,  {{default.iconStrokeLinejoin}});stroke-miterlimit:10;" d="
		M13.5,58.5c3.18,3.18,12.73,0,12.73,0L13.5,45.77C13.5,45.77,10.32,55.32,13.5,58.5z"/>
	<path style="fill:none;stroke-width:var(--icon-stroke-width-m, calc(var(--icon-stroke-width, {{default.iconStrokeWidth}}) * 1));stroke-linecap: var(--icon-stroke-linecap, {{default.iconStrokeLinecap}});stroke-linecap: var(--icon-stroke-linejoin,  {{default.iconStrokeLinejoin}});stroke-miterlimit:10;" d="
		M45.77,13.5L58.5,26.23c0,0,3.18-9.55,0-12.73S45.77,13.5,45.77,13.5z"/>
</g>
</svg>
