<?

<svg version="1.1" id="{{componentName}}" xmlns="http://www.w3.org/2000/svg" xmlns:xlink="http://www.w3.org/1999/xlink" x="0px" y="0px"
	 viewBox="0 0 72 72" style="enable-background:new 0 0 72 72;" 
<path style="opacity:0.5;fill: var(--icon-fill, {{default.iconFill}});" d="M49.5,27c0,0,9-4.5,9-9s-9-9-9-9"/>
<path style="opacity:0.5;fill: var(--icon-fill, {{default.iconFill}});" d="M22.5,63c0,0-9-4.5-9-9s9-9,9-9"/>
<path style="fill:none;stroke-width:var(--icon-stroke-width-m, calc(var(--icon-stroke-width, {{default.iconStrokeWidth}}) * 1));stroke-linecap: var(--icon-stroke-linecap, {{default.iconStrokeLinecap}});stroke-linecap: var(--icon-stroke-linejoin,  {{default.iconStrokeLinejoin}});stroke-miterlimit:10;" d="
	M49.5,27c0,0,9-4.5,9-9s-9-9-9-9V27z"/>
<path style="fill:none;stroke-width:var(--icon-stroke-width-m, calc(var(--icon-stroke-width, {{default.iconStrokeWidth}}) * 1));stroke-linecap: var(--icon-stroke-linecap, {{default.iconStrokeLinecap}});stroke-linecap: var(--icon-stroke-linejoin,  {{default.iconStrokeLinejoin}});stroke-miterlimit:10;" d="
	M49.5,18h-16c-11.05,0-20,8.95-20,20"/>
<path style="fill:none;stroke-width:var(--icon-stroke-width-m, calc(var(--icon-stroke-width, {{default.iconStrokeWidth}}) * 1));stroke-linecap: var(--icon-stroke-linecap, {{default.iconStrokeLinecap}});stroke-linecap: var(--icon-stroke-linejoin,  {{default.iconStrokeLinejoin}});stroke-miterlimit:10;" d="
	M22.5,63c0,0-9-4.5-9-9s9-9,9-9V63z"/>
<path style="fill:none;stroke-width:var(--icon-stroke-width-m, calc(var(--icon-stroke-width, {{default.iconStrokeWidth}}) * 1));stroke-linecap: var(--icon-stroke-linecap, {{default.iconStrokeLinecap}});stroke-linecap: var(--icon-stroke-linejoin,  {{default.iconStrokeLinejoin}});stroke-miterlimit:10;" d="
	M22.5,54h16c11.05,0,20-8.95,20-20"/>
</svg>
