<?

<svg version="1.1" id="{{componentName}}" xmlns="http://www.w3.org/2000/svg" xmlns:xlink="http://www.w3.org/1999/xlink" x="0px" y="0px"
	 viewBox="0 0 72 72" style="enable-background:new 0 0 72 72;" 
<g style="opacity:0.5;">
	<path style="fill: var(--icon-fill, {{default.iconFill}});" d="M26.88,54.24c0,0,4.62,8.94,9.12,8.88S44.88,54,44.88,54L26.88,54.24z"/>
	<path style="fill: var(--icon-fill, {{default.iconFill}});" d="M36,9.12c-4.5,0.06-8.88,9.12-8.88,9.12l18-0.24C45.12,18,40.5,9.06,36,9.12z"/>
</g>
<line style="fill:none;stroke-width:var(--icon-stroke-width-m, calc(var(--icon-stroke-width, {{default.iconStrokeWidth}}) * 1));stroke-linecap: var(--icon-stroke-linecap, {{default.iconStrokeLinecap}});stroke-linecap: var(--icon-stroke-linejoin,  {{default.iconStrokeLinejoin}});stroke-miterlimit:10;" x1="36" y1="54.12" x2="36" y2="18.12"/>
<g>
	<path style="fill:none;stroke-width:var(--icon-stroke-width-m, calc(var(--icon-stroke-width, {{default.iconStrokeWidth}}) * 1));stroke-linecap: var(--icon-stroke-linecap, {{default.iconStrokeLinecap}});stroke-linecap: var(--icon-stroke-linejoin,  {{default.iconStrokeLinejoin}});stroke-miterlimit:10;" d="
		M26.88,54.24c0,0,4.62,8.94,9.12,8.88S44.88,54,44.88,54L26.88,54.24z"/>
	<path style="fill:none;stroke-width:var(--icon-stroke-width-m, calc(var(--icon-stroke-width, {{default.iconStrokeWidth}}) * 1));stroke-linecap: var(--icon-stroke-linecap, {{default.iconStrokeLinecap}});stroke-linecap: var(--icon-stroke-linejoin,  {{default.iconStrokeLinejoin}});stroke-miterlimit:10;" d="
		M36,9.12c-4.5,0.06-8.88,9.12-8.88,9.12l18-0.24C45.12,18,40.5,9.06,36,9.12z"/>
</g>
</svg>
