<svg id="ArrowHeadedIn" data-name="Layer 1" xmlns="http://www.w3.org/2000/svg" viewBox="0 0 72 72">
  <g style="opacity: .5;">
    <path d="M27,36c0-4.5-9-9-9-9v18s9-4.5,9-9Z" style="fill: red; stroke-width: 0px;"/>
    <path d="M54,45v-18s-9,4.5-9,9,9,9,9,9Z" style="fill: red; stroke-width: 0px;"/>
    <path d="M36,45c-4.5,0-9,9-9,9h18s-4.5-9-9-9Z" style="fill: red; stroke-width: 0px;"/>
    <path d="M36,27c4.5,0,9-9,9-9h-18s4.5,9,9,9Z" style="fill: red; stroke-width: 0px;"/>
  </g>
  <path d="M18,45s9-4.5,9-9-9-9-9-9" style="fill: none;  stroke-linecap: round; stroke-linejoin: round; stroke-width:var(--icon-stroke-width-m, calc(var(--icon-stroke-width, 5) * 1));"/>
  <path d="M54,27s-9,4.5-9,9,9,9,9,9" style="fill: none;  stroke-linecap: round; stroke-linejoin: round; stroke-width:var(--icon-stroke-width-m, calc(var(--icon-stroke-width, 5) * 1));"/>
  <line x1="64.09" y1="36" x2="54.55" y2="36" style="fill: none;  stroke-linecap: round; stroke-linejoin: round; stroke-width:var(--icon-stroke-width-m, calc(var(--icon-stroke-width, 5) * 1));"/>
  <line x1="18" y1="36" x2="7.91" y2="36" style="fill: none;  stroke-linecap: round; stroke-linejoin: round; stroke-width:var(--icon-stroke-width-m, calc(var(--icon-stroke-width, 5) * 1));"/>
  <path d="M45,54s-4.5-9-9-9-9,9-9,9" style="fill: none;  stroke-linecap: round; stroke-linejoin: round; stroke-width:var(--icon-stroke-width-m, calc(var(--icon-stroke-width, 5) * 1));"/>
  <path d="M27,18s4.5,9,9,9,9-9,9-9" style="fill: none;  stroke-linecap: round; stroke-linejoin: round; stroke-width:var(--icon-stroke-width-m, calc(var(--icon-stroke-width, 5) * 1));"/>
  <line x1="36" y1="7.91" x2="36" y2="18" style="fill: none;  stroke-linecap: round; stroke-linejoin: round; stroke-width:var(--icon-stroke-width-m, calc(var(--icon-stroke-width, 5) * 1));"/>
  <line x1="36" y1="54" x2="36" y2="64.09" style="fill: none;  stroke-linecap: round; stroke-linejoin: round; stroke-width:var(--icon-stroke-width-m, calc(var(--icon-stroke-width, 5) * 1));"/>
  <g>
    <path d="M27,36c0-4.5-9-9-9-9v18s9-4.5,9-9Z" style="fill: none;  stroke-linecap: round; stroke-linejoin: round; stroke-width:var(--icon-stroke-width-m, calc(var(--icon-stroke-width, 5) * 1));"/>
    <path d="M54,45v-18s-9,4.5-9,9,9,9,9,9Z" style="fill: none;  stroke-linecap: round; stroke-linejoin: round; stroke-width:var(--icon-stroke-width-m, calc(var(--icon-stroke-width, 5) * 1));"/>
    <path d="M36,45c-4.5,0-9,9-9,9h18s-4.5-9-9-9Z" style="fill: none;  stroke-linecap: round; stroke-linejoin: round; stroke-width:var(--icon-stroke-width-m, calc(var(--icon-stroke-width, 5) * 1));"/>
    <path d="M36,27c4.5,0,9-9,9-9h-18s4.5,9,9,9Z" style="fill: none;  stroke-linecap: round; stroke-linejoin: round; stroke-width:var(--icon-stroke-width-m, calc(var(--icon-stroke-width, 5) * 1));"/>
  </g>
</svg>