<svg id="ArrowHeadedInDiagonal" data-name="Layer 1" xmlns="http://www.w3.org/2000/svg" viewBox="0 0 72 72"><g ><path d="M14.27,45l12.73,12.73s3.18-9.55,0-12.73-12.73,0-12.73,0Z" style="fill: var(--icon-fill, rgba(0, 0, 0, 0)); opacity: var(--icon-fill-opacity, 1);" /><path d="M57.73,27l-12.73-12.73s-3.18,9.55,0,12.73,12.73,0,12.73,0Z" style="fill: var(--icon-fill, rgba(0, 0, 0, 0)); opacity: var(--icon-fill-opacity, 1);" /><path d="M45,45c-3.18,3.18,0,12.73,0,12.73l12.73-12.73s-9.55-3.18-12.73,0Z" style="fill: var(--icon-fill, rgba(0, 0, 0, 0)); opacity: var(--icon-fill-opacity, 1);" /><path d="M14.27,27s9.55,3.18,12.73,0,0-12.73,0-12.73l-12.73,12.73Z" style="fill: var(--icon-fill, rgba(0, 0, 0, 0)); opacity: var(--icon-fill-opacity, 1);" /></g><path d="M27,57.73s3.18-9.55,0-12.73-12.73,0-12.73,0" style="fill: none;  stroke-linecap: round; stroke-linejoin: round; stroke-width:var(--icon-stroke-width-m, calc(var(--icon-stroke-width, 5) * 1));"/><path d="M45,14.27s-3.18,9.55,0,12.73,12.73,0,12.73,0" style="fill: none;  stroke-linecap: round; stroke-linejoin: round; stroke-width:var(--icon-stroke-width-m, calc(var(--icon-stroke-width, 5) * 1));"/><line x1="58.5" y1="13.5" x2="51.36" y2="20.64" style="fill: none;  stroke-linecap: round; stroke-linejoin: round; stroke-width:var(--icon-stroke-width-m, calc(var(--icon-stroke-width, 5) * 1));"/><line x1="20.64" y1="51.36" x2="13.5" y2="58.5" style="fill: none;  stroke-linecap: round; stroke-linejoin: round; stroke-width:var(--icon-stroke-width-m, calc(var(--icon-stroke-width, 5) * 1));"/><path d="M57.73,45s-9.55-3.18-12.73,0,0,12.73,0,12.73" style="fill: none;  stroke-linecap: round; stroke-linejoin: round; stroke-width:var(--icon-stroke-width-m, calc(var(--icon-stroke-width, 5) * 1));"/><path d="M14.27,27s9.55,3.18,12.73,0,0-12.73,0-12.73" style="fill: none;  stroke-linecap: round; stroke-linejoin: round; stroke-width:var(--icon-stroke-width-m, calc(var(--icon-stroke-width, 5) * 1));"/><line x1="13.5" y1="13.5" x2="20.25" y2="20.25" style="fill: none;  stroke-linecap: round; stroke-linejoin: round; stroke-width:var(--icon-stroke-width-m, calc(var(--icon-stroke-width, 5) * 1));"/><line x1="51.36" y1="51.36" x2="58.5" y2="58.5" style="fill: none;  stroke-linecap: round; stroke-linejoin: round; stroke-width:var(--icon-stroke-width-m, calc(var(--icon-stroke-width, 5) * 1));"/><g><path d="M14.27,45l12.73,12.73s3.18-9.55,0-12.73-12.73,0-12.73,0Z" style="fill: none;  stroke-linecap: round; stroke-linejoin: round; stroke-width:var(--icon-stroke-width-m, calc(var(--icon-stroke-width, 5) * 1));"/><path d="M57.73,27l-12.73-12.73s-3.18,9.55,0,12.73,12.73,0,12.73,0Z" style="fill: none;  stroke-linecap: round; stroke-linejoin: round; stroke-width:var(--icon-stroke-width-m, calc(var(--icon-stroke-width, 5) * 1));"/><path d="M45,45c-3.18,3.18,0,12.73,0,12.73l12.73-12.73s-9.55-3.18-12.73,0Z" style="fill: none;  stroke-linecap: round; stroke-linejoin: round; stroke-width:var(--icon-stroke-width-m, calc(var(--icon-stroke-width, 5) * 1));"/><path d="M14.27,27s9.55,3.18,12.73,0,0-12.73,0-12.73l-12.73,12.73Z" style="fill: none;  stroke-linecap: round; stroke-linejoin: round; stroke-width:var(--icon-stroke-width-m, calc(var(--icon-stroke-width, 5) * 1));"/></g></svg>