<?

<svg version="1.1" id="{{componentName}}" xmlns="http://www.w3.org/2000/svg" xmlns:xlink="http://www.w3.org/1999/xlink" x="0px" y="0px"
	 viewBox="0 0 72 72" style="enable-background:new 0 0 72 72;" 
<g style="opacity:0.5;">
	<path style="fill: var(--icon-fill, {{default.iconFill}});" d="M17.36,41.91l12.73,12.73c0,0,3.18-9.55,0-12.73C26.9,38.73,17.36,41.91,17.36,41.91z"/>
	<path style="fill: var(--icon-fill, {{default.iconFill}});" d="M41.91,30.09c3.18,3.18,12.73,0,12.73,0L41.91,17.36C41.91,17.36,38.73,26.9,41.91,30.09z"/>
</g>
<line style="fill:none;stroke-width:var(--icon-stroke-width-m, calc(var(--icon-stroke-width, {{default.iconStrokeWidth}}) * 1));stroke-linecap: var(--icon-stroke-linecap, {{default.iconStrokeLinecap}});stroke-linecap: var(--icon-stroke-linejoin,  {{default.iconStrokeLinejoin}});stroke-miterlimit:10;" x1="13.5" y1="58.5" x2="23.72" y2="48.28"/>
<line style="fill:none;stroke-width:var(--icon-stroke-width-m, calc(var(--icon-stroke-width, {{default.iconStrokeWidth}}) * 1));stroke-linecap: var(--icon-stroke-linecap, {{default.iconStrokeLinecap}});stroke-linecap: var(--icon-stroke-linejoin,  {{default.iconStrokeLinejoin}});stroke-miterlimit:10;" x1="58.5" y1="13.5" x2="48.28" y2="23.72"/>
<g>
	<path style="fill:none;stroke-width:var(--icon-stroke-width-m, calc(var(--icon-stroke-width, {{default.iconStrokeWidth}}) * 1));stroke-linecap: var(--icon-stroke-linecap, {{default.iconStrokeLinecap}});stroke-linecap: var(--icon-stroke-linejoin,  {{default.iconStrokeLinejoin}});stroke-miterlimit:10;" d="
		M17.36,41.91l12.73,12.73c0,0,3.18-9.55,0-12.73C26.9,38.73,17.36,41.91,17.36,41.91z"/>
	<path style="fill:none;stroke-width:var(--icon-stroke-width-m, calc(var(--icon-stroke-width, {{default.iconStrokeWidth}}) * 1));stroke-linecap: var(--icon-stroke-linecap, {{default.iconStrokeLinecap}});stroke-linecap: var(--icon-stroke-linejoin,  {{default.iconStrokeLinejoin}});stroke-miterlimit:10;" d="
		M41.91,30.09c3.18,3.18,12.73,0,12.73,0L41.91,17.36C41.91,17.36,38.73,26.9,41.91,30.09z"/>
</g>
</svg>
