<?

<svg version="1.1" id="{{componentName}}" xmlns="http://www.w3.org/2000/svg" xmlns:xlink="http://www.w3.org/1999/xlink" x="0px" y="0px"
	 viewBox="0 0 72 72" style="enable-background:new 0 0 72 72;" 
<g style="opacity:0.5;">
</g>
<g style="opacity:0.5;">
	<path style="fill: var(--icon-fill, {{default.iconFill}});" d="M58.5,13.5c-3.18-3.18-12.73,0-12.73,0L58.5,26.23C58.5,26.23,61.68,16.68,58.5,13.5z"/>
	<path style="fill: var(--icon-fill, {{default.iconFill}});" d="M13.5,58.5c3.18,3.18,12.73,0,12.73,0L13.5,45.77C13.5,45.77,10.32,55.32,13.5,58.5z"/>
</g>
<g style="opacity:0.5;">
</g>
<g>
	<g>
		<path style="fill:none;stroke-width:var(--icon-stroke-width-m, calc(var(--icon-stroke-width, {{default.iconStrokeWidth}}) * 1));stroke-linecap: var(--icon-stroke-linecap, {{default.iconStrokeLinecap}});stroke-linecap: var(--icon-stroke-linejoin,  {{default.iconStrokeLinejoin}});stroke-miterlimit:10;" d="
			M58.5,13.5c-3.18-3.18-12.73,0-12.73,0L58.5,26.23C58.5,26.23,61.68,16.68,58.5,13.5z"/>
		<path style="fill:none;stroke-width:var(--icon-stroke-width-m, calc(var(--icon-stroke-width, {{default.iconStrokeWidth}}) * 1));stroke-linecap: var(--icon-stroke-linecap, {{default.iconStrokeLinecap}});stroke-linecap: var(--icon-stroke-linejoin,  {{default.iconStrokeLinejoin}});stroke-miterlimit:10;" d="
			M13.5,58.5c3.18,3.18,12.73,0,12.73,0L13.5,45.77C13.5,45.77,10.32,55.32,13.5,58.5z"/>
	</g>
	
		<line style="fill:none;stroke-width:var(--icon-stroke-width-m, calc(var(--icon-stroke-width, {{default.iconStrokeWidth}}) * 1));stroke-linecap: var(--icon-stroke-linecap, {{default.iconStrokeLinecap}});stroke-linecap: var(--icon-stroke-linejoin,  {{default.iconStrokeLinejoin}});stroke-miterlimit:10;" x1="27" y1="45" x2="20.25" y2="51.75"/>
	
		<line style="fill:none;stroke-width:var(--icon-stroke-width-m, calc(var(--icon-stroke-width, {{default.iconStrokeWidth}}) * 1));stroke-linecap: var(--icon-stroke-linecap, {{default.iconStrokeLinecap}});stroke-linecap: var(--icon-stroke-linejoin,  {{default.iconStrokeLinejoin}});stroke-miterlimit:10;" x1="52.14" y1="19.86" x2="45" y2="27"/>
</g>
<g>
</g>
<g>
</g>
</svg>
