<?

<svg version="1.1" id="{{componentName}}" xmlns="http://www.w3.org/2000/svg" xmlns:xlink="http://www.w3.org/1999/xlink" x="0px" y="0px"
	 viewBox="0 0 72 72" style="enable-background:new 0 0 72 72;" 
<path style="opacity:0.5;fill: var(--icon-fill, {{default.iconFill}});" d="M22.5,14.78c-3.23,2.05-9,6.18-9,9.42c0,4.5,11.12,11.8,11.12,11.8V13.5
	C24.62,13.5,23.75,13.98,22.5,14.78z"/>
<path style="opacity:0.5;fill: var(--icon-fill, {{default.iconFill}});" d="M47.38,36v22.5c0,0,11.12-6.2,11.12-10.7S47.38,36,47.38,36z"/>
<path style="fill:none;stroke-width:var(--icon-stroke-width-m, calc(var(--icon-stroke-width, {{default.iconStrokeWidth}}) * 1));stroke-linecap: var(--icon-stroke-linecap, {{default.iconStrokeLinecap}});stroke-linecap: var(--icon-stroke-linejoin,  {{default.iconStrokeLinejoin}});stroke-miterlimit:10;" d="
	M22.5,14.78c-3.23,2.05-9,6.18-9,9.42c0,4.5,11.12,11.8,11.12,11.8V13.5C24.62,13.5,23.75,13.98,22.5,14.78z"/>
<line style="fill:none;stroke-width:var(--icon-stroke-width-m, calc(var(--icon-stroke-width, {{default.iconStrokeWidth}}) * 1));stroke-linecap: var(--icon-stroke-linecap, {{default.iconStrokeLinecap}});stroke-linecap: var(--icon-stroke-linejoin,  {{default.iconStrokeLinejoin}});stroke-miterlimit:10;" x1="54" y1="24.2" x2="24.62" y2="24.2"/>
<path style="fill:none;stroke-width:var(--icon-stroke-width-m, calc(var(--icon-stroke-width, {{default.iconStrokeWidth}}) * 1));stroke-linecap: var(--icon-stroke-linecap, {{default.iconStrokeLinecap}});stroke-linecap: var(--icon-stroke-linejoin,  {{default.iconStrokeLinejoin}});stroke-miterlimit:10;" d="
	M47.38,36v22.5c0,0,11.12-6.2,11.12-10.7S47.38,36,47.38,36z"/>
<line style="fill:none;stroke-width:var(--icon-stroke-width-m, calc(var(--icon-stroke-width, {{default.iconStrokeWidth}}) * 1));stroke-linecap: var(--icon-stroke-linecap, {{default.iconStrokeLinecap}});stroke-linecap: var(--icon-stroke-linejoin,  {{default.iconStrokeLinejoin}});stroke-miterlimit:10;" x1="18" y1="47.8" x2="47.25" y2="47.8"/>
</svg>
