<?

<svg version="1.1" id="{{componentName}}" xmlns="http://www.w3.org/2000/svg" xmlns:xlink="http://www.w3.org/1999/xlink" x="0px" y="0px"
	 viewBox="0 0 72 72" style="enable-background:new 0 0 72 72;" 
<path style="opacity:0.5;fill: var(--icon-fill, {{default.iconFill}});" d="M56.5,58.5h-41c-1.1,0-2-0.9-2-2v-41c0-1.1,0.9-2,2-2h41c1.1,0,2,0.9,2,2v41
	C58.5,57.6,57.6,58.5,56.5,58.5z"/>
<path style="fill:none;stroke-width:var(--icon-stroke-width-m, calc(var(--icon-stroke-width, {{default.iconStrokeWidth}}) * 1));stroke-miterlimit:10;" d="M56.5,58.5h-41c-1.1,0-2-0.9-2-2v-41
	c0-1.1,0.9-2,2-2h41c1.1,0,2,0.9,2,2v41C58.5,57.6,57.6,58.5,56.5,58.5z"/>
</svg>
