<svg version="1.1" id="BoardMultiTRight" xmlns="http://www.w3.org/2000/svg" xmlns:xlink="http://www.w3.org/1999/xlink" x="0px" y="0px" viewBox="0 0 72 72" style="enable-background:new 0 0 72 72;" xml:space="preserve"><path style="fill: var(--icon-fill, rgba(0, 0, 0, 0)); opacity: var(--icon-fill-opacity, 1);" d="M13.5,56.5l0-41c0-1.1,0.9-2,2-2l14,0c1.1,0,2,0.9,2,2l0,41c0,1.1-0.9,2-2,2l-14,0 C14.4,58.5,13.5,57.6,13.5,56.5z"/><path style="fill: var(--icon-fill, rgba(0, 0, 0, 0)); opacity: var(--icon-fill-opacity, 1);" d="M40.5,29.5l0-14c0-1.1,0.9-2,2-2l14,0c1.1,0,2,0.9,2,2l0,14c0,1.1-0.9,2-2,2l-14,0 C41.4,31.5,40.5,30.6,40.5,29.5z"/><path style="fill: var(--icon-fill, rgba(0, 0, 0, 0)); opacity: var(--icon-fill-opacity, 1);" d="M40.5,56.5l0-14c0-1.1,0.9-2,2-2l14,0c1.1,0,2,0.9,2,2l0,14c0,1.1-0.9,2-2,2l-14,0 C41.4,58.5,40.5,57.6,40.5,56.5z"/><path style="fill:none;stroke-width:var(--icon-stroke-width-m, calc(var(--icon-stroke-width, 5) * 1));stroke-miterlimit:10;" d="M40.5,29.5l0-14c0-1.1,0.9-2,2-2l14,0 c1.1,0,2,0.9,2,2l0,14c0,1.1-0.9,2-2,2l-14,0C41.4,31.5,40.5,30.6,40.5,29.5z"/><path style="fill:none;stroke-width:var(--icon-stroke-width-m, calc(var(--icon-stroke-width, 5) * 1));stroke-miterlimit:10;" d="M40.5,56.5l0-14c0-1.1,0.9-2,2-2l14,0 c1.1,0,2,0.9,2,2l0,14c0,1.1-0.9,2-2,2l-14,0C41.4,58.5,40.5,57.6,40.5,56.5z"/><path style="fill:none;stroke-width:var(--icon-stroke-width-m, calc(var(--icon-stroke-width, 5) * 1));stroke-miterlimit:10;" d="M13.5,56.5l0-41c0-1.1,0.9-2,2-2l14,0 c1.1,0,2,0.9,2,2l0,41c0,1.1-0.9,2-2,2l-14,0C14.4,58.5,13.5,57.6,13.5,56.5z"/></svg>