<svg id="BoardSubtract2" data-name="Layer 1" xmlns="http://www.w3.org/2000/svg" viewBox="0 0 72 72"><defs><style>.cls-1 { stroke: var(--icon-stroke-color-secondary, var(--icon-stroke-color, currentColor)); } .cls-1, .cls-2 { fill: none; stroke-miterlimit: 10; stroke-width:var(--icon-stroke-width-m, calc(var(--icon-stroke-width, 5) * 1)); } .cls-2 {  } .cls-3 { fill: var(--icon-fill, rgba(0, 0, 0, 0)); opacity: var(--icon-fill-opacity, 1); stroke-width: 0px; }</style></defs><rect class="cls-3" x="13.5" y="13.5" width="45" height="45" rx="6" ry="6"/><rect class="cls-3" x="13.5" y="13.5" width="45" height="36" rx="6" ry="6"/><path class="cls-1" d="M58.5,31.5v12c0,3.31-2.69,6-6,6H19.5c-3.31,0-6-2.69-6-6v-24c0-3.31,2.69-6,6-6h21"/><path class="cls-2" d="M58.5,31.5v21c0,3.31-2.69,6-6,6H19.5c-3.31,0-6-2.69-6-6V19.5c0-3.31,2.69-6,6-6h21"/><line class="cls-2" x1="45" y1="22.5" x2="63" y2="22.5"/></svg>