<svg version="1.1" id="BoardSplit31Horizontal" xmlns="http://www.w3.org/2000/svg" xmlns:xlink="http://www.w3.org/1999/xlink" x="0px" y="0px" viewBox="0 0 72 72" style="enable-background:new 0 0 72 72;" xml:space="preserve"><path style="fill: var(--icon-fill, rgba(0, 0, 0, 0)); opacity: var(--icon-fill-opacity, 1);" d="M56.5,58.5h-41c-1.1,0-2-0.9-2-2v-41c0-1.1,0.9-2,2-2h41c1.1,0,2,0.9,2,2v41 C58.5,57.6,57.6,58.5,56.5,58.5z"/><line style="fill:none;stroke:red;stroke-width:var(--icon-stroke-width-m, calc(var(--icon-stroke-width, 5) * 1));stroke-miterlimit:10;" x1="58.5" y1="45" x2="13.5" y2="45"/><path style="fill:none;stroke-width:var(--icon-stroke-width-m, calc(var(--icon-stroke-width, 5) * 1));stroke-miterlimit:10;" d="M58.5,15.5v41c0,1.1-0.9,2-2,2h-41 c-1.1,0-2-0.9-2-2v-41c0-1.1,0.9-2,2-2h41C57.6,13.5,58.5,14.4,58.5,15.5z"/></svg>