<svg version="1.1" id="Bulb" xmlns="http://www.w3.org/2000/svg" xmlns:xlink="http://www.w3.org/1999/xlink" x="0px" y="0px" viewBox="0 0 72 72" style="enable-background:new 0 0 72 72;" xml:space="preserve"><line style="fill:none;stroke-width:var(--icon-stroke-width-m, calc(var(--icon-stroke-width, 5) * 1));stroke-miterlimit:10;" x1="27" y1="54" x2="45" y2="54"/><path style="fill:none;stroke-width:var(--icon-stroke-width-m, calc(var(--icon-stroke-width, 5) * 1));stroke-linecap: var(--icon-stroke-linecap, round);stroke-miterlimit:10;" d="M40.5,31.5 c0,2.49-2.01,4.5-4.5,4.5s-4.5-2.01-4.5-4.5"/><line style="fill:none;stroke-width:var(--icon-stroke-width-m, calc(var(--icon-stroke-width, 5) * 1));stroke-miterlimit:10;" x1="36" y1="36" x2="36" y2="54"/><path style="fill:none;stroke-width:var(--icon-stroke-width-m, calc(var(--icon-stroke-width, 5) * 1));stroke-linecap: var(--icon-stroke-linecap, round);stroke-miterlimit:10;" d="M54,27c0-9.94-8.06-18-18-18 s-18,8.06-18,18c0,13.5,10.8,18,10.8,27v5c0,2.21,1.79,4,4,4H36h3.2c2.21,0,4-1.79,4-4v-5C43.2,45,54,40.5,54,27"/></svg>