<svg id="Clipboard" data-name="Layer 1" xmlns="http://www.w3.org/2000/svg" viewBox="0 0 72 72"><defs><style>.cls-1 { stroke-linecap: round; } .cls-1, .cls-2 { fill: none;  stroke-linejoin: round; stroke-width:var(--icon-stroke-width-m, calc(var(--icon-stroke-width, 5) * 1)); } .cls-3 { fill: var(--icon-fill, rgba(0, 0, 0, 0)); opacity: var(--icon-fill-opacity, 1); stroke-width: 0px; }</style></defs><path class="cls-3" d="M50,13.5h-9.5v4.5h-9v-4.5h-9.5c-2.21,0-4,1.79-4,4v41.5c0,2.21,1.79,4,4,4h28c2.21,0,4-1.79,4-4V17.5c0-2.21-1.79-4-4-4Z"/><path class="cls-2" d="M40.5,13.5h9.5c2.21,0,4,1.79,4,4v41.5c0,2.21-1.79,4-4,4h-28c-2.21,0-4-1.79-4-4V17.5c0-2.21,1.79-4,4-4h9.5"/><rect class="cls-1" x="31.5" y="9" width="9" height="9"/></svg>