<svg version="1.1" id="CloudSun" xmlns="http://www.w3.org/2000/svg" xmlns:xlink="http://www.w3.org/1999/xlink" x="0px" y="0px" viewBox="0 0 72 72" style="enable-background:new 0 0 72 72;" xml:space="preserve"><path style="fill:none;stroke-width:var(--icon-stroke-width-m, calc(var(--icon-stroke-width, 5) * 1));stroke-linecap: var(--icon-stroke-linecap, round);stroke-miterlimit:10;" d="M54,36 c-0.2,0-0.39,0.02-0.58,0.03C51.43,28.26,44.39,22.5,36,22.5s-15.43,5.76-17.42,13.53C18.39,36.02,18.2,36,18,36c-4.97,0-9,4.03-9,9 s4.03,9,9,9c1.74,0,3.36-0.5,4.74-1.36c3.29,3.59,8.01,5.86,13.26,5.86s9.97-2.27,13.26-5.86C50.64,53.5,52.26,54,54,54 c4.97,0,9-4.03,9-9S58.97,36,54,36z"/><line style="fill:none;stroke-width:var(--icon-stroke-width-m, calc(var(--icon-stroke-width, 5) * 1));stroke-miterlimit:10;" x1="45.22" y1="3.41" x2="45.22" y2="9.68"/><line style="fill:none;stroke-width:var(--icon-stroke-width-m, calc(var(--icon-stroke-width, 5) * 1));stroke-miterlimit:10;" x1="60.88" y1="25.33" x2="67.14" y2="25.33"/><line style="fill:none;stroke-width:var(--icon-stroke-width-m, calc(var(--icon-stroke-width, 5) * 1));stroke-miterlimit:10;" x1="29.73" y1="9.83" x2="34.15" y2="14.26"/><line style="fill:none;stroke-width:var(--icon-stroke-width-m, calc(var(--icon-stroke-width, 5) * 1));stroke-miterlimit:10;" x1="56.29" y1="14.26" x2="60.72" y2="9.83"/><path style="fill:none;stroke-width:var(--icon-stroke-width-m, calc(var(--icon-stroke-width, 5) * 1));stroke-miterlimit:10;" d="M35.15,22.6c1.2-4.44,5.26-7.7,10.07-7.7 c5.76,0,10.44,4.67,10.44,10.44c0,2.88-1.17,5.49-3.06,7.38"/></svg>