<svg version="1.1" id="CloudRain" xmlns="http://www.w3.org/2000/svg" xmlns:xlink="http://www.w3.org/1999/xlink" x="0px" y="0px" viewBox="0 0 72 72" style="enable-background:new 0 0 72 72;" xml:space="preserve"><path style="fill:none;stroke-width:var(--icon-stroke-width-m, calc(var(--icon-stroke-width, 5) * 1));stroke-linecap: var(--icon-stroke-linecap, round);stroke-miterlimit:10;" d="M54,25.5 c-0.2,0-0.39,0.02-0.58,0.03C51.43,17.76,44.39,12,36,12s-15.43,5.76-17.42,13.53C18.39,25.52,18.2,25.5,18,25.5c-4.97,0-9,4.03-9,9 s4.03,9,9,9c1.74,0,3.36-0.5,4.74-1.36C26.03,45.73,30.74,48,36,48s9.97-2.27,13.26-5.86c1.38,0.86,3,1.36,4.74,1.36 c4.97,0,9-4.03,9-9S58.97,25.5,54,25.5z"/><line style="fill:none;stroke-width:var(--icon-stroke-width-m, calc(var(--icon-stroke-width, 5) * 1));stroke-linecap: var(--icon-stroke-linecap, round);stroke-miterlimit:10;" x1="18" y1="52.5" x2="18" y2="52.5"/><line style="fill:none;stroke-width:var(--icon-stroke-width-m, calc(var(--icon-stroke-width, 5) * 1));stroke-linecap: var(--icon-stroke-linecap, round);stroke-miterlimit:10;" x1="36" y1="57" x2="36" y2="57"/><line style="fill:none;stroke-width:var(--icon-stroke-width-m, calc(var(--icon-stroke-width, 5) * 1));stroke-linecap: var(--icon-stroke-linecap, round);stroke-miterlimit:10;" x1="54" y1="52.5" x2="54" y2="52.5"/></svg>