<svg id="CloudThermometer" data-name="Layer 1" xmlns="http://www.w3.org/2000/svg" viewBox="0 0 72 72"><defs><style>.cls-1 { stroke-linecap: round; } .cls-1, .cls-2 { fill: none;  stroke-miterlimit: 10; stroke-width:var(--icon-stroke-width-m, calc(var(--icon-stroke-width, 5) * 1)); } .cls-3 { fill: var(--icon-fill, rgba(0, 0, 0, 0)); opacity: var(--icon-fill-opacity, 1); stroke-width: 0px; }</style></defs><path class="cls-3" d="M45,22.67c-2.65-1.54-5.72-2.42-9-2.42-8.39,0-15.43,5.76-17.42,13.53-.19-.01-.39-.03-.58-.03-4.97,0-9,4.03-9,9s4.03,9,9,9c1.74,0,3.36-.5,4.74-1.36,3.29,3.59,8.01,5.86,13.26,5.86,1.79,0,3.52-.26,5.15-.75"/><path class="cls-2" d="M58.5,42.77V15.75c0-3.73-3.02-6.75-6.75-6.75s-6.75,3.02-6.75,6.75v27.02c-2.73,2.05-4.5,5.31-4.5,8.98,0,6.21,5.04,11.25,11.25,11.25s11.25-5.04,11.25-11.25c0-3.68-1.77-6.93-4.5-8.98Z"/><circle class="cls-2" cx="51.75" cy="51.75" r="4.5"/><line class="cls-2" x1="51.75" y1="16.5" x2="51.75" y2="47.25"/><path class="cls-1" d="M45,22.67c-2.65-1.54-5.72-2.42-9-2.42-8.39,0-15.43,5.76-17.42,13.53-.19-.01-.39-.03-.58-.03-4.97,0-9,4.03-9,9s4.03,9,9,9c1.74,0,3.36-.5,4.74-1.36,3.29,3.59,8.01,5.86,13.26,5.86,1.79,0,3.52-.26,5.15-.75"/></svg>