<svg id="FactoryArm" data-name="Layer 1" xmlns="http://www.w3.org/2000/svg" viewBox="0 0 72 72"><defs><style>.cls-1 { fill: white; } .cls-1, .cls-2 {  stroke-miterlimit: 10; stroke-width:var(--icon-stroke-width-m, calc(var(--icon-stroke-width, 5) * 1)); } .cls-2 { fill: none; } .cls-3 { fill: var(--icon-fill, rgba(0, 0, 0, 0)); opacity: var(--icon-fill-opacity, 1); stroke-width: 0px; }</style></defs><path class="cls-3" d="M15.75,63c0-7.46,6.04-13.5,13.5-13.5s13.5,6.04,13.5,13.5"/><circle class="cls-3" cx="22.5" cy="22.5" r="4.5"/><circle class="cls-3" cx="49.75" cy="13.5" r="4.5"/><polyline class="cls-2" points="20.25 54 19 27 27 27 38.25 54"/><path class="cls-2" d="M15.75,63c0-7.46,6.04-13.5,13.5-13.5s13.5,6.04,13.5,13.5"/><line class="cls-1" x1="9" y1="63" x2="49.5" y2="63"/><circle class="cls-2" cx="22.5" cy="22.5" r="4.5"/><polygon class="cls-2" points="27 18 27 25 43 15 43 12 27 18"/><polyline class="cls-2" points="47.25 36 42.75 31.5 47.25 27 51.75 27 56.25 31.5 51.75 36"/><circle class="cls-2" cx="49.75" cy="13.5" r="4.5"/><line class="cls-2" x1="49.75" y1="18.5" x2="49.75" y2="27"/></svg>