<svg id="FileSad2" data-name="Layer 1" xmlns="http://www.w3.org/2000/svg" viewBox="0 0 72 72">
  <path d="M40.5,9h-23c-2.21,0-4,1.79-4,4v46c0,2.21,1.79,4,4,4h37c2.21,0,4-1.79,4-4V27l-18-18Z" style="fill: var(--icon-fill, rgba(0, 0, 0, 0)); opacity: var(--icon-fill-opacity, 1); stroke-width: 0px;"/>
  <path d="M40.5,9v14c0,2.21,1.79,4,4,4h14" style="fill: none; stroke: var(--icon-stroke-color-secondary, var(--icon-stroke-color, currentColor)); stroke-linecap: round; stroke-miterlimit: 10; stroke-width:var(--icon-stroke-width-m, calc(var(--icon-stroke-width, 5) * 1));"/>
  <path d="M58.5,45v-18l-18-18h-23c-2.21,0-4,1.79-4,4v46c0,2.21,1.79,4,4,4h23" style="fill: none;  stroke-miterlimit: 10; stroke-width:var(--icon-stroke-width-m, calc(var(--icon-stroke-width, 5) * 1));"/>
  <g>
    <path d="M47.89,66.05c1.56-1.56,3.72-2.53,6.11-2.53s4.54.97,6.11,2.53" style="fill: none;  stroke-linecap: round; stroke-miterlimit: 10; stroke-width:var(--icon-stroke-width-m, calc(var(--icon-stroke-width, 5) * 1));"/>
    <line x1="59.76" y1="55.2" x2="59.76" y2="52" style="fill: white;  stroke-linecap: round; stroke-linejoin: round; stroke-width:var(--icon-stroke-width-m, calc(var(--icon-stroke-width, 5) * 1));"/>
    <line x1="48.24" y1="55.2" x2="48.24" y2="52" style="fill: white;  stroke-linecap: round; stroke-linejoin: round; stroke-width:var(--icon-stroke-width-m, calc(var(--icon-stroke-width, 5) * 1));"/>
  </g>
</svg>