<svg id="FileEdit2" data-name="Layer 1" xmlns="http://www.w3.org/2000/svg" viewBox="0 0 72 72"><path d="M40.5,9h-23c-2.21,0-4,1.79-4,4v46c0,2.21,1.79,4,4,4h37c2.21,0,4-1.79,4-4V27l-18-18Z" style="fill: var(--icon-fill, rgba(0, 0, 0, 0)); opacity: var(--icon-fill-opacity, 1); stroke-width: 0px;"/><path d="M40.5,9v14c0,2.21,1.79,4,4,4h14" style="fill: none; stroke: var(--icon-stroke-color-secondary, var(--icon-stroke-color, currentColor)); stroke-linecap: round; stroke-miterlimit: 10; stroke-width:var(--icon-stroke-width-m, calc(var(--icon-stroke-width, 5) * 1));"/><path d="M58.5,45v-18l-18-18h-23c-2.21,0-4,1.79-4,4v46c0,2.21,1.79,4,4,4h23" style="fill: none;  stroke-miterlimit: 10; stroke-width:var(--icon-stroke-width-m, calc(var(--icon-stroke-width, 5) * 1));"/><path d="M43.66,40.5l14.51,14.51c.44.44.44,1.16,0,1.6l-6.05,6.05c-.44.44-1.16.44-1.6,0l-14.51-14.51v-7.66h7.66Z" style="fill: none;  stroke-miterlimit: 10; stroke-width:var(--icon-stroke-width-m, calc(var(--icon-stroke-width, 5) * 1));"/><line x1="55.28" y1="52.13" x2="47.63" y2="59.78" style="fill: none;  stroke-miterlimit: 10; stroke-width:var(--icon-stroke-width-m, calc(var(--icon-stroke-width, 5) * 1));"/><line x1="43.66" y1="40.5" x2="36" y2="48.16" style="fill: none;  stroke-miterlimit: 10; stroke-width:var(--icon-stroke-width-m, calc(var(--icon-stroke-width, 5) * 1));"/></svg>