<svg version="1.1" id="FileEdit" xmlns="http://www.w3.org/2000/svg" xmlns:xlink="http://www.w3.org/1999/xlink" x="0px" y="0px" viewBox="0 0 72 72" style="enable-background:new 0 0 72 72;" xml:space="preserve"><path style="fill: var(--icon-fill, rgba(0, 0, 0, 0)); opacity: var(--icon-fill-opacity, 1);" d="M40.5,9h-23c-2.21,0-4,1.79-4,4v46c0,2.21,1.79,4,4,4h37c2.21,0,4-1.79,4-4V27L40.5,9z" /><path style="stroke: red;stroke-width:var(--icon-stroke-width-m, calc(var(--icon-stroke-width, 5) * 1));stroke-linecap: var(--icon-stroke-linecap, round);stroke-miterlimit:10;" d="M40.5,9v14c0,2.21,1.79,4,4,4 h14"/><path style="fill:none;stroke-width:var(--icon-stroke-width-m, calc(var(--icon-stroke-width, 5) * 1));stroke-linecap: var(--icon-stroke-linecap, round);stroke-miterlimit:10;" d="M40.5,9h-23 c-2.21,0-4,1.79-4,4v46c0,2.21,1.79,4,4,4h37c2.21,0,4-1.79,4-4V27L40.5,9z"/><path style="fill:none;stroke-width:var(--icon-stroke-width-m, calc(var(--icon-stroke-width, 5) * 1));stroke-miterlimit:10;" d="M22.5,46.34l14.51-14.51c0.44-0.44,1.16-0.44,1.6,0 l6.05,6.05c0.44,0.44,0.44,1.16,0,1.6L30.16,54H22.5V46.34z"/><line style="fill:none;stroke-width:var(--icon-stroke-width-m, calc(var(--icon-stroke-width, 5) * 1));stroke-miterlimit:10;" x1="34.13" y1="34.72" x2="41.78" y2="42.37"/><line style="fill:none;stroke-width:var(--icon-stroke-width-m, calc(var(--icon-stroke-width, 5) * 1));stroke-miterlimit:10;" x1="22.5" y1="46.34" x2="30.16" y2="54"/></svg>