<svg version="1.1" id="Fingerprint" xmlns="http://www.w3.org/2000/svg" xmlns:xlink="http://www.w3.org/1999/xlink" x="0px" y="0px" viewBox="0 0 72 72" style="enable-background:new 0 0 72 72;" xml:space="preserve"><g><path style="fill:none;stroke-width:var(--icon-stroke-width-m, calc(var(--icon-stroke-width, 5) * 1));stroke-linecap: var(--icon-stroke-linecap, round);stroke-linecap: var(--icon-stroke-linejoin, round);stroke-miterlimit:10;" d=" M43.5,19.06c-0.81-0.34-1.66-0.61-2.53-0.79C40.09,18.09,39.18,18,38.25,18s-1.84,0.07-2.72,0.21c-0.88,0.14-1.73,0.35-2.53,0.63 c-0.81,0.28-1.57,0.63-2.29,1.05c-0.72,0.42-1.39,0.91-2,1.48c-0.61,0.56-1.16,1.2-1.65,1.9c-0.49,0.7-0.9,1.48-1.24,2.32 c-0.34,0.84-0.61,1.76-0.79,2.74c-0.18,0.98-0.27,2.04-0.27,3.16c0,1.69-0.21,3.3-0.58,4.84s-0.9,3-1.53,4.37s-1.37,2.65-2.16,3.84 c-0.79,1.19-1.63,2.28-2.48,3.26s-1.69,1.86-2.48,2.63c-0.79,0.76-1.53,1.42-2.16,1.94s-1.16,0.93-1.53,1.2S11.25,54,11.25,54"/><path style="fill:none;stroke-width:var(--icon-stroke-width-m, calc(var(--icon-stroke-width, 5) * 1));stroke-linecap: var(--icon-stroke-linecap, round);stroke-linecap: var(--icon-stroke-linejoin, round);stroke-miterlimit:10;" d=" M47.25,58.5c0,0,0.07-0.21,0.19-0.61s0.3-0.98,0.51-1.71s0.46-1.63,0.72-2.66c0.26-1.03,0.54-2.19,0.83-3.45s0.56-2.64,0.83-4.09 c0.26-1.45,0.51-2.98,0.72-4.56s0.39-3.22,0.51-4.88s0.19-3.35,0.19-5.04c0-0.93-0.09-1.84-0.27-2.72 c-0.18-0.88-0.45-1.73-0.79-2.53"/><path style="fill:none;stroke-width:var(--icon-stroke-width-m, calc(var(--icon-stroke-width, 5) * 1));stroke-linecap: var(--icon-stroke-linecap, round);stroke-linecap: var(--icon-stroke-linejoin, round);stroke-miterlimit:10;" d=" M30.9,45.98c-0.53,1.45-1.09,2.82-1.65,4.09c-0.56,1.27-1.12,2.43-1.65,3.45s-1.02,1.92-1.44,2.66s-0.77,1.32-1.02,1.71 s-0.39,0.61-0.39,0.61"/><path style="fill:none;stroke-width:var(--icon-stroke-width-m, calc(var(--icon-stroke-width, 5) * 1));stroke-linecap: var(--icon-stroke-linecap, round);stroke-linecap: var(--icon-stroke-linejoin, round);stroke-miterlimit:10;" d=" M38.25,58.5c0,0,0.07-0.21,0.19-0.61s0.3-0.98,0.51-1.71s0.46-1.63,0.72-2.66c0.26-1.03,0.54-2.19,0.83-3.45s0.56-2.64,0.83-4.09 c0.26-1.45,0.51-2.98,0.72-4.56s0.39-3.22,0.51-4.88s0.19-3.35,0.19-5.04c0-0.31-0.03-0.61-0.09-0.91 c-0.06-0.29-0.15-0.58-0.26-0.84c-0.11-0.27-0.25-0.52-0.41-0.76c-0.16-0.24-0.35-0.46-0.55-0.67c-0.2-0.2-0.43-0.39-0.67-0.55 c-0.24-0.16-0.5-0.3-0.76-0.41c-0.27-0.11-0.55-0.2-0.84-0.26c-0.29-0.06-0.6-0.09-0.91-0.09s-0.61,0.03-0.91,0.09 c-0.29,0.06-0.58,0.15-0.84,0.26c-0.27,0.11-0.52,0.25-0.76,0.41c-0.24,0.16-0.46,0.35-0.67,0.55c-0.2,0.2-0.39,0.43-0.55,0.67 c-0.16,0.24-0.3,0.5-0.41,0.76c-0.11,0.27-0.2,0.55-0.26,0.84c-0.06,0.29-0.09,0.6-0.09,0.91c0,1.69-0.14,3.38-0.39,5.04"/><path style="fill:none;stroke-width:var(--icon-stroke-width-m, calc(var(--icon-stroke-width, 5) * 1));stroke-linecap: var(--icon-stroke-linecap, round);stroke-linecap: var(--icon-stroke-linejoin, round);stroke-miterlimit:10;" d=" M57.67,53.52c-0.26,1.03-0.51,1.92-0.72,2.66s-0.39,1.32-0.51,1.71s-0.19,0.61-0.19,0.61"/><path style="fill:none;stroke-width:var(--icon-stroke-width-m, calc(var(--icon-stroke-width, 5) * 1));stroke-linecap: var(--icon-stroke-linecap, round);stroke-linecap: var(--icon-stroke-linejoin, round);stroke-miterlimit:10;" d=" M19.59,18.92c0.81-1.2,1.73-2.31,2.75-3.33s2.13-1.94,3.33-2.75s2.48-1.51,3.82-2.07c1.35-0.57,2.76-1.01,4.22-1.31S36.7,9,38.25,9 s3.07,0.16,4.53,0.46s2.88,0.74,4.22,1.31c1.35,0.57,2.62,1.27,3.82,2.07s2.31,1.73,3.33,2.75c1.02,1.02,1.94,2.13,2.75,3.33 c0.81,1.2,1.51,2.48,2.07,3.82c0.57,1.35,1.01,2.76,1.31,4.22c0.3,1.46,0.46,2.98,0.46,4.53c0,1.69-0.07,3.38-0.19,5.04 s-0.3,3.3-0.51,4.88"/><path style="fill:none;stroke-width:var(--icon-stroke-width-m, calc(var(--icon-stroke-width, 5) * 1));stroke-linecap: var(--icon-stroke-linecap, round);stroke-linecap: var(--icon-stroke-linejoin, round);stroke-miterlimit:10;" d=" M15.98,34.99c-0.05-0.38-0.09-0.75-0.12-1.09s-0.05-0.67-0.07-0.96s-0.03-0.54-0.03-0.76c-0.01-0.21-0.01-0.38-0.01-0.5 s0-0.18,0-0.18c0-1.55,0.16-3.07,0.46-4.53"/></g></svg>