<svg version="1.1" id="FolderEdit2" xmlns="http://www.w3.org/2000/svg" xmlns:xlink="http://www.w3.org/1999/xlink" x="0px" y="0px" viewBox="0 0 72 72" style="enable-background:new 0 0 72 72;" xml:space="preserve"><path style="fill: var(--icon-fill, rgba(0, 0, 0, 0)); opacity: var(--icon-fill-opacity, 1);" d="M17.5,58.5h37c2.21,0,4-1.79,4-4v-28c0-2.21-1.79-4-4-4H36l-3.39-6.79 c-0.68-1.36-2.06-2.21-3.58-2.21H17.5c-2.21,0-4,1.79-4,4v37C13.5,56.71,15.29,58.5,17.5,58.5z"/><line style="fill:none;stroke: red;stroke-width:var(--icon-stroke-width-m, calc(var(--icon-stroke-width, 5) * 1));stroke-miterlimit:10;" x1="13.5" y1="31.5" x2="58.5" y2="31.5"/><path style="fill:none;stroke-width:var(--icon-stroke-width-m, calc(var(--icon-stroke-width, 5) * 1));stroke-miterlimit:10;" d="M58.5,40.5v-14c0-2.21-1.79-4-4-4H36l-3.39-6.79 c-0.68-1.36-2.06-2.21-3.58-2.21H17.5c-2.21,0-4,1.79-4,4v37c0,2.21,1.79,4,4,4h23"/><g><path style="fill:none;stroke-width:var(--icon-stroke-width-m, calc(var(--icon-stroke-width, 5) * 1));stroke-miterlimit:10;" d="M48.16,40.5l14.51,14.51 c0.44,0.44,0.44,1.16,0,1.6l-6.05,6.05c-0.44,0.44-1.16,0.44-1.6,0L40.5,48.16V40.5H48.16z"/><line style="fill:none;stroke-width:var(--icon-stroke-width-m, calc(var(--icon-stroke-width, 5) * 1));stroke-miterlimit:10;" x1="59.78" y1="52.13" x2="52.13" y2="59.78"/><line style="fill:none;stroke-width:var(--icon-stroke-width-m, calc(var(--icon-stroke-width, 5) * 1));stroke-miterlimit:10;" x1="48.16" y1="40.5" x2="40.5" y2="48.16"/></g></svg>