<svg id="FolderQuestionMark" data-name="Layer 1" xmlns="http://www.w3.org/2000/svg" viewBox="0 0 72 72">
  <path d="M17.5,58.5h37c2.21,0,4-1.79,4-4v-28c0-2.21-1.79-4-4-4h-18.5l-3.39-6.79c-.68-1.36-2.06-2.21-3.58-2.21h-11.53c-2.21,0-4,1.79-4,4v37c0,2.21,1.79,4,4,4Z" style="fill: var(--icon-fill, rgba(0, 0, 0, 0)); opacity: var(--icon-fill-opacity, 1); stroke-width: 0px;"/>
  <line x1="13.5" y1="31.5" x2="24" y2="31.5" style="fill: none; stroke: var(--icon-stroke-color-secondary, var(--icon-stroke-color, currentColor)); stroke-miterlimit: 10; stroke-width:var(--icon-stroke-width-m, calc(var(--icon-stroke-width, 5) * 1));"/>
  <line x1="47" y1="31.5" x2="58.5" y2="31.5" style="fill: none; stroke: var(--icon-stroke-color-secondary, var(--icon-stroke-color, currentColor)); stroke-miterlimit: 10; stroke-width:var(--icon-stroke-width-m, calc(var(--icon-stroke-width, 5) * 1));"/>
  <path d="M17.5,58.5h37c2.21,0,4-1.79,4-4v-28c0-2.21-1.79-4-4-4h-18.5l-3.39-6.79c-.68-1.36-2.06-2.21-3.58-2.21h-11.53c-2.21,0-4,1.79-4,4v37c0,2.21,1.79,4,4,4Z" style="fill: none;  stroke-miterlimit: 10; stroke-width:var(--icon-stroke-width-m, calc(var(--icon-stroke-width, 5) * 1));"/>
  <path d="M30.62,35.63c0-3.11,2.52-5.62,5.63-5.62s5.63,2.52,5.63,5.62c0,5.63-5.63,5.63-5.63,9.38" style="fill: none;  stroke-miterlimit: 10; stroke-width:var(--icon-stroke-width-m, calc(var(--icon-stroke-width, 5) * 1));"/>
  <line x1="36.25" y1="48.75" x2="36.25" y2="52.5" style="fill: none;  stroke-miterlimit: 10; stroke-width:var(--icon-stroke-width-m, calc(var(--icon-stroke-width, 5) * 1));"/>
</svg>