<svg id="FolderEdit" data-name="Layer 1" xmlns="http://www.w3.org/2000/svg" viewBox="0 0 72 72"><path d="M17.5,58.5h37c2.21,0,4-1.79,4-4v-28c0-2.21-1.79-4-4-4h-18.5l-3.39-6.79c-.68-1.36-2.06-2.21-3.58-2.21h-11.53c-2.21,0-4,1.79-4,4v37c0,2.21,1.79,4,4,4Z" style="fill: var(--icon-fill, rgba(0, 0, 0, 0)); opacity: var(--icon-fill-opacity, 1); stroke-width: 0px;"/><line x1="13.5" y1="31.5" x2="22.5" y2="31.5" style="fill: none; stroke: var(--icon-stroke-color-secondary, var(--icon-stroke-color, currentColor)); stroke-miterlimit: 10; stroke-width:var(--icon-stroke-width-m, calc(var(--icon-stroke-width, 5) * 1));"/><line x1="49.5" y1="31.5" x2="58.5" y2="31.5" style="fill: none; stroke: var(--icon-stroke-color-secondary, var(--icon-stroke-color, currentColor)); stroke-miterlimit: 10; stroke-width:var(--icon-stroke-width-m, calc(var(--icon-stroke-width, 5) * 1));"/><path d="M17.5,58.5h37c2.21,0,4-1.79,4-4v-28c0-2.21-1.79-4-4-4h-18.5l-3.39-6.79c-.68-1.36-2.06-2.21-3.58-2.21h-11.53c-2.21,0-4,1.79-4,4v37c0,2.21,1.79,4,4,4Z" style="fill: none;  stroke-miterlimit: 10; stroke-width:var(--icon-stroke-width-m, calc(var(--icon-stroke-width, 5) * 1));"/><path d="M22.5,41.84l14.51-14.51c.44-.44,1.16-.44,1.6,0l6.05,6.05c.44.44.44,1.16,0,1.6l-14.51,14.51h-7.66v-7.66Z" style="fill: none;  stroke-miterlimit: 10; stroke-width:var(--icon-stroke-width-m, calc(var(--icon-stroke-width, 5) * 1));"/><line x1="34.13" y1="30.22" x2="41.78" y2="37.87" style="fill: none;  stroke-miterlimit: 10; stroke-width:var(--icon-stroke-width-m, calc(var(--icon-stroke-width, 5) * 1));"/><line x1="22.5" y1="41.84" x2="30.16" y2="49.5" style="fill: none;  stroke-miterlimit: 10; stroke-width:var(--icon-stroke-width-m, calc(var(--icon-stroke-width, 5) * 1));"/></svg>