<svg id="Industry3" data-name="Layer 1" xmlns="http://www.w3.org/2000/svg" viewBox="0 0 72 72"><defs><style>.cls-1 { stroke: var(--icon-stroke-color-secondary, var(--icon-stroke-color, currentColor)); } .cls-1, .cls-2 { fill: none; stroke-miterlimit: 10; stroke-width:var(--icon-stroke-width-m, calc(var(--icon-stroke-width, 5) * 1)); } .cls-2 {  } .cls-3 { fill: var(--icon-fill, rgba(0, 0, 0, 0)); opacity: var(--icon-fill-opacity, 1); stroke-width: 0px; }</style></defs><polygon class="cls-3" points="9 58.5 9 49.5 9 36 27 45 27 36 45 45 45 45 45 36 63 45 63 58.5 9 58.5"/><polygon class="cls-2" points="9 58.5 9 49.5 9 36 27 45 27 36 45 45 45 45 45 36 63 45 63 58.5 9 58.5"/><path class="cls-1" d="M18,20.64c8.79-8.79,23.03-8.79,31.82,0"/><path class="cls-1" d="M24.36,27c5.27-5.27,13.82-5.27,19.09,0"/></svg>