<svg id="Laptop" data-name="Layer 1" xmlns="http://www.w3.org/2000/svg" viewBox="0 0 72 72"><defs><style>.cls-1 { fill: none;  stroke-linecap: round; stroke-linejoin: round; stroke-width:var(--icon-stroke-width-m, calc(var(--icon-stroke-width, 5) * 1)); } .cls-2 { opacity: .5; } .cls-3 { fill: red; stroke-width: 0px; }</style></defs><g class="cls-2"><path class="cls-3" d="M17.5,16h37c2.21,0,4,1.79,4,4v27H13.5v-27c0-2.21,1.79-4,4-4Z"/><path class="cls-3" d="M9,47h54v3c0,3.31-2.69,6-6,6H15c-3.31,0-6-2.69-6-6v-3Z"/></g><g><path class="cls-1" d="M17.5,16h37c2.21,0,4,1.79,4,4v27H13.5v-27c0-2.21,1.79-4,4-4Z"/><path class="cls-1" d="M9,47h54v3c0,3.31-2.69,6-6,6H15c-3.31,0-6-2.69-6-6v-3Z"/></g></svg>