<svg id="Money" data-name="Layer 1" xmlns="http://www.w3.org/2000/svg" viewBox="0 0 72 72"><defs><style>.cls-1 { stroke: var(--icon-stroke-color-secondary, var(--icon-stroke-color, currentColor)); } .cls-1, .cls-2 { fill: none; stroke-miterlimit: 10; stroke-width:var(--icon-stroke-width-m, calc(var(--icon-stroke-width, 5) * 1)); } .cls-2 {  } .cls-3 { opacity: .5; } .cls-4 { fill: red; stroke-width: 0px; }</style></defs><g class="cls-3"><rect class="cls-4" x="9" y="23.47" width="54" height="31.5" rx="2" ry="2"/><path class="cls-4" d="M9,33.43c4.97,0,9-4.03,9-9,0-.33-.02-.65-.05-.97"/><path class="cls-4" d="M53.03,23.47c0,4.97,4.03,9,9,9,.33,0,.65-.02.97-.05"/><path class="cls-4" d="M63,45c-4.97,0-9,4.03-9,9,0,.33.02.65.05.97"/><path class="cls-4" d="M18.97,54.97c0-4.97-4.03-9-9-9-.33,0-.65.02-.97.05"/></g><g><path class="cls-1" d="M9,33.43c4.97,0,9-4.03,9-9,0-.33-.02-.65-.05-.97"/><path class="cls-1" d="M53.03,23.47c0,4.97,4.03,9,9,9,.33,0,.65-.02.97-.05"/><path class="cls-1" d="M63,45c-4.97,0-9,4.03-9,9,0,.33.02.65.05.97"/><path class="cls-1" d="M18.97,54.97c0-4.97-4.03-9-9-9-.33,0-.65.02-.97.05"/><rect class="cls-2" x="9" y="23.47" width="54" height="31.5" rx="2" ry="2"/></g><circle class="cls-1" cx="36" cy="39.22" r="9"/></svg>