<svg version="1.1" id="Moneybag" xmlns="http://www.w3.org/2000/svg" xmlns:xlink="http://www.w3.org/1999/xlink" x="0px" y="0px" viewBox="0 0 72 72" style="enable-background:new 0 0 72 72;" xml:space="preserve"><g><path style="fill:none;stroke-width:var(--icon-stroke-width-m, calc(var(--icon-stroke-width, 5) * 1));stroke-miterlimit:10;" d="M34.83,31.72h2.34c0.68,0,1.33,0.31,1.76,0.84 l9.09,7.25c5.04,4.02,8.1,10.07,8.23,16.52c0,0.09,0,0.16,0,0.23v0c0,3.68-2.98,6.66-6.66,6.66H22.41c-3.68,0-6.66-2.98-6.66-6.66 v0c0-0.06,0-0.14,0-0.23c0.13-6.45,3.19-12.49,8.23-16.52l9.09-7.25C33.5,32.03,34.15,31.72,34.83,31.72z"/><path style="fill:none;stroke-width:var(--icon-stroke-width-m, calc(var(--icon-stroke-width, 5) * 1));stroke-miterlimit:10;" d="M31.5,25.22h9c1.24,0,2.25,1.23,2.25,2.75v0 c0,1.52-1.01,2.75-2.25,2.75h-9c-1.24,0-2.25-1.23-2.25-2.75v0C29.25,26.45,30.26,25.22,31.5,25.22z"/><path style="fill:none;stroke-width:var(--icon-stroke-width-m, calc(var(--icon-stroke-width, 5) * 1));stroke-miterlimit:10;" d="M30.88,18.47l2.25,4.5 c0.38,0.76,1.16,1.24,2.01,1.24h1.72c0.85,0,1.63-0.48,2.01-1.24l2.25-4.5c0.75-1.5-0.34-3.26-2.01-3.26h-6.22 C31.22,15.22,30.13,16.98,30.88,18.47z"/></g></svg>