<svg version="1.1" id="Money" xmlns="http://www.w3.org/2000/svg" xmlns:xlink="http://www.w3.org/1999/xlink" x="0px" y="0px" viewBox="0 0 72 72" style="enable-background:new 0 0 72 72;" xml:space="preserve"><g><path style="fill:none;stroke-width:var(--icon-stroke-width-m, calc(var(--icon-stroke-width, 5) * 1));stroke-miterlimit:10;" d="M61,54.97H11c-1.1,0-2-0.9-2-2v-27.5 c0-1.1,0.9-2,2-2h50c1.1,0,2,0.9,2,2v27.5C63,54.07,62.1,54.97,61,54.97z"/><path style="fill:none;stroke-width:var(--icon-stroke-width-m, calc(var(--icon-stroke-width, 5) * 1));stroke-miterlimit:10;" d="M9,33.43c4.97,0,9-4.03,9-9 c0-0.33-0.02-0.65-0.05-0.97"/><path style="fill:none;stroke-width:var(--icon-stroke-width-m, calc(var(--icon-stroke-width, 5) * 1));stroke-miterlimit:10;" d="M53.03,23.47c0,4.97,4.03,9,9,9 c0.33,0,0.65-0.02,0.97-0.05"/><path style="fill:none;stroke-width:var(--icon-stroke-width-m, calc(var(--icon-stroke-width, 5) * 1));stroke-miterlimit:10;" d="M63,45c-4.97,0-9,4.03-9,9 c0,0.33,0.02,0.65,0.05,0.97"/><path style="fill:none;stroke-width:var(--icon-stroke-width-m, calc(var(--icon-stroke-width, 5) * 1));stroke-miterlimit:10;" d="M18.97,54.97c0-4.97-4.03-9-9-9 c-0.33,0-0.65,0.02-0.97,0.05"/></g><circle style="fill:none;stroke-width:var(--icon-stroke-width-m, calc(var(--icon-stroke-width, 5) * 1));stroke-miterlimit:10;" cx="36" cy="39.22" r="9"/></svg>