<svg version="1.1" id="NoteCopy2" xmlns="http://www.w3.org/2000/svg" xmlns:xlink="http://www.w3.org/1999/xlink" x="0px" y="0px" viewBox="0 0 72 72" style="enable-background:new 0 0 72 72;" xml:space="preserve"><g ><path style="fill: var(--icon-fill, rgba(0, 0, 0, 0)); opacity: 0.5;" d="M54.5,12.5h-37c-2.21,0-4,1.79-4,4v37c0,2.21,1.79,4,4,4h37c2.21,0,4-1.79,4-4v-37 C58.5,14.29,56.71,12.5,54.5,12.5z" /></g><line style="fill:none;stroke-width:var(--icon-stroke-width-m, calc(var(--icon-stroke-width, 5) * 1));stroke-miterlimit:10;" x1="40.5" y1="49.5" x2="58.5" y2="49.5"/><line style="fill:none;stroke-width:var(--icon-stroke-width-m, calc(var(--icon-stroke-width, 5) * 1));stroke-miterlimit:10;" x1="49.5" y1="40.5" x2="49.5" y2="58.5"/><g><path style="fill:none;stroke-width:var(--icon-stroke-width-m, calc(var(--icon-stroke-width, 5) * 1));stroke-miterlimit:10;" d="M58.5,40.5v-24c0-2.21-1.79-4-4-4h-37 c-2.21,0-4,1.79-4,4v37c0,2.21,1.79,4,4,4h23"/><path style="fill:none;stroke-width:var(--icon-stroke-width-m, calc(var(--icon-stroke-width, 5) * 1));stroke-miterlimit:10;" d="M58.5,40.5v-24c0-2.21-1.79-4-4-4h-37 c-2.21,0-4,1.79-4,4v37c0,2.21,1.79,4,4,4h23"/></g><line style="fill:black;stroke: var(--icon-stroke-color-secondary, var(--icon-stroke-color, currentColor));stroke-width:var(--icon-stroke-width-m, calc(var(--icon-stroke-width, 5) * 1));stroke-miterlimit:10;" x1="22.5" y1="5.5" x2="22.5" y2="19"/><line style="fill:black;stroke: var(--icon-stroke-color-secondary, var(--icon-stroke-color, currentColor));stroke-width:var(--icon-stroke-width-m, calc(var(--icon-stroke-width, 5) * 1));stroke-miterlimit:10;" x1="31.5" y1="5.5" x2="31.5" y2="19"/><line style="fill:black;stroke: var(--icon-stroke-color-secondary, var(--icon-stroke-color, currentColor));stroke-width:var(--icon-stroke-width-m, calc(var(--icon-stroke-width, 5) * 1));stroke-miterlimit:10;" x1="40.5" y1="5.5" x2="40.5" y2="19"/><line style="fill:black;stroke: var(--icon-stroke-color-secondary, var(--icon-stroke-color, currentColor));stroke-width:var(--icon-stroke-width-m, calc(var(--icon-stroke-width, 5) * 1));stroke-miterlimit:10;" x1="49.5" y1="5.5" x2="49.5" y2="19"/></svg>