<svg version="1.1" id="NoteEdit2" xmlns="http://www.w3.org/2000/svg" xmlns:xlink="http://www.w3.org/1999/xlink" x="0px" y="0px" viewBox="0 0 72 72" style="enable-background:new 0 0 72 72;" xml:space="preserve"><g ><path style="fill: var(--icon-fill, rgba(0, 0, 0, 0)); opacity: 0.5;" d="M54.5,13.5h-37c-2.21,0-4,1.79-4,4v37c0,2.21,1.79,4,4,4h37c2.21,0,4-1.79,4-4v-37 C58.5,15.29,56.71,13.5,54.5,13.5z" /></g><path style="fill:none;stroke-width:var(--icon-stroke-width-m, calc(var(--icon-stroke-width, 5) * 1));stroke-miterlimit:10;" d="M43.66,36l14.51,14.51c0.44,0.44,0.44,1.16,0,1.6 l-6.05,6.05c-0.44,0.44-1.16,0.44-1.6,0L36,43.66V36L43.66,36z"/><line style="fill:none;stroke-width:var(--icon-stroke-width-m, calc(var(--icon-stroke-width, 5) * 1));stroke-miterlimit:10;" x1="39.22" y1="46.87" x2="46.87" y2="39.22"/><line style="fill:none;stroke-width:var(--icon-stroke-width-m, calc(var(--icon-stroke-width, 5) * 1));stroke-miterlimit:10;" x1="43.66" y1="36" x2="36" y2="43.66"/><g><path style="fill:none;stroke-width:var(--icon-stroke-width-m, calc(var(--icon-stroke-width, 5) * 1));stroke-miterlimit:10;" d="M58.5,41.5v-24c0-2.21-1.79-4-4-4h-37 c-2.21,0-4,1.79-4,4v37c0,2.21,1.79,4,4,4h23"/><path style="fill:none;stroke-width:var(--icon-stroke-width-m, calc(var(--icon-stroke-width, 5) * 1));stroke-miterlimit:10;" d="M58.5,41.5v-24c0-2.21-1.79-4-4-4h-37 c-2.21,0-4,1.79-4,4v37c0,2.21,1.79,4,4,4h23"/></g><line style="fill:black;stroke: var(--icon-stroke-color-secondary, var(--icon-stroke-color, currentColor));stroke-width:var(--icon-stroke-width-m, calc(var(--icon-stroke-width, 5) * 1));stroke-miterlimit:10;" x1="22.5" y1="6.5" x2="22.5" y2="20"/><line style="fill:black;stroke: var(--icon-stroke-color-secondary, var(--icon-stroke-color, currentColor));stroke-width:var(--icon-stroke-width-m, calc(var(--icon-stroke-width, 5) * 1));stroke-miterlimit:10;" x1="31.5" y1="6.5" x2="31.5" y2="20"/><line style="fill:black;stroke: var(--icon-stroke-color-secondary, var(--icon-stroke-color, currentColor));stroke-width:var(--icon-stroke-width-m, calc(var(--icon-stroke-width, 5) * 1));stroke-miterlimit:10;" x1="40.5" y1="6.5" x2="40.5" y2="20"/><line style="fill:black;stroke: var(--icon-stroke-color-secondary, var(--icon-stroke-color, currentColor));stroke-width:var(--icon-stroke-width-m, calc(var(--icon-stroke-width, 5) * 1));stroke-miterlimit:10;" x1="49.5" y1="6.5" x2="49.5" y2="20"/></svg>