<svg version="1.1" id="SpeechBalloon" xmlns="http://www.w3.org/2000/svg" xmlns:xlink="http://www.w3.org/1999/xlink" x="0px" y="0px" viewBox="0 0 72 72" style="enable-background:new 0 0 72 72;" xml:space="preserve"><path style="fill: var(--icon-fill, rgba(0, 0, 0, 0)); opacity: var(--icon-fill-opacity, 1);" d="M9,31.5C9,16.59,21.09,9.9,36,9.9s27,6.69,27,21.6S50.91,53.1,36,53.1 c-1.63,0-3.22-0.08-4.77-0.25l-9.74,9.74c-0.86,0.86-2.34,0.25-2.34-0.97V49.31C12.97,45.87,9,40.04,9,31.5z"/><path style="fill:none;stroke-width:var(--icon-stroke-width-m, calc(var(--icon-stroke-width, 5) * 1));stroke-miterlimit:10;" d="M9,31.5C9,16.59,21.09,9.9,36,9.9s27,6.69,27,21.6 S50.91,53.1,36,53.1c-1.63,0-3.22-0.08-4.77-0.25l-9.74,9.74c-0.86,0.86-2.34,0.25-2.34-0.97V49.31C12.97,45.87,9,40.04,9,31.5z"/></svg>