<svg version="1.1" id="SpeechBalloons" xmlns="http://www.w3.org/2000/svg" xmlns:xlink="http://www.w3.org/1999/xlink" x="0px" y="0px" viewBox="0 0 72 72" style="enable-background:new 0 0 72 72;" xml:space="preserve"><path style="fill: var(--icon-fill, rgba(0, 0, 0, 0)); opacity: var(--icon-fill-opacity, 1);" d="M63,40.5c0-11.18-9.07-16.2-20.25-16.2S22.5,29.32,22.5,40.5s9.07,16.2,20.25,16.2 c2.98,0,5.8-0.37,8.35-1.1l5.7,5.7c0.63,0.63,1.71,0.18,1.71-0.71v-8.98C61.31,48.99,63,45.32,63,40.5z"/><path style="fill:none;stroke:red;stroke-width:var(--icon-stroke-width-m, calc(var(--icon-stroke-width, 5) * 1));stroke-miterlimit:10;" d="M49.16,24.92c-1.71-8.74-9.97-12.71-19.91-12.71 C18.07,12.21,9,17.23,9,28.41c0,4.82,1.69,8.49,4.5,11.11v8.98c0,0.89,1.08,1.34,1.71,0.71l5.7-5.7c0.63,0.18,1.28,0.34,1.94,0.48" /><path style="fill:none;stroke-width:var(--icon-stroke-width-m, calc(var(--icon-stroke-width, 5) * 1));stroke-miterlimit:10;" d="M63,40.5c0-11.18-9.07-16.2-20.25-16.2 S22.5,29.32,22.5,40.5s9.07,16.2,20.25,16.2c2.98,0,5.8-0.37,8.35-1.1l5.7,5.7c0.63,0.63,1.71,0.18,1.71-0.71v-8.98 C61.31,48.99,63,45.32,63,40.5z"/></svg>