<svg id="SpeechBalloon2" data-name="Layer 1" xmlns="http://www.w3.org/2000/svg" viewBox="0 0 72 72"><defs><style>.cls-1 { fill: none;  stroke-miterlimit: 10; stroke-width:var(--icon-stroke-width-m, calc(var(--icon-stroke-width, 5) * 1)); } .cls-2 { fill: var(--icon-fill, rgba(0, 0, 0, 0)); opacity: var(--icon-fill-opacity, 1); stroke-width: 0px; }</style></defs><path class="cls-2" d="M63,30.6c0-14.91-12.09-21.6-27-21.6S9,15.69,9,30.6s12.09,21.6,27,21.6c1.63,0,3.22-.08,4.77-.25l9.74,9.74c.86.86,2.34.25,2.34-.97v-12.32c6.18-3.43,10.15-9.27,10.15-17.81Z"/><path class="cls-1" d="M63,30.6c0-14.91-12.09-21.6-27-21.6S9,15.69,9,30.6s12.09,21.6,27,21.6c1.63,0,3.22-.08,4.77-.25l9.74,9.74c.86.86,2.34.25,2.34-.97v-12.32c6.18-3.43,10.15-9.27,10.15-17.81Z"/></svg>