<svg version="1.1" id="SquaredCheck" xmlns="http://www.w3.org/2000/svg" xmlns:xlink="http://www.w3.org/1999/xlink" x="0px" y="0px" viewBox="0 0 72 72" style="enable-background:new 0 0 72 72;" xml:space="preserve"><path style="fill: var(--icon-fill, rgba(0, 0, 0, 0)); opacity: var(--icon-fill-opacity, 1);stroke: var(--icon-stroke-color-secondary, var(--icon-stroke-color, currentColor));stroke-width:var(--icon-stroke-width-m, calc(var(--icon-stroke-width, 5) * 1));stroke-miterlimit:10;" d="M54.5,58.5h-37c-2.21,0-4-1.79-4-4 v-37c0-2.21,1.79-4,4-4h37c2.21,0,4,1.79,4,4v37C58.5,56.71,56.71,58.5,54.5,58.5z"/><path style="fill:none;stroke: var(--icon-stroke-color-secondary, var(--icon-stroke-color, currentColor));stroke-width:var(--icon-stroke-width-m, calc(var(--icon-stroke-width, 5) * 1));stroke-miterlimit:10;" d="M54.5,58.5h-37c-2.21,0-4-1.79-4-4v-37 c0-2.21,1.79-4,4-4h37c2.21,0,4,1.79,4,4v37C58.5,56.71,56.71,58.5,54.5,58.5z"/><polyline style="fill:none;stroke-width:var(--icon-stroke-width-m, calc(var(--icon-stroke-width, 5) * 1));stroke-miterlimit:10;" points="27,32.14 34.71,45 45,27 "/></svg>