<svg version="1.1" id="SquaredEdit" xmlns="http://www.w3.org/2000/svg" xmlns:xlink="http://www.w3.org/1999/xlink" x="0px" y="0px" viewBox="0 0 72 72" style="enable-background:new 0 0 72 72;" xml:space="preserve"><path style="fill: var(--icon-fill, rgba(0, 0, 0, 0)); opacity: var(--icon-fill-opacity, 1);stroke: var(--icon-stroke-color-secondary, var(--icon-stroke-color, currentColor));stroke-width:var(--icon-stroke-width-m, calc(var(--icon-stroke-width, 5) * 1));stroke-miterlimit:10;" d="M54.5,58.5h-37c-2.21,0-4-1.79-4-4 v-37c0-2.21,1.79-4,4-4h37c2.21,0,4,1.79,4,4v37C58.5,56.71,56.71,58.5,54.5,58.5z"/><path style="fill:none;stroke: var(--icon-stroke-color-secondary, var(--icon-stroke-color, currentColor));stroke-width:var(--icon-stroke-width-m, calc(var(--icon-stroke-width, 5) * 1));stroke-miterlimit:10;" d="M54.5,58.5h-37c-2.21,0-4-1.79-4-4v-37 c0-2.21,1.79-4,4-4h37c2.21,0,4,1.79,4,4v37C58.5,56.71,56.71,58.5,54.5,58.5z"/><path style="fill:none;stroke-width:var(--icon-stroke-width-m, calc(var(--icon-stroke-width, 5) * 1));stroke-miterlimit:10;" d="M22.5,41.84l14.51-14.51c0.44-0.44,1.16-0.44,1.6,0 l6.05,6.05c0.44,0.44,0.44,1.16,0,1.6L30.16,49.5H22.5V41.84z"/><line style="fill:none;stroke-width:var(--icon-stroke-width-m, calc(var(--icon-stroke-width, 5) * 1));stroke-miterlimit:10;" x1="34.13" y1="30.22" x2="41.78" y2="37.87"/><line style="fill:none;stroke-width:var(--icon-stroke-width-m, calc(var(--icon-stroke-width, 5) * 1));stroke-miterlimit:10;" x1="22.5" y1="41.84" x2="30.16" y2="49.5"/></svg>