<svg id="ThermometerCold" data-name="Layer 1" xmlns="http://www.w3.org/2000/svg" viewBox="0 0 72 72"><defs><style>.cls-1 { fill: none;  stroke-miterlimit: 10; stroke-width:var(--icon-stroke-width-m, calc(var(--icon-stroke-width, 5) * 1)); } .cls-2 { fill: var(--icon-fill, rgba(0, 0, 0, 0)); opacity: var(--icon-fill-opacity, 1); stroke-width: 0px; }</style></defs><path class="cls-2" d="M42.75,42.77V15.75c0-3.73-3.02-6.75-6.75-6.75s-6.75,3.02-6.75,6.75v27.02c-2.73,2.05-4.5,5.31-4.5,8.98,0,6.21,5.04,11.25,11.25,11.25s11.25-5.04,11.25-11.25c0-3.68-1.77-6.93-4.5-8.98Z"/><path class="cls-1" d="M42.75,42.77V15.75c0-3.73-3.02-6.75-6.75-6.75s-6.75,3.02-6.75,6.75v27.02c-2.73,2.05-4.5,5.31-4.5,8.98,0,6.21,5.04,11.25,11.25,11.25s11.25-5.04,11.25-11.25c0-3.68-1.77-6.93-4.5-8.98Z"/><circle class="cls-1" cx="36" cy="51.75" r="4.5"/><line class="cls-1" x1="36" y1="40.5" x2="36" y2="47.25"/></svg>