<svg id="TriangledQuestionMark" data-name="Layer 1" xmlns="http://www.w3.org/2000/svg" viewBox="0 0 72 72">
  <g>
    <path d="M36,60.81H9.66c-1.54,0-2.5-1.67-1.73-3l13.17-22.81,13.17-22.81c.77-1.33,2.69-1.33,3.46,0l13.17,22.81,13.17,22.81c.77,1.33-.19,3-1.73,3h-26.34Z" style="fill: var(--icon-fill, rgba(0, 0, 0, 0)); opacity: var(--icon-fill-opacity, 1); stroke-width: 0px;"/>
    <path d="M36,60.81H9.66c-1.54,0-2.5-1.67-1.73-3l13.17-22.81,13.17-22.81c.77-1.33,2.69-1.33,3.46,0l13.17,22.81,13.17,22.81c.77,1.33-.19,3-1.73,3h-26.34Z" style="fill: none; stroke: var(--icon-stroke-color-secondary, var(--icon-stroke-color, currentColor)); stroke-miterlimit: 10; stroke-width:var(--icon-stroke-width-m, calc(var(--icon-stroke-width, 5) * 1));"/>
  </g>
  <path d="M30.99,37.12c0-3.11,2.52-5.63,5.63-5.63s5.63,2.52,5.63,5.63c0,5.62-5.63,5.62-5.63,9.38" style="fill: none;  stroke-miterlimit: 10; stroke-width:var(--icon-stroke-width-m, calc(var(--icon-stroke-width, 5) * 1));"/>
  <line x1="36.61" y1="50.25" x2="36.61" y2="54" style="fill: none;  stroke-miterlimit: 10; stroke-width:var(--icon-stroke-width-m, calc(var(--icon-stroke-width, 5) * 1));"/>
</svg>