<svg id="TriangledVisible" data-name="Layer 1" xmlns="http://www.w3.org/2000/svg" viewBox="0 0 72 72">
  <g>
    <path d="M36,60.81H9.66c-1.54,0-2.5-1.67-1.73-3l13.17-22.81,13.17-22.81c.77-1.33,2.69-1.33,3.46,0l13.17,22.81,13.17,22.81c.77,1.33-.19,3-1.73,3h-26.34Z" style="fill: var(--icon-fill, rgba(0, 0, 0, 0)); opacity: var(--icon-fill-opacity, 1); stroke-width: 0px;"/>
    <path d="M36,60.81H9.66c-1.54,0-2.5-1.67-1.73-3l13.17-22.81,13.17-22.81c.77-1.33,2.69-1.33,3.46,0l13.17,22.81,13.17,22.81c.77,1.33-.19,3-1.73,3h-26.34Z" style="fill: none; stroke: var(--icon-stroke-color-secondary, var(--icon-stroke-color, currentColor)); stroke-miterlimit: 10; stroke-width:var(--icon-stroke-width-m, calc(var(--icon-stroke-width, 5) * 1));"/>
  </g>
  <path d="M45.5,43.94s-4.15,5.56-9.27,5.56-9.27-5.56-9.27-5.56c0,0,4.15-5.56,9.27-5.56s9.27,5.56,9.27,5.56Z" style="fill: none;  stroke-linecap: square; stroke-miterlimit: 10; stroke-width:var(--icon-stroke-width-m, calc(var(--icon-stroke-width, 5) * 1));"/>
  <circle cx="36.23" cy="43.94" r="2.79" style="fill: var(--icon-line-color, currentColor); stroke-width: 0px;"/>
</svg>