<?xml version="1.0" encoding="iso-8859-1"?>
<!-- Generator: Adobe Illustrator 27.8.0, SVG Export Plug-In . SVG Version: 6.00 Build 0)  -->
<svg version="1.1" id="Layer_1" xmlns="http://www.w3.org/2000/svg" xmlns:xlink="http://www.w3.org/1999/xlink" x="0px" y="0px"
	 width="96px" height="96px" viewBox="0 0 96 96" enable-background="new 0 0 96 96" xml:space="preserve">
<path d="M48,83c-5.354,0-9.826-3.845-10.803-8.918c-1.806,1.229-3.936,1.889-6.168,1.889c-2.938,0-5.7-1.145-7.778-3.223
	c-2.077-2.077-3.222-4.84-3.222-7.777c0-2.232,0.66-4.362,1.889-6.168C16.844,57.826,13,53.354,13,48s3.845-9.826,8.918-10.803
	c-1.229-1.806-1.889-3.936-1.889-6.168c0-2.938,1.145-5.7,3.223-7.778c2.077-2.077,4.84-3.222,7.777-3.222
	c2.232,0,4.362,0.66,6.168,1.889C38.174,16.844,42.646,13,48,13s9.826,3.845,10.803,8.918c1.806-1.229,3.936-1.889,6.168-1.889
	c2.938,0,5.7,1.145,7.778,3.223c2.077,2.077,3.222,4.84,3.222,7.777c0,2.232-0.66,4.362-1.889,6.168C79.156,38.174,83,42.646,83,48
	s-3.845,9.826-8.918,10.803c1.229,1.806,1.889,3.936,1.889,6.168c0,2.938-1.145,5.7-3.223,7.778
	c-2.077,2.077-4.84,3.222-7.777,3.222c-2.232,0-4.362-0.66-6.168-1.889C57.826,79.156,53.354,83,48,83z M43,60.071V72
	c0,2.757,2.243,5,5,5s5-2.243,5-5V60.071l8.435,8.435c0.944,0.944,2.2,1.465,3.536,1.465c1.335,0,2.591-0.521,3.534-1.465
	c0.945-0.944,1.466-2.2,1.466-3.535c0-1.336-0.521-2.592-1.465-3.535L60.071,53H72c2.757,0,5-2.243,5-5s-2.243-5-5-5H60.071
	l8.435-8.435c0.944-0.944,1.465-2.2,1.465-3.536c0-1.335-0.521-2.591-1.465-3.534c-0.944-0.945-2.2-1.466-3.535-1.466
	c-1.336,0-2.592,0.521-3.535,1.465L53,35.929V24c0-2.757-2.243-5-5-5s-5,2.243-5,5v11.929l-8.435-8.435
	c-0.944-0.944-2.2-1.465-3.536-1.465c-1.335,0-2.591,0.521-3.534,1.465c-0.945,0.944-1.466,2.2-1.466,3.535
	c0,1.336,0.521,2.592,1.465,3.535L35.929,43H24c-2.757,0-5,2.243-5,5s2.243,5,5,5h11.929l-8.435,8.435
	c-0.944,0.944-1.465,2.2-1.465,3.536c0,1.335,0.521,2.591,1.465,3.534c0.944,0.945,2.2,1.466,3.535,1.466
	c1.336,0,2.592-0.521,3.535-1.465L43,60.071z"/>
<path d="M48,63c-8.271,0-15-6.729-15-15s6.729-15,15-15s15,6.729,15,15S56.271,63,48,63z M48,39c-4.963,0-9,4.037-9,9s4.037,9,9,9
	s9-4.037,9-9S52.963,39,48,39z"/>
</svg>
