<?xml version="1.0" encoding="iso-8859-1"?>
<!-- Generator: Adobe Illustrator 27.8.0, SVG Export Plug-In . SVG Version: 6.00 Build 0)  -->
<svg version="1.1" id="Layer_1" xmlns="http://www.w3.org/2000/svg" xmlns:xlink="http://www.w3.org/1999/xlink" x="0px" y="0px"
	 width="96px" height="96px" viewBox="0 0 96 96" enable-background="new 0 0 96 96" xml:space="preserve">
<path d="M67.207,71H28.793c-2.082,0-4.04-0.917-5.374-2.515s-1.886-3.689-1.513-5.737l4.28-23.543C28.104,28.656,37.278,21,48,21
	s19.896,7.656,21.813,18.205l4.28,23.543c0.373,2.048-0.179,4.139-1.513,5.737S69.289,71,67.207,71z M27.809,63.821L27.809,63.821
	c-0.072,0.4,0.104,0.686,0.217,0.819C28.137,64.775,28.386,65,28.793,65h38.414c0.407,0,0.656-0.225,0.768-0.359
	c0.112-0.134,0.289-0.419,0.217-0.819l-4.28-23.543C62.512,32.584,55.82,27,48,27s-14.512,5.584-15.911,13.278L27.809,63.821z"/>
<path d="M48,83c-8.271,0-15-6.729-15-15h6c0,4.962,4.037,9,9,9s9-4.038,9-9h6C63,76.271,56.271,83,48,83z"/>
</svg>
