<?xml version="1.0" encoding="iso-8859-1"?>
<!-- Generator: Adobe Illustrator 27.8.0, SVG Export Plug-In . SVG Version: 6.00 Build 0)  -->
<svg version="1.1" id="Layer_1" xmlns="http://www.w3.org/2000/svg" xmlns:xlink="http://www.w3.org/1999/xlink" x="0px" y="0px"
	 width="96px" height="96px" viewBox="0 0 96 96" enable-background="new 0 0 96 96" xml:space="preserve">
<g>
	<path d="M48,86.184L35.771,73.955c-0.752,1.796-1.557,3.387-2.621,4.45c-4.288,4.288-11.266,4.29-15.556,0
		c-4.289-4.289-4.289-11.267,0-15.556c1.063-1.064,2.654-1.869,4.45-2.621L9.816,48l14.382-14.382
		c0.958-0.958,2.32-1.364,3.649-1.087c1.326,0.278,2.413,1.198,2.906,2.461l0.219,0.565c0.627,1.616,1.573,4.06,2.178,4.664
		c0.944,0.944,2.2,1.465,3.535,1.465c1.336,0,2.592-0.521,3.535-1.465c0.945-0.944,1.466-2.2,1.466-3.536
		c0-1.335-0.521-2.591-1.465-3.534c-0.604-0.605-3.048-1.552-4.664-2.179l-0.562-0.218c-1.266-0.494-2.186-1.581-2.464-2.907
		c-0.278-1.327,0.128-2.691,1.087-3.649L48,9.816l12.229,12.229c0.752-1.796,1.557-3.387,2.621-4.45
		c4.289-4.287,11.267-4.289,15.556,0s4.289,11.267,0,15.556c-1.063,1.064-2.654,1.869-4.45,2.621L86.184,48L71.802,62.382
		c-0.959,0.958-2.322,1.364-3.649,1.087c-1.326-0.278-2.413-1.198-2.906-2.461l-0.219-0.565c-0.627-1.616-1.573-4.06-2.178-4.664
		c-0.944-0.944-2.2-1.465-3.535-1.465c-1.336,0-2.592,0.521-3.535,1.465l-0.001,0.001c-0.944,0.943-1.465,2.199-1.465,3.535
		c0,1.335,0.521,2.591,1.465,3.534c0.604,0.605,3.048,1.552,4.664,2.179l0.562,0.218c1.266,0.494,2.186,1.581,2.464,2.907
		c0.278,1.327-0.128,2.691-1.087,3.649L48,86.184z M35.036,66.387c1.05,0,2.064,0.412,2.824,1.173L48,77.699l7.986-7.986
		c-1.797-0.752-3.387-1.557-4.45-2.621c-2.078-2.077-3.223-4.84-3.223-7.777c0-2.938,1.145-5.701,3.222-7.778l0,0
		c0.001,0,0.001,0,0.001,0s0,0,0-0.001c2.077-2.077,4.84-3.222,7.778-3.222c2.938,0,5.7,1.145,7.778,3.223
		c1.063,1.063,1.869,2.653,2.62,4.45L77.699,48L67.56,37.86c-0.96-0.959-1.366-2.325-1.087-3.652c0.279-1.326,1.2-2.412,2.463-2.903
		l0.573-0.223c1.613-0.625,4.051-1.57,4.654-2.174c1.949-1.949,1.949-5.122,0-7.071c-1.95-1.95-5.123-1.948-7.071,0
		c-0.604,0.604-1.549,3.041-2.174,4.654l-0.224,0.574c-0.49,1.262-1.576,2.183-2.902,2.462c-1.334,0.277-2.694-0.128-3.652-1.087
		L48,18.301l-7.986,7.986c1.797,0.752,3.387,1.557,4.45,2.621c2.078,2.077,3.223,4.84,3.223,7.777c0,2.938-1.145,5.701-3.223,7.779
		c-2.077,2.077-4.84,3.222-7.778,3.222c-2.938,0-5.7-1.145-7.778-3.223c-1.063-1.063-1.869-2.653-2.62-4.45L18.301,48l10.14,10.14
		c0.96,0.959,1.366,2.325,1.087,3.652c-0.279,1.326-1.2,2.412-2.463,2.903l-0.567,0.221c-1.615,0.626-4.056,1.572-4.66,2.176
		c-1.949,1.949-1.949,5.122,0,7.071c1.949,1.95,5.122,1.948,7.071,0c0.604-0.604,1.55-3.045,2.176-4.66l0.221-0.568
		c0.491-1.262,1.577-2.183,2.903-2.462C34.484,66.415,34.762,66.387,35.036,66.387z"/>
</g>
</svg>
