<?xml version="1.0" encoding="iso-8859-1"?>
<!-- Generator: Adobe Illustrator 27.8.0, SVG Export Plug-In . SVG Version: 6.00 Build 0)  -->
<svg version="1.1" id="Layer_1" xmlns="http://www.w3.org/2000/svg" xmlns:xlink="http://www.w3.org/1999/xlink" x="0px" y="0px"
	 width="96px" height="96px" viewBox="0 0 96 96" enable-background="new 0 0 96 96" xml:space="preserve">
<path d="M76,75H20c-3.859,0-7-3.14-7-7V28c0-3.86,3.141-7,7-7h56c3.859,0,7,3.14,7,7v40C83,71.86,79.859,75,76,75z M20,27
	c-0.552,0-1,0.449-1,1v40c0,0.551,0.448,1,1,1h56c0.552,0,1-0.449,1-1V28c0-0.551-0.448-1-1-1H20z"/>
<path d="M48,54.524c-1.075,0-2.15-0.245-3.131-0.735L14.658,38.683l2.684-5.366l30.211,15.105c0.279,0.14,0.615,0.14,0.895,0
	l30.211-15.105l2.684,5.366L51.131,53.789C50.15,54.279,49.075,54.524,48,54.524z"/>
</svg>
