<?xml version="1.0" encoding="iso-8859-1"?>
<!-- Generator: Adobe Illustrator 27.8.0, SVG Export Plug-In . SVG Version: 6.00 Build 0)  -->
<svg version="1.1" id="Layer_1" xmlns="http://www.w3.org/2000/svg" xmlns:xlink="http://www.w3.org/1999/xlink" x="0px" y="0px"
	 width="96px" height="96px" viewBox="0 0 96 96" enable-background="new 0 0 96 96" xml:space="preserve">
<path d="M41.312,85.554L26.758,71H20c-3.859,0-7-3.141-7-7V36c0-3.859,3.141-7,7-7h44c3.859,0,7,3.141,7,7v28c0,3.859-3.141,7-7,7
	H46.162L41.312,85.554z M20,35c-0.552,0-1,0.448-1,1v28c0,0.552,0.448,1,1,1h9.242l9.446,9.446L41.838,65H64c0.552,0,1-0.448,1-1V36
	c0-0.552-0.448-1-1-1H20z"/>
<path d="M76,59h-8v-6h8c0.552,0,1-0.448,1-1V24c0-0.552-0.448-1-1-1H32c-0.552,0-1,0.448-1,1v8h-6v-8c0-3.859,3.141-7,7-7h44
	c3.859,0,7,3.141,7,7v28C83,55.859,79.859,59,76,59z"/>
</svg>
