<?xml version="1.0" encoding="iso-8859-1"?>
<!-- Generator: Adobe Illustrator 27.8.0, SVG Export Plug-In . SVG Version: 6.00 Build 0)  -->
<svg version="1.1" id="Layer_1" xmlns="http://www.w3.org/2000/svg" xmlns:xlink="http://www.w3.org/1999/xlink" x="0px" y="0px"
	 width="96px" height="96px" viewBox="0 0 96 96" enable-background="new 0 0 96 96" xml:space="preserve">
<path d="M58,75H26c-2.757,0-5-2.243-5-5V38c0-2.757,2.243-5,5-5h32c2.757,0,5,2.243,5,5v32C63,72.757,60.757,75,58,75z M27,69h30V39
	H27V69z"/>
<path d="M70,63H60v-6h9V27H39v9h-6V26c0-2.757,2.243-5,5-5h32c2.757,0,5,2.243,5,5v32C75,60.757,72.757,63,70,63z"/>
</svg>
