<?xml version="1.0" encoding="iso-8859-1"?>
<!-- Generator: Adobe Illustrator 27.8.0, SVG Export Plug-In . SVG Version: 6.00 Build 0)  -->
<svg version="1.1" id="Layer_1" xmlns="http://www.w3.org/2000/svg" xmlns:xlink="http://www.w3.org/1999/xlink" x="0px" y="0px"
	 width="96px" height="96px" viewBox="0 0 96 96" enable-background="new 0 0 96 96" xml:space="preserve">
<path d="M45.312,85.554L30.758,71H24c-3.859,0-7-3.141-7-7V32c0-3.859,3.141-7,7-7h48c3.859,0,7,3.141,7,7v32c0,3.859-3.141,7-7,7
	H50.162L45.312,85.554z M24,31c-0.552,0-1,0.448-1,1v32c0,0.552,0.448,1,1,1h9.242l9.446,9.446L45.838,65H72c0.552,0,1-0.448,1-1V32
	c0-0.552-0.448-1-1-1H24z"/>
</svg>
