<?xml version="1.0" encoding="iso-8859-1"?>
<!-- Generator: Adobe Illustrator 27.8.0, SVG Export Plug-In . SVG Version: 6.00 Build 0)  -->
<svg version="1.1" id="Layer_1" xmlns="http://www.w3.org/2000/svg" xmlns:xlink="http://www.w3.org/1999/xlink" x="0px" y="0px"
	 width="96px" height="96px" viewBox="0 0 96 96" enable-background="new 0 0 96 96" xml:space="preserve">
<path d="M68,79H28c-3.859,0-7-3.14-7-7V45h54v27C75,75.86,71.859,79,68,79z M27,51v21c0,0.551,0.448,1,1,1h40c0.552,0,1-0.449,1-1
	V51H27z"/>
<path d="M35,48h-6V32c0-10.477,8.523-19,19-19s19,8.523,19,19h-6c0-7.168-5.832-13-13-13s-13,5.832-13,13V48z"/>
</svg>
