<?xml version="1.0" encoding="iso-8859-1"?>
<!-- Generator: Adobe Illustrator 27.8.0, SVG Export Plug-In . SVG Version: 6.00 Build 0)  -->
<svg version="1.1" id="Layer_1" xmlns="http://www.w3.org/2000/svg" xmlns:xlink="http://www.w3.org/1999/xlink" x="0px" y="0px"
	 width="96px" height="96px" viewBox="0 0 96 96" enable-background="new 0 0 96 96" xml:space="preserve">
<path d="M69.202,79H26.798c-2.506,0-4.762-1.29-6.033-3.45c-1.271-2.161-1.304-4.758-0.086-6.95L37,39.223V17h22v22.223
	l16.321,29.378c1.217,2.191,1.185,4.789-0.086,6.95C73.964,77.71,71.708,79,69.202,79z M43,23v17.777L25.924,71.515
	c-0.242,0.435-0.096,0.809,0.012,0.993S26.3,73,26.798,73h42.404c0.498,0,0.753-0.309,0.862-0.493s0.254-0.558,0.012-0.993
	L53,40.777V23H43z"/>
<rect x="32" y="49" width="32" height="6"/>
<rect x="32" y="17" width="32" height="6"/>
</svg>
