<?xml version="1.0" encoding="iso-8859-1"?>
<!-- Generator: Adobe Illustrator 27.8.0, SVG Export Plug-In . SVG Version: 6.00 Build 0)  -->
<svg version="1.1" id="Layer_1" xmlns="http://www.w3.org/2000/svg" xmlns:xlink="http://www.w3.org/1999/xlink" x="0px" y="0px"
	 width="96px" height="96px" viewBox="0 0 96 96" enable-background="new 0 0 96 96" xml:space="preserve">
<path d="M55,67H41c-2.206,0-4-1.794-4-4v-3.118c0-4.393-1.516-8.799-4.383-12.744c-2.583-3.554-3.824-7.762-3.589-12.169
	c0.511-9.614,8.446-17.498,18.065-17.948c5.251-0.232,10.231,1.614,14.023,5.232C64.911,25.875,67,30.757,67,36
	c0,4.076-1.276,7.962-3.689,11.237C60.531,51.01,59,55.703,59,60.451V63C59,65.206,57.206,67,55,67z M43,61h10v-0.549
	c0-6.02,1.946-11.977,5.48-16.773C60.129,41.441,61,38.786,61,36c0-3.588-1.43-6.928-4.026-9.406
	c-2.595-2.476-6.002-3.751-9.601-3.579c-6.578,0.308-12.004,5.698-12.354,12.272c-0.161,3.018,0.687,5.896,2.451,8.323
	C41.088,48.587,43,54.213,43,59.882V61z"/>
<rect x="40" y="69" width="16" height="6"/>
</svg>
