<?xml version="1.0" encoding="iso-8859-1"?>
<!-- Generator: Adobe Illustrator 27.8.0, SVG Export Plug-In . SVG Version: 6.00 Build 0)  -->
<svg version="1.1" id="Layer_1" xmlns="http://www.w3.org/2000/svg" xmlns:xlink="http://www.w3.org/1999/xlink" x="0px" y="0px"
	 width="96px" height="96px" viewBox="0 0 96 96" enable-background="new 0 0 96 96" xml:space="preserve">
<path d="M72,67h-8v-6h8c0.552,0,1-0.448,1-1V43H23v17c0,0.552,0.448,1,1,1h8v6h-8c-3.859,0-7-3.141-7-7V37h62v23
	C79,63.859,75.859,67,72,67z"/>
<path d="M67,79H29V53h38V79z M35,73h26V59H35V73z"/>
<path d="M67,43H29V21h38V43z M35,37h26V27H35V37z"/>
<path d="M32.01,51c-1.656,0-3.005-1.343-3.005-3s1.338-3,2.995-3h0.01c1.657,0,3,1.343,3,3S33.667,51,32.01,51z"/>
<path d="M40.01,51c-1.656,0-3.005-1.343-3.005-3s1.338-3,2.995-3h0.01c1.657,0,3,1.343,3,3S41.667,51,40.01,51z"/>
</svg>
