<?xml version="1.0" encoding="iso-8859-1"?>
<!-- Generator: Adobe Illustrator 27.8.0, SVG Export Plug-In . SVG Version: 6.00 Build 0)  -->
<svg version="1.1" id="Layer_1" xmlns="http://www.w3.org/2000/svg" xmlns:xlink="http://www.w3.org/1999/xlink" x="0px" y="0px"
	 width="96px" height="96px" viewBox="0 0 96 96" enable-background="new 0 0 96 96" xml:space="preserve">
<path d="M36,43H20c-3.859,0-7-3.141-7-7V20c0-3.859,3.141-7,7-7h16c3.859,0,7,3.141,7,7v16C43,39.859,39.859,43,36,43z M20,19
	c-0.552,0-1,0.448-1,1v16c0,0.552,0.448,1,1,1h16c0.552,0,1-0.448,1-1V20c0-0.552-0.448-1-1-1H20z"/>
<path d="M76,43H60c-3.859,0-7-3.141-7-7V20c0-3.859,3.141-7,7-7h16c3.859,0,7,3.141,7,7v16C83,39.859,79.859,43,76,43z M60,19
	c-0.552,0-1,0.448-1,1v16c0,0.552,0.448,1,1,1h16c0.552,0,1-0.448,1-1V20c0-0.552-0.448-1-1-1H60z"/>
<path d="M36,83H20c-3.859,0-7-3.141-7-7V60c0-3.859,3.141-7,7-7h16c3.859,0,7,3.141,7,7v16C43,79.859,39.859,83,36,83z M20,59
	c-0.552,0-1,0.448-1,1v16c0,0.552,0.448,1,1,1h16c0.552,0,1-0.448,1-1V60c0-0.552-0.448-1-1-1H20z"/>
</svg>
