<?xml version="1.0" encoding="iso-8859-1"?>
<!-- Generator: Adobe Illustrator 27.8.0, SVG Export Plug-In . SVG Version: 6.00 Build 0)  -->
<svg version="1.1" id="Layer_1" xmlns="http://www.w3.org/2000/svg" xmlns:xlink="http://www.w3.org/1999/xlink" x="0px" y="0px"
	 width="96px" height="96px" viewBox="0 0 96 96" enable-background="new 0 0 96 96" xml:space="preserve">
<path d="M54.95,50.121l-4.243-4.242L64.585,32L50.707,18.121l4.243-4.242l14.585,14.586C70.479,29.408,71,30.664,71,32
	s-0.521,2.592-1.465,3.536L54.95,50.121z"/>
<path d="M73,79H23c-3.309,0-6-2.691-6-6v-9h6v9h50v-9h6v9C79,76.309,76.309,79,73,79z"/>
<path d="M39,64h-6V48c0-10.477,8.523-19,19-19h16v6H52c-7.168,0-13,5.832-13,13V64z"/>
</svg>
