<?xml version="1.0" encoding="iso-8859-1"?>
<!-- Generator: Adobe Illustrator 27.8.0, SVG Export Plug-In . SVG Version: 6.00 Build 0)  -->
<svg version="1.1" id="Layer_1" xmlns="http://www.w3.org/2000/svg" xmlns:xlink="http://www.w3.org/1999/xlink" x="0px" y="0px"
	 width="96px" height="96px" viewBox="0 0 96 96" enable-background="new 0 0 96 96" xml:space="preserve">
<path d="M48,71c-16.93,0-29.994-20.532-30.542-21.406L16.459,48l0.999-1.594C18.006,45.532,31.07,25,48,25
	s29.994,20.532,30.542,21.406L79.541,48l-0.999,1.594C77.994,50.468,64.93,71,48,71z M23.632,48C26.851,52.505,36.793,65,48,65
	c11.206,0,21.147-12.493,24.368-17C69.147,43.493,59.206,31,48,31S26.853,43.493,23.632,48z"/>
<path d="M48,59c-6.065,0-11-4.935-11-11s4.935-11,11-11s11,4.935,11,11S54.065,59,48,59z M48,43c-2.757,0-5,2.243-5,5s2.243,5,5,5
	s5-2.243,5-5S50.757,43,48,43z"/>
</svg>
