<?xml version="1.0" encoding="iso-8859-1"?>
<!-- Generator: Adobe Illustrator 27.8.0, SVG Export Plug-In . SVG Version: 6.00 Build 0)  -->
<svg version="1.1" id="Layer_1" xmlns="http://www.w3.org/2000/svg" xmlns:xlink="http://www.w3.org/1999/xlink" x="0px" y="0px"
	 width="96px" height="96px" viewBox="0 0 96 96" enable-background="new 0 0 96 96" xml:space="preserve">
<path d="M72,79H24c-3.86,0-7-3.14-7-7V24c0-3.86,3.14-7,7-7h48c3.86,0,7,3.14,7,7v48C79,75.86,75.86,79,72,79z M24,23
	c-0.551,0-1,0.449-1,1v48c0,0.551,0.449,1,1,1h48c0.551,0,1-0.449,1-1V24c0-0.551-0.449-1-1-1H24z"/>
<path d="M48.02,51c-1.657,0-3.005-1.343-3.005-3s1.338-3,2.995-3h0.01c1.657,0,3,1.343,3,3S49.677,51,48.02,51z"/>
<path d="M48,75c-14.888,0-27-12.112-27-27s12.112-27,27-27s27,12.112,27,27S62.888,75,48,75z M48,27c-11.58,0-21,9.42-21,21
	s9.42,21,21,21s21-9.42,21-21S59.58,27,48,27z"/>
</svg>
