<?xml version="1.0" encoding="iso-8859-1"?>
<!-- Generator: Adobe Illustrator 27.8.0, SVG Export Plug-In . SVG Version: 6.00 Build 0)  -->
<svg version="1.1" id="Layer_1" xmlns="http://www.w3.org/2000/svg" xmlns:xlink="http://www.w3.org/1999/xlink" x="0px" y="0px"
	 width="96px" height="96px" viewBox="0 0 96 96" enable-background="new 0 0 96 96" xml:space="preserve">
<rect x="45" y="12" width="6" height="12"/>
<rect x="12" y="45" width="12" height="6"/>
<rect x="72" y="45" width="12" height="6"/>
<rect x="23.787" y="20.787" transform="matrix(0.7071 -0.7071 0.7071 0.7071 -11.0954 26.7866)" width="5.999" height="12"/>
<rect x="63.213" y="23.787" transform="matrix(0.7071 -0.7071 0.7071 0.7071 1.3311 56.7869)" width="12" height="5.999"/>
<path d="M48,67c-10.477,0-19-8.523-19-19s8.523-19,19-19s19,8.523,19,19S58.477,67,48,67z M48,35c-7.168,0-13,5.832-13,13
	s5.832,13,13,13s13-5.832,13-13S55.168,35,48,35z"/>
<rect x="45" y="72" width="6" height="12"/>
<rect x="66.214" y="63.213" transform="matrix(0.7071 -0.7071 0.7071 0.7071 -28.6691 69.2134)" width="5.999" height="12"/>
<rect x="20.787" y="66.214" transform="matrix(0.7071 -0.7071 0.7071 0.7071 -41.0956 39.2131)" width="12" height="5.999"/>
</svg>
