<?xml version="1.0" encoding="iso-8859-1"?>
<!-- Generator: Adobe Illustrator 27.8.0, SVG Export Plug-In . SVG Version: 6.00 Build 0)  -->
<svg version="1.1" id="Layer_1" xmlns="http://www.w3.org/2000/svg" xmlns:xlink="http://www.w3.org/1999/xlink" x="0px" y="0px"
	 width="96px" height="96px" viewBox="0 0 96 96" enable-background="new 0 0 96 96" xml:space="preserve">
<path d="M48,83c-19.299,0-35-15.701-35-35s15.701-35,35-35s35,15.701,35,35S67.299,83,48,83z M48,19c-15.99,0-29,13.01-29,29
	s13.01,29,29,29s29-13.01,29-29S63.99,19,48,19z"/>
<path d="M48,63c-8.271,0-15-6.729-15-15s6.729-15,15-15s15,6.729,15,15S56.271,63,48,63z M48,39c-4.963,0-9,4.037-9,9s4.037,9,9,9
	s9-4.037,9-9S52.963,39,48,39z"/>
<path d="M48.02,51c-1.656,0-3.005-1.343-3.005-3s1.339-3,2.995-3h0.01c1.657,0,3,1.343,3,3S49.677,51,48.02,51z"/>
</svg>
