<?xml version="1.0" encoding="iso-8859-1"?>
<!-- Generator: Adobe Illustrator 27.8.0, SVG Export Plug-In . SVG Version: 6.00 Build 0)  -->
<svg version="1.1" id="Layer_1" xmlns="http://www.w3.org/2000/svg" xmlns:xlink="http://www.w3.org/1999/xlink" x="0px" y="0px"
	 width="96px" height="96px" viewBox="0 0 96 96" enable-background="new 0 0 96 96" xml:space="preserve">
<path d="M34,43c-4.962,0-9-4.037-9-9s4.038-9,9-9s9,4.037,9,9S38.962,43,34,43z M34,31c-1.654,0-3,1.346-3,3s1.346,3,3,3
	s3-1.346,3-3S35.654,31,34,31z"/>
<path d="M62,71c-4.962,0-9-4.037-9-9s4.038-9,9-9s9,4.037,9,9S66.962,71,62,71z M62,59c-1.654,0-3,1.346-3,3s1.346,3,3,3
	s3-1.346,3-3S63.654,59,62,59z"/>
<rect x="14.059" y="45" transform="matrix(0.7071 -0.7071 0.7071 0.7071 -19.8823 48)" width="67.882" height="5.999"/>
</svg>
