<?xml version="1.0" encoding="iso-8859-1"?>
<!-- Generator: Adobe Illustrator 27.8.0, SVG Export Plug-In . SVG Version: 6.00 Build 0)  -->
<svg version="1.1" id="Layer_1" xmlns="http://www.w3.org/2000/svg" xmlns:xlink="http://www.w3.org/1999/xlink" x="0px" y="0px"
	 width="96px" height="96px" viewBox="0 0 96 96" enable-background="new 0 0 96 96" xml:space="preserve">
<path d="M48,83c-19.299,0-35-15.701-35-35s15.701-35,35-35s35,15.701,35,35S67.299,83,48,83z M48,19c-15.99,0-29,13.01-29,29
	s13.01,29,29,29s29-13.01,29-29S63.99,19,48,19z"/>
<path d="M49.143,50.31c-1.312,0-2.615-0.258-3.881-0.781C40.397,47.513,37,41.95,37,36c0-4.766-7.368-8.294-9.948-9.154l1.896-5.691
	C29.522,21.345,43,25.953,43,36c0,3.419,2.002,6.926,4.558,7.984c1.981,0.823,4.105,0.109,6.321-2.105
	c6.966-6.967,14.663-13.325,25.362-7.976l-2.684,5.367c-5.918-2.961-10.226-1.359-18.437,6.851
	C55.366,48.877,52.233,50.31,49.143,50.31z"/>
<path d="M44.698,82.918l-1.396-5.836c9.686-2.318,10.47-7.771,10.216-11.67c-0.349-5.369-0.174-10.77,3.435-13.905
	c2.478-2.151,5.948-2.729,10.617-1.758c3.678,0.765,6.447,2.562,8.232,5.343c3.106,4.839,1.892,10.688,1.743,11.339l-5.85-1.336
	c0.006-0.025,0.845-4.01-0.959-6.786c-0.896-1.379-2.33-2.257-4.388-2.685c-1.837-0.381-4.274-0.62-5.461,0.412
	c-1.669,1.449-1.588,5.823-1.382,8.987C59.924,71.47,57.695,79.807,44.698,82.918z"/>
<path d="M30.889,78.488c-5.19-4.155-1.484-9.811,1.222-13.94c0.748-1.141,1.521-2.32,2.152-3.464
	c0.991-1.792,0.278-3.119-0.234-3.75c-0.755-0.929-1.758-1.244-2.187-1.107c-5.497,1.692-13.669-2.264-18.22-8.812l4.928-3.424
	c3.722,5.356,9.569,7.1,11.527,6.502c2.934-0.903,6.39,0.327,8.607,3.059c2.422,2.98,2.74,6.979,0.83,10.436
	c-0.741,1.341-1.577,2.616-2.386,3.851c-2.366,3.61-3.287,5.329-2.49,5.968L30.889,78.488z"/>
</svg>
