<?xml version="1.0" encoding="iso-8859-1"?>
<!-- Generator: Adobe Illustrator 27.8.0, SVG Export Plug-In . SVG Version: 6.00 Build 0)  -->
<svg version="1.1" id="Layer_1" xmlns="http://www.w3.org/2000/svg" xmlns:xlink="http://www.w3.org/1999/xlink" x="0px" y="0px"
	 width="96px" height="96px" viewBox="0 0 96 96" enable-background="new 0 0 96 96" xml:space="preserve">
<path d="M64,43c-6.065,0-11-4.935-11-11s4.935-11,11-11s11,4.935,11,11S70.065,43,64,43z M64,27c-2.757,0-5,2.243-5,5s2.243,5,5,5
	s5-2.243,5-5S66.757,27,64,27z"/>
<path d="M48,67h-8v-6h8c7.168,0,13-5.832,13-13v-8h6v8C67,58.477,58.477,67,48,67z"/>
<path d="M36,75h-8c-3.859,0-7-3.141-7-7v-8c0-3.859,3.141-7,7-7h8c3.859,0,7,3.141,7,7v8C43,71.859,39.859,75,36,75z M28,59
	c-0.552,0-1,0.448-1,1v8c0,0.552,0.448,1,1,1h8c0.552,0,1-0.448,1-1v-8c0-0.552-0.448-1-1-1H28z"/>
</svg>
