<?xml version="1.0" encoding="iso-8859-1"?>
<!-- Generator: Adobe Illustrator 27.8.0, SVG Export Plug-In . SVG Version: 6.00 Build 0)  -->
<svg version="1.1" id="Layer_1" xmlns="http://www.w3.org/2000/svg" xmlns:xlink="http://www.w3.org/1999/xlink" x="0px" y="0px"
	 width="96px" height="96px" viewBox="0 0 96 96" enable-background="new 0 0 96 96" xml:space="preserve">
<path d="M61.317,45.342l-4.524-9.048C55.16,33.028,51.878,31,48.227,31H36v-6h12.227c5.938,0,11.277,3.299,13.932,8.61l4.524,9.048
	L61.317,45.342z"/>
<path d="M80.162,71H22.689c-1.627,0-3.11-0.826-3.965-2.21c-0.856-1.384-0.933-3.08-0.205-4.536l5.431-10.862
	C27.772,45.748,35.455,41,44,41h21.055c3.055,0,5.756,1.947,6.723,4.845L80.162,71z M24.854,65h46.984l-5.752-17.257
	C65.938,47.299,65.523,47,65.055,47H44c-6.258,0-11.884,3.478-14.684,9.075L24.854,65z"/>
</svg>
