<?xml version="1.0" encoding="iso-8859-1"?>
<!-- Generator: Adobe Illustrator 27.8.0, SVG Export Plug-In . SVG Version: 6.00 Build 0)  -->
<svg version="1.1" id="Layer_1" xmlns="http://www.w3.org/2000/svg" xmlns:xlink="http://www.w3.org/1999/xlink" x="0px" y="0px"
	 width="96px" height="96px" viewBox="0 0 96 96" enable-background="new 0 0 96 96" xml:space="preserve">
<rect x="24" y="25" width="48" height="6"/>
<path d="M60,75H36c-3.86,0-7-3.14-7-7V28h6v40c0,0.551,0.449,1,1,1h24c0.551,0,1-0.449,1-1V28h6v40C67,71.86,63.86,75,60,75z"/>
<path d="M59,28h-6v-4c0-0.551-0.449-1-1-1h-8c-0.551,0-1,0.449-1,1v4h-6v-4c0-3.86,3.14-7,7-7h8c3.86,0,7,3.14,7,7V28z"/>
<rect x="45" y="40" width="6" height="24"/>
</svg>
