<?xml version="1.0" encoding="iso-8859-1"?>
<!-- Generator: Adobe Illustrator 27.8.0, SVG Export Plug-In . SVG Version: 6.00 Build 0)  -->
<svg version="1.1" id="Layer_1" xmlns="http://www.w3.org/2000/svg" xmlns:xlink="http://www.w3.org/1999/xlink" x="0px" y="0px"
	 width="96px" height="96px" viewBox="0 0 96 96" enable-background="new 0 0 96 96" xml:space="preserve">
<path d="M48,83c-19.299,0-35-15.701-35-35s15.701-35,35-35s35,15.701,35,35S67.299,83,48,83z M48,19c-15.99,0-29,13.01-29,29
	s13.01,29,29,29s29-13.01,29-29S63.99,19,48,19z"/>
<path d="M48,83c-10.654,0-19-15.374-19-35s8.346-35,19-35s19,15.374,19,35S58.654,83,48,83z M48,19c-6.148,0-13,11.91-13,29
	s6.852,29,13,29s13-11.91,13-29S54.148,19,48,19z"/>
<rect x="16" y="45" width="64" height="6"/>
<rect x="45" y="16" width="6" height="64"/>
</svg>
