<?xml version="1.0" encoding="iso-8859-1"?>
<!-- Generator: Adobe Illustrator 27.8.0, SVG Export Plug-In . SVG Version: 6.00 Build 0)  -->
<svg version="1.1" id="Layer_1" xmlns="http://www.w3.org/2000/svg" xmlns:xlink="http://www.w3.org/1999/xlink" x="0px" y="0px"
	 width="96px" height="96px" viewBox="0 0 96 96" enable-background="new 0 0 96 96" xml:space="preserve">
<path d="M76,75H20c-3.86,0-7-3.141-7-7V28c0-3.859,3.14-7,7-7h56c3.86,0,7,3.141,7,7v40C83,71.859,79.86,75,76,75z M20,27
	c-0.551,0-1,0.448-1,1v40c0,0.552,0.449,1,1,1h56c0.551,0,1-0.448,1-1V28c0-0.552-0.449-1-1-1H20z"/>
<path d="M67,63H49c-2.206,0-4-1.794-4-4V45c0-2.206,1.794-4,4-4h18c2.206,0,4,1.794,4,4v14C71,61.206,69.206,63,67,63z M51,57h14V47
	H51V57z"/>
</svg>
