<?xml version="1.0" encoding="iso-8859-1"?>
<!-- Generator: Adobe Illustrator 27.8.0, SVG Export Plug-In . SVG Version: 6.00 Build 0)  -->
<svg version="1.1" id="Layer_1" xmlns="http://www.w3.org/2000/svg" xmlns:xlink="http://www.w3.org/1999/xlink" x="0px" y="0px"
	 width="96px" height="96px" viewBox="0 0 96 96" enable-background="new 0 0 96 96" xml:space="preserve">
<path d="M48,75.392l-1.4-0.738C45.392,74.016,17,58.81,17,38.77C17,28.307,23.168,21,32,21c6.466,0,12.68,5.722,16,9.391
	C51.32,26.722,57.534,21,64,21c8.832,0,15,7.307,15,17.77c0,20.04-28.392,35.246-29.6,35.884L48,75.392z M32,27
	c-6.643,0-9,6.34-9,11.77c0,14.202,19.539,26.6,25,29.786c5.461-3.187,25-15.584,25-29.786C73,33.34,70.643,27,64,27
	c-5.06,0-11.678,7.312-13.598,9.874l-2.405,3.21l-2.401-3.212C43.678,34.312,37.06,27,32,27z"/>
</svg>
