<?xml version="1.0" encoding="iso-8859-1"?>
<!-- Generator: Adobe Illustrator 27.8.0, SVG Export Plug-In . SVG Version: 6.00 Build 0)  -->
<svg version="1.1" id="Layer_1" xmlns="http://www.w3.org/2000/svg" xmlns:xlink="http://www.w3.org/1999/xlink" x="0px" y="0px"
	 width="96px" height="96px" viewBox="0 0 96 96" enable-background="new 0 0 96 96" xml:space="preserve">
<path d="M79,43H17v-7.487l3.242-9.727C21.197,22.923,23.865,21,26.883,21h14.645c2.669,0,5.068,1.483,6.261,3.87L49.854,29H72
	c3.86,0,7,3.14,7,7V43z M23,37h50v-1c0-0.551-0.449-1-1-1H46.146l-3.724-7.447C42.252,27.211,41.909,27,41.528,27H26.883
	c-0.431,0-0.812,0.275-0.948,0.684L23,36.487V37z"/>
<path d="M72,79H24c-3.86,0-7-3.14-7-7V37h62v35C79,75.86,75.86,79,72,79z M23,43v29c0,0.551,0.449,1,1,1h48c0.551,0,1-0.449,1-1V43
	H23z"/>
</svg>
