<?xml version="1.0" encoding="iso-8859-1"?>
<!-- Generator: Adobe Illustrator 27.8.0, SVG Export Plug-In . SVG Version: 6.00 Build 0)  -->
<svg version="1.1" id="Layer_1" xmlns="http://www.w3.org/2000/svg" xmlns:xlink="http://www.w3.org/1999/xlink" x="0px" y="0px"
	 width="96px" height="96px" viewBox="0 0 96 96" enable-background="new 0 0 96 96" xml:space="preserve">
<path d="M37.312,85.554L22.758,71H20c-3.859,0-7-3.141-7-7V44c0-3.859,3.141-7,7-7h32c3.859,0,7,3.141,7,7v20c0,3.859-3.141,7-7,7
	h-9.838L37.312,85.554z M20,43c-0.552,0-1,0.448-1,1v20c0,0.552,0.448,1,1,1h5.242l9.446,9.446L37.838,65H52c0.552,0,1-0.448,1-1V44
	c0-0.552-0.448-1-1-1H20z"/>
<path d="M62.688,65.554L57.838,51H56v-6h6.162l3.149,9.446L74.758,45H80c0.552,0,1-0.448,1-1V24c0-0.552-0.448-1-1-1H48
	c-0.552,0-1,0.448-1,1v16h-6V24c0-3.859,3.141-7,7-7h32c3.859,0,7,3.141,7,7v20c0,3.859-3.141,7-7,7h-2.758L62.688,65.554z"/>
</svg>
