<?xml version="1.0" encoding="iso-8859-1"?>
<!-- Generator: Adobe Illustrator 27.8.0, SVG Export Plug-In . SVG Version: 6.00 Build 0)  -->
<svg version="1.1" id="Layer_1" xmlns="http://www.w3.org/2000/svg" xmlns:xlink="http://www.w3.org/1999/xlink" x="0px" y="0px"
	 width="96px" height="96px" viewBox="0 0 96 96" enable-background="new 0 0 96 96" xml:space="preserve">
<path d="M66.967,51.68c-0.207,0-0.414-0.003-0.622-0.01c-5.739-0.175-11.002-2.649-14.821-6.965
	c-6.802-7.688-6.864-19.336-0.144-27.094c2.014-2.324,4.443-4.128,7.221-5.363c1.293-0.575,2.759-0.357,3.83,0.564
	c1.06,0.912,1.505,2.372,1.135,3.72c-1.386,5.057,0.053,10.499,3.755,14.201c3.703,3.702,9.145,5.142,14.201,3.755
	c1.347-0.373,2.809,0.076,3.72,1.137c0.921,1.072,1.136,2.541,0.562,3.832c-1.026,2.308-2.458,4.39-4.256,6.188
	C77.692,49.5,72.408,51.679,66.967,51.68z M57.048,20.365c-0.396,0.368-0.773,0.759-1.133,1.174
	c-4.759,5.494-4.715,13.744,0.103,19.189c2.71,3.064,6.443,4.82,10.51,4.944c4.072,0.127,7.898-1.392,10.776-4.271
	c0.13-0.13,0.258-0.263,0.383-0.397c-0.005,0-0.011,0-0.016,0c-5.401,0-10.683-2.121-14.592-6.03
	C59.165,31.062,57.044,25.771,57.048,20.365z M57.779,14.944c0,0.001,0,0.002,0,0.003C57.778,14.946,57.779,14.946,57.779,14.944z"
	/>
<path d="M48,87c-4.948,0-9.757-1.608-13.717-4.558C32.877,82.812,31.442,83,30,83c-9.374,0-17-7.626-17-17s7.626-17,17-17
	c0.193,0,0.387,0.004,0.584,0.012C34.935,43.966,41.324,41,48,41c6.675,0,13.065,2.967,17.416,8.012C65.613,49.004,65.807,49,66,49
	c9.374,0,17,7.626,17,17s-7.626,17-17,17c-1.442,0-2.877-0.188-4.283-0.558C57.757,85.392,52.948,87,48,87z M35.527,75.662
	l1.348,1.17C39.973,79.52,43.923,81,48,81s8.027-1.48,11.125-4.168l1.348-1.17l1.672,0.627C63.403,76.761,64.7,77,66,77
	c6.065,0,11-4.935,11-11s-4.935-11-11-11c-0.441,0-0.921,0.038-1.509,0.119l-1.764,0.243l-1.058-1.433
	C58.418,49.525,53.436,47,48,47s-10.418,2.525-13.668,6.928l-1.058,1.433l-1.764-0.242C30.921,55.038,30.441,55,30,55
	c-6.065,0-11,4.935-11,11s4.935,11,11,11c1.3,0,2.597-0.239,3.855-0.711L35.527,75.662z"/>
</svg>
