<?xml version="1.0" encoding="iso-8859-1"?>
<!-- Generator: Adobe Illustrator 27.8.0, SVG Export Plug-In . SVG Version: 6.00 Build 0)  -->
<svg version="1.1" id="Layer_1" xmlns="http://www.w3.org/2000/svg" xmlns:xlink="http://www.w3.org/1999/xlink" x="0px" y="0px"
	 width="96px" height="96px" viewBox="0 0 96 96" enable-background="new 0 0 96 96" xml:space="preserve">
<path d="M32,39c-6.065,0-11-4.935-11-11s4.935-11,11-11s11,4.935,11,11S38.065,39,32,39z M32,23c-2.757,0-5,2.243-5,5s2.243,5,5,5
	s5-2.243,5-5S34.757,23,32,23z"/>
<path d="M32,79c-6.065,0-11-4.935-11-11s4.935-11,11-11s11,4.935,11,11S38.065,79,32,79z M32,63c-2.757,0-5,2.243-5,5s2.243,5,5,5
	s5-2.243,5-5S34.757,63,32,63z"/>
<path d="M64,47c-6.065,0-11-4.935-11-11s4.935-11,11-11s11,4.935,11,11S70.065,47,64,47z M64,31c-2.757,0-5,2.243-5,5s2.243,5,5,5
	s5-2.243,5-5S66.757,31,64,31z"/>
<rect x="29" y="36" width="6" height="24"/>
<path d="M48,71h-8v-6h8c7.168,0,13-5.832,13-13v-8h6v8C67,62.477,58.477,71,48,71z"/>
</svg>
