<?xml version="1.0" encoding="iso-8859-1"?>
<!-- Generator: Adobe Illustrator 27.8.0, SVG Export Plug-In . SVG Version: 6.00 Build 0)  -->
<svg version="1.1" id="Layer_1" xmlns="http://www.w3.org/2000/svg" xmlns:xlink="http://www.w3.org/1999/xlink" x="0px" y="0px"
	 width="96px" height="96px" viewBox="0 0 96 96" enable-background="new 0 0 96 96" xml:space="preserve">
<path d="M72.536,75H23.464c-1.808,0-3.426-0.935-4.33-2.5c-0.904-1.565-0.904-3.435,0-5L43.67,25.003
	c0.904-1.565,2.522-2.5,4.33-2.5s3.426,0.935,4.33,2.5L76.865,67.5c0.904,1.563,0.905,3.433,0.001,4.999
	C75.963,74.065,74.344,75,72.536,75z M25.196,69h45.608L48,29.502L25.196,69z"/>
<path d="M48.02,67c-1.656,0-3.005-1.343-3.005-3s1.339-3,2.995-3h0.01c1.657,0,3,1.343,3,3S49.677,67,48.02,67z"/>
<path d="M48,59c-1.657,0-3-1.343-3-3V44c0-1.657,1.343-3,3-3s3,1.343,3,3v12C51,57.657,49.657,59,48,59z"/>
</svg>
