<?xml version="1.0" encoding="iso-8859-1"?>
<!-- Generator: Adobe Illustrator 27.8.0, SVG Export Plug-In . SVG Version: 6.00 Build 0)  -->
<svg version="1.1" id="Layer_1" xmlns="http://www.w3.org/2000/svg" xmlns:xlink="http://www.w3.org/1999/xlink" x="0px" y="0px"
	 width="96px" height="96px" viewBox="0 0 96 96" enable-background="new 0 0 96 96" xml:space="preserve">
<path d="M48,63c-10.477,0-19-8.523-19-19V13h38v31C67,54.477,58.477,63,48,63z M35,19v25c0,7.168,5.832,13,13,13s13-5.832,13-13V19
	H35z"/>
<path d="M63,83H33v-3c0-8.271,6.729-15,15-15s15,6.729,15,15V83z M39.514,77h16.972c-1.238-3.492-4.575-6-8.486-6
	S40.752,73.508,39.514,77z"/>
<path d="M32,47c-8.271,0-15-6.729-15-15V21h15v6h-9v5c0,4.963,4.038,9,9,9V47z"/>
<path d="M64,47v-6c4.962,0,9-4.037,9-9v-5h-9v-6h15v11C79,40.271,72.271,47,64,47z"/>
<rect x="45" y="60" width="6" height="8"/>
</svg>
