<?xml version="1.0" encoding="iso-8859-1"?>
<!-- Generator: Adobe Illustrator 27.8.0, SVG Export Plug-In . SVG Version: 6.00 Build 0)  -->
<svg version="1.1" id="Layer_1" xmlns="http://www.w3.org/2000/svg" xmlns:xlink="http://www.w3.org/1999/xlink" x="0px" y="0px"
	 width="96px" height="96px" viewBox="0 0 96 96" enable-background="new 0 0 96 96" xml:space="preserve">
<path d="M67.912,83.002c-0.658,0-1.32-0.158-1.932-0.479L48,73.069l-17.979,9.452c-1.409,0.739-3.082,0.617-4.367-0.316
	s-1.917-2.487-1.649-4.054l3.434-20.021L12.894,43.952c-1.138-1.108-1.54-2.736-1.05-4.249c0.491-1.512,1.774-2.594,3.348-2.822
	l20.102-2.922l8.989-18.215c0.703-1.425,2.128-2.311,3.718-2.311s3.015,0.886,3.718,2.312l8.989,18.214l20.102,2.922
	c1.573,0.229,2.856,1.311,3.348,2.822c0.49,1.513,0.088,3.141-1.05,4.25L68.562,58.13l3.434,20.021
	c0.268,1.567-0.364,3.121-1.649,4.055C69.618,82.733,68.768,83.002,67.912,83.002z M19.771,42.278l14.114,13.758l-3.332,19.427
	L48,66.29l17.446,9.173l-3.332-19.427l14.114-13.758l-19.506-2.835L48,21.77l-8.723,17.674L19.771,42.278z"/>
</svg>
