<?xml version="1.0" encoding="iso-8859-1"?>
<!-- Generator: Adobe Illustrator 27.8.0, SVG Export Plug-In . SVG Version: 6.00 Build 0)  -->
<svg version="1.1" id="Layer_1" xmlns="http://www.w3.org/2000/svg" xmlns:xlink="http://www.w3.org/1999/xlink" x="0px" y="0px"
	 width="96px" height="96px" viewBox="0 0 96 96" enable-background="new 0 0 96 96" xml:space="preserve">
<path d="M72,79H24c-3.859,0-7-3.14-7-7V45.84c0-2.047,0.891-3.984,2.444-5.315l24-20.571c2.639-2.263,6.473-2.263,9.111,0l24,20.571
	C78.109,41.856,79,43.793,79,45.84V72C79,75.86,75.859,79,72,79z M48,24.267c-0.231,0-0.463,0.081-0.651,0.243l-24,20.571
	C23.127,45.271,23,45.547,23,45.84V72c0,0.551,0.448,1,1,1h48c0.552,0,1-0.449,1-1V45.84c0-0.292-0.127-0.569-0.349-0.759
	l-24-20.572C48.463,24.348,48.231,24.267,48,24.267z"/>
<path d="M59,79H37V56c0-3.86,3.141-7,7-7h8c3.859,0,7,3.14,7,7V79z M43,73h10V56c0-0.551-0.448-1-1-1h-8c-0.552,0-1,0.449-1,1V73z"
	/>
</svg>
