<?xml version="1.0" encoding="iso-8859-1"?>
<!-- Generator: Adobe Illustrator 27.8.0, SVG Export Plug-In . SVG Version: 6.00 Build 0)  -->
<svg version="1.1" id="Layer_1" xmlns="http://www.w3.org/2000/svg" xmlns:xlink="http://www.w3.org/1999/xlink" x="0px" y="0px"
	 width="96px" height="96px" viewBox="0 0 96 96" enable-background="new 0 0 96 96" xml:space="preserve">
<path d="M68,83H48v-6h20c0.552,0,1-0.448,1-1V33.242L54.758,19H28c-0.552,0-1,0.449-1,1v36h-6V20c0-3.86,3.141-7,7-7h29.242
	L75,30.757V76C75,79.859,71.859,83,68,83z"/>
<polygon points="72,35 53,35 53,16 59,16 59,29 72,29 "/>
<path d="M30.544,86.112H17.888V73.456c0-1.869,0.728-3.627,2.048-4.949l16.882-16.88c1.887-1.888,4.63-2.537,7.163-1.69
	c4.735,1.578,8.505,5.348,10.083,10.084c0.845,2.53,0.197,5.275-1.69,7.162l-16.879,16.88
	C34.171,85.385,32.413,86.112,30.544,86.112z M23.888,80.112h6.656c0.268,0,0.52-0.104,0.709-0.294L48.131,62.94
	c0.27-0.27,0.361-0.661,0.241-1.022c-0.984-2.954-3.336-5.306-6.289-6.29c-0.363-0.118-0.754-0.027-1.023,0.241L24.18,72.748
	c-0.188,0.188-0.292,0.44-0.292,0.708V80.112z"/>
</svg>
