<?xml version="1.0" encoding="iso-8859-1"?>
<!-- Generator: Adobe Illustrator 27.8.0, SVG Export Plug-In . SVG Version: 6.00 Build 0)  -->
<svg version="1.1" id="Layer_1" xmlns="http://www.w3.org/2000/svg" xmlns:xlink="http://www.w3.org/1999/xlink" x="0px" y="0px"
	 width="96px" height="96px" viewBox="0 0 96 96" enable-background="new 0 0 96 96" xml:space="preserve">
<path d="M48,75.877c-1.839,0-3.435-1.246-3.881-3.03l-4.193-16.773L23.153,51.88c-1.783-0.444-3.03-2.04-3.03-3.88
	s1.247-3.436,3.031-3.881l16.772-4.192l4.193-16.773c0.446-1.784,2.042-3.03,3.881-3.03s3.435,1.246,3.881,3.03l4.193,16.773
	l16.773,4.193c1.783,0.444,3.03,2.04,3.03,3.88s-1.247,3.436-3.031,3.881l-16.772,4.192l-4.193,16.773
	C51.435,74.631,49.839,75.877,48,75.877z M32.371,48l12.503,3.126L48,63.631l3.126-12.505L63.629,48l-12.503-3.126L48,32.369
	l-3.126,12.505L32.371,48z"/>
<polygon points="24,40.369 19.908,24 24,7.631 28.092,24 "/>
<polygon points="24,28.093 7.631,24 24,19.907 40.369,24 "/>
<polygon points="72,88.369 67.908,72 72,55.631 76.092,72 "/>
<polygon points="72,76.093 55.631,72 72,67.907 88.369,72 "/>
</svg>
