<?xml version="1.0" encoding="iso-8859-1"?>
<!-- Generator: Adobe Illustrator 27.8.0, SVG Export Plug-In . SVG Version: 6.00 Build 0)  -->
<svg version="1.1" id="Layer_1" xmlns="http://www.w3.org/2000/svg" xmlns:xlink="http://www.w3.org/1999/xlink" x="0px" y="0px"
	 width="96px" height="96px" viewBox="0 0 96 96" enable-background="new 0 0 96 96" xml:space="preserve">
<path d="M48,55c-3.86,0-7-3.141-7-7s3.14-7,7-7s7,3.141,7,7S51.86,55,48,55z M48,47c-0.551,0-1,0.448-1,1s0.449,1,1,1s1-0.448,1-1
	S48.551,47,48,47z"/>
<path d="M28,55c-3.86,0-7-3.141-7-7s3.14-7,7-7s7,3.141,7,7S31.86,55,28,55z M28,47c-0.551,0-1,0.448-1,1s0.449,1,1,1s1-0.448,1-1
	S28.551,47,28,47z"/>
<path d="M68,55c-3.86,0-7-3.141-7-7s3.14-7,7-7s7,3.141,7,7S71.86,55,68,55z M68,47c-0.551,0-1,0.448-1,1s0.449,1,1,1s1-0.448,1-1
	S68.551,47,68,47z"/>
</svg>
