<?xml version="1.0" encoding="iso-8859-1"?>
<!-- Generator: Adobe Illustrator 27.8.0, SVG Export Plug-In . SVG Version: 6.00 Build 0)  -->
<svg version="1.1" id="Layer_1" xmlns="http://www.w3.org/2000/svg" xmlns:xlink="http://www.w3.org/1999/xlink" x="0px" y="0px"
	 width="96px" height="96px" viewBox="0 0 96 96" enable-background="new 0 0 96 96" xml:space="preserve">
<path d="M48,80.242l-2.121-2.121C43.866,76.108,41.189,75,38.343,75H20c-3.86,0-7-3.141-7-7V24c0-3.859,3.14-7,7-7h18.343
	c3.511,0,6.856,1.079,9.657,3.08c2.801-2.001,6.146-3.08,9.657-3.08H76c3.859,0,7,3.141,7,7v44c0,3.859-3.141,7-7,7H57.657
	c-2.847,0-5.523,1.108-7.536,3.121L48,80.242z M20,23c-0.551,0-1,0.448-1,1v44c0,0.552,0.449,1,1,1h18.343
	c3.511,0,6.856,1.079,9.657,3.08c2.801-2.001,6.146-3.08,9.657-3.08H76c0.552,0,1-0.448,1-1V24c0-0.552-0.448-1-1-1H57.657
	c-2.847,0-5.523,1.108-7.536,3.121L48,28.242l-2.121-2.121C43.866,24.108,41.189,23,38.343,23H20z"/>
<rect x="45" y="24" width="6" height="52"/>
</svg>
