<?xml version="1.0" encoding="iso-8859-1"?>
<!-- Generator: Adobe Illustrator 27.8.0, SVG Export Plug-In . SVG Version: 6.00 Build 0)  -->
<svg version="1.1" id="Layer_1" xmlns="http://www.w3.org/2000/svg" xmlns:xlink="http://www.w3.org/1999/xlink" x="0px" y="0px"
	 width="96px" height="96px" viewBox="0 0 96 96" enable-background="new 0 0 96 96" xml:space="preserve">
<path d="M23,36h-6V22c0-2.757,2.243-5,5-5h14v6H23V36z"/>
<path d="M74,79H60v-6h13V60h6v14C79,76.757,76.757,79,74,79z"/>
<path d="M79,36h-6V23H60v-6h14c2.757,0,5,2.243,5,5V36z"/>
<path d="M36,79H22c-2.757,0-5-2.243-5-5V60h6v13h13V79z"/>
</svg>
