<?xml version="1.0" encoding="iso-8859-1"?>
<!-- Generator: Adobe Illustrator 27.8.0, SVG Export Plug-In . SVG Version: 6.00 Build 0)  -->
<svg version="1.1" id="Layer_1" xmlns="http://www.w3.org/2000/svg" xmlns:xlink="http://www.w3.org/1999/xlink" x="0px" y="0px"
	 width="96px" height="96px" viewBox="0 0 96 96" enable-background="new 0 0 96 96" xml:space="preserve">
<path d="M75,71H52c-3.86,0-7-3.141-7-7c0-0.552-0.449-1-1-1H25V21h23c3.86,0,7,3.141,7,7c0,0.552,0.449,1,1,1h19V71z M31,57h13
	c3.86,0,7,3.141,7,7c0,0.552,0.449,1,1,1h17V35H56c-3.86,0-7-3.141-7-7c0-0.552-0.449-1-1-1H31V57z"/>
<rect x="25" y="48" width="6" height="32"/>
</svg>
