<?xml version="1.0" encoding="iso-8859-1"?>
<!-- Generator: Adobe Illustrator 27.8.0, SVG Export Plug-In . SVG Version: 6.00 Build 0)  -->
<svg version="1.1" id="Layer_1" xmlns="http://www.w3.org/2000/svg" xmlns:xlink="http://www.w3.org/1999/xlink" x="0px" y="0px"
	 width="96px" height="96px" viewBox="0 0 96 96" enable-background="new 0 0 96 96" xml:space="preserve">
<path d="M48,63c-4.948,0-9.757-1.608-13.717-4.558C32.877,58.812,31.442,59,30,59c-9.374,0-17-7.626-17-17s7.626-17,17-17
	c0.193,0,0.387,0.004,0.584,0.012C34.935,19.966,41.324,17,48,17s13.065,2.966,17.416,8.012C65.613,25.004,65.807,25,66,25
	c9.374,0,17,7.626,17,17s-7.626,17-17,17c-1.442,0-2.877-0.188-4.283-0.558C57.757,61.392,52.948,63,48,63z M35.527,51.662
	l1.348,1.17C39.973,55.52,43.923,57,48,57s8.027-1.48,11.125-4.168l1.348-1.17l1.672,0.627C63.403,52.761,64.7,53,66,53
	c6.065,0,11-4.935,11-11s-4.935-11-11-11c-0.441,0-0.921,0.038-1.51,0.119l-1.764,0.242l-1.058-1.433C58.418,25.525,53.436,23,48,23
	s-10.418,2.525-13.668,6.928l-1.058,1.433l-1.764-0.242C30.921,31.038,30.441,31,30,31c-6.065,0-11,4.935-11,11s4.935,11,11,11
	c1.3,0,2.597-0.239,3.855-0.711L35.527,51.662z"/>
<path d="M46.965,90.381l-5.418-16.253l-5.783-2.892C34.059,70.383,33,68.669,33,66.764V56h6v10.146l7.453,3.727l2.582,7.747
	l6.408-8.543L49,65.854V60h6v2.146l4.198,2.099c1.33,0.665,2.289,1.876,2.63,3.324c0.341,1.447,0.025,2.959-0.867,4.148
	L46.965,90.381z"/>
</svg>
