<?xml version="1.0" encoding="iso-8859-1"?>
<!-- Generator: Adobe Illustrator 27.8.0, SVG Export Plug-In . SVG Version: 6.00 Build 0)  -->
<svg version="1.1" id="Layer_1" xmlns="http://www.w3.org/2000/svg" xmlns:xlink="http://www.w3.org/1999/xlink" x="0px" y="0px"
	 width="96px" height="96px" viewBox="0 0 96 96" enable-background="new 0 0 96 96" xml:space="preserve">
<path d="M48,83c-19.299,0-35-15.701-35-35s15.701-35,35-35s35,15.701,35,35S67.299,83,48,83z M48,19c-15.99,0-29,13.01-29,29
	s13.01,29,29,29s29-13.01,29-29S63.99,19,48,19z"/>
<path d="M48,71c-12.683,0-23-10.317-23-23s10.317-23,23-23s23,10.317,23,23S60.683,71,48,71z M48,31c-9.374,0-17,7.626-17,17
	s7.626,17,17,17s17-7.626,17-17S57.374,31,48,31z"/>
<path d="M48,59c-6.065,0-11-4.935-11-11s4.935-11,11-11s11,4.935,11,11S54.065,59,48,59z M48,43c-2.757,0-5,2.243-5,5s2.243,5,5,5
	s5-2.243,5-5S50.757,43,48,43z"/>
</svg>
