<?xml version="1.0" encoding="iso-8859-1"?>
<!-- Generator: Adobe Illustrator 27.8.0, SVG Export Plug-In . SVG Version: 6.00 Build 0)  -->
<svg version="1.1" id="Layer_1" xmlns="http://www.w3.org/2000/svg" xmlns:xlink="http://www.w3.org/1999/xlink" x="0px" y="0px"
	 width="96px" height="96px" viewBox="0 0 96 96" enable-background="new 0 0 96 96" xml:space="preserve">
<path d="M32,47c-6.065,0-11-4.935-11-11s4.935-11,11-11s11,4.935,11,11S38.065,47,32,47z M32,31c-2.757,0-5,2.243-5,5s2.243,5,5,5
	s5-2.243,5-5S34.757,31,32,31z"/>
<path d="M43.315,71H20.685c-2.27,0-4.411-1.106-5.729-2.958c-1.299-1.824-1.639-4.167-0.911-6.267C16.693,54.133,23.909,49,32,49
	s15.307,5.133,17.956,12.774c0.728,2.101,0.388,4.444-0.911,6.268C47.727,69.894,45.585,71,43.315,71z M32,55
	c-5.537,0-10.475,3.512-12.286,8.74c-0.124,0.356,0.002,0.644,0.129,0.822C19.937,64.694,20.206,65,20.685,65h22.631
	c0.479,0,0.748-0.306,0.842-0.438c0.127-0.179,0.253-0.466,0.129-0.823C42.475,58.512,37.537,55,32,55z"/>
<path d="M64,47c-6.065,0-11-4.935-11-11s4.935-11,11-11s11,4.935,11,11S70.065,47,64,47z M64,31c-2.757,0-5,2.243-5,5s2.243,5,5,5
	s5-2.243,5-5S66.757,31,64,31z"/>
<path d="M75.315,71H52.685c-2.27,0-4.411-1.106-5.729-2.958c-1.299-1.824-1.639-4.167-0.911-6.267C48.693,54.133,55.909,49,64,49
	s15.307,5.133,17.956,12.774c0.728,2.101,0.388,4.444-0.911,6.268C79.727,69.894,77.585,71,75.315,71z M64,55
	c-5.537,0-10.475,3.512-12.286,8.74c-0.124,0.356,0.002,0.644,0.129,0.822C51.937,64.694,52.206,65,52.685,65h22.631
	c0.479,0,0.748-0.306,0.842-0.438c0.127-0.179,0.253-0.466,0.129-0.823C74.475,58.512,69.537,55,64,55z"/>
</svg>
