<?xml version="1.0" encoding="iso-8859-1"?>
<!-- Generator: Adobe Illustrator 27.8.0, SVG Export Plug-In . SVG Version: 6.00 Build 0)  -->
<svg version="1.1" id="Layer_1" xmlns="http://www.w3.org/2000/svg" xmlns:xlink="http://www.w3.org/1999/xlink" x="0px" y="0px"
	 width="96px" height="96px" viewBox="0 0 96 96" enable-background="new 0 0 96 96" xml:space="preserve">
<path d="M64.263,59H31.737c-1.847,0-3.536-1.012-4.408-2.641c-0.872-1.628-0.777-3.595,0.247-5.133L33,43.092v-17.85l-1.414-1.414
	c-1.148-1.147-1.489-2.858-0.867-4.358c0.621-1.5,2.072-2.47,3.695-2.47h27.172c1.624,0,3.074,0.97,3.695,2.47
	c0.622,1.5,0.281,3.211-0.867,4.358L63,25.242v17.85l5.423,8.135c1.025,1.538,1.12,3.505,0.248,5.133
	C67.799,57.988,66.11,59,64.263,59z M33.605,53h28.789L57,44.908V23H39v21.908L33.605,53z"/>
<rect x="45" y="56" width="6" height="16"/>
</svg>
