<?xml version="1.0" encoding="iso-8859-1"?>
<!-- Generator: Adobe Illustrator 27.8.0, SVG Export Plug-In . SVG Version: 6.00 Build 0)  -->
<svg version="1.1" id="Layer_1" xmlns="http://www.w3.org/2000/svg" xmlns:xlink="http://www.w3.org/1999/xlink" x="0px" y="0px"
	 width="96px" height="96px" viewBox="0 0 96 96" enable-background="new 0 0 96 96" xml:space="preserve">
<path d="M48,79c-8.515,0-16.747-3.559-22.583-9.764c-5.918-6.292-8.886-14.524-8.357-23.18
	c0.943-15.414,13.268-27.871,28.668-28.975c4.614-0.333,9.12,0.334,13.39,1.976c1.451,0.558,2.425,1.868,2.542,3.42
	c0.118,1.562-0.655,3.013-2.017,3.788C51.845,30.709,47,39.037,47,48c0,8.962,4.844,17.29,12.643,21.734
	c1.361,0.775,2.133,2.227,2.015,3.788c-0.118,1.553-1.093,2.864-2.545,3.422C55.563,78.309,51.825,79,48,79z M48.015,22.999
	c-0.616,0-1.235,0.022-1.858,0.067c-12.414,0.89-22.348,10.931-23.108,23.356c-0.428,6.987,1.965,13.629,6.738,18.703
	C34.563,70.204,41.032,73,48,73c1.696,0,3.37-0.168,5.008-0.502C45.511,66.672,41,57.632,41,48c0-9.633,4.512-18.674,12.01-24.5
	C51.375,23.167,49.706,22.999,48.015,22.999z"/>
</svg>
