<?xml version="1.0" encoding="iso-8859-1"?>
<!-- Generator: Adobe Illustrator 27.8.0, SVG Export Plug-In . SVG Version: 6.00 Build 0)  -->
<svg version="1.1" id="Layer_1" xmlns="http://www.w3.org/2000/svg" xmlns:xlink="http://www.w3.org/1999/xlink" x="0px" y="0px"
	 width="96px" height="96px" viewBox="0 0 96 96" enable-background="new 0 0 96 96" xml:space="preserve">
<path d="M68,75H28c-3.86,0-7-3.141-7-7V28c0-3.859,3.14-7,7-7h40c3.86,0,7,3.141,7,7v40C75,71.859,71.86,75,68,75z M28,27
	c-0.551,0-1,0.448-1,1v40c0,0.552,0.449,1,1,1h40c0.551,0,1-0.448,1-1V28c0-0.552-0.449-1-1-1H28z"/>
</svg>
