<?xml version="1.0" encoding="iso-8859-1"?>
<!-- Generator: Adobe Illustrator 27.8.0, SVG Export Plug-In . SVG Version: 6.00 Build 0)  -->
<svg version="1.1" id="Layer_1" xmlns="http://www.w3.org/2000/svg" xmlns:xlink="http://www.w3.org/1999/xlink" x="0px" y="0px"
	 width="96px" height="96px" viewBox="0 0 96 96" enable-background="new 0 0 96 96" xml:space="preserve">
<path d="M68,83H48v-6h20c0.552,0,1-0.448,1-1V33.242L54.758,19H28c-0.552,0-1,0.449-1,1v36h-6V20c0-3.86,3.141-7,7-7h29.242
	L75,30.757V76C75,79.859,71.859,83,68,83z"/>
<polygon points="72,35 53,35 53,16 59,16 59,29 72,29 "/>
<rect x="29" y="60" width="6" height="24"/>
<rect x="20" y="69" width="24" height="6"/>
</svg>
