<?xml version="1.0" encoding="iso-8859-1"?>
<!-- Generator: Adobe Illustrator 27.8.0, SVG Export Plug-In . SVG Version: 6.00 Build 0)  -->
<svg version="1.1" id="Layer_1" xmlns="http://www.w3.org/2000/svg" xmlns:xlink="http://www.w3.org/1999/xlink" x="0px" y="0px"
	 width="96px" height="96px" viewBox="0 0 96 96" enable-background="new 0 0 96 96" xml:space="preserve">
<path d="M72,79H24c-3.86,0-7-3.14-7-7V24c0-3.86,3.14-7,7-7h48c3.86,0,7,3.14,7,7v48C79,75.86,75.86,79,72,79z M24,23
	c-0.551,0-1,0.449-1,1v48c0,0.551,0.449,1,1,1h48c0.551,0,1-0.449,1-1V24c0-0.551-0.449-1-1-1H24z"/>
<path d="M76,39H20c-1.657,0-3-1.343-3-3s1.343-3,3-3h56c1.657,0,3,1.343,3,3S77.657,39,76,39z"/>
<rect x="29" y="12" width="6" height="16"/>
<rect x="45" y="12" width="6" height="16"/>
<rect x="61" y="12" width="6" height="16"/>
<path d="M36,55h-4c-1.657,0-3-1.343-3-3v-4c0-1.657,1.343-3,3-3h4c1.657,0,3,1.343,3,3v4C39,53.657,37.657,55,36,55z"/>
<path d="M48,55h-4c-1.657,0-3-1.343-3-3v-4c0-1.657,1.343-3,3-3h4c1.657,0,3,1.343,3,3v4C51,53.657,49.657,55,48,55z"/>
<path d="M60,55h-4c-1.657,0-3-1.343-3-3v-4c0-1.657,1.343-3,3-3h4c1.657,0,3,1.343,3,3v4C63,53.657,61.657,55,60,55z"/>
<path d="M36,67h-4c-1.657,0-3-1.343-3-3v-4c0-1.657,1.343-3,3-3h4c1.657,0,3,1.343,3,3v4C39,65.657,37.657,67,36,67z"/>
<path d="M48,67h-4c-1.657,0-3-1.343-3-3v-4c0-1.657,1.343-3,3-3h4c1.657,0,3,1.343,3,3v4C51,65.657,49.657,67,48,67z"/>
</svg>
