<?xml version="1.0" encoding="iso-8859-1"?>
<!-- Generator: Adobe Illustrator 27.8.0, SVG Export Plug-In . SVG Version: 6.00 Build 0)  -->
<svg version="1.1" id="Layer_1" xmlns="http://www.w3.org/2000/svg" xmlns:xlink="http://www.w3.org/1999/xlink" x="0px" y="0px"
	 width="96px" height="96px" viewBox="0 0 96 96" enable-background="new 0 0 96 96" xml:space="preserve">
<path d="M48,83c-4.723,0-9.307-0.926-13.624-2.752c-4.169-1.763-7.912-4.286-11.125-7.5c-3.213-3.212-5.736-6.955-7.499-11.123
	C13.926,57.307,13,52.723,13,48s0.926-9.307,2.752-13.624c1.763-4.169,4.286-7.912,7.5-11.125l4.242,4.244
	c-2.664,2.663-4.756,5.765-6.217,9.218C19.767,40.287,19,44.084,19,48s0.767,7.713,2.277,11.288
	c1.461,3.452,3.553,6.554,6.217,9.217c2.664,2.665,5.766,4.757,9.219,6.218C40.287,76.233,44.084,77,48,77V83z"/>
<path d="M72.748,72.749l-4.242-4.244c2.664-2.663,4.756-5.765,6.217-9.218C76.233,55.713,77,51.916,77,48s-0.767-7.713-2.277-11.288
	c-1.461-3.452-3.553-6.554-6.217-9.217c-2.664-2.665-5.766-4.757-9.219-6.218C55.713,19.767,51.916,19,48,19v-6
	c4.723,0,9.307,0.926,13.624,2.752c4.169,1.763,7.912,4.286,11.125,7.5c3.213,3.212,5.736,6.955,7.499,11.123
	C82.074,38.693,83,43.277,83,48s-0.926,9.307-2.752,13.624C78.485,65.793,75.962,69.536,72.748,72.749z"/>
<path d="M40,27c-6.065,0-11-4.935-11-11S33.935,5,40,5s11,4.935,11,11S46.065,27,40,27z M40,11c-2.757,0-5,2.243-5,5s2.243,5,5,5
	s5-2.243,5-5S42.757,11,40,11z"/>
<path d="M56,91c-6.065,0-11-4.935-11-11s4.935-11,11-11s11,4.935,11,11S62.065,91,56,91z M56,75c-2.757,0-5,2.243-5,5s2.243,5,5,5
	s5-2.243,5-5S58.757,75,56,75z"/>
<path d="M48,63c-8.271,0-15-6.729-15-15s6.729-15,15-15s15,6.729,15,15S56.271,63,48,63z M48,39c-4.963,0-9,4.037-9,9s4.037,9,9,9
	s9-4.037,9-9S52.963,39,48,39z"/>
</svg>
