<?xml version="1.0" encoding="iso-8859-1"?>
<!-- Generator: Adobe Illustrator 27.8.0, SVG Export Plug-In . SVG Version: 6.00 Build 0)  -->
<svg version="1.1" id="Layer_1" xmlns="http://www.w3.org/2000/svg" xmlns:xlink="http://www.w3.org/1999/xlink" x="0px" y="0px"
	 width="96px" height="96px" viewBox="0 0 96 96" enable-background="new 0 0 96 96" xml:space="preserve">
<path d="M74,83H22c-2.757,0-5-2.243-5-5V22c0-2.757,2.243-5,5-5h47.243L79,26.757V78C79,80.757,76.757,83,74,83z M23,77h50V29.243
	L66.757,23H23V77z"/>
<path d="M62,43H34c-2.757,0-5-2.243-5-5V20h6v17h26V20h6v18C67,40.757,64.757,43,62,43z"/>
<path d="M67,83H29V58c0-2.757,2.243-5,5-5h28c2.757,0,5,2.243,5,5V83z M35,77h26V59H35V77z"/>
<rect x="49" y="24" width="6" height="12"/>
</svg>
