<?xml version="1.0" encoding="iso-8859-1"?>
<!-- Generator: Adobe Illustrator 27.8.0, SVG Export Plug-In . SVG Version: 6.00 Build 0)  -->
<svg version="1.1" id="Layer_1" xmlns="http://www.w3.org/2000/svg" xmlns:xlink="http://www.w3.org/1999/xlink" x="0px" y="0px"
	 width="96px" height="96px" viewBox="0 0 96 96" enable-background="new 0 0 96 96" xml:space="preserve">
<path d="M48,83c-19.299,0-35-15.701-35-35s15.701-35,35-35s35,15.701,35,35S67.299,83,48,83z M48,19c-15.991,0-29,13.01-29,29
	s13.009,29,29,29s29-13.01,29-29S63.991,19,48,19z"/>
<path d="M48,53c-2.757,0-5-2.243-5-5s2.243-5,5-5s5,2.243,5,5S50.757,53,48,53z M48,47c-0.551,0-1,0.448-1,1s0.449,1,1,1
	s1-0.448,1-1S48.551,47,48,47z"/>
<path d="M30,53c-2.757,0-5-2.243-5-5s2.243-5,5-5s5,2.243,5,5S32.757,53,30,53z M30,47c-0.551,0-1,0.448-1,1s0.449,1,1,1
	s1-0.448,1-1S30.551,47,30,47z"/>
<path d="M66,53c-2.757,0-5-2.243-5-5s2.243-5,5-5s5,2.243,5,5S68.757,53,66,53z M66,47c-0.551,0-1,0.448-1,1s0.449,1,1,1
	s1-0.448,1-1S66.551,47,66,47z"/>
</svg>
