<?xml version="1.0" encoding="iso-8859-1"?>
<!-- Generator: Adobe Illustrator 27.8.0, SVG Export Plug-In . SVG Version: 6.00 Build 0)  -->
<svg version="1.1" id="Layer_1" xmlns="http://www.w3.org/2000/svg" xmlns:xlink="http://www.w3.org/1999/xlink" x="0px" y="0px"
	 width="96px" height="96px" viewBox="0 0 96 96" enable-background="new 0 0 96 96" xml:space="preserve">
<path d="M48,83c-2.334,0-4.549-0.72-6.403-2.057c-2.221,0.545-4.544,0.383-6.708-0.492c-2.244-0.906-4.111-2.53-5.331-4.588
	c-2.371-0.319-4.595-1.403-6.306-3.115c-1.65-1.65-2.708-3.726-3.074-5.981c-1.956-1.186-3.484-2.943-4.396-5.092
	c-0.946-2.227-1.118-4.694-0.525-7.014C13.806,52.759,13,50.42,13,48c0-2.333,0.72-4.549,2.057-6.403
	c-0.545-2.221-0.383-4.544,0.491-6.708c0.906-2.243,2.53-4.11,4.588-5.331c0.319-2.372,1.404-4.596,3.115-6.307
	c1.65-1.65,3.726-2.708,5.982-3.073c1.185-1.955,2.942-3.483,5.09-4.396c2.227-0.945,4.696-1.115,7.014-0.525
	C43.241,13.806,45.58,13,48,13c2.334,0,4.549,0.72,6.403,2.057c2.222-0.546,4.545-0.383,6.708,0.492
	c2.243,0.906,4.11,2.529,5.331,4.588c2.372,0.318,4.596,1.403,6.307,3.115c1.65,1.65,2.708,3.727,3.073,5.981
	c1.955,1.185,3.483,2.942,4.396,5.091c0.945,2.227,1.117,4.695,0.525,7.014C82.194,43.241,83,45.58,83,48
	c0,2.334-0.72,4.549-2.057,6.403c0.545,2.22,0.383,4.544-0.492,6.708c-0.906,2.243-2.529,4.11-4.588,5.331
	c-0.319,2.372-1.404,4.596-3.115,6.307c-1.649,1.649-3.726,2.707-5.981,3.072c-1.185,1.956-2.942,3.484-5.091,4.396
	c-2.227,0.945-4.695,1.117-7.014,0.525C52.759,82.194,50.42,83,48,83z M42.951,73.965l1.459,1.508C45.363,76.458,46.638,77,48,77
	c1.416,0,2.774-0.612,3.727-1.679l1.491-1.672l2.026,0.955c1.312,0.62,2.764,0.653,4.088,0.09c1.253-0.532,2.215-1.529,2.707-2.809
	l0.754-1.956l2.095,0.034c1.371,0.037,2.655-0.495,3.618-1.458c1.002-1.002,1.529-2.395,1.448-3.821l-0.127-2.237l2.107-0.757
	c1.366-0.491,2.415-1.495,2.954-2.827c0.511-1.263,0.485-2.647-0.071-3.898l-0.853-1.916l1.508-1.459C76.458,50.637,77,49.362,77,48
	c0-1.416-0.612-2.774-1.679-3.727l-1.672-1.491l0.955-2.026c0.62-1.313,0.651-2.765,0.09-4.088
	c-0.532-1.253-1.529-2.215-2.809-2.707l-1.957-0.754l0.035-2.097c0.023-1.368-0.494-2.652-1.458-3.616
	c-1.002-1.002-2.396-1.531-3.821-1.448l-2.237,0.127l-0.757-2.107c-0.491-1.366-1.495-2.415-2.827-2.954
	c-1.262-0.509-2.646-0.485-3.899,0.071l-1.915,0.851l-1.458-1.506C50.638,19.542,49.362,19,48,19c-1.416,0-2.774,0.612-3.727,1.679
	l-1.491,1.672l-2.026-0.955c-1.312-0.62-2.763-0.651-4.088-0.09c-1.253,0.532-2.215,1.529-2.707,2.809l-0.754,1.957l-2.096-0.035
	c-1.403-0.059-2.653,0.494-3.617,1.458c-1.001,1.001-1.528,2.394-1.447,3.821l0.127,2.237l-2.108,0.757
	c-1.367,0.491-2.416,1.495-2.954,2.827c-0.51,1.263-0.485,2.647,0.071,3.899l0.851,1.915l-1.505,1.458
	C19.542,45.363,19,46.639,19,48c0,1.416,0.612,2.774,1.679,3.727l1.673,1.492l-0.957,2.026c-0.61,1.293-0.643,2.782-0.09,4.085
	c0.532,1.255,1.53,2.217,2.809,2.709l1.955,0.754l-0.034,2.095c-0.022,1.37,0.496,2.655,1.458,3.618
	c1.001,1.001,2.39,1.533,3.821,1.447l2.239-0.128l0.757,2.11c0.49,1.365,1.493,2.414,2.826,2.953
	c1.261,0.509,2.645,0.485,3.898-0.071L42.951,73.965z"/>
<polygon points="48.596,60.838 33.879,46.121 38.121,41.879 47.404,51.162 57.428,34.456 62.572,37.544 "/>
</svg>
