<?xml version="1.0" encoding="iso-8859-1"?>
<!-- Generator: Adobe Illustrator 27.8.0, SVG Export Plug-In . SVG Version: 6.00 Build 0)  -->
<svg version="1.1" id="Layer_1" xmlns="http://www.w3.org/2000/svg" xmlns:xlink="http://www.w3.org/1999/xlink" x="0px" y="0px"
	 width="96px" height="96px" viewBox="0 0 96 96" enable-background="new 0 0 96 96" xml:space="preserve">
<rect x="24" y="25" width="48" height="6"/>
<path d="M56.347,75H39.653c-3.645,0-6.642-2.737-6.971-6.367l-3.669-40.362l5.976-0.543l3.669,40.362
	C38.704,68.609,39.132,69,39.653,69h16.694c0.521,0,0.949-0.391,0.996-0.909l3.669-40.363l5.976,0.543l-3.669,40.362
	C62.989,72.263,59.992,75,56.347,75z"/>
<rect x="36" y="41" width="24" height="6"/>
<rect x="36" y="53" width="24" height="6"/>
<rect x="45" y="28" width="6" height="44"/>
</svg>
