<?xml version="1.0" encoding="iso-8859-1"?>
<!-- Generator: Adobe Illustrator 27.8.0, SVG Export Plug-In . SVG Version: 6.00 Build 0)  -->
<svg version="1.1" id="Layer_1" xmlns="http://www.w3.org/2000/svg" xmlns:xlink="http://www.w3.org/1999/xlink" x="0px" y="0px"
	 width="96px" height="96px" viewBox="0 0 96 96" enable-background="new 0 0 96 96" xml:space="preserve">
<path d="M37.465,74.82L23.18,60.535l0.888-1.904c0.192-0.411,4.791-10.175,13.075-20.177c11.209-13.532,23.832-20.888,36.503-21.271
	c1.901-0.05,3.774,0.687,5.129,2.042c1.355,1.356,2.1,3.226,2.042,5.129c-0.383,12.671-7.739,25.293-21.271,36.503
	C49.544,69.142,39.78,73.74,39.369,73.932L37.465,74.82z M30.445,59.315l8.239,8.239C46.216,63.58,74.12,47.309,74.82,24.172
	c0.011-0.353-0.176-0.593-0.288-0.705c-0.112-0.112-0.359-0.288-0.705-0.288C50.691,23.88,34.42,51.784,30.445,59.315z"/>
<path d="M18.302,82.698h-3v-3c0-0.706,0.104-7.003,3.707-10.606c1.322-1.322,3.08-2.051,4.95-2.051c1.87,0,3.627,0.729,4.95,2.051
	c1.322,1.322,2.05,3.08,2.05,4.949c0,1.87-0.728,3.628-2.051,4.95l0,0C25.305,82.594,19.008,82.698,18.302,82.698z M23.958,73.042
	c-0.155,0-0.452,0.038-0.707,0.293c-0.683,0.683-1.139,1.759-1.438,2.852c1.092-0.298,2.168-0.755,2.852-1.438v0
	c0.255-0.255,0.293-0.552,0.293-0.707c0-0.154-0.038-0.452-0.293-0.707C24.41,73.08,24.113,73.042,23.958,73.042z"/>
<path d="M28.506,63.301l-10.351-2.068c-2.575-0.515-4.631-2.405-5.366-4.933c-0.726-2.495-0.017-5.156,1.851-6.944
	c3.74-3.582,10.332-7.445,20.493-5.501l4.544,0.869l-2.647,3.794c-4.816,6.904-7.5,12.596-7.526,12.652L28.506,63.301z
	 M19.333,55.349l5.801,1.16c0.871-1.66,2.264-4.18,4.15-7.167c-4.083,0.121-7.6,1.575-10.494,4.346
	c-0.331,0.317-0.313,0.683-0.24,0.935C18.604,54.805,18.786,55.24,19.333,55.349L19.333,55.349z"/>
<path d="M43.658,85.491c-0.652,0-1.31-0.092-1.958-0.28c-2.528-0.735-4.418-2.792-4.933-5.366l-2.07-10.35l2.133-0.999
	c0.057-0.026,5.749-2.71,12.652-7.526l3.794-2.647l0.869,4.544c1.943,10.162-1.919,16.753-5.501,20.494
	C47.32,84.743,45.517,85.491,43.658,85.491z M42.651,78.667c0.109,0.547,0.544,0.729,0.726,0.782
	c0.251,0.072,0.618,0.09,0.935-0.239c2.771-2.895,4.225-6.411,4.346-10.494c-2.987,1.886-5.507,3.279-7.167,4.15L42.651,78.667z"/>
</svg>
