<?xml version="1.0" encoding="iso-8859-1"?>
<!-- Generator: Adobe Illustrator 27.8.0, SVG Export Plug-In . SVG Version: 6.00 Build 0)  -->
<svg version="1.1" id="Layer_1" xmlns="http://www.w3.org/2000/svg" xmlns:xlink="http://www.w3.org/1999/xlink" x="0px" y="0px"
	 width="96px" height="96px" viewBox="0 0 96 96" enable-background="new 0 0 96 96" xml:space="preserve">
<path d="M72,79H24c-3.86,0-7-3.14-7-7V24c0-3.86,3.14-7,7-7h48c3.86,0,7,3.14,7,7v48C79,75.86,75.86,79,72,79z M24,23
	c-0.551,0-1,0.449-1,1v48c0,0.551,0.449,1,1,1h48c0.551,0,1-0.449,1-1V24c0-0.551-0.449-1-1-1H24z"/>
<path d="M48,67c-10.477,0-19-8.523-19-19s8.523-19,19-19s19,8.523,19,19S58.477,67,48,67z M48,35c-7.168,0-13,5.832-13,13
	s5.832,13,13,13s13-5.832,13-13S55.168,35,48,35z"/>
</svg>
