<?xml version="1.0" encoding="iso-8859-1"?>
<!-- Generator: Adobe Illustrator 27.8.0, SVG Export Plug-In . SVG Version: 6.00 Build 0)  -->
<svg version="1.1" id="Layer_1" xmlns="http://www.w3.org/2000/svg" xmlns:xlink="http://www.w3.org/1999/xlink" x="0px" y="0px"
	 width="96px" height="96px" viewBox="0 0 96 96" enable-background="new 0 0 96 96" xml:space="preserve">
<rect x="45" y="20" width="6" height="40"/>
<rect x="21" y="36" width="6" height="40"/>
<rect x="69" y="20" width="6" height="20"/>
<rect x="69" y="56" width="6" height="20"/>
<path d="M24,39c-6.065,0-11-4.935-11-11s4.935-11,11-11s11,4.935,11,11S30.065,39,24,39z M24,23c-2.757,0-5,2.243-5,5s2.243,5,5,5
	s5-2.243,5-5S26.757,23,24,23z"/>
<path d="M48,79c-6.065,0-11-4.935-11-11s4.935-11,11-11s11,4.935,11,11S54.065,79,48,79z M48,63c-2.757,0-5,2.243-5,5s2.243,5,5,5
	s5-2.243,5-5S50.757,63,48,63z"/>
<path d="M72,59c-6.065,0-11-4.935-11-11s4.935-11,11-11s11,4.935,11,11S78.065,59,72,59z M72,43c-2.757,0-5,2.243-5,5s2.243,5,5,5
	s5-2.243,5-5S74.757,43,72,43z"/>
</svg>
