<?xml version="1.0" encoding="iso-8859-1"?>
<!-- Generator: Adobe Illustrator 27.8.0, SVG Export Plug-In . SVG Version: 6.00 Build 0)  -->
<svg version="1.1" id="Layer_1" xmlns="http://www.w3.org/2000/svg" xmlns:xlink="http://www.w3.org/1999/xlink" x="0px" y="0px"
	 width="96px" height="96px" viewBox="0 0 96 96" enable-background="new 0 0 96 96" xml:space="preserve">
<path d="M68,83H28c-3.859,0-7-3.141-7-7V20c0-3.86,3.141-7,7-7h29.242L75,30.757V76C75,79.859,71.859,83,68,83z M28,19
	c-0.552,0-1,0.449-1,1v56c0,0.552,0.448,1,1,1h40c0.552,0,1-0.448,1-1V33.242L54.758,19H28z"/>
<polygon points="72,35 53,35 53,16 59,16 59,29 72,29 "/>
</svg>
