<?xml version="1.0" encoding="iso-8859-1"?>
<!-- Generator: Adobe Illustrator 27.8.0, SVG Export Plug-In . SVG Version: 6.00 Build 0)  -->
<svg version="1.1" id="Layer_1" xmlns="http://www.w3.org/2000/svg" xmlns:xlink="http://www.w3.org/1999/xlink" x="0px" y="0px"
	 width="96px" height="96px" viewBox="0 0 96 96" enable-background="new 0 0 96 96" xml:space="preserve">
<path d="M72,79H24c-3.86,0-7-3.141-7-7V24c0-3.86,3.14-7,7-7h48c3.859,0,7,3.14,7,7v48C79,75.859,75.859,79,72,79z M24,23
	c-0.551,0-1,0.449-1,1v48c0,0.552,0.449,1,1,1h48c0.552,0,1-0.448,1-1V24c0-0.551-0.448-1-1-1H24z"/>
<polygon points="34.121,50.121 29.879,45.879 35.758,40 29.879,34.121 34.121,29.879 44.242,40 "/>
<rect x="48" y="45" width="16" height="6"/>
</svg>
