<?xml version="1.0" encoding="iso-8859-1"?>
<!-- Generator: Adobe Illustrator 27.8.0, SVG Export Plug-In . SVG Version: 6.00 Build 0)  -->
<svg version="1.1" id="Layer_1" xmlns="http://www.w3.org/2000/svg" xmlns:xlink="http://www.w3.org/1999/xlink" x="0px" y="0px"
	 width="96px" height="96px" viewBox="0 0 96 96" enable-background="new 0 0 96 96" xml:space="preserve">
<path d="M56.241,71.377c-0.071,0-0.143-0.001-0.215-0.004c-2.093-0.087-3.874-1.428-4.536-3.414L39.444,31.82l-6.55,13.1
	C31.019,48.67,27.249,51,23.056,51H16v-6h7.056c1.906,0,3.62-1.059,4.472-2.764l7.63-15.26c0.908-1.814,2.803-2.895,4.826-2.751
	c2.025,0.144,3.748,1.481,4.39,3.407l11.978,35.934l6.814-15.899C64.9,43.617,68.869,41,73.275,41H80v6h-6.725
	c-2.003,0-3.807,1.189-4.596,3.03l-7.85,18.316C60.033,70.206,58.247,71.377,56.241,71.377z"/>
</svg>
