<?xml version="1.0" encoding="UTF-8"?>
<svg id="Layer_1" data-name="Layer 1" xmlns="http://www.w3.org/2000/svg" viewBox="0 0 72 72">
  <circle cx="36" cy="36" r="4.5" style="fill: #ed2024; opacity: .5; stroke-width: 0px;"/>
  <g style="opacity: .5;">
    <path d="M14.27,45l12.73,12.73s3.18-9.55,0-12.73-12.73,0-12.73,0Z" style="fill: #ed2024; stroke-width: 0px;"/>
    <path d="M57.73,27l-12.73-12.73s-3.18,9.55,0,12.73,12.73,0,12.73,0Z" style="fill: #ed2024; stroke-width: 0px;"/>
    <path d="M45,45c-3.18,3.18,0,12.73,0,12.73l12.73-12.73s-9.55-3.18-12.73,0Z" style="fill: #ed2024; stroke-width: 0px;"/>
    <path d="M14.27,27s9.55,3.18,12.73,0,0-12.73,0-12.73l-12.73,12.73Z" style="fill: #ed2024; stroke-width: 0px;"/>
  </g>
  <line x1="58.5" y1="13.5" x2="51.75" y2="20.25" style="fill: none; stroke: #010101; stroke-linecap: round; stroke-linejoin: round; stroke-width: 4px;"/>
  <line x1="20.64" y1="51.36" x2="13.5" y2="58.5" style="fill: none; stroke: #010101; stroke-linecap: round; stroke-linejoin: round; stroke-width: 4px;"/>
  <g>
    <path d="M14.27,45l12.73,12.73s3.18-9.55,0-12.73-12.73,0-12.73,0Z" style="fill: none; stroke: #010101; stroke-linecap: round; stroke-linejoin: round; stroke-width: 4px;"/>
    <path d="M57.73,27l-12.73-12.73s-3.18,9.55,0,12.73,12.73,0,12.73,0Z" style="fill: none; stroke: #010101; stroke-linecap: round; stroke-linejoin: round; stroke-width: 4px;"/>
    <path d="M45,45c-3.18,3.18,0,12.73,0,12.73l12.73-12.73s-9.55-3.18-12.73,0Z" style="fill: none; stroke: #010101; stroke-linecap: round; stroke-linejoin: round; stroke-width: 4px;"/>
    <path d="M14.27,27s9.55,3.18,12.73,0,0-12.73,0-12.73l-12.73,12.73Z" style="fill: none; stroke: #010101; stroke-linecap: round; stroke-linejoin: round; stroke-width: 4px;"/>
  </g>
  <line x1="13.5" y1="13.5" x2="20.64" y2="20.64" style="fill: none; stroke: #010101; stroke-linecap: round; stroke-linejoin: round; stroke-width: 4px;"/>
  <line x1="51.36" y1="51.36" x2="58.5" y2="58.5" style="fill: none; stroke: #010101; stroke-linecap: round; stroke-linejoin: round; stroke-width: 4px;"/>
  <circle cx="36" cy="36" r="4.5" style="fill: none; stroke: #010101; stroke-linecap: round; stroke-linejoin: round; stroke-width: 4px;"/>
</svg>