<?xml version="1.0" encoding="UTF-8"?>
<svg id="Layer_1" data-name="Layer 1" xmlns="http://www.w3.org/2000/svg" viewBox="0 0 72 72">
  <path d="M24.2,58.5c4.5,0,11.8-11.12,11.8-11.12H13.5s6.2,11.12,10.7,11.12Z" style="fill: #ed2024; opacity: .5; stroke-width: 0px;"/>
  <path d="M47.8,13.5c-4.5,0-11.8,11.12-11.8,11.12h22.5s-6.2-11.12-10.7-11.12Z" style="fill: #ed2024; opacity: .5; stroke-width: 0px;"/>
  <line x1="24.2" y1="13.5" x2="24.2" y2="47.38" style="fill: none; stroke: #010101; stroke-linecap: round; stroke-linejoin: round; stroke-width: 4px;"/>
  <line x1="47.8" y1="58.5" x2="47.8" y2="24.62" style="fill: none; stroke: #010101; stroke-linecap: round; stroke-linejoin: round; stroke-width: 4px;"/>
  <g>
    <path d="M24.2,58.5c4.5,0,11.8-11.12,11.8-11.12H13.5s6.2,11.12,10.7,11.12Z" style="fill: none; stroke: #010101; stroke-linecap: round; stroke-linejoin: round; stroke-width: 4px;"/>
    <path d="M47.8,13.5c-4.5,0-11.8,11.12-11.8,11.12h22.5s-6.2-11.12-10.7-11.12Z" style="fill: none; stroke: #010101; stroke-linecap: round; stroke-linejoin: round; stroke-width: 4px;"/>
  </g>
</svg>