<?xml version="1.0" encoding="UTF-8"?>
<svg id="Layer_1" data-name="Layer 1" xmlns="http://www.w3.org/2000/svg" viewBox="0 0 72 72">
  <path d="M11.75,43.57c3.18,3.18,16.2.48,16.2.48l-15.91-15.91s-3.47,12.25-.29,15.43Z" style="fill: #ed2024; opacity: .5; stroke-width: 0px;"/>
  <path d="M60.25,28.43c-3.18-3.18-16.2-.48-16.2-.48l15.91,15.91s3.47-12.25.29-15.43Z" style="fill: #ed2024; opacity: .5; stroke-width: 0px;"/>
  <line x1="43.57" y1="11.75" x2="19.61" y2="35.71" style="fill: none; stroke: #010101; stroke-linecap: round; stroke-linejoin: round; stroke-width: 4px;"/>
  <g>
    <path d="M11.75,43.57c3.18,3.18,16.2.48,16.2.48l-15.91-15.91s-3.47,12.25-.29,15.43Z" style="fill: none; stroke: #010101; stroke-linecap: round; stroke-linejoin: round; stroke-width: 4px;"/>
    <path d="M60.25,28.43c-3.18-3.18-16.2-.48-16.2-.48l15.91,15.91s3.47-12.25.29-15.43Z" style="fill: none; stroke: #010101; stroke-linecap: round; stroke-linejoin: round; stroke-width: 4px;"/>
  </g>
  <line x1="28.43" y1="60.25" x2="52.39" y2="36.29" style="fill: none; stroke: #010101; stroke-linecap: round; stroke-linejoin: round; stroke-width: 4px;"/>
</svg>