<?xml version="1.0" encoding="UTF-8"?>
<svg id="Layer_1" data-name="Layer 1" xmlns="http://www.w3.org/2000/svg" viewBox="0 0 72 72">
  <path d="M49.5,27s9-4.5,9-9-9-9-9-9" style="fill: #ed2024; opacity: .5; stroke-width: 0px;"/>
  <path d="M22.5,63s-9-4.5-9-9,9-9,9-9" style="fill: #ed2024; opacity: .5; stroke-width: 0px;"/>
  <path d="M49.5,27s9-4.5,9-9-9-9-9-9v18Z" style="fill: none; stroke: #010101; stroke-linecap: round; stroke-linejoin: round; stroke-width: 4px;"/>
  <path d="M49.5,18h-16c-11.05,0-20,8.95-20,20" style="fill: none; stroke: #010101; stroke-linecap: round; stroke-linejoin: round; stroke-width: 4px;"/>
  <path d="M22.5,63s-9-4.5-9-9,9-9,9-9v18Z" style="fill: none; stroke: #010101; stroke-linecap: round; stroke-linejoin: round; stroke-width: 4px;"/>
  <path d="M22.5,54h16c11.05,0,20-8.95,20-20" style="fill: none; stroke: #010101; stroke-linecap: round; stroke-linejoin: round; stroke-width: 4px;"/>
</svg>