<?xml version="1.0" encoding="UTF-8"?>
<svg id="Layer_1" data-name="Layer 1" xmlns="http://www.w3.org/2000/svg" viewBox="0 0 72 72">
  <g style="opacity: .5;">
    <path d="M58.5,13.5c-3.18-3.18-12.73,0-12.73,0l12.73,12.73s3.18-9.55,0-12.73Z" style="fill: #ed2024; stroke-width: 0px;"/>
    <path d="M13.5,58.5c3.18,3.18,12.73,0,12.73,0l-12.73-12.73s-3.18,9.55,0,12.73Z" style="fill: #ed2024; stroke-width: 0px;"/>
  </g>
  <g>
    <g>
      <path d="M58.5,13.5c-3.18-3.18-12.73,0-12.73,0l12.73,12.73s3.18-9.55,0-12.73Z" style="fill: none; stroke: #010101; stroke-linecap: round; stroke-linejoin: round; stroke-width: 4px;"/>
      <path d="M13.5,58.5c3.18,3.18,12.73,0,12.73,0l-12.73-12.73s-3.18,9.55,0,12.73Z" style="fill: none; stroke: #010101; stroke-linecap: round; stroke-linejoin: round; stroke-width: 4px;"/>
    </g>
    <line x1="27" y1="45" x2="20.25" y2="51.75" style="fill: none; stroke: #010101; stroke-linecap: round; stroke-linejoin: round; stroke-width: 4px;"/>
    <line x1="52.14" y1="19.86" x2="45" y2="27" style="fill: none; stroke: #010101; stroke-linecap: round; stroke-linejoin: round; stroke-width: 4px;"/>
  </g>
</svg>