<?xml version="1.0" encoding="UTF-8"?>
<svg id="Layer_1" data-name="Layer 1" xmlns="http://www.w3.org/2000/svg" viewBox="0 0 72 72">
  <g style="opacity: .5;">
    <path d="M45.77,13.5l12.73,12.73s3.18-9.55,0-12.73-12.73,0-12.73,0Z" style="fill: #ed2024; stroke-width: 0px;"/>
    <path d="M26.23,58.5l-12.73-12.73s-3.18,9.55,0,12.73,12.73,0,12.73,0Z" style="fill: #ed2024; stroke-width: 0px;"/>
  </g>
  <g>
    <line x1="27" y1="45" x2="19.86" y2="52.14" style="fill: none; stroke: #010101; stroke-linecap: round; stroke-linejoin: round; stroke-width: 4px;"/>
    <line x1="52.14" y1="19.86" x2="45" y2="27" style="fill: none; stroke: #010101; stroke-linecap: round; stroke-linejoin: round; stroke-width: 4px;"/>
  </g>
  <g>
    <path d="M45.77,13.5l12.73,12.73s3.18-9.55,0-12.73-12.73,0-12.73,0Z" style="fill: none; stroke: #010101; stroke-linecap: round; stroke-linejoin: round; stroke-width: 4px;"/>
    <path d="M26.23,58.5l-12.73-12.73s-3.18,9.55,0,12.73,12.73,0,12.73,0Z" style="fill: none; stroke: #010101; stroke-linecap: round; stroke-linejoin: round; stroke-width: 4px;"/>
  </g>
  <line x1="27" y1="27" x2="45" y2="45" style="fill: none; stroke: #010101; stroke-linecap: round; stroke-linejoin: round; stroke-width: 4px;"/>
</svg>