<?xml version="1.0" encoding="utf-8"?>
<!-- Generator: Adobe Illustrator 28.1.0, SVG Export Plug-In . SVG Version: 6.00 Build 0)  -->
<svg version="1.1" id="Layer_1" xmlns="http://www.w3.org/2000/svg" xmlns:xlink="http://www.w3.org/1999/xlink" x="0px" y="0px"
	 viewBox="0 0 72 72" style="enable-background:new 0 0 72 72;" xml:space="preserve">
<path d="M21.09,23.91L7.94,10.77c-0.2-0.2-0.2-0.51,0-0.71l2.12-2.12c0.2-0.2,0.51-0.2,0.71,0l13.15,13.15L21.09,23.91z"/>
<path d="M22.5,24.5H14c-0.28,0-0.5-0.22-0.5-0.5v-3c0-0.28,0.22-0.5,0.5-0.5h6.5V14c0-0.28,0.22-0.5,0.5-0.5h3
	c0.28,0,0.5,0.22,0.5,0.5v8.5C24.5,23.6,23.6,24.5,22.5,24.5z"/>
<path d="M10.06,64.06l-2.12-2.12c-0.2-0.2-0.2-0.51,0-0.71l13.15-13.15l2.83,2.83L10.77,64.06C10.57,64.26,10.26,64.26,10.06,64.06z
	"/>
<path d="M24,58.5h-3c-0.28,0-0.5-0.22-0.5-0.5v-6.5H14c-0.28,0-0.5-0.22-0.5-0.5v-3c0-0.28,0.22-0.5,0.5-0.5h8.5c1.1,0,2,0.9,2,2V58
	C24.5,58.28,24.28,58.5,24,58.5z"/>
<path d="M61.23,64.06L48.09,50.91l2.83-2.83l13.15,13.15c0.2,0.2,0.2,0.51,0,0.71l-2.12,2.12C61.74,64.26,61.43,64.26,61.23,64.06z"
	/>
<path d="M51,58.5h-3c-0.28,0-0.5-0.22-0.5-0.5v-8.5c0-1.1,0.9-2,2-2H58c0.28,0,0.5,0.22,0.5,0.5v3c0,0.28-0.22,0.5-0.5,0.5h-6.5V58
	C51.5,58.28,51.28,58.5,51,58.5z"/>
<path d="M50.91,23.91l-2.83-2.83L61.23,7.94c0.2-0.2,0.51-0.2,0.71,0l2.12,2.12c0.2,0.2,0.2,0.51,0,0.71L50.91,23.91z"/>
<path d="M58,24.5h-8.5c-1.1,0-2-0.9-2-2V14c0-0.28,0.22-0.5,0.5-0.5h3c0.28,0,0.5,0.22,0.5,0.5v6.5H58c0.28,0,0.5,0.22,0.5,0.5v3
	C58.5,24.28,58.28,24.5,58,24.5z"/>
<path d="M36,48c-6.62,0-12-5.38-12-12s5.38-12,12-12s12,5.38,12,12S42.62,48,36,48z M36,30c-3.31,0-6,2.69-6,6s2.69,6,6,6
	s6-2.69,6-6S39.31,30,36,30z"/>
</svg>
