<?xml version="1.0" encoding="utf-8"?>
<!-- Generator: Adobe Illustrator 28.1.0, SVG Export Plug-In . SVG Version: 6.00 Build 0)  -->
<svg version="1.1" id="Layer_1" xmlns="http://www.w3.org/2000/svg" xmlns:xlink="http://www.w3.org/1999/xlink" x="0px" y="0px"
	 viewBox="0 0 72 72" style="enable-background:new 0 0 72 72;" xml:space="preserve">
<g>
	<path d="M39.07,59.5l23.17-27.8l-9.95-14.92C51.55,15.67,50.31,15,48.96,15H23.04c-1.34,0-2.58,0.67-3.33,1.78L9.76,31.7
		l23.17,27.8c0.76,0.91,1.88,1.44,3.07,1.44S38.31,60.41,39.07,59.5z M42.12,46.47l4.32-12.97h6.49L42.12,46.47z M47.89,21l5.67,8.5
		h-7.12L43.61,21H47.89z M32.61,21h6.78l2.83,8.5H29.78L32.61,21z M24.11,21h4.29l-2.83,8.5h-7.12L24.11,21z M19.07,33.5h6.49
		l4.32,12.97L19.07,33.5z M29.78,33.5h12.45L36,52.18L29.78,33.5z"/>
</g>
</svg>
