<?xml version="1.0" encoding="utf-8"?>
<!-- Generator: Adobe Illustrator 28.1.0, SVG Export Plug-In . SVG Version: 6.00 Build 0)  -->
<svg version="1.1" id="Layer_1" xmlns="http://www.w3.org/2000/svg" xmlns:xlink="http://www.w3.org/1999/xlink" x="0px" y="0px"
	 viewBox="0 0 72 72" style="enable-background:new 0 0 72 72;" xml:space="preserve">
<path d="M62.34,54.21l-8.13,8.13c-0.39,0.39-1.02,0.39-1.41,0L9.66,19.21c-0.39-0.39-0.39-1.02,0-1.41l8.13-8.13
	c0.39-0.39,1.02-0.39,1.41,0l43.13,43.13C62.73,53.18,62.73,53.82,62.34,54.21z"/>
<path d="M54.21,9.66l8.13,8.13c0.39,0.39,0.39,1.02,0,1.41L19.21,62.34c-0.39,0.39-1.02,0.39-1.41,0l-8.13-8.13
	c-0.39-0.39-0.39-1.02,0-1.41L52.79,9.66C53.18,9.27,53.82,9.27,54.21,9.66z"/>
</svg>
