<?xml version="1.0" encoding="utf-8"?>
<!-- Generator: Adobe Illustrator 28.1.0, SVG Export Plug-In . SVG Version: 6.00 Build 0)  -->
<svg version="1.1" id="Layer_1" xmlns="http://www.w3.org/2000/svg" xmlns:xlink="http://www.w3.org/1999/xlink" x="0px" y="0px"
	 viewBox="0 0 72 72" style="enable-background:new 0 0 72 72;" xml:space="preserve">
<g>
	<path d="M66.47,48.39H16.19c-0.55,0-1.08,0.22-1.46,0.6L4.8,58.93c-0.65,0.65-0.19,1.76,0.73,1.76h50.27c0.55,0,1.08-0.22,1.46-0.6
		l9.93-9.93C67.85,49.5,67.39,48.39,66.47,48.39z"/>
	<path d="M66.47,11.31H16.19c-0.54,0-1.06,0.22-1.46,0.6L4.8,21.85c-0.65,0.65-0.19,1.76,0.73,1.76h50.27c0.55,0,1.08-0.22,1.46-0.6
		l9.93-9.93C67.85,12.42,67.39,11.31,66.47,11.31z"/>
	<path d="M57.26,30.34c-0.38-0.38-0.9-0.6-1.46-0.6H5.53c-0.92,0-1.38,1.11-0.73,1.76l9.93,9.93c0.38,0.38,0.9,0.6,1.46,0.6h50.27
		c0.92,0,1.38-1.11,0.73-1.76L57.26,30.34z"/>
</g>
</svg>
