<?xml version="1.0" encoding="utf-8"?>
<!-- Generator: Adobe Illustrator 28.1.0, SVG Export Plug-In . SVG Version: 6.00 Build 0)  -->
<svg version="1.1" id="Layer_1" xmlns="http://www.w3.org/2000/svg" xmlns:xlink="http://www.w3.org/1999/xlink" x="0px" y="0px"
	 viewBox="0 0 72 72" style="enable-background:new 0 0 72 72;" xml:space="preserve">
<path d="M35.45,65.99c-12.32-0.32-21.39-11.42-20.33-23.7C16.68,24.28,33.14,7.61,33.88,6.88l1.77-1.77c0.2-0.2,0.51-0.2,0.71,0
	l1.77,1.77C38.89,7.65,57,25.98,57,45C57,56.76,47.28,66.3,35.45,65.99z M36,13.44C31.42,18.69,21,32.05,21,45c0,8.27,6.73,15,15,15
	s15-6.73,15-15C51,32.05,40.58,18.69,36,13.44z"/>
</svg>
