<?xml version="1.0" encoding="utf-8"?>
<!-- Generator: Adobe Illustrator 28.1.0, SVG Export Plug-In . SVG Version: 6.00 Build 0)  -->
<svg version="1.1" id="Layer_1" xmlns="http://www.w3.org/2000/svg" xmlns:xlink="http://www.w3.org/1999/xlink" x="0px" y="0px"
	 viewBox="0 0 72 72" style="enable-background:new 0 0 72 72;" xml:space="preserve">
<g>
	<g>
		<path d="M52.79,62.34c0.39,0.39,1.02,0.39,1.41,0l8.13-8.13c0.39-0.39,0.39-1.02,0-1.41L45.55,36l16.79-16.79
			c0.39-0.39,0.39-1.02,0-1.41l-8.13-8.13c-0.39-0.39-1.02-0.39-1.41,0L36,26.45L19.21,9.66c-0.39-0.39-1.02-0.39-1.41,0l-8.13,8.13
			c-0.39,0.39-0.39,1.02,0,1.41L26.45,36L9.66,52.79c-0.39,0.39-0.39,1.02,0,1.41l8.13,8.13c0.39,0.39,1.02,0.39,1.41,0L36,45.55
			L52.79,62.34z"/>
	</g>
</g>
</svg>
