<?xml version="1.0" encoding="utf-8"?>
<!-- Generator: Adobe Illustrator 28.1.0, SVG Export Plug-In . SVG Version: 6.00 Build 0)  -->
<svg version="1.1" id="Layer_1" xmlns="http://www.w3.org/2000/svg" xmlns:xlink="http://www.w3.org/1999/xlink" x="0px" y="0px"
	 viewBox="0 0 72 72" style="enable-background:new 0 0 72 72;" xml:space="preserve">
<rect x="33" y="13.5" width="6" height="9"/>
<rect x="22.5" y="10.5" width="22.5" height="6"/>
<rect x="22.5" y="47.5" width="27" height="4"/>
<rect x="22.5" y="38.5" width="27" height="4"/>
<path d="M47.5,66h-23c-2.76,0-5-2.24-5-5V33.5c0-2.76,2.24-5,5-5h23c2.76,0,5,2.24,5,5V61C52.5,63.76,50.26,66,47.5,66z M25.5,60h21
	V34.5h-21V60z"/>
<path d="M48,31.5h-6c0-3.31-2.69-6-6-6s-6,2.69-6,6h-6c0-6.62,5.38-12,12-12S48,24.88,48,31.5z"/>
</svg>
