<?xml version="1.0" encoding="utf-8"?>
<!-- Generator: Adobe Illustrator 28.1.0, SVG Export Plug-In . SVG Version: 6.00 Build 0)  -->
<svg version="1.1" id="Layer_1" xmlns="http://www.w3.org/2000/svg" xmlns:xlink="http://www.w3.org/1999/xlink" x="0px" y="0px"
	 viewBox="0 0 72 72" style="enable-background:new 0 0 72 72;" xml:space="preserve">
<path d="M61.81,40.24C60.67,41.37,59.17,42,57.57,42c-1.6,0-3.11-0.62-4.24-1.76C52.2,39.1,51.57,37.6,51.57,36
	c0-1.6,0.62-3.11,1.76-4.24c1.14-1.14,2.64-1.76,4.24-1.76c1.6,0,3.11,0.62,4.23,1.75c1.17,1.18,3.07,1.18,4.24,0.01
	c1.17-1.17,1.18-3.07,0.01-4.24C63.8,25.25,60.78,24,57.57,24c-3.2,0-6.21,1.25-8.48,3.51c-2.27,2.26-3.52,5.27-3.52,8.49
	c0,0.01,0,0.01,0,0.02c-0.36-0.48-0.77-0.92-1.23-1.3c0.47-0.98,0.73-2.07,0.73-3.22c0-4.14-3.36-7.5-7.5-7.5h-7c-1.66,0-3,1.34-3,3
	v14.29l-7.82-15.63C19.25,24.64,18.21,24,17.07,24s-2.18,0.64-2.68,1.66l-9,18c-0.74,1.48-0.14,3.28,1.34,4.03
	c1.48,0.74,3.28,0.14,4.02-1.34l1.42-2.84h9.79l1.42,2.84c0.53,1.05,1.58,1.66,2.69,1.66c0.45,0,0.91-0.1,1.34-0.32
	c0.36-0.18,0.67-0.42,0.91-0.71C28.88,47.6,29.67,48,30.57,48h9c3.75,0,6.85-2.77,7.4-6.36c0.55,1.03,1.26,1.99,2.11,2.84
	c2.26,2.27,5.27,3.53,8.49,3.53c3.2,0,6.21-1.25,8.48-3.52c1.17-1.17,1.17-3.07,0-4.24C64.88,39.07,62.98,39.07,61.81,40.24z
	 M15.17,37.5l1.9-3.79l1.9,3.79H15.17z M37.57,30c0.83,0,1.5,0.67,1.5,1.5S38.4,33,37.57,33h-4v-3H37.57z M39.57,42h-6v-3h4h2
	c0.83,0,1.5,0.67,1.5,1.5S40.4,42,39.57,42z"/>
</svg>
