<?xml version="1.0" encoding="utf-8"?>
<!-- Generator: Adobe Illustrator 28.1.0, SVG Export Plug-In . SVG Version: 6.00 Build 0)  -->
<svg version="1.1" id="Layer_1" xmlns="http://www.w3.org/2000/svg" xmlns:xlink="http://www.w3.org/1999/xlink" x="0px" y="0px"
	 viewBox="0 0 72 72" style="enable-background:new 0 0 72 72;" xml:space="preserve">
<g>
	<path d="M49.03,27.21l3.58-3.58c0.2-0.2,0.2-0.51,0-0.71l-3.54-3.54c-0.2-0.2-0.51-0.2-0.71,0l-3.58,3.58
		c-1.72-1.16-3.68-1.99-5.79-2.4V15.5c0-0.28-0.22-0.5-0.5-0.5h-5c-0.28,0-0.5,0.22-0.5,0.5v5.07c-2.11,0.41-4.07,1.23-5.79,2.4
		l-3.58-3.58c-0.2-0.2-0.51-0.2-0.71,0l-3.54,3.54c-0.2,0.2-0.2,0.51,0,0.71l3.58,3.58c-1.16,1.72-1.99,3.68-2.4,5.79H15.5
		c-0.28,0-0.5,0.22-0.5,0.5v5c0,0.28,0.22,0.5,0.5,0.5h5.07c0.41,2.11,1.23,4.07,2.4,5.79l-3.58,3.58c-0.2,0.2-0.2,0.51,0,0.71
		l3.54,3.54c0.2,0.2,0.51,0.2,0.71,0l3.58-3.58c1.72,1.16,3.68,1.99,5.79,2.4v5.07c0,0.28,0.22,0.5,0.5,0.5h5
		c0.28,0,0.5-0.22,0.5-0.5v-5.07c2.11-0.41,4.07-1.23,5.79-2.4l3.58,3.58c0.2,0.2,0.51,0.2,0.71,0l3.54-3.54
		c0.2-0.2,0.2-0.51,0-0.71l-3.58-3.58c1.16-1.72,1.99-3.68,2.4-5.79h5.07c0.28,0,0.5-0.22,0.5-0.5v-5c0-0.28-0.22-0.5-0.5-0.5h-5.07
		C51.02,30.89,50.2,28.93,49.03,27.21z M36,45.73c-5.36,0-9.73-4.36-9.73-9.73s4.36-9.73,9.73-9.73s9.73,4.36,9.73,9.73
		S41.36,45.73,36,45.73z"/>
</g>
</svg>
