<?xml version="1.0" encoding="utf-8"?>
<!-- Generator: Adobe Illustrator 28.1.0, SVG Export Plug-In . SVG Version: 6.00 Build 0)  -->
<svg version="1.1" id="Layer_1" xmlns="http://www.w3.org/2000/svg" xmlns:xlink="http://www.w3.org/1999/xlink" x="0px" y="0px"
	 viewBox="0 0 72 72" style="enable-background:new 0 0 72 72;" xml:space="preserve">
<g>
	<g>
		<path d="M46.5,29.5h-21c-0.28,0-0.5,0.22-0.5,0.5v3c0,0.28,0.22,0.5,0.5,0.5h21c0.28,0,0.5-0.22,0.5-0.5v-3
			C47,29.72,46.78,29.5,46.5,29.5z"/>
	</g>
	<g>
		<path d="M46.5,38.5h-21c-0.28,0-0.5,0.22-0.5,0.5v3c0,0.28,0.22,0.5,0.5,0.5h21c0.28,0,0.5-0.22,0.5-0.5v-3
			C47,38.72,46.78,38.5,46.5,38.5z"/>
	</g>
	<g>
		<path d="M46.5,47.5h-21c-0.28,0-0.5,0.22-0.5,0.5v3c0,0.28,0.22,0.5,0.5,0.5h21c0.28,0,0.5-0.22,0.5-0.5v-3
			C47,47.72,46.78,47.5,46.5,47.5z"/>
	</g>
	<g>
		<path d="M54.5,10.5h-3V7h-4v3.5h-5V7h-4v3.5h-5V7h-4v3.5h-5V7h-4v3.5h-3c-3.86,0-7,3.14-7,7V59c0,3.86,3.14,7,7,7h37
			c3.86,0,7-3.14,7-7V17.5C61.5,13.64,58.36,10.5,54.5,10.5z M55.5,59c0,0.55-0.45,1-1,1h-37c-0.55,0-1-0.45-1-1V17.5
			c0-0.55,0.45-1,1-1h3V20h4v-3.5h5V20h4v-3.5h5V20h4v-3.5h5V20h4v-3.5h3c0.55,0,1,0.45,1,1V59z"/>
	</g>
</g>
</svg>
