<?xml version="1.0" encoding="utf-8"?>
<!-- Generator: Adobe Illustrator 28.1.0, SVG Export Plug-In . SVG Version: 6.00 Build 0)  -->
<svg version="1.1" id="Layer_1" xmlns="http://www.w3.org/2000/svg" xmlns:xlink="http://www.w3.org/1999/xlink" x="0px" y="0px"
	 viewBox="0 0 72 72" style="enable-background:new 0 0 72 72;" xml:space="preserve">
<g>
	<path d="M50,28.5h-5.25v-6c0-1.1-0.9-2-2-2h-13.5c-1.1,0-2,0.9-2,2v6H22c-3.86,0-7,3.14-7,7V50c0,3.86,3.14,7,7,7h28
		c3.86,0,7-3.14,7-7V35.5C57,31.64,53.86,28.5,50,28.5z M31.25,24.5h9.5v4h-9.5V24.5z M51,50c0,0.55-0.45,1-1,1H22
		c-0.55,0-1-0.45-1-1V35.5c0-0.55,0.45-1,1-1h28c0.55,0,1,0.45,1,1V50z"/>
	<path d="M59,7H13c-3.31,0-6,2.69-6,6v46c0,3.31,2.69,6,6,6h46c3.31,0,6-2.69,6-6V13C65,9.69,62.31,7,59,7z M61,59c0,1.1-0.9,2-2,2
		H13c-1.1,0-2-0.9-2-2V13c0-1.1,0.9-2,2-2h46c1.1,0,2,0.9,2,2V59z"/>
</g>
</svg>
