<?xml version="1.0" encoding="utf-8"?>
<!-- Generator: Adobe Illustrator 28.1.0, SVG Export Plug-In . SVG Version: 6.00 Build 0)  -->
<svg version="1.1" id="Layer_1" xmlns="http://www.w3.org/2000/svg" xmlns:xlink="http://www.w3.org/1999/xlink" x="0px" y="0px"
	 viewBox="0 0 72 72" style="enable-background:new 0 0 72 72;" xml:space="preserve">
<g>
	<g>
		<path d="M16,36.5v8c0,0.28,0.22,0.5,0.5,0.5H20v-9h-3.5C16.22,36,16,36.22,16,36.5z"/>
	</g>
	<g>
		<path d="M12.36,10.72l44.33,48.76c0.19,0.2,0.5,0.22,0.71,0.03l2.22-2.02c0.2-0.19,0.22-0.5,0.03-0.71L15.32,8.02
			c-0.19-0.2-0.5-0.22-0.71-0.03l-2.22,2.02C12.19,10.19,12.17,10.51,12.36,10.72z"/>
	</g>
	<g>
		<path d="M29.71,18.9l3,3.29c2.01-0.75,3.58-1.89,4.68-3.41c2.36-3.28,1.69-7.21,1.35-8.6c-0.07-0.28-0.36-0.44-0.64-0.35
			l-2.86,0.94c-0.24,0.08-0.39,0.32-0.33,0.57c0.21,0.95,0.54,3.31-0.77,5.11C33.27,17.65,31.76,18.46,29.71,18.9z"/>
	</g>
	<g>
		<path d="M17.24,21.03c-1.31,0.7-2.37,1.62-3.18,2.74c-2.36,3.28-1.69,7.21-1.35,8.6c0.07,0.28,0.36,0.44,0.64,0.35l2.86-0.94
			c0.24-0.08,0.39-0.32,0.33-0.57c-0.21-0.95-0.54-3.31,0.77-5.11c0.61-0.83,1.54-1.47,2.76-1.94L17.24,21.03z"/>
	</g>
	<g>
		<path d="M58.5,44.5v-8c0-0.28-0.22-0.5-0.5-0.5H45.25l8.18,9H58C58.28,45,58.5,44.78,58.5,44.5z"/>
	</g>
	<g>
		<polygon points="22.5,45 39.02,45 30.84,36 22.5,36 		"/>
	</g>
</g>
</svg>
