<?xml version="1.0" encoding="utf-8"?>
<!-- Generator: Adobe Illustrator 28.1.0, SVG Export Plug-In . SVG Version: 6.00 Build 0)  -->
<svg version="1.1" id="Layer_1" xmlns="http://www.w3.org/2000/svg" xmlns:xlink="http://www.w3.org/1999/xlink" x="0px" y="0px"
	 viewBox="0 0 72 72" style="enable-background:new 0 0 72 72;" xml:space="preserve">
<g>
	<path d="M25.93,57h2.57v10c0,0.28,0.22,0.5,0.5,0.5h5c0.28,0,0.5-0.22,0.5-0.5V57h3v10c0,0.28,0.22,0.5,0.5,0.5h5
		c0.28,0,0.5-0.22,0.5-0.5V57h2.57c1.18,0,2.29-0.52,3.05-1.41s1.09-2.08,0.89-3.24l-3.2-19.18c-0.43-2.58-1.73-4.81-3.56-6.43
		c1.55-1.73,2.49-4,2.49-6.49c0-5.38-4.37-9.75-9.75-9.75s-9.75,4.37-9.75,9.75c0,2.49,0.95,4.76,2.49,6.49
		c-1.83,1.62-3.13,3.85-3.56,6.43l-3.2,19.18c-0.19,1.16,0.13,2.34,0.89,3.24S24.75,57,25.93,57z M36,16.5
		c2.07,0,3.75,1.68,3.75,3.75S38.07,24,36,24s-3.75-1.68-3.75-3.75S33.93,16.5,36,16.5z M31.1,34.15C31.5,31.75,33.56,30,36,30
		s4.5,1.75,4.9,4.15L43.71,51H28.29L31.1,34.15z"/>
</g>
</svg>
