<?xml version="1.0" encoding="utf-8"?>
<!-- Generator: Adobe Illustrator 28.1.0, SVG Export Plug-In . SVG Version: 6.00 Build 0)  -->
<svg version="1.1" id="Layer_1" xmlns="http://www.w3.org/2000/svg" xmlns:xlink="http://www.w3.org/1999/xlink" x="0px" y="0px"
	 viewBox="0 0 72 72" style="enable-background:new 0 0 72 72;" xml:space="preserve">
<g>
	<path d="M51.5,63h5c0.28,0,0.5-0.22,0.5-0.5V10.35c0-1.84-1.27-3.53-3.23-3.93c-0.75-0.15-1.52-0.05-2.23,0.21
		c-3,1.09-9.53,4.99-9.53,18.13c0,10.81,5.82,15.72,9,17.6V62.5C51,62.78,51.22,63,51.5,63z M48,24.75c0-5.76,1.5-8.91,3-10.63
		v20.41C49.43,32.55,48,29.46,48,24.75z"/>
	<path d="M19.5,7.77h-3C16.22,7.77,16,8,16,8.27v13.5c0,3.31,2.69,6,6,6h2V62.5c0,0.28,0.22,0.5,0.5,0.5h5c0.28,0,0.5-0.22,0.5-0.5
		V27.77h2c3.31,0,6-2.69,6-6V8.27c0-0.28-0.22-0.5-0.5-0.5h-3C34.22,7.77,34,8,34,8.27v13.5c0,1.1-0.9,2-2,2V8.27
		c0-0.28-0.22-0.5-0.5-0.5h-3C28.22,7.77,28,8,28,8.27v15.5h-2V8.27c0-0.28-0.22-0.5-0.5-0.5h-3C22.22,7.77,22,8,22,8.27v15.5
		c-1.1,0-2-0.9-2-2V8.27C20,8,19.78,7.77,19.5,7.77z"/>
</g>
</svg>
