<?xml version="1.0" encoding="utf-8"?>
<!-- Generator: Adobe Illustrator 28.1.0, SVG Export Plug-In . SVG Version: 6.00 Build 0)  -->
<svg version="1.1" id="Layer_1" xmlns="http://www.w3.org/2000/svg" xmlns:xlink="http://www.w3.org/1999/xlink" x="0px" y="0px"
	 viewBox="0 0 72 72" style="enable-background:new 0 0 72 72;" xml:space="preserve">
<g>
	<path d="M9,66h54c1.66,0,3-1.34,3-3V9c0-1.66-1.34-3-3-3H9C7.34,6,6,7.34,6,9v54C6,64.66,7.34,66,9,66z M56,12h4v4h-4V12z M56,20h4
		v5h-4V20z M56,29h4v5h-4V29z M56,38h4v5h-4V38z M56,47h4v5h-4V47z M56,56h4v4h-4V56z M20,12h32v22H20V12z M20,38h32v22H20V38z
		 M12,12h4v4h-4V12z M12,20h4v5h-4V20z M12,29h4v5h-4V29z M12,38h4v5h-4V38z M12,47h4v5h-4V47z M12,56h4v4h-4V56z"/>
</g>
</svg>
