<?xml version="1.0" encoding="utf-8"?>
<!-- Generator: Adobe Illustrator 28.1.0, SVG Export Plug-In . SVG Version: 6.00 Build 0)  -->
<svg version="1.1" id="Layer_1" xmlns="http://www.w3.org/2000/svg" xmlns:xlink="http://www.w3.org/1999/xlink" x="0px" y="0px"
	 viewBox="0 0 72 72" style="enable-background:new 0 0 72 72;" xml:space="preserve">
<g>
	<g>
		<path d="M53.65,14.11L36,31.76L18.35,14.11c-0.2-0.2-0.51-0.2-0.71,0l-3.54,3.54c-0.2,0.2-0.2,0.51,0,0.71L31.76,36L14.11,53.65
			c-0.2,0.2-0.2,0.51,0,0.71l3.54,3.54c0.2,0.2,0.51,0.2,0.71,0L36,40.24l17.65,17.65c0.2,0.2,0.51,0.2,0.71,0l3.54-3.54
			c0.2-0.2,0.2-0.51,0-0.71L40.24,36l17.65-17.65c0.2-0.2,0.2-0.51,0-0.71l-3.54-3.54C54.16,13.92,53.84,13.92,53.65,14.11z"/>
	</g>
</g>
</svg>
