<?xml version="1.0" encoding="utf-8"?>
<!-- Generator: Adobe Illustrator 28.1.0, SVG Export Plug-In . SVG Version: 6.00 Build 0)  -->
<svg version="1.1" id="Layer_1" xmlns="http://www.w3.org/2000/svg" xmlns:xlink="http://www.w3.org/1999/xlink" x="0px" y="0px"
	 viewBox="0 0 72 72" style="enable-background:new 0 0 72 72;" xml:space="preserve">
<g>
	<g>
		<path d="M61,24H48.5c-0.28,0-0.5-0.22-0.5-0.5V11c0-0.28-0.22-0.5-0.5-0.5h-23c-0.28,0-0.5,0.22-0.5,0.5v12.5
			c0,0.28-0.22,0.5-0.5,0.5H11c-0.28,0-0.5,0.22-0.5,0.5v23c0,0.28,0.22,0.5,0.5,0.5h12.5c0.28,0,0.5,0.22,0.5,0.5V61
			c0,0.28,0.22,0.5,0.5,0.5h23c0.28,0,0.5-0.22,0.5-0.5V48.5c0-0.28,0.22-0.5,0.5-0.5H61c0.28,0,0.5-0.22,0.5-0.5v-23
			C61.5,24.22,61.28,24,61,24z M55.5,41.5c0,0.28-0.22,0.5-0.5,0.5H42.5c-0.28,0-0.5,0.22-0.5,0.5V55c0,0.28-0.22,0.5-0.5,0.5h-11
			c-0.28,0-0.5-0.22-0.5-0.5V42.5c0-0.28-0.22-0.5-0.5-0.5H17c-0.28,0-0.5-0.22-0.5-0.5v-11c0-0.28,0.22-0.5,0.5-0.5h12.5
			c0.28,0,0.5-0.22,0.5-0.5V17c0-0.28,0.22-0.5,0.5-0.5h11c0.28,0,0.5,0.22,0.5,0.5v12.5c0,0.28,0.22,0.5,0.5,0.5H55
			c0.28,0,0.5,0.22,0.5,0.5V41.5z"/>
	</g>
</g>
</svg>
