<?xml version="1.0" encoding="utf-8"?>
<!-- Generator: Adobe Illustrator 28.1.0, SVG Export Plug-In . SVG Version: 6.00 Build 0)  -->
<svg version="1.1" id="Layer_1" xmlns="http://www.w3.org/2000/svg" xmlns:xlink="http://www.w3.org/1999/xlink" x="0px" y="0px"
	 viewBox="0 0 72 72" style="enable-background:new 0 0 72 72;" xml:space="preserve">
<path d="M36,66C19.46,66,6,52.54,6,36S19.46,6,36,6s30,13.46,30,30S52.54,66,36,66z M36,12c-13.23,0-24,10.77-24,24s10.77,24,24,24
	s24-10.77,24-24S49.23,12,36,12z"/>
<path d="M36.33,49.57L23.11,36.35c-0.2-0.2-0.2-0.51,0-0.71l3.54-3.54c0.2-0.2,0.51-0.2,0.71,0l7.82,7.82l8.26-16.51
	c0.12-0.25,0.42-0.35,0.67-0.22l4.47,2.24c0.25,0.12,0.35,0.42,0.22,0.67L37.13,49.44C36.98,49.75,36.57,49.82,36.33,49.57z"/>
</svg>
