<?xml version="1.0" encoding="utf-8"?>
<!-- Generator: Adobe Illustrator 28.1.0, SVG Export Plug-In . SVG Version: 6.00 Build 0)  -->
<svg version="1.1" id="Layer_1" xmlns="http://www.w3.org/2000/svg" xmlns:xlink="http://www.w3.org/1999/xlink" x="0px" y="0px"
	 viewBox="0 0 72 72" style="enable-background:new 0 0 72 72;" xml:space="preserve">
<g>
	<path d="M66,59V13c0-3.86-3.14-7-7-7H13c-3.86,0-7,3.14-7,7v46c0,3.86,3.14,7,7,7h46C62.86,66,66,62.86,66,59z M59,60H47V47h13v12
		C60,59.55,59.55,60,59,60z M29,29h14v14H29V29z M25,43H12V29h13V43z M29,25V12h14v13H29z M47,29h13v14H47V29z M43,47v13H29V47H43z
		 M60,13v12H47V12h12C59.55,12,60,12.45,60,13z M13,12h12v13H12V13C12,12.45,12.45,12,13,12z M12,59V47h13v13H13
		C12.45,60,12,59.55,12,59z"/>
</g>
</svg>
