<?xml version="1.0" encoding="utf-8"?>
<!-- Generator: Adobe Illustrator 28.1.0, SVG Export Plug-In . SVG Version: 6.00 Build 0)  -->
<svg version="1.1" id="Layer_1" xmlns="http://www.w3.org/2000/svg" xmlns:xlink="http://www.w3.org/1999/xlink" x="0px" y="0px"
	 viewBox="0 0 72 72" style="enable-background:new 0 0 72 72;" xml:space="preserve">
<path d="M58.22,52.53L45.75,30.7V16.39C47.04,16.06,48,14.9,48,13.5c0-1.66-1.34-3-3-3h-2.25h-13.5H27c-1.66,0-3,1.34-3,3
	c0,1.4,0.96,2.56,2.25,2.89V30.7L13.78,52.53c-1.61,2.82-1.6,6.17,0.02,8.98c1.63,2.81,4.54,4.49,7.79,4.49h28.82
	c3.25,0,6.16-1.68,7.79-4.49C59.83,58.7,59.84,55.35,58.22,52.53z M39.75,16.5v15c0,0.52,0.14,1.04,0.4,1.49l6.59,11.52
	c-2.15,0.6-5.56,0.84-9.84-1.3c-3.76-1.88-7.05-2.29-9.69-2.09l4.65-8.13c0.26-0.45,0.4-0.97,0.4-1.49v-15H39.75z M53.01,58.5
	c-0.26,0.45-1.04,1.5-2.6,1.5H21.59c-1.56,0-2.34-1.05-2.6-1.5c-0.26-0.45-0.78-1.64-0.01-3l5.6-9.81
	c2.07-0.73,5.75-1.29,10.52,1.09c3.21,1.6,6.08,2.14,8.49,2.14c2.09,0,3.83-0.4,5.16-0.88l4.26,7.45
	C53.79,56.86,53.27,58.05,53.01,58.5z"/>
</svg>
