<?xml version="1.0" encoding="utf-8"?>
<!-- Generator: Adobe Illustrator 28.1.0, SVG Export Plug-In . SVG Version: 6.00 Build 0)  -->
<svg version="1.1" id="Layer_1" xmlns="http://www.w3.org/2000/svg" xmlns:xlink="http://www.w3.org/1999/xlink" x="0px" y="0px"
	 viewBox="0 0 72 72" style="enable-background:new 0 0 72 72;" xml:space="preserve">
<path d="M60.7,14.33L45,10.41l-18,4.5l-12.3-3.08l0,0c-2.11-0.53-4.29-0.06-6,1.28C6.98,14.44,6,16.45,6,18.62v32.26
	c0,3.21,2.18,6,5.3,6.79L27,61.59l18-4.5l12.3,3.07c2.1,0.53,4.29,0.06,6-1.28c1.71-1.34,2.69-3.35,2.69-5.51V21.12
	C66,17.91,63.82,15.12,60.7,14.33z M29,20.59l14-3.5v34.32l-14,3.5V20.59z M12,50.88V18.62c0-0.42,0.24-0.67,0.39-0.79
	c0.11-0.09,0.33-0.21,0.61-0.21c0.08,0,0.16,0.01,0.25,0.03L25,20.59v34.32l-12.23-3.06C12.31,51.74,12,51.34,12,50.88z M60,53.37
	c0,0.42-0.24,0.67-0.39,0.79c-0.14,0.11-0.45,0.29-0.86,0.18L47,51.41V17.09l12.23,3.06c0.45,0.11,0.77,0.51,0.77,0.97V53.37z"/>
</svg>
