<?xml version="1.0" encoding="utf-8"?>
<!-- Generator: Adobe Illustrator 28.1.0, SVG Export Plug-In . SVG Version: 6.00 Build 0)  -->
<svg version="1.1" id="Layer_1" xmlns="http://www.w3.org/2000/svg" xmlns:xlink="http://www.w3.org/1999/xlink" x="0px" y="0px"
	 viewBox="0 0 72 72" style="enable-background:new 0 0 72 72;" xml:space="preserve">
<path d="M18,21c-0.79,0-1.56-0.32-2.12-0.88C15.32,19.56,15,18.79,15,18s0.32-1.56,0.88-2.12c1.12-1.12,3.13-1.12,4.24,0
	C20.68,16.44,21,17.21,21,18s-0.32,1.56-0.88,2.12C19.56,20.68,18.79,21,18,21z"/>
<path d="M27,21c-0.79,0-1.56-0.32-2.12-0.88C24.32,19.56,24,18.79,24,18c0-0.19,0.02-0.39,0.06-0.59c0.04-0.19,0.09-0.38,0.17-0.56
	c0.08-0.18,0.17-0.35,0.28-0.52c0.11-0.16,0.23-0.31,0.37-0.45c1.12-1.12,3.13-1.12,4.24,0c0.14,0.14,0.27,0.29,0.37,0.45
	c0.11,0.17,0.21,0.34,0.28,0.52c0.08,0.18,0.13,0.37,0.17,0.56C29.98,17.61,30,17.81,30,18c0,0.79-0.32,1.56-0.88,2.12
	C28.56,20.68,27.79,21,27,21z"/>
<path d="M18,30c-0.79,0-1.56-0.32-2.12-0.88C15.32,28.56,15,27.79,15,27s0.32-1.56,0.88-2.12c1.12-1.12,3.13-1.12,4.24,0
	C20.68,25.44,21,26.21,21,27s-0.32,1.56-0.88,2.12C19.56,29.68,18.79,30,18,30z"/>
<path d="M27,30c-0.79,0-1.56-0.32-2.12-0.88c-0.14-0.14-0.26-0.29-0.37-0.45c-0.11-0.17-0.2-0.34-0.28-0.52
	c-0.08-0.18-0.13-0.37-0.17-0.56C24.02,27.39,24,27.2,24,27c0-0.79,0.32-1.56,0.88-2.12c1.12-1.12,3.13-1.12,4.24,0
	C29.68,25.44,30,26.21,30,27c0,0.2-0.02,0.39-0.06,0.59c-0.04,0.19-0.09,0.38-0.17,0.56c-0.07,0.18-0.17,0.35-0.28,0.52
	c-0.1,0.16-0.23,0.31-0.37,0.45C28.56,29.68,27.79,30,27,30z"/>
<path d="M18,39c-0.2,0-0.39-0.02-0.59-0.06c-0.19-0.04-0.38-0.09-0.56-0.17c-0.18-0.07-0.35-0.17-0.52-0.28
	c-0.16-0.1-0.31-0.23-0.45-0.37C15.32,37.56,15,36.79,15,36s0.32-1.56,0.88-2.12c1.12-1.12,3.12-1.12,4.24,0
	C20.68,34.44,21,35.21,21,36s-0.32,1.56-0.88,2.12C19.56,38.68,18.79,39,18,39z"/>
<path d="M27,39c-0.79,0-1.56-0.32-2.12-0.88c-0.14-0.14-0.26-0.29-0.37-0.45c-0.11-0.17-0.2-0.34-0.28-0.52
	c-0.08-0.18-0.13-0.37-0.17-0.56C24.02,36.39,24,36.2,24,36c0-0.79,0.32-1.56,0.88-2.12c0.14-0.14,0.29-0.26,0.46-0.37
	c0.16-0.11,0.33-0.2,0.51-0.28c0.18-0.08,0.37-0.13,0.56-0.17c0.39-0.08,0.79-0.08,1.18,0c0.19,0.04,0.38,0.09,0.56,0.17
	c0.18,0.08,0.35,0.17,0.52,0.28c0.16,0.11,0.31,0.23,0.45,0.37C29.68,34.44,30,35.21,30,36c0,0.2-0.02,0.39-0.06,0.59
	c-0.04,0.19-0.09,0.38-0.17,0.56c-0.07,0.18-0.17,0.35-0.28,0.52c-0.1,0.16-0.23,0.31-0.37,0.45C28.56,38.68,27.79,39,27,39z"/>
<path d="M18,48c-0.79,0-1.56-0.32-2.12-0.88C15.32,46.56,15,45.79,15,45s0.32-1.56,0.88-2.12c1.12-1.12,3.13-1.12,4.24,0
	C20.68,43.44,21,44.21,21,45s-0.32,1.56-0.88,2.12C19.56,47.68,18.79,48,18,48z"/>
<path d="M27,48c-0.79,0-1.56-0.32-2.12-0.88C24.32,46.56,24,45.79,24,45s0.32-1.56,0.88-2.12c1.11-1.12,3.13-1.12,4.24,0
	C29.68,43.44,30,44.21,30,45s-0.32,1.56-0.88,2.12C28.56,47.68,27.79,48,27,48z"/>
<path d="M18,57c-0.79,0-1.56-0.32-2.12-0.88C15.32,55.56,15,54.79,15,54s0.32-1.56,0.88-2.12c1.12-1.12,3.13-1.12,4.24,0
	C20.68,52.44,21,53.21,21,54s-0.32,1.56-0.88,2.12C19.56,56.68,18.79,57,18,57z"/>
<path d="M27,57c-0.79,0-1.56-0.32-2.12-0.88C24.32,55.57,24,54.79,24,54c0-0.19,0.02-0.39,0.06-0.59c0.04-0.19,0.09-0.38,0.17-0.56
	c0.08-0.18,0.17-0.35,0.28-0.51c0.11-0.17,0.23-0.32,0.37-0.46c1.12-1.12,3.13-1.12,4.24,0c0.14,0.14,0.27,0.29,0.37,0.46
	c0.11,0.16,0.21,0.33,0.28,0.51c0.08,0.18,0.13,0.37,0.17,0.56C29.98,53.61,30,53.81,30,54c0,0.79-0.32,1.57-0.88,2.12
	C28.56,56.68,27.79,57,27,57z"/>
<path d="M45,57c-0.19,0-0.39-0.02-0.59-0.06c-0.19-0.04-0.38-0.09-0.56-0.17c-0.18-0.07-0.35-0.17-0.51-0.27
	c-0.17-0.11-0.32-0.24-0.46-0.38c-0.14-0.14-0.27-0.29-0.37-0.45c-0.11-0.17-0.21-0.34-0.28-0.52c-0.08-0.18-0.13-0.37-0.17-0.56
	C42.02,54.39,42,54.2,42,54c0-0.79,0.32-1.56,0.88-2.12c0.14-0.14,0.29-0.26,0.46-0.37c0.16-0.11,0.33-0.2,0.51-0.28
	c0.18-0.08,0.37-0.13,0.56-0.17c0.98-0.2,2.01,0.12,2.71,0.82C47.68,52.44,48,53.21,48,54c0,0.2-0.02,0.39-0.06,0.59
	c-0.04,0.19-0.09,0.38-0.17,0.56c-0.07,0.18-0.17,0.35-0.28,0.52c-0.1,0.16-0.23,0.31-0.37,0.45C46.56,56.68,45.79,57,45,57z"/>
<path d="M54,57c-0.19,0-0.39-0.02-0.59-0.06c-0.19-0.04-0.38-0.09-0.56-0.17c-0.18-0.07-0.35-0.17-0.51-0.27
	c-0.17-0.11-0.32-0.24-0.46-0.38c-0.14-0.14-0.26-0.29-0.37-0.45c-0.11-0.17-0.2-0.34-0.28-0.52c-0.08-0.18-0.13-0.37-0.17-0.56
	C51.02,54.39,51,54.2,51,54c0-0.2,0.02-0.39,0.06-0.59c0.04-0.19,0.09-0.38,0.17-0.56c0.08-0.18,0.17-0.35,0.28-0.51
	c0.11-0.17,0.23-0.32,0.37-0.46s0.29-0.27,0.46-0.37c0.16-0.11,0.33-0.2,0.51-0.28c0.18-0.07,0.37-0.13,0.56-0.17
	c0.98-0.2,2.02,0.12,2.71,0.82c0.14,0.14,0.27,0.29,0.37,0.46c0.11,0.16,0.21,0.33,0.28,0.51c0.08,0.18,0.13,0.37,0.17,0.56
	C56.98,53.61,57,53.8,57,54c0,0.2-0.02,0.39-0.06,0.59c-0.04,0.19-0.09,0.38-0.17,0.56c-0.07,0.18-0.17,0.35-0.28,0.52
	c-0.1,0.16-0.23,0.31-0.37,0.45C55.57,56.68,54.79,57,54,57z"/>
<path d="M45,48c-0.19,0-0.39-0.02-0.59-0.06c-0.19-0.04-0.38-0.09-0.56-0.17c-0.18-0.07-0.35-0.17-0.51-0.27
	c-0.17-0.11-0.32-0.24-0.46-0.38C42.32,46.56,42,45.79,42,45s0.32-1.56,0.88-2.12c0.14-0.14,0.29-0.26,0.46-0.37
	c0.16-0.11,0.33-0.21,0.51-0.28c0.18-0.08,0.37-0.13,0.56-0.17c0.98-0.2,2.01,0.12,2.71,0.82C47.68,43.44,48,44.21,48,45
	s-0.32,1.56-0.88,2.12C46.56,47.68,45.79,48,45,48z"/>
<path d="M54,48c-0.19,0-0.39-0.02-0.59-0.06c-0.19-0.04-0.38-0.09-0.56-0.17c-0.18-0.07-0.35-0.17-0.51-0.28
	c-0.17-0.1-0.32-0.23-0.46-0.37c-0.14-0.14-0.26-0.29-0.37-0.45c-0.11-0.17-0.2-0.34-0.28-0.52c-0.08-0.18-0.13-0.37-0.17-0.56
	C51.02,45.39,51,45.2,51,45c0-0.19,0.02-0.39,0.06-0.59c0.04-0.19,0.09-0.38,0.17-0.56c0.08-0.18,0.17-0.35,0.28-0.51
	c0.11-0.17,0.23-0.32,0.37-0.46s0.29-0.27,0.46-0.37c0.16-0.11,0.33-0.2,0.51-0.28c0.18-0.07,0.37-0.13,0.56-0.17
	c0.98-0.2,2.02,0.12,2.71,0.82c0.14,0.14,0.27,0.29,0.37,0.46c0.11,0.16,0.21,0.33,0.28,0.51c0.08,0.18,0.13,0.37,0.17,0.56
	C56.98,44.61,57,44.81,57,45c0,0.2-0.02,0.39-0.06,0.59c-0.04,0.19-0.09,0.38-0.17,0.56c-0.07,0.18-0.17,0.35-0.28,0.52
	c-0.1,0.16-0.23,0.31-0.37,0.45C55.57,47.68,54.79,48,54,48z"/>
<path d="M45,39c-0.19,0-0.39-0.02-0.59-0.06c-0.19-0.04-0.38-0.09-0.56-0.17c-0.18-0.07-0.35-0.17-0.51-0.28
	c-0.17-0.1-0.32-0.23-0.46-0.37C42.32,37.56,42,36.79,42,36c0-0.19,0.02-0.39,0.06-0.59c0.04-0.19,0.09-0.38,0.17-0.56
	c0.07-0.18,0.17-0.35,0.28-0.52c0.1-0.16,0.23-0.31,0.37-0.45s0.29-0.27,0.46-0.37c0.16-0.11,0.33-0.2,0.51-0.28
	c0.18-0.07,0.37-0.13,0.56-0.17c0.98-0.19,2.02,0.12,2.71,0.82c0.14,0.14,0.27,0.29,0.37,0.45c0.11,0.17,0.21,0.34,0.28,0.52
	c0.08,0.18,0.13,0.37,0.17,0.56C47.98,35.61,48,35.81,48,36c0,0.79-0.32,1.56-0.88,2.12C46.56,38.68,45.79,39,45,39z"/>
<path d="M54,39c-0.19,0-0.39-0.02-0.59-0.06c-0.19-0.04-0.38-0.09-0.56-0.17c-0.18-0.07-0.35-0.17-0.51-0.28
	c-0.17-0.1-0.32-0.23-0.46-0.37c-0.14-0.14-0.26-0.29-0.37-0.45c-0.11-0.17-0.2-0.34-0.28-0.52c-0.08-0.18-0.13-0.37-0.17-0.56
	C51.02,36.39,51,36.2,51,36c0-0.19,0.02-0.39,0.06-0.59c0.04-0.19,0.09-0.38,0.17-0.56c0.08-0.18,0.17-0.35,0.28-0.52
	c0.11-0.16,0.23-0.31,0.37-0.45s0.29-0.26,0.46-0.37c0.16-0.11,0.33-0.2,0.51-0.28c0.18-0.07,0.37-0.13,0.56-0.17
	c0.39-0.08,0.79-0.08,1.18,0c0.19,0.04,0.38,0.1,0.56,0.17c0.18,0.08,0.35,0.17,0.52,0.28c0.16,0.11,0.31,0.23,0.45,0.37
	c0.14,0.14,0.27,0.29,0.37,0.45c0.11,0.17,0.21,0.34,0.28,0.52c0.08,0.18,0.13,0.37,0.17,0.56C56.98,35.61,57,35.81,57,36
	c0,0.79-0.32,1.56-0.88,2.12C55.57,38.68,54.79,39,54,39z"/>
<path d="M45,30c-0.19,0-0.39-0.02-0.59-0.06c-0.19-0.04-0.38-0.09-0.56-0.17c-0.18-0.07-0.35-0.17-0.51-0.28
	c-0.17-0.11-0.32-0.23-0.46-0.37C42.32,28.56,42,27.79,42,27c0-0.2,0.02-0.39,0.06-0.59c0.04-0.19,0.09-0.38,0.17-0.56
	c0.07-0.18,0.17-0.35,0.28-0.52c0.1-0.16,0.23-0.31,0.37-0.45c0.7-0.7,1.73-1.02,2.71-0.82c0.19,0.04,0.38,0.1,0.56,0.17
	c0.18,0.08,0.35,0.17,0.52,0.28c0.16,0.11,0.31,0.23,0.45,0.37c0.14,0.14,0.27,0.29,0.37,0.45c0.11,0.17,0.21,0.34,0.28,0.52
	c0.08,0.18,0.13,0.37,0.17,0.56C47.98,26.61,48,26.8,48,27c0,0.79-0.32,1.56-0.88,2.12C46.56,29.68,45.79,30,45,30z"/>
<path d="M54,30c-0.19,0-0.39-0.02-0.59-0.06c-0.19-0.04-0.38-0.09-0.56-0.17c-0.18-0.07-0.35-0.17-0.51-0.28
	c-0.17-0.1-0.32-0.23-0.46-0.37c-0.14-0.14-0.26-0.29-0.37-0.45c-0.11-0.17-0.2-0.34-0.28-0.52c-0.08-0.18-0.13-0.37-0.17-0.56
	C51.02,27.39,51,27.2,51,27c0-0.19,0.02-0.39,0.06-0.59c0.04-0.19,0.09-0.38,0.17-0.56c0.08-0.18,0.17-0.35,0.28-0.52
	c0.11-0.16,0.23-0.31,0.37-0.45s0.29-0.26,0.46-0.37c0.16-0.11,0.33-0.2,0.51-0.28c0.18-0.07,0.37-0.13,0.56-0.17
	c0.39-0.08,0.79-0.08,1.18,0c0.19,0.04,0.38,0.1,0.56,0.17c0.18,0.08,0.35,0.17,0.52,0.28c0.16,0.11,0.31,0.23,0.45,0.37
	c0.14,0.14,0.27,0.29,0.37,0.45c0.11,0.17,0.21,0.34,0.28,0.52c0.08,0.18,0.13,0.37,0.17,0.56C56.98,26.61,57,26.81,57,27
	c0,0.2-0.02,0.39-0.06,0.59c-0.04,0.19-0.09,0.38-0.17,0.56c-0.07,0.18-0.17,0.35-0.28,0.52c-0.1,0.16-0.23,0.31-0.37,0.45
	c-0.14,0.14-0.29,0.27-0.45,0.37c-0.17,0.11-0.34,0.21-0.52,0.28c-0.18,0.08-0.37,0.13-0.56,0.17C54.39,29.98,54.2,30,54,30z"/>
<path d="M36,66H9c-1.66,0-3-1.34-3-3V13c0-3.86,3.14-7,7-7h19c3.86,0,7,3.14,7,7v50C39,64.66,37.66,66,36,66z M12,60h21V13
	c0-0.55-0.45-1-1-1H13c-0.55,0-1,0.45-1,1V60z"/>
<path d="M63,66H36c-1.66,0-3-1.34-3-3V18c0-1.66,1.34-3,3-3h23c3.86,0,7,3.14,7,7v41C66,64.66,64.66,66,63,66z M39,60h21V22
	c0-0.55-0.45-1-1-1H39V60z"/>
</svg>
