<?xml version="1.0" encoding="utf-8"?>
<!-- Generator: Adobe Illustrator 28.1.0, SVG Export Plug-In . SVG Version: 6.00 Build 0)  -->
<svg version="1.1" id="Layer_1" xmlns="http://www.w3.org/2000/svg" xmlns:xlink="http://www.w3.org/1999/xlink" x="0px" y="0px"
	 viewBox="0 0 72 72" style="enable-background:new 0 0 72 72;" xml:space="preserve">
<path d="M15.75,65C10.93,65,7,61.07,7,56.25s3.93-8.75,8.75-8.75s8.75,3.93,8.75,8.75S20.57,65,15.75,65z M15.75,51.5
	c-2.62,0-4.75,2.13-4.75,4.75S13.13,61,15.75,61s4.75-2.13,4.75-4.75S18.37,51.5,15.75,51.5z"/>
<path d="M15.75,24.5C10.93,24.5,7,20.57,7,15.75S10.93,7,15.75,7s8.75,3.93,8.75,8.75S20.57,24.5,15.75,24.5z M15.75,11
	C13.13,11,11,13.13,11,15.75s2.13,4.75,4.75,4.75s4.75-2.13,4.75-4.75S18.37,11,15.75,11z"/>
<path d="M56.25,24.5c-4.82,0-8.75-3.93-8.75-8.75S51.43,7,56.25,7S65,10.93,65,15.75S61.07,24.5,56.25,24.5z M56.25,11
	c-2.62,0-4.75,2.13-4.75,4.75s2.13,4.75,4.75,4.75S61,18.37,61,15.75S58.87,11,56.25,11z"/>
<path d="M56.25,65c-4.82,0-8.75-3.93-8.75-8.75s3.93-8.75,8.75-8.75S65,51.43,65,56.25S61.07,65,56.25,65z M56.25,51.5
	c-2.62,0-4.75,2.13-4.75,4.75S53.63,61,56.25,61S61,58.87,61,56.25S58.87,51.5,56.25,51.5z"/>
<rect x="12.75" y="22.5" width="6" height="27"/>
<rect x="22.5" y="53.25" width="27" height="6"/>
<rect x="53.25" y="22.5" width="6" height="27"/>
<rect x="22.5" y="12.75" width="27" height="6"/>
</svg>
