<?xml version="1.0" encoding="utf-8"?>
<!-- Generator: Adobe Illustrator 28.1.0, SVG Export Plug-In . SVG Version: 6.00 Build 0)  -->
<svg version="1.1" id="Layer_1" xmlns="http://www.w3.org/2000/svg" xmlns:xlink="http://www.w3.org/1999/xlink" x="0px" y="0px"
	 viewBox="0 0 72 72" style="enable-background:new 0 0 72 72;" xml:space="preserve">
<path d="M36,57c-11.58,0-21-9.42-21-21s9.42-21,21-21s21,9.42,21,21S47.58,57,36,57z M36,21c-8.27,0-15,6.73-15,15s6.73,15,15,15
	s15-6.73,15-15S44.27,21,36,21z"/>
<path d="M38.5,12h-5c-0.28,0-0.5-0.22-0.5-0.5V2c0-0.28,0.22-0.5,0.5-0.5h5C38.78,1.5,39,1.72,39,2v9.5C39,11.78,38.78,12,38.5,12z"
	/>
<path d="M38.5,70.5h-5c-0.28,0-0.5-0.22-0.5-0.5v-9.5c0-0.28,0.22-0.5,0.5-0.5h5c0.28,0,0.5,0.22,0.5,0.5V70
	C39,70.28,38.78,70.5,38.5,70.5z"/>
<path d="M11.5,39H2c-0.28,0-0.5-0.22-0.5-0.5v-5C1.5,33.22,1.72,33,2,33h9.5c0.28,0,0.5,0.22,0.5,0.5v5C12,38.78,11.78,39,11.5,39z"
	/>
<path d="M70,39h-9.5c-0.28,0-0.5-0.22-0.5-0.5v-5c0-0.28,0.22-0.5,0.5-0.5H70c0.28,0,0.5,0.22,0.5,0.5v5C70.5,38.78,70.28,39,70,39z
	"/>
<path d="M16.55,20.8l-6.72-6.72c-0.2-0.2-0.2-0.51,0-0.71l3.54-3.54c0.2-0.2,0.51-0.2,0.71,0l6.72,6.72c0.2,0.2,0.2,0.51,0,0.71
	l-3.54,3.54C17.07,20.99,16.75,20.99,16.55,20.8z"/>
<path d="M57.92,62.16l-6.72-6.72c-0.2-0.2-0.2-0.51,0-0.71l3.54-3.54c0.2-0.2,0.51-0.2,0.71,0l6.72,6.72c0.2,0.2,0.2,0.51,0,0.71
	l-3.54,3.54C58.43,62.36,58.12,62.36,57.92,62.16z"/>
<path d="M13.37,62.16l-3.54-3.54c-0.2-0.2-0.2-0.51,0-0.71l6.72-6.72c0.2-0.2,0.51-0.2,0.71,0l3.54,3.54c0.2,0.2,0.2,0.51,0,0.71
	l-6.72,6.72C13.88,62.36,13.57,62.36,13.37,62.16z"/>
<path d="M54.74,20.8l-3.54-3.54c-0.2-0.2-0.2-0.51,0-0.71l6.72-6.72c0.2-0.2,0.51-0.2,0.71,0l3.54,3.54c0.2,0.2,0.2,0.51,0,0.71
	l-6.72,6.72C55.25,20.99,54.93,20.99,54.74,20.8z"/>
</svg>
