<?xml version="1.0" encoding="utf-8"?>
<!-- Generator: Adobe Illustrator 28.1.0, SVG Export Plug-In . SVG Version: 6.00 Build 0)  -->
<svg version="1.1" id="Layer_1" xmlns="http://www.w3.org/2000/svg" xmlns:xlink="http://www.w3.org/1999/xlink" x="0px" y="0px"
	 viewBox="0 0 72 72" style="enable-background:new 0 0 72 72;" xml:space="preserve">
<path d="M40.24,36l15.88-15.88c1.17-1.17,1.17-3.07,0-4.24c-1.17-1.17-3.07-1.17-4.24,0L36,31.76L20.12,15.88
	c-1.17-1.17-3.07-1.17-4.24,0c-1.17,1.17-1.17,3.07,0,4.24L31.76,36L15.88,51.88c-1.17,1.17-1.17,3.07,0,4.24
	C16.46,56.71,17.23,57,18,57s1.54-0.29,2.12-0.88L36,40.24l15.88,15.88C52.46,56.71,53.23,57,54,57s1.54-0.29,2.12-0.88
	c1.17-1.17,1.17-3.07,0-4.24L40.24,36z"/>
</svg>
