<?xml version="1.0" encoding="utf-8"?>
<!-- Generator: Adobe Illustrator 28.1.0, SVG Export Plug-In . SVG Version: 6.00 Build 0)  -->
<svg version="1.1" id="Layer_1" xmlns="http://www.w3.org/2000/svg" xmlns:xlink="http://www.w3.org/1999/xlink" x="0px" y="0px"
	 viewBox="0 0 72 72" style="enable-background:new 0 0 72 72;" xml:space="preserve">
<g>
	<path d="M34,52.37V64.5c0,0.28,0.22,0.5,0.5,0.5h3c0.28,0,0.5-0.22,0.5-0.5V53.29c2.65,1.32,5.58,2.03,8.56,2.03
		c2.91,0,5.71-0.63,8.32-1.89c1.2-0.57,2-1.75,2.1-3.07c0.1-1.32-0.52-2.61-1.61-3.37c-3.64-2.49-5.81-6.6-5.81-11
		c0-4.4,2.17-8.51,5.81-11c1.1-0.75,1.71-2.04,1.61-3.36c-0.1-1.32-0.91-2.5-2.1-3.07c-3.37-1.61-7.13-2.21-10.88-1.72
		c-2.1,0.27-4.12,0.9-6,1.84V7.5C38,7.22,37.78,7,37.5,7h-3C34.22,7,34,7.22,34,7.5v12.13C25.84,20.63,19.5,27.58,19.5,36
		S25.84,51.37,34,52.37z M38,25.81c1.95-1.65,4.29-2.69,6.78-3.01c1.33-0.17,2.66-0.15,3.95,0.06c-3.28,3.54-5.16,8.21-5.16,13.14
		c0,4.93,1.88,9.61,5.17,13.14c-0.71,0.12-1.43,0.17-2.17,0.17c-3.12,0-6.16-1.12-8.56-3.14V25.81z M34,25.7V46.3
		c-4.84-0.94-8.5-5.2-8.5-10.3S29.16,26.63,34,25.7z"/>
	<path d="M6.5,39H16c0.28,0,0.5-0.22,0.5-0.5v-5c0-0.28-0.22-0.5-0.5-0.5H6.5C6.22,33,6,33.22,6,33.5v5C6,38.78,6.22,39,6.5,39z"/>
	<path d="M19.74,23.98c0.2,0.2,0.51,0.2,0.71,0l3.54-3.54c0.2-0.2,0.2-0.51,0-0.71l-6.72-6.72c-0.2-0.2-0.51-0.2-0.71,0l-3.54,3.54
		c-0.2,0.2-0.2,0.51,0,0.71L19.74,23.98z"/>
	<path d="M17.26,58.98l6.72-6.72c0.2-0.2,0.2-0.51,0-0.71l-3.54-3.54c-0.2-0.2-0.51-0.2-0.71,0l-6.72,6.72c-0.2,0.2-0.2,0.51,0,0.71
		l3.54,3.54C16.75,59.18,17.07,59.18,17.26,58.98z"/>
</g>
</svg>
