<?xml version="1.0" encoding="utf-8"?>
<!-- Generator: Adobe Illustrator 28.1.0, SVG Export Plug-In . SVG Version: 6.00 Build 0)  -->
<svg version="1.1" id="Layer_1" xmlns="http://www.w3.org/2000/svg" xmlns:xlink="http://www.w3.org/1999/xlink" x="0px" y="0px"
	 viewBox="0 0 72 72" style="enable-background:new 0 0 72 72;" xml:space="preserve">
<g>
	<g>
		<path d="M9.52,60.48c2.75-0.17,4.26-1.69,5.39-2.82C16.04,56.54,16.64,56,18,56s1.96,0.54,3.09,1.66c1.2,1.2,2.84,2.84,5.91,2.84
			s4.72-1.64,5.91-2.84C34.04,56.54,34.64,56,36,56s1.96,0.54,3.09,1.66c1.2,1.2,2.84,2.84,5.91,2.84s4.72-1.64,5.91-2.84
			C52.04,56.54,52.64,56,54,56s1.96,0.54,3.09,1.66c1.13,1.13,2.65,2.65,5.39,2.82c0.28,0.02,0.52-0.22,0.52-0.5v-3
			c0-0.25-0.18-0.48-0.43-0.5c-1.07-0.11-1.66-0.64-2.66-1.64c-1.13-1.13-2.67-2.63-5.42-2.8l3.65-14.6
			c0.23-0.93,0.12-1.91-0.3-2.76l-2.89-5.78c-0.24-0.47-0.95-0.3-0.95,0.22v6.38c0,0.28-0.22,0.5-0.5,0.5h-35
			c-0.28,0-0.5-0.22-0.5-0.5v-6.38c0-0.53-0.71-0.7-0.95-0.22l-2.89,5.78c-0.43,0.85-0.53,1.83-0.3,2.76l3.65,14.6
			c-2.75,0.17-4.29,1.67-5.42,2.8c-1,1-1.58,1.54-2.66,1.64C9.18,56.5,9,56.73,9,56.98v3C9,60.26,9.24,60.5,9.52,60.48z M23,49.5h26
			c0.28,0,0.5,0.22,0.5,0.5v3.55c-0.55,0.43-1.01,0.88-1.41,1.29c-1.12,1.12-1.72,1.66-3.09,1.66s-1.96-0.54-3.09-1.66
			C40.72,53.64,39.08,52,36,52s-4.72,1.64-5.91,2.84c-1.12,1.12-1.72,1.66-3.09,1.66s-1.96-0.54-3.09-1.66
			c-0.41-0.41-0.87-0.86-1.41-1.29V50C22.5,49.72,22.72,49.5,23,49.5z"/>
	</g>
	<g>
		<path d="M40,18c0.28,0,0.5-0.22,0.5-0.5V14c0-0.28-0.22-0.5-0.5-0.5h-8c-0.28,0-0.5,0.22-0.5,0.5v3.5c0,0.28,0.22,0.5,0.5,0.5H40z
			"/>
	</g>
	<g>
		<path d="M22.5,23v8c0,0.28,0.22,0.5,0.5,0.5h26c0.28,0,0.5-0.22,0.5-0.5v-8c0-0.28-0.22-0.5-0.5-0.5H23
			C22.72,22.5,22.5,22.72,22.5,23z"/>
	</g>
</g>
</svg>
