<?xml version="1.0" encoding="utf-8"?>
<!-- Generator: Adobe Illustrator 28.1.0, SVG Export Plug-In . SVG Version: 6.00 Build 0)  -->
<svg version="1.1" id="Layer_1" xmlns="http://www.w3.org/2000/svg" xmlns:xlink="http://www.w3.org/1999/xlink" x="0px" y="0px"
	 viewBox="0 0 72 72" style="enable-background:new 0 0 72 72;" xml:space="preserve">
<g>
	<path d="M9,66h54c1.66,0,3-1.34,3-3V9c0-1.66-1.34-3-3-3H9C7.34,6,6,7.34,6,9v54C6,64.66,7.34,66,9,66z M16,34h-4v-5h4V34z M16,43
		h-4v-5h4V43z M12,47h4v5h-4V47z M20,38h32v22H20V38z M56,29h4v5h-4V29z M60,38v5h-4v-5H60z M56,47h4v5h-4V47z M60,25h-4v-5h4V25z
		 M52,34H20V12h32V34z M16,25h-4v-5h4V25z M12,56h4v4h-4V56z M56,60v-4h4v4H56z M60,16h-4v-4h4V16z M16,12v4h-4v-4H16z"/>
</g>
</svg>
