<?xml version="1.0" encoding="utf-8"?>
<!-- Generator: Adobe Illustrator 28.1.0, SVG Export Plug-In . SVG Version: 6.00 Build 0)  -->
<svg version="1.1" id="Layer_1" xmlns="http://www.w3.org/2000/svg" xmlns:xlink="http://www.w3.org/1999/xlink" x="0px" y="0px"
	 viewBox="0 0 72 72" style="enable-background:new 0 0 72 72;" xml:space="preserve">
<path d="M50.15,6.23c-1.12-0.46-2.41-0.21-3.27,0.65L29.76,24H22c-1.66,0-3,1.34-3,3v18c0,1.66,1.34,3,3,3h7.76l17.12,17.12
	C47.45,65.7,48.22,66,49,66c0.39,0,0.78-0.07,1.15-0.23C51.27,65.31,52,64.21,52,63V9C52,7.79,51.27,6.69,50.15,6.23z M46,55.76
	L33.12,42.88C32.56,42.32,31.8,42,31,42h-6V30h6c0.8,0,1.56-0.32,2.12-0.88L46,16.24V55.76z"/>
</svg>
