<?xml version="1.0" encoding="utf-8"?>
<!-- Generator: Adobe Illustrator 28.1.0, SVG Export Plug-In . SVG Version: 6.00 Build 0)  -->
<svg version="1.1" id="Layer_1" xmlns="http://www.w3.org/2000/svg" xmlns:xlink="http://www.w3.org/1999/xlink" x="0px" y="0px"
	 viewBox="0 0 72 72" style="enable-background:new 0 0 72 72;" xml:space="preserve">
<g>
	<path d="M9,66h54c1.66,0,3-1.34,3-3V18c0-0.8-0.32-1.56-0.88-2.12l-9-9C55.56,6.32,54.8,6,54,6H9C7.34,6,6,7.34,6,9v54
		C6,64.66,7.34,66,9,66z M52,60H20V47h32V60z M20,12h23v13H20V12z M12,12h4v15c0,1.1,0.9,2,2,2h27c1.1,0,2-0.9,2-2V12h5.76L60,19.24
		V60h-4V45c0-1.1-0.9-2-2-2H18c-1.1,0-2,0.9-2,2v15h-4V12z"/>
	<path d="M38.77,16.85c-0.07-0.18-0.17-0.35-0.27-0.51c-0.11-0.17-0.24-0.32-0.38-0.46c-0.14-0.14-0.29-0.26-0.45-0.37
		c-0.17-0.11-0.34-0.21-0.52-0.28c-0.18-0.08-0.37-0.13-0.56-0.17c-0.39-0.08-0.79-0.08-1.18,0c-0.19,0.04-0.38,0.09-0.56,0.17
		c-0.18,0.07-0.35,0.17-0.51,0.28c-0.17,0.11-0.32,0.23-0.46,0.37s-0.26,0.29-0.37,0.46c-0.11,0.16-0.2,0.33-0.28,0.51
		c-0.08,0.19-0.13,0.37-0.17,0.57C33.02,17.61,33,17.81,33,18c0,0.79,0.32,1.56,0.88,2.12C34.44,20.68,35.21,21,36,21
		c0.19,0,0.39-0.02,0.59-0.06c0.19-0.04,0.38-0.09,0.56-0.17c0.18-0.07,0.35-0.17,0.52-0.28c0.16-0.1,0.31-0.23,0.45-0.37
		C38.68,19.56,39,18.79,39,18c0-0.19-0.02-0.39-0.06-0.58C38.9,17.22,38.85,17.03,38.77,16.85z"/>
</g>
</svg>
