<?xml version="1.0" encoding="utf-8"?>
<!-- Generator: Adobe Illustrator 28.1.0, SVG Export Plug-In . SVG Version: 6.00 Build 0)  -->
<svg version="1.1" id="Layer_1" xmlns="http://www.w3.org/2000/svg" xmlns:xlink="http://www.w3.org/1999/xlink" x="0px" y="0px"
	 viewBox="0 0 72 72" style="enable-background:new 0 0 72 72;" xml:space="preserve">
<path d="M62.06,13.58C57.8,11.53,47.04,7.66,36,13.97c-11.02-6.3-21.79-2.45-26.05-0.41C7.55,14.71,6,17.18,6,19.87v36.37
	c0,2.26,1.1,4.4,2.95,5.71c1.84,1.31,4.2,1.64,6.33,0.91c4.76-1.65,11.93-2.61,19.06,2.14L36,66.1L37.66,65
	c7.14-4.76,14.31-3.79,19.06-2.14c2.12,0.74,4.49,0.4,6.33-0.91C64.9,60.64,66,58.5,66,56.24V19.87
	C66,17.19,64.45,14.72,62.06,13.58z M13.3,57.19c-0.41,0.14-0.73-0.02-0.88-0.13C12.26,56.95,12,56.69,12,56.24V19.87
	c0-0.39,0.21-0.74,0.54-0.89c4.35-2.08,12.88-4.7,21.46,0.82v38.15c-3.81-1.79-7.54-2.46-10.96-2.46
	C19.35,55.48,16.02,56.25,13.3,57.19z M60,56.24c0,0.45-0.26,0.71-0.42,0.82c-0.15,0.11-0.47,0.27-0.89,0.13
	C53.46,55.37,45.9,54.23,38,57.94V19.79c8.59-5.52,17.12-2.9,21.46-0.81c0.33,0.16,0.54,0.5,0.54,0.88V56.24z"/>
</svg>
