<?xml version="1.0" encoding="utf-8"?>
<!-- Generator: Adobe Illustrator 28.1.0, SVG Export Plug-In . SVG Version: 6.00 Build 0)  -->
<svg version="1.1" id="Layer_1" xmlns="http://www.w3.org/2000/svg" xmlns:xlink="http://www.w3.org/1999/xlink" x="0px" y="0px"
	 viewBox="0 0 72 72" style="enable-background:new 0 0 72 72;" xml:space="preserve">
<g>
	<path d="M55.88,36.18L49.76,20.9c-0.82-2.05-2.47-3.67-4.53-4.45c-2.06-0.78-4.37-0.67-6.34,0.32l-2.05,1.02
		c-0.26,0.13-0.56,0.2-0.85,0.2s-0.59-0.07-0.85-0.2l-2.05-1.02c-1.97-0.99-4.28-1.1-6.34-0.32c-2.06,0.78-3.71,2.4-4.53,4.45
		l-6.11,15.29c-1.56-1.42-3.21-2.37-5.2-2.44c-2.06-0.09-4.05,0.88-5.93,2.82c-3.13,3.23-3.13,7.96-0.01,11.75
		c3.56,4.33,10.51,6.54,17.59,3.17c3.44,2.59,7.79,4.58,13.44,4.58s9.99-2,13.44-4.58c7.08,3.37,14.04,1.16,17.59-3.17
		c3.12-3.79,3.11-8.52-0.01-11.75c-1.88-1.94-3.87-2.9-5.93-2.82C59.09,33.81,57.44,34.77,55.88,36.18z M27.81,23.13
		c0.27-0.67,0.8-0.96,1.09-1.07c0.29-0.11,0.88-0.25,1.52,0.08l2.05,1.02c1.09,0.55,2.31,0.83,3.53,0.83s2.44-0.29,3.53-0.83
		l2.05-1.02c0.65-0.32,1.23-0.19,1.52-0.08s0.82,0.4,1.09,1.07l6.15,15.37c-3.74,0.97-8.66,1.83-14.34,1.83s-10.6-0.86-14.34-1.83
		L27.81,23.13z M9.61,44.51c-0.55-0.67-1.67-2.36-0.31-3.77c0.76-0.79,1.24-0.99,1.4-0.99c0,0,0,0,0.01,0
		c0.89,0.03,3.04,2.6,4.47,4.31c0.74,0.88,1.55,1.85,2.45,2.84C13.93,47.7,10.97,46.16,9.61,44.51z M36,50.07
		c-6.53,0-10.67-3.55-14.09-7.38c3.82,0.9,8.61,1.64,14.09,1.64s10.27-0.74,14.09-1.64C46.67,46.52,42.53,50.07,36,50.07z
		 M62.7,40.73c1.36,1.41,0.24,3.11-0.31,3.77c-1.36,1.65-4.32,3.19-8.02,2.38c0.9-0.99,1.71-1.96,2.45-2.84
		c1.43-1.7,3.58-4.27,4.47-4.31C61.45,39.72,61.93,39.94,62.7,40.73z"/>
</g>
</svg>
