<?xml version="1.0" encoding="utf-8"?>
<!-- Generator: Adobe Illustrator 28.1.0, SVG Export Plug-In . SVG Version: 6.00 Build 0)  -->
<svg version="1.1" id="Layer_1" xmlns="http://www.w3.org/2000/svg" xmlns:xlink="http://www.w3.org/1999/xlink" x="0px" y="0px"
	 viewBox="0 0 72 72" style="enable-background:new 0 0 72 72;" xml:space="preserve">
<g>
	<path d="M11.3,57.67L27,61.59l18-4.5l12.3,3.08c2.1,0.53,4.29,0.06,6-1.27c1.71-1.34,2.69-3.35,2.69-5.52V21.12
		c0-3.22-2.18-6.01-5.3-6.79L45,10.41l-18,4.5l-12.3-3.08c-2.11-0.53-4.29-0.06-6.01,1.27C6.98,14.44,6,16.45,6,18.62v32.25
		C6,54.1,8.18,56.89,11.3,57.67z M43,51.41l-14,3.5V20.59l14-3.5V51.41z M60,21.12v32.25c0,0.42-0.24,0.68-0.38,0.79
		c-0.14,0.11-0.44,0.29-0.86,0.18L47,51.41V17.09l12.24,3.06C59.69,20.26,60,20.66,60,21.12z M12,18.62c0-0.42,0.24-0.68,0.38-0.79
		c0.11-0.09,0.32-0.21,0.61-0.21c0.08,0,0.16,0.01,0.25,0.03L25,20.59v34.32l-12.24-3.06C12.31,51.74,12,51.34,12,50.88V18.62z"/>
</g>
</svg>
