<?xml version="1.0" encoding="utf-8"?>
<!-- Generator: Adobe Illustrator 28.1.0, SVG Export Plug-In . SVG Version: 6.00 Build 0)  -->
<svg version="1.1" id="Layer_1" xmlns="http://www.w3.org/2000/svg" xmlns:xlink="http://www.w3.org/1999/xlink" x="0px" y="0px"
	 viewBox="0 0 72 72" style="enable-background:new 0 0 72 72;" xml:space="preserve">
<path d="M46,59H26c-6.07,0-11-4.93-11-11V34c0-0.8,0.32-1.56,0.88-2.12l18-18c1.17-1.17,3.07-1.17,4.24,0l18,18
	C56.68,32.44,57,33.2,57,34v14C57,54.07,52.07,59,46,59z M21,35.24V48c0,2.76,2.24,5,5,5h20c2.76,0,5-2.24,5-5V35.24l-15-15
	L21,35.24z"/>
</svg>
