<?xml version="1.0" encoding="utf-8"?>
<!-- Generator: Adobe Illustrator 28.1.0, SVG Export Plug-In . SVG Version: 6.00 Build 0)  -->
<svg version="1.1" id="Layer_1" xmlns="http://www.w3.org/2000/svg" xmlns:xlink="http://www.w3.org/1999/xlink" x="0px" y="0px"
	 viewBox="0 0 72 72" style="enable-background:new 0 0 72 72;" xml:space="preserve">
<g>
	<path d="M66,56.5V33c0-4.97-4.03-9-9-9h-9c0-4.97-4.03-9-9-9H15c-4.97,0-9,4.03-9,9v32.5C6,56.78,6.22,57,6.5,57h8.65
		c-0.1,0.48-0.15,0.99-0.15,1.5c0,4.14,3.36,7.5,7.5,7.5s7.5-3.36,7.5-7.5c0-0.51-0.05-1.02-0.15-1.5H42h0.15
		c-0.1,0.48-0.15,0.99-0.15,1.5c0,4.14,3.36,7.5,7.5,7.5s7.5-3.36,7.5-7.5c0-0.51-0.05-1.02-0.15-1.5h8.65
		C65.78,57,66,56.78,66,56.5z M22.5,60c-0.83,0-1.5-0.67-1.5-1.5s0.67-1.5,1.5-1.5s1.5,0.67,1.5,1.5S23.33,60,22.5,60z M42,51H12V24
		c0-1.65,1.35-3,3-3h24c1.65,0,3,1.35,3,3V51z M49.5,60c-0.83,0-1.5-0.67-1.5-1.5s0.67-1.5,1.5-1.5s1.5,0.67,1.5,1.5
		S50.33,60,49.5,60z M60,51H48v-4h12V51z M60,43H48V30h9c1.65,0,3,1.35,3,3V43z"/>
</g>
</svg>
