<?xml version="1.0" encoding="utf-8"?>
<!-- Generator: Adobe Illustrator 28.1.0, SVG Export Plug-In . SVG Version: 6.00 Build 0)  -->
<svg version="1.1" id="Layer_1" xmlns="http://www.w3.org/2000/svg" xmlns:xlink="http://www.w3.org/1999/xlink" x="0px" y="0px"
	 viewBox="0 0 72 72" style="enable-background:new 0 0 72 72;" xml:space="preserve">
<g>
	<path d="M49.03,27.21l1.81-1.81c1.17-1.17,1.17-3.07,0-4.24c-1.17-1.17-3.07-1.17-4.24,0l-1.81,1.81c-1.72-1.16-3.68-1.99-5.79-2.4
		V18c0-1.66-1.34-3-3-3s-3,1.34-3,3v2.57c-2.11,0.41-4.07,1.24-5.79,2.4l-1.81-1.81c-1.17-1.17-3.07-1.17-4.24,0
		c-1.17,1.17-1.17,3.07,0,4.24l1.81,1.81c-1.16,1.72-1.99,3.68-2.4,5.79H18c-1.66,0-3,1.34-3,3s1.34,3,3,3h2.57
		c0.41,2.11,1.24,4.07,2.4,5.79l-1.81,1.81c-1.17,1.17-1.17,3.07,0,4.24c0.59,0.59,1.35,0.88,2.12,0.88s1.54-0.29,2.12-0.88
		l1.81-1.81c1.72,1.16,3.68,1.99,5.79,2.4V54c0,1.66,1.34,3,3,3s3-1.34,3-3v-2.57c2.11-0.41,4.07-1.24,5.79-2.4l1.81,1.81
		c0.59,0.59,1.35,0.88,2.12,0.88s1.54-0.29,2.12-0.88c1.17-1.17,1.17-3.07,0-4.24l-1.81-1.81c1.16-1.72,1.99-3.68,2.4-5.79H54
		c1.66,0,3-1.34,3-3s-1.34-3-3-3h-2.57C51.02,30.89,50.2,28.93,49.03,27.21z M36,45.73c-5.36,0-9.73-4.36-9.73-9.73
		s4.36-9.73,9.73-9.73s9.73,4.36,9.73,9.73S41.36,45.73,36,45.73z"/>
</g>
</svg>
