<?xml version="1.0" encoding="utf-8"?>
<!-- Generator: Adobe Illustrator 28.1.0, SVG Export Plug-In . SVG Version: 6.00 Build 0)  -->
<svg version="1.1" id="Layer_1" xmlns="http://www.w3.org/2000/svg" xmlns:xlink="http://www.w3.org/1999/xlink" x="0px" y="0px"
	 viewBox="0 0 72 72" style="enable-background:new 0 0 72 72;" xml:space="preserve">
<g>
	<path d="M51.35,17.24c-0.05-0.13-0.11-0.24-0.19-0.35c-0.07-0.11-0.15-0.21-0.24-0.31c-0.1-0.09-0.2-0.17-0.31-0.24
		c-0.11-0.07-0.22-0.14-0.34-0.19c-0.12-0.05-0.25-0.09-0.38-0.11c-0.26-0.05-0.52-0.05-0.78,0c-0.13,0.02-0.25,0.06-0.38,0.11
		c-0.12,0.05-0.23,0.12-0.34,0.19s-0.21,0.15-0.3,0.24c-0.1,0.1-0.18,0.2-0.25,0.31c-0.07,0.11-0.14,0.22-0.19,0.35
		c-0.05,0.12-0.08,0.24-0.11,0.37c-0.03,0.13-0.04,0.26-0.04,0.39c0,0.53,0.21,1.04,0.59,1.42c0.09,0.09,0.19,0.17,0.3,0.24
		c0.11,0.07,0.22,0.14,0.34,0.19c0.13,0.05,0.25,0.09,0.38,0.11C49.24,19.99,49.37,20,49.5,20s0.26-0.01,0.39-0.04
		c0.13-0.02,0.26-0.06,0.38-0.11c0.12-0.05,0.23-0.12,0.34-0.19c0.11-0.07,0.21-0.15,0.31-0.24c0.37-0.38,0.58-0.89,0.58-1.42
		c0-0.13-0.01-0.26-0.04-0.39C51.44,17.48,51.4,17.36,51.35,17.24z"/>
	<path d="M59,6H26.5c-3.86,0-7,3.14-7,7v10c0,3.86,3.14,7,7,7H51v30H37.76c3.75-0.72,7.13-2.43,8.57-6.36
		c0.73-1.99,0.73-4.3-0.01-6.51L41.94,34H22.5h-1.44H13c-3.31,0-6,2.69-6,6v10c0,3.31,2.69,6,6,6h4.96c1.73,2.29,4.39,3.44,7.28,4
		H18v6h48V13C66,9.14,62.86,6,59,6z M23.94,38h15.12l1,3c-6.21,0.33-9.52,2.13-12.46,3.74c-2.08,1.14-3.95,2.15-6.76,2.56L23.94,38z
		 M11,50V40c0-1.1,0.9-2,2-2h6.73l-3.04,9.13c-0.54,1.62-0.68,3.3-0.43,4.87H13C11.9,52,11,51.1,11,50z M20.43,52.26
		c-0.1-0.27-0.17-0.56-0.22-0.86c4.21-0.37,6.8-1.78,9.31-3.15c2.99-1.63,5.82-3.17,11.86-3.29l1.15,3.44
		c0.45,1.35,0.47,2.73,0.05,3.87c-1.07,2.93-4.49,4.24-11.07,4.24S21.5,55.19,20.43,52.26z M60,60h-3V24H26.5c-0.55,0-1-0.45-1-1V13
		c0-0.55,0.45-1,1-1H59c0.55,0,1,0.45,1,1V60z"/>
</g>
</svg>
