<?xml version="1.0" encoding="utf-8"?>
<!-- Generator: Adobe Illustrator 28.1.0, SVG Export Plug-In . SVG Version: 6.00 Build 0)  -->
<svg version="1.1" id="Layer_1" xmlns="http://www.w3.org/2000/svg" xmlns:xlink="http://www.w3.org/1999/xlink" x="0px" y="0px"
	 viewBox="0 0 72 72" style="enable-background:new 0 0 72 72;" xml:space="preserve">
<g>
	<path d="M42,53.49c0,0.28,0.22,0.51,0.5,0.51h5c0.28,0,0.5-0.23,0.5-0.51c0-8.43,0.08-12.45,4.18-20.65
		c2.78-5.56,2.77-11.59-0.03-16.11c-2.45-3.96-6.69-6.23-11.66-6.23H23c-0.28,0-0.5,0.22-0.5,0.5v5c0,0.28,0.22,0.5,0.5,0.5h3.25
		v3.49c-3.97,1.33-6.75,5.23-6.75,9.6V61c0,0.28,0.22,0.5,0.5,0.5h18.5c0.28,0,0.5-0.22,0.5-0.5V29.25c0-4.33-2.84-8-6.75-9.27V16.5
		h8.25c2.88,0,5.21,1.2,6.55,3.38c1.7,2.75,1.61,6.59-0.24,10.28C42.09,39.61,42,44.65,42,53.49z M33,29.25V55.5h-7.5V29.25
		c0-2.07,1.68-3.75,3.75-3.75S33,27.18,33,29.25z"/>
</g>
</svg>
