<?xml version="1.0" encoding="utf-8"?>
<!-- Generator: Adobe Illustrator 28.1.0, SVG Export Plug-In . SVG Version: 6.00 Build 0)  -->
<svg version="1.1" id="Layer_1" xmlns="http://www.w3.org/2000/svg" xmlns:xlink="http://www.w3.org/1999/xlink" x="0px" y="0px"
	 viewBox="0 0 72 72" style="enable-background:new 0 0 72 72;" xml:space="preserve">
<g>
	<path d="M25.5,22.18V14c0-1.93-1.57-3.5-3.5-3.5h-8c-1.93,0-3.5,1.57-3.5,3.5v8.18L7.8,32.93c-1.2,4.78-1.79,9.71-1.77,14.63
		l0.05,10.26c-0.04,0.9,0.26,1.78,0.85,2.47c0.67,0.77,1.63,1.21,2.64,1.21h16.85c1.01,0,1.98-0.44,2.64-1.21
		c0.6-0.69,0.9-1.57,0.85-2.47l0.05-10.26c0.02-4.93-0.57-9.85-1.77-14.63L25.5,22.18z M19.5,16.5v4.07h-3.06l0.06-4.07H19.5z
		 M23.93,55.5H12.07l-0.04-7.96c-0.02-4.43,0.51-8.85,1.59-13.15l2.46-9.82H20l2.37,9.82c1.08,4.3,1.61,8.72,1.59,13.15L23.93,55.5z
		"/>
	<path d="M28.5,14v12.5c0,1.93,1.57,3.5,3.5,3.5h5.11c-0.34,2.48-0.91,4.92-1.71,7.3c-1.6,4.79-2.4,9.77-2.4,14.81v9.38h6v-9.38
		c0-4.4,0.71-8.74,2.1-12.92c1.6-4.79,2.4-9.77,2.4-14.81V10.5H32C30.07,10.5,28.5,12.07,28.5,14z M34.5,16.5h3V24h-3V16.5z"/>
	<path d="M61,10.5H46.5v6H60v4.61H47.5v4H60v4.39H47.5v4H60v5H47.5v4H60v5H47.5v4H60v4H46.5v6H61c2.76,0,5-2.24,5-5v-41
		C66,12.74,63.76,10.5,61,10.5z"/>
</g>
</svg>
