<?xml version="1.0" encoding="utf-8"?>
<!-- Generator: Adobe Illustrator 28.1.0, SVG Export Plug-In . SVG Version: 6.00 Build 0)  -->
<svg version="1.1" id="Layer_1" xmlns="http://www.w3.org/2000/svg" xmlns:xlink="http://www.w3.org/1999/xlink" x="0px" y="0px"
	 viewBox="0 0 72 72" style="enable-background:new 0 0 72 72;" xml:space="preserve">
<g>
	<path d="M63,30c-0.77,0-1.54-0.29-2.12-0.88l-18-18c-1.17-1.17-1.17-3.07,0-4.24c1.17-1.17,3.07-1.17,4.24,0l18,18
		c1.17,1.17,1.17,3.07,0,4.24C64.54,29.71,63.77,30,63,30z"/>
	<path d="M45,30c-0.77,0-1.54-0.29-2.12-0.88c-1.17-1.17-1.17-3.07,0-4.24l18-18c1.17-1.17,3.07-1.17,4.24,0
		c1.17,1.17,1.17,3.07,0,4.24l-18,18C46.54,29.71,45.77,30,45,30z"/>
</g>
<path d="M57,66H15c-4.96,0-9-4.04-9-9V15c0-4.96,4.04-9,9-9h12c1.66,0,3,1.34,3,3s-1.34,3-3,3H15c-1.65,0-3,1.35-3,3v42
	c0,1.65,1.35,3,3,3h42c1.65,0,3-1.35,3-3V45c0-1.66,1.34-3,3-3s3,1.34,3,3v12C66,61.96,61.96,66,57,66z"/>
<path d="M57,56H15c-4.41,0-8-3.14-8-7V14c0-3.86,3.59-7,8-7h12c1.1,0,2,0.9,2,2s-0.9,2-2,2H15c-2.17,0-4,1.37-4,3v35
	c0,1.63,1.83,3,4,3h42c2.17,0,4-1.37,4-3v-4c0-1.1,0.9-2,2-2s2,0.9,2,2v4C65,52.86,61.41,56,57,56z"/>
</svg>
