<?xml version="1.0" encoding="utf-8"?>
<!-- Generator: Adobe Illustrator 28.1.0, SVG Export Plug-In . SVG Version: 6.00 Build 0)  -->
<svg version="1.1" id="Layer_1" xmlns="http://www.w3.org/2000/svg" xmlns:xlink="http://www.w3.org/1999/xlink" x="0px" y="0px"
	 viewBox="0 0 72 72" style="enable-background:new 0 0 72 72;" xml:space="preserve">
<g>
	<path d="M36,15c-11.58,0-21,9.42-21,21c0,11.58,9.42,21,21,21c11.58,0,21-9.42,21-21C57,24.42,47.58,15,36,15z M36,51
		c-8.27,0-15-6.73-15-15c0-8.27,6.73-15,15-15c8.27,0,15,6.73,15,15C51,44.27,44.27,51,36,51z"/>
	<path d="M36,12c1.66,0,3-1.34,3-3V4.5c0-1.66-1.34-3-3-3c-1.66,0-3,1.34-3,3V9C33,10.66,34.34,12,36,12z"/>
	<path d="M36,60c-1.66,0-3,1.34-3,3v4.5c0,1.66,1.34,3,3,3c1.66,0,3-1.34,3-3V63C39,61.34,37.66,60,36,60z"/>
	<path d="M12,36c0-1.66-1.34-3-3-3H4.5c-1.66,0-3,1.34-3,3c0,1.66,1.34,3,3,3H9C10.66,39,12,37.66,12,36z"/>
	<path d="M67.5,33H63c-1.66,0-3,1.34-3,3c0,1.66,1.34,3,3,3h4.5c1.66,0,3-1.34,3-3C70.5,34.34,69.16,33,67.5,33z"/>
	<path d="M14.79,19.03c0.59,0.59,1.35,0.88,2.12,0.88s1.54-0.29,2.12-0.88c1.17-1.17,1.17-3.07,0-4.24l-3.18-3.18
		c-1.17-1.17-3.07-1.17-4.24,0c-1.17,1.17-1.17,3.07,0,4.24L14.79,19.03z"/>
	<path d="M57.21,52.97c-1.17-1.17-3.07-1.17-4.24,0c-1.17,1.17-1.17,3.07,0,4.24l3.18,3.18c0.59,0.59,1.35,0.88,2.12,0.88
		s1.54-0.29,2.12-0.88c1.17-1.17,1.17-3.07,0-4.24L57.21,52.97z"/>
	<path d="M14.79,52.97l-3.18,3.18c-1.17,1.17-1.17,3.07,0,4.24c0.59,0.59,1.35,0.88,2.12,0.88c0.77,0,1.54-0.29,2.12-0.88l3.18-3.18
		c1.17-1.17,1.17-3.07,0-4.24C17.86,51.8,15.96,51.8,14.79,52.97z"/>
	<path d="M55.09,19.91c0.77,0,1.54-0.29,2.12-0.88l3.18-3.18c1.17-1.17,1.17-3.07,0-4.24c-1.17-1.17-3.07-1.17-4.24,0l-3.18,3.18
		c-1.17,1.17-1.17,3.07,0,4.24C53.55,19.62,54.32,19.91,55.09,19.91z"/>
</g>
</svg>
