<?xml version="1.0" encoding="utf-8"?>
<!-- Generator: Adobe Illustrator 28.1.0, SVG Export Plug-In . SVG Version: 6.00 Build 0)  -->
<svg version="1.1" id="Layer_1" xmlns="http://www.w3.org/2000/svg" xmlns:xlink="http://www.w3.org/1999/xlink" x="0px" y="0px"
	 viewBox="0 0 72 72" style="enable-background:new 0 0 72 72;" xml:space="preserve">
<g>
	<path d="M16.5,36c0-1.66-1.34-3-3-3H9c-1.66,0-3,1.34-3,3c0,1.66,1.34,3,3,3h4.5C15.16,39,16.5,37.66,16.5,36z"/>
	<path d="M17.97,22.21c0.59,0.59,1.35,0.88,2.12,0.88c0.77,0,1.54-0.29,2.12-0.88c1.17-1.17,1.17-3.07,0-4.24l-3.18-3.18
		c-1.17-1.17-3.07-1.17-4.24,0s-1.17,3.07,0,4.24L17.97,22.21z"/>
	<path d="M17.97,49.79l-3.18,3.18c-1.17,1.17-1.17,3.07,0,4.24c0.59,0.59,1.35,0.88,2.12,0.88s1.54-0.29,2.12-0.88l3.18-3.18
		c1.17-1.17,1.17-3.07,0-4.24C21.04,48.62,19.14,48.62,17.97,49.79z"/>
	<path d="M55.37,47c-3.64-2.49-5.81-6.6-5.81-10.99c0-4.4,2.17-8.51,5.8-10.98c1.1-0.74,1.73-2.03,1.63-3.36
		c-0.1-1.33-0.9-2.51-2.1-3.08c-3.36-1.61-7.12-2.21-10.88-1.72c-2.1,0.27-4.12,0.9-6,1.84V9c0-1.1-0.9-2-2-2s-2,0.9-2,2v10.63
		C25.84,20.63,19.5,27.58,19.5,36c0,8.42,6.34,15.37,14.5,16.37V63c0,1.1,0.9,2,2,2s2-0.9,2-2v-9.71c2.65,1.31,5.57,2.03,8.56,2.03
		c2.92,0,5.72-0.63,8.33-1.88c1.2-0.57,2-1.75,2.1-3.08C57.08,49.03,56.46,47.74,55.37,47z M25.5,36c0-5.11,3.66-9.37,8.5-10.3V46.3
		C29.16,45.37,25.5,41.11,25.5,36z M46.56,49.32c-3.12,0-6.16-1.12-8.56-3.14V25.83c1.95-1.65,4.29-2.69,6.78-3.02
		c1.33-0.17,2.66-0.15,3.94,0.06c-3.28,3.53-5.16,8.21-5.16,13.14c0,4.92,1.88,9.6,5.17,13.14C48.02,49.26,47.29,49.32,46.56,49.32z
		"/>
</g>
</svg>
