<?xml version="1.0" encoding="utf-8"?>
<!-- Generator: Adobe Illustrator 28.1.0, SVG Export Plug-In . SVG Version: 6.00 Build 0)  -->
<svg version="1.1" id="Layer_1" xmlns="http://www.w3.org/2000/svg" xmlns:xlink="http://www.w3.org/1999/xlink" x="0px" y="0px"
	 viewBox="0 0 72 72" style="enable-background:new 0 0 72 72;" xml:space="preserve">
<g>
	<path d="M36,6C19.46,6,6,19.46,6,36s13.46,30,30,30s30-13.46,30-30S52.54,6,36,6z M36,60c-13.23,0-24-10.77-24-24s10.77-24,24-24
		s24,10.77,24,24S49.23,60,36,60z"/>
	<path d="M38.5,18h-5c-0.28,0-0.5,0.22-0.5,0.5v26c0,0.28,0.22,0.5,0.5,0.5h5c0.28,0,0.5-0.22,0.5-0.5v-26
		C39,18.22,38.78,18,38.5,18z"/>
	<path d="M38.77,51.35c-0.07-0.18-0.17-0.35-0.28-0.51c-0.1-0.17-0.23-0.32-0.37-0.46c-0.14-0.14-0.29-0.26-0.45-0.37
		c-0.17-0.11-0.34-0.2-0.52-0.28c-0.18-0.07-0.37-0.13-0.56-0.17c-0.39-0.08-0.79-0.08-1.18,0c-0.19,0.04-0.38,0.1-0.56,0.17
		c-0.18,0.08-0.35,0.17-0.51,0.28c-0.17,0.11-0.32,0.23-0.46,0.37s-0.26,0.29-0.37,0.46c-0.11,0.16-0.2,0.33-0.28,0.51
		c-0.07,0.18-0.13,0.37-0.17,0.56c-0.04,0.2-0.06,0.4-0.06,0.59c0,0.2,0.02,0.39,0.06,0.59c0.04,0.19,0.1,0.38,0.17,0.56
		c0.08,0.18,0.17,0.35,0.28,0.52c0.11,0.16,0.23,0.31,0.37,0.45c0.14,0.14,0.29,0.27,0.46,0.38c0.16,0.1,0.33,0.2,0.51,0.27
		c0.18,0.08,0.37,0.13,0.56,0.17c0.2,0.04,0.4,0.06,0.59,0.06c0.2,0,0.39-0.02,0.59-0.06c0.19-0.04,0.38-0.09,0.56-0.17
		c0.18-0.07,0.35-0.17,0.52-0.27c0.16-0.11,0.31-0.24,0.45-0.38c0.14-0.14,0.27-0.29,0.37-0.45c0.11-0.17,0.21-0.34,0.28-0.52
		c0.08-0.18,0.13-0.37,0.17-0.56C38.98,52.89,39,52.7,39,52.5c0-0.19-0.02-0.39-0.06-0.59C38.9,51.72,38.85,51.53,38.77,51.35z"/>
</g>
</svg>
