<?xml version="1.0" encoding="utf-8"?>
<!-- Generator: Adobe Illustrator 28.1.0, SVG Export Plug-In . SVG Version: 6.00 Build 0)  -->
<svg version="1.1" id="Layer_1" xmlns="http://www.w3.org/2000/svg" xmlns:xlink="http://www.w3.org/1999/xlink" x="0px" y="0px"
	 viewBox="0 0 72 72" style="enable-background:new 0 0 72 72;" xml:space="preserve">
<path d="M45.65,35.2c2.82-2.61,4.6-6.32,4.6-10.45c0-7.86-6.39-14.25-14.25-14.25s-14.25,6.39-14.25,14.25
	c0,4.13,1.78,7.85,4.6,10.45c-7.47,3.6-12.64,11.25-12.64,20.09C13.71,65.48,32.28,66,36,66c3.72,0,22.29-0.52,22.29-10.71
	C58.29,46.46,53.12,38.81,45.65,35.2z M27.75,24.75c0-4.55,3.7-8.25,8.25-8.25s8.25,3.7,8.25,8.25S40.55,33,36,33
	S27.75,29.3,27.75,24.75z M36,60c-9.32-0.01-16.29-2.5-16.29-4.71C19.71,46.31,27.02,39,36,39s16.29,7.31,16.29,16.29
	C52.29,57.51,45.32,59.99,36,60z"/>
</svg>
