<?xml version="1.0" encoding="utf-8"?>
<!-- Generator: Adobe Illustrator 28.1.0, SVG Export Plug-In . SVG Version: 6.00 Build 0)  -->
<svg version="1.1" id="Layer_1" xmlns="http://www.w3.org/2000/svg" xmlns:xlink="http://www.w3.org/1999/xlink" x="0px" y="0px"
	 viewBox="0 0 72 72" style="enable-background:new 0 0 72 72;" xml:space="preserve">
<g>
	<path d="M63.43,67.5h-5c-0.28,0-0.5-0.22-0.5-0.5V54h6v13C63.93,67.28,63.71,67.5,63.43,67.5z"/>
	<path d="M54.43,67.5h-5c-0.28,0-0.5-0.22-0.5-0.5V54h6v13C54.93,67.28,54.71,67.5,54.43,67.5z"/>
</g>
<g>
	<path d="M23.71,57H7.41c-1.96,0-3.62-1.41-3.95-3.34L1.32,40.81c-0.7-4.19,0.48-8.46,3.22-11.7S11.31,24,15.56,24
		s8.27,1.86,11.02,5.1s3.92,7.51,3.22,11.7l-2.14,12.85C27.34,55.6,25.68,57,23.71,57z M9.1,51h12.92l1.86-11.18
		c0.41-2.45-0.28-4.94-1.88-6.84S18.05,30,15.56,30s-4.83,1.09-6.44,2.98s-2.29,4.39-1.88,6.84L9.1,51z"/>
	<g>
		<path d="M22.56,67.5h-5c-0.28,0-0.5-0.22-0.5-0.5V54h6v13C23.06,67.28,22.84,67.5,22.56,67.5z"/>
		<path d="M13.56,67.5h-5c-0.28,0-0.5-0.22-0.5-0.5V54h6v13C14.06,67.28,13.84,67.5,13.56,67.5z"/>
	</g>
	<path d="M15.56,30c-5.38,0-9.75-4.37-9.75-9.75s4.37-9.75,9.75-9.75s9.75,4.37,9.75,9.75S20.94,30,15.56,30z M15.56,16.5
		c-2.07,0-3.75,1.68-3.75,3.75S13.49,24,15.56,24s3.75-1.68,3.75-3.75S17.63,16.5,15.56,16.5z"/>
</g>
<path d="M56.43,30c-5.38,0-9.75-4.37-9.75-9.75s4.37-9.75,9.75-9.75s9.75,4.37,9.75,9.75S61.81,30,56.43,30z M56.43,16.5
	c-2.07,0-3.75,1.68-3.75,3.75S54.36,24,56.43,24s3.75-1.68,3.75-3.75S58.5,16.5,56.43,16.5z"/>
<path d="M66.5,57H46.36c-1.18,0-2.29-0.52-3.05-1.42c-0.76-0.9-1.09-2.08-0.89-3.24l3.2-19.18C46.5,27.85,51.05,24,56.43,24
	s9.93,3.85,10.82,9.17l3.2,19.18c0.19,1.16-0.13,2.34-0.89,3.24S67.68,57,66.5,57z M48.72,51h15.42l-2.81-16.85
	c-0.4-2.41-2.46-4.15-4.9-4.15s-4.5,1.75-4.9,4.15L48.72,51z"/>
<path d="M37.5,67.5h-3c-0.28,0-0.5-0.22-0.5-0.5V5c0-0.28,0.22-0.5,0.5-0.5h3C37.78,4.5,38,4.72,38,5v62
	C38,67.28,37.78,67.5,37.5,67.5z"/>
</svg>
