<?xml version="1.0" encoding="utf-8"?>
<!-- Generator: Adobe Illustrator 28.1.0, SVG Export Plug-In . SVG Version: 6.00 Build 0)  -->
<svg version="1.1" id="Layer_1" xmlns="http://www.w3.org/2000/svg" xmlns:xlink="http://www.w3.org/1999/xlink" x="0px" y="0px"
	 viewBox="0 0 72 72" style="enable-background:new 0 0 72 72;" xml:space="preserve">
<path d="M36,66C19.46,66,6,52.54,6,36S19.46,6,36,6s30,13.46,30,30S52.54,66,36,66z M36,12c-13.23,0-24,10.77-24,24s10.77,24,24,24
	s24-10.77,24-24S49.23,12,36,12z"/>
<path d="M44.65,47.48L34.59,37.41C34.21,37.04,34,36.53,34,36V16.5c0-0.28,0.22-0.5,0.5-0.5h3c0.28,0,0.5,0.22,0.5,0.5v18.67
	l9.47,9.48c0.2,0.2,0.2,0.51,0,0.71l-2.12,2.12C45.16,47.67,44.84,47.67,44.65,47.48z"/>
</svg>
