<?xml version="1.0" encoding="utf-8"?>
<!-- Generator: Adobe Illustrator 28.1.0, SVG Export Plug-In . SVG Version: 6.00 Build 0)  -->
<svg version="1.1" id="Layer_1" xmlns="http://www.w3.org/2000/svg" xmlns:xlink="http://www.w3.org/1999/xlink" x="0px" y="0px"
	 viewBox="0 0 72 72" style="enable-background:new 0 0 72 72;" xml:space="preserve">
<path d="M17.65,57.89l-3.54-3.54c-0.2-0.2-0.2-0.51,0-0.71l39.54-39.54c0.2-0.2,0.51-0.2,0.71,0l3.54,3.54c0.2,0.2,0.2,0.51,0,0.71
	L18.35,57.89C18.16,58.08,17.84,58.08,17.65,57.89z"/>
<path d="M53.65,57.89L14.11,18.35c-0.2-0.2-0.2-0.51,0-0.71l3.54-3.54c0.2-0.2,0.51-0.2,0.71,0l39.54,39.54c0.2,0.2,0.2,0.51,0,0.71
	l-3.54,3.54C54.16,58.08,53.84,58.08,53.65,57.89z"/>
</svg>
