<?xml version="1.0" encoding="utf-8"?>
<!-- Generator: Adobe Illustrator 28.1.0, SVG Export Plug-In . SVG Version: 6.00 Build 0)  -->
<svg version="1.1" id="Layer_1" xmlns="http://www.w3.org/2000/svg" xmlns:xlink="http://www.w3.org/1999/xlink" x="0px" y="0px"
	 viewBox="0 0 72 72" style="enable-background:new 0 0 72 72;" xml:space="preserve">
<path d="M26.42,61.5H9.58c-1.01,0-1.98-0.44-2.64-1.21c-0.6-0.69-0.9-1.57-0.85-2.47L6.03,47.56c-0.02-4.93,0.57-9.85,1.77-14.63
	l2.7-10.75V14c0-1.93,1.57-3.5,3.5-3.5h8c1.93,0,3.5,1.57,3.5,3.5v8.18l2.7,10.75c1.2,4.78,1.79,9.71,1.77,14.63l-0.05,10.26
	c0.04,0.9-0.26,1.78-0.85,2.47C28.4,61.06,27.44,61.5,26.42,61.5z M12.07,55.5h11.86l0.04-7.96c0.02-4.43-0.51-8.85-1.59-13.15
	L19.5,22.5v-6h-3l-0.1,6.83l-2.77,11.06c-1.08,4.3-1.61,8.72-1.59,13.15L12.07,55.5z M13.5,22.5L13.5,22.5L13.5,22.5z M22,16.5
	L22,16.5L22,16.5z"/>
<path d="M39,61.5h-6v-9.38c0-5.04,0.81-10.03,2.4-14.81c0.79-2.38,1.37-4.83,1.71-7.3H32c-1.93,0-3.5-1.57-3.5-3.5V14
	c0-1.93,1.57-3.5,3.5-3.5h11.5v13.88c0,5.04-0.81,10.03-2.4,14.81c-1.39,4.17-2.1,8.52-2.1,12.92V61.5z M34.5,24h3v-7.5h-3V24z"/>
<path d="M61,61.5H46.5v-6H60v-39H46.5v-6H61c2.76,0,5,2.24,5,5v41C66,59.26,63.76,61.5,61,61.5z"/>
<rect x="47.5" y="21.11" width="17.5" height="4"/>
<rect x="47.5" y="29.5" width="17.5" height="4"/>
<rect x="47.5" y="38.5" width="17.5" height="4"/>
<rect x="47.5" y="47.5" width="17.5" height="4"/>
<rect x="11.5" y="20.57" width="13.01" height="4"/>
</svg>
