<?xml version="1.0" encoding="utf-8"?>
<!-- Generator: Adobe Illustrator 28.1.0, SVG Export Plug-In . SVG Version: 6.00 Build 0)  -->
<svg version="1.1" id="Layer_1" xmlns="http://www.w3.org/2000/svg" xmlns:xlink="http://www.w3.org/1999/xlink" x="0px" y="0px"
	 viewBox="0 0 72 72" style="enable-background:new 0 0 72 72;" xml:space="preserve">
<g>
	<path d="M36,57c11.58,0,21-9.42,21-21s-9.42-21-21-21s-21,9.42-21,21S24.42,57,36,57z M36,21c8.27,0,15,6.73,15,15s-6.73,15-15,15
		s-15-6.73-15-15S27.73,21,36,21z"/>
	<path d="M33.5,12h5c0.28,0,0.5-0.22,0.5-0.5V2c0-0.28-0.22-0.5-0.5-0.5h-5C33.22,1.5,33,1.72,33,2v9.5C33,11.78,33.22,12,33.5,12z"
		/>
	<path d="M38.5,70.5c0.28,0,0.5-0.22,0.5-0.5v-9.5c0-0.28-0.22-0.5-0.5-0.5h-5c-0.28,0-0.5,0.22-0.5,0.5V70c0,0.28,0.22,0.5,0.5,0.5
		H38.5z"/>
	<path d="M2,39h9.5c0.28,0,0.5-0.22,0.5-0.5v-5c0-0.28-0.22-0.5-0.5-0.5H2c-0.28,0-0.5,0.22-0.5,0.5v5C1.5,38.78,1.72,39,2,39z"/>
	<path d="M70,33h-9.5c-0.28,0-0.5,0.22-0.5,0.5v5c0,0.28,0.22,0.5,0.5,0.5H70c0.28,0,0.5-0.22,0.5-0.5v-5C70.5,33.22,70.28,33,70,33
		z"/>
	<path d="M16.55,20.8c0.2,0.2,0.51,0.2,0.71,0l3.54-3.54c0.2-0.2,0.2-0.51,0-0.71l-6.72-6.72c-0.2-0.2-0.51-0.2-0.71,0l-3.54,3.54
		c-0.2,0.2-0.2,0.51,0,0.71L16.55,20.8z"/>
	<path d="M55.45,51.2c-0.2-0.2-0.51-0.2-0.71,0l-3.54,3.54c-0.2,0.2-0.2,0.51,0,0.71l6.72,6.72c0.2,0.2,0.51,0.2,0.71,0l3.54-3.54
		c0.2-0.2,0.2-0.51,0-0.71L55.45,51.2z"/>
	<path d="M13.37,62.16c0.2,0.2,0.51,0.2,0.71,0l6.72-6.72c0.2-0.2,0.2-0.51,0-0.71l-3.54-3.54c-0.2-0.2-0.51-0.2-0.71,0l-6.72,6.72
		c-0.2,0.2-0.2,0.51,0,0.71L13.37,62.16z"/>
	<path d="M54.74,20.8c0.2,0.2,0.51,0.2,0.71,0l6.72-6.72c0.2-0.2,0.2-0.51,0-0.71l-3.54-3.54c-0.2-0.2-0.51-0.2-0.71,0l-6.72,6.72
		c-0.2,0.2-0.2,0.51,0,0.71L54.74,20.8z"/>
</g>
</svg>
