<?xml version="1.0" encoding="utf-8"?>
<!-- Generator: Adobe Illustrator 28.1.0, SVG Export Plug-In . SVG Version: 6.00 Build 0)  -->
<svg version="1.1" id="Layer_1" xmlns="http://www.w3.org/2000/svg" xmlns:xlink="http://www.w3.org/1999/xlink" x="0px" y="0px"
	 viewBox="0 0 72 72" style="enable-background:new 0 0 72 72;" xml:space="preserve">
<g>
	<path d="M15.5,66.58H43c2.76,0,5-2.24,5-5v-26c0-5.38-3.89-9.86-9-10.81v-0.02c0-4.33-2.84-8-6.75-9.27V12H45V6H20.25v6h6v3.48
		c-3.91,1.27-6.75,4.94-6.75,9.27v0.02c-5.11,0.94-9,5.43-9,10.81v26C10.5,64.34,12.74,66.58,15.5,66.58z M16.5,60.58v-8.65
		c5.3-0.53,8.59-2.41,11.78-4.24c3.46-1.99,7.02-4.03,13.72-4.51v17.4H16.5z M29.25,21c2.01,0,3.64,1.59,3.73,3.58h-7.47
		C25.61,22.59,27.24,21,29.25,21z M21.5,30.58H37c2.76,0,5,2.24,5,5v3.6c-7.79,0.5-11.98,2.9-15.71,5.04
		c-2.95,1.7-5.58,3.21-9.79,3.69V35.58C16.5,32.82,18.74,30.58,21.5,30.58z"/>
	<path d="M56.25,29c4.83,0,8.75-3.93,8.75-8.75s-3.92-8.75-8.75-8.75s-8.75,3.93-8.75,8.75S51.42,29,56.25,29z M56.25,15.5
		c2.62,0,4.75,2.13,4.75,4.75S58.87,25,56.25,25s-4.75-2.13-4.75-4.75S53.63,15.5,56.25,15.5z"/>
	<path d="M58.5,47c3.58,0,6.5-2.92,6.5-6.5S62.08,34,58.5,34S52,36.92,52,40.5S54.92,47,58.5,47z M58.5,38c1.38,0,2.5,1.12,2.5,2.5
		S59.88,43,58.5,43S56,41.88,56,40.5S57.12,38,58.5,38z"/>
</g>
</svg>
