<?xml version="1.0" encoding="utf-8"?>
<!-- Generator: Adobe Illustrator 28.1.0, SVG Export Plug-In . SVG Version: 6.00 Build 0)  -->
<svg version="1.1" id="Layer_1" xmlns="http://www.w3.org/2000/svg" xmlns:xlink="http://www.w3.org/1999/xlink" x="0px" y="0px"
	 viewBox="0 0 72 72" style="enable-background:new 0 0 72 72;" xml:space="preserve">
<g>
	<path d="M55.02,19.95l-1.97-1.97c-1.32-1.32-3.08-2.05-4.95-2.05s-3.63,0.73-4.95,2.05L4.25,56.87c-2.73,2.73-2.73,7.17,0,9.9
		l1.97,1.97v0c1.36,1.36,3.16,2.05,4.95,2.05c1.79,0,3.59-0.68,4.95-2.05l38.89-38.89C57.75,27.12,57.75,22.68,55.02,19.95z
		 M11.88,64.5c-0.39,0.39-1.02,0.39-1.42,0L8.5,62.53c-0.39-0.39-0.39-1.02,0-1.41l5.3-5.3l3.39,3.39L11.88,64.5z M20.02,56.37
		l-3.39-3.39l22.63-22.63l3.39,3.39L20.02,56.37z M50.77,25.61l-5.3,5.3l-3.39-3.39l5.3-5.3c0.25-0.25,0.55-0.29,0.71-0.29
		s0.45,0.04,0.71,0.29l1.97,1.97c0.25,0.26,0.29,0.55,0.29,0.71S51.03,25.36,50.77,25.61z"/>
	<path d="M34.35,13.43l-2.12-2.12c-0.2-0.2-0.51-0.2-0.71,0l-2.83,2.83l-2.83-2.83c-0.2-0.2-0.51-0.2-0.71,0l-2.12,2.12
		c-0.2,0.2-0.2,0.51,0,0.71l2.83,2.83l-2.83,2.83c-0.2,0.2-0.2,0.51,0,0.71l2.12,2.12c0.2,0.2,0.51,0.2,0.71,0l2.83-2.83l2.83,2.83
		c0.2,0.2,0.51,0.2,0.71,0l2.12-2.12c0.2-0.2,0.2-0.51,0-0.71l-2.83-2.83l2.83-2.83C34.55,13.95,34.55,13.63,34.35,13.43z"/>
	<path d="M67.11,8.01l-2.12-2.12c-0.2-0.2-0.51-0.2-0.71,0l-2.83,2.83l-2.83-2.83c-0.2-0.2-0.51-0.2-0.71,0L55.8,8.01
		c-0.2,0.2-0.2,0.51,0,0.71l2.83,2.83l-2.83,2.83c-0.2,0.2-0.2,0.51,0,0.71l2.12,2.12c0.2,0.2,0.51,0.2,0.71,0l2.83-2.83l2.83,2.83
		c0.2,0.2,0.51,0.2,0.71,0l2.12-2.12c0.2-0.2,0.2-0.51,0-0.71l-2.83-2.83l2.83-2.83C67.31,8.52,67.31,8.2,67.11,8.01z"/>
	<path d="M61.69,40.77l-2.12-2.12c-0.2-0.2-0.51-0.2-0.71,0l-2.83,2.83l-2.83-2.83c-0.2-0.2-0.51-0.2-0.71,0l-2.12,2.12
		c-0.2,0.2-0.2,0.51,0,0.71l2.83,2.83l-2.83,2.83c-0.2,0.2-0.2,0.51,0,0.71l2.12,2.12c0.2,0.2,0.51,0.2,0.71,0l2.83-2.83l2.83,2.83
		c0.2,0.2,0.51,0.2,0.71,0l2.12-2.12c0.2-0.2,0.2-0.51,0-0.71l-2.83-2.83l2.83-2.83C61.88,41.28,61.88,40.96,61.69,40.77z"/>
</g>
</svg>
