<?xml version="1.0" encoding="utf-8"?>
<!-- Generator: Adobe Illustrator 28.1.0, SVG Export Plug-In . SVG Version: 6.00 Build 0)  -->
<svg version="1.1" id="Layer_1" xmlns="http://www.w3.org/2000/svg" xmlns:xlink="http://www.w3.org/1999/xlink" x="0px" y="0px"
	 viewBox="0 0 72 72" style="enable-background:new 0 0 72 72;" xml:space="preserve">
<g>
	<g>
		<path d="M17.67,20.5H14c-0.28,0-0.5,0.22-0.5,0.5v3c0,0.28,0.22,0.5,0.5,0.5h8.5c1.1,0,2-0.9,2-2V14c0-0.28-0.22-0.5-0.5-0.5h-3
			c-0.28,0-0.5,0.22-0.5,0.5v3.67l-9.73-9.73c-0.2-0.2-0.51-0.2-0.71,0l-2.12,2.12c-0.2,0.2-0.2,0.51,0,0.71L17.67,20.5z"/>
	</g>
	<g>
		<path d="M10.06,64.06c0.2,0.2,0.51,0.2,0.71,0l9.73-9.73V58c0,0.28,0.22,0.5,0.5,0.5h3c0.28,0,0.5-0.22,0.5-0.5v-8.5
			c0-1.1-0.9-2-2-2H14c-0.28,0-0.5,0.22-0.5,0.5v3c0,0.28,0.22,0.5,0.5,0.5h3.67l-9.73,9.73c-0.2,0.2-0.2,0.51,0,0.71L10.06,64.06z"
			/>
	</g>
	<g>
		<path d="M48,58.5h3c0.28,0,0.5-0.22,0.5-0.5v-3.67l9.73,9.73c0.2,0.2,0.51,0.2,0.71,0l2.12-2.12c0.2-0.2,0.2-0.51,0-0.71
			l-9.73-9.73H58c0.28,0,0.5-0.22,0.5-0.5v-3c0-0.28-0.22-0.5-0.5-0.5h-8.5c-1.1,0-2,0.9-2,2V58C47.5,58.28,47.72,58.5,48,58.5z"/>
	</g>
	<g>
		<path d="M51.5,17.67V14c0-0.28-0.22-0.5-0.5-0.5h-3c-0.28,0-0.5,0.22-0.5,0.5v8.5c0,1.1,0.9,2,2,2H58c0.28,0,0.5-0.22,0.5-0.5v-3
			c0-0.28-0.22-0.5-0.5-0.5h-3.67l9.73-9.73c0.2-0.2,0.2-0.51,0-0.71l-2.12-2.12c-0.2-0.2-0.51-0.2-0.71,0L51.5,17.67z"/>
	</g>
	<g>
		<path d="M24,36c0,6.62,5.38,12,12,12s12-5.38,12-12s-5.38-12-12-12S24,29.38,24,36z M42,36c0,3.31-2.69,6-6,6s-6-2.69-6-6
			s2.69-6,6-6S42,32.69,42,36z"/>
	</g>
</g>
</svg>
