<?xml version="1.0" encoding="utf-8"?>
<!-- Generator: Adobe Illustrator 28.1.0, SVG Export Plug-In . SVG Version: 6.00 Build 0)  -->
<svg version="1.1" id="Layer_1" xmlns="http://www.w3.org/2000/svg" xmlns:xlink="http://www.w3.org/1999/xlink" x="0px" y="0px"
	 viewBox="0 0 72 72" style="enable-background:new 0 0 72 72;" xml:space="preserve">
<g>
	<path d="M17.25,27.56c0,0.15,0.02,0.29,0.02,0.44c-0.13,0.07-0.26,0.13-0.39,0.2c-4.34,2.5-7.44,6.55-8.74,11.39
		c-1.3,4.84-0.63,9.89,1.87,14.23c3.47,6.01,9.78,9.37,16.27,9.37c3.18,0,6.4-0.81,9.34-2.51c0.13-0.07,0.24-0.16,0.37-0.24
		c0.13,0.08,0.24,0.16,0.37,0.24c2.95,1.7,6.16,2.51,9.34,2.51c6.48,0,12.8-3.36,16.27-9.37c2.5-4.34,3.17-9.39,1.87-14.23
		c-1.3-4.84-4.4-8.88-8.74-11.39c-0.13-0.07-0.26-0.13-0.39-0.2c0-0.15,0.02-0.29,0.02-0.44c0-10.34-8.41-18.75-18.75-18.75
		S17.25,17.22,17.25,27.56z M43.73,37.68c-0.35-0.89-0.74-1.77-1.23-2.62c-0.49-0.85-1.06-1.64-1.66-2.38
		c1.56-0.65,3.23-0.99,4.93-0.99c0.74,0,1.48,0.07,2.21,0.2C47.14,34.2,45.65,36.21,43.73,37.68z M38.57,47.74
		c-0.49,1.84-1.38,3.5-2.57,4.91c-1.19-1.41-2.08-3.07-2.57-4.91c-0.15-0.55-0.25-1.11-0.32-1.67c0.94,0.15,1.91,0.25,2.89,0.25
		s1.95-0.1,2.89-0.25C38.82,46.62,38.72,47.18,38.57,47.74z M37.3,38.06c0.38,0.66,0.69,1.34,0.94,2.04
		c-0.73,0.13-1.47,0.21-2.24,0.21s-1.51-0.08-2.24-0.21c0.25-0.7,0.56-1.38,0.94-2.04c0.38-0.66,0.83-1.25,1.3-1.81
		C36.47,36.81,36.92,37.4,37.3,38.06z M29.5,35.06c-0.49,0.85-0.89,1.72-1.23,2.62c-1.92-1.47-3.41-3.47-4.25-5.79
		c0.74-0.13,1.48-0.2,2.21-0.2c1.69,0,3.37,0.34,4.93,0.99C30.56,33.43,30,34.21,29.5,35.06z M15.22,50.81
		c-1.7-2.95-2.16-6.39-1.27-9.67c0.74-2.76,2.35-5.13,4.59-6.83c1.6,4.14,4.62,7.57,8.47,9.69c-0.04,1.76,0.17,3.54,0.63,5.29
		c0.69,2.57,1.9,4.9,3.52,6.91C25.33,58.62,18.45,56.42,15.22,50.81z M58.06,41.14c0.88,3.29,0.43,6.73-1.27,9.67
		c-3.24,5.6-10.11,7.81-15.93,5.39c1.62-2.01,2.83-4.34,3.52-6.91c0.47-1.75,0.67-3.53,0.63-5.29c3.85-2.12,6.87-5.55,8.47-9.69
		C55.71,36.01,57.32,38.38,58.06,41.14z M36,14.81c6.48,0,11.83,4.86,12.63,11.12c-4.39-0.68-8.87,0.22-12.63,2.49
		c-3.76-2.28-8.25-3.17-12.63-2.49C24.17,19.67,29.52,14.81,36,14.81z"/>
</g>
</svg>
