<?xml version="1.0" encoding="utf-8"?>
<!-- Generator: Adobe Illustrator 28.1.0, SVG Export Plug-In . SVG Version: 6.00 Build 0)  -->
<svg version="1.1" id="Layer_1" xmlns="http://www.w3.org/2000/svg" xmlns:xlink="http://www.w3.org/1999/xlink" x="0px" y="0px"
	 viewBox="0 0 72 72" style="enable-background:new 0 0 72 72;" xml:space="preserve">
<g>
	<path d="M62,37.5h-1.65l-7.89-15.79c-0.68-1.36-2.05-2.21-3.58-2.21H23.12c-1.52,0-2.9,0.85-3.58,2.21L11.65,37.5H10
		c-2.21,0-4,1.79-4,4V51v6v5c0,2.21,1.79,4,4,4h2.5c2.21,0,4-1.79,4-4v-5h39v5c0,2.21,1.79,4,4,4H62c2.21,0,4-1.79,4-4v-5v-6v-9.5
		C66,39.29,64.21,37.5,62,37.5z M16.44,45.59c-0.04,0.19-0.09,0.38-0.17,0.56C16.2,46.33,16.1,46.5,16,46.67
		c-0.11,0.16-0.24,0.31-0.38,0.45c-0.14,0.14-0.29,0.27-0.45,0.38c-0.17,0.1-0.34,0.2-0.52,0.27c-0.18,0.08-0.37,0.13-0.56,0.17
		C13.89,47.98,13.7,48,13.5,48c-0.79,0-1.56-0.32-2.12-0.88c-0.14-0.14-0.26-0.29-0.37-0.45c-0.11-0.17-0.2-0.34-0.28-0.52
		c-0.07-0.18-0.13-0.37-0.17-0.56c-0.04-0.2-0.06-0.39-0.06-0.59s0.02-0.39,0.06-0.59c0.04-0.19,0.1-0.38,0.17-0.56
		c0.08-0.18,0.17-0.35,0.28-0.51c0.11-0.17,0.23-0.32,0.37-0.46c0.7-0.7,1.73-1.02,2.71-0.82c0.19,0.04,0.38,0.09,0.56,0.17
		s0.35,0.17,0.52,0.28c0.16,0.1,0.31,0.23,0.45,0.37c0.14,0.14,0.27,0.29,0.38,0.46c0.1,0.16,0.2,0.33,0.27,0.51
		c0.08,0.18,0.13,0.37,0.17,0.56c0.04,0.2,0.06,0.39,0.06,0.59C16.5,45.19,16.48,45.39,16.44,45.59z M18.35,37.5l6-12h23.29l6,12
		H18.35z M61.44,45.59c-0.04,0.19-0.09,0.38-0.17,0.56C61.2,46.33,61.1,46.5,61,46.67c-0.11,0.16-0.24,0.31-0.38,0.45
		C60.06,47.68,59.29,48,58.5,48c-0.2,0-0.39-0.02-0.59-0.06c-0.19-0.04-0.38-0.09-0.56-0.17C57.17,47.7,57,47.6,56.83,47.5
		c-0.16-0.11-0.31-0.24-0.45-0.38c-0.14-0.14-0.26-0.29-0.37-0.45c-0.11-0.17-0.2-0.34-0.28-0.52c-0.07-0.18-0.13-0.37-0.17-0.56
		c-0.04-0.2-0.06-0.4-0.06-0.59c0-0.2,0.02-0.39,0.06-0.59c0.04-0.19,0.1-0.38,0.17-0.56c0.08-0.18,0.17-0.35,0.28-0.51
		c0.11-0.17,0.23-0.32,0.37-0.46s0.29-0.27,0.45-0.37c0.17-0.11,0.34-0.2,0.52-0.28c0.18-0.08,0.37-0.13,0.56-0.17
		c0.98-0.2,2.02,0.12,2.71,0.82c0.14,0.14,0.27,0.29,0.38,0.46c0.1,0.16,0.2,0.33,0.27,0.51c0.08,0.18,0.13,0.37,0.17,0.56
		c0.04,0.2,0.06,0.39,0.06,0.59S61.48,45.39,61.44,45.59z"/>
	<path d="M40.5,15.5h7c2.21,0,4-1.79,4-4v-5c0-2.21-1.79-4-4-4h-7c-2.21,0-4,1.79-4,4V7H23c-0.28,0-0.5,0.22-0.5,0.5
		c0,1.93,1.57,3.5,3.5,3.5h10.5v0.5C36.5,13.71,38.29,15.5,40.5,15.5z M43.04,8.61c0.03-0.13,0.06-0.25,0.11-0.37
		C43.2,8.11,43.27,8,43.34,7.89c0.07-0.11,0.15-0.21,0.25-0.3c0.09-0.1,0.19-0.18,0.3-0.25C44,7.27,44.11,7.2,44.24,7.15
		c0.12-0.05,0.24-0.09,0.37-0.11c0.65-0.13,1.34,0.08,1.81,0.55c0.09,0.09,0.17,0.19,0.24,0.3C46.74,8,46.8,8.11,46.85,8.24
		c0.05,0.12,0.09,0.24,0.11,0.37C46.99,8.74,47,8.87,47,9s-0.01,0.26-0.04,0.39c-0.02,0.13-0.06,0.26-0.11,0.38
		c-0.05,0.12-0.11,0.23-0.19,0.34c-0.07,0.11-0.15,0.21-0.24,0.3C46.04,10.79,45.53,11,45,11c-0.53,0-1.04-0.21-1.41-0.59
		c-0.1-0.09-0.18-0.19-0.25-0.3C43.27,10,43.2,9.89,43.15,9.77c-0.05-0.12-0.08-0.25-0.11-0.38C43.01,9.26,43,9.13,43,9
		S43.01,8.74,43.04,8.61z"/>
</g>
</svg>
