<?xml version="1.0" encoding="utf-8"?>
<!-- Generator: Adobe Illustrator 28.1.0, SVG Export Plug-In . SVG Version: 6.00 Build 0)  -->
<svg version="1.1" id="Layer_1" xmlns="http://www.w3.org/2000/svg" xmlns:xlink="http://www.w3.org/1999/xlink" x="0px" y="0px"
	 viewBox="0 0 72 72" style="enable-background:new 0 0 72 72;" xml:space="preserve">
<g>
	<g>
		<path d="M59.77,11.52L58,9.76v0l-5.15-5.15c-0.2-0.2-0.51-0.2-0.71,0l-3.54,3.54c-0.2,0.2-0.2,0.51,0,0.71L53.76,14L47,20.76
			l-2.67-2.67c-1.51-1.51-4.15-1.51-5.66,0L12.59,44.17c-0.76,0.76-1.17,1.76-1.17,2.83s0.42,2.07,1.17,2.83l3.38,3.38l-9.94,9.94
			c-0.2,0.2-0.2,0.51,0,0.71l2.12,2.12c0.2,0.2,0.51,0.2,0.71,0l9.94-9.94l3.38,3.38c0.75,0.76,1.76,1.17,2.83,1.17
			s2.07-0.42,2.83-1.17l26.09-26.09c0.76-0.76,1.17-1.76,1.17-2.83s-0.42-2.07-1.17-2.83L51.24,25L58,18.24l5.15,5.15
			c0.2,0.2,0.51,0.2,0.71,0l3.54-3.54c0.2-0.2,0.2-0.51,0-0.71L59.77,11.52z M48.26,30.5l-1.96,1.96l-4.44-4.44
			c-0.2-0.2-0.51-0.2-0.71,0l-2.12,2.12c-0.2,0.2-0.2,0.51,0,0.71l4.44,4.44l-2.67,2.67l-4.44-4.44c-0.2-0.2-0.51-0.2-0.71,0
			l-2.12,2.12c-0.2,0.2-0.2,0.51,0,0.71l4.44,4.44l-2.67,2.67l-4.44-4.44c-0.2-0.2-0.51-0.2-0.71,0l-2.12,2.12
			c-0.2,0.2-0.2,0.51,0,0.71l4.44,4.44l-2.67,2.67l-4.44-4.44c-0.2-0.2-0.51-0.2-0.71,0l-2.12,2.12c-0.2,0.2-0.2,0.51,0,0.71
			l4.44,4.44L25,53.76L18.24,47L41.5,23.74l3.38,3.38L47,29.24l0,0L48.26,30.5z"/>
	</g>
</g>
</svg>
