<?xml version="1.0" encoding="utf-8"?>
<!-- Generator: Adobe Illustrator 28.1.0, SVG Export Plug-In . SVG Version: 6.00 Build 0)  -->
<svg version="1.1" id="Layer_1" xmlns="http://www.w3.org/2000/svg" xmlns:xlink="http://www.w3.org/1999/xlink" x="0px" y="0px"
	 viewBox="0 0 72 72" style="enable-background:new 0 0 72 72;" xml:space="preserve">
<g>
	<path d="M29.25,11v5c0,0.28,0.22,0.5,0.5,0.5H33V21L15.2,34.35c-0.13,0.09-0.2,0.24-0.2,0.4V61c0,0.28,0.22,0.5,0.5,0.5h18v-19h5
		v19h18c0.28,0,0.5-0.22,0.5-0.5V34.75c0-0.16-0.07-0.31-0.2-0.4L39,21v-4.5h3.25c0.28,0,0.5-0.22,0.5-0.5v-5
		c0-0.28-0.22-0.5-0.5-0.5H39v-4C39,6.22,38.78,6,38.5,6h-5C33.22,6,33,6.22,33,6.5v4h-3.25C29.47,10.5,29.25,10.72,29.25,11z
		 M36,26.25L51,37.5v18h-8.5v-17h-13v17H21v-18L36,26.25z"/>
</g>
</svg>
