<?xml version="1.0" encoding="utf-8"?>
<!-- Generator: Adobe Illustrator 28.1.0, SVG Export Plug-In . SVG Version: 6.00 Build 0)  -->
<svg version="1.1" id="Layer_1" xmlns="http://www.w3.org/2000/svg" xmlns:xlink="http://www.w3.org/1999/xlink" x="0px" y="0px"
	 viewBox="0 0 72 72" style="enable-background:new 0 0 72 72;" xml:space="preserve">
<g>
	<path d="M46.14,51.73H23.27c-1.66,0-3-1.34-3-3V25.86c0-0.28,0.22-0.5,0.5-0.5h5c0.28,0,0.5,0.22,0.5,0.5v19.86h19.86
		c0.28,0,0.5,0.22,0.5,0.5v5C46.64,51.5,46.41,51.73,46.14,51.73z"/>
	<path d="M27,49.24L22.76,45l25.62-25.62c0.2-0.2,0.51-0.2,0.71,0l3.54,3.54c0.2,0.2,0.2,0.51,0,0.71L27,49.24z"/>
</g>
</svg>
