<?xml version="1.0" encoding="utf-8"?>
<!-- Generator: Adobe Illustrator 28.1.0, SVG Export Plug-In . SVG Version: 6.00 Build 0)  -->
<svg version="1.1" id="Layer_1" xmlns="http://www.w3.org/2000/svg" xmlns:xlink="http://www.w3.org/1999/xlink" x="0px" y="0px"
	 viewBox="0 0 72 72" style="enable-background:new 0 0 72 72;" xml:space="preserve">
<g>
	<g>
		<path d="M46.1,57.02c-0.18-0.07-0.37-0.13-0.56-0.17c-0.98-0.19-2.01,0.12-2.71,0.82c-0.55,0.56-0.88,1.33-0.88,2.12
			c0,0.2,0.03,0.39,0.06,0.59c0.04,0.19,0.1,0.38,0.18,0.56c0.07,0.18,0.16,0.35,0.27,0.52c0.11,0.16,0.24,0.31,0.37,0.45
			c0.56,0.56,1.33,0.88,2.12,0.88c0.2,0,0.4-0.02,0.59-0.06c0.19-0.04,0.38-0.09,0.56-0.17c0.18-0.07,0.36-0.17,0.52-0.27
			c0.17-0.11,0.32-0.24,0.46-0.38c0.14-0.14,0.26-0.29,0.37-0.45c0.11-0.17,0.2-0.34,0.28-0.52c0.07-0.18,0.13-0.37,0.17-0.56
			c0.04-0.2,0.06-0.39,0.06-0.59c0-0.79-0.32-1.56-0.88-2.12c-0.14-0.14-0.29-0.26-0.46-0.37C46.46,57.19,46.28,57.1,46.1,57.02z"/>
	</g>
	<g>
		<path d="M29.45,58.13c-0.11-0.17-0.23-0.32-0.37-0.46c-0.14-0.14-0.3-0.26-0.46-0.37s-0.34-0.21-0.52-0.28
			c-0.18-0.08-0.37-0.13-0.56-0.17c-0.38-0.08-0.78-0.08-1.17,0c-0.19,0.04-0.38,0.09-0.56,0.17c-0.18,0.07-0.36,0.17-0.52,0.28
			s-0.32,0.23-0.46,0.37c-0.14,0.14-0.26,0.29-0.37,0.46c-0.11,0.16-0.2,0.33-0.27,0.51c-0.08,0.18-0.14,0.37-0.18,0.56
			c-0.04,0.2-0.06,0.39-0.06,0.59c0,0.79,0.32,1.56,0.88,2.12c0.14,0.14,0.3,0.27,0.46,0.38c0.16,0.1,0.34,0.2,0.52,0.27
			c0.18,0.08,0.37,0.13,0.56,0.17c0.19,0.04,0.39,0.06,0.59,0.06c0.19,0,0.39-0.02,0.58-0.06c0.19-0.04,0.38-0.09,0.56-0.17
			c0.18-0.07,0.36-0.17,0.52-0.27c0.16-0.11,0.32-0.24,0.46-0.38c0.14-0.14,0.26-0.29,0.37-0.45c0.11-0.17,0.2-0.34,0.28-0.52
			c0.07-0.18,0.13-0.37,0.17-0.56c0.04-0.2,0.06-0.39,0.06-0.59c0-0.2-0.02-0.39-0.06-0.59c-0.04-0.19-0.1-0.38-0.17-0.56
			C29.65,58.46,29.56,58.29,29.45,58.13z"/>
	</g>
	<g>
		<path d="M6.76,14.53l6.65,5.43l3.74,18.71c0.01,0.05,0.02,0.09,0.03,0.14l2.16,10.79c0.55,2.77,3,4.77,5.82,4.77H49.2
			c1.66,0,3-1.34,3-3s-1.34-3-3-3l-23.97,0.05l-1.45-7.27h26.56c2.92,0,5.45-2.18,5.87-5.07l2.07-13.95
			c0.25-1.71-0.25-3.44-1.38-4.75c-1.13-1.31-2.77-2.06-4.5-2.06H17.21l-6.66-5.43c-1.29-1.05-3.17-0.86-4.22,0.43
			C5.29,11.6,5.48,13.49,6.76,14.53z M52.34,21.25l-2,13.9H22.57L19.8,21.31L52.34,21.25z"/>
	</g>
</g>
</svg>
