<?xml version="1.0" encoding="utf-8"?>
<!-- Generator: Adobe Illustrator 28.1.0, SVG Export Plug-In . SVG Version: 6.00 Build 0)  -->
<svg version="1.1" id="Layer_1" xmlns="http://www.w3.org/2000/svg" xmlns:xlink="http://www.w3.org/1999/xlink" x="0px" y="0px"
	 viewBox="0 0 72 72" style="enable-background:new 0 0 72 72;" xml:space="preserve">
<g>
	<g>
		<path d="M15,66h42c4.96,0,9-4.04,9-9V15c0-4.96-4.04-9-9-9H15c-4.96,0-9,4.04-9,9v42C6,61.96,10.04,66,15,66z M12,15
			c0-1.65,1.35-3,3-3h42c1.65,0,3,1.35,3,3v35.62C59.27,51.46,58.2,52,57,52H15c-1.2,0-2.27-0.54-3-1.38V15z M57,60H15
			c-1.65,0-3-1.35-3-3v-1.59c0.93,0.38,1.94,0.59,3,0.59h42c1.06,0,2.07-0.21,3-0.59V57C60,58.65,58.65,60,57,60z"/>
	</g>
</g>
</svg>
