<?xml version="1.0" encoding="utf-8"?>
<!-- Generator: Adobe Illustrator 28.1.0, SVG Export Plug-In . SVG Version: 6.00 Build 0)  -->
<svg version="1.1" id="Layer_1" xmlns="http://www.w3.org/2000/svg" xmlns:xlink="http://www.w3.org/1999/xlink" x="0px" y="0px"
	 viewBox="0 0 72 72" style="enable-background:new 0 0 72 72;" xml:space="preserve">
<path d="M52.52,37.48c-1.17-1.17-3.07-1.17-4.24,0L39,46.76V18c0-1.66-1.34-3-3-3c-1.66,0-3,1.34-3,3v28.76l-9.28-9.28
	c-1.17-1.17-3.07-1.17-4.24,0c-1.17,1.17-1.17,3.07,0,4.24l14.4,14.4l0,0c0.14,0.14,0.29,0.26,0.45,0.37
	c0.04,0.03,0.08,0.04,0.12,0.07c0.13,0.08,0.25,0.15,0.39,0.21c0.06,0.02,0.12,0.04,0.18,0.06c0.12,0.04,0.25,0.09,0.38,0.11
	C35.6,56.98,35.8,57,36,57c0.2,0,0.4-0.02,0.59-0.06c0.14-0.03,0.27-0.08,0.4-0.12c0.05-0.02,0.11-0.03,0.16-0.05
	c0.15-0.06,0.28-0.14,0.42-0.22c0.03-0.02,0.07-0.03,0.1-0.05c0.16-0.11,0.32-0.24,0.46-0.38l14.4-14.4
	C53.69,40.55,53.69,38.65,52.52,37.48z"/>
</svg>
