<?xml version="1.0" encoding="utf-8"?>
<!-- Generator: Adobe Illustrator 28.1.0, SVG Export Plug-In . SVG Version: 6.00 Build 0)  -->
<svg version="1.1" id="Layer_1" xmlns="http://www.w3.org/2000/svg" xmlns:xlink="http://www.w3.org/1999/xlink" x="0px" y="0px"
	 viewBox="0 0 72 72" style="enable-background:new 0 0 72 72;" xml:space="preserve">
<g>
	<g>
		<path d="M13,61.5h46c3.86,0,7-3.14,7-7v-28c0-3.86-3.14-7-7-7H13c-3.86,0-7,3.14-7,7v28C6,58.36,9.14,61.5,13,61.5z M59,55.5H13
			c-0.55,0-1-0.45-1-1V28.32c0.08,0.09,0.16,0.17,0.25,0.25l22.5,18C35.12,46.85,35.56,47,36,47s0.88-0.15,1.25-0.44l22.5-18
			c0.09-0.07,0.17-0.16,0.25-0.25V54.5C60,55.05,59.55,55.5,59,55.5z M14.83,25.5h42.35L36,42.44L14.83,25.5z"/>
	</g>
</g>
</svg>
