<?xml version="1.0" encoding="utf-8"?>
<!-- Generator: Adobe Illustrator 28.1.0, SVG Export Plug-In . SVG Version: 6.00 Build 0)  -->
<svg version="1.1" id="Layer_1" xmlns="http://www.w3.org/2000/svg" xmlns:xlink="http://www.w3.org/1999/xlink" x="0px" y="0px"
	 viewBox="0 0 72 72" style="enable-background:new 0 0 72 72;" xml:space="preserve">
<g>
	<g>
		<path d="M32.02,20.92l3.29-5.7c0.19-0.33,0.48-0.4,0.69-0.4s0.5,0.07,0.69,0.4l6.56,11.37l-1.82-0.49
			c-1.6-0.43-3.25,0.51-3.68,2.11c-0.43,1.6,0.51,3.25,2.11,3.68l11.86,3.2l3.2-11.86c0.43-1.6-0.51-3.25-2.11-3.68
			c-1.6-0.44-3.25,0.51-3.68,2.11l-0.57,2.12l-6.68-11.57c-1.23-2.13-3.43-3.4-5.89-3.4s-4.66,1.27-5.89,3.4l-3.29,5.7
			c-0.83,1.43-0.34,3.27,1.1,4.1C29.36,22.85,31.19,22.36,32.02,20.92z"/>
	</g>
	<g>
		<path d="M21.83,38.57l0.54,1.99c0.36,1.34,1.57,2.22,2.89,2.22c0.26,0,0.52-0.03,0.78-0.1c1.6-0.43,2.55-2.08,2.11-3.68
			l-2.42-8.95c0,0,0,0,0,0l-0.78-2.9l-11.86,3.2c-1.6,0.43-2.55,2.08-2.11,3.68c0.43,1.6,2.08,2.55,3.68,2.11l1.95-0.53l-6.24,10.8
			c-1.23,2.13-1.23,4.67,0,6.8c1.23,2.13,3.43,3.4,5.89,3.4h6.58c1.66,0,3-1.34,3-3s-1.34-3-3-3h-6.58c-0.38,0-0.59-0.22-0.69-0.4
			c-0.11-0.18-0.19-0.47,0-0.8L21.83,38.57z"/>
	</g>
	<g>
		<path d="M61.62,53.21c1.23-2.13,1.23-4.67,0-6.8l-3.29-5.7c-0.83-1.43-2.66-1.93-4.1-1.1c-1.43,0.83-1.93,2.66-1.1,4.1l3.29,5.7
			c0.19,0.33,0.1,0.62,0,0.8c-0.1,0.18-0.31,0.4-0.69,0.4H43.24l1.44-1.44c1.17-1.17,1.17-3.07,0-4.24c-1.17-1.17-3.07-1.17-4.24,0
			l-6.56,6.56c0,0,0,0-0.01,0.01l-2.12,2.12l2.12,2.12c0,0,0,0,0.01,0.01l6.56,6.56c0.59,0.59,1.35,0.88,2.12,0.88
			s1.54-0.29,2.12-0.88c1.17-1.17,1.17-3.07,0-4.24l-1.44-1.44h12.49C58.19,56.61,60.4,55.34,61.62,53.21z"/>
	</g>
</g>
</svg>
