<?xml version="1.0" encoding="utf-8"?>
<!-- Generator: Adobe Illustrator 28.1.0, SVG Export Plug-In . SVG Version: 6.00 Build 0)  -->
<svg version="1.1" id="Layer_1" xmlns="http://www.w3.org/2000/svg" xmlns:xlink="http://www.w3.org/1999/xlink" x="0px" y="0px"
	 viewBox="0 0 72 72" style="enable-background:new 0 0 72 72;" xml:space="preserve">
<g>
	<path d="M57,15H15c-4.96,0-9,4.04-9,9v24c0,4.96,4.04,9,9,9h42c4.96,0,9-4.04,9-9V24C66,19.04,61.96,15,57,15z M15,21h42
		c1.65,0,3,1.35,3,3v5.5H12V24C12,22.35,13.35,21,15,21z M57,51H15c-1.65,0-3-1.35-3-3V33.5h48V48C60,49.65,58.65,51,57,51z"/>
	<path d="M20.77,43.85c-0.07-0.18-0.17-0.35-0.28-0.51c-0.11-0.17-0.23-0.32-0.37-0.46c-0.14-0.14-0.29-0.26-0.46-0.37
		c-0.16-0.11-0.33-0.2-0.51-0.28c-0.18-0.07-0.37-0.13-0.56-0.17c-0.39-0.08-0.79-0.08-1.18,0c-0.19,0.04-0.38,0.1-0.56,0.17
		c-0.18,0.08-0.35,0.17-0.51,0.28c-0.17,0.11-0.32,0.23-0.46,0.37c-0.14,0.14-0.26,0.29-0.37,0.46c-0.11,0.16-0.2,0.33-0.28,0.51
		s-0.13,0.37-0.17,0.56C15.02,44.61,15,44.81,15,45c0,0.79,0.32,1.56,0.88,2.12c0.14,0.14,0.29,0.27,0.46,0.37
		c0.16,0.11,0.33,0.21,0.51,0.28c0.18,0.08,0.37,0.13,0.56,0.17C17.61,47.98,17.8,48,18,48c0.2,0,0.39-0.02,0.59-0.06
		c0.19-0.04,0.38-0.09,0.56-0.17c0.18-0.07,0.35-0.17,0.51-0.28c0.17-0.1,0.32-0.23,0.46-0.37c0.14-0.14,0.26-0.29,0.37-0.45
		c0.11-0.17,0.2-0.34,0.28-0.52c0.07-0.18,0.13-0.37,0.17-0.56C20.98,45.39,21,45.2,21,45c0-0.2-0.02-0.39-0.06-0.59
		C20.9,44.22,20.84,44.03,20.77,43.85z"/>
	<path d="M29.77,43.85c-0.08-0.18-0.17-0.35-0.28-0.51c-0.11-0.17-0.23-0.32-0.37-0.46c-0.14-0.14-0.29-0.26-0.45-0.37
		c-0.17-0.11-0.34-0.2-0.52-0.28c-0.18-0.07-0.37-0.13-0.56-0.17c-0.98-0.2-2.02,0.12-2.71,0.82c-0.14,0.14-0.26,0.29-0.37,0.46
		c-0.11,0.16-0.2,0.33-0.28,0.51c-0.07,0.18-0.13,0.37-0.17,0.56C24.02,44.61,24,44.81,24,45c0,0.79,0.32,1.56,0.88,2.12
		C25.44,47.68,26.21,48,27,48c0.2,0,0.39-0.02,0.59-0.06c0.19-0.04,0.38-0.09,0.56-0.17c0.18-0.07,0.35-0.17,0.52-0.28
		c0.16-0.1,0.31-0.23,0.45-0.37C29.68,46.56,30,45.79,30,45c0-0.19-0.02-0.39-0.06-0.59C29.9,44.22,29.85,44.03,29.77,43.85z"/>
</g>
</svg>
