<?xml version="1.0" encoding="utf-8"?>
<!-- Generator: Adobe Illustrator 28.1.0, SVG Export Plug-In . SVG Version: 6.00 Build 0)  -->
<svg version="1.1" id="Layer_1" xmlns="http://www.w3.org/2000/svg" xmlns:xlink="http://www.w3.org/1999/xlink" x="0px" y="0px"
	 viewBox="0 0 72 72" style="enable-background:new 0 0 72 72;" xml:space="preserve">
<g>
	<path d="M45.32,48.22C41.36,45.4,39,40.83,39,36c0-4.83,2.36-9.4,6.32-12.22c1.17-0.83,1.81-2.24,1.67-3.66
		c-0.13-1.41-1.02-2.65-2.31-3.24c-3.56-1.63-7.52-2.22-11.45-1.71c-9.48,1.23-17.09,9.03-18.11,18.53
		c-0.64,5.96,1.28,11.91,5.25,16.33C24.36,54.46,30.05,57,36,57c3.02,0,5.95-0.64,8.69-1.89c1.29-0.59,2.18-1.84,2.31-3.26
		C47.12,50.42,46.47,49.02,45.32,48.22z M36,51c-4.25,0-8.32-1.81-11.16-4.98c-2.88-3.21-4.21-7.35-3.75-11.68
		c0.72-6.78,6.15-12.33,12.92-13.21c0.66-0.09,1.32-0.13,1.98-0.13c1.02,0,2.04,0.1,3.03,0.31C35.2,25.2,33,30.48,33,36
		c0,5.52,2.2,10.79,6.02,14.69C38.04,50.9,37.03,51,36,51z"/>
	<path d="M36,12c1.66,0,3-1.34,3-3V4.5c0-1.66-1.34-3-3-3c-1.66,0-3,1.34-3,3V9C33,10.66,34.34,12,36,12z"/>
	<path d="M36,60c-1.66,0-3,1.34-3,3v4.5c0,1.66,1.34,3,3,3c1.66,0,3-1.34,3-3V63C39,61.34,37.66,60,36,60z"/>
	<path d="M12,36c0-1.66-1.34-3-3-3H4.5c-1.66,0-3,1.34-3,3c0,1.66,1.34,3,3,3H9C10.66,39,12,37.66,12,36z"/>
	<path d="M14.79,19.03c0.59,0.59,1.35,0.88,2.12,0.88s1.54-0.29,2.12-0.88c1.17-1.17,1.17-3.07,0-4.24l-3.18-3.18
		c-1.17-1.17-3.07-1.17-4.24,0c-1.17,1.17-1.17,3.07,0,4.24L14.79,19.03z"/>
	<path d="M14.79,52.97l-3.18,3.18c-1.17,1.17-1.17,3.07,0,4.24c0.59,0.59,1.35,0.88,2.12,0.88c0.77,0,1.54-0.29,2.12-0.88l3.18-3.18
		c1.17-1.17,1.17-3.07,0-4.24C17.86,51.8,15.96,51.8,14.79,52.97z"/>
</g>
</svg>
