<?xml version="1.0" encoding="utf-8"?>
<!-- Generator: Adobe Illustrator 28.1.0, SVG Export Plug-In . SVG Version: 6.00 Build 0)  -->
<svg version="1.1" id="Layer_1" xmlns="http://www.w3.org/2000/svg" xmlns:xlink="http://www.w3.org/1999/xlink" x="0px" y="0px"
	 viewBox="0 0 72 72" style="enable-background:new 0 0 72 72;" xml:space="preserve">
<g>
	<path d="M59,15H13c-3.86,0-7,3.14-7,7v30.57c0,3.86,3.14,7,7,7h46c3.86,0,7-3.14,7-7V22C66,18.14,62.86,15,59,15z M60,52.57
		c0,0.55-0.45,1-1,1H13c-0.55,0-1-0.45-1-1V22c0-0.55,0.45-1,1-1h46c0.55,0,1,0.45,1,1V52.57z"/>
	<path d="M24.43,23.71h-7.71c-1.1,0-2,0.9-2,2v7.71c0,1.1,0.9,2,2,2h7.71c1.1,0,2-0.9,2-2v-7.71
		C26.43,24.61,25.53,23.71,24.43,23.71z M22.43,31.43h-3.71v-3.71h3.71V31.43z"/>
	<path d="M24.43,39.14h-7.71c-1.1,0-2,0.9-2,2v7.71c0,1.1,0.9,2,2,2h7.71c1.1,0,2-0.9,2-2v-7.71
		C26.43,40.04,25.53,39.14,24.43,39.14z M22.43,46.86h-3.71v-3.71h3.71V46.86z"/>
	<path d="M39.86,39.14h-7.71c-1.1,0-2,0.9-2,2v7.71c0,1.1,0.9,2,2,2h7.71c1.1,0,2-0.9,2-2v-7.71
		C41.86,40.04,40.96,39.14,39.86,39.14z M37.86,46.86h-3.71v-3.71h3.71V46.86z"/>
	<path d="M39.86,23.71h-7.71c-1.1,0-2,0.9-2,2v7.71c0,1.1,0.9,2,2,2h7.71c1.1,0,2-0.9,2-2v-7.71
		C41.86,24.61,40.96,23.71,39.86,23.71z M37.86,31.43h-3.71v-3.71h3.71V31.43z"/>
	<path d="M55.29,23.71h-7.71c-1.1,0-2,0.9-2,2v7.71c0,1.1,0.9,2,2,2h7.71c1.1,0,2-0.9,2-2v-7.71
		C57.29,24.61,56.39,23.71,55.29,23.71z M53.29,31.43h-3.71v-3.71h3.71V31.43z"/>
	<path d="M55.29,39.14h-7.71c-1.1,0-2,0.9-2,2v7.71c0,1.1,0.9,2,2,2h7.71c1.1,0,2-0.9,2-2v-7.71
		C57.29,40.04,56.39,39.14,55.29,39.14z M53.29,46.86h-3.71v-3.71h3.71V46.86z"/>
</g>
</svg>
