<?xml version="1.0" encoding="utf-8"?>
<!-- Generator: Adobe Illustrator 28.1.0, SVG Export Plug-In . SVG Version: 6.00 Build 0)  -->
<svg version="1.1" id="Layer_1" xmlns="http://www.w3.org/2000/svg" xmlns:xlink="http://www.w3.org/1999/xlink" x="0px" y="0px"
	 viewBox="0 0 72 72" style="enable-background:new 0 0 72 72;" xml:space="preserve">
<g>
	<path d="M43.5,43.81c0-2.94-1.14-5.7-3.22-7.78l-4.31-4.31c-0.94-0.94-1.46-2.2-1.46-3.54v-5.86l0.95-0.95l3.26,6.52l3.58-1.79
		L39.24,20H47V7H19.86c-1.74,0-3.37,0.68-4.6,1.9l0,0c-2.53,2.53-2.53,6.66,0,9.19l4.23,4.23v5.86c0,1.34-0.52,2.59-1.46,3.54
		l-4.32,4.31c-2.08,2.08-3.22,4.84-3.22,7.78V66h33V43.81z M43,16h-5v-5h5V16z M18.1,11.73c0.47-0.47,1.1-0.73,1.77-0.73H34v6.17
		l-2.33,2.33h-9.34l-4.23-4.23C17.12,14.29,17.12,12.71,18.1,11.73z M17.96,40.28l4.32-4.31c2.08-2.08,3.22-4.84,3.22-7.78V25.5h3
		v2.69c0,2.94,1.14,5.7,3.22,7.78l4.31,4.31c0.78,0.78,1.25,1.78,1.4,2.85c-6.51,0.57-10.06,2.95-13.23,5.08
		c-2.36,1.59-4.48,3-7.7,3.54v-7.94C16.5,42.48,17.02,41.22,17.96,40.28z M16.5,60v-4.19c4.43-0.59,7.22-2.45,9.93-4.27
		c2.96-1.99,5.79-3.87,11.07-4.39V60H16.5z"/>
	<path d="M62.61,16.04c-0.13,0.02-0.25,0.06-0.37,0.11c-0.13,0.05-0.24,0.12-0.35,0.19c-0.11,0.07-0.21,0.15-0.3,0.25
		c-0.1,0.09-0.18,0.19-0.25,0.3c-0.07,0.11-0.14,0.23-0.19,0.35c-0.05,0.12-0.08,0.24-0.11,0.37C61.01,17.74,61,17.87,61,18
		c0,0.13,0.01,0.26,0.04,0.39c0.03,0.13,0.06,0.25,0.11,0.38c0.05,0.12,0.12,0.23,0.19,0.34s0.15,0.21,0.25,0.31
		c0.09,0.09,0.19,0.17,0.3,0.24c0.11,0.08,0.22,0.14,0.35,0.19c0.12,0.05,0.24,0.09,0.37,0.11C62.74,19.99,62.87,20,63,20
		c0.53,0,1.04-0.21,1.42-0.58C64.79,19.04,65,18.52,65,18s-0.21-1.04-0.58-1.41C63.95,16.12,63.26,15.91,62.61,16.04z"/>
	<path d="M62.61,7.04c-0.13,0.02-0.25,0.06-0.37,0.11C62.11,7.2,62,7.27,61.89,7.34c-0.11,0.07-0.21,0.15-0.3,0.25
		C61.21,7.96,61,8.48,61,9c0,0.13,0.01,0.26,0.04,0.39c0.03,0.13,0.06,0.25,0.11,0.38c0.05,0.12,0.12,0.23,0.19,0.34
		s0.15,0.21,0.25,0.31c0.09,0.09,0.19,0.17,0.3,0.24c0.11,0.08,0.22,0.14,0.35,0.19c0.12,0.05,0.24,0.09,0.37,0.11
		C62.74,10.99,62.87,11,63,11c0.52,0,1.04-0.21,1.42-0.58c0.09-0.1,0.17-0.2,0.24-0.31c0.08-0.11,0.14-0.22,0.19-0.34
		c0.05-0.13,0.09-0.25,0.11-0.38C64.99,9.26,65,9.13,65,9c0-0.52-0.21-1.04-0.58-1.41C63.95,7.12,63.26,6.91,62.61,7.04z"/>
	<path d="M55.85,12.74c-0.05-0.13-0.11-0.24-0.19-0.35c-0.07-0.11-0.15-0.21-0.24-0.3c-0.1-0.1-0.2-0.18-0.31-0.25
		c-0.11-0.07-0.22-0.14-0.34-0.19c-0.13-0.05-0.25-0.08-0.38-0.11c-0.26-0.05-0.52-0.05-0.78,0c-0.13,0.03-0.25,0.06-0.37,0.11
		c-0.13,0.05-0.24,0.12-0.35,0.19c-0.11,0.07-0.21,0.15-0.3,0.25c-0.1,0.09-0.18,0.19-0.25,0.3c-0.07,0.11-0.14,0.22-0.19,0.35
		c-0.05,0.12-0.09,0.24-0.11,0.37C52.01,13.24,52,13.37,52,13.5c0,0.53,0.21,1.04,0.59,1.41c0.09,0.1,0.19,0.18,0.3,0.25
		c0.11,0.08,0.22,0.14,0.35,0.19c0.12,0.05,0.24,0.09,0.37,0.11c0.13,0.03,0.26,0.04,0.39,0.04c0.53,0,1.04-0.21,1.42-0.59
		C55.79,14.54,56,14.03,56,13.5c0-0.13-0.01-0.26-0.04-0.39C55.94,12.98,55.9,12.86,55.85,12.74z"/>
</g>
</svg>
