<?xml version="1.0" encoding="utf-8"?>
<!-- Generator: Adobe Illustrator 28.1.0, SVG Export Plug-In . SVG Version: 6.00 Build 0)  -->
<svg version="1.1" id="Layer_1" xmlns="http://www.w3.org/2000/svg" xmlns:xlink="http://www.w3.org/1999/xlink" x="0px" y="0px"
	 viewBox="0 0 72 72" style="enable-background:new 0 0 72 72;" xml:space="preserve">
<path d="M56.25,47.5c-1.32,0-2.56,0.3-3.68,0.82l-8.64-8.64c0.52-1.12,0.82-2.37,0.82-3.68c0-1.32-0.3-2.56-0.82-3.68l8.64-8.64
	c1.12,0.52,2.37,0.82,3.68,0.82c4.83,0,8.75-3.93,8.75-8.75S61.08,7,56.25,7c-3.77,0-6.98,2.4-8.21,5.75H23.96
	C22.73,9.4,19.52,7,15.75,7C10.93,7,7,10.93,7,15.75c0,3.77,2.4,6.98,5.75,8.21v24.08C9.4,49.27,7,52.48,7,56.25
	C7,61.08,10.93,65,15.75,65c3.77,0,6.98-2.4,8.21-5.75h24.08C49.27,62.6,52.48,65,56.25,65c4.83,0,8.75-3.92,8.75-8.75
	S61.08,47.5,56.25,47.5z M40.75,36c0,2.62-2.13,4.75-4.75,4.75s-4.75-2.13-4.75-4.75s2.13-4.75,4.75-4.75S40.75,33.38,40.75,36z
	 M56.25,11c2.62,0,4.75,2.13,4.75,4.75s-2.13,4.75-4.75,4.75s-4.75-2.13-4.75-4.75S53.63,11,56.25,11z M11,15.75
	c0-2.62,2.13-4.75,4.75-4.75s4.75,2.13,4.75,4.75s-2.13,4.75-4.75,4.75S11,18.37,11,15.75z M15.75,61C13.13,61,11,58.87,11,56.25
	s2.13-4.75,4.75-4.75s4.75,2.13,4.75,4.75S18.37,61,15.75,61z M18.75,48.04V23.96c2.41-0.88,4.32-2.8,5.21-5.21h24.08
	c0.09,0.23,0.18,0.46,0.28,0.68l-8.64,8.64c-1.12-0.52-2.37-0.82-3.68-0.82c-4.82,0-8.75,3.93-8.75,8.75c0,4.83,3.93,8.75,8.75,8.75
	c1.32,0,2.56-0.3,3.68-0.82l8.64,8.64c-0.1,0.22-0.2,0.45-0.28,0.68H23.96C23.07,50.84,21.16,48.93,18.75,48.04z M56.25,61
	c-2.62,0-4.75-2.13-4.75-4.75s2.13-4.75,4.75-4.75S61,53.63,61,56.25S58.87,61,56.25,61z"/>
</svg>
