<?xml version="1.0" encoding="utf-8"?>
<!-- Generator: Adobe Illustrator 28.1.0, SVG Export Plug-In . SVG Version: 6.00 Build 0)  -->
<svg version="1.1" id="Layer_1" xmlns="http://www.w3.org/2000/svg" xmlns:xlink="http://www.w3.org/1999/xlink" x="0px" y="0px"
	 viewBox="0 0 72 72" style="enable-background:new 0 0 72 72;" xml:space="preserve">
<g>
	<g>
		<path d="M63,29.01c0-0.28-0.24-0.52-0.52-0.51c-5.4,0.17-8.28,3.05-10.6,5.37c-2.1,2.1-3.62,3.62-6.88,3.62s-4.78-1.52-6.88-3.62
			c-2.4-2.4-5.38-5.38-11.12-5.38s-8.73,2.98-11.12,5.38c-1.99,1.99-3.46,3.46-6.39,3.61C9.22,37.5,9,37.71,9,37.98v5
			c0,0.28,0.24,0.52,0.52,0.51c5.4-0.17,8.28-3.05,10.6-5.37c2.1-2.1,3.62-3.62,6.88-3.62s4.78,1.52,6.88,3.62
			c2.4,2.4,5.38,5.38,11.12,5.38s8.73-2.98,11.12-5.38c1.99-1.99,3.46-3.46,6.39-3.61c0.27-0.01,0.49-0.23,0.49-0.5V29.01z"/>
	</g>
	<g>
		<path d="M63,60.99v-5c0-0.27-0.22-0.48-0.49-0.5c-2.93-0.15-4.4-1.62-6.39-3.61c-2.4-2.4-5.38-5.38-11.12-5.38
			s-8.73,2.98-11.12,5.38c-2.1,2.1-3.62,3.62-6.88,3.62s-4.78-1.52-6.88-3.62c-2.32-2.32-5.2-5.2-10.6-5.37
			C9.24,46.5,9,46.73,9,47.01v5c0,0.27,0.22,0.48,0.49,0.5c2.93,0.15,4.4,1.62,6.39,3.61c2.4,2.4,5.38,5.38,11.12,5.38
			s8.73-2.98,11.12-5.38c2.1-2.1,3.62-3.62,6.88-3.62s4.78,1.52,6.88,3.62c2.32,2.32,5.2,5.2,10.6,5.37
			C62.76,61.5,63,61.27,63,60.99z"/>
	</g>
	<g>
		<path d="M63,19.98c0-0.27-0.22-0.48-0.49-0.5c-2.93-0.15-4.4-1.62-6.39-3.61c-2.4-2.4-5.38-5.38-11.12-5.38s-8.73,2.98-11.12,5.38
			c-2.1,2.1-3.62,3.62-6.88,3.62s-4.78-1.52-6.88-3.62c-2.32-2.32-5.2-5.2-10.6-5.37C9.24,10.5,9,10.73,9,11.01v5
			c0,0.27,0.22,0.48,0.49,0.5c2.93,0.15,4.4,1.62,6.39,3.61c2.4,2.4,5.38,5.38,11.12,5.38s8.73-2.98,11.12-5.38
			c2.1-2.1,3.62-3.62,6.88-3.62s4.78,1.52,6.88,3.62c2.32,2.32,5.2,5.2,10.6,5.37C62.76,25.5,63,25.27,63,24.99V19.98z"/>
	</g>
</g>
</svg>
