<?xml version="1.0" encoding="utf-8"?>
<!-- Generator: Adobe Illustrator 28.1.0, SVG Export Plug-In . SVG Version: 6.00 Build 0)  -->
<svg version="1.1" id="Layer_1" xmlns="http://www.w3.org/2000/svg" xmlns:xlink="http://www.w3.org/1999/xlink" x="0px" y="0px"
	 viewBox="0 0 72 72" style="enable-background:new 0 0 72 72;" xml:space="preserve">
<g>
	<path d="M13.5,61.5h45c1.66,0,3-1.34,3-3v-45c0-1.66-1.34-3-3-3h-45c-1.66,0-3,1.34-3,3v45C10.5,60.16,11.84,61.5,13.5,61.5z
		 M16.5,16.5h39v39h-39V16.5z"/>
	<path d="M28.5,20.5c-4.41,0-8,3.59-8,8s3.59,8,8,8s8-3.59,8-8S32.91,20.5,28.5,20.5z M28.5,32.5c-2.21,0-4-1.79-4-4s1.79-4,4-4
		s4,1.79,4,4S30.71,32.5,28.5,32.5z"/>
	<path d="M45,20.5c-3.58,0-6.5,2.92-6.5,6.5s2.92,6.5,6.5,6.5s6.5-2.92,6.5-6.5S48.58,20.5,45,20.5z M45,29.5
		c-1.38,0-2.5-1.12-2.5-2.5s1.12-2.5,2.5-2.5s2.5,1.12,2.5,2.5S46.38,29.5,45,29.5z"/>
	<path d="M43.5,35.5c-4.41,0-8,3.59-8,8s3.59,8,8,8s8-3.59,8-8S47.91,35.5,43.5,35.5z M43.5,47.5c-2.21,0-4-1.79-4-4s1.79-4,4-4
		s4,1.79,4,4S45.71,47.5,43.5,47.5z"/>
	<path d="M27,38.5c-3.58,0-6.5,2.92-6.5,6.5s2.92,6.5,6.5,6.5s6.5-2.92,6.5-6.5S30.58,38.5,27,38.5z M27,47.5
		c-1.38,0-2.5-1.12-2.5-2.5s1.12-2.5,2.5-2.5s2.5,1.12,2.5,2.5S28.38,47.5,27,47.5z"/>
</g>
</svg>
