<?xml version="1.0" encoding="utf-8"?>
<!-- Generator: Adobe Illustrator 28.1.0, SVG Export Plug-In . SVG Version: 6.00 Build 0)  -->
<svg version="1.1" id="Layer_1" xmlns="http://www.w3.org/2000/svg" xmlns:xlink="http://www.w3.org/1999/xlink" x="0px" y="0px"
	 viewBox="0 0 72 72" style="enable-background:new 0 0 72 72;" xml:space="preserve">
<g>
	<path d="M36,46.31c-10.34,0-18.75-8.41-18.75-18.75S25.66,8.81,36,8.81s18.75,8.41,18.75,18.75S46.34,46.31,36,46.31z M36,14.81
		c-7.03,0-12.75,5.72-12.75,12.75S28.97,40.31,36,40.31s12.75-5.72,12.75-12.75S43.03,14.81,36,14.81z"/>
	<path d="M36,46.31c-10.34,0-18.75-8.41-18.75-18.75S25.66,8.81,36,8.81s18.75,8.41,18.75,18.75S46.34,46.31,36,46.31z M36,14.81
		c-7.03,0-12.75,5.72-12.75,12.75S28.97,40.31,36,40.31s12.75-5.72,12.75-12.75S43.03,14.81,36,14.81z"/>
	<path d="M26.29,63.18c-6.49,0-12.8-3.36-16.27-9.37c-2.5-4.34-3.17-9.39-1.87-14.23c1.3-4.84,4.4-8.88,8.74-11.39
		c8.95-5.17,20.44-2.09,25.61,6.86c2.5,4.34,3.17,9.39,1.87,14.23c-1.3,4.84-4.4,8.88-8.74,11.39
		C32.69,62.37,29.47,63.18,26.29,63.18z M26.24,31.69c-2.16,0-4.35,0.55-6.35,1.71c-2.95,1.7-5.06,4.45-5.94,7.74
		c-0.88,3.29-0.43,6.73,1.27,9.67c3.52,6.09,11.33,8.18,17.42,4.67c2.95-1.7,5.06-4.45,5.94-7.74c0.88-3.29,0.43-6.73-1.27-9.68
		C34.94,33.98,30.65,31.69,26.24,31.69z"/>
	<path d="M26.29,63.18c-6.49,0-12.8-3.36-16.27-9.37c-2.5-4.34-3.17-9.39-1.87-14.23c1.3-4.84,4.4-8.88,8.74-11.39
		c8.95-5.17,20.44-2.09,25.61,6.86c2.5,4.34,3.17,9.39,1.87,14.23c-1.3,4.84-4.4,8.88-8.74,11.39
		C32.69,62.37,29.47,63.18,26.29,63.18z M26.24,31.69c-2.16,0-4.35,0.55-6.35,1.71c-2.95,1.7-5.06,4.45-5.94,7.74
		c-0.88,3.29-0.43,6.73,1.27,9.67c3.52,6.09,11.33,8.18,17.42,4.67c2.95-1.7,5.06-4.45,5.94-7.74c0.88-3.29,0.43-6.73-1.27-9.68
		C34.94,33.98,30.65,31.69,26.24,31.69z"/>
	<path d="M45.71,63.18c-3.18,0-6.4-0.81-9.34-2.51c-4.34-2.5-7.44-6.55-8.74-11.39c-1.3-4.84-0.63-9.89,1.87-14.23
		c5.17-8.95,16.66-12.03,25.61-6.86c4.34,2.5,7.44,6.55,8.74,11.39c1.3,4.84,0.63,9.89-1.87,14.23
		C58.51,59.82,52.2,63.18,45.71,63.18z M45.76,31.69c-4.41,0-8.7,2.29-11.06,6.37c-1.7,2.95-2.16,6.39-1.27,9.68
		c0.88,3.29,2.99,6.04,5.94,7.74c6.09,3.52,13.9,1.42,17.42-4.67c1.7-2.95,2.16-6.39,1.27-9.67c-0.88-3.29-2.99-6.04-5.94-7.74
		C50.12,32.24,47.93,31.69,45.76,31.69z"/>
	<path d="M45.71,63.18c-3.18,0-6.4-0.81-9.34-2.51c-4.34-2.5-7.44-6.55-8.74-11.39c-1.3-4.84-0.63-9.89,1.87-14.23
		c5.17-8.95,16.66-12.03,25.61-6.86c4.34,2.5,7.44,6.55,8.74,11.39c1.3,4.84,0.63,9.89-1.87,14.23
		C58.51,59.82,52.2,63.18,45.71,63.18z M45.76,31.69c-4.41,0-8.7,2.29-11.06,6.37c-1.7,2.95-2.16,6.39-1.27,9.68
		c0.88,3.29,2.99,6.04,5.94,7.74c6.09,3.52,13.9,1.42,17.42-4.67c1.7-2.95,2.16-6.39,1.27-9.67c-0.88-3.29-2.99-6.04-5.94-7.74
		C50.12,32.24,47.93,31.69,45.76,31.69z"/>
</g>
</svg>
