<?xml version="1.0" encoding="utf-8"?>
<!-- Generator: Adobe Illustrator 28.1.0, SVG Export Plug-In . SVG Version: 6.00 Build 0)  -->
<svg version="1.1" id="Layer_1" xmlns="http://www.w3.org/2000/svg" xmlns:xlink="http://www.w3.org/1999/xlink" x="0px" y="0px"
	 viewBox="0 0 72 72" style="enable-background:new 0 0 72 72;" xml:space="preserve">
<g>
	<path d="M61.38,21.62c0.59,0.59,1.35,0.88,2.12,0.88s1.54-0.29,2.12-0.88c1.17-1.17,1.17-3.07,0-4.24l-11-11
		c-1.17-1.17-3.07-1.17-4.24,0c-1.17,1.17-1.17,3.07,0,4.24L53.76,14L47,20.76l-3.38-3.38c-1.17-1.17-3.07-1.17-4.24,0l-27.5,27.5
		c-1.17,1.17-1.17,3.07,0,4.24l4.09,4.09l-8.88,8.88c-0.78,0.78-0.78,2.05,0,2.83c0.39,0.39,0.9,0.59,1.41,0.59s1.02-0.2,1.41-0.59
		l8.88-8.88l4.09,4.09C23.46,60.71,24.23,61,25,61s1.54-0.29,2.12-0.88l27.5-27.5c1.17-1.17,1.17-3.07,0-4.24L51.24,25L58,18.24
		L61.38,21.62z M18.24,47L41.5,23.74l6.76,6.76l-1.96,1.96l-3.38-3.38c-0.78-0.78-2.05-0.78-2.83,0c-0.78,0.78-0.78,2.05,0,2.83
		l3.38,3.38l-2.67,2.67l-3.38-3.38c-0.78-0.78-2.05-0.78-2.83,0c-0.78,0.78-0.78,2.05,0,2.83l3.38,3.38l-2.67,2.67l-3.38-3.38
		c-0.78-0.78-2.05-0.78-2.83,0c-0.78,0.78-0.78,2.05,0,2.83l3.38,3.38l-2.67,2.67l-3.38-3.38c-0.78-0.78-2.05-0.78-2.83,0
		c-0.78,0.78-0.78,2.05,0,2.83l3.38,3.38L25,53.76L18.24,47z"/>
</g>
</svg>
