<?xml version="1.0" encoding="utf-8"?>
<!-- Generator: Adobe Illustrator 28.1.0, SVG Export Plug-In . SVG Version: 6.00 Build 0)  -->
<svg version="1.1" id="Layer_1" xmlns="http://www.w3.org/2000/svg" xmlns:xlink="http://www.w3.org/1999/xlink" x="0px" y="0px"
	 viewBox="0 0 72 72" style="enable-background:new 0 0 72 72;" xml:space="preserve">
<g>
	<path d="M14.68,49.82c0,0-0.01,0-0.01,0c-2,0-3.89,0.78-5.31,2.2c-3.94,3.96-4.06,10.89-4.06,11.67v3h3
		c0.78,0,7.73-0.11,11.67-4.06c0,0,0,0,0,0c1.42-1.42,2.2-3.31,2.2-5.31c0-2.01-0.79-3.89-2.2-5.29
		C18.57,50.61,16.69,49.82,14.68,49.82z M15.74,58.39L15.74,58.39c-0.94,0.95-2.51,1.52-3.99,1.86c0.34-1.48,0.92-3.04,1.86-3.99
		c0.38-0.38,0.83-0.44,1.06-0.44c0,0,0,0,0,0c0.23,0,0.67,0.06,1.06,0.45c0.39,0.38,0.44,0.83,0.44,1.06
		C16.18,57.73,16.02,58.1,15.74,58.39z"/>
	<path d="M64.53,7.47c-2.15-2.15-5.22-3.05-8.2-2.41c-6.91,1.49-16.35,5.45-26.67,15.21h-14.8c-3.8,0-7.22,2.11-8.93,5.52
		c-1.45,2.9-1.4,6.34,0.14,9.2c1.54,2.86,4.38,4.79,7.6,5.18l2.34,0.28c0.52,2.73,1.84,7.1,5.15,10.4c3.31,3.3,7.67,4.62,10.4,5.14
		l0.28,2.36c0.39,3.22,2.33,6.06,5.18,7.59c1.47,0.79,3.1,1.19,4.73,1.19c1.53,0,3.07-0.35,4.48-1.06c3.4-1.71,5.51-5.14,5.51-8.94
		v-14.8c9.77-10.33,13.72-19.77,15.21-26.68C67.58,12.69,66.68,9.63,64.53,7.47z M11.34,32.15c-0.62-1.16-0.64-2.5-0.06-3.67
		c0.68-1.36,2.05-2.21,3.57-2.21h9.02c-2.16,2.44-4.34,5.15-6.53,8.16c-0.03,0.04-0.07,0.09-0.1,0.13l-2.88-0.35
		C13.07,34.06,11.96,33.31,11.34,32.15z M45.72,57.15c0,1.52-0.85,2.89-2.2,3.58c-1.18,0.59-2.51,0.57-3.67-0.06
		c-1.16-0.62-1.91-1.73-2.07-3.03l-0.35-2.88c1.7-1.24,3.34-2.5,4.91-3.78c0.44-0.36,0.88-0.71,1.31-1.07
		c0.13-0.11,0.27-0.23,0.4-0.34c0.54-0.46,1.08-0.92,1.6-1.38c0.03-0.02,0.05-0.04,0.08-0.07V57.15z M61.07,14.41
		c-3.5,16.21-18.42,29.18-27.64,35.84c-1.75-0.26-5.5-1.08-8.05-3.63c-2.54-2.54-3.37-6.29-3.62-8.03c0.24-0.34,0.49-0.68,0.73-1.01
		c0.05-0.06,0.09-0.13,0.14-0.19c0.35-0.47,0.7-0.93,1.05-1.39c7.06-9.2,19.14-21.88,33.92-25.07c1-0.21,1.98,0.07,2.69,0.78
		C61,12.43,61.28,13.41,61.07,14.41z"/>
	<path d="M47.77,25.85c-0.07-0.18-0.17-0.35-0.27-0.51c-0.11-0.17-0.24-0.32-0.38-0.46c-0.14-0.14-0.29-0.26-0.45-0.37
		c-0.17-0.11-0.34-0.2-0.52-0.28c-0.18-0.07-0.37-0.13-0.56-0.17c-0.98-0.2-2.01,0.12-2.71,0.82c-0.14,0.14-0.27,0.29-0.37,0.46
		c-0.11,0.16-0.21,0.33-0.28,0.51c-0.08,0.19-0.13,0.37-0.17,0.57C42.02,26.61,42,26.81,42,27c0,0.2,0.02,0.39,0.06,0.59
		c0.04,0.19,0.09,0.38,0.17,0.56s0.17,0.35,0.28,0.52c0.11,0.16,0.23,0.31,0.37,0.45C43.44,29.68,44.21,30,45,30
		s1.56-0.32,2.12-0.88c0.14-0.14,0.27-0.29,0.38-0.45c0.1-0.17,0.2-0.34,0.27-0.52c0.08-0.18,0.13-0.37,0.17-0.56
		C47.98,27.39,48,27.2,48,27c0-0.19-0.02-0.39-0.06-0.58C47.9,26.22,47.85,26.04,47.77,25.85z"/>
</g>
</svg>
