<?xml version="1.0" encoding="utf-8"?>
<!-- Generator: Adobe Illustrator 28.1.0, SVG Export Plug-In . SVG Version: 6.00 Build 0)  -->
<svg version="1.1" id="Layer_1" xmlns="http://www.w3.org/2000/svg" xmlns:xlink="http://www.w3.org/1999/xlink" x="0px" y="0px"
	 viewBox="0 0 72 72" style="enable-background:new 0 0 72 72;" xml:space="preserve">
<path d="M36,66.11L34.34,65c-7.14-4.76-14.31-3.79-19.06-2.14c-2.13,0.74-4.5,0.4-6.33-0.91C7.1,60.63,6,58.5,6,56.24V19.87
	c0-2.68,1.55-5.15,3.95-6.3C14.2,11.52,24.96,7.66,36,13.97c11.04-6.31,21.8-2.45,26.06-0.41c2.4,1.15,3.94,3.62,3.94,6.3v36.37
	c0,2.26-1.1,4.4-2.94,5.71c-1.84,1.31-4.2,1.65-6.33,0.91C51.97,61.21,44.8,60.24,37.66,65L36,66.11z M23.04,55.48
	c4.02,0,8.46,0.91,12.96,3.49c8.61-4.94,17.01-3.76,22.69-1.79c0.41,0.14,0.73-0.02,0.89-0.13c0.16-0.11,0.42-0.37,0.42-0.82V19.87
	c0-0.38-0.21-0.73-0.54-0.89c-4.4-2.11-13.08-4.79-21.79,1.02L36,21.11L34.34,20c-8.71-5.81-17.4-3.13-21.79-1.02
	C12.21,19.13,12,19.48,12,19.87v36.37c0,0.45,0.26,0.71,0.42,0.82c0.15,0.11,0.47,0.27,0.89,0.13
	C16.02,56.24,19.36,55.48,23.04,55.48z"/>
<rect x="34" y="17.5" width="4" height="45"/>
</svg>
