<?xml version="1.0" encoding="utf-8"?>
<!-- Generator: Adobe Illustrator 28.1.0, SVG Export Plug-In . SVG Version: 6.00 Build 0)  -->
<svg version="1.1" id="Layer_1" xmlns="http://www.w3.org/2000/svg" xmlns:xlink="http://www.w3.org/1999/xlink" x="0px" y="0px"
	 viewBox="0 0 72 72" style="enable-background:new 0 0 72 72;" xml:space="preserve">
<path d="M45,43.5c-5.74,0-8.73-2.98-11.12-5.38c-2.1-2.1-3.62-3.62-6.88-3.62s-4.78,1.52-6.88,3.62c-2.32,2.32-5.2,5.2-10.6,5.37
	C9.24,43.5,9,43.27,9,42.99v-5c0-0.27,0.22-0.48,0.49-0.5c2.93-0.15,4.4-1.62,6.39-3.61c2.4-2.4,5.38-5.38,11.12-5.38
	s8.73,2.98,11.12,5.38c2.1,2.1,3.62,3.62,6.88,3.62s4.78-1.52,6.88-3.62c2.32-2.32,5.2-5.2,10.6-5.37C62.76,28.5,63,28.73,63,29.01
	v5c0,0.27-0.22,0.48-0.49,0.5c-2.93,0.15-4.4,1.62-6.39,3.61C53.73,40.52,50.74,43.5,45,43.5z"/>
<path d="M63,60.99c0,0.28-0.24,0.52-0.52,0.51c-5.4-0.17-8.28-3.05-10.6-5.37c-2.1-2.1-3.62-3.62-6.88-3.62s-4.78,1.52-6.88,3.62
	c-2.4,2.4-5.38,5.38-11.12,5.38s-8.73-2.98-11.12-5.38c-1.99-1.99-3.46-3.46-6.39-3.61C9.22,52.5,9,52.29,9,52.02v-5
	c0-0.28,0.24-0.52,0.52-0.51c5.4,0.17,8.28,3.05,10.6,5.37c2.1,2.1,3.62,3.62,6.88,3.62s4.78-1.52,6.88-3.62
	c2.4-2.4,5.38-5.38,11.12-5.38s8.73,2.98,11.12,5.38c1.99,1.99,3.46,3.46,6.39,3.61c0.27,0.01,0.49,0.23,0.49,0.5V60.99z"/>
<path d="M63,24.99c0,0.28-0.24,0.52-0.52,0.51c-5.4-0.17-8.28-3.05-10.6-5.37c-2.1-2.1-3.62-3.62-6.88-3.62s-4.78,1.52-6.88,3.62
	c-2.4,2.4-5.38,5.38-11.12,5.38s-8.73-2.98-11.12-5.38c-1.99-1.99-3.46-3.46-6.39-3.61C9.22,16.5,9,16.29,9,16.02v-5
	c0-0.28,0.24-0.52,0.52-0.51c5.4,0.17,8.28,3.05,10.6,5.37c2.1,2.1,3.62,3.62,6.88,3.62s4.78-1.52,6.88-3.62
	c2.4-2.4,5.38-5.38,11.12-5.38s8.73,2.98,11.12,5.38c1.99,1.99,3.46,3.46,6.39,3.61c0.27,0.01,0.49,0.23,0.49,0.5V24.99z"/>
</svg>
