<?xml version="1.0" encoding="utf-8"?>
<!-- Generator: Adobe Illustrator 28.1.0, SVG Export Plug-In . SVG Version: 6.00 Build 0)  -->
<svg version="1.1" id="Layer_1" xmlns="http://www.w3.org/2000/svg" xmlns:xlink="http://www.w3.org/1999/xlink" x="0px" y="0px"
	 viewBox="0 0 72 72" style="enable-background:new 0 0 72 72;" xml:space="preserve">
<path d="M26.41,56.94c-1.42-0.27-2.41-1.6-2.41-3.05l0-37.69c0-0.22,0.14-0.41,0.34-0.47l32-10.67C56.67,4.95,57,5.19,57,5.53
	l0,39.36c0,1.45-0.98,2.78-2.41,3.05C52.68,48.31,51,46.85,51,45V13.16l-21,7V54C30,55.85,28.32,57.31,26.41,56.94z"/>
<path d="M45,57c-6.62,0-12-5.38-12-12s5.38-12,12-12s12,5.38,12,12S51.62,57,45,57z M45,39c-3.31,0-6,2.69-6,6s2.69,6,6,6
	s6-2.69,6-6S48.31,39,45,39z"/>
<path d="M18,66c-6.62,0-12-5.38-12-12s5.38-12,12-12s12,5.38,12,12S24.62,66,18,66z M18,48c-3.31,0-6,2.69-6,6s2.69,6,6,6
	s6-2.69,6-6S21.31,48,18,48z"/>
</svg>
