<?xml version="1.0" encoding="utf-8"?>
<!-- Generator: Adobe Illustrator 28.1.0, SVG Export Plug-In . SVG Version: 6.00 Build 0)  -->
<svg version="1.1" id="Layer_1" xmlns="http://www.w3.org/2000/svg" xmlns:xlink="http://www.w3.org/1999/xlink" x="0px" y="0px"
	 viewBox="0 0 72 72" style="enable-background:new 0 0 72 72;" xml:space="preserve">
<g>
	<path d="M59,19.5H48v-6c0-1.66-1.34-3-3-3H27c-1.66,0-3,1.34-3,3v6H13c-3.86,0-7,3.14-7,7v28c0,3.86,3.14,7,7,7h46
		c3.86,0,7-3.14,7-7v-28C66,22.64,62.86,19.5,59,19.5z M30,16.5h12v3H30V16.5z M60,54.5c0,0.55-0.45,1-1,1H13c-0.55,0-1-0.45-1-1V38
		h48V54.5z M60,34H12v-7.5c0-0.55,0.45-1,1-1h46c0.55,0,1,0.45,1,1V34z"/>
	<path d="M33.23,46.15c0.08,0.18,0.17,0.35,0.28,0.52c0.11,0.16,0.23,0.31,0.37,0.45C34.44,47.68,35.21,48,36,48
		c0.2,0,0.39-0.02,0.59-0.06c0.19-0.04,0.38-0.09,0.56-0.17c0.18-0.07,0.35-0.17,0.52-0.28c0.16-0.1,0.31-0.23,0.45-0.37
		c0.14-0.14,0.27-0.29,0.37-0.45c0.11-0.17,0.21-0.34,0.28-0.52c0.08-0.18,0.13-0.37,0.17-0.56C38.98,45.39,39,45.2,39,45
		c0-0.2-0.02-0.39-0.06-0.59c-0.04-0.19-0.09-0.38-0.17-0.56c-0.07-0.18-0.17-0.35-0.28-0.51c-0.1-0.17-0.23-0.32-0.37-0.46
		c-0.14-0.14-0.29-0.26-0.45-0.37c-0.17-0.11-0.34-0.2-0.52-0.28c-0.18-0.07-0.37-0.13-0.56-0.17c-0.39-0.08-0.79-0.08-1.18,0
		c-0.19,0.04-0.38,0.1-0.56,0.17c-0.18,0.08-0.35,0.17-0.51,0.28c-0.17,0.11-0.32,0.23-0.46,0.37s-0.26,0.29-0.37,0.46
		c-0.11,0.16-0.2,0.33-0.28,0.51c-0.07,0.18-0.13,0.37-0.17,0.56C33.02,44.61,33,44.8,33,45c0,0.2,0.02,0.39,0.06,0.59
		C33.1,45.78,33.16,45.97,33.23,46.15z"/>
</g>
</svg>
