<?xml version="1.0" encoding="utf-8"?>
<!-- Generator: Adobe Illustrator 28.1.0, SVG Export Plug-In . SVG Version: 6.00 Build 0)  -->
<svg version="1.1" id="Layer_1" xmlns="http://www.w3.org/2000/svg" xmlns:xlink="http://www.w3.org/1999/xlink" x="0px" y="0px"
	 viewBox="0 0 72 72" style="enable-background:new 0 0 72 72;" xml:space="preserve">
<g>
	<path d="M39.25,54.29l-3.54-3.54c-0.2-0.2-0.2-0.51,0-0.71L49.76,36L35.71,21.95c-0.2-0.2-0.2-0.51,0-0.71l3.54-3.54
		c0.2-0.2,0.51-0.2,0.71,0l16.17,16.17c1.17,1.17,1.17,3.07,0,4.24L39.95,54.29C39.76,54.48,39.44,54.48,39.25,54.29z"/>
	<path d="M52.5,39h-37c-0.28,0-0.5-0.22-0.5-0.5v-5c0-0.28,0.22-0.5,0.5-0.5h37V39z"/>
</g>
</svg>
