<?xml version="1.0" encoding="utf-8"?>
<!-- Generator: Adobe Illustrator 28.1.0, SVG Export Plug-In . SVG Version: 6.00 Build 0)  -->
<svg version="1.1" id="Layer_1" xmlns="http://www.w3.org/2000/svg" xmlns:xlink="http://www.w3.org/1999/xlink" x="0px" y="0px"
	 viewBox="0 0 72 72" style="enable-background:new 0 0 72 72;" xml:space="preserve">
<g>
	<path d="M8.31,66.69h-3v-3c0-0.78,0.11-7.72,4.06-11.67c2.92-2.92,7.68-2.93,10.61,0c2.92,2.92,2.92,7.68,0,10.61l0,0
		C16.03,66.57,9.09,66.69,8.31,66.69z M14.68,55.82c-0.38,0-0.77,0.15-1.06,0.44c-0.95,0.95-1.53,2.51-1.87,3.99
		c1.48-0.34,3.05-0.92,3.99-1.87c0.58-0.58,0.58-1.54,0-2.12C15.44,55.97,15.06,55.82,14.68,55.82z"/>
	<path d="M35.12,56.4l-1.03-0.05c-0.32-0.02-7.89-0.42-12.96-5.49c-5.07-5.07-5.47-12.64-5.49-12.96l-0.05-1.03l0.59-0.84
		C31.56,14.28,46.5,7.18,56.33,5.06c2.98-0.64,6.05,0.26,8.2,2.41c2.15,2.15,3.05,5.22,2.41,8.2c-2.12,9.83-9.21,24.77-30.97,40.13
		L35.12,56.4z M21.75,38.58c0.26,1.74,1.08,5.49,3.63,8.04c2.54,2.54,6.29,3.37,8.04,3.63c9.22-6.66,24.16-19.63,27.65-35.84
		c0.21-1-0.07-1.98-0.79-2.69c-0.72-0.71-1.7-1-2.69-0.79C41.39,14.42,28.41,29.35,21.75,38.58z"/>
	<path d="M41.73,67.13c-1.63,0-3.26-0.4-4.73-1.19c-2.86-1.54-4.79-4.38-5.18-7.59l-0.78-6.42l1.46-1.03
		c5.35-3.78,10.08-7.77,14.06-11.86l5.15-5.3v23.42c0,3.81-2.12,7.23-5.52,8.93C44.79,66.78,43.26,67.13,41.73,67.13z M37.43,54.75
		l0.35,2.88c0.16,1.3,0.91,2.41,2.07,3.03c1.16,0.62,2.49,0.64,3.67,0.06c1.36-0.68,2.2-2.05,2.2-3.56v-9.03
		C43.15,50.39,40.38,52.6,37.43,54.75z"/>
	<path d="M20.07,40.96l-6.42-0.78c-3.22-0.39-6.06-2.33-7.59-5.18c-1.54-2.86-1.59-6.29-0.14-9.19c1.7-3.4,5.12-5.52,8.93-5.52
		h23.42l-5.3,5.15c-4.09,3.97-8.08,8.7-11.86,14.06L20.07,40.96z M14.85,26.28c-1.52,0-2.88,0.84-3.56,2.2
		c-0.59,1.18-0.57,2.51,0.05,3.67c0.62,1.16,1.73,1.91,3.03,2.07l2.88,0.35c2.15-2.96,4.37-5.73,6.63-8.29H14.85z"/>
</g>
<path d="M45,30c-0.19,0-0.39-0.02-0.59-0.06c-0.19-0.04-0.38-0.09-0.56-0.17c-0.18-0.07-0.35-0.17-0.52-0.28
	c-0.16-0.1-0.31-0.23-0.45-0.37c-0.14-0.14-0.27-0.29-0.37-0.45c-0.11-0.17-0.21-0.34-0.28-0.52c-0.08-0.18-0.13-0.37-0.17-0.56
	C42.02,27.39,42,27.2,42,27c0-0.19,0.02-0.39,0.06-0.59c0.04-0.19,0.09-0.38,0.17-0.56c0.07-0.18,0.17-0.35,0.28-0.51
	c0.1-0.17,0.23-0.32,0.37-0.46s0.29-0.26,0.45-0.37c0.17-0.11,0.34-0.2,0.52-0.28c0.18-0.07,0.37-0.13,0.56-0.17
	c0.39-0.08,0.79-0.08,1.18,0c0.19,0.04,0.38,0.1,0.56,0.17c0.18,0.08,0.35,0.17,0.52,0.28c0.16,0.11,0.31,0.23,0.45,0.37
	c0.14,0.14,0.27,0.29,0.38,0.46c0.1,0.16,0.2,0.33,0.27,0.51c0.08,0.18,0.13,0.37,0.17,0.56C47.98,26.61,48,26.81,48,27
	c0,0.2-0.02,0.39-0.06,0.59c-0.04,0.19-0.09,0.38-0.17,0.56c-0.07,0.18-0.17,0.35-0.27,0.52c-0.11,0.16-0.24,0.31-0.38,0.45
	c-0.14,0.14-0.29,0.27-0.45,0.37c-0.17,0.11-0.34,0.21-0.52,0.28c-0.18,0.08-0.37,0.13-0.56,0.17C45.39,29.98,45.2,30,45,30z"/>
</svg>
