<?xml version="1.0" encoding="utf-8"?>
<!-- Generator: Adobe Illustrator 28.1.0, SVG Export Plug-In . SVG Version: 6.00 Build 0)  -->
<svg version="1.1" id="Layer_1" xmlns="http://www.w3.org/2000/svg" xmlns:xlink="http://www.w3.org/1999/xlink" x="0px" y="0px"
	 viewBox="0 0 72 72" style="enable-background:new 0 0 72 72;" xml:space="preserve">
<g>
	<path d="M17.5,6c-3.86,0-7,3.14-7,7v27.5c0,1.66,1.34,3,3,3s3-1.34,3-3V13c0-0.55,0.45-1,1-1h21v11c0,3.31,2.69,6,6,6h11v30
		c0,0.55-0.45,1-1,1H36c-1.66,0-3,1.34-3,3s1.34,3,3,3h18.5c3.86,0,7-3.14,7-7V25.76L41.74,6H17.5z M42.5,23v-7.76L52.26,25H44.5
		C43.4,25,42.5,24.1,42.5,23z"/>
	<path d="M22.5,42c-1.66,0-3,1.34-3,3v6h-6c-1.66,0-3,1.34-3,3s1.34,3,3,3h6v6c0,1.66,1.34,3,3,3s3-1.34,3-3v-6h6c1.66,0,3-1.34,3-3
		s-1.34-3-3-3h-6v-6C25.5,43.34,24.16,42,22.5,42z"/>
</g>
</svg>
