<?xml version="1.0" encoding="utf-8"?>
<!-- Generator: Adobe Illustrator 28.1.0, SVG Export Plug-In . SVG Version: 6.00 Build 0)  -->
<svg version="1.1" id="Layer_1" xmlns="http://www.w3.org/2000/svg" xmlns:xlink="http://www.w3.org/1999/xlink" x="0px" y="0px"
	 viewBox="0 0 72 72" style="enable-background:new 0 0 72 72;" xml:space="preserve">
<g>
	<path d="M59,15H13c-3.86,0-7,3.14-7,7v30.57c0,3.86,3.14,7,7,7h46c3.86,0,7-3.14,7-7V22C66,18.14,62.86,15,59,15z M60,52.57
		c0,0.55-0.45,1-1,1H13c-0.55,0-1-0.45-1-1V22c0-0.55,0.45-1,1-1h46c0.55,0,1,0.45,1,1V52.57z"/>
	<path d="M24.42,23.71h-7.71c-1.1,0-2,0.9-2,2v7.71c0,1.1,0.9,2,2,2h7.71c1.1,0,2-0.9,2-2v-7.71
		C26.42,24.61,25.52,23.71,24.42,23.71z M22.42,31.42h-3.71v-3.71h3.71V31.42z"/>
	<path d="M24.42,39.14h-7.71c-1.1,0-2,0.9-2,2v7.71c0,1.1,0.9,2,2,2h7.71c1.1,0,2-0.9,2-2v-7.71
		C26.42,40.04,25.52,39.14,24.42,39.14z M22.42,46.85h-3.71v-3.71h3.71V46.85z"/>
	<path d="M39.85,39.14h-7.71c-1.1,0-2,0.9-2,2v7.71c0,1.1,0.9,2,2,2h7.71c1.1,0,2-0.9,2-2v-7.71
		C41.85,40.04,40.95,39.14,39.85,39.14z M37.85,46.85h-3.71v-3.71h3.71V46.85z"/>
	<path d="M39.85,23.71h-7.71c-1.1,0-2,0.9-2,2v7.71c0,1.1,0.9,2,2,2h7.71c1.1,0,2-0.9,2-2v-7.71
		C41.85,24.61,40.95,23.71,39.85,23.71z M37.85,31.42h-3.71v-3.71h3.71V31.42z"/>
	<path d="M55.28,23.71h-7.71c-1.1,0-2,0.9-2,2v7.71c0,1.1,0.9,2,2,2h7.71c1.1,0,2-0.9,2-2v-7.71
		C57.28,24.61,56.38,23.71,55.28,23.71z M53.28,31.42h-3.71v-3.71h3.71V31.42z"/>
	<path d="M55.28,39.14h-7.71c-1.1,0-2,0.9-2,2v7.71c0,1.1,0.9,2,2,2h7.71c1.1,0,2-0.9,2-2v-7.71
		C57.28,40.04,56.38,39.14,55.28,39.14z M53.28,46.85h-3.71v-3.71h3.71V46.85z"/>
</g>
</svg>
