<?xml version="1.0" encoding="utf-8"?>
<!-- Generator: Adobe Illustrator 28.1.0, SVG Export Plug-In . SVG Version: 6.00 Build 0)  -->
<svg version="1.1" id="Layer_1" xmlns="http://www.w3.org/2000/svg" xmlns:xlink="http://www.w3.org/1999/xlink" x="0px" y="0px"
	 viewBox="0 0 72 72" style="enable-background:new 0 0 72 72;" xml:space="preserve">
<g>
	<path d="M41.74,6H17.5c-3.86,0-7,3.14-7,7v46c0,3.86,3.14,7,7,7h37c3.86,0,7-3.14,7-7V25.76L41.74,6z M42.5,15.24L52.26,25H44.5
		c-1.1,0-2-0.9-2-2V15.24z M54.5,60h-37c-0.55,0-1-0.45-1-1V13c0-0.55,0.45-1,1-1h21v11c0,3.31,2.69,6,6,6h11v30
		C55.5,59.55,55.05,60,54.5,60z"/>
	<path d="M45,42h-6v-6c0-1.66-1.34-3-3-3c-1.66,0-3,1.34-3,3v6h-6c-1.66,0-3,1.34-3,3s1.34,3,3,3h6v6c0,1.66,1.34,3,3,3
		c1.66,0,3-1.34,3-3v-6h6c1.66,0,3-1.34,3-3S46.66,42,45,42z"/>
</g>
</svg>
