<?xml version="1.0" encoding="utf-8"?>
<!-- Generator: Adobe Illustrator 28.1.0, SVG Export Plug-In . SVG Version: 6.00 Build 0)  -->
<svg version="1.1" id="Layer_1" xmlns="http://www.w3.org/2000/svg" xmlns:xlink="http://www.w3.org/1999/xlink" x="0px" y="0px"
	 viewBox="0 0 72 72" style="enable-background:new 0 0 72 72;" xml:space="preserve">
<g>
	<path d="M32.5,39H12.25c-0.28,0-0.5-0.22-0.5-0.5v-5c0-0.28,0.22-0.5,0.5-0.5H32.5c0.28,0,0.5,0.22,0.5,0.5v5
		C33,38.78,32.78,39,32.5,39z"/>
	<path d="M59.75,39H39.5c-0.28,0-0.5-0.22-0.5-0.5v-5c0-0.28,0.22-0.5,0.5-0.5h20.25c0.28,0,0.5,0.22,0.5,0.5v5
		C60.25,38.78,60.03,39,59.75,39z"/>
</g>
</svg>
