<?xml version="1.0" encoding="utf-8"?>
<!-- Generator: Adobe Illustrator 28.1.0, SVG Export Plug-In . SVG Version: 6.00 Build 0)  -->
<svg version="1.1" id="Layer_1" xmlns="http://www.w3.org/2000/svg" xmlns:xlink="http://www.w3.org/1999/xlink" x="0px" y="0px"
	 viewBox="0 0 72 72" style="enable-background:new 0 0 72 72;" xml:space="preserve">
<path d="M56.49,37.67c0.02-0.03,0.03-0.07,0.06-0.1c0.08-0.13,0.16-0.27,0.22-0.41c0.02-0.05,0.03-0.11,0.05-0.17
	c0.04-0.13,0.09-0.25,0.12-0.39C56.98,36.4,57,36.2,57,36c0-0.2-0.02-0.4-0.06-0.59c-0.03-0.13-0.07-0.26-0.12-0.39
	c-0.02-0.06-0.03-0.12-0.05-0.17c-0.06-0.14-0.14-0.28-0.22-0.41c-0.02-0.04-0.04-0.07-0.06-0.11c-0.11-0.16-0.24-0.32-0.37-0.46
	l-14.4-14.4c-1.17-1.17-3.07-1.17-4.24,0c-1.17,1.17-1.17,3.07,0,4.24L46.76,33H18c-1.66,0-3,1.34-3,3c0,1.66,1.34,3,3,3h28.76
	l-9.28,9.28c-1.17,1.17-1.17,3.07,0,4.24c0.59,0.59,1.35,0.88,2.12,0.88s1.54-0.29,2.12-0.88l14.4-14.4
	C56.26,37.99,56.38,37.83,56.49,37.67z"/>
</svg>
