<?xml version="1.0" encoding="utf-8"?>
<!-- Generator: Adobe Illustrator 28.1.0, SVG Export Plug-In . SVG Version: 6.00 Build 0)  -->
<svg version="1.1" id="Layer_1" xmlns="http://www.w3.org/2000/svg" xmlns:xlink="http://www.w3.org/1999/xlink" x="0px" y="0px"
	 viewBox="0 0 72 72" style="enable-background:new 0 0 72 72;" xml:space="preserve">
<g>
	<g>
		<path d="M34.66,47.68c1.48,0.74,3.28,0.14,4.02-1.34l1.42-2.84h9.79l1.42,2.84C51.84,47.39,52.9,48,54,48
			c0.45,0,0.91-0.1,1.34-0.32c1.48-0.74,2.08-2.54,1.34-4.02l-9-18C47.18,24.64,46.14,24,45,24s-2.18,0.64-2.68,1.66l-9,18
			C32.58,45.14,33.18,46.94,34.66,47.68z M46.9,37.5H43.1l1.9-3.79L46.9,37.5z"/>
	</g>
	<g>
		<path d="M24.71,46.91C25.26,47.57,26.07,48,27,48c1.66,0,3-1.34,3-3V31.5c0-1.66-1.34-3-3-3c-0.93,0-1.74,0.43-2.29,1.09
			c-1.34-0.69-2.85-1.09-4.46-1.09c-5.38,0-9.75,4.37-9.75,9.75S14.87,48,20.25,48C21.86,48,23.37,47.6,24.71,46.91z M16.5,38.25
			c0-2.07,1.68-3.75,3.75-3.75S24,36.18,24,38.25S22.32,42,20.25,42S16.5,40.32,16.5,38.25z"/>
	</g>
</g>
</svg>
