<?xml version="1.0" encoding="utf-8"?>
<!-- Generator: Adobe Illustrator 28.1.0, SVG Export Plug-In . SVG Version: 6.00 Build 0)  -->
<svg version="1.1" id="Layer_1" xmlns="http://www.w3.org/2000/svg" xmlns:xlink="http://www.w3.org/1999/xlink" x="0px" y="0px"
	 viewBox="0 0 72 72" style="enable-background:new 0 0 72 72;" xml:space="preserve">
<g>
	<path d="M60.88,33.88L57,37.76V36c0-11.58-9.42-21-21-21s-21,9.42-21,21s9.42,21,21,21c1.66,0,3-1.34,3-3s-1.34-3-3-3
		c-8.27,0-15-6.73-15-15s6.73-15,15-15s15,6.73,15,15v1.76l-3.88-3.88c-1.17-1.17-3.07-1.17-4.24,0c-1.17,1.17-1.17,3.07,0,4.24
		L54,49.24l11.12-11.12c1.17-1.17,1.17-3.07,0-4.24C63.95,32.71,62.05,32.71,60.88,33.88z"/>
</g>
</svg>
