<?xml version="1.0" encoding="utf-8"?>
<!-- Generator: Adobe Illustrator 28.1.0, SVG Export Plug-In . SVG Version: 6.00 Build 0)  -->
<svg version="1.1" id="Layer_1" xmlns="http://www.w3.org/2000/svg" xmlns:xlink="http://www.w3.org/1999/xlink" x="0px" y="0px"
	 viewBox="0 0 72 72" style="enable-background:new 0 0 72 72;" xml:space="preserve">
<path d="M50.85,21.15c-1.17-1.17-3.07-1.17-4.24,0L26.27,41.49V28.36c0-1.66-1.34-3-3-3s-3,1.34-3,3v20.37
	c0,0.2,0.02,0.39,0.06,0.59c0.02,0.09,0.05,0.17,0.08,0.26c0.03,0.1,0.05,0.2,0.09,0.3c0.04,0.1,0.1,0.19,0.15,0.29
	c0.04,0.08,0.08,0.16,0.12,0.23c0.11,0.16,0.23,0.32,0.37,0.46c0,0,0,0,0,0l0,0c0.14,0.14,0.29,0.26,0.46,0.37
	c0.07,0.05,0.15,0.08,0.23,0.13c0.09,0.05,0.19,0.11,0.29,0.15c0.1,0.04,0.2,0.06,0.31,0.09c0.09,0.03,0.17,0.06,0.26,0.08
	c0.19,0.04,0.39,0.06,0.59,0.06h20.37c1.66,0,3-1.34,3-3s-1.34-3-3-3H30.51l20.34-20.34C52.02,24.22,52.02,22.32,50.85,21.15z"/>
</svg>
