<?xml version="1.0" encoding="utf-8"?>
<!-- Generator: Adobe Illustrator 28.1.0, SVG Export Plug-In . SVG Version: 6.00 Build 0)  -->
<svg version="1.1" id="Layer_1" xmlns="http://www.w3.org/2000/svg" xmlns:xlink="http://www.w3.org/1999/xlink" x="0px" y="0px"
	 viewBox="0 0 72 72" style="enable-background:new 0 0 72 72;" xml:space="preserve">
<g>
	<g>
		<path d="M35.09,5.39c-0.13-0.13-0.33-0.18-0.51-0.12L12.6,12.6L5.27,34.58c-0.06,0.18-0.01,0.38,0.12,0.51l34.68,34.68
			c0.2,0.2,0.51,0.2,0.71,0l28.99-28.99c0.2-0.2,0.2-0.51,0-0.71L35.09,5.39z M40.42,61.64L12.04,33.25l5.3-15.91l15.91-5.3
			l28.39,28.39L40.42,61.64z"/>
	</g>
	<g>
		<path d="M25.83,21.67c-0.17-0.11-0.34-0.2-0.52-0.28c-0.18-0.07-0.37-0.13-0.56-0.17c-0.39-0.08-0.79-0.08-1.17,0
			c-0.2,0.04-0.39,0.1-0.57,0.17c-0.18,0.08-0.35,0.17-0.51,0.28c-0.17,0.11-0.32,0.23-0.46,0.37c-0.14,0.14-0.26,0.29-0.37,0.46
			c-0.11,0.16-0.2,0.33-0.28,0.51c-0.07,0.18-0.13,0.37-0.17,0.57c-0.04,0.19-0.06,0.39-0.06,0.58c0,0.2,0.02,0.39,0.06,0.59
			c0.04,0.19,0.1,0.38,0.17,0.56c0.08,0.18,0.17,0.35,0.28,0.52c0.11,0.16,0.23,0.32,0.37,0.45c0.14,0.14,0.29,0.27,0.46,0.38
			c0.16,0.1,0.33,0.2,0.51,0.27c0.18,0.08,0.37,0.13,0.57,0.17c0.19,0.04,0.39,0.06,0.58,0.06c0.79,0,1.56-0.32,2.12-0.88
			c0.56-0.56,0.88-1.33,0.88-2.12s-0.32-1.56-0.88-2.12C26.15,21.9,25.99,21.78,25.83,21.67z"/>
	</g>
</g>
</svg>
