<?xml version="1.0" encoding="utf-8"?>
<!-- Generator: Adobe Illustrator 28.1.0, SVG Export Plug-In . SVG Version: 6.00 Build 0)  -->
<svg version="1.1" id="Layer_1" xmlns="http://www.w3.org/2000/svg" xmlns:xlink="http://www.w3.org/1999/xlink" x="0px" y="0px"
	 viewBox="0 0 72 72" style="enable-background:new 0 0 72 72;" xml:space="preserve">
<g>
	<path d="M15.14,20l3.3,0l-3.37,33.15c-0.1,0.98,0.23,1.97,0.89,2.7c0.66,0.73,1.61,1.15,2.59,1.15h34.89
		c0.99,0,1.93-0.42,2.59-1.15c0.66-0.73,0.99-1.71,0.89-2.7l-1.96-19.24c4.58-1.47,7.98-6.03,9.55-13.03
		c0.27-1.19-0.02-2.43-0.78-3.38c-0.76-0.95-1.9-1.5-3.12-1.5h-7.47c-0.52-5.7-5.23-10-10.95-10H29.81c-5.73,0-10.44,4.3-10.95,9.97
		l0,0.03h-3.71c-1.9,0-3.55,1.35-3.92,3.22L6.65,42.07l3.92,0.78L15.14,20z M47.52,20l0.98,9.61c-7.96,0.53-12.29,2.89-16.16,5.01
		c-2.97,1.63-5.64,3.07-9.73,3.63L24.47,20L47.52,20z M21.32,51l0.88-8.67c5.39-0.56,8.77-2.4,12.06-4.2
		c3.68-2.01,7.47-4.08,14.64-4.54L50.68,51H21.32z M60.62,20c-0.71,3.16-2.38,8.04-6.07,9.78l-1-9.78L60.62,20z M29.81,12h12.39
		c2.41,0,4.4,1.68,4.88,4H24.93C25.4,13.69,27.39,12,29.81,12z"/>
	<rect x="18" y="60" width="36" height="6"/>
</g>
</svg>
