<?xml version="1.0" encoding="utf-8"?>
<!-- Generator: Adobe Illustrator 28.1.0, SVG Export Plug-In . SVG Version: 6.00 Build 0)  -->
<svg version="1.1" id="Layer_1" xmlns="http://www.w3.org/2000/svg" xmlns:xlink="http://www.w3.org/1999/xlink" x="0px" y="0px"
	 viewBox="0 0 72 72" style="enable-background:new 0 0 72 72;" xml:space="preserve">
<g>
	<path d="M56.32,32.36c3.13-2.17,5.18-5.78,5.18-9.86c0-6.62-5.38-12-12-12s-12,5.38-12,12c0,3.88,1.86,7.33,4.73,9.53
		c-1.97,2.21-3.47,5.09-4.59,7.54c-0.17,0.38-0.33,0.75-0.49,1.12c0.18-2.72-0.34-5.02-1.56-6.92c-0.94-1.47-2.29-2.61-3.99-3.47
		c1.8-2.1,2.9-4.82,2.9-7.8c0-6.62-5.38-12-12-12s-12,5.38-12,12c0,2.97,1.09,5.69,2.89,7.79c-1.89,0.94-3.36,2.22-4.37,3.89
		c-2.45,4.07-1.82,9.86,1.83,16.73c2.5,4.7,6.44,10.91,11.99,10.91c0.07,0,0.15,0,0.22,0c5.55-0.16,9.03-6.4,11.17-11.07
		c0.17-0.38,0.33-0.75,0.49-1.12c-0.18,2.72,0.34,5.02,1.56,6.92c2.24,3.49,6.65,5.27,13.09,5.27c6.68,0,11.21-1.91,13.48-5.68
		c2.45-4.07,1.82-9.86-1.83-16.73C59.8,37.12,58.24,34.48,56.32,32.36z M22.5,16.5c3.31,0,6,2.69,6,6s-2.69,6-6,6s-6-2.69-6-6
		S19.19,16.5,22.5,16.5z M28.77,48.25c-2.52,5.52-4.7,7.53-5.89,7.57c-0.43,0-2.79-0.3-6.73-7.73c-2.53-4.77-3.25-8.71-1.99-10.82
		c1.38-2.29,5.29-2.77,8.34-2.77c2.93,0,6.71,0.44,8.04,2.51C31.44,38.41,31.86,41.49,28.77,48.25z M49.5,16.5c3.31,0,6,2.69,6,6
		s-2.69,6-6,6s-6-2.69-6-6S46.19,16.5,49.5,16.5z M57.71,53.05c-1.38,2.29-5.29,2.77-8.34,2.77c-2.93,0-6.71-0.44-8.04-2.51
		c-0.9-1.4-1.32-4.48,1.77-11.24c2.52-5.52,4.7-7.53,5.89-7.57c0.45,0,2.79,0.3,6.73,7.73C58.25,46.99,58.97,50.94,57.71,53.05z"/>
</g>
</svg>
