<?xml version="1.0" encoding="utf-8"?>
<!-- Generator: Adobe Illustrator 28.1.0, SVG Export Plug-In . SVG Version: 6.00 Build 0)  -->
<svg version="1.1" id="Layer_1" xmlns="http://www.w3.org/2000/svg" xmlns:xlink="http://www.w3.org/1999/xlink" x="0px" y="0px"
	 viewBox="0 0 72 72" style="enable-background:new 0 0 72 72;" xml:space="preserve">
<g>
	<path d="M59.13,20.54c-3.05,0-5.53,2.44-5.62,5.46l-8.08,3.32c-0.16-0.26-0.32-0.51-0.49-0.76c-1.73-2.39-4.28-3.96-7.19-4.42
		c-2.91-0.46-5.83,0.23-8.21,1.96c-0.06,0.04-0.11,0.09-0.17,0.14l-7.12-7.71c0.33-0.72,0.53-1.52,0.53-2.36
		c0-3.11-2.53-5.63-5.63-5.63s-5.63,2.53-5.63,5.63s2.53,5.63,5.63,5.63c0.8,0,1.56-0.17,2.24-0.47l7.26,7.87
		c-0.77,1.23-1.3,2.62-1.53,4.1c-0.46,2.91,0.23,5.83,1.96,8.21c0.22,0.31,0.47,0.61,0.72,0.89l-3.29,4.25
		c-0.37-0.07-0.74-0.11-1.13-0.11c-3.11,0-5.63,2.53-5.63,5.63s2.53,5.63,5.63,5.63S29,55.27,29,52.17c0-1.26-0.42-2.41-1.12-3.35
		l3.07-3.97c1.03,0.53,2.14,0.9,3.31,1.09c0.59,0.09,1.18,0.14,1.76,0.14c2.31,0,4.55-0.72,6.45-2.1c0.58-0.42,1.11-0.89,1.58-1.4
		l4.59,3.02c-0.31,0.74-0.49,1.55-0.49,2.41c0,3.4,2.77,6.17,6.17,6.17S60.5,51.4,60.5,48s-2.77-6.17-6.17-6.17
		c-1.08,0-2.09,0.28-2.97,0.76l-5.15-3.39c0.31-0.77,0.55-1.58,0.69-2.42c0.2-1.25,0.17-2.5-0.05-3.71l7.97-3.28
		c1.03,1.23,2.58,2.02,4.31,2.02c3.11,0,5.63-2.53,5.63-5.63S62.24,20.54,59.13,20.54z M15.5,16.17c0-0.9,0.73-1.63,1.63-1.63
		s1.63,0.73,1.63,1.63s-0.73,1.63-1.63,1.63S15.5,17.07,15.5,16.17z M23.37,53.8c-0.9,0-1.63-0.73-1.63-1.63s0.73-1.63,1.63-1.63
		c0.28,0,0.53,0.08,0.76,0.2l0.44,0.34c0.26,0.29,0.43,0.67,0.43,1.09C25,53.07,24.27,53.8,23.37,53.8z M38.95,39.11
		c-1.09,0.79-2.42,1.11-3.74,0.89c-1.33-0.21-2.49-0.93-3.28-2.02c-0.79-1.09-1.11-2.42-0.89-3.75c0.21-1.33,0.93-2.49,2.02-3.28
		l0,0c0.89-0.64,1.92-0.96,2.95-0.96c1.56,0,3.1,0.72,4.08,2.08c0.79,1.09,1.11,2.42,0.89,3.75C40.76,37.16,40.04,38.32,38.95,39.11
		z M56.5,48c0,1.2-0.97,2.17-2.17,2.17s-2.17-0.97-2.17-2.17c0-0.22,0.04-0.43,0.1-0.63l0.67-1.02c0.38-0.32,0.86-0.52,1.4-0.52
		C55.53,45.83,56.5,46.8,56.5,48z M59.13,27.8c-0.9,0-1.63-0.73-1.63-1.63s0.73-1.63,1.63-1.63s1.63,0.73,1.63,1.63
		S60.03,27.8,59.13,27.8z"/>
</g>
</svg>
