<?xml version="1.0" encoding="utf-8"?>
<!-- Generator: Adobe Illustrator 28.1.0, SVG Export Plug-In . SVG Version: 6.00 Build 0)  -->
<svg version="1.1" id="Layer_1" xmlns="http://www.w3.org/2000/svg" xmlns:xlink="http://www.w3.org/1999/xlink" x="0px" y="0px"
	 viewBox="0 0 72 72" style="enable-background:new 0 0 72 72;" xml:space="preserve">
<g>
	<path d="M26.73,62.29c1.7,1.7,3.96,2.64,6.36,2.64c2.4,0,4.66-0.94,6.36-2.64L58.55,43.2l1.24,1.24c0.2,0.2,0.51,0.2,0.71,0
		l3.54-3.54c0.2-0.2,0.2-0.51,0-0.71L33.44,9.61c-0.2-0.2-0.51-0.2-0.71,0l-3.54,3.54c-0.2,0.2-0.2,0.51,0,0.71l1.24,1.24
		l-2.83,2.83l-3.89-3.89c-0.2-0.2-0.51-0.2-0.71,0l-2.12,2.12c-0.2,0.2-0.2,0.51,0,0.71l3.89,3.89L11.35,34.18
		c-3.51,3.51-3.51,9.22,0,12.73L26.73,62.29z M15.59,38.43l13.44-13.44l3.89,3.89c0.2,0.2,0.51,0.2,0.71,0l2.12-2.12
		c0.2-0.2,0.2-0.51,0-0.71l-3.89-3.89l2.83-2.83L54.3,38.96L35.21,58.05c-1.13,1.13-3.11,1.13-4.24,0L15.59,42.67
		c-0.57-0.57-0.88-1.32-0.88-2.12S15.02,38.99,15.59,38.43z"/>
	<path d="M58.85,47.03c-0.2-0.2-0.51-0.2-0.71,0l-1.06,1.06c-0.2,0.2-4.78,4.83-5.07,9.9c-0.21,3.58,2.57,6.82,6.16,7
		C61.9,65.18,65,62.19,65,58.5c0-5.27-4.88-10.21-5.09-10.41L58.85,47.03z M58.5,61c-1.38,0-2.5-1.12-2.5-2.5
		c0-2.04,1.32-4.32,2.5-5.91c1.18,1.59,2.5,3.87,2.5,5.91C61,59.88,59.88,61,58.5,61z"/>
</g>
</svg>
