<?xml version="1.0" encoding="utf-8"?>
<!-- Generator: Adobe Illustrator 28.1.0, SVG Export Plug-In . SVG Version: 6.00 Build 0)  -->
<svg version="1.1" id="Layer_1" xmlns="http://www.w3.org/2000/svg" xmlns:xlink="http://www.w3.org/1999/xlink" x="0px" y="0px"
	 viewBox="0 0 72 72" style="enable-background:new 0 0 72 72;" xml:space="preserve">
<g>
	<g>
		<path d="M67.5,40.5c0-4.96-4.04-9-9-9c-1.57,0-3.77,0.41-6,1.12V20c0-0.28-0.22-0.5-0.5-0.5H39.38c0.7-2.22,1.12-4.43,1.12-6
			c0-4.96-4.04-9-9-9s-9,4.04-9,9c0,1.57,0.41,3.78,1.12,6H11c-0.28,0-0.5,0.22-0.5,0.5v41c0,0.28,0.22,0.5,0.5,0.5h13.31
			c2.82,0,5.39-2.18,5.52-5.41c0.03-0.63-0.11-1.26-0.32-1.85c-0.7-2.04-1.02-3.89-1.02-4.74c0-1.65,1.35-3,3-3s3,1.35,3,3
			c0,0.85-0.32,2.7-1.02,4.74c-0.85,2.49,0.18,5.41,2.81,6.71c0.77,0.38,1.64,0.54,2.5,0.54H52c0.28,0,0.5-0.22,0.5-0.5V48.38
			c2.22,0.7,4.43,1.12,6,1.12C63.46,49.5,67.5,45.46,67.5,40.5z M58.5,43.5c-0.85,0-2.7-0.32-4.74-1.02
			c-1.66-0.57-3.51-0.3-4.95,0.73c-1.45,1.03-2.31,2.71-2.31,4.48v7.81h-7.12c0.7-2.22,1.12-4.43,1.12-6c0-4.96-4.04-9-9-9
			s-9,4.04-9,9c0,1.57,0.41,3.78,1.12,6H16.5v-30h7.81c1.77,0,3.45-0.86,4.48-2.31c1.03-1.44,1.3-3.29,0.73-4.95
			c-0.7-2.04-1.02-3.89-1.02-4.74c0-1.65,1.35-3,3-3s3,1.35,3,3c0,0.85-0.32,2.7-1.02,4.74c-0.57,1.66-0.3,3.51,0.73,4.95
			c1.03,1.44,2.71,2.31,4.48,2.31h7.81v7.81c0,1.77,0.86,3.45,2.31,4.48c1.44,1.03,3.29,1.3,4.95,0.73c2.04-0.7,3.89-1.02,4.74-1.02
			c1.65,0,3,1.35,3,3S60.15,43.5,58.5,43.5z"/>
	</g>
</g>
</svg>
