<?xml version="1.0" encoding="utf-8"?>
<!-- Generator: Adobe Illustrator 28.1.0, SVG Export Plug-In . SVG Version: 6.00 Build 0)  -->
<svg version="1.1" id="Layer_1" xmlns="http://www.w3.org/2000/svg" xmlns:xlink="http://www.w3.org/1999/xlink" x="0px" y="0px"
	 viewBox="0 0 72 72" style="enable-background:new 0 0 72 72;" xml:space="preserve">
<g>
	<path d="M65.12,15.88l-9-9C55.56,6.32,54.8,6,54,6H9C7.34,6,6,7.34,6,9v54c0,1.66,1.34,3,3,3h54c1.66,0,3-1.34,3-3V18
		C66,17.2,65.68,16.44,65.12,15.88z M20,12h23v13H20V12z M52,60H20V47h32V60z M60,60h-4V45c0-1.1-0.9-2-2-2H18c-1.1,0-2,0.9-2,2v15
		h-4V12h4v15c0,1.1,0.9,2,2,2h27c1.1,0,2-0.9,2-2V12h5.76L60,19.24V60z"/>
	<path d="M38.77,16.85c-0.07-0.18-0.17-0.35-0.28-0.51c-0.1-0.17-0.23-0.32-0.37-0.46c-1.11-1.12-3.13-1.12-4.24,0
		c-0.14,0.14-0.26,0.29-0.37,0.46c-0.11,0.16-0.2,0.33-0.28,0.51c-0.08,0.18-0.13,0.37-0.17,0.56C33.02,17.61,33,17.81,33,18
		c0,0.2,0.02,0.39,0.06,0.59c0.04,0.19,0.09,0.38,0.17,0.56s0.17,0.35,0.28,0.52c0.11,0.16,0.23,0.31,0.37,0.45
		C34.44,20.68,35.21,21,36,21s1.56-0.32,2.12-0.88c0.14-0.14,0.27-0.29,0.37-0.45c0.11-0.17,0.21-0.34,0.28-0.52
		c0.08-0.18,0.13-0.37,0.17-0.56C38.98,18.39,39,18.2,39,18c0-0.19-0.02-0.39-0.06-0.59C38.9,17.22,38.85,17.03,38.77,16.85z"/>
</g>
</svg>
