<?xml version="1.0" encoding="utf-8"?>
<!-- Generator: Adobe Illustrator 28.1.0, SVG Export Plug-In . SVG Version: 6.00 Build 0)  -->
<svg version="1.1" id="Layer_1" xmlns="http://www.w3.org/2000/svg" xmlns:xlink="http://www.w3.org/1999/xlink" x="0px" y="0px"
	 viewBox="0 0 72 72" style="enable-background:new 0 0 72 72;" xml:space="preserve">
<g>
	<path d="M59,6H44.5c-3.86,0-7,3.14-7,7v46c0,3.86,3.14,7,7,7H59c3.86,0,7-3.14,7-7V13C66,9.14,62.86,6,59,6z M60,59
		c0,0.55-0.45,1-1,1H44.5c-0.55,0-1-0.45-1-1V13c0-0.55,0.45-1,1-1H59c0.55,0,1,0.45,1,1V59z"/>
	<path d="M13,66h14.5c3.86,0,7-3.14,7-7V44.5c0-3.86-3.14-7-7-7H13c-3.86,0-7,3.14-7,7V59C6,62.86,9.14,66,13,66z M12,44.5
		c0-0.55,0.45-1,1-1h14.5c0.55,0,1,0.45,1,1V59c0,0.55-0.45,1-1,1H13c-0.55,0-1-0.45-1-1V44.5z"/>
	<path d="M13,34.5h14.5c3.86,0,7-3.14,7-7V13c0-3.86-3.14-7-7-7H13c-3.86,0-7,3.14-7,7v14.5C6,31.36,9.14,34.5,13,34.5z M12,13
		c0-0.55,0.45-1,1-1h14.5c0.55,0,1,0.45,1,1v14.5c0,0.55-0.45,1-1,1H13c-0.55,0-1-0.45-1-1V13z"/>
</g>
</svg>
