<?xml version="1.0" encoding="utf-8"?>
<!-- Generator: Adobe Illustrator 28.1.0, SVG Export Plug-In . SVG Version: 6.00 Build 0)  -->
<svg version="1.1" id="Layer_1" xmlns="http://www.w3.org/2000/svg" xmlns:xlink="http://www.w3.org/1999/xlink" x="0px" y="0px"
	 viewBox="0 0 72 72" style="enable-background:new 0 0 72 72;" xml:space="preserve">
<g>
	<path d="M65.68,34.66C65.28,33.86,55.63,15,36,15C16.37,15,6.72,33.86,6.32,34.66c-0.42,0.84-0.42,1.84,0,2.68
		C6.72,38.14,16.37,57,36,57c19.63,0,29.28-18.86,29.68-19.66C66.11,36.5,66.11,35.5,65.68,34.66z M36,51
		c-13.15,0-21.14-11.09-23.54-15c2.41-3.91,10.4-15,23.54-15c13.14,0,21.13,11.09,23.54,15C57.13,39.91,49.14,51,36,51z"/>
	<path d="M36,25c-6.07,0-11,4.93-11,11s4.93,11,11,11s11-4.93,11-11S42.07,25,36,25z M36,43c-3.86,0-7-3.14-7-7c0-3.86,3.14-7,7-7
		c3.86,0,7,3.14,7,7C43,39.86,39.86,43,36,43z"/>
</g>
</svg>
