<?xml version="1.0" encoding="utf-8"?>
<!-- Generator: Adobe Illustrator 28.1.0, SVG Export Plug-In . SVG Version: 6.00 Build 0)  -->
<svg version="1.1" id="Layer_1" xmlns="http://www.w3.org/2000/svg" xmlns:xlink="http://www.w3.org/1999/xlink" x="0px" y="0px"
	 viewBox="0 0 72 72" style="enable-background:new 0 0 72 72;" xml:space="preserve">
<g>
	<path d="M55.96,34.59c-0.18-1.68-0.58-3.33-1.17-4.94c1.93-1.09,3.64-2.3,4.71-3.37c3.8-3.8,3.8-9.99,0-13.79
		c-1.84-1.84-4.29-2.86-6.89-2.86s-5.05,1.01-6.89,2.86c-1.06,1.06-2.27,2.78-3.36,4.7c-1.58-0.58-3.23-0.98-4.94-1.17
		c0.71-1.53,1.11-3.22,1.11-5.01v-3h-12c-6.62,0-12,5.38-12,12v3h4.81c-2.44,2.69-4.08,5.53-5.1,8.39
		C8.24,32.09,3.57,37.17,3.57,43.33v9h3c2.98,0,5.71-1.1,7.81-2.91c0.66,1.94,1.46,3.62,2.24,4.93l0.39,0.64l0.64,0.39
		c1.3,0.78,2.99,1.57,4.93,2.23c-1.81,2.1-2.92,4.83-2.92,7.82v3h9c6.16,0,11.25-4.67,11.92-10.65c2.86-1.03,5.71-2.66,8.4-5.1v4.81
		h3c6.62,0,12-5.38,12-12v-12h-3C59.19,33.48,57.49,33.88,55.96,34.59z M23.34,38.9l-4.55,0.91c0-3.61,0.95-7.64,3.9-11.46l2.3,2.3
		L23.34,38.9z M41.96,23.55l0.32,0.18c0.54,0.29,1.05,0.62,1.54,0.97c0.17,0.12,0.34,0.25,0.5,0.37c0.15,0.12,0.29,0.23,0.44,0.35
		c0.32,0.27,0.63,0.54,0.92,0.84c0.01,0.01,0.01,0.01,0.02,0.02c0.01,0.01,0.01,0.01,0.02,0.02c0.31,0.31,0.59,0.63,0.87,0.96
		c0.11,0.13,0.22,0.27,0.32,0.4c0.15,0.2,0.3,0.4,0.44,0.6c0.3,0.44,0.59,0.89,0.85,1.36c0.02,0.03,0.04,0.06,0.06,0.09l0.17,0.3
		c0.2,0.39,0.39,0.79,0.56,1.2l-4.2,0.84l-4.85-4.85L40.78,23C41.18,23.17,41.57,23.36,41.96,23.55z M36.07,26.17l-8.25,1.65
		l-2.38-2.38c2.7-2.29,6.09-3.54,9.67-3.54c0.61,0,1.2,0.05,1.79,0.12L36.07,26.17z M28.86,31.69l8.25-1.65l4.85,4.85l-1.65,8.25
		l-8.25,1.65l-4.85-4.85L28.86,31.69z M33.1,48.66l8.25-1.65l2.3,2.3c-3.84,2.98-7.87,3.94-11.47,3.94L33.1,48.66z M44.18,44.18
		l1.65-8.25l4.15-0.83c0.48,4.02-0.66,8.19-3.42,11.46L44.18,44.18z M47.63,20.04c0.86-1.5,1.75-2.72,2.32-3.3
		c1.42-1.42,3.89-1.42,5.3,0c1.46,1.46,1.46,3.84,0,5.3c-0.58,0.58-1.8,1.46-3.3,2.32c-0.1-0.14-0.21-0.26-0.32-0.4
		c-0.14-0.18-0.28-0.36-0.43-0.54c-0.39-0.47-0.8-0.93-1.24-1.37c-0.01-0.01-0.01-0.01-0.02-0.02c-0.43-0.43-0.88-0.83-1.34-1.22
		c-0.2-0.17-0.4-0.33-0.61-0.49C47.88,20.25,47.76,20.14,47.63,20.04z M26.52,14.02h5.19c-1.04,1.79-2.98,3-5.19,3h-5.19
		C22.37,15.23,24.31,14.02,26.52,14.02z M12.57,40.33c0,2.22-1.21,4.16-3,5.19v-2.19c0-2.22,1.21-4.16,3-5.19V40.33z M19.16,43.81
		l5.22-1.04l4.85,4.85l-1.05,5.26c-3.16-0.58-5.63-1.7-6.77-2.28C20.85,49.47,19.74,46.99,19.16,43.81z M28.67,62.43h-2.19
		c1.04-1.79,2.98-3,5.19-3h2.19C32.82,61.22,30.88,62.43,28.67,62.43z M57.98,45.48c0,2.22-1.21,4.16-3,5.19v-5.19
		c0-2.22,1.21-4.16,3-5.19V45.48z"/>
</g>
</svg>
