<?xml version="1.0" encoding="utf-8"?>
<!-- Generator: Adobe Illustrator 28.1.0, SVG Export Plug-In . SVG Version: 6.00 Build 0)  -->
<svg version="1.1" id="Layer_1" xmlns="http://www.w3.org/2000/svg" xmlns:xlink="http://www.w3.org/1999/xlink" x="0px" y="0px"
	 viewBox="0 0 72 72" style="enable-background:new 0 0 72 72;" xml:space="preserve">
<g>
	<path d="M54.38,37.41L39,22.03V5c0-0.28-0.22-0.5-0.5-0.5h-5C33.22,4.5,33,4.72,33,5v11.42c-0.89-0.53-1.86-0.89-2.87-1
		c-1.86-0.21-3.64,0.39-4.88,1.63l-8.2,8.2c-2.42,2.42-2.16,6.6,0.57,9.33l19.8,19.8c1.24,1.23,2.82,2.01,4.45,2.2
		c0.24,0.03,0.48,0.04,0.72,0.04c1.59,0,3.08-0.59,4.16-1.67l8.2-8.2C57.37,44.33,57.11,40.14,54.38,37.41z M42.59,50.62
		c-0.16,0-0.55-0.1-0.93-0.48l-19.8-19.8c-0.38-0.38-0.48-0.77-0.48-0.93l8.04-8.04c0.16,0,0.55,0.1,0.93,0.48L33,24.51V35.5
		c0,0.28,0.22,0.5,0.5,0.5h5c0.28,0,0.5-0.22,0.5-0.5v-4.99l11.14,11.14c0.38,0.38,0.48,0.77,0.48,0.93L42.59,50.62z"/>
	<path d="M56.51,50.14c-0.2-0.2-0.51-0.2-0.71,0l-5.66,5.66c-0.2,0.2-0.2,0.51,0,0.71l3.54,3.54c0.2,0.2,0.51,0.2,0.71,0l5.66-5.66
		c0.2-0.2,0.2-0.51,0-0.71L56.51,50.14z"/>
</g>
</svg>
