<?xml version="1.0" encoding="utf-8"?>
<!-- Generator: Adobe Illustrator 28.1.0, SVG Export Plug-In . SVG Version: 6.00 Build 0)  -->
<svg version="1.1" id="Layer_1" xmlns="http://www.w3.org/2000/svg" xmlns:xlink="http://www.w3.org/1999/xlink" x="0px" y="0px"
	 viewBox="0 0 72 72" style="enable-background:new 0 0 72 72;" xml:space="preserve">
<g>
	<path d="M61.5,36c0-13.05-9.85-23.83-22.5-25.32V9c0-1.66-1.34-3-3-3c-1.66,0-3,1.34-3,3v1.68C20.35,12.17,10.5,22.96,10.5,36
		c0,8.24,3.93,15.58,10.02,20.24l-4.64,4.64c-1.17,1.17-1.17,3.07,0,4.24C16.46,65.71,17.23,66,18,66s1.54-0.29,2.12-0.88l5.73-5.73
		C28.97,60.74,32.4,61.5,36,61.5s7.03-0.76,10.15-2.11l5.73,5.73C52.46,65.71,53.23,66,54,66s1.54-0.29,2.12-0.88
		c1.17-1.17,1.17-3.07,0-4.24l-4.64-4.64C57.57,51.58,61.5,44.24,61.5,36z M16.5,36c0-10.75,8.75-19.5,19.5-19.5
		c10.75,0,19.5,8.75,19.5,19.5c0,10.75-8.75,19.5-19.5,19.5C25.25,55.5,16.5,46.75,16.5,36z"/>
	<path d="M18,11c1.1,0,2-0.9,2-2s-0.9-2-2-2C11.93,7,7,11.93,7,18c0,1.1,0.9,2,2,2s2-0.9,2-2C11,14.14,14.14,11,18,11z"/>
	<path d="M54,7c-1.1,0-2,0.9-2,2s0.9,2,2,2c3.86,0,7,3.14,7,7c0,1.1,0.9,2,2,2s2-0.9,2-2C65,11.93,60.07,7,54,7z"/>
	<path d="M38,35.78V22.34c0-1.1-0.9-2-2-2s-2,0.9-2,2V36c0,0.11,0.02,0.21,0.03,0.31c-0.11,0.64,0.09,1.33,0.61,1.8l9,8.35
		C44.02,46.82,44.51,47,45,47c0.54,0,1.07-0.21,1.47-0.64c0.75-0.81,0.7-2.08-0.11-2.83L38,35.78z"/>
</g>
</svg>
