<?xml version="1.0" encoding="utf-8"?>
<!-- Generator: Adobe Illustrator 28.1.0, SVG Export Plug-In . SVG Version: 6.00 Build 0)  -->
<svg version="1.1" id="Layer_1" xmlns="http://www.w3.org/2000/svg" xmlns:xlink="http://www.w3.org/1999/xlink" x="0px" y="0px"
	 viewBox="0 0 72 72" style="enable-background:new 0 0 72 72;" xml:space="preserve">
<path d="M36,39c-7.86,0-14.25-6.39-14.25-14.25S28.14,10.5,36,10.5s14.25,6.39,14.25,14.25S43.86,39,36,39z M36,16.5
	c-4.55,0-8.25,3.7-8.25,8.25S31.45,33,36,33s8.25-3.7,8.25-8.25S40.55,16.5,36,16.5z"/>
<path d="M36,66c-3.72,0-22.29-0.52-22.29-10.71C13.71,43,23.71,33,36,33s22.29,10,22.29,22.29C58.29,65.48,39.72,66,36,66z M36,39
	c-8.98,0-16.29,7.31-16.29,16.29c0,2.22,6.97,4.7,16.29,4.71c9.32-0.01,16.28-2.5,16.28-4.71C52.29,46.31,44.98,39,36,39z"/>
</svg>
