<?xml version="1.0" encoding="utf-8"?>
<!-- Generator: Adobe Illustrator 28.1.0, SVG Export Plug-In . SVG Version: 6.00 Build 0)  -->
<svg version="1.1" id="Layer_1" xmlns="http://www.w3.org/2000/svg" xmlns:xlink="http://www.w3.org/1999/xlink" x="0px" y="0px"
	 viewBox="0 0 72 72" style="enable-background:new 0 0 72 72;" xml:space="preserve">
<g>
	<g>
		<path d="M16.83,29.22L27,36v5.03c0,2.61-0.61,5.18-1.78,7.52l-6.17,12.34c-0.63,1.26-0.38,2.79,0.61,3.79l0.15,0.15
			c1.41,1.41,3.74,1.25,4.94-0.35L36,49.5l11.23,14.98c1.2,1.6,3.53,1.76,4.94,0.35l0.15-0.15c1-1,1.25-2.52,0.61-3.79l-6.17-12.34
			C45.61,46.22,45,43.64,45,41.03V36l10.17-6.78c1.72-1.15,1.96-3.58,0.5-5.05c-1-1-2.52-1.25-3.79-0.61l-11.46,5.73
			c-2.79,1.39-6.07,1.39-8.85,0l-11.46-5.73c-1.26-0.63-2.79-0.38-3.79,0.61C14.87,25.63,15.11,28.07,16.83,29.22z"/>
	</g>
	<g>
		<circle cx="36" cy="18" r="9"/>
	</g>
</g>
</svg>
