<?xml version="1.0" encoding="utf-8"?>
<!-- Generator: Adobe Illustrator 28.1.0, SVG Export Plug-In . SVG Version: 6.00 Build 0)  -->
<svg version="1.1" id="Layer_1" xmlns="http://www.w3.org/2000/svg" xmlns:xlink="http://www.w3.org/1999/xlink" x="0px" y="0px"
	 viewBox="0 0 72 72" style="enable-background:new 0 0 72 72;" xml:space="preserve">
<g>
	<path d="M17.5,61.5H23c1.49,0,2.86-0.47,4-1.26c1.14,0.79,2.51,1.26,4,1.26h5.5c3.86,0,7-3.14,7-7V39.39l3.23,16.63
		c0.36,1.84,1.41,3.42,2.96,4.47c1.17,0.79,2.52,1.2,3.9,1.2c0.45,0,0.9-0.04,1.35-0.13l5.4-1.05c3.79-0.74,6.27-4.42,5.54-8.21
		l-7.05-36.32c-0.36-1.84-1.41-3.42-2.96-4.47c-1.55-1.05-3.41-1.43-5.25-1.07l-5.4,1.05c-1.24,0.24-2.35,0.8-3.27,1.61
		c-1.28-1.59-3.24-2.6-5.44-2.6H31c-1.49,0-2.86,0.47-4,1.26c-1.14-0.79-2.51-1.26-4-1.26h-5.5c-3.86,0-7,3.14-7,7v37
		C10.5,58.36,13.64,61.5,17.5,61.5z M59.41,50.5l0.57,2.94c0.11,0.54-0.25,1.07-0.79,1.17l-5.4,1.05c-0.36,0.07-0.62-0.07-0.75-0.15
		s-0.35-0.28-0.42-0.64l-0.57-2.95L59.41,50.5z M58.65,46.57L51.28,48L46.9,25.43L54.26,24L58.65,46.57z M45.72,17.8
		c0.09-0.13,0.28-0.35,0.64-0.42l5.4-1.05c0.54-0.1,1.07,0.25,1.17,0.79l0.57,2.95l-7.36,1.43l-0.57-2.95
		C45.5,18.2,45.63,17.93,45.72,17.8z M30,17.5c0-0.55,0.45-1,1-1h5.5c0.55,0,1,0.45,1,1v3H30V17.5z M30,24.5h7.5v23H30V24.5z
		 M30,51.5h7.5v3c0,0.55-0.45,1-1,1H31c-0.55,0-1-0.45-1-1V51.5z M16.5,17.5c0-0.55,0.45-1,1-1H23c0.55,0,1,0.45,1,1v3h-7.5V17.5z
		 M16.5,24.5H24v23h-7.5V24.5z M16.5,51.5H24v3c0,0.55-0.45,1-1,1h-5.5c-0.55,0-1-0.45-1-1V51.5z"/>
</g>
</svg>
