<?xml version="1.0" encoding="utf-8"?>
<!-- Generator: Adobe Illustrator 28.1.0, SVG Export Plug-In . SVG Version: 6.00 Build 0)  -->
<svg version="1.1" id="Layer_1" xmlns="http://www.w3.org/2000/svg" xmlns:xlink="http://www.w3.org/1999/xlink" x="0px" y="0px"
	 viewBox="0 0 72 72" style="enable-background:new 0 0 72 72;" xml:space="preserve">
<path d="M29.5,66h-5c-0.28,0-0.5-0.22-0.5-0.5v-14c0-0.28,0.22-0.5,0.5-0.5H33v-8.5c0-0.28,0.22-0.5,0.5-0.5H42v-8.5
	c0-0.28,0.22-0.5,0.5-0.5H51v-8.5c0-0.28,0.22-0.5,0.5-0.5h14c0.28,0,0.5,0.22,0.5,0.5v5c0,0.28-0.22,0.5-0.5,0.5H57v8.5
	c0,0.28-0.22,0.5-0.5,0.5H48v8.5c0,0.28-0.22,0.5-0.5,0.5H39v8.5c0,0.28-0.22,0.5-0.5,0.5H30v8.5C30,65.78,29.78,66,29.5,66z"/>
<g>
	<path d="M38.5,30h-5c-0.28,0-0.5-0.22-0.5-0.5v-13H20c-0.28,0-0.5-0.22-0.5-0.5v-5c0-0.28,0.22-0.5,0.5-0.5h16c1.66,0,3,1.34,3,3
		v16C39,29.78,38.78,30,38.5,30z"/>
	<path d="M13.15,39.89l-3.54-3.54c-0.2-0.2-0.2-0.51,0-0.71L31.5,13.76L35.74,18L13.85,39.89C13.66,40.08,13.34,40.08,13.15,39.89z"
		/>
</g>
</svg>
