<?xml version="1.0" encoding="utf-8"?>
<!-- Generator: Adobe Illustrator 28.1.0, SVG Export Plug-In . SVG Version: 6.00 Build 0)  -->
<svg version="1.1" id="Layer_1" xmlns="http://www.w3.org/2000/svg" xmlns:xlink="http://www.w3.org/1999/xlink" x="0px" y="0px"
	 viewBox="0 0 72 72" style="enable-background:new 0 0 72 72;" xml:space="preserve">
<g>
	<g>
		<path d="M48.89,26.65l-3.54-3.54c-0.2-0.2-0.51-0.2-0.71,0L36,31.76l-8.65-8.65c-0.2-0.2-0.51-0.2-0.71,0l-3.54,3.54
			c-0.2,0.2-0.2,0.51,0,0.71L31.76,36l-8.65,8.65c-0.2,0.2-0.2,0.51,0,0.71l3.54,3.54c0.2,0.2,0.51,0.2,0.71,0L36,40.24l8.65,8.65
			c0.2,0.2,0.51,0.2,0.71,0l3.54-3.54c0.2-0.2,0.2-0.51,0-0.71L40.24,36l8.65-8.65C49.08,27.16,49.08,26.84,48.89,26.65z"/>
	</g>
	<g>
		<path d="M36,6C19.46,6,6,19.46,6,36s13.46,30,30,30s30-13.46,30-30S52.54,6,36,6z M36,60c-13.23,0-24-10.77-24-24s10.77-24,24-24
			s24,10.77,24,24S49.23,60,36,60z"/>
	</g>
</g>
</svg>
