<?xml version="1.0" encoding="utf-8"?>
<!-- Generator: Adobe Illustrator 28.1.0, SVG Export Plug-In . SVG Version: 6.00 Build 0)  -->
<svg version="1.1" id="Layer_1" xmlns="http://www.w3.org/2000/svg" xmlns:xlink="http://www.w3.org/1999/xlink" x="0px" y="0px"
	 viewBox="0 0 72 72" style="enable-background:new 0 0 72 72;" xml:space="preserve">
<g>
	<path d="M61.36,12.66c-0.03-0.1-0.05-0.21-0.09-0.3c-0.04-0.1-0.1-0.19-0.15-0.29c-0.04-0.07-0.07-0.15-0.12-0.22
		c-0.22-0.33-0.5-0.61-0.83-0.83c-0.07-0.05-0.15-0.08-0.23-0.12c-0.09-0.05-0.19-0.11-0.29-0.15c-0.1-0.04-0.2-0.07-0.31-0.1
		c-0.08-0.02-0.17-0.06-0.25-0.08c-0.19-0.04-0.39-0.06-0.59-0.06H46.54c-1.66,0-3,1.34-3,3s1.34,3,3,3h4.71l-7.54,7.54
		c-2.23-1.44-4.87-2.29-7.72-2.29c-7.86,0-14.25,6.39-14.25,14.25c0,6.83,4.83,12.54,11.25,13.93V58h-3.75c-1.66,0-3,1.34-3,3
		s1.34,3,3,3H33v3.5c0,1.66,1.34,3,3,3s3-1.34,3-3V64h3.75c1.66,0,3-1.34,3-3s-1.34-3-3-3H39v-8.07c6.42-1.38,11.25-7.1,11.25-13.93
		c0-2.84-0.85-5.49-2.29-7.72l7.54-7.54v4.71c0,1.66,1.34,3,3,3s3-1.34,3-3V13.5c0-0.2-0.02-0.39-0.06-0.59
		C61.42,12.82,61.39,12.74,61.36,12.66z M36,44.25c-4.55,0-8.25-3.7-8.25-8.25s3.7-8.25,8.25-8.25s8.25,3.7,8.25,8.25
		S40.55,44.25,36,44.25z"/>
</g>
</svg>
