<?xml version="1.0" encoding="utf-8"?>
<!-- Generator: Adobe Illustrator 28.1.0, SVG Export Plug-In . SVG Version: 6.00 Build 0)  -->
<svg version="1.1" id="Layer_1" xmlns="http://www.w3.org/2000/svg" xmlns:xlink="http://www.w3.org/1999/xlink" x="0px" y="0px"
	 viewBox="0 0 72 72" style="enable-background:new 0 0 72 72;" xml:space="preserve">
<path d="M29,29c-0.13,0-0.26-0.01-0.39-0.04c-0.13-0.02-0.25-0.06-0.37-0.11c-0.13-0.05-0.24-0.11-0.35-0.19
	c-0.11-0.07-0.21-0.15-0.3-0.24C27.21,28.04,27,27.52,27,27c0-0.13,0.01-0.26,0.04-0.39c0.02-0.13,0.06-0.25,0.11-0.37
	c0.05-0.12,0.12-0.24,0.19-0.35c0.07-0.11,0.15-0.21,0.25-0.3c0.09-0.1,0.19-0.18,0.3-0.25s0.22-0.14,0.35-0.19
	c0.12-0.05,0.24-0.08,0.37-0.11c0.65-0.13,1.34,0.08,1.8,0.55c0.1,0.09,0.18,0.19,0.25,0.3c0.08,0.11,0.14,0.23,0.19,0.35
	s0.09,0.24,0.11,0.37C30.99,26.74,31,26.87,31,27c0,0.13-0.01,0.26-0.04,0.39c-0.02,0.13-0.06,0.26-0.11,0.38
	c-0.05,0.12-0.11,0.23-0.19,0.34c-0.07,0.11-0.15,0.21-0.25,0.31C30.04,28.79,29.53,29,29,29z"/>
<path d="M36,53.22c-0.13,0-0.26-0.02-0.39-0.04c-0.13-0.03-0.25-0.07-0.38-0.12c-0.12-0.05-0.23-0.11-0.34-0.18s-0.21-0.16-0.3-0.25
	C34.21,52.26,34,51.74,34,51.22c0-0.13,0.01-0.26,0.04-0.39c0.03-0.13,0.06-0.26,0.11-0.38c0.05-0.12,0.12-0.23,0.19-0.34
	s0.15-0.21,0.25-0.31c0.09-0.09,0.19-0.17,0.3-0.25c0.11-0.07,0.22-0.13,0.34-0.18c0.13-0.05,0.25-0.09,0.38-0.11
	c0.26-0.06,0.52-0.06,0.78,0c0.13,0.02,0.25,0.06,0.38,0.11c0.12,0.05,0.23,0.11,0.34,0.18c0.11,0.08,0.21,0.16,0.31,0.25
	c0.09,0.1,0.17,0.2,0.24,0.31c0.08,0.11,0.14,0.22,0.19,0.34c0.05,0.12,0.09,0.25,0.11,0.38c0.03,0.13,0.04,0.26,0.04,0.39
	c0,0.52-0.21,1.04-0.58,1.41c-0.1,0.09-0.2,0.18-0.31,0.25c-0.11,0.07-0.22,0.13-0.34,0.18c-0.13,0.05-0.25,0.09-0.38,0.12
	C36.26,53.2,36.13,53.22,36,53.22z"/>
<path d="M43,29c-0.53,0-1.04-0.21-1.41-0.59C41.21,28.04,41,27.53,41,27c0-0.53,0.21-1.04,0.59-1.41c0.09-0.1,0.19-0.18,0.3-0.25
	s0.22-0.14,0.34-0.19c0.13-0.05,0.25-0.08,0.38-0.11c0.26-0.05,0.52-0.05,0.78,0c0.13,0.03,0.26,0.06,0.38,0.11
	c0.12,0.05,0.23,0.12,0.34,0.19c0.11,0.07,0.21,0.15,0.31,0.25C44.79,25.96,45,26.47,45,27c0,0.53-0.21,1.04-0.58,1.41
	c-0.1,0.1-0.2,0.18-0.31,0.25c-0.11,0.07-0.22,0.14-0.34,0.19c-0.12,0.05-0.25,0.09-0.38,0.11C43.26,28.99,43.13,29,43,29z"/>
<path d="M56.5,61.5h-41c-2.76,0-5-2.24-5-5V11c0-2.76,2.24-5,5-5h41c2.76,0,5,2.24,5,5v45.5C61.5,59.26,59.26,61.5,56.5,61.5z
	 M16.5,55.5h39V12h-39V55.5z M56.5,12L56.5,12L56.5,12z"/>
<rect x="19.5" y="55.5" width="6" height="10.5"/>
<rect x="46.5" y="55.5" width="6" height="10.5"/>
<rect x="34" y="7" width="4" height="40"/>
<rect x="11.5" y="43" width="49" height="4"/>
</svg>
