<?xml version="1.0" encoding="utf-8"?>
<!-- Generator: Adobe Illustrator 28.1.0, SVG Export Plug-In . SVG Version: 6.00 Build 0)  -->
<svg version="1.1" id="Layer_1" xmlns="http://www.w3.org/2000/svg" xmlns:xlink="http://www.w3.org/1999/xlink" x="0px" y="0px"
	 viewBox="0 0 72 72" style="enable-background:new 0 0 72 72;" xml:space="preserve">
<g>
	<path d="M10.81,27.19v17.64c0,2.09,1.69,3.78,3.78,3.78c0.44,0,0.87-0.09,1.26-0.24V23.65c-0.39-0.14-0.82-0.24-1.26-0.24
		C12.5,23.41,10.81,25.1,10.81,27.19z"/>
	<path d="M56.16,23.65v24.72c0.39,0.14,0.82,0.24,1.26,0.24c2.09,0,3.78-1.69,3.78-3.78V27.19c0-2.09-1.69-3.78-3.78-3.78
		C56.97,23.41,56.55,23.5,56.16,23.65z"/>
	<path d="M53.64,51.12V23.41H18.36v27.71c0,2.08,1.7,3.78,3.78,3.78h27.71C51.94,54.9,53.64,53.21,53.64,51.12z"/>
	<path d="M43.56,67.5c2.78,0,5.04-2.26,5.04-5.04v-5.04H38.52v5.04C38.52,65.24,40.78,67.5,43.56,67.5z"/>
	<path d="M18.6,20.89h34.8c-1.02-4.43-4.15-8.13-8.35-10.35l2.72-4.05c0.39-0.58,0.26-1.38-0.31-1.77
		c-0.58-0.39-1.38-0.22-1.77,0.35l-2.99,4.41C40.62,8.72,38.36,8.29,36,8.29s-4.62,0.42-6.69,1.18l-2.99-4.41
		c-0.29-0.43-0.82-0.61-1.3-0.51c-0.16,0.03-0.33,0.06-0.47,0.16c-0.58,0.39-0.7,1.2-0.31,1.77l2.72,4.05
		C22.75,12.76,19.62,16.46,18.6,20.89z M42.93,14.59c1.05,0,1.89,0.85,1.89,1.89c0,1.05-0.84,1.89-1.89,1.89
		c-1.04,0-1.89-0.84-1.89-1.89C41.04,15.44,41.89,14.59,42.93,14.59z M29.07,14.59c1.04,0,1.89,0.85,1.89,1.89
		c0,1.05-0.85,1.89-1.89,1.89c-1.05,0-1.89-0.84-1.89-1.89C27.18,15.44,28.02,14.59,29.07,14.59z"/>
	<path d="M28.44,67.5c2.78,0,5.04-2.26,5.04-5.04v-5.04H23.4v5.04C23.4,65.24,25.66,67.5,28.44,67.5z"/>
</g>
</svg>
