<?xml version="1.0" encoding="utf-8"?>
<!-- Generator: Adobe Illustrator 28.1.0, SVG Export Plug-In . SVG Version: 6.00 Build 0)  -->
<svg version="1.1" id="Layer_1" xmlns="http://www.w3.org/2000/svg" xmlns:xlink="http://www.w3.org/1999/xlink" x="0px" y="0px"
	 viewBox="0 0 72 72" style="enable-background:new 0 0 72 72;" xml:space="preserve">
<g>
	<path d="M36,66c3.72,0,22.29-0.52,22.29-10.71c0-8.83-5.16-16.48-12.63-20.08c2.82-2.61,4.6-6.32,4.6-10.45
		c0-7.86-6.39-14.25-14.25-14.25s-14.25,6.39-14.25,14.25c0,4.13,1.78,7.85,4.6,10.45c-7.47,3.6-12.63,11.25-12.63,20.08
		C13.71,65.48,32.28,66,36,66z M36,16.5c4.55,0,8.25,3.7,8.25,8.25S40.55,33,36,33s-8.25-3.7-8.25-8.25S31.45,16.5,36,16.5z M36,39
		c8.98,0,16.29,7.31,16.29,16.29c0,2.22-6.97,4.7-16.28,4.71c-9.32-0.01-16.29-2.5-16.29-4.71C19.71,46.31,27.02,39,36,39z"/>
	<path d="M28.35,56.29l2.12,2.12c0.2,0.2,0.51,0.2,0.71,0L36,53.59l4.82,4.82c0.2,0.2,0.51,0.2,0.71,0l2.12-2.12
		c0.2-0.2,0.2-0.51,0-0.71l-4.82-4.82l4.82-4.82c0.2-0.2,0.2-0.51,0-0.71l-2.12-2.12c-0.2-0.2-0.51-0.2-0.71,0L36,47.93l-4.82-4.82
		c-0.2-0.2-0.51-0.2-0.71,0l-2.12,2.12c-0.2,0.2-0.2,0.51,0,0.71l4.82,4.82l-4.82,4.82C28.16,55.78,28.16,56.09,28.35,56.29z"/>
</g>
</svg>
