<?xml version="1.0" encoding="utf-8"?>
<!-- Generator: Adobe Illustrator 28.1.0, SVG Export Plug-In . SVG Version: 6.00 Build 0)  -->
<svg version="1.1" id="Layer_1" xmlns="http://www.w3.org/2000/svg" xmlns:xlink="http://www.w3.org/1999/xlink" x="0px" y="0px"
	 viewBox="0 0 72 72" style="enable-background:new 0 0 72 72;" xml:space="preserve">
<path d="M66,33c0-4.96-4.04-9-9-9h-4.71c1.5-1.02,2.91-2.19,4.22-3.5c0.78-0.78,0.78-2.05,0-2.83c-0.78-0.78-2.05-0.78-2.83,0
	c-3.01,3.02-6.66,5.16-10.65,6.32h-2.13c1.58-2.46,3.11-5.68,3.11-9c0-4.41-3.59-8-8-8s-8,3.59-8,8c0,3.32,1.52,6.54,3.11,9h-2.13
	c-3.99-1.16-7.64-3.31-10.65-6.32c-0.78-0.78-2.05-0.78-2.83,0c-0.78,0.78-0.78,2.05,0,2.83c1.31,1.31,2.72,2.48,4.22,3.5H15
	c-4.96,0-9,4.04-9,9v6h4.5v18c0,4.96,4.04,9,9,9h33c4.96,0,9-4.04,9-9V39H66V33z M36,11c2.21,0,4,1.79,4,4c0,3.4-2.4,6.96-4,8.96
	c-1.6-2-4-5.56-4-8.96C32,12.79,33.79,11,36,11z M60,33H38v-3h19C58.65,30,60,31.35,60,33z M15,30h19v3H12C12,31.35,13.35,30,15,30z
	 M16.5,57V39H34v21H19.5C17.85,60,16.5,58.65,16.5,57z M55.5,57c0,1.65-1.35,3-3,3H38V39h17.5V57z"/>
</svg>
