<?xml version="1.0" encoding="utf-8"?>
<!-- Generator: Adobe Illustrator 28.1.0, SVG Export Plug-In . SVG Version: 6.00 Build 0)  -->
<svg version="1.1" id="Layer_1" xmlns="http://www.w3.org/2000/svg" xmlns:xlink="http://www.w3.org/1999/xlink" x="0px" y="0px"
	 viewBox="0 0 72 72" style="enable-background:new 0 0 72 72;" xml:space="preserve">
<path d="M18,39c-0.19,0-0.39-0.02-0.59-0.06c-0.19-0.04-0.38-0.09-0.56-0.17c-0.18-0.07-0.35-0.17-0.52-0.28
	c-0.16-0.1-0.31-0.23-0.45-0.37C15.32,37.56,15,36.79,15,36c0-0.19,0.02-0.39,0.06-0.58c0.04-0.2,0.09-0.39,0.17-0.57
	c0.08-0.18,0.17-0.35,0.28-0.52c0.1-0.16,0.23-0.31,0.37-0.45s0.29-0.26,0.45-0.37c0.17-0.11,0.34-0.2,0.52-0.28
	c0.18-0.07,0.37-0.13,0.56-0.17c0.39-0.08,0.79-0.08,1.18,0c0.19,0.04,0.38,0.1,0.56,0.17c0.18,0.08,0.35,0.17,0.52,0.28
	c0.16,0.11,0.31,0.23,0.45,0.37C20.68,34.44,21,35.21,21,36c0,0.2-0.02,0.39-0.06,0.59c-0.04,0.19-0.09,0.38-0.17,0.56
	c-0.07,0.18-0.17,0.35-0.27,0.52c-0.11,0.16-0.24,0.31-0.38,0.45c-0.14,0.14-0.29,0.27-0.45,0.37c-0.17,0.11-0.34,0.21-0.52,0.28
	c-0.18,0.08-0.37,0.13-0.56,0.17C18.39,38.98,18.2,39,18,39z"/>
<path d="M59,57H13c-3.86,0-7-3.14-7-7V22c0-3.86,3.14-7,7-7h46c3.86,0,7,3.14,7,7v28C66,53.86,62.86,57,59,57z M13,21
	c-0.55,0-1,0.45-1,1v28c0,0.55,0.45,1,1,1h46c0.55,0,1-0.45,1-1V22c0-0.55-0.45-1-1-1H13z"/>
</svg>
