<?xml version="1.0" encoding="utf-8"?>
<!-- Generator: Adobe Illustrator 28.1.0, SVG Export Plug-In . SVG Version: 6.00 Build 0)  -->
<svg version="1.1" id="Layer_1" xmlns="http://www.w3.org/2000/svg" xmlns:xlink="http://www.w3.org/1999/xlink" x="0px" y="0px"
	 viewBox="0 0 72 72" style="enable-background:new 0 0 72 72;" xml:space="preserve">
<g>
	<path d="M36,48c-0.77,0-1.54-0.29-2.12-0.88L23.11,36.35c-0.2-0.2-0.2-0.51,0-0.71l3.54-3.54c0.2-0.2,0.51-0.2,0.71,0L36,40.76
		l8.65-8.65c0.2-0.2,0.51-0.2,0.71,0l3.54,3.54c0.2,0.2,0.2,0.51,0,0.71L38.12,47.12C37.54,47.71,36.77,48,36,48z"/>
	<path d="M39,43.5h-6V11c0-0.28,0.22-0.5,0.5-0.5h5c0.28,0,0.5,0.22,0.5,0.5V43.5z"/>
</g>
<path d="M56.5,61.5h-41c-0.28,0-0.5-0.22-0.5-0.5v-5c0-0.28,0.22-0.5,0.5-0.5h41c0.28,0,0.5,0.22,0.5,0.5v5
	C57,61.28,56.78,61.5,56.5,61.5z"/>
</svg>
