<?xml version="1.0" encoding="utf-8"?>
<!-- Generator: Adobe Illustrator 28.1.0, SVG Export Plug-In . SVG Version: 6.00 Build 0)  -->
<svg version="1.1" id="Layer_1" xmlns="http://www.w3.org/2000/svg" xmlns:xlink="http://www.w3.org/1999/xlink" x="0px" y="0px"
	 viewBox="0 0 72 72" style="enable-background:new 0 0 72 72;" xml:space="preserve">
<path d="M36,66C19.46,66,6,52.54,6,36S19.46,6,36,6s30,13.46,30,30S52.54,66,36,66z M36,12c-13.23,0-24,10.77-24,24s10.77,24,24,24
	s24-10.77,24-24S49.23,12,36,12z"/>
<path d="M45.55,51.95c-0.77,0-1.54-0.29-2.12-0.88C41.44,49.09,38.8,48,36,48s-5.44,1.09-7.42,3.08c-1.17,1.17-3.07,1.17-4.24,0
	c-1.17-1.17-1.17-3.07,0-4.24C27.45,43.72,31.59,42,36,42s8.55,1.72,11.67,4.83c1.17,1.17,1.17,3.07,0,4.24
	C47.08,51.66,46.31,51.95,45.55,51.95z"/>
<g>
	<path d="M45,35c-1.66,0-3-1.34-3-3v-5c0-1.66,1.34-3,3-3s3,1.34,3,3v5C48,33.66,46.66,35,45,35z"/>
</g>
<g>
	<path d="M27,35c-1.66,0-3-1.34-3-3v-5c0-1.66,1.34-3,3-3s3,1.34,3,3v5C30,33.66,28.66,35,27,35z"/>
</g>
</svg>
