<?xml version="1.0" encoding="utf-8"?>
<!-- Generator: Adobe Illustrator 28.1.0, SVG Export Plug-In . SVG Version: 6.00 Build 0)  -->
<svg version="1.1" id="Layer_1" xmlns="http://www.w3.org/2000/svg" xmlns:xlink="http://www.w3.org/1999/xlink" x="0px" y="0px"
	 viewBox="0 0 72 72" style="enable-background:new 0 0 72 72;" xml:space="preserve">
<g>
	<path d="M27.5,6H13c-3.86,0-7,3.14-7,7v46c0,3.86,3.14,7,7,7h14.5c3.86,0,7-3.14,7-7V13C34.5,9.14,31.36,6,27.5,6z M28.5,59
		c0,0.55-0.45,1-1,1H13c-0.55,0-1-0.45-1-1V13c0-0.55,0.45-1,1-1h14.5c0.55,0,1,0.45,1,1V59z"/>
	<path d="M59,6H44.5c-3.86,0-7,3.14-7,7v46c0,3.86,3.14,7,7,7H59c3.86,0,7-3.14,7-7V13C66,9.14,62.86,6,59,6z M60,59
		c0,0.55-0.45,1-1,1H44.5c-0.55,0-1-0.45-1-1V13c0-0.55,0.45-1,1-1H59c0.55,0,1,0.45,1,1V59z"/>
</g>
</svg>
