<?xml version="1.0" encoding="utf-8"?>
<!-- Generator: Adobe Illustrator 28.1.0, SVG Export Plug-In . SVG Version: 6.00 Build 0)  -->
<svg version="1.1" id="Layer_1" xmlns="http://www.w3.org/2000/svg" xmlns:xlink="http://www.w3.org/1999/xlink" x="0px" y="0px"
	 viewBox="0 0 72 72" style="enable-background:new 0 0 72 72;" xml:space="preserve">
<g>
	<path d="M37.15,6.23c-1.12-0.46-2.41-0.21-3.27,0.65L16.76,24H9c-1.66,0-3,1.34-3,3v18c0,1.66,1.34,3,3,3h7.76l17.12,17.12
		C34.45,65.7,35.22,66,36,66c0.39,0,0.78-0.07,1.15-0.23C38.27,65.31,39,64.21,39,63V9C39,7.79,38.27,6.69,37.15,6.23z M33,55.76
		L20.12,42.88C19.56,42.32,18.8,42,18,42h-6V30h6c0.8,0,1.56-0.32,2.12-0.88L33,16.24V55.76z"/>
	<path d="M45,40.15c-1.1,0-2,0.9-2,2s0.9,2,2,2c4.49,0,8.15-3.66,8.15-8.15c0-4.49-3.66-8.15-8.15-8.15c-1.1,0-2,0.9-2,2s0.9,2,2,2
		c2.29,0,4.15,1.86,4.15,4.15C49.15,38.29,47.29,40.15,45,40.15z"/>
	<path d="M45,16c-1.1,0-2,0.9-2,2s0.9,2,2,2c8.82,0,16,7.18,16,16s-7.18,16-16,16c-1.1,0-2,0.9-2,2s0.9,2,2,2c11.03,0,20-8.97,20-20
		C65,24.97,56.03,16,45,16z"/>
</g>
</svg>
