<?xml version="1.0" encoding="utf-8"?>
<!-- Generator: Adobe Illustrator 28.1.0, SVG Export Plug-In . SVG Version: 6.00 Build 0)  -->
<svg version="1.1" id="Layer_1" xmlns="http://www.w3.org/2000/svg" xmlns:xlink="http://www.w3.org/1999/xlink" x="0px" y="0px"
	 viewBox="0 0 72 72" style="enable-background:new 0 0 72 72;" xml:space="preserve">
<g>
	<path d="M36,6C19.46,6,6,19.46,6,36s13.46,30,30,30s30-13.46,30-30S52.54,6,36,6z M36,60c-13.23,0-24-10.77-24-24s10.77-24,24-24
		s24,10.77,24,24S49.23,60,36,60z"/>
	<path d="M44.75,19.84c-2.78-2.49-6.51-3.68-10.24-3.26c-5.87,0.65-10.63,5.27-11.5,11.08c-0.04,0.28,0.17,0.54,0.45,0.57l4.97,0.54
		c0.27,0.03,0.5-0.16,0.54-0.42c0.54-3.05,3.08-5.45,6.19-5.8c2.07-0.23,4.05,0.4,5.57,1.77c2.28,2.04,3.09,5.43,1.66,8.43
		c-0.66,1.38-1.79,2.5-3.14,3.21c-3.72,1.98-6.08,5.78-6.26,10.02c-0.01,0.28,0.22,0.52,0.51,0.52h5c0.27,0,0.48-0.21,0.5-0.48
		c0.16-2.04,1.31-3.84,3.09-4.78c4.33-2.28,7.02-6.73,7.02-11.62C49.12,25.9,47.53,22.33,44.75,19.84z"/>
	<path d="M38.77,51.35c-0.07-0.18-0.17-0.35-0.28-0.52c-0.1-0.16-0.23-0.31-0.37-0.45c-0.14-0.14-0.29-0.27-0.45-0.37
		c-0.17-0.11-0.34-0.2-0.52-0.28c-0.18-0.08-0.37-0.13-0.56-0.17c-0.39-0.08-0.79-0.08-1.18,0c-0.19,0.04-0.38,0.09-0.56,0.17
		c-0.18,0.08-0.35,0.17-0.52,0.28c-0.16,0.1-0.31,0.23-0.45,0.37s-0.26,0.29-0.37,0.45c-0.11,0.17-0.2,0.34-0.28,0.52
		c-0.07,0.18-0.13,0.37-0.17,0.56C33.02,52.11,33,52.3,33,52.5c0,0.2,0.02,0.39,0.06,0.59c0.04,0.19,0.1,0.38,0.17,0.56
		c0.08,0.18,0.17,0.35,0.28,0.52c0.11,0.16,0.23,0.31,0.37,0.45c0.14,0.14,0.29,0.27,0.45,0.37c0.17,0.11,0.34,0.2,0.52,0.28
		c0.18,0.08,0.37,0.13,0.56,0.17c0.2,0.04,0.39,0.06,0.59,0.06c0.2,0,0.39-0.02,0.59-0.06c0.19-0.04,0.38-0.09,0.56-0.17
		c0.18-0.08,0.35-0.17,0.52-0.28c0.16-0.1,0.31-0.23,0.45-0.37c0.14-0.14,0.27-0.29,0.37-0.45c0.11-0.17,0.21-0.34,0.28-0.52
		c0.08-0.18,0.13-0.37,0.17-0.56C38.98,52.89,39,52.7,39,52.5c0-0.2-0.02-0.39-0.06-0.59C38.9,51.72,38.85,51.53,38.77,51.35z"/>
</g>
</svg>
