<?xml version="1.0" encoding="utf-8"?>
<!-- Generator: Adobe Illustrator 28.1.0, SVG Export Plug-In . SVG Version: 6.00 Build 0)  -->
<svg version="1.1" id="Layer_1" xmlns="http://www.w3.org/2000/svg" xmlns:xlink="http://www.w3.org/1999/xlink" x="0px" y="0px"
	 viewBox="0 0 72 72" style="enable-background:new 0 0 72 72;" xml:space="preserve">
<g>
	<path d="M57,63V10.35c0-1.29-0.63-2.51-1.68-3.26c-1.05-0.75-2.4-0.94-3.62-0.52c-2.92,1.01-9.7,4.8-9.7,18.19
		c0,10.81,5.82,15.72,9,17.6V63H57z M48,24.75c0-5.76,1.5-8.91,3-10.63v20.41C49.43,32.55,48,29.46,48,24.75z"/>
	<path d="M16,7.77v14c0,3.31,2.69,6,6,6h2V63h6V27.77h2c3.31,0,6-2.69,6-6v-14h-4v14c0,1.1-0.9,2-2,2v-16h-4v16h-2v-16h-4v16
		c-1.1,0-2-0.9-2-2v-14H16z"/>
</g>
</svg>
