<?xml version="1.0" encoding="utf-8"?>
<!-- Generator: Adobe Illustrator 28.1.0, SVG Export Plug-In . SVG Version: 6.00 Build 0)  -->
<svg version="1.1" id="Layer_1" xmlns="http://www.w3.org/2000/svg" xmlns:xlink="http://www.w3.org/1999/xlink" x="0px" y="0px"
	 viewBox="0 0 72 72" style="enable-background:new 0 0 72 72;" xml:space="preserve">
<path d="M36,51.73c-8.67,0-15.73-7.06-15.73-15.73S27.33,20.27,36,20.27S51.73,27.33,51.73,36S44.67,51.73,36,51.73z M36,26.27
	c-5.36,0-9.73,4.36-9.73,9.73s4.36,9.73,9.73,9.73s9.73-4.36,9.73-9.73S41.36,26.27,36,26.27z"/>
<path d="M38.5,26.27h-5c-0.28,0-0.5-0.22-0.5-0.5V15.5c0-0.28,0.22-0.5,0.5-0.5h5c0.28,0,0.5,0.22,0.5,0.5v10.27
	C39,26.05,38.78,26.27,38.5,26.27z"/>
<path d="M38.5,57h-5c-0.28,0-0.5-0.22-0.5-0.5V46.23c0-0.28,0.22-0.5,0.5-0.5h5c0.28,0,0.5,0.22,0.5,0.5V56.5
	C39,56.78,38.78,57,38.5,57z"/>
<path d="M56.5,39H46.23c-0.28,0-0.5-0.22-0.5-0.5v-5c0-0.28,0.22-0.5,0.5-0.5H56.5c0.28,0,0.5,0.22,0.5,0.5v5
	C57,38.78,56.78,39,56.5,39z"/>
<path d="M25.77,39H15.5c-0.28,0-0.5-0.22-0.5-0.5v-5c0-0.28,0.22-0.5,0.5-0.5h10.27c0.28,0,0.5,0.22,0.5,0.5v5
	C26.27,38.78,26.05,39,25.77,39z"/>
<path d="M26.65,30.89l-7.26-7.26c-0.2-0.2-0.2-0.51,0-0.71l3.54-3.54c0.2-0.2,0.51-0.2,0.71,0l7.26,7.26c0.2,0.2,0.2,0.51,0,0.71
	l-3.54,3.54C27.16,31.08,26.84,31.08,26.65,30.89z"/>
<path d="M48.37,52.62l-7.26-7.26c-0.2-0.2-0.2-0.51,0-0.71l3.54-3.54c0.2-0.2,0.51-0.2,0.71,0l7.26,7.26c0.2,0.2,0.2,0.51,0,0.71
	l-3.54,3.54C48.89,52.81,48.57,52.81,48.37,52.62z"/>
<path d="M44.65,30.89l-3.54-3.54c-0.2-0.2-0.2-0.51,0-0.71l7.26-7.26c0.2-0.2,0.51-0.2,0.71,0l3.54,3.54c0.2,0.2,0.2,0.51,0,0.71
	l-7.26,7.26C45.16,31.08,44.84,31.08,44.65,30.89z"/>
<path d="M22.92,52.62l-3.54-3.54c-0.2-0.2-0.2-0.51,0-0.71l7.26-7.26c0.2-0.2,0.51-0.2,0.71,0l3.54,3.54c0.2,0.2,0.2,0.51,0,0.71
	l-7.26,7.26C23.43,52.81,23.11,52.81,22.92,52.62z"/>
</svg>
