<?xml version="1.0" encoding="utf-8"?>
<!-- Generator: Adobe Illustrator 28.1.0, SVG Export Plug-In . SVG Version: 6.00 Build 0)  -->
<svg version="1.1" id="Layer_1" xmlns="http://www.w3.org/2000/svg" xmlns:xlink="http://www.w3.org/1999/xlink" x="0px" y="0px"
	 viewBox="0 0 72 72" style="enable-background:new 0 0 72 72;" xml:space="preserve">
<g>
	<g>
		<path d="M58.5,15.5c0-0.28-0.22-0.5-0.5-0.5H23c-0.28,0-0.5,0.22-0.5,0.5v5c0,0.28,0.22,0.5,0.5,0.5h35c0.28,0,0.5-0.22,0.5-0.5
			V15.5z"/>
	</g>
	<g>
		<path d="M58.5,33.5c0-0.28-0.22-0.5-0.5-0.5H23c-0.28,0-0.5,0.22-0.5,0.5v5c0,0.28,0.22,0.5,0.5,0.5h35c0.28,0,0.5-0.22,0.5-0.5
			V33.5z"/>
	</g>
	<g>
		<path d="M58,51H23c-0.28,0-0.5,0.22-0.5,0.5v5c0,0.28,0.22,0.5,0.5,0.5h35c0.28,0,0.5-0.22,0.5-0.5v-5C58.5,51.22,58.28,51,58,51z
			"/>
	</g>
	<g>
		<path d="M15.62,15.88c-0.14-0.14-0.29-0.27-0.45-0.37c-0.17-0.11-0.34-0.2-0.52-0.28c-0.18-0.07-0.37-0.13-0.56-0.17
			c-0.98-0.2-2.01,0.12-2.71,0.82c-0.56,0.56-0.88,1.33-0.88,2.12s0.32,1.56,0.88,2.12C11.94,20.68,12.71,21,13.5,21
			c0.2,0,0.39-0.02,0.59-0.06c0.19-0.04,0.38-0.09,0.56-0.17c0.18-0.07,0.35-0.17,0.52-0.27c0.16-0.11,0.31-0.24,0.45-0.38
			c0.56-0.56,0.88-1.33,0.88-2.12S16.18,16.44,15.62,15.88z"/>
	</g>
	<g>
		<path d="M16.44,35.41c-0.04-0.19-0.09-0.38-0.17-0.56C16.2,34.67,16.1,34.5,16,34.33c-0.11-0.16-0.24-0.31-0.38-0.45
			c-0.14-0.14-0.29-0.27-0.45-0.37c-0.17-0.11-0.34-0.2-0.52-0.28c-0.18-0.07-0.37-0.13-0.56-0.17c-0.98-0.2-2.01,0.12-2.71,0.82
			c-0.14,0.14-0.26,0.29-0.37,0.45c-0.11,0.17-0.2,0.34-0.28,0.52c-0.07,0.18-0.13,0.37-0.17,0.56c-0.04,0.2-0.06,0.39-0.06,0.59
			c0,0.79,0.32,1.56,0.88,2.12C11.94,38.68,12.71,39,13.5,39c0.2,0,0.39-0.02,0.59-0.06c0.19-0.04,0.38-0.09,0.56-0.17
			c0.18-0.07,0.35-0.17,0.52-0.27c0.16-0.11,0.31-0.24,0.45-0.38c0.56-0.56,0.88-1.33,0.88-2.12C16.5,35.8,16.48,35.61,16.44,35.41z
			"/>
	</g>
	<g>
		<path d="M16,52.33c-0.11-0.16-0.24-0.31-0.38-0.45c-0.14-0.14-0.29-0.27-0.45-0.37c-0.17-0.11-0.34-0.2-0.52-0.28
			c-0.18-0.07-0.37-0.13-0.56-0.17c-0.98-0.2-2.01,0.12-2.71,0.82c-0.14,0.14-0.26,0.29-0.37,0.45c-0.11,0.17-0.2,0.34-0.28,0.52
			c-0.07,0.18-0.13,0.37-0.17,0.56c-0.04,0.2-0.06,0.39-0.06,0.59c0,0.2,0.02,0.39,0.06,0.59c0.04,0.19,0.1,0.38,0.17,0.56
			c0.08,0.18,0.17,0.35,0.28,0.52c0.11,0.16,0.23,0.31,0.37,0.45C11.94,56.68,12.71,57,13.5,57c0.2,0,0.39-0.02,0.59-0.06
			c0.19-0.04,0.38-0.09,0.56-0.17c0.18-0.07,0.35-0.17,0.52-0.27c0.16-0.11,0.31-0.24,0.45-0.38c0.14-0.14,0.27-0.29,0.38-0.45
			c0.1-0.17,0.2-0.34,0.27-0.52c0.08-0.18,0.13-0.37,0.17-0.56c0.04-0.2,0.06-0.39,0.06-0.59c0-0.2-0.02-0.39-0.06-0.59
			c-0.04-0.19-0.09-0.38-0.17-0.56C16.2,52.67,16.1,52.5,16,52.33z"/>
	</g>
</g>
</svg>
