<?xml version="1.0" encoding="utf-8"?>
<!-- Generator: Adobe Illustrator 28.1.0, SVG Export Plug-In . SVG Version: 6.00 Build 0)  -->
<svg version="1.1" id="Layer_1" xmlns="http://www.w3.org/2000/svg" xmlns:xlink="http://www.w3.org/1999/xlink" x="0px" y="0px"
	 viewBox="0 0 72 72" style="enable-background:new 0 0 72 72;" xml:space="preserve">
<g>
	<path d="M28.29,65c0.82,0,4.06-0.04,7.78-0.6c4.05,0.59,7.5,0.6,7.65,0.6C45.89,65,65,64.73,65,55.29c0-9-5.63-16.7-13.54-19.81
		c3.33-2.41,5.51-6.32,5.51-10.73c0-7.31-5.94-13.25-13.25-13.25c-2.79,0-5.47,0.89-7.71,2.5c-2.18-1.57-4.84-2.5-7.72-2.5
		c-7.31,0-13.25,5.94-13.25,13.25c0,4.41,2.18,8.32,5.51,10.73C12.63,38.59,7,46.28,7,55.29C7,64.73,26.11,65,28.29,65z M61,55.29
		c0,3.42-7.98,5.24-14.64,5.63c1.93-1.37,3.21-3.19,3.21-5.63c0-6.98-3.39-13.16-8.59-17.05c0.9-0.14,1.81-0.24,2.73-0.24
		C53.25,38,61,45.75,61,55.29z M52.96,24.75c0,5.1-4.15,9.25-9.25,9.25c-1.71,0-3.37-0.48-4.81-1.36c1.64-2.21,2.63-4.93,2.63-7.89
		s-0.99-5.68-2.63-7.89c1.44-0.88,3.09-1.36,4.81-1.36C48.81,15.5,52.96,19.65,52.96,24.75z M19.04,24.75c0-5.1,4.15-9.25,9.25-9.25
		s9.25,4.15,9.25,9.25S33.39,34,28.29,34S19.04,29.85,19.04,24.75z M28.29,38c9.53,0,17.29,7.75,17.29,17.29
		c0,2.61-4.64,4.29-9.8,5.11c-0.09,0.01-0.18,0.02-0.27,0.04c-2.45,0.38-5,0.56-7.21,0.56C21.31,61,11,59.18,11,55.29
		C11,45.75,18.75,38,28.29,38z"/>
</g>
</svg>
