<?xml version="1.0" encoding="utf-8"?>
<!-- Generator: Adobe Illustrator 28.1.0, SVG Export Plug-In . SVG Version: 6.00 Build 0)  -->
<svg version="1.1" id="Layer_1" xmlns="http://www.w3.org/2000/svg" xmlns:xlink="http://www.w3.org/1999/xlink" x="0px" y="0px"
	 viewBox="0 0 72 72" style="enable-background:new 0 0 72 72;" xml:space="preserve">
<g>
	<path d="M20.25,30c-5.38,0-9.75-4.37-9.75-9.75s4.37-9.75,9.75-9.75S30,14.87,30,20.25S25.63,30,20.25,30z M20.25,16.5
		c-2.07,0-3.75,1.68-3.75,3.75S18.18,24,20.25,24S24,22.32,24,20.25S22.32,16.5,20.25,16.5z"/>
</g>
<g>
	<path d="M51.75,61.5c-5.38,0-9.75-4.37-9.75-9.75S46.37,42,51.75,42s9.75,4.37,9.75,9.75S57.13,61.5,51.75,61.5z M51.75,48
		C49.68,48,48,49.68,48,51.75s1.68,3.75,3.75,3.75s3.75-1.68,3.75-3.75S53.82,48,51.75,48z"/>
</g>
<g>
	<line style="fill:#FFFFFF;" x1="58.5" y1="13.5" x2="13.5" y2="58.5"/>
	<path d="M15.27,60.27l-3.54-3.54c-0.2-0.2-0.2-0.51,0-0.71l44.29-44.29c0.2-0.2,0.51-0.2,0.71,0l3.54,3.54c0.2,0.2,0.2,0.51,0,0.71
		L15.97,60.27C15.78,60.46,15.46,60.46,15.27,60.27z"/>
</g>
</svg>
