<?xml version="1.0" encoding="utf-8"?>
<!-- Generator: Adobe Illustrator 28.1.0, SVG Export Plug-In . SVG Version: 6.00 Build 0)  -->
<svg version="1.1" id="Layer_1" xmlns="http://www.w3.org/2000/svg" xmlns:xlink="http://www.w3.org/1999/xlink" x="0px" y="0px"
	 viewBox="0 0 72 72" style="enable-background:new 0 0 72 72;" xml:space="preserve">
<g>
	<path d="M34.66,61.18l1.12,0.56c0.14,0.07,0.31,0.07,0.45,0l1.12-0.56C38.14,60.78,57,51.13,57,31.5c0-11.7-9.61-21.19-21.35-21
		c-12.38,0.2-21.63,11.32-20.53,23.66C16.7,52,33.89,60.8,34.66,61.18z M36,16.5c8.27,0,15,6.73,15,15c0,13.15-11.09,21.14-15,23.54
		c-3.91-2.41-15-10.4-15-23.54C21,23.23,27.73,16.5,36,16.5z"/>
	<path d="M47,31.5c0-6.07-4.93-11-11-11s-11,4.93-11,11s4.93,11,11,11S47,37.57,47,31.5z M29,31.5c0-3.86,3.14-7,7-7s7,3.14,7,7
		s-3.14,7-7,7S29,35.36,29,31.5z"/>
</g>
</svg>
