<?xml version="1.0" encoding="utf-8"?>
<!-- Generator: Adobe Illustrator 28.1.0, SVG Export Plug-In . SVG Version: 6.00 Build 0)  -->
<svg version="1.1" id="Layer_1" xmlns="http://www.w3.org/2000/svg" xmlns:xlink="http://www.w3.org/1999/xlink" x="0px" y="0px"
	 viewBox="0 0 72 72" style="enable-background:new 0 0 72 72;" xml:space="preserve">
<g>
	<g>
		<path d="M62.06,13.57C57.8,11.52,47.04,7.66,36,13.97c-11.04-6.31-21.8-2.45-26.05-0.41C7.55,14.72,6,17.19,6,19.87v36.37
			c0,2.26,1.1,4.4,2.94,5.71c1.84,1.31,4.2,1.65,6.33,0.91c4.76-1.65,11.93-2.61,19.06,2.14L36,66.11L37.66,65
			c7.14-4.76,14.31-3.79,19.06-2.14c2.13,0.74,4.49,0.4,6.33-0.91C64.9,60.63,66,58.5,66,56.24V19.87
			C66,17.19,64.45,14.72,62.06,13.57z M13.31,57.18c-0.41,0.14-0.73-0.02-0.89-0.13C12.26,56.94,12,56.69,12,56.24V19.87
			c0-0.38,0.21-0.73,0.54-0.89c4.34-2.08,12.86-4.7,21.46,0.82v38.15c-3.81-1.79-7.53-2.46-10.96-2.46
			C19.36,55.48,16.02,56.24,13.31,57.18z M60,56.24c0,0.45-0.26,0.71-0.42,0.82c-0.15,0.11-0.48,0.27-0.89,0.13
			C53.45,55.37,45.9,54.23,38,57.94V19.79c8.6-5.52,17.12-2.9,21.46-0.82c0.33,0.16,0.54,0.51,0.54,0.89V56.24z"/>
	</g>
</g>
</svg>
