<?xml version="1.0" encoding="utf-8"?>
<!-- Generator: Adobe Illustrator 28.1.0, SVG Export Plug-In . SVG Version: 6.00 Build 0)  -->
<svg version="1.1" id="Layer_1" xmlns="http://www.w3.org/2000/svg" xmlns:xlink="http://www.w3.org/1999/xlink" x="0px" y="0px"
	 viewBox="0 0 72 72" style="enable-background:new 0 0 72 72;" xml:space="preserve">
<g>
	<path d="M32.05,54.29L15.88,38.12c-1.17-1.17-1.17-3.07,0-4.24l16.17-16.17c0.2-0.2,0.51-0.2,0.71,0l3.54,3.54
		c0.2,0.2,0.2,0.51,0,0.71L22.24,36l14.05,14.05c0.2,0.2,0.2,0.51,0,0.71l-3.54,3.54C32.56,54.48,32.24,54.48,32.05,54.29z"/>
	<path d="M56.5,39h-37v-6h37c0.28,0,0.5,0.22,0.5,0.5v5C57,38.78,56.78,39,56.5,39z"/>
</g>
</svg>
