<?xml version="1.0" encoding="utf-8"?>
<!-- Generator: Adobe Illustrator 28.1.0, SVG Export Plug-In . SVG Version: 6.00 Build 0)  -->
<svg version="1.1" id="Layer_1" xmlns="http://www.w3.org/2000/svg" xmlns:xlink="http://www.w3.org/1999/xlink" x="0px" y="0px"
	 viewBox="0 0 72 72" style="enable-background:new 0 0 72 72;" xml:space="preserve">
<g>
	<path d="M13.75,53.75c0,4.82,3.93,8.75,8.75,8.75c3.68,0,6.82-2.28,8.12-5.5H36c11.14,0,20.26-8.73,20.93-19.71
		c2.11-1.07,3.57-3.26,3.57-5.79c0-3.58-2.92-6.5-6.5-6.5s-6.5,2.92-6.5,6.5c0,2.48,1.39,4.63,3.44,5.73C50.31,44.93,43.86,51,36,51
		h-5.2c-0.84-2.53-2.81-4.54-5.3-5.46V23.76C27.58,22.67,29,20.5,29,18c0-3.58-2.92-6.5-6.5-6.5S16,14.42,16,18
		c0,2.5,1.42,4.67,3.5,5.76v21.78C16.15,46.77,13.75,49.98,13.75,53.75z M54,29c1.38,0,2.5,1.12,2.5,2.5S55.38,34,54,34
		s-2.5-1.12-2.5-2.5S52.62,29,54,29z M22.5,15.5c1.38,0,2.5,1.12,2.5,2.5s-1.12,2.5-2.5,2.5S20,19.38,20,18S21.12,15.5,22.5,15.5z
		 M22.5,49c2.62,0,4.75,2.13,4.75,4.75s-2.13,4.75-4.75,4.75s-4.75-2.13-4.75-4.75S19.88,49,22.5,49z"/>
</g>
</svg>
