<?xml version="1.0" encoding="utf-8"?>
<!-- Generator: Adobe Illustrator 28.1.0, SVG Export Plug-In . SVG Version: 6.00 Build 0)  -->
<svg version="1.1" id="Layer_1" xmlns="http://www.w3.org/2000/svg" xmlns:xlink="http://www.w3.org/1999/xlink" x="0px" y="0px"
	 viewBox="0 0 72 72" style="enable-background:new 0 0 72 72;" xml:space="preserve">
<g>
	<path d="M41.54,33.71c-0.15-0.37-0.34-0.71-0.55-1.04c-0.22-0.33-0.47-0.63-0.75-0.91C39.12,30.64,37.58,30,36,30
		s-3.12,0.64-4.24,1.76c-0.28,0.28-0.53,0.58-0.75,0.91c-0.21,0.33-0.4,0.67-0.55,1.04c-0.15,0.36-0.26,0.74-0.34,1.12
		C30.04,35.22,30,35.61,30,36s0.04,0.79,0.12,1.17c0.08,0.39,0.19,0.76,0.34,1.13c0.15,0.36,0.34,0.71,0.55,1.03
		c0.22,0.33,0.47,0.64,0.75,0.91c0.27,0.28,0.58,0.53,0.91,0.75c0.33,0.21,0.67,0.4,1.04,0.55c0.36,0.15,0.74,0.27,1.12,0.34
		C35.21,41.96,35.61,42,36,42c0.39,0,0.79-0.04,1.17-0.12c0.39-0.07,0.76-0.19,1.13-0.34c0.36-0.15,0.71-0.34,1.03-0.55
		c0.33-0.22,0.64-0.47,0.91-0.75c0.28-0.27,0.53-0.58,0.75-0.91c0.21-0.32,0.4-0.67,0.55-1.03c0.15-0.37,0.26-0.74,0.34-1.13
		C41.96,36.79,42,36.39,42,36s-0.04-0.78-0.12-1.17C41.8,34.45,41.69,34.07,41.54,33.71z"/>
	<path d="M23.54,33.71c-0.15-0.37-0.33-0.71-0.55-1.04c-0.22-0.33-0.47-0.63-0.75-0.91c-0.27-0.28-0.58-0.53-0.91-0.75
		c-0.32-0.21-0.67-0.4-1.04-0.55c-0.36-0.15-0.74-0.27-1.12-0.34c-1.95-0.4-4.02,0.24-5.41,1.64c-0.28,0.28-0.53,0.58-0.75,0.91
		c-0.21,0.33-0.4,0.67-0.55,1.04c-0.15,0.36-0.27,0.74-0.34,1.12C12.04,35.22,12,35.61,12,36s0.04,0.79,0.12,1.17
		c0.07,0.39,0.19,0.76,0.34,1.13c0.15,0.36,0.34,0.71,0.55,1.03c0.22,0.33,0.47,0.64,0.75,0.91c0.27,0.28,0.58,0.53,0.91,0.75
		c0.32,0.21,0.67,0.4,1.04,0.55c0.36,0.15,0.74,0.27,1.12,0.34C17.21,41.96,17.61,42,18,42c0.39,0,0.79-0.04,1.17-0.12
		c0.38-0.07,0.76-0.19,1.12-0.34c0.37-0.15,0.72-0.34,1.04-0.55c0.33-0.22,0.64-0.47,0.91-0.75c0.28-0.27,0.53-0.58,0.75-0.91
		c0.22-0.32,0.4-0.67,0.55-1.03c0.15-0.37,0.27-0.74,0.34-1.13C23.96,36.79,24,36.39,24,36s-0.04-0.78-0.12-1.17
		C23.81,34.45,23.69,34.07,23.54,33.71z"/>
	<path d="M59.88,34.83c-0.07-0.38-0.19-0.76-0.34-1.12c-0.15-0.37-0.33-0.72-0.55-1.04c-0.22-0.33-0.47-0.64-0.75-0.91
		c-0.27-0.28-0.58-0.53-0.91-0.75c-0.32-0.21-0.67-0.4-1.03-0.55c-0.37-0.15-0.74-0.26-1.13-0.34c-1.95-0.39-4.02,0.24-5.41,1.64
		C48.64,32.88,48,34.42,48,36c0,1.58,0.64,3.13,1.76,4.24c0.27,0.28,0.58,0.53,0.91,0.75c0.33,0.21,0.67,0.4,1.04,0.55
		c0.36,0.15,0.74,0.27,1.12,0.34C53.22,41.96,53.61,42,54,42c0.39,0,0.79-0.04,1.17-0.12c0.39-0.07,0.76-0.19,1.13-0.34
		c0.36-0.15,0.71-0.33,1.03-0.55c0.33-0.22,0.64-0.47,0.91-0.75C59.36,39.13,60,37.58,60,36C60,35.61,59.96,35.22,59.88,34.83z"/>
</g>
</svg>
