<?xml version="1.0" encoding="utf-8"?>
<!-- Generator: Adobe Illustrator 28.1.0, SVG Export Plug-In . SVG Version: 6.00 Build 0)  -->
<svg version="1.1" id="Layer_1" xmlns="http://www.w3.org/2000/svg" xmlns:xlink="http://www.w3.org/1999/xlink" x="0px" y="0px"
	 viewBox="0 0 72 72" style="enable-background:new 0 0 72 72;" xml:space="preserve">
<path d="M8.65,65.48l-2.12-2.12c-0.2-0.2-0.2-0.51,0-0.71L62.65,6.52c0.2-0.2,0.51-0.2,0.71,0l2.12,2.12c0.2,0.2,0.2,0.51,0,0.71
	L9.35,65.48C9.16,65.67,8.84,65.67,8.65,65.48z"/>
<g>
	<path d="M15.98,48.69l3.58-3.58c0.2-0.2,0.19-0.54-0.03-0.73c-3.56-3.12-5.94-6.55-7.07-8.39c2.41-3.91,10.4-15,23.54-15
		c2.29,0,4.42,0.34,6.39,0.92c0.17,0.05,0.36,0,0.49-0.12l3.96-3.96c0.25-0.25,0.17-0.69-0.17-0.82C43.52,15.77,39.96,15,36,15
		C16.37,15,6.72,33.86,6.32,34.66c-0.42,0.84-0.42,1.84,0,2.68c0.22,0.44,3.17,6.2,8.97,11.37C15.48,48.89,15.79,48.88,15.98,48.69z
		"/>
	<path d="M56.02,23.31l-3.58,3.58c-0.2,0.2-0.19,0.54,0.03,0.73c3.56,3.12,5.94,6.54,7.07,8.39C57.13,39.91,49.14,51,36,51
		c-2.29,0-4.42-0.34-6.39-0.92c-0.17-0.05-0.36,0-0.49,0.12l-3.96,3.96c-0.25,0.25-0.17,0.69,0.17,0.82C28.48,56.23,32.04,57,36,57
		c19.63,0,29.28-18.86,29.68-19.66c0.42-0.84,0.42-1.84,0-2.68c-0.22-0.44-3.17-6.2-8.97-11.37C56.52,23.11,56.21,23.12,56.02,23.31
		z"/>
</g>
</svg>
