<?xml version="1.0" encoding="utf-8"?>
<!-- Generator: Adobe Illustrator 28.1.0, SVG Export Plug-In . SVG Version: 6.00 Build 0)  -->
<svg version="1.1" id="Layer_1" xmlns="http://www.w3.org/2000/svg" xmlns:xlink="http://www.w3.org/1999/xlink" x="0px" y="0px"
	 viewBox="0 0 72 72" style="enable-background:new 0 0 72 72;" xml:space="preserve">
<path d="M59,66H13c-3.86,0-7-3.14-7-7V13c0-3.86,3.14-7,7-7h46c3.86,0,7,3.14,7,7v46C66,62.86,62.86,66,59,66z M13,12
	c-0.55,0-1,0.45-1,1v46c0,0.55,0.45,1,1,1h46c0.55,0,1-0.45,1-1V13c0-0.55-0.45-1-1-1H13z"/>
<path d="M18,33.5c-0.51,0-1.02-0.2-1.41-0.59c-0.78-0.78-0.78-2.05,0-2.83l5.34-5.34l-5.34-5.34c-0.78-0.78-0.78-2.05,0-2.83
	c0.78-0.78,2.05-0.78,2.83,0l6.75,6.75c0.78,0.78,0.78,2.05,0,2.83l-6.75,6.75C19.02,33.3,18.51,33.5,18,33.5z"/>
<path d="M40.5,33.5h-9c-1.1,0-2-0.9-2-2s0.9-2,2-2h9c1.1,0,2,0.9,2,2S41.6,33.5,40.5,33.5z"/>
</svg>
