<?xml version="1.0" encoding="utf-8"?>
<!-- Generator: Adobe Illustrator 28.1.0, SVG Export Plug-In . SVG Version: 6.00 Build 0)  -->
<svg version="1.1" id="Layer_1" xmlns="http://www.w3.org/2000/svg" xmlns:xlink="http://www.w3.org/1999/xlink" x="0px" y="0px"
	 viewBox="0 0 72 72" style="enable-background:new 0 0 72 72;" xml:space="preserve">
<g>
	<path d="M55.64,24.11C52.6,16,44.82,10.5,36,10.5c-8.82,0-16.6,5.5-19.64,13.61C10.51,24.92,6,29.94,6,36c0,6.62,5.38,12,12,12
		c1.42,0,2.83-0.25,4.15-0.75C25.97,50.61,30.9,52.5,36,52.5c5.1,0,10.03-1.89,13.85-5.25C51.17,47.75,52.58,48,54,48
		c6.62,0,12-5.38,12-12C66,29.94,61.49,24.92,55.64,24.11z M54,42c-1.11,0-2.2-0.31-3.15-0.91l-2.11-1.32l-1.68,1.84
		C44.2,44.72,40.17,46.5,36,46.5c-4.18,0-8.2-1.78-11.05-4.89l-1.68-1.84l-2.12,1.32C20.2,41.69,19.11,42,18,42c-3.31,0-6-2.69-6-6
		s2.69-6,6-6c0.06,0,0.12,0.01,0.18,0.01l2.69,0.14l0.61-2.38C23.19,21.14,29.15,16.5,36,16.5c6.84,0,12.81,4.64,14.51,11.27
		l0.61,2.38l2.69-0.14c0.06,0,0.12-0.01,0.18-0.01c3.31,0,6,2.69,6,6S57.31,42,54,42z"/>
	<path d="M15.88,51.88C15.32,52.44,15,53.21,15,54s0.32,1.56,0.88,2.12C16.44,56.68,17.21,57,18,57s1.56-0.32,2.12-0.88
		c0.14-0.14,0.27-0.29,0.37-0.45c0.11-0.17,0.21-0.34,0.28-0.52c0.08-0.18,0.13-0.37,0.17-0.56C20.98,54.39,21,54.2,21,54
		c0-0.79-0.32-1.56-0.88-2.12C19.01,50.76,17,50.76,15.88,51.88z"/>
	<path d="M38.77,57.35c-0.07-0.18-0.17-0.35-0.28-0.51c-0.1-0.17-0.23-0.32-0.37-0.46c-1.11-1.12-3.12-1.12-4.24,0
		c-0.14,0.14-0.26,0.29-0.37,0.46c-0.11,0.16-0.2,0.33-0.28,0.51c-0.07,0.18-0.13,0.37-0.17,0.56c-0.04,0.2-0.06,0.4-0.06,0.59
		c0,0.2,0.02,0.39,0.06,0.59c0.04,0.19,0.1,0.38,0.17,0.56c0.08,0.18,0.17,0.35,0.28,0.52c0.11,0.16,0.23,0.31,0.37,0.45
		c0.56,0.56,1.33,0.88,2.12,0.88s1.56-0.32,2.12-0.88c0.14-0.14,0.27-0.29,0.37-0.45c0.11-0.17,0.21-0.34,0.28-0.52
		c0.08-0.18,0.13-0.37,0.17-0.56C38.98,58.89,39,58.7,39,58.5c0-0.19-0.02-0.39-0.06-0.59C38.9,57.72,38.85,57.53,38.77,57.35z"/>
	<path d="M56.77,52.85c-0.07-0.18-0.17-0.35-0.28-0.51c-0.1-0.17-0.23-0.32-0.37-0.46c-0.14-0.14-0.29-0.26-0.45-0.37
		c-0.17-0.11-0.34-0.2-0.52-0.28c-0.18-0.07-0.37-0.13-0.56-0.17c-0.98-0.19-2.02,0.12-2.71,0.82C51.32,52.44,51,53.21,51,54
		c0,0.2,0.02,0.39,0.06,0.59c0.04,0.19,0.1,0.38,0.17,0.56c0.08,0.18,0.17,0.35,0.28,0.52c0.11,0.16,0.23,0.31,0.37,0.45
		C52.44,56.68,53.21,57,54,57c0.2,0,0.39-0.02,0.59-0.06c0.19-0.04,0.38-0.09,0.56-0.17c0.18-0.07,0.35-0.17,0.52-0.28
		c0.16-0.1,0.31-0.23,0.45-0.37c0.14-0.14,0.27-0.29,0.37-0.45c0.11-0.17,0.21-0.34,0.28-0.52c0.08-0.18,0.13-0.37,0.17-0.56
		C56.98,54.39,57,54.2,57,54c0-0.19-0.02-0.39-0.06-0.59C56.9,53.22,56.85,53.04,56.77,52.85z"/>
</g>
</svg>
