<?xml version="1.0" encoding="utf-8"?>
<!-- Generator: Adobe Illustrator 28.1.0, SVG Export Plug-In . SVG Version: 6.00 Build 0)  -->
<svg version="1.1" id="Layer_1" xmlns="http://www.w3.org/2000/svg" xmlns:xlink="http://www.w3.org/1999/xlink" x="0px" y="0px"
	 viewBox="0 0 72 72" style="enable-background:new 0 0 72 72;" xml:space="preserve">
<g>
	<path d="M57,36c0-10.56-7.84-19.3-18-20.76V9c0-1.66-1.34-3-3-3s-3,1.34-3,3v6.24C22.84,16.7,15,25.44,15,36v18c0,1.66,1.34,3,3,3
		h6.39c1.34,5.17,6.03,9,11.61,9s10.27-3.83,11.61-9H54c1.66,0,3-1.34,3-3V36z M36,60c-2.22,0-4.15-1.21-5.19-3h10.38
		C40.15,58.79,38.22,60,36,60z M51,51H21V36c0-8.27,6.73-15,15-15s15,6.73,15,15V51z"/>
</g>
</svg>
