<?xml version="1.0" encoding="utf-8"?>
<!-- Generator: Adobe Illustrator 28.1.0, SVG Export Plug-In . SVG Version: 6.00 Build 0)  -->
<svg version="1.1" id="Layer_1" xmlns="http://www.w3.org/2000/svg" xmlns:xlink="http://www.w3.org/1999/xlink" x="0px" y="0px"
	 viewBox="0 0 72 72" style="enable-background:new 0 0 72 72;" xml:space="preserve">
<g>
	<path d="M43,67.5h-5c-0.28,0-0.5-0.22-0.5-0.5V54h6v13C43.5,67.28,43.28,67.5,43,67.5z"/>
	<path d="M34,67.5h-5c-0.28,0-0.5-0.22-0.5-0.5V54h6v13C34.5,67.28,34.28,67.5,34,67.5z"/>
</g>
<path d="M36,30c-5.38,0-9.75-4.37-9.75-9.75S30.62,10.5,36,10.5s9.75,4.37,9.75,9.75S41.38,30,36,30z M36,16.5
	c-2.07,0-3.75,1.68-3.75,3.75S33.93,24,36,24s3.75-1.68,3.75-3.75S38.07,16.5,36,16.5z"/>
<path d="M46.07,57H25.93c-1.18,0-2.29-0.52-3.05-1.41s-1.09-2.08-0.89-3.24l3.2-19.18C26.07,27.85,30.62,24,36,24
	s9.93,3.85,10.82,9.17l3.2,19.18c0.19,1.16-0.13,2.34-0.89,3.24S47.25,57,46.07,57z M28.29,51h15.42L40.9,34.15
	C40.5,31.75,38.44,30,36,30s-4.5,1.75-4.9,4.15L28.29,51z"/>
</svg>
