<?xml version="1.0" encoding="utf-8"?>
<!-- Generator: Adobe Illustrator 28.1.0, SVG Export Plug-In . SVG Version: 6.00 Build 0)  -->
<svg version="1.1" id="Layer_1" xmlns="http://www.w3.org/2000/svg" xmlns:xlink="http://www.w3.org/1999/xlink" x="0px" y="0px"
	 viewBox="0 0 72 72" style="enable-background:new 0 0 72 72;" xml:space="preserve">
<path d="M55.75,6.57c-0.78-0.56-1.79-0.72-2.7-0.41l-27,9C24.83,15.56,24,16.71,24,18v25.62C22.23,42.6,20.19,42,18,42
	c-6.62,0-12,5.38-12,12s5.38,12,12,12s12-5.38,12-12V20.16l21-7v21.46C49.23,33.6,47.19,33,45,33c-6.62,0-12,5.38-12,12
	s5.38,12,12,12s12-5.38,12-12V9C57,8.04,56.54,7.13,55.75,6.57z M18,60c-3.31,0-6-2.69-6-6s2.69-6,6-6s6,2.69,6,6S21.31,60,18,60z
	 M45,51c-3.31,0-6-2.69-6-6s2.69-6,6-6s6,2.69,6,6S48.31,51,45,51z"/>
</svg>
