<?xml version="1.0" encoding="utf-8"?>
<!-- Generator: Adobe Illustrator 28.1.0, SVG Export Plug-In . SVG Version: 6.00 Build 0)  -->
<svg version="1.1" id="Layer_1" xmlns="http://www.w3.org/2000/svg" xmlns:xlink="http://www.w3.org/1999/xlink" x="0px" y="0px"
	 viewBox="0 0 72 72" style="enable-background:new 0 0 72 72;" xml:space="preserve">
<g>
	<path d="M61.02,28.95c-0.57,0-1.12,0.07-1.64,0.2l-5.76-9.98c1.2-1.26,1.94-2.97,1.94-4.84c0-3.89-3.16-7.05-7.05-7.05
		c-3.19,0-5.89,2.13-6.76,5.05H30.24c-0.86-2.91-3.56-5.05-6.76-5.05c-3.89,0-7.05,3.16-7.05,7.05c0,1.88,0.74,3.58,1.94,4.84
		l-5.76,9.98c-0.53-0.13-1.08-0.2-1.64-0.2c-3.89,0-7.05,3.16-7.05,7.05s3.16,7.05,7.05,7.05c0.57,0,1.12-0.07,1.64-0.2l5.76,9.98
		c-1.2,1.26-1.94,2.97-1.94,4.84c0,3.89,3.16,7.05,7.05,7.05c3.19,0,5.89-2.13,6.76-5.05h11.51c0.86,2.91,3.56,5.05,6.76,5.05
		c3.89,0,7.05-3.16,7.05-7.05c0-1.88-0.74-3.58-1.94-4.84l5.76-9.98c0.53,0.13,1.08,0.2,1.64,0.2c3.89,0,7.05-3.16,7.05-7.05
		S64.91,28.95,61.02,28.95z M48.51,50.62c-3.19,0-5.89,2.13-6.76,5.05H30.24c-0.86-2.91-3.56-5.05-6.76-5.05
		c-0.57,0-1.12,0.07-1.64,0.2l-5.76-9.98c1.2-1.26,1.94-2.97,1.94-4.84s-0.74-3.58-1.94-4.84l5.76-9.98c0.53,0.13,1.08,0.2,1.64,0.2
		c3.19,0,5.89-2.13,6.76-5.05h11.51c0.86,2.91,3.56,5.05,6.76,5.05c0.57,0,1.12-0.07,1.64-0.2l5.76,9.98
		c-1.2,1.26-1.94,2.97-1.94,4.84s0.74,3.58,1.94,4.84l-5.76,9.98C49.63,50.7,49.08,50.62,48.51,50.62z"/>
</g>
</svg>
