<?xml version="1.0" encoding="utf-8"?>
<!-- Generator: Adobe Illustrator 28.1.0, SVG Export Plug-In . SVG Version: 6.00 Build 0)  -->
<svg version="1.1" id="Layer_1" xmlns="http://www.w3.org/2000/svg" xmlns:xlink="http://www.w3.org/1999/xlink" x="0px" y="0px"
	 viewBox="0 0 72 72" style="enable-background:new 0 0 72 72;" xml:space="preserve">
<g>
	<path d="M54.5,19.5H38.35l-2.56-5.13c-1.19-2.39-3.59-3.87-6.26-3.87H18c-3.86,0-7,3.14-7,7v37c0,3.86,3.14,7,7,7h36.5
		c3.86,0,7-3.14,7-7v-28C61.5,22.64,58.36,19.5,54.5,19.5z M55.5,54.5c0,0.55-0.45,1-1,1H18c-0.55,0-1-0.45-1-1v-21h38.5V54.5z
		 M55.5,29.5H17v-12c0-0.55,0.45-1,1-1h11.53c0.38,0,0.72,0.21,0.89,0.55l4.22,8.45H54.5c0.55,0,1,0.45,1,1V29.5z"/>
</g>
</svg>
