<?xml version="1.0" encoding="utf-8"?>
<!-- Generator: Adobe Illustrator 28.1.0, SVG Export Plug-In . SVG Version: 6.00 Build 0)  -->
<svg version="1.1" id="Layer_1" xmlns="http://www.w3.org/2000/svg" xmlns:xlink="http://www.w3.org/1999/xlink" x="0px" y="0px"
	 viewBox="0 0 72 72" style="enable-background:new 0 0 72 72;" xml:space="preserve">
<g>
	<path d="M28.29,66c1.29,0,4.38-0.06,7.86-0.57c4.02,0.57,7.42,0.57,7.57,0.57c0.21,0,5.18-0.01,10.23-1.02
		C63.91,62.98,66,58.61,66,55.29c0-8.83-5.16-16.48-12.63-20.08c2.82-2.61,4.6-6.32,4.6-10.45c0-7.86-6.39-14.25-14.25-14.25
		c-2.77,0-5.43,0.8-7.72,2.28c-2.23-1.44-4.87-2.28-7.71-2.28c-7.86,0-14.25,6.39-14.25,14.25c0,4.13,1.78,7.85,4.6,10.45
		C11.16,38.81,6,46.45,6,55.29C6,65.48,24.56,66,28.29,66z M60,55.29c0,1.76-4.41,3.69-10.89,4.41c0.92-1.22,1.47-2.67,1.47-4.41
		c0-6.42-2.73-12.2-7.08-16.27c0.08,0,0.15-0.01,0.23-0.01C52.69,39,60,46.31,60,55.29z M51.96,24.75c0,4.55-3.7,8.25-8.25,8.25
		c-1.17,0-2.3-0.26-3.35-0.72c1.37-2.19,2.17-4.76,2.17-7.53s-0.8-5.34-2.17-7.53c1.05-0.47,2.18-0.72,3.35-0.72
		C48.26,16.5,51.96,20.2,51.96,24.75z M20.04,24.75c0-4.55,3.7-8.25,8.25-8.25s8.25,3.7,8.25,8.25S32.83,33,28.29,33
		S20.04,29.3,20.04,24.75z M28.29,39c8.98,0,16.29,7.31,16.29,16.29c0,1.55-3.39,3.22-8.59,4.1c-0.3,0-0.59,0.05-0.86,0.13
		c-2.06,0.3-4.36,0.48-6.83,0.48C18.97,59.99,12,57.5,12,55.29C12,46.31,19.31,39,28.29,39z"/>
</g>
</svg>
