<?xml version="1.0" encoding="utf-8"?>
<!-- Generator: Adobe Illustrator 28.1.0, SVG Export Plug-In . SVG Version: 6.00 Build 0)  -->
<svg version="1.1" id="Layer_1" xmlns="http://www.w3.org/2000/svg" xmlns:xlink="http://www.w3.org/1999/xlink" x="0px" y="0px"
	 viewBox="0 0 72 72" style="enable-background:new 0 0 72 72;" xml:space="preserve">
<path d="M36,57C16.37,57,6.72,38.14,6.32,37.34c-0.42-0.84-0.42-1.84,0-2.68C6.72,33.86,16.37,15,36,15
	c19.63,0,29.28,18.86,29.68,19.66c0.42,0.84,0.42,1.84,0,2.68C65.28,38.14,55.63,57,36,57z M12.46,36c2.41,3.91,10.4,15,23.54,15
	c13.14,0,21.13-11.09,23.54-15C57.13,32.09,49.14,21,36,21C22.86,21,14.87,32.09,12.46,36z"/>
<path d="M36,47c-6.07,0-11-4.93-11-11s4.93-11,11-11s11,4.93,11,11S42.07,47,36,47z M36,29c-3.86,0-7,3.14-7,7s3.14,7,7,7
	s7-3.14,7-7S39.86,29,36,29z"/>
</svg>
