<?xml version="1.0" encoding="utf-8"?>
<!-- Generator: Adobe Illustrator 28.1.0, SVG Export Plug-In . SVG Version: 6.00 Build 0)  -->
<svg version="1.1" id="Layer_1" xmlns="http://www.w3.org/2000/svg" xmlns:xlink="http://www.w3.org/1999/xlink" x="0px" y="0px"
	 viewBox="0 0 72 72" style="enable-background:new 0 0 72 72;" xml:space="preserve">
<g>
	<g>
		<path d="M36,6C19.46,6,6,19.46,6,36s13.46,30,30,30s30-13.46,30-30S52.54,6,36,6z M36,60c-13.23,0-24-10.77-24-24s10.77-24,24-24
			s24,10.77,24,24S49.23,60,36,60z"/>
	</g>
	<g>
		<path d="M49.68,19.79L27.5,27.19c-0.15,0.05-0.27,0.17-0.32,0.32l-7.39,22.18c-0.52,1.56,0.97,3.05,2.53,2.53l22.18-7.39
			c0.15-0.05,0.27-0.17,0.32-0.32l7.39-22.18C52.73,20.76,51.24,19.27,49.68,19.79z M39.99,39.99l-11.98,3.99l3.99-11.98l11.98-3.99
			L39.99,39.99z"/>
	</g>
</g>
</svg>
