<?xml version="1.0" encoding="utf-8"?>
<!-- Generator: Adobe Illustrator 28.1.0, SVG Export Plug-In . SVG Version: 6.00 Build 0)  -->
<svg version="1.1" id="Layer_1" xmlns="http://www.w3.org/2000/svg" xmlns:xlink="http://www.w3.org/1999/xlink" x="0px" y="0px"
	 viewBox="0 0 72 72" style="enable-background:new 0 0 72 72;" xml:space="preserve">
<path d="M31.5,57C22.4,57,15,49.6,15,40.5S22.4,24,31.5,24S48,31.4,48,40.5S40.6,57,31.5,57z M31.5,30C25.71,30,21,34.71,21,40.5
	S25.71,51,31.5,51S42,46.29,42,40.5S37.29,30,31.5,30z"/>
<g>
	<path d="M59.46,34.5h-5c-0.28,0-0.5-0.22-0.5-0.5V18.04H38c-0.28,0-0.5-0.22-0.5-0.5v-5c0-0.28,0.22-0.5,0.5-0.5h18.96
		c1.66,0,3,1.34,3,3V34C59.96,34.28,59.73,34.5,59.46,34.5z"/>
	<rect x="35.36" y="21.48" transform="matrix(0.7071 -0.7071 0.7071 0.7071 -3.39 40.7725)" width="24.32" height="6"/>
</g>
</svg>
