<?xml version="1.0" encoding="utf-8"?>
<!-- Generator: Adobe Illustrator 28.1.0, SVG Export Plug-In . SVG Version: 6.00 Build 0)  -->
<svg version="1.1" id="Layer_1" xmlns="http://www.w3.org/2000/svg" xmlns:xlink="http://www.w3.org/1999/xlink" x="0px" y="0px"
	 viewBox="0 0 72 72" style="enable-background:new 0 0 72 72;" xml:space="preserve">
<path d="M33.74,61.35c-6.65,0.87-12.99-2.16-16.54-8.07c-0.77-1.28-1.34-2.67-1.69-4.12c-1.44-5.9,0.24-11.75,4.32-15.84l1.77-1.77
	c0.2-0.2,0.51-0.2,0.71,0l2.04,2.04c1.02,1.02,1.02,2.67,0,3.69l-0.03,0.03c-1.93,1.93-3.19,4.48-3.31,7.21
	c-0.13,2.97,0.97,5.79,3.07,7.88c2.09,2.09,4.91,3.19,7.88,3.07c2.73-0.12,5.28-1.38,7.21-3.31l1.52-1.52c0.2-0.2,0.51-0.2,0.71,0
	l2.04,2.04c1.02,1.02,1.02,2.67,0,3.69l0,0C40.81,59.02,37.43,60.87,33.74,61.35z"/>
<path d="M27,20c-3.58,0-6.5-2.92-6.5-6.5S23.42,7,27,7s6.5,2.92,6.5,6.5S30.58,20,27,20z M27,11c-1.38,0-2.5,1.12-2.5,2.5
	S25.62,16,27,16s2.5-1.12,2.5-2.5S28.38,11,27,11z"/>
<path d="M52,57h-5c-0.28,0-0.5-0.22-0.5-0.5v-13H32.22c-1.72,0-3.25-1.1-3.79-2.74l-5.06-15.19c-0.09-0.26,0.05-0.55,0.32-0.63
	l4.74-1.58c0.26-0.09,0.55,0.05,0.63,0.32l4.61,13.82H48.5c2.21,0,4,1.79,4,4v15C52.5,56.78,52.28,57,52,57z"/>
<path d="M42,33.5H29.5v-4H42c0.28,0,0.5,0.22,0.5,0.5v3C42.5,33.28,42.28,33.5,42,33.5z"/>
</svg>
