<?xml version="1.0" encoding="utf-8"?>
<!-- Generator: Adobe Illustrator 28.1.0, SVG Export Plug-In . SVG Version: 6.00 Build 0)  -->
<svg version="1.1" id="Layer_1" xmlns="http://www.w3.org/2000/svg" xmlns:xlink="http://www.w3.org/1999/xlink" x="0px" y="0px"
	 viewBox="0 0 72 72" style="enable-background:new 0 0 72 72;" xml:space="preserve">
<g>
	<path d="M19.5,34.5h6c4.96,0,9-4.04,9-9v-6c0-4.96-4.04-9-9-9h-6c-4.96,0-9,4.04-9,9v6C10.5,30.46,14.54,34.5,19.5,34.5z
		 M16.5,19.5c0-1.65,1.35-3,3-3h6c1.65,0,3,1.35,3,3v6c0,1.65-1.35,3-3,3h-6c-1.65,0-3-1.35-3-3V19.5z"/>
	<path d="M46.5,61.5h6c4.96,0,9-4.04,9-9v-6c0-4.96-4.04-9-9-9h-6c-4.96,0-9,4.04-9,9v6C37.5,57.46,41.54,61.5,46.5,61.5z
		 M43.5,46.5c0-1.65,1.35-3,3-3h6c1.65,0,3,1.35,3,3v6c0,1.65-1.35,3-3,3h-6c-1.65,0-3-1.35-3-3V46.5z"/>
	<path d="M19.5,61.5h6c4.96,0,9-4.04,9-9v-6c0-4.96-4.04-9-9-9h-6c-4.96,0-9,4.04-9,9v6C10.5,57.46,14.54,61.5,19.5,61.5z
		 M16.5,46.5c0-1.65,1.35-3,3-3h6c1.65,0,3,1.35,3,3v6c0,1.65-1.35,3-3,3h-6c-1.65,0-3-1.35-3-3V46.5z"/>
	<path d="M40.5,24.5h7v7c0,1.1,0.9,2,2,2s2-0.9,2-2v-7h7c1.1,0,2-0.9,2-2s-0.9-2-2-2h-7v-7c0-1.1-0.9-2-2-2s-2,0.9-2,2v7h-7
		c-1.1,0-2,0.9-2,2S39.4,24.5,40.5,24.5z"/>
</g>
</svg>
