<?xml version="1.0" encoding="utf-8"?>
<!-- Generator: Adobe Illustrator 28.1.0, SVG Export Plug-In . SVG Version: 6.00 Build 0)  -->
<svg version="1.1" id="Layer_1" xmlns="http://www.w3.org/2000/svg" xmlns:xlink="http://www.w3.org/1999/xlink" x="0px" y="0px"
	 viewBox="0 0 72 72" style="enable-background:new 0 0 72 72;" xml:space="preserve">
<path d="M36,43.5c-0.46,0-0.92-0.11-1.34-0.32l-22.5-11.25c-1.02-0.51-1.66-1.55-1.66-2.68s0.64-2.18,1.66-2.68l22.5-11.25
	c0.85-0.42,1.84-0.42,2.68,0l22.5,11.25c1.02,0.51,1.66,1.55,1.66,2.68s-0.64,2.18-1.66,2.68l-22.5,11.25
	C36.92,43.39,36.46,43.5,36,43.5z M20.21,29.25L36,37.15l15.79-7.9L36,21.35L20.21,29.25z"/>
<path d="M36,57c-10.13,0-15.4-5.16-15.62-5.38c-0.56-0.56-0.88-1.33-0.88-2.12V33.75c0-1.66,1.34-3,3-3s3,1.34,3,3v14.32
	C27.02,49.12,30.49,51,36,51c5.5,0,8.97-1.87,10.5-2.93V33.75c0-1.66,1.34-3,3-3s3,1.34,3,3V49.5c0,0.8-0.32,1.56-0.88,2.12
	C51.4,51.84,46.13,57,36,57z"/>
<path d="M58.5,47c-1.1,0-2-0.9-2-2V31.5c0-1.1,0.9-2,2-2s2,0.9,2,2V45C60.5,46.1,59.6,47,58.5,47z"/>
</svg>
