<?xml version="1.0" encoding="utf-8"?>
<!-- Generator: Adobe Illustrator 28.1.0, SVG Export Plug-In . SVG Version: 6.00 Build 0)  -->
<svg version="1.1" id="Layer_1" xmlns="http://www.w3.org/2000/svg" xmlns:xlink="http://www.w3.org/1999/xlink" x="0px" y="0px"
	 viewBox="0 0 72 72" style="enable-background:new 0 0 72 72;" xml:space="preserve">
<path d="M61.5,29.25c0-1.14-0.64-2.18-1.66-2.68l-22.5-11.25c-0.84-0.42-1.84-0.42-2.68,0l-22.5,11.25
	c-1.02,0.51-1.66,1.55-1.66,2.68s0.64,2.18,1.66,2.68l7.34,3.67v13.9c0,0.8,0.32,1.56,0.88,2.12C20.6,51.84,25.87,57,36,57
	s15.4-5.16,15.62-5.38c0.56-0.56,0.88-1.33,0.88-2.12V35.6l4-2V45c0,1.1,0.9,2,2,2s2-0.9,2-2V31.5c0-0.01,0-0.01,0-0.02
	C61.13,30.92,61.5,30.12,61.5,29.25z M36,21.35l15.79,7.9L36,37.15l-15.79-7.9L36,21.35z M46.5,48.07C44.97,49.13,41.5,51,36,51
	c-5.51,0-8.98-1.88-10.5-2.93V38.6l9.16,4.58c0.42,0.21,0.88,0.32,1.34,0.32s0.92-0.11,1.34-0.32l9.16-4.58V48.07z"/>
</svg>
