<?xml version="1.0" encoding="utf-8"?>
<!-- Generator: Adobe Illustrator 28.1.0, SVG Export Plug-In . SVG Version: 6.00 Build 0)  -->
<svg version="1.1" id="Layer_1" xmlns="http://www.w3.org/2000/svg" xmlns:xlink="http://www.w3.org/1999/xlink" x="0px" y="0px"
	 viewBox="0 0 72 72" style="enable-background:new 0 0 72 72;" xml:space="preserve">
<g>
	<path d="M57.21,14.79C51.55,9.12,44.01,6,36,6c-8.01,0-15.55,3.12-21.21,8.79C9.12,20.45,6,27.99,6,36s3.12,15.55,8.79,21.21
		C20.45,62.88,27.99,66,36,66s15.55-3.12,21.21-8.79C62.88,51.55,66,44.01,66,36S62.88,20.45,57.21,14.79
		C57.21,14.79,57.21,14.79,57.21,14.79z M36,12c5.74,0,11.17,2.01,15.49,5.68l-5.34,5.34c-5.95-4.66-14.37-4.66-20.32,0l-5.34-5.34
		C24.83,14.01,30.26,12,36,12z M43.42,43.42c-4.09,4.09-10.75,4.09-14.85,0c-4.09-4.09-4.09-10.76,0-14.85
		c2.05-2.05,4.74-3.07,7.42-3.07s5.38,1.02,7.42,3.07C47.52,32.67,47.52,39.33,43.42,43.42z M12,36c0-5.74,2.01-11.17,5.68-15.49
		l5.34,5.34c-4.66,5.95-4.66,14.37,0,20.32l-5.34,5.34C14.01,47.17,12,41.74,12,36z M36,60c-5.74,0-11.17-2.01-15.49-5.68l5.34-5.34
		c2.97,2.33,6.56,3.51,10.16,3.51s7.18-1.18,10.16-3.51l5.34,5.34C47.17,57.99,41.74,60,36,60z M54.32,51.49l-5.34-5.34
		c4.66-5.95,4.66-14.37,0-20.32l5.34-5.34C57.99,24.83,60,30.26,60,36C60,41.74,57.99,47.17,54.32,51.49z"/>
</g>
</svg>
