<?xml version="1.0" encoding="utf-8"?>
<!-- Generator: Adobe Illustrator 28.1.0, SVG Export Plug-In . SVG Version: 6.00 Build 0)  -->
<svg version="1.1" id="Layer_1" xmlns="http://www.w3.org/2000/svg" xmlns:xlink="http://www.w3.org/1999/xlink" x="0px" y="0px"
	 viewBox="0 0 72 72" style="enable-background:new 0 0 72 72;" xml:space="preserve">
<path d="M64.87,36.36l-27-21.6c-1.1-0.88-2.65-0.88-3.75,0l-27,21.6c-1,0.8-1.38,2.13-0.96,3.34C6.59,40.9,7.73,41.7,9,41.7h7.8v9.2
	c0,3.86,3.14,7,7,7h24.4c3.86,0,7-3.14,7-7v-9.2H63c1.27,0,2.41-0.8,2.83-2.01S65.87,37.15,64.87,36.36z M52.2,35.7
	c-1.66,0-3,1.34-3,3v12.2c0,0.55-0.45,1-1,1H23.8c-0.55,0-1-0.45-1-1V38.7c0-1.66-1.34-3-3-3h-2.25L36,20.94L54.45,35.7H52.2z"/>
</svg>
