<?xml version="1.0" encoding="utf-8"?>
<!-- Generator: Adobe Illustrator 28.1.0, SVG Export Plug-In . SVG Version: 6.00 Build 0)  -->
<svg version="1.1" id="Layer_1" xmlns="http://www.w3.org/2000/svg" xmlns:xlink="http://www.w3.org/1999/xlink" x="0px" y="0px"
	 viewBox="0 0 72 72" style="enable-background:new 0 0 72 72;" xml:space="preserve">
<g>
	<path d="M36,6C19.46,6,6,19.46,6,36s13.46,30,30,30s30-13.46,30-30S52.54,6,36,6z M36,60c-13.23,0-24-10.77-24-24
		c0-13.23,10.77-24,24-24c13.23,0,24,10.77,24,24C60,49.23,49.23,60,36,60z"/>
	<path d="M46.34,24.32c-1.48-0.74-3.28-0.14-4.03,1.34l-7.14,14.28l-6.06-6.06c-1.17-1.17-3.07-1.17-4.24,0
		c-1.17,1.17-1.17,3.07,0,4.24l11.94,11.94l10.86-21.72C48.42,26.86,47.82,25.06,46.34,24.32z"/>
</g>
</svg>
