<?xml version="1.0" encoding="utf-8"?>
<!-- Generator: Adobe Illustrator 28.1.0, SVG Export Plug-In . SVG Version: 6.00 Build 0)  -->
<svg version="1.1" id="Layer_1" xmlns="http://www.w3.org/2000/svg" xmlns:xlink="http://www.w3.org/1999/xlink" x="0px" y="0px"
	 viewBox="0 0 72 72" style="enable-background:new 0 0 72 72;" xml:space="preserve">
<path d="M38.5,48h-5c-0.28,0-0.5-0.22-0.5-0.5v-23c0-0.28,0.22-0.5,0.5-0.5h5c0.28,0,0.5,0.22,0.5,0.5v23C39,47.78,38.78,48,38.5,48
	z"/>
<path d="M47.5,39h-23c-0.28,0-0.5-0.22-0.5-0.5v-5c0-0.28,0.22-0.5,0.5-0.5h23c0.28,0,0.5,0.22,0.5,0.5v5C48,38.78,47.78,39,47.5,39
	z"/>
<path d="M36,66C19.46,66,6,52.54,6,36S19.46,6,36,6s30,13.46,30,30S52.54,66,36,66z M36,12c-13.23,0-24,10.77-24,24s10.77,24,24,24
	s24-10.77,24-24S49.23,12,36,12z"/>
</svg>
