<?xml version="1.0" encoding="utf-8"?>
<!-- Generator: Adobe Illustrator 28.1.0, SVG Export Plug-In . SVG Version: 6.00 Build 0)  -->
<svg version="1.1" id="Layer_1" xmlns="http://www.w3.org/2000/svg" xmlns:xlink="http://www.w3.org/1999/xlink" x="0px" y="0px"
	 viewBox="0 0 72 72" style="enable-background:new 0 0 72 72;" xml:space="preserve">
<g>
	<path d="M36,6C19.46,6,6,19.46,6,36s13.46,30,30,30s30-13.46,30-30S52.54,6,36,6z M36,60c-13.23,0-24-10.77-24-24s10.77-24,24-24
		s24,10.77,24,24S49.23,60,36,60z"/>
	<path d="M43.42,42.88c-0.9,0.9-1.94,1.61-3.07,2.12h-8.72c-1.12-0.51-2.17-1.22-3.07-2.12c-1.17-1.17-3.07-1.17-4.24,0
		c-1.17,1.17-1.17,3.07,0,4.24c3.12,3.12,7.26,4.83,11.67,4.83s8.55-1.72,11.67-4.83c1.17-1.17,1.17-3.07,0-4.24
		C46.5,41.71,44.6,41.71,43.42,42.88z"/>
	<path d="M45,35c1.66,0,3-1.34,3-3v-5c0-1.66-1.34-3-3-3s-3,1.34-3,3v5C42,33.66,43.34,35,45,35z"/>
	<path d="M27,35c1.66,0,3-1.34,3-3v-5c0-1.66-1.34-3-3-3s-3,1.34-3,3v5C24,33.66,25.34,35,27,35z"/>
</g>
</svg>
