<?xml version="1.0" encoding="utf-8"?>
<!-- Generator: Adobe Illustrator 28.1.0, SVG Export Plug-In . SVG Version: 6.00 Build 0)  -->
<svg version="1.1" id="Layer_1" xmlns="http://www.w3.org/2000/svg" xmlns:xlink="http://www.w3.org/1999/xlink" x="0px" y="0px"
	 viewBox="0 0 72 72" style="enable-background:new 0 0 72 72;" xml:space="preserve">
<g>
	<path d="M33,43.21V51h-8.5c-0.28,0-0.5,0.22-0.5,0.5v5c0,0.28,0.22,0.5,0.5,0.5H33v8.5c0,0.28,0.22,0.5,0.5,0.5h5
		c0.28,0,0.5-0.22,0.5-0.5V57h8.5c0.28,0,0.5-0.22,0.5-0.5v-5c0-0.28-0.22-0.5-0.5-0.5H39v-7.79C46.67,41.8,52.5,35.07,52.5,27
		c0-9.1-7.4-16.5-16.5-16.5S19.5,17.9,19.5,27C19.5,35.07,25.33,41.8,33,43.21z M36,16.5c5.79,0,10.5,4.71,10.5,10.5
		S41.79,37.5,36,37.5S25.5,32.79,25.5,27S30.21,16.5,36,16.5z"/>
</g>
</svg>
