<?xml version="1.0" encoding="utf-8"?>
<!-- Generator: Adobe Illustrator 28.1.0, SVG Export Plug-In . SVG Version: 6.00 Build 0)  -->
<svg version="1.1" id="Layer_1" xmlns="http://www.w3.org/2000/svg" xmlns:xlink="http://www.w3.org/1999/xlink" x="0px" y="0px"
	 viewBox="0 0 72 72" style="enable-background:new 0 0 72 72;" xml:space="preserve">
<g>
	<g>
		<path d="M30.89,49.15l-3.54-3.54c-0.2-0.2-0.51-0.2-0.71,0l-6.4,6.4l-6.4-6.4c-0.2-0.2-0.51-0.2-0.71,0l-3.54,3.54
			c-0.2,0.2-0.2,0.51,0,0.71l6.4,6.4l-6.4,6.4c-0.2,0.2-0.2,0.51,0,0.71l3.54,3.54c0.2,0.2,0.51,0.2,0.71,0l6.4-6.4l6.4,6.4
			c0.2,0.2,0.51,0.2,0.71,0l3.54-3.54c0.2-0.2,0.2-0.51,0-0.71l-6.4-6.4l6.4-6.4C31.08,49.66,31.08,49.34,30.89,49.15z"/>
	</g>
	<g>
		<path d="M54.5,10.5h-3v-3C51.5,7.22,51.28,7,51,7h-3c-0.28,0-0.5,0.22-0.5,0.5v3h-5v-3C42.5,7.22,42.28,7,42,7h-3
			c-0.28,0-0.5,0.22-0.5,0.5v3h-5v-3C33.5,7.22,33.28,7,33,7h-3c-0.28,0-0.5,0.22-0.5,0.5v3h-5v-3C24.5,7.22,24.28,7,24,7h-3
			c-0.28,0-0.5,0.22-0.5,0.5v3h-3c-3.87,0-7,3.13-7,7v18.32c0,0.11,0.04,0.22,0.11,0.31l5,6.25c0.3,0.37,0.89,0.16,0.89-0.31V17.5
			c0-0.55,0.45-1,1-1h3v3c0,0.28,0.22,0.5,0.5,0.5h3c0.28,0,0.5-0.22,0.5-0.5v-3h5v3c0,0.28,0.22,0.5,0.5,0.5h3
			c0.28,0,0.5-0.22,0.5-0.5v-3h5v3c0,0.28,0.22,0.5,0.5,0.5h3c0.28,0,0.5-0.22,0.5-0.5v-3h5v3c0,0.28,0.22,0.5,0.5,0.5h3
			c0.28,0,0.5-0.22,0.5-0.5v-3h3c0.55,0,1,0.45,1,1V59c0,0.55-0.45,1-1,1H34.43c-0.47,0-0.68,0.6-0.31,0.89l6.25,5
			c0.09,0.07,0.2,0.11,0.31,0.11H54.5c3.87,0,7-3.13,7-7V17.5C61.5,13.63,58.37,10.5,54.5,10.5z"/>
	</g>
</g>
</svg>
