<?xml version="1.0" encoding="utf-8"?>
<!-- Generator: Adobe Illustrator 28.1.0, SVG Export Plug-In . SVG Version: 6.00 Build 0)  -->
<svg version="1.1" id="Layer_1" xmlns="http://www.w3.org/2000/svg" xmlns:xlink="http://www.w3.org/1999/xlink" x="0px" y="0px"
	 viewBox="0 0 72 72" style="enable-background:new 0 0 72 72;" xml:space="preserve">
<path d="M56.5,66h-14c-0.28,0-0.5-0.22-0.5-0.5v-2.29c0-3.05-2.19-5.77-5.21-6.16C33.13,56.58,30,59.43,30,63v2.5
	c0,0.28-0.22,0.5-0.5,0.5h-14c-0.28,0-0.5-0.22-0.5-0.5v-59C15,6.22,15.22,6,15.5,6h14C29.78,6,30,6.22,30,6.5l0,2.29
	c0,3.05,2.19,5.77,5.21,6.16C38.87,15.42,42,12.57,42,9V6.5C42,6.22,42.22,6,42.5,6h14C56.78,6,57,6.22,57,6.5v59
	C57,65.78,56.78,66,56.5,66z M47.62,60H51V12h-3.38c-1.33,5.17-6.04,9-11.62,9s-10.29-3.83-11.62-9H21v48h3.38
	c1.33-5.17,6.04-9,11.62-9S46.29,54.83,47.62,60z"/>
<path d="M27.16,48c-0.19,0-0.39-0.02-0.59-0.06c-0.19-0.04-0.37-0.09-0.56-0.17c-0.18-0.07-0.35-0.17-0.51-0.27
	c-0.17-0.11-0.32-0.24-0.46-0.38c-0.14-0.14-0.26-0.29-0.37-0.45c-0.11-0.17-0.2-0.34-0.28-0.52c-0.07-0.18-0.13-0.37-0.17-0.56
	c-0.04-0.2-0.06-0.39-0.06-0.59c0-0.79,0.32-1.56,0.88-2.12c0.14-0.14,0.29-0.27,0.46-0.37c0.16-0.11,0.33-0.21,0.51-0.28
	c0.19-0.08,0.37-0.13,0.56-0.17c0.39-0.08,0.79-0.08,1.18,0c0.19,0.04,0.38,0.09,0.56,0.17c0.18,0.07,0.35,0.17,0.52,0.28
	c0.16,0.1,0.32,0.23,0.45,0.37c0.56,0.56,0.88,1.33,0.88,2.12c0,0.2-0.02,0.39-0.06,0.59c-0.04,0.19-0.09,0.38-0.17,0.56
	c-0.07,0.18-0.17,0.35-0.27,0.52c-0.11,0.16-0.24,0.31-0.38,0.45c-0.13,0.14-0.29,0.27-0.45,0.38c-0.17,0.1-0.34,0.2-0.52,0.27
	c-0.18,0.08-0.37,0.13-0.56,0.17C27.55,47.98,27.36,48,27.16,48z"/>
<path d="M36,48c-0.2,0-0.39-0.02-0.59-0.06c-0.19-0.04-0.38-0.09-0.56-0.17c-0.18-0.07-0.35-0.17-0.51-0.28
	c-0.17-0.1-0.32-0.23-0.46-0.37C33.32,46.56,33,45.79,33,45c0-0.19,0.02-0.39,0.06-0.59c0.04-0.19,0.09-0.38,0.17-0.56
	c0.08-0.18,0.17-0.35,0.28-0.52c0.11-0.16,0.23-0.31,0.37-0.45s0.29-0.26,0.46-0.37c0.16-0.11,0.33-0.2,0.51-0.28
	c0.18-0.07,0.37-0.13,0.56-0.17c0.98-0.2,2.01,0.12,2.71,0.82c0.14,0.14,0.27,0.29,0.38,0.45c0.1,0.17,0.2,0.34,0.27,0.52
	c0.08,0.18,0.13,0.37,0.17,0.56C38.98,44.61,39,44.8,39,45c0,0.79-0.32,1.56-0.88,2.12C37.56,47.68,36.79,48,36,48z"/>
<path d="M45,48c-0.19,0-0.39-0.02-0.59-0.06c-0.19-0.04-0.38-0.09-0.56-0.17c-0.18-0.07-0.35-0.17-0.51-0.28
	c-0.17-0.1-0.32-0.23-0.46-0.37c-0.14-0.14-0.26-0.29-0.37-0.45c-0.11-0.17-0.2-0.34-0.28-0.52s-0.13-0.37-0.17-0.56
	C42.02,45.39,42,45.2,42,45c0-0.79,0.32-1.56,0.88-2.12c0.14-0.14,0.29-0.26,0.46-0.37c0.16-0.11,0.33-0.2,0.51-0.28
	c0.18-0.08,0.37-0.13,0.56-0.17c0.39-0.08,0.79-0.08,1.18,0c0.19,0.04,0.38,0.09,0.56,0.17c0.18,0.08,0.35,0.17,0.52,0.28
	c0.16,0.11,0.31,0.23,0.45,0.37c0.14,0.14,0.27,0.29,0.38,0.46c0.1,0.16,0.2,0.33,0.27,0.51c0.08,0.18,0.13,0.37,0.17,0.56
	C47.98,44.61,48,44.8,48,45c0,0.2-0.02,0.39-0.06,0.59c-0.04,0.19-0.09,0.38-0.17,0.56c-0.07,0.18-0.17,0.35-0.27,0.52
	c-0.11,0.16-0.24,0.31-0.38,0.45c-0.14,0.14-0.29,0.27-0.45,0.37c-0.17,0.11-0.34,0.21-0.52,0.28c-0.18,0.08-0.37,0.13-0.56,0.17
	C45.39,47.98,45.2,48,45,48z"/>
</svg>
