<?xml version="1.0" encoding="utf-8"?>
<!-- Generator: Adobe Illustrator 28.1.0, SVG Export Plug-In . SVG Version: 6.00 Build 0)  -->
<svg version="1.1" id="Layer_1" xmlns="http://www.w3.org/2000/svg" xmlns:xlink="http://www.w3.org/1999/xlink" x="0px" y="0px"
	 viewBox="0 0 72 72" style="enable-background:new 0 0 72 72;" xml:space="preserve">
<path d="M36,61.5c-7.23,0-14.15-3.09-18.98-8.47c-4.83-5.38-7.15-12.62-6.36-19.87c1.25-11.51,10.49-20.95,21.96-22.44
	c4.96-0.64,9.93,0.14,14.37,2.27c1.28,0.61,2.14,1.87,2.25,3.29c0.11,1.42-0.55,2.81-1.73,3.61C42.18,23.54,39,29.56,39,36
	s3.18,12.46,8.51,16.1c1.18,0.81,1.84,2.19,1.73,3.61c-0.11,1.42-0.97,2.68-2.25,3.29C43.54,60.66,39.84,61.5,36,61.5z M35.98,16.5
	c-0.86,0-1.73,0.06-2.59,0.17c-8.76,1.14-15.82,8.34-16.77,17.14c-0.61,5.63,1.12,11.04,4.86,15.21c3.7,4.12,8.99,6.48,14.52,6.48
	c1.8,0,3.56-0.24,5.26-0.72C36.03,49.99,33,43.19,33,36c0-7.19,3.03-13.98,8.26-18.78C39.55,16.74,37.77,16.5,35.98,16.5z"/>
</svg>
