<?xml version="1.0" encoding="utf-8"?>
<!-- Generator: Adobe Illustrator 28.1.0, SVG Export Plug-In . SVG Version: 6.00 Build 0)  -->
<svg version="1.1" id="Layer_1" xmlns="http://www.w3.org/2000/svg" xmlns:xlink="http://www.w3.org/1999/xlink" x="0px" y="0px"
	 viewBox="0 0 72 72" style="enable-background:new 0 0 72 72;" xml:space="preserve">
<g>
	<path d="M17.5,6c-3.86,0-7,3.14-7,7v27.5c0,1.66,1.34,3,3,3s3-1.34,3-3V13c0-0.55,0.45-1,1-1h21v11c0,3.31,2.69,6,6,6h11v30
		c0,0.55-0.45,1-1,1H36c-1.66,0-3,1.34-3,3s1.34,3,3,3h18.5c3.86,0,7-3.14,7-7V25.76L41.74,6H17.5z M42.5,23v-7.76L52.26,25H44.5
		C43.4,25,42.5,24.1,42.5,23z"/>
	<path d="M34.18,46.34c0.74-1.48,0.14-3.28-1.34-4.03c-1.48-0.74-3.28-0.14-4.02,1.34l-7.14,14.28l-6.06-6.06
		c-1.17-1.17-3.07-1.17-4.24,0c-1.17,1.17-1.17,3.07,0,4.24l11.94,11.94L34.18,46.34z"/>
</g>
</svg>
