<?xml version="1.0" encoding="utf-8"?>
<!-- Generator: Adobe Illustrator 28.1.0, SVG Export Plug-In . SVG Version: 6.00 Build 0)  -->
<svg version="1.1" id="Layer_1" xmlns="http://www.w3.org/2000/svg" xmlns:xlink="http://www.w3.org/1999/xlink" x="0px" y="0px"
	 viewBox="0 0 72 72" style="enable-background:new 0 0 72 72;" xml:space="preserve">
<g>
	<g>
		<path d="M40.24,40.24C41.36,39.13,42,37.58,42,36c0-1.58-0.64-3.12-1.76-4.24C39.13,30.64,37.58,30,36,30s-3.12,0.64-4.24,1.76
			c-0.28,0.27-0.53,0.58-0.75,0.91c-0.21,0.33-0.4,0.67-0.55,1.04c-0.15,0.36-0.27,0.74-0.34,1.12C30.04,35.22,30,35.61,30,36
			c0,1.58,0.64,3.13,1.76,4.24C32.88,41.36,34.42,42,36,42S39.13,41.36,40.24,40.24z"/>
	</g>
	<g>
		<path d="M13.01,39.33c0.22,0.33,0.47,0.64,0.75,0.91c0.27,0.28,0.58,0.53,0.91,0.75c0.33,0.22,0.67,0.4,1.04,0.55
			c0.36,0.15,0.74,0.27,1.12,0.34C17.22,41.96,17.61,42,18,42c0.39,0,0.79-0.04,1.17-0.12c0.39-0.07,0.76-0.19,1.13-0.34
			c0.36-0.15,0.71-0.33,1.03-0.55c0.33-0.22,0.64-0.47,0.91-0.75c0.28-0.27,0.53-0.58,0.75-0.91c0.22-0.32,0.4-0.67,0.55-1.04
			c0.15-0.36,0.27-0.73,0.34-1.12C23.96,36.79,24,36.39,24,36c0-0.39-0.04-0.78-0.12-1.17c-0.07-0.38-0.19-0.76-0.34-1.12
			c-0.15-0.37-0.33-0.71-0.55-1.04c-0.22-0.33-0.47-0.64-0.75-0.91c-0.27-0.28-0.58-0.53-0.91-0.75c-0.32-0.21-0.67-0.4-1.03-0.55
			c-0.37-0.15-0.74-0.27-1.13-0.34c-0.77-0.16-1.57-0.16-2.34,0c-0.38,0.07-0.76,0.19-1.12,0.34c-0.37,0.15-0.71,0.34-1.04,0.55
			c-0.33,0.22-0.64,0.47-0.91,0.75c-0.28,0.27-0.53,0.58-0.75,0.91c-0.21,0.33-0.4,0.67-0.55,1.04c-0.15,0.36-0.27,0.74-0.34,1.12
			C12.04,35.22,12,35.61,12,36c0,0.39,0.04,0.79,0.12,1.17c0.07,0.39,0.19,0.76,0.34,1.12C12.61,38.66,12.8,39.01,13.01,39.33z"/>
	</g>
	<g>
		<path d="M59.54,33.71c-0.15-0.37-0.33-0.72-0.55-1.04c-0.22-0.33-0.47-0.64-0.75-0.91c-0.27-0.28-0.58-0.53-0.91-0.75
			c-0.32-0.21-0.67-0.4-1.03-0.55c-0.37-0.15-0.74-0.26-1.13-0.34c-0.77-0.16-1.57-0.16-2.34,0c-0.38,0.08-0.76,0.19-1.12,0.34
			c-0.37,0.15-0.71,0.34-1.04,0.55c-0.33,0.22-0.64,0.47-0.91,0.75c-0.28,0.27-0.53,0.58-0.75,0.91c-0.21,0.32-0.4,0.67-0.55,1.04
			c-0.15,0.36-0.27,0.74-0.34,1.12C48.04,35.22,48,35.61,48,36c0,0.39,0.04,0.79,0.12,1.17c0.07,0.39,0.19,0.76,0.34,1.13
			c0.15,0.36,0.34,0.71,0.55,1.03c0.22,0.33,0.47,0.64,0.75,0.91c0.27,0.28,0.58,0.53,0.91,0.75c0.33,0.21,0.67,0.4,1.04,0.55
			c0.36,0.15,0.74,0.27,1.12,0.34C53.22,41.96,53.61,42,54,42c0.39,0,0.79-0.04,1.17-0.12c0.39-0.07,0.76-0.19,1.13-0.34
			c0.36-0.15,0.71-0.34,1.03-0.55c0.33-0.22,0.64-0.47,0.91-0.75c0.28-0.27,0.53-0.58,0.75-0.91c0.22-0.32,0.4-0.67,0.55-1.03
			c0.15-0.37,0.27-0.74,0.34-1.13C59.96,36.79,60,36.39,60,36c0-0.39-0.04-0.78-0.12-1.17C59.81,34.45,59.69,34.07,59.54,33.71z"/>
	</g>
</g>
</svg>
