<?xml version="1.0" encoding="utf-8"?>
<!-- Generator: Adobe Illustrator 28.1.0, SVG Export Plug-In . SVG Version: 6.00 Build 0)  -->
<svg version="1.1" id="Layer_1" xmlns="http://www.w3.org/2000/svg" xmlns:xlink="http://www.w3.org/1999/xlink" x="0px" y="0px"
	 viewBox="0 0 72 72" style="enable-background:new 0 0 72 72;" xml:space="preserve">
<g>
	<path d="M61.5,36c0-1.66-1.34-3-3-3h-34V22.5C24.5,16.16,29.66,11,36,11s11.5,5.16,11.5,11.5c0,1.1,0.9,2,2,2s2-0.9,2-2
		C51.5,13.95,44.55,7,36,7s-15.5,6.95-15.5,15.5V33h-7c-1.66,0-3,1.34-3,3v19c0,6.07,4.93,11,11,11h29c6.07,0,11-4.93,11-11V36z
		 M55.5,55c0,2.76-2.24,5-5,5h-29c-2.76,0-5-2.24-5-5V39h39V55z"/>
	<path d="M36,57c1.66,0,3-1.34,3-3v-9c0-1.66-1.34-3-3-3s-3,1.34-3,3v9C33,55.66,34.34,57,36,57z"/>
</g>
</svg>
