<?xml version="1.0" encoding="utf-8"?>
<!-- Generator: Adobe Illustrator 28.1.0, SVG Export Plug-In . SVG Version: 6.00 Build 0)  -->
<svg version="1.1" id="Layer_1" xmlns="http://www.w3.org/2000/svg" xmlns:xlink="http://www.w3.org/1999/xlink" x="0px" y="0px"
	 viewBox="0 0 72 72" style="enable-background:new 0 0 72 72;" xml:space="preserve">
<path d="M60.62,56.38L49.07,44.82c2.63-3.51,4.2-7.84,4.2-12.55c0-11.58-9.42-21-21-21s-21,9.42-21,21s9.42,21,21,21
	c4.71,0,9.05-1.58,12.55-4.2l11.56,11.56c0.59,0.59,1.35,0.88,2.12,0.88s1.54-0.29,2.12-0.88C61.79,59.45,61.79,57.55,60.62,56.38z
	 M17.27,32.27c0-8.27,6.73-15,15-15s15,6.73,15,15s-6.73,15-15,15S17.27,40.54,17.27,32.27z"/>
</svg>
