<?xml version="1.0" encoding="utf-8"?>
<!-- Generator: Adobe Illustrator 28.1.0, SVG Export Plug-In . SVG Version: 6.00 Build 0)  -->
<svg version="1.1" id="Layer_1" xmlns="http://www.w3.org/2000/svg" xmlns:xlink="http://www.w3.org/1999/xlink" x="0px" y="0px"
	 viewBox="0 0 72 72" style="enable-background:new 0 0 72 72;" xml:space="preserve">
<g>
	<path d="M17.41,15.06c-0.19,0.04-0.38,0.1-0.56,0.17c-0.18,0.08-0.35,0.17-0.52,0.28c-0.16,0.11-0.31,0.23-0.45,0.37
		C15.32,16.44,15,17.21,15,18c0,0.2,0.02,0.39,0.06,0.59c0.04,0.19,0.09,0.38,0.17,0.56c0.07,0.18,0.17,0.35,0.28,0.52
		c0.1,0.16,0.23,0.31,0.37,0.45c0.14,0.14,0.29,0.27,0.45,0.38c0.17,0.1,0.34,0.2,0.52,0.27c0.18,0.08,0.37,0.13,0.56,0.17
		C17.61,20.98,17.8,21,18,21c0.79,0,1.56-0.32,2.12-0.88c0.14-0.14,0.27-0.29,0.37-0.45c0.11-0.17,0.21-0.34,0.28-0.52
		c0.08-0.18,0.13-0.37,0.17-0.56C20.98,18.39,21,18.2,21,18c0-0.79-0.32-1.56-0.88-2.12C19.43,15.18,18.39,14.87,17.41,15.06z"/>
	<path d="M26.41,15.06c-0.19,0.04-0.38,0.1-0.56,0.17c-0.18,0.08-0.35,0.17-0.52,0.28c-0.16,0.11-0.31,0.23-0.45,0.37
		C24.32,16.44,24,17.21,24,18c0,0.2,0.02,0.39,0.06,0.59c0.04,0.19,0.1,0.38,0.17,0.56c0.08,0.18,0.17,0.35,0.28,0.52
		c0.1,0.16,0.23,0.31,0.37,0.45c0.14,0.14,0.29,0.27,0.45,0.38c0.17,0.1,0.34,0.2,0.52,0.27c0.18,0.08,0.37,0.13,0.56,0.17
		C26.61,20.98,26.81,21,27,21c0.79,0,1.56-0.32,2.12-0.88c0.14-0.14,0.26-0.29,0.37-0.45c0.11-0.17,0.21-0.34,0.28-0.52
		c0.08-0.18,0.13-0.37,0.17-0.56C29.98,18.39,30,18.2,30,18c0-0.79-0.32-1.56-0.88-2.12C28.42,15.18,27.39,14.87,26.41,15.06z"/>
	<path d="M19.67,24.51c-0.17-0.11-0.34-0.2-0.52-0.28c-0.18-0.07-0.37-0.13-0.56-0.17c-0.98-0.2-2.01,0.12-2.71,0.82
		C15.32,25.44,15,26.21,15,27c0,0.2,0.02,0.39,0.06,0.59c0.04,0.19,0.1,0.38,0.17,0.56c0.08,0.18,0.17,0.35,0.28,0.52
		c0.11,0.16,0.23,0.31,0.37,0.45C16.44,29.68,17.21,30,18,30c0.2,0,0.39-0.02,0.59-0.06c0.19-0.04,0.38-0.09,0.56-0.17
		c0.18-0.07,0.35-0.17,0.52-0.27c0.16-0.11,0.31-0.24,0.45-0.38c0.14-0.14,0.27-0.29,0.38-0.45c0.1-0.17,0.2-0.34,0.27-0.52
		c0.08-0.18,0.13-0.37,0.17-0.56C20.98,27.39,21,27.2,21,27c0-0.79-0.32-1.56-0.88-2.12C19.98,24.74,19.83,24.62,19.67,24.51z"/>
	<path d="M24.88,24.88C24.32,25.44,24,26.21,24,27c0,0.2,0.02,0.39,0.06,0.59c0.04,0.19,0.09,0.38,0.17,0.56
		c0.07,0.18,0.17,0.35,0.28,0.52c0.11,0.16,0.23,0.31,0.37,0.45c0.14,0.14,0.29,0.27,0.45,0.38c0.17,0.1,0.34,0.2,0.52,0.27
		c0.18,0.08,0.37,0.13,0.56,0.17C26.61,29.98,26.81,30,27,30c0.79,0,1.56-0.32,2.12-0.88c0.14-0.14,0.27-0.29,0.37-0.45
		c0.11-0.17,0.21-0.34,0.28-0.52c0.08-0.18,0.13-0.37,0.17-0.56C29.98,27.39,30,27.2,30,27c0-0.79-0.32-1.56-0.88-2.12
		C28,23.76,26,23.76,24.88,24.88z"/>
	<path d="M20.77,34.85c-0.07-0.18-0.17-0.35-0.28-0.51c-0.1-0.17-0.23-0.32-0.37-0.46c-1.11-1.12-3.12-1.12-4.24,0
		c-0.14,0.14-0.26,0.29-0.37,0.46c-0.11,0.16-0.2,0.33-0.28,0.51c-0.07,0.18-0.13,0.37-0.17,0.56C15.02,35.61,15,35.8,15,36
		s0.02,0.39,0.06,0.59c0.04,0.19,0.1,0.38,0.17,0.56c0.08,0.18,0.17,0.35,0.28,0.52c0.11,0.16,0.23,0.31,0.37,0.45
		c0.14,0.14,0.29,0.27,0.46,0.37c0.16,0.11,0.33,0.21,0.51,0.28c0.18,0.08,0.37,0.13,0.57,0.17C17.61,38.98,17.81,39,18,39
		c0.2,0,0.39-0.02,0.59-0.06c0.19-0.04,0.38-0.09,0.56-0.17c0.18-0.07,0.35-0.17,0.52-0.28c0.16-0.1,0.31-0.23,0.45-0.37
		c0.14-0.14,0.27-0.29,0.37-0.45c0.11-0.17,0.21-0.34,0.28-0.52c0.08-0.18,0.13-0.37,0.17-0.56C20.98,36.39,21,36.2,21,36
		s-0.02-0.39-0.06-0.59C20.9,35.22,20.85,35.03,20.77,34.85z"/>
	<path d="M29.77,34.85c-0.07-0.18-0.17-0.35-0.27-0.51c-0.11-0.17-0.24-0.32-0.38-0.46c-1.11-1.12-3.13-1.12-4.24,0
		c-0.14,0.14-0.26,0.29-0.37,0.46c-0.11,0.16-0.2,0.33-0.28,0.51c-0.07,0.18-0.13,0.37-0.17,0.56C24.02,35.61,24,35.8,24,36
		s0.02,0.39,0.06,0.59c0.04,0.19,0.1,0.38,0.17,0.56c0.08,0.18,0.17,0.35,0.28,0.52c0.11,0.16,0.23,0.31,0.37,0.45
		c0.14,0.14,0.29,0.27,0.46,0.37c0.16,0.11,0.33,0.21,0.51,0.28c0.18,0.08,0.37,0.13,0.56,0.17C26.61,38.98,26.8,39,27,39
		c0.2,0,0.39-0.02,0.59-0.06c0.19-0.04,0.38-0.09,0.56-0.17c0.18-0.07,0.35-0.17,0.52-0.28c0.16-0.1,0.31-0.23,0.45-0.37
		c0.14-0.14,0.26-0.29,0.37-0.45c0.11-0.17,0.21-0.34,0.28-0.52c0.08-0.18,0.13-0.37,0.17-0.56C29.98,36.39,30,36.2,30,36
		s-0.02-0.39-0.06-0.59C29.9,35.22,29.85,35.03,29.77,34.85z"/>
	<path d="M20.77,43.85c-0.07-0.18-0.17-0.35-0.28-0.51c-0.11-0.17-0.23-0.32-0.37-0.46c-0.14-0.14-0.29-0.26-0.46-0.37
		c-0.16-0.11-0.33-0.2-0.51-0.28c-0.18-0.07-0.37-0.13-0.56-0.17c-0.39-0.08-0.79-0.08-1.18,0c-0.19,0.04-0.38,0.1-0.56,0.17
		c-0.18,0.08-0.35,0.17-0.51,0.28c-0.17,0.11-0.32,0.23-0.46,0.37c-0.14,0.14-0.26,0.29-0.37,0.46c-0.11,0.16-0.2,0.33-0.28,0.51
		s-0.13,0.37-0.17,0.56C15.02,44.61,15,44.81,15,45c0,0.79,0.32,1.56,0.88,2.12c0.14,0.14,0.29,0.27,0.46,0.37
		c0.16,0.11,0.33,0.21,0.51,0.28c0.18,0.08,0.37,0.13,0.56,0.17C17.61,47.98,17.8,48,18,48c0.2,0,0.39-0.02,0.59-0.06
		c0.19-0.04,0.38-0.09,0.56-0.17c0.18-0.07,0.35-0.17,0.51-0.28c0.17-0.1,0.32-0.23,0.46-0.37c0.14-0.14,0.26-0.29,0.37-0.45
		c0.11-0.17,0.2-0.34,0.28-0.52c0.07-0.18,0.13-0.37,0.17-0.56C20.98,45.39,21,45.2,21,45c0-0.2-0.02-0.39-0.06-0.59
		C20.9,44.22,20.84,44.03,20.77,43.85z"/>
	<path d="M29.77,43.85c-0.08-0.18-0.17-0.35-0.28-0.51c-0.11-0.17-0.23-0.32-0.37-0.46c-0.14-0.14-0.29-0.26-0.45-0.37
		c-0.17-0.11-0.34-0.2-0.52-0.28c-0.18-0.07-0.37-0.13-0.56-0.17c-0.98-0.2-2.02,0.12-2.71,0.82c-0.14,0.14-0.26,0.29-0.37,0.46
		c-0.11,0.16-0.2,0.33-0.28,0.51c-0.07,0.18-0.13,0.37-0.17,0.56C24.02,44.61,24,44.81,24,45c0,0.79,0.32,1.56,0.88,2.12
		C25.44,47.68,26.21,48,27,48c0.2,0,0.39-0.02,0.59-0.06c0.19-0.04,0.38-0.09,0.56-0.17c0.18-0.07,0.35-0.17,0.52-0.28
		c0.16-0.1,0.31-0.23,0.45-0.37C29.68,46.56,30,45.79,30,45c0-0.19-0.02-0.39-0.06-0.59C29.9,44.22,29.85,44.03,29.77,43.85z"/>
	<path d="M15.88,51.88C15.32,52.44,15,53.21,15,54s0.32,1.56,0.88,2.12C16.44,56.68,17.21,57,18,57s1.56-0.32,2.12-0.88
		c0.14-0.14,0.27-0.29,0.37-0.45c0.11-0.17,0.21-0.34,0.28-0.52c0.08-0.18,0.13-0.37,0.17-0.56C20.98,54.39,21,54.2,21,54
		c0-0.79-0.32-1.56-0.88-2.12C19.01,50.76,17,50.76,15.88,51.88z"/>
	<path d="M24.88,51.88C24.32,52.44,24,53.21,24,54s0.32,1.56,0.88,2.12C25.44,56.68,26.21,57,27,57s1.56-0.32,2.12-0.88
		c0.14-0.14,0.27-0.29,0.38-0.45c0.1-0.17,0.2-0.34,0.27-0.52c0.08-0.18,0.13-0.37,0.17-0.56C29.98,54.39,30,54.2,30,54
		c0-0.79-0.32-1.56-0.88-2.12C28.01,50.76,26,50.76,24.88,51.88z"/>
	<path d="M46.67,51.51c-0.17-0.11-0.34-0.2-0.52-0.28c-0.18-0.07-0.37-0.13-0.56-0.17c-0.98-0.19-2.02,0.12-2.71,0.82
		C42.32,52.44,42,53.21,42,54s0.32,1.56,0.88,2.12C43.44,56.68,44.21,57,45,57c0.2,0,0.39-0.02,0.59-0.06
		c0.19-0.04,0.38-0.09,0.56-0.17c0.18-0.07,0.35-0.17,0.52-0.28c0.16-0.1,0.31-0.23,0.45-0.37c0.14-0.14,0.27-0.29,0.38-0.45
		c0.1-0.17,0.2-0.34,0.27-0.52c0.08-0.18,0.13-0.37,0.17-0.56C47.98,54.39,48,54.2,48,54c0-0.79-0.32-1.56-0.88-2.12
		C46.98,51.74,46.83,51.62,46.67,51.51z"/>
	<path d="M56.77,52.85c-0.07-0.18-0.17-0.35-0.28-0.51c-0.1-0.17-0.23-0.32-0.37-0.46c-0.14-0.14-0.29-0.26-0.45-0.37
		c-0.17-0.11-0.34-0.2-0.52-0.28c-0.18-0.07-0.37-0.13-0.56-0.17c-0.98-0.19-2.02,0.12-2.71,0.82C51.32,52.44,51,53.21,51,54
		c0,0.2,0.02,0.39,0.06,0.59c0.04,0.19,0.1,0.38,0.17,0.56c0.08,0.18,0.17,0.35,0.28,0.52c0.11,0.16,0.23,0.31,0.37,0.45
		C52.44,56.68,53.21,57,54,57c0.2,0,0.39-0.02,0.59-0.06c0.19-0.04,0.38-0.09,0.56-0.17c0.18-0.07,0.35-0.17,0.52-0.28
		c0.16-0.1,0.31-0.23,0.45-0.37c0.14-0.14,0.27-0.29,0.37-0.45c0.11-0.17,0.21-0.34,0.28-0.52c0.08-0.18,0.13-0.37,0.17-0.56
		C56.98,54.39,57,54.2,57,54c0-0.19-0.02-0.39-0.06-0.59C56.9,53.22,56.85,53.04,56.77,52.85z"/>
	<path d="M47.77,43.85c-0.07-0.18-0.17-0.35-0.27-0.51c-0.11-0.17-0.24-0.32-0.38-0.46c-0.14-0.14-0.29-0.26-0.45-0.37
		c-0.17-0.11-0.34-0.2-0.52-0.28c-0.18-0.07-0.37-0.13-0.56-0.17c-0.39-0.08-0.79-0.08-1.18,0c-0.19,0.04-0.38,0.1-0.56,0.17
		c-0.18,0.08-0.35,0.17-0.52,0.28c-0.16,0.11-0.31,0.23-0.45,0.37c-0.14,0.14-0.26,0.29-0.37,0.46c-0.11,0.16-0.2,0.33-0.28,0.51
		s-0.13,0.37-0.17,0.56C42.02,44.61,42,44.81,42,45c0,0.79,0.32,1.56,0.88,2.12C43.44,47.68,44.21,48,45,48
		c0.2,0,0.39-0.02,0.59-0.06c0.19-0.04,0.38-0.09,0.56-0.17c0.18-0.07,0.35-0.17,0.52-0.28c0.16-0.1,0.31-0.23,0.45-0.37
		C47.68,46.56,48,45.79,48,45c0-0.19-0.02-0.39-0.06-0.59C47.9,44.22,47.85,44.03,47.77,43.85z"/>
	<path d="M56.77,43.85c-0.07-0.18-0.17-0.35-0.28-0.51c-0.1-0.17-0.23-0.32-0.37-0.46c-0.69-0.7-1.73-1.01-2.71-0.82
		c-0.19,0.04-0.38,0.1-0.56,0.17c-0.18,0.08-0.35,0.17-0.51,0.28c-0.17,0.11-0.32,0.23-0.46,0.37c-0.14,0.14-0.26,0.29-0.37,0.46
		c-0.11,0.16-0.2,0.33-0.28,0.51c-0.07,0.18-0.13,0.37-0.17,0.56C51.02,44.61,51,44.81,51,45c0,0.2,0.02,0.39,0.06,0.59
		c0.04,0.19,0.1,0.38,0.17,0.56c0.08,0.18,0.17,0.35,0.28,0.52c0.11,0.16,0.23,0.31,0.37,0.45c0.14,0.14,0.29,0.27,0.46,0.37
		c0.16,0.11,0.33,0.21,0.51,0.28c0.18,0.08,0.37,0.13,0.56,0.17C53.61,47.98,53.81,48,54,48c0.79,0,1.56-0.32,2.12-0.88
		C56.68,46.56,57,45.79,57,45c0-0.19-0.02-0.39-0.06-0.59C56.9,44.22,56.85,44.03,56.77,43.85z"/>
	<path d="M47.77,34.85c-0.07-0.18-0.17-0.35-0.27-0.51c-0.11-0.17-0.24-0.32-0.38-0.46c-1.12-1.12-3.12-1.12-4.24,0
		c-0.14,0.14-0.26,0.29-0.37,0.46c-0.11,0.16-0.2,0.33-0.28,0.51c-0.08,0.18-0.13,0.37-0.17,0.56C42.02,35.61,42,35.81,42,36
		c0,0.2,0.02,0.39,0.06,0.59c0.04,0.19,0.09,0.38,0.17,0.56c0.07,0.18,0.17,0.35,0.28,0.52c0.1,0.16,0.23,0.31,0.37,0.45
		C43.44,38.68,44.21,39,45,39c0.19,0,0.39-0.02,0.59-0.06c0.19-0.04,0.38-0.09,0.56-0.17c0.18-0.07,0.35-0.17,0.52-0.27
		c0.16-0.11,0.31-0.24,0.45-0.38c0.14-0.14,0.27-0.29,0.38-0.45c0.1-0.17,0.2-0.34,0.27-0.52c0.08-0.18,0.13-0.37,0.17-0.56
		C47.98,36.39,48,36.2,48,36c0-0.19-0.02-0.39-0.06-0.59C47.9,35.22,47.85,35.03,47.77,34.85z"/>
	<path d="M56.77,34.85c-0.07-0.18-0.17-0.35-0.28-0.51c-0.1-0.17-0.23-0.32-0.37-0.46c-1.12-1.12-3.12-1.12-4.24,0
		c-0.14,0.14-0.26,0.29-0.37,0.46c-0.11,0.16-0.2,0.33-0.28,0.51c-0.07,0.18-0.13,0.37-0.17,0.56C51.02,35.61,51,35.81,51,36
		c0,0.79,0.32,1.56,0.88,2.12c0.14,0.14,0.29,0.27,0.46,0.37c0.16,0.11,0.33,0.21,0.51,0.28c0.18,0.08,0.37,0.13,0.56,0.17
		C53.61,38.98,53.81,39,54,39c0.79,0,1.56-0.32,2.12-0.88C56.68,37.56,57,36.79,57,36c0-0.19-0.02-0.39-0.06-0.59
		C56.9,35.22,56.85,35.03,56.77,34.85z"/>
	<path d="M47.77,25.85c-0.07-0.18-0.17-0.35-0.27-0.51c-0.11-0.17-0.24-0.32-0.38-0.46c-0.14-0.14-0.29-0.26-0.45-0.37
		c-0.17-0.11-0.34-0.2-0.52-0.28c-0.18-0.07-0.37-0.13-0.56-0.17c-0.98-0.2-2.01,0.12-2.71,0.82c-0.14,0.14-0.27,0.29-0.37,0.46
		c-0.11,0.16-0.21,0.33-0.28,0.51c-0.08,0.19-0.13,0.37-0.17,0.57C42.02,26.61,42,26.81,42,27c0,0.2,0.02,0.39,0.06,0.59
		c0.04,0.19,0.09,0.38,0.17,0.56s0.17,0.35,0.28,0.52c0.11,0.16,0.23,0.31,0.37,0.45C43.44,29.68,44.21,30,45,30
		s1.56-0.32,2.12-0.88c0.14-0.14,0.27-0.29,0.38-0.45c0.1-0.17,0.2-0.34,0.27-0.52c0.08-0.18,0.13-0.37,0.17-0.56
		C47.98,27.39,48,27.2,48,27c0-0.19-0.02-0.39-0.06-0.58C47.9,26.22,47.85,26.04,47.77,25.85z"/>
	<path d="M51.88,24.88C51.32,25.44,51,26.21,51,27s0.32,1.56,0.88,2.12c0.14,0.14,0.29,0.27,0.46,0.37
		c0.16,0.11,0.33,0.21,0.51,0.28c0.18,0.08,0.37,0.13,0.56,0.17C53.61,29.98,53.81,30,54,30c0.79,0,1.56-0.32,2.12-0.88
		C56.68,28.56,57,27.79,57,27s-0.32-1.56-0.88-2.12C55,23.76,53,23.76,51.88,24.88z"/>
	<path d="M59,15H39v-2c0-3.86-3.14-7-7-7H13c-3.86,0-7,3.14-7,7v50c0,1.66,1.34,3,3,3h27h27c1.66,0,3-1.34,3-3V22
		C66,18.14,62.86,15,59,15z M12,13c0-0.55,0.45-1,1-1h19c0.55,0,1,0.45,1,1v5v42H12V13z M60,60H39V21h20c0.55,0,1,0.45,1,1V60z"/>
</g>
</svg>
