<?xml version="1.0" encoding="utf-8"?>
<!-- Generator: Adobe Illustrator 28.1.0, SVG Export Plug-In . SVG Version: 6.00 Build 0)  -->
<svg version="1.1" id="Layer_1" xmlns="http://www.w3.org/2000/svg" xmlns:xlink="http://www.w3.org/1999/xlink" x="0px" y="0px"
	 viewBox="0 0 72 72" style="enable-background:new 0 0 72 72;" xml:space="preserve">
<path d="M52.52,30.28l-14.4-14.4c0,0,0,0,0,0l0,0c0,0,0,0,0,0c-0.14-0.14-0.29-0.26-0.46-0.37c-0.07-0.05-0.15-0.08-0.22-0.12
	c-0.1-0.05-0.19-0.11-0.3-0.16c-0.09-0.04-0.19-0.06-0.29-0.09c-0.09-0.03-0.18-0.06-0.27-0.08c-0.18-0.04-0.37-0.05-0.55-0.06
	c-0.01,0-0.02,0-0.03,0c-0.01,0-0.01,0-0.02,0c-0.19,0-0.38,0.02-0.57,0.06c-0.09,0.02-0.17,0.05-0.26,0.08
	c-0.1,0.03-0.21,0.05-0.3,0.09c-0.1,0.04-0.19,0.1-0.28,0.15c-0.08,0.04-0.16,0.08-0.23,0.13c-0.17,0.11-0.32,0.24-0.46,0.38
	l-14.4,14.4c-1.17,1.17-1.17,3.07,0,4.24c1.17,1.17,3.07,1.17,4.24,0L33,25.24V54c0,1.66,1.34,3,3,3c1.66,0,3-1.34,3-3V25.24
	l9.28,9.28c0.59,0.59,1.35,0.88,2.12,0.88s1.54-0.29,2.12-0.88C53.69,33.35,53.69,31.45,52.52,30.28z"/>
</svg>
