<?xml version="1.0" encoding="utf-8"?>
<!-- Generator: Adobe Illustrator 28.1.0, SVG Export Plug-In . SVG Version: 6.00 Build 0)  -->
<svg version="1.1" id="Layer_1" xmlns="http://www.w3.org/2000/svg" xmlns:xlink="http://www.w3.org/1999/xlink" x="0px" y="0px"
	 viewBox="0 0 72 72" style="enable-background:new 0 0 72 72;" xml:space="preserve">
<g>
	<path d="M36,67.5c17.37,0,31.5-14.13,31.5-31.5S53.37,4.5,36,4.5S4.5,18.63,4.5,36S18.63,67.5,36,67.5z M36,62.25
		c-6.02,0-11.58-2.02-16-5.41c2.7-3.69,10.62-13.51,20.92-16.16c2.36,5.99,4.34,12.56,5.33,19.52C43.12,61.52,39.63,62.25,36,62.25z
		 M51.09,57.49c-1.05-6.28-2.77-12.24-4.84-17.72c2.07-0.21,4.03-0.33,5.74-0.33c4.69,0,7.93,0.66,9.84,1.15
		C60.62,47.59,56.67,53.59,51.09,57.49z M56.92,20.17c3.2,4.23,5.19,9.47,5.33,15.18c-2.34-0.52-5.78-1.04-10.25-1.07
		c-2.33-0.01-4.96,0.15-7.79,0.49c-0.66-1.5-1.36-2.94-2.05-4.35c5.89-2.26,9.9-5.23,12.55-7.79
		C55.61,21.75,56.31,20.94,56.92,20.17z M36,9.75c6.65,0,12.68,2.5,17.31,6.56c-0.49,0.69-1.16,1.52-2.21,2.54
		c-2.25,2.17-5.83,4.79-11.32,6.81c-3.71-6.86-7.35-12.02-9.76-15.26C31.93,9.97,33.94,9.75,36,9.75z M24.84,12.21
		c2.15,2.82,5.99,8.05,9.84,15.01c-10.67,2.83-20.47,3.19-24.36,3.2C12.07,22.31,17.52,15.64,24.84,12.21z M9.75,35.67
		c3.55,0.04,14.83-0.21,27.32-3.69c0.6,1.22,1.22,2.47,1.8,3.77c-11.22,3.11-19.28,12.62-22.72,17.39
		c-3.97-4.59-6.4-10.58-6.4-17.14C9.75,35.89,9.75,35.78,9.75,35.67z"/>
</g>
</svg>
