<?xml version="1.0" encoding="utf-8"?>
<!-- Generator: Adobe Illustrator 28.1.0, SVG Export Plug-In . SVG Version: 6.00 Build 0)  -->
<svg version="1.1" id="Layer_1" xmlns="http://www.w3.org/2000/svg" xmlns:xlink="http://www.w3.org/1999/xlink" x="0px" y="0px"
	 viewBox="0 0 72 72" style="enable-background:new 0 0 72 72;" xml:space="preserve">
<g>
	<path d="M58.5,28.38c-1.1,0-2,0.89-2,1.99c0,1.11,0.9,2.01,2,2.01c1.1,0,2-0.9,2-2.01C60.5,29.27,59.6,28.38,58.5,28.38z"/>
	<circle cx="18" cy="40.5" r="2"/>
	<path d="M18,32.88c-1.1,0-2,0.89-2,2c0,1.1,0.9,1.99,2,1.99c1.1,0,2-0.89,2-1.99C20,33.77,19.1,32.88,18,32.88z"/>
	<circle cx="18" cy="29.25" r="2"/>
	<path d="M18,21.62c-1.1,0-2,0.9-2,2.01c0,1.1,0.9,2,2,2c1.1,0,2-0.9,2-2C20,22.52,19.1,21.62,18,21.62z"/>
	<path d="M21,63c0-21.2,11.59-25.97,22.79-30.59c4.66-1.92,9.4-3.89,12.8-7.08c0.25,0.82,1.01,1.42,1.9,1.42c1.1,0,2-0.9,2-2
		c0-0.99-0.74-1.82-1.69-1.97c1.67-2.41,2.69-5.4,2.69-9.28v-3h-6v3c0,7.25-5.06,9.68-13.99,13.37c-7.69,3.17-17.32,7.14-22.6,17.49
		c-0.27-0.14-0.58-0.23-0.91-0.23c-1.1,0-2,0.89-2,1.99c0,0.88,0.57,1.61,1.34,1.88c-0.27,0.75-0.52,1.52-0.75,2.33
		c-0.37,0.36-0.6,0.87-0.6,1.42c0,0.2,0.04,0.39,0.09,0.57C15.39,55.45,15,58.98,15,63v3h6V63z"/>
	<path d="M11.5,13.5c0,3.58,2.92,6.5,6.5,6.5s6.5-2.92,6.5-6.5S21.58,7,18,7S11.5,9.92,11.5,13.5z M18,11c1.38,0,2.5,1.12,2.5,2.5
		S19.38,16,18,16s-2.5-1.12-2.5-2.5S16.62,11,18,11z"/>
	<path d="M58.6,34.01C58.6,34.01,58.6,34.01,58.6,34.01C58.57,34,58.53,34,58.5,34c-3.58,0-6.5,2.92-6.5,6.5s2.92,6.5,6.5,6.5
		s6.5-2.92,6.5-6.5C65,36.95,62.14,34.06,58.6,34.01z M58.5,43c-1.38,0-2.5-1.12-2.5-2.5s1.12-2.5,2.5-2.5s2.5,1.12,2.5,2.5
		S59.88,43,58.5,43z"/>
</g>
</svg>
