<?xml version="1.0" encoding="utf-8"?>
<!-- Generator: Adobe Illustrator 28.1.0, SVG Export Plug-In . SVG Version: 6.00 Build 0)  -->
<svg version="1.1" id="Layer_1" xmlns="http://www.w3.org/2000/svg" xmlns:xlink="http://www.w3.org/1999/xlink" x="0px" y="0px"
	 viewBox="0 0 72 72" style="enable-background:new 0 0 72 72;" xml:space="preserve">
<path d="M56.5,57l-14.37,0c-4.86,0-9.39-2.1-12.87-5.5c-2.32-2.26-5.38-3.5-8.63-3.5H15V15.5c0-0.28,0.22-0.5,0.5-0.5l14.37,0
	c4.86,0,9.39,2.1,12.87,5.5c2.32,2.26,5.38,3.5,8.63,3.5h5.14c0.28,0,0.5,0.22,0.5,0.5v32C57,56.78,56.78,57,56.5,57z M21,42
	c4.77,0.09,9.24,1.99,12.62,5.38c2.33,2.33,5.44,3.62,8.74,3.62H51V30c-4.77-0.09-9.24-1.99-12.62-5.38
	C36.04,22.29,32.94,21,29.64,21H21V42z"/>
<g>
	<path d="M20.5,66h-5c-0.28,0-0.5-0.22-0.5-0.5v-50c0-0.28,0.22-0.5,0.5-0.5H21v50.5C21,65.78,20.78,66,20.5,66z"/>
</g>
</svg>
