<?xml version="1.0" encoding="utf-8"?>
<!-- Generator: Adobe Illustrator 28.1.0, SVG Export Plug-In . SVG Version: 6.00 Build 0)  -->
<svg version="1.1" id="Layer_1" xmlns="http://www.w3.org/2000/svg" xmlns:xlink="http://www.w3.org/1999/xlink" x="0px" y="0px"
	 viewBox="0 0 72 72" style="enable-background:new 0 0 72 72;" xml:space="preserve">
<g>
	<path d="M59,6H13c-3.86,0-7,3.14-7,7v46c0,3.86,3.14,7,7,7h46c3.86,0,7-3.14,7-7V13C66,9.14,62.86,6,59,6z M60,59
		c0,0.55-0.45,1-1,1H13c-0.55,0-1-0.45-1-1V29h48V59z M60,25H12V13c0-0.55,0.45-1,1-1h46c0.55,0,1,0.45,1,1V25z"/>
	<path d="M20.77,16.85c-0.07-0.18-0.17-0.35-0.28-0.51c-0.1-0.17-0.23-0.32-0.37-0.46c-0.14-0.14-0.29-0.26-0.45-0.37
		c-0.17-0.11-0.34-0.2-0.52-0.28c-0.18-0.07-0.37-0.13-0.56-0.17c-0.98-0.19-2.02,0.12-2.71,0.82c-0.14,0.14-0.27,0.29-0.37,0.46
		c-0.11,0.16-0.21,0.33-0.28,0.51c-0.08,0.18-0.13,0.37-0.17,0.56C15.02,17.61,15,17.81,15,18c0,0.2,0.02,0.39,0.06,0.59
		c0.04,0.19,0.09,0.38,0.17,0.56c0.07,0.18,0.17,0.35,0.28,0.52c0.1,0.16,0.23,0.31,0.37,0.45C16.44,20.68,17.21,21,18,21
		c0.2,0,0.39-0.02,0.59-0.06c0.19-0.04,0.38-0.09,0.56-0.17c0.18-0.07,0.35-0.17,0.52-0.28c0.16-0.1,0.31-0.23,0.45-0.37
		c0.14-0.14,0.27-0.29,0.37-0.45c0.11-0.17,0.21-0.34,0.28-0.52c0.08-0.18,0.13-0.37,0.17-0.56C20.98,18.39,21,18.2,21,18
		c0-0.19-0.02-0.39-0.06-0.59C20.9,17.22,20.85,17.03,20.77,16.85z"/>
	<path d="M26.41,15.06c-0.19,0.04-0.38,0.1-0.56,0.17c-0.18,0.08-0.35,0.17-0.52,0.28c-0.16,0.11-0.31,0.23-0.45,0.37
		C24.32,16.44,24,17.21,24,18s0.32,1.56,0.88,2.12c0.14,0.14,0.29,0.27,0.45,0.38c0.17,0.1,0.34,0.2,0.52,0.27
		c0.18,0.08,0.37,0.13,0.56,0.17C26.61,20.98,26.81,21,27,21c0.79,0,1.57-0.32,2.12-0.88c0.14-0.14,0.27-0.29,0.37-0.45
		c0.11-0.17,0.21-0.34,0.28-0.52c0.08-0.18,0.13-0.37,0.17-0.56C29.98,18.39,30,18.2,30,18c0-0.79-0.32-1.56-0.88-2.12
		C28.43,15.18,27.39,14.86,26.41,15.06z"/>
	<path d="M37.67,15.51c-0.17-0.11-0.34-0.2-0.52-0.28c-0.18-0.07-0.37-0.13-0.56-0.17c-0.98-0.2-2.02,0.12-2.71,0.82
		C33.32,16.44,33,17.21,33,18c0,0.2,0.02,0.39,0.06,0.59c0.04,0.19,0.09,0.38,0.17,0.56c0.08,0.18,0.17,0.35,0.28,0.52
		c0.11,0.16,0.23,0.31,0.37,0.45C34.44,20.68,35.21,21,36,21c0.2,0,0.39-0.02,0.59-0.06c0.19-0.04,0.38-0.09,0.56-0.17
		c0.18-0.07,0.35-0.17,0.52-0.28c0.16-0.1,0.31-0.23,0.45-0.37c0.14-0.14,0.27-0.29,0.37-0.45c0.11-0.17,0.21-0.34,0.28-0.52
		c0.08-0.18,0.13-0.37,0.17-0.56C38.98,18.39,39,18.2,39,18c0-0.79-0.32-1.56-0.88-2.12C37.98,15.74,37.83,15.62,37.67,15.51z"/>
	<path d="M36.71,50.76c0.48,1.44,1.73,2.48,3.23,2.69c0.19,0.03,0.38,0.04,0.57,0.04c1.02,0,2.01-0.39,2.75-1.09l3.42,3.42
		c0.78,0.78,1.8,1.17,2.83,1.17s2.05-0.39,2.83-1.17l3.5-3.5c1.56-1.56,1.56-4.09,0-5.66l-3.42-3.42c0.83-0.88,1.23-2.09,1.05-3.31
		c-0.21-1.5-1.26-2.75-2.69-3.23l-13.5-4.5C36.85,32.07,36.42,32,36,32c-1.04,0-2.07,0.41-2.83,1.17c-1.07,1.07-1.45,2.66-0.97,4.09
		L36.71,50.76z M49.5,40.5l-3.25,2.25L53,49.5L49.5,53l-6.75-6.75L40.5,49.5L36,36L49.5,40.5z"/>
</g>
</svg>
