<?xml version="1.0" encoding="utf-8"?>
<!-- Generator: Adobe Illustrator 28.1.0, SVG Export Plug-In . SVG Version: 6.00 Build 0)  -->
<svg version="1.1" id="Layer_1" xmlns="http://www.w3.org/2000/svg" xmlns:xlink="http://www.w3.org/1999/xlink" x="0px" y="0px"
	 viewBox="0 0 72 72" style="enable-background:new 0 0 72 72;" xml:space="preserve">
<g>
	<g>
		<path d="M60.32,11.68C56.71,8.07,51.64,6.82,47,7.9l-3.12-3.12L33.28,15.39l3.11,3.11C36.14,19.55,36,20.64,36,21.75
			s0.14,2.2,0.39,3.26l-4.7,4.7l-1.59-1.59L8.88,49.33c-3.8,3.8-3.8,9.99,0,13.79c1.84,1.84,4.29,2.86,6.89,2.86
			s5.05-1.01,6.89-2.86l21.21-21.21l-1.59-1.59L47,35.61c1.07,0.25,2.16,0.39,3.25,0.39c1.09,0,2.18-0.14,3.25-0.39l3.12,3.12
			l10.61-10.61L64.1,25C65.18,20.36,63.93,15.29,60.32,11.68z M18.43,58.88c-1.42,1.42-3.89,1.42-5.3,0c-1.46-1.46-1.46-3.84,0-5.3
			L30.09,36.6l4.77,4.77l0.53,0.53L18.43,58.88z M38.05,36.07l-2.12-2.12l3.24-3.24c0.31,0.39,0.65,0.76,1,1.12
			c0.36,0.36,0.73,0.69,1.12,1L38.05,36.07z M44.41,27.59C42.85,26.03,42,23.96,42,21.75s0.86-4.28,2.42-5.83
			c1.61-1.61,3.72-2.41,5.83-2.41c2.11,0,4.23,0.8,5.83,2.41c3.22,3.22,3.22,8.45,0,11.67C52.86,30.8,47.63,30.8,44.41,27.59z"/>
	</g>
</g>
</svg>
