<?xml version="1.0" encoding="utf-8"?>
<!-- Generator: Adobe Illustrator 28.1.0, SVG Export Plug-In . SVG Version: 6.00 Build 0)  -->
<svg version="1.1" id="Layer_1" xmlns="http://www.w3.org/2000/svg" xmlns:xlink="http://www.w3.org/1999/xlink" x="0px" y="0px"
	 viewBox="0 0 72 72" style="enable-background:new 0 0 72 72;" xml:space="preserve">
<path d="M25.02,4.55c-0.16,0.03-0.33,0.06-0.47,0.16c-0.58,0.39-0.7,1.2-0.31,1.77l2.72,4.05c-4.2,2.22-7.33,5.92-8.35,10.35h34.8
	c-1.02-4.43-4.15-8.13-8.35-10.35l2.72-4.05c0.39-0.58,0.26-1.38-0.31-1.77c-0.58-0.39-1.38-0.22-1.77,0.35l-2.99,4.41
	C40.62,8.72,38.36,8.29,36,8.29s-4.62,0.42-6.69,1.18l-2.99-4.41C26.03,4.63,25.5,4.46,25.02,4.55z M29.07,14.59
	c1.04,0,1.89,0.85,1.89,1.89c0,1.05-0.85,1.89-1.89,1.89c-1.05,0-1.89-0.84-1.89-1.89C27.18,15.44,28.02,14.59,29.07,14.59z
	 M42.93,14.59c1.05,0,1.89,0.85,1.89,1.89c0,1.05-0.84,1.89-1.89,1.89c-1.04,0-1.89-0.84-1.89-1.89
	C41.04,15.44,41.89,14.59,42.93,14.59z M14.58,23.41c-2.09,0-3.78,1.69-3.78,3.78v17.64c0,2.09,1.69,3.78,3.78,3.78
	c0.44,0,0.87-0.09,1.26-0.24V23.65C15.45,23.5,15.03,23.41,14.58,23.41z M18.36,23.41v27.71c0,2.08,1.7,3.78,3.78,3.78h27.71
	c2.08,0,3.78-1.7,3.78-3.78V23.41H18.36z M57.42,23.41c-0.44,0-0.87,0.09-1.26,0.24v24.72c0.39,0.14,0.82,0.24,1.26,0.24
	c2.09,0,3.78-1.69,3.78-3.78V27.19C61.19,25.1,59.5,23.41,57.42,23.41z M23.4,57.42v5.04c0,2.78,2.26,5.04,5.04,5.04
	s5.04-2.26,5.04-5.04v-5.04H23.4z M38.52,57.42v5.04c0,2.78,2.26,5.04,5.04,5.04s5.04-2.26,5.04-5.04v-5.04H38.52z"/>
</svg>
