<?xml version="1.0" encoding="utf-8"?>
<!-- Generator: Adobe Illustrator 28.1.0, SVG Export Plug-In . SVG Version: 6.00 Build 0)  -->
<svg version="1.1" id="Layer_1" xmlns="http://www.w3.org/2000/svg" xmlns:xlink="http://www.w3.org/1999/xlink" x="0px" y="0px"
	 viewBox="0 0 72 72" style="enable-background:new 0 0 72 72;" xml:space="preserve">
<g>
	<g>
		<path d="M11.75,33.5v5c0,0.28,0.22,0.5,0.5,0.5H32.5c0.28,0,0.5-0.22,0.5-0.5v-5c0-0.28-0.22-0.5-0.5-0.5H12.25
			C11.97,33,11.75,33.22,11.75,33.5z"/>
	</g>
	<g>
		<path d="M39.5,39h20.25c0.28,0,0.5-0.22,0.5-0.5v-5c0-0.28-0.22-0.5-0.5-0.5H39.5c-0.28,0-0.5,0.22-0.5,0.5v5
			C39,38.78,39.22,39,39.5,39z"/>
	</g>
</g>
</svg>
