<?xml version="1.0" encoding="utf-8"?>
<!-- Generator: Adobe Illustrator 28.1.0, SVG Export Plug-In . SVG Version: 6.00 Build 0)  -->
<svg version="1.1" id="Layer_1" xmlns="http://www.w3.org/2000/svg" xmlns:xlink="http://www.w3.org/1999/xlink" x="0px" y="0px"
	 viewBox="0 0 72 72" style="enable-background:new 0 0 72 72;" xml:space="preserve">
<g>
	<path d="M12,67.5h48c4.14,0,7.5-3.36,7.5-7.5V12c0-4.14-3.36-7.5-7.5-7.5H12c-4.14,0-7.5,3.36-7.5,7.5v48
		C4.5,64.14,7.86,67.5,12,67.5z M28.5,28.5h9v3.84c0,0,2.9-3.84,8.72-3.84C52.17,28.5,57,32.59,57,40.89V57h-9c0,0,0-13.89,0-15
		c0-3-1.5-6-5.25-6.06h-0.12c-3.63,0-5.13,3.09-5.13,6.06c0,1.36,0,15,0,15h-9V28.5z M19.5,16.5c2.7,0,4.4,1.6,4.5,3.7
		c0,2.1-1.68,3.8-4.5,3.8c-2.7,0-4.5-1.7-4.5-3.8S16.8,16.5,19.5,16.5z M15,28.5h9V57h-9V28.5z"/>
</g>
</svg>
