<?xml version="1.0" encoding="utf-8"?>
<!-- Generator: Adobe Illustrator 28.1.0, SVG Export Plug-In . SVG Version: 6.00 Build 0)  -->
<svg version="1.1" id="Layer_1" xmlns="http://www.w3.org/2000/svg" xmlns:xlink="http://www.w3.org/1999/xlink" x="0px" y="0px"
	 viewBox="0 0 72 72" style="enable-background:new 0 0 72 72;" xml:space="preserve">
<g>
	<g>
		<path d="M55,23.53l-4.93,2.84l1.87-3.24c1.93-3.34,0.78-7.63-2.56-9.56l-8.66-5c-1.62-0.93-3.5-1.18-5.31-0.7
			c-1.81,0.48-3.31,1.64-4.25,3.26l-3.03,5.24V13c0-3.86-3.14-7-7-7h-10c-3.86,0-7,3.14-7,7v45.5c0,3.86,3.14,7,7,7h7.62
			c1.35,1.61,3.33,2.5,5.36,2.5c1.19,0,2.39-0.3,3.49-0.94L67,44.31c1.62-0.94,2.78-2.44,3.26-4.25s0.24-3.69-0.7-5.31l-5-8.66
			C62.63,22.75,58.34,21.6,55,23.53z M15.15,59.5h-4.02c-0.55,0-1-0.45-1-1V51h12v7.5c0,0.55-0.45,1-1,1H15.15z M29.75,49.58
			l-1.62-0.93V38.25l6.12,3.53L29.75,49.58z M22.13,26.77V34h-12V24h12V26.77z M22.13,38v9h-12v-9H22.13z M33.73,54.68l4.6-7.97
			l0.59-1.03l3.43,5.93l-7.79,4.5L33.73,54.68z M41.23,41.68l2.84-4.92l4.4-2.54l6,10.39l-8.66,5L41.23,41.68z M36.35,14.13
			c0.18-0.31,0.46-0.43,0.61-0.47c0.15-0.04,0.45-0.08,0.76,0.1l8.66,5c0.48,0.28,0.64,0.89,0.37,1.37l-3.5,6.06l-10.39-6
			L36.35,14.13z M30.85,23.66l10.39,6l-1.57,2.71l0,0l-3.43,5.95l-8.12-4.69v-5.26L30.85,23.66z M11.13,12h10c0.55,0,1,0.45,1,1v7
			h-12v-7C10.13,12.45,10.58,12,11.13,12z M64.47,38.51c-0.04,0.15-0.15,0.43-0.47,0.61l-6.06,3.5l-6-10.39l6.06-3.5
			c0.31-0.18,0.61-0.14,0.76-0.1c0.15,0.04,0.43,0.15,0.61,0.47l5,8.66C64.55,38.06,64.51,38.36,64.47,38.51z"/>
	</g>
</g>
</svg>
