<?xml version="1.0" encoding="utf-8"?>
<!-- Generator: Adobe Illustrator 28.1.0, SVG Export Plug-In . SVG Version: 6.00 Build 0)  -->
<svg version="1.1" id="Layer_1" xmlns="http://www.w3.org/2000/svg" xmlns:xlink="http://www.w3.org/1999/xlink" x="0px" y="0px"
	 viewBox="0 0 72 72" style="enable-background:new 0 0 72 72;" xml:space="preserve">
<g>
	<path d="M6,36c0,16.54,13.46,30,30,30s30-13.46,30-30S52.54,6,36,6S6,19.46,6,36z M36,12c13.23,0,24,10.77,24,24S49.23,60,36,60
		S12,49.23,12,36S22.77,12,36,12z"/>
	<path d="M36.33,49.57c0.24,0.24,0.65,0.18,0.8-0.13L48.8,26.11c0.12-0.25,0.02-0.55-0.22-0.67l-4.47-2.24
		c-0.25-0.12-0.55-0.02-0.67,0.22l-8.26,16.51l-7.82-7.82c-0.2-0.2-0.51-0.2-0.71,0l-3.54,3.54c-0.2,0.2-0.2,0.51,0,0.71
		L36.33,49.57z"/>
</g>
</svg>
