<?xml version="1.0" encoding="utf-8"?>
<!-- Generator: Adobe Illustrator 28.1.0, SVG Export Plug-In . SVG Version: 6.00 Build 0)  -->
<svg version="1.1" id="Layer_1" xmlns="http://www.w3.org/2000/svg" xmlns:xlink="http://www.w3.org/1999/xlink" x="0px" y="0px"
	 viewBox="0 0 72 72" style="enable-background:new 0 0 72 72;" xml:space="preserve">
<path d="M40.5,66C33,66,33,59.41,33,56.25c0-3.75-0.14-3.75-1.5-3.75c-6.97,0-25.5,0-25.5-17.58c0-16.54,13.46-30,30-30
	s30,13.46,30,30C66,60.72,45.89,66,40.5,66z M36,10.92c-13.23,0-24,10.77-24,24c0,5.04,2.14,8.2,6.73,9.96
	c4.24,1.62,9.58,1.62,12.77,1.62c7.5,0,7.5,6.59,7.5,9.75C39,60,39.14,60,40.5,60C44.62,60,60,55.74,60,34.92
	C60,21.68,49.23,10.92,36,10.92z"/>
<path d="M49.5,35.5c-1.05,0-2.08-0.43-2.83-1.17c-0.18-0.19-0.35-0.39-0.5-0.61c-0.14-0.22-0.26-0.45-0.36-0.69
	c-0.1-0.24-0.18-0.49-0.23-0.75c-0.05-0.26-0.08-0.52-0.08-0.78c0-0.26,0.03-0.52,0.08-0.78c0.05-0.26,0.13-0.51,0.23-0.75
	c0.1-0.24,0.22-0.47,0.36-0.69c0.15-0.22,0.32-0.42,0.5-0.61c0.75-0.74,1.78-1.17,2.83-1.17c1.05,0,2.08,0.43,2.83,1.17
	c0.18,0.19,0.35,0.39,0.5,0.61c0.14,0.22,0.26,0.45,0.36,0.69c0.1,0.24,0.18,0.49,0.23,0.75c0.05,0.26,0.08,0.52,0.08,0.78
	c0,0.26-0.03,0.52-0.08,0.78c-0.05,0.26-0.13,0.51-0.23,0.75c-0.1,0.24-0.22,0.47-0.36,0.69c-0.15,0.22-0.32,0.42-0.5,0.61
	C51.58,35.07,50.55,35.5,49.5,35.5z"/>
<path d="M49.5,49c-1.05,0-2.08-0.43-2.83-1.17c-0.74-0.75-1.17-1.78-1.17-2.83c0-1.05,0.43-2.08,1.17-2.83
	C47.42,41.43,48.45,41,49.5,41c1.05,0,2.08,0.43,2.83,1.17c0.74,0.75,1.17,1.78,1.17,2.83c0,1.05-0.43,2.08-1.17,2.83
	C51.59,48.57,50.55,49,49.5,49z"/>
<path d="M40.5,22c-0.26,0-0.52-0.03-0.78-0.08c-0.26-0.05-0.51-0.13-0.75-0.23c-0.24-0.1-0.47-0.22-0.69-0.36
	c-0.22-0.15-0.42-0.32-0.61-0.5c-0.18-0.18-0.35-0.39-0.5-0.61c-0.14-0.22-0.26-0.45-0.36-0.69c-0.1-0.24-0.18-0.49-0.23-0.75
	c-0.05-0.26-0.08-0.52-0.08-0.78c0-0.26,0.03-0.52,0.08-0.78c0.05-0.26,0.13-0.51,0.23-0.75c0.1-0.24,0.22-0.47,0.36-0.69
	c0.15-0.22,0.32-0.42,0.5-0.61c0.19-0.18,0.39-0.35,0.61-0.5c0.22-0.14,0.45-0.26,0.69-0.36c0.24-0.1,0.49-0.18,0.75-0.23
	c0.51-0.11,1.05-0.11,1.56,0c0.26,0.05,0.51,0.13,0.75,0.23c0.24,0.1,0.47,0.22,0.69,0.36c0.22,0.15,0.43,0.32,0.61,0.5
	c0.18,0.19,0.35,0.39,0.5,0.61c0.14,0.22,0.26,0.45,0.36,0.69c0.1,0.24,0.18,0.49,0.23,0.75c0.05,0.26,0.08,0.52,0.08,0.78
	c0,0.26-0.03,0.52-0.08,0.78c-0.05,0.26-0.13,0.51-0.23,0.75c-0.1,0.24-0.22,0.47-0.36,0.69c-0.15,0.22-0.32,0.43-0.5,0.61
	c-0.18,0.18-0.39,0.35-0.61,0.5c-0.22,0.14-0.45,0.26-0.69,0.36c-0.24,0.1-0.49,0.18-0.75,0.23C41.02,21.97,40.76,22,40.5,22z"/>
<path d="M27,26.5c-0.26,0-0.52-0.03-0.78-0.08c-0.26-0.05-0.51-0.13-0.75-0.23c-0.24-0.1-0.47-0.22-0.69-0.36
	c-0.22-0.15-0.42-0.32-0.61-0.5c-0.18-0.19-0.35-0.39-0.5-0.61c-0.14-0.22-0.26-0.45-0.36-0.69c-0.1-0.24-0.18-0.49-0.23-0.75
	C23.03,23.02,23,22.76,23,22.5c0-0.26,0.03-0.52,0.08-0.78c0.05-0.26,0.13-0.51,0.23-0.75c0.1-0.24,0.22-0.47,0.36-0.69
	c0.15-0.22,0.32-0.42,0.5-0.61c0.19-0.18,0.39-0.35,0.61-0.5c0.22-0.14,0.45-0.26,0.69-0.36c0.24-0.1,0.49-0.18,0.75-0.23
	c1.3-0.27,2.68,0.16,3.61,1.09c0.18,0.19,0.35,0.39,0.5,0.61c0.14,0.22,0.26,0.45,0.36,0.69c0.1,0.24,0.18,0.49,0.23,0.75
	C30.97,21.98,31,22.24,31,22.5c0,1.05-0.43,2.08-1.17,2.83C29.08,26.07,28.05,26.5,27,26.5z"/>
<path d="M18,35.5c-1.05,0-2.08-0.43-2.83-1.17c-0.18-0.18-0.35-0.39-0.5-0.61c-0.14-0.22-0.26-0.45-0.36-0.69
	c-0.1-0.24-0.18-0.49-0.23-0.75C14.03,32.02,14,31.76,14,31.5c0-0.26,0.03-0.52,0.08-0.78c0.05-0.26,0.13-0.51,0.23-0.75
	c0.1-0.24,0.22-0.47,0.36-0.69c0.15-0.22,0.32-0.42,0.5-0.61c0.93-0.93,2.31-1.36,3.61-1.09c0.26,0.05,0.51,0.13,0.75,0.23
	c0.24,0.1,0.47,0.22,0.69,0.36c0.22,0.15,0.43,0.32,0.61,0.5c0.18,0.19,0.35,0.39,0.5,0.61c0.14,0.22,0.26,0.45,0.36,0.69
	c0.1,0.24,0.18,0.49,0.23,0.75C21.97,30.98,22,31.24,22,31.5c0,0.26-0.03,0.52-0.08,0.78c-0.05,0.26-0.13,0.51-0.23,0.75
	c-0.1,0.24-0.22,0.47-0.36,0.69c-0.15,0.22-0.32,0.43-0.5,0.61c-0.18,0.18-0.39,0.35-0.61,0.5c-0.22,0.14-0.45,0.26-0.69,0.36
	c-0.24,0.1-0.49,0.18-0.75,0.23C18.52,35.48,18.26,35.5,18,35.5z"/>
</svg>
