<?xml version="1.0" encoding="utf-8"?>
<!-- Generator: Adobe Illustrator 28.1.0, SVG Export Plug-In . SVG Version: 6.00 Build 0)  -->
<svg version="1.1" id="Layer_1" xmlns="http://www.w3.org/2000/svg" xmlns:xlink="http://www.w3.org/1999/xlink" x="0px" y="0px"
	 viewBox="0 0 72 72" style="enable-background:new 0 0 72 72;" xml:space="preserve">
<g>
	<path d="M27,48c1.66,0,3-1.34,3-3v-2c0-7.17,5.83-13,13-13h3.76l-3.88,3.88c-1.17,1.17-1.17,3.07,0,4.24
		C43.46,38.71,44.23,39,45,39s1.54-0.29,2.12-0.88l9-9c0.14-0.14,0.27-0.3,0.38-0.46c0.05-0.07,0.08-0.15,0.12-0.22
		c0.05-0.1,0.11-0.19,0.16-0.3c0.04-0.1,0.06-0.2,0.09-0.3c0.03-0.09,0.06-0.17,0.08-0.26c0.08-0.39,0.08-0.79,0-1.17
		c-0.02-0.09-0.05-0.17-0.08-0.26c-0.03-0.1-0.05-0.2-0.09-0.3c-0.04-0.1-0.1-0.2-0.16-0.3c-0.04-0.07-0.07-0.15-0.12-0.22
		c-0.11-0.17-0.24-0.32-0.38-0.46l-9-9c-1.17-1.17-3.07-1.17-4.24,0c-1.17,1.17-1.17,3.07,0,4.24L46.76,24H43
		c-10.48,0-19,8.52-19,19v2C24,46.66,25.34,48,27,48z"/>
	<path d="M54,55.5H18c-1.66,0-3,1.34-3,3s1.34,3,3,3h36c1.66,0,3-1.34,3-3S55.66,55.5,54,55.5z"/>
</g>
</svg>
