<?xml version="1.0" encoding="utf-8"?>
<!-- Generator: Adobe Illustrator 28.1.0, SVG Export Plug-In . SVG Version: 6.00 Build 0)  -->
<svg version="1.1" id="Layer_1" xmlns="http://www.w3.org/2000/svg" xmlns:xlink="http://www.w3.org/1999/xlink" x="0px" y="0px"
	 viewBox="0 0 72 72" style="enable-background:new 0 0 72 72;" xml:space="preserve">
<g>
	<path d="M22.5,57c-1.66,0-3-1.34-3-3V18c0-1.66,1.34-3,3-3s3,1.34,3,3v36C25.5,55.66,24.16,57,22.5,57z"/>
</g>
<g>
	<path d="M31.5,57c-1.66,0-3-1.34-3-3V18c0-1.66,1.34-3,3-3s3,1.34,3,3v36C34.5,55.66,33.16,57,31.5,57z"/>
</g>
<g>
	<path d="M40.5,57c-1.66,0-3-1.34-3-3V18c0-1.66,1.34-3,3-3s3,1.34,3,3v36C43.5,55.66,42.16,57,40.5,57z"/>
</g>
<g>
	<path d="M49.5,43.5c-1.66,0-3-1.34-3-3V18c0-1.66,1.34-3,3-3s3,1.34,3,3v22.5C52.5,42.16,51.16,43.5,49.5,43.5z"/>
</g>
<g>
	<path d="M52,57h-5c-0.28,0-0.5-0.22-0.5-0.5v-19h6v19C52.5,56.78,52.28,57,52,57z"/>
</g>
<g>
	<path d="M52,63h-5c-0.28,0-0.5-0.22-0.5-0.5V59c0-0.28,0.22-0.5,0.5-0.5h5c0.28,0,0.5,0.22,0.5,0.5v3.5C52.5,62.78,52.28,63,52,63z
		"/>
</g>
<g>
	<path d="M22.5,39H14c-0.28,0-0.5-0.22-0.5-0.5v-5c0-0.28,0.22-0.5,0.5-0.5h8.5V39z"/>
</g>
</svg>
