<?xml version="1.0" encoding="utf-8"?>
<!-- Generator: Adobe Illustrator 28.1.0, SVG Export Plug-In . SVG Version: 6.00 Build 0)  -->
<svg version="1.1" id="Layer_1" xmlns="http://www.w3.org/2000/svg" xmlns:xlink="http://www.w3.org/1999/xlink" x="0px" y="0px"
	 viewBox="0 0 72 72" style="enable-background:new 0 0 72 72;" xml:space="preserve">
<g>
	<path d="M22.5,20.75c-0.53,0-1.04-0.21-1.41-0.58c-0.1-0.1-0.18-0.2-0.25-0.31s-0.14-0.22-0.19-0.34
		c-0.05-0.13-0.08-0.25-0.11-0.38c-0.03-0.13-0.04-0.26-0.04-0.39c0-0.13,0.01-0.26,0.04-0.39c0.03-0.13,0.06-0.25,0.11-0.37
		c0.05-0.13,0.12-0.24,0.19-0.35c0.07-0.11,0.15-0.21,0.25-0.3c0.46-0.47,1.15-0.68,1.8-0.55c0.13,0.03,0.26,0.06,0.38,0.11
		c0.12,0.05,0.23,0.12,0.34,0.19c0.11,0.07,0.21,0.15,0.3,0.25c0.1,0.09,0.18,0.19,0.25,0.3c0.08,0.11,0.14,0.22,0.19,0.35
		c0.05,0.12,0.09,0.24,0.11,0.37c0.03,0.13,0.04,0.26,0.04,0.39c0,0.52-0.21,1.04-0.59,1.42c-0.09,0.09-0.19,0.17-0.3,0.24
		c-0.11,0.08-0.22,0.14-0.34,0.19c-0.12,0.05-0.25,0.09-0.38,0.11C22.76,20.74,22.63,20.75,22.5,20.75z"/>
	<path d="M31.5,20.75c-0.53,0-1.04-0.21-1.41-0.58c-0.38-0.38-0.59-0.9-0.59-1.42c0-0.13,0.01-0.26,0.04-0.39
		c0.02-0.13,0.06-0.25,0.11-0.37c0.05-0.12,0.12-0.24,0.19-0.35c0.07-0.11,0.15-0.21,0.25-0.3c0.09-0.1,0.19-0.18,0.3-0.25
		s0.22-0.14,0.34-0.19c0.13-0.05,0.25-0.08,0.38-0.11c0.65-0.13,1.34,0.08,1.8,0.55c0.1,0.09,0.18,0.19,0.25,0.3
		c0.08,0.11,0.14,0.23,0.19,0.35s0.09,0.24,0.11,0.37c0.03,0.13,0.04,0.26,0.04,0.39c0,0.13-0.01,0.26-0.04,0.39
		c-0.02,0.13-0.06,0.26-0.11,0.38c-0.05,0.12-0.11,0.23-0.19,0.34c-0.07,0.11-0.15,0.21-0.25,0.31
		C32.54,20.54,32.03,20.75,31.5,20.75z"/>
	<path d="M40.5,20.75c-0.13,0-0.26-0.01-0.39-0.04c-0.13-0.02-0.25-0.06-0.38-0.11c-0.12-0.05-0.23-0.11-0.34-0.19
		c-0.11-0.07-0.21-0.15-0.3-0.25c-0.38-0.37-0.59-0.88-0.59-1.41c0-0.13,0.01-0.26,0.04-0.39c0.03-0.13,0.06-0.25,0.11-0.37
		c0.05-0.13,0.12-0.24,0.19-0.35c0.07-0.11,0.15-0.21,0.25-0.3c0.74-0.75,2.08-0.75,2.82,0c0.1,0.09,0.18,0.19,0.25,0.3
		c0.07,0.11,0.14,0.22,0.19,0.35c0.05,0.12,0.09,0.24,0.11,0.37c0.03,0.13,0.04,0.26,0.04,0.39c0,0.53-0.21,1.04-0.59,1.41
		C41.54,20.54,41.03,20.75,40.5,20.75z"/>
	<path d="M49.5,20.75c-0.13,0-0.26-0.01-0.39-0.04c-0.13-0.03-0.25-0.06-0.38-0.11c-0.12-0.05-0.23-0.12-0.34-0.19
		c-0.11-0.07-0.21-0.15-0.3-0.25c-0.38-0.37-0.59-0.88-0.59-1.41c0-0.53,0.21-1.04,0.59-1.41c0.09-0.1,0.19-0.18,0.3-0.25
		s0.22-0.14,0.34-0.19c0.13-0.05,0.25-0.08,0.38-0.11c0.65-0.13,1.34,0.08,1.81,0.55c0.37,0.37,0.58,0.88,0.58,1.41
		c0,0.53-0.21,1.04-0.58,1.41C50.54,20.54,50.03,20.75,49.5,20.75z"/>
	<path d="M58.5,63.75h-45c-1.66,0-3-1.34-3-3v-49.5c0-1.66,1.34-3,3-3h45c1.66,0,3,1.34,3,3v49.5C61.5,62.41,60.16,63.75,58.5,63.75
		z M16.5,57.75h39v-43.5h-39V57.75z"/>
	<path d="M58.5,26.75h-45c-1.1,0-2-0.9-2-2s0.9-2,2-2h45c1.1,0,2,0.9,2,2S59.6,26.75,58.5,26.75z"/>
	<path d="M51.5,53.75h-31v-22h31V53.75z M24.5,49.75h23v-14h-23V49.75z"/>
</g>
</svg>
