<?xml version="1.0" encoding="utf-8"?>
<!-- Generator: Adobe Illustrator 28.1.0, SVG Export Plug-In . SVG Version: 6.00 Build 0)  -->
<svg version="1.1" id="Layer_1" xmlns="http://www.w3.org/2000/svg" xmlns:xlink="http://www.w3.org/1999/xlink" x="0px" y="0px"
	 viewBox="0 0 72 72" style="enable-background:new 0 0 72 72;" xml:space="preserve">
<path d="M36,66c-8.01,0-15.55-3.12-21.21-8.79C9.12,51.55,6,44.01,6,36s3.12-15.55,8.79-21.21C20.45,9.12,27.99,6,36,6
	c8.01,0,15.55,3.12,21.21,8.79l0,0c0,0,0,0,0,0C62.88,20.45,66,27.99,66,36s-3.12,15.55-8.79,21.21C51.55,62.88,44.01,66,36,66z
	 M36,12c-6.41,0-12.44,2.5-16.97,7.03C14.5,23.56,12,29.59,12,36s2.5,12.44,7.03,16.97C23.56,57.5,29.59,60,36,60
	s12.44-2.5,16.97-7.03C57.5,48.44,60,42.41,60,36s-2.5-12.44-7.03-16.97c0,0,0,0,0,0C48.44,14.5,42.41,12,36,12z"/>
<path d="M36,52.49c-4.23,0-8.45-1.61-11.67-4.83c-6.43-6.43-6.43-16.9,0-23.33c6.43-6.43,16.9-6.43,23.33,0
	c6.43,6.43,6.43,16.9,0,23.33C44.45,50.88,40.23,52.49,36,52.49z M36,25.5c-2.69,0-5.38,1.02-7.42,3.07
	c-4.09,4.09-4.09,10.76,0,14.85c4.09,4.09,10.75,4.09,14.85,0c4.09-4.09,4.09-10.76,0-14.85C41.38,26.53,38.69,25.5,36,25.5z"/>
<path d="M26.45,28.45c-0.51,0-1.02-0.2-1.41-0.59l-9.55-9.55c-0.78-0.78-0.78-2.05,0-2.83c0.78-0.78,2.05-0.78,2.83,0l9.55,9.55
	c0.78,0.78,0.78,2.05,0,2.83C27.48,28.26,26.97,28.45,26.45,28.45z"/>
<path d="M45.55,28.45c-0.51,0-1.02-0.2-1.41-0.59c-0.78-0.78-0.78-2.05,0-2.83l9.55-9.55c0.78-0.78,2.05-0.78,2.83,0
	c0.78,0.78,0.78,2.05,0,2.83l-9.55,9.55C46.57,28.26,46.06,28.45,45.55,28.45z"/>
<path d="M55.09,57.09c-0.51,0-1.02-0.2-1.41-0.59l-9.55-9.55c-0.78-0.78-0.78-2.05,0-2.83c0.78-0.78,2.05-0.78,2.83,0l9.55,9.55
	c0.78,0.78,0.78,2.05,0,2.83C56.12,56.9,55.6,57.09,55.09,57.09z"/>
<path d="M16.91,57.09c-0.51,0-1.02-0.2-1.41-0.59c-0.78-0.78-0.78-2.05,0-2.83l9.55-9.55c0.78-0.78,2.05-0.78,2.83,0
	c0.78,0.78,0.78,2.05,0,2.83l-9.55,9.55C17.93,56.9,17.42,57.09,16.91,57.09z"/>
</svg>
