<?xml version="1.0" encoding="utf-8"?>
<!-- Generator: Adobe Illustrator 28.1.0, SVG Export Plug-In . SVG Version: 6.00 Build 0)  -->
<svg version="1.1" id="Layer_1" xmlns="http://www.w3.org/2000/svg" xmlns:xlink="http://www.w3.org/1999/xlink" x="0px" y="0px"
	 viewBox="0 0 72 72" style="enable-background:new 0 0 72 72;" xml:space="preserve">
<g>
	<path d="M41.74,6H17.5c-3.86,0-7,3.14-7,7v27.5c0,1.66,1.34,3,3,3s3-1.34,3-3V13c0-0.55,0.45-1,1-1h21v11c0,3.31,2.69,6,6,6h11v30
		c0,0.55-0.45,1-1,1H36c-1.66,0-3,1.34-3,3s1.34,3,3,3h18.5c3.86,0,7-3.14,7-7V25.76L41.74,6z M42.5,23v-7.76L52.26,25H44.5
		C43.4,25,42.5,24.1,42.5,23z"/>
	<path d="M42.62,42.88l-9-9c-1.17-1.17-3.07-1.17-4.24,0l-18,18C10.82,52.44,10.5,53.2,10.5,54v9c0,1.66,1.34,3,3,3h9
		c0.8,0,1.56-0.32,2.12-0.88l18-18C43.79,45.95,43.79,44.05,42.62,42.88z M16.5,56.69c1.45,0.69,2.62,1.86,3.31,3.31H16.5V56.69z
		 M23.28,57.98c-1.05-2.04-2.72-3.71-4.76-4.76L31.5,40.24L36.26,45L23.28,57.98z"/>
</g>
</svg>
