<?xml version="1.0" encoding="utf-8"?>
<!-- Generator: Adobe Illustrator 28.1.0, SVG Export Plug-In . SVG Version: 6.00 Build 0)  -->
<svg version="1.1" id="Layer_1" xmlns="http://www.w3.org/2000/svg" xmlns:xlink="http://www.w3.org/1999/xlink" x="0px" y="0px"
	 viewBox="0 0 72 72" style="enable-background:new 0 0 72 72;" xml:space="preserve">
<path d="M54,41c-1.1,0-2-0.9-2-2V20H20v19c0,1.1-0.9,2-2,2s-2-0.9-2-2V18c0-1.1,0.9-2,2-2h36c1.1,0,2,0.9,2,2v21
	C56,40.1,55.1,41,54,41z"/>
<path d="M59,66H13c-3.86,0-7-3.14-7-7V31.5c0-1.16,0.67-2.22,1.73-2.72c1.06-0.49,2.3-0.33,3.19,0.41L36,50.09l25.08-20.9
	c0.89-0.75,2.14-0.91,3.19-0.41C65.33,29.28,66,30.34,66,31.5V59C66,62.86,62.86,66,59,66z M12,37.91V59c0,0.55,0.45,1,1,1h46
	c0.55,0,1-0.45,1-1V37.91L37.92,56.3c-1.11,0.93-2.73,0.93-3.84,0L12,37.91z"/>
<g>
	<path d="M46.8,20c-0.45,0-0.91-0.15-1.28-0.46L36,11.6l-9.52,7.93c-0.85,0.71-2.11,0.59-2.82-0.26c-0.71-0.85-0.59-2.11,0.26-2.82
		l10.8-9c0.74-0.62,1.82-0.62,2.56,0l10.8,9c0.85,0.71,0.96,1.97,0.26,2.82C47.94,19.75,47.37,20,46.8,20z"/>
	<path d="M36,56c-0.46,0-0.91-0.15-1.28-0.46l-27-22.5C7.26,32.66,7,32.09,7,31.5s0.26-1.16,0.72-1.54l9-7.5
		c0.85-0.71,2.11-0.59,2.82,0.26s0.59,2.11-0.26,2.82l-7.16,5.96L36,51.4l23.88-19.9l-7.16-5.96c-0.85-0.71-0.96-1.97-0.26-2.82
		c0.71-0.85,1.97-0.96,2.82-0.26l9,7.5C64.74,30.34,65,30.91,65,31.5s-0.26,1.16-0.72,1.54l-27,22.5C36.91,55.85,36.46,56,36,56z"/>
</g>
</svg>
