<?xml version="1.0" encoding="utf-8"?>
<!-- Generator: Adobe Illustrator 28.1.0, SVG Export Plug-In . SVG Version: 6.00 Build 0)  -->
<svg version="1.1" id="Layer_1" xmlns="http://www.w3.org/2000/svg" xmlns:xlink="http://www.w3.org/1999/xlink" x="0px" y="0px"
	 viewBox="0 0 72 72" style="enable-background:new 0 0 72 72;" xml:space="preserve">
<g>
	<path d="M29.5,57c2.76,0,5-2.24,5-5V20c0-2.76-2.24-5-5-5H20c-2.76,0-5,2.24-5,5v32c0,2.76,2.24,5,5,5H29.5z M21,21h7.5v30H21V21z"
		/>
	<path d="M52,15h-9.5c-2.76,0-5,2.24-5,5v32c0,2.76,2.24,5,5,5H52c2.76,0,5-2.24,5-5V20C57,17.24,54.76,15,52,15z M51,51h-7.5V21H51
		V51z"/>
</g>
</svg>
