<?xml version="1.0" encoding="utf-8"?>
<!-- Generator: Adobe Illustrator 28.1.0, SVG Export Plug-In . SVG Version: 6.00 Build 0)  -->
<svg version="1.1" id="Layer_1" xmlns="http://www.w3.org/2000/svg" xmlns:xlink="http://www.w3.org/1999/xlink" x="0px" y="0px"
	 viewBox="0 0 72 72" style="enable-background:new 0 0 72 72;" xml:space="preserve">
<path d="M40.5,24.5h-9c-1.1,0-2-0.9-2-2v-9c0-1.1,0.9-2,2-2h9c1.1,0,2,0.9,2,2v9C42.5,23.6,41.6,24.5,40.5,24.5z M33.5,20.5h5v-5h-5
	V20.5z"/>
<g>
	<path d="M59,57H13c-3.86,0-7-3.14-7-7V22c0-3.86,3.14-7,7-7h18.5v6H13c-0.55,0-1,0.45-1,1v28c0,0.55,0.45,1,1,1h46
		c0.55,0,1-0.45,1-1V22c0-0.55-0.45-1-1-1H40.5v-6H59c3.86,0,7,3.14,7,7v28C66,53.86,62.86,57,59,57z"/>
</g>
<path d="M31.5,47H18c-1.1,0-2-0.9-2-2V27c0-1.1,0.9-2,2-2h13.5c1.1,0,2,0.9,2,2v18C33.5,46.1,32.6,47,31.5,47z M20,43h9.5V29H20V43z
	"/>
<path d="M54,38H40.5c-1.1,0-2-0.9-2-2s0.9-2,2-2H54c1.1,0,2,0.9,2,2S55.1,38,54,38z"/>
<path d="M54,47H40.5c-1.1,0-2-0.9-2-2s0.9-2,2-2H54c1.1,0,2,0.9,2,2S55.1,47,54,47z"/>
</svg>
