<?xml version="1.0" encoding="utf-8"?>
<!-- Generator: Adobe Illustrator 28.1.0, SVG Export Plug-In . SVG Version: 6.00 Build 0)  -->
<svg version="1.1" id="Layer_1" xmlns="http://www.w3.org/2000/svg" xmlns:xlink="http://www.w3.org/1999/xlink" x="0px" y="0px"
	 viewBox="0 0 72 72" style="enable-background:new 0 0 72 72;" xml:space="preserve">
<path d="M66,56.5c0,0.28-0.22,0.5-0.5,0.5H54c-0.8,0-1.56-0.32-2.12-0.88L16.76,21H6.5C6.22,21,6,20.78,6,20.5v-5
	C6,15.22,6.22,15,6.5,15H18c0.8,0,1.56,0.32,2.12,0.88L55.24,51H65.5c0.28,0,0.5,0.22,0.5,0.5V56.5z"/>
<path d="M14.29,43.79h8.5c0.28,0,0.5,0.22,0.5,0.5v3c0,0.28-0.22,0.5-0.5,0.5h-6.5v6.5c0,0.28-0.22,0.5-0.5,0.5h-3
	c-0.28,0-0.5-0.22-0.5-0.5v-8.5C12.29,44.69,13.19,43.79,14.29,43.79z"/>
<path d="M15.71,44.38l13.15,13.15c0.2,0.2,0.2,0.51,0,0.71l-2.12,2.12c-0.2,0.2-0.51,0.2-0.71,0L12.88,47.21L15.71,44.38z"/>
<circle cx="43.32" cy="18.71" r="5.21"/>
<path d="M48.98,37.66c-3.48,7.62-7.02,7.77-11.15,0c-3.22-6.07-2.66-11.15,5.57-11.15S51.83,31.41,48.98,37.66z"/>
</svg>
