<?xml version="1.0" encoding="utf-8"?>
<!-- Generator: Adobe Illustrator 28.1.0, SVG Export Plug-In . SVG Version: 6.00 Build 0)  -->
<svg version="1.1" id="Layer_1" xmlns="http://www.w3.org/2000/svg" xmlns:xlink="http://www.w3.org/1999/xlink" x="0px" y="0px"
	 viewBox="0 0 72 72" style="enable-background:new 0 0 72 72;" xml:space="preserve">
<g>
	<path d="M45.65,35.2c2.82-2.61,4.6-6.32,4.6-10.45c0-7.86-6.39-14.25-14.25-14.25s-14.25,6.39-14.25,14.25
		c0,4.13,1.78,7.85,4.6,10.45c-7.47,3.6-12.64,11.25-12.64,20.09C13.71,65.48,32.28,66,36,66c3.72,0,22.29-0.52,22.29-10.71
		C58.29,46.46,53.12,38.81,45.65,35.2z M27.75,24.75c0-4.55,3.7-8.25,8.25-8.25s8.25,3.7,8.25,8.25S40.55,33,36,33
		S27.75,29.3,27.75,24.75z M36,60c-9.32-0.01-16.29-2.5-16.29-4.71C19.71,46.31,27.02,39,36,39s16.29,7.31,16.29,16.29
		C52.29,57.51,45.32,59.99,36,60z"/>
	<path d="M42.58,44.17c-0.78-0.78-2.05-0.78-2.83,0L36,47.94l-3.75-3.76c-0.78-0.78-2.05-0.78-2.83,0c-0.78,0.78-0.78,2.05,0,2.83
		l3.76,3.76l-3.76,3.76c-0.78,0.78-0.78,2.05,0,2.83c0.39,0.39,0.9,0.58,1.41,0.58c0.51,0,1.02-0.2,1.42-0.59L36,53.59l3.75,3.76
		c0.39,0.39,0.9,0.59,1.42,0.59c0.51,0,1.02-0.2,1.41-0.58c0.78-0.78,0.78-2.05,0-2.83l-3.76-3.76L42.58,47
		C43.37,46.22,43.37,44.96,42.58,44.17z"/>
</g>
</svg>
