<?xml version="1.0" encoding="utf-8"?>
<!-- Generator: Adobe Illustrator 28.1.0, SVG Export Plug-In . SVG Version: 6.00 Build 0)  -->
<svg version="1.1" id="Layer_1" xmlns="http://www.w3.org/2000/svg" xmlns:xlink="http://www.w3.org/1999/xlink" x="0px" y="0px"
	 viewBox="0 0 72 72" style="enable-background:new 0 0 72 72;" xml:space="preserve">
<g>
	<path d="M58.5,50h-45c-1.66,0-3-1.34-3-3V20c0-3.86,3.14-7,7-7h37c3.86,0,7,3.14,7,7v27C61.5,48.66,60.16,50,58.5,50z M16.5,44h39
		V20c0-0.55-0.45-1-1-1h-37c-0.55,0-1,0.45-1,1V44z"/>
	<path d="M57,59H15c-4.96,0-9-4.04-9-9v-3c0-1.66,1.34-3,3-3h54c1.66,0,3,1.34,3,3v3C66,54.96,61.96,59,57,59z M12,50
		c0,1.65,1.35,3,3,3h42c1.65,0,3-1.35,3-3H12z"/>
</g>
</svg>
