<?xml version="1.0" encoding="utf-8"?>
<!-- Generator: Adobe Illustrator 28.1.0, SVG Export Plug-In . SVG Version: 6.00 Build 0)  -->
<svg version="1.1" id="Layer_1" xmlns="http://www.w3.org/2000/svg" xmlns:xlink="http://www.w3.org/1999/xlink" x="0px" y="0px"
	 viewBox="0 0 72 72" style="enable-background:new 0 0 72 72;" xml:space="preserve">
<g>
	<path d="M61.02,29.78c-0.01,0-0.02,0-0.03,0L53.73,17.2c0.52-0.89,0.83-1.93,0.83-3.04c0-3.34-2.71-6.05-6.05-6.05
		c-2.24,0-4.2,1.23-5.25,3.05H28.73c-1.04-1.82-3-3.05-5.25-3.05c-3.33,0-6.05,2.71-6.05,6.05c0,1.11,0.31,2.15,0.83,3.04
		l-7.26,12.58c-0.01,0-0.02,0-0.03,0c-3.33,0-6.05,2.71-6.05,6.05s2.71,6.05,6.05,6.05c0.01,0,0.02,0,0.03,0l7.26,12.58
		c-0.52,0.89-0.83,1.93-0.83,3.04c0,3.33,2.71,6.05,6.05,6.05c2.24,0,4.2-1.23,5.25-3.05h14.53c1.04,1.82,3,3.05,5.25,3.05
		c3.33,0,6.05-2.71,6.05-6.05c0-1.11-0.31-2.15-0.83-3.04l7.26-12.58c0.01,0,0.02,0,0.03,0c3.33,0,6.05-2.71,6.05-6.05
		S64.36,29.78,61.02,29.78z M48.51,51.45c-2.24,0-4.2,1.23-5.25,3.05H28.73c-1.04-1.82-3-3.05-5.25-3.05c-0.01,0-0.02,0-0.03,0
		L16.2,38.87c0.52-0.89,0.83-1.93,0.83-3.04s-0.31-2.15-0.83-3.04l7.26-12.58c0.01,0,0.02,0,0.03,0c2.24,0,4.2-1.23,5.25-3.05h14.53
		c1.04,1.82,3,3.05,5.25,3.05c0.01,0,0.02,0,0.03,0l7.26,12.58c-0.52,0.89-0.83,1.93-0.83,3.04c0,1.11,0.31,2.15,0.83,3.04
		l-7.26,12.58C48.53,51.45,48.52,51.45,48.51,51.45z M48.51,12.11c1.13,0,2.05,0.92,2.05,2.05c0,1.13-0.92,2.05-2.05,2.05
		c-1.13,0-2.05-0.92-2.05-2.05C46.46,13.03,47.38,12.11,48.51,12.11z M23.49,12.11c1.13,0,2.05,0.92,2.05,2.05
		c0,1.13-0.92,2.05-2.05,2.05c-1.13,0-2.05-0.92-2.05-2.05C21.44,13.03,22.36,12.11,23.49,12.11z M8.93,35.83
		c0-1.13,0.92-2.05,2.05-2.05c1.13,0,2.05,0.92,2.05,2.05s-0.92,2.05-2.05,2.05C9.85,37.88,8.93,36.96,8.93,35.83z M23.49,59.54
		c-1.13,0-2.05-0.92-2.05-2.05s0.92-2.05,2.05-2.05c1.13,0,2.05,0.92,2.05,2.05S24.62,59.54,23.49,59.54z M48.51,59.54
		c-1.13,0-2.05-0.92-2.05-2.05s0.92-2.05,2.05-2.05c1.13,0,2.05,0.92,2.05,2.05S49.64,59.54,48.51,59.54z M61.02,37.88
		c-1.13,0-2.05-0.92-2.05-2.05s0.92-2.05,2.05-2.05c1.13,0,2.05,0.92,2.05,2.05S62.15,37.88,61.02,37.88z"/>
	<path d="M36,26.97c-4.88,0-8.85,3.97-8.85,8.85s3.97,8.85,8.85,8.85s8.85-3.97,8.85-8.85S40.88,26.97,36,26.97z M36,40.68
		c-2.68,0-4.85-2.18-4.85-4.85s2.18-4.85,4.85-4.85s4.85,2.18,4.85,4.85S38.68,40.68,36,40.68z"/>
</g>
</svg>
