<?xml version="1.0" encoding="utf-8"?>
<!-- Generator: Adobe Illustrator 28.1.0, SVG Export Plug-In . SVG Version: 6.00 Build 0)  -->
<svg version="1.1" id="Layer_1" xmlns="http://www.w3.org/2000/svg" xmlns:xlink="http://www.w3.org/1999/xlink" x="0px" y="0px"
	 viewBox="0 0 72 72" style="enable-background:new 0 0 72 72;" xml:space="preserve">
<g>
	<path d="M57,6H19.5v10h-8v22h4V20h4.34L24,40.8v8.22L18.34,66h39.82L52.5,49.01V40.8l0.42-2.11L66.53,16H57V6z M30,47.5v-5h5.99
		c0,0,0,0,0.01,0c0,0,0,0,0,0h4.49c0,0,0,0,0,0c0,0,0,0,0.01,0h5.99v5H30z M39.06,51.5l2.83,8.5h-7.28l2.83-8.5H39.06z M37.64,38.5
		L33.94,20h8.62l-3.7,18.5H37.64z M29.86,20l3.7,18.5h-3.9L25.96,20H29.86z M46.84,38.5h-3.9l3.7-18.5h3.9L46.84,38.5z M51,12v4h-6
		c-0.01,0-0.01,0-0.02,0H31.52c0,0-0.01,0-0.01,0H25.5v-4H51z M29.5,51.5h3.73L30.39,60h-3.73L29.5,51.5z M46.11,60l-2.83-8.5H47
		l2.83,8.5H46.11z M55.26,27.02l1.4-7.02h2.81L55.26,27.02z"/>
</g>
</svg>
