<?xml version="1.0" encoding="utf-8"?>
<!-- Generator: Adobe Illustrator 28.1.0, SVG Export Plug-In . SVG Version: 6.00 Build 0)  -->
<svg version="1.1" id="Layer_1" xmlns="http://www.w3.org/2000/svg" xmlns:xlink="http://www.w3.org/1999/xlink" x="0px" y="0px"
	 viewBox="0 0 72 72" style="enable-background:new 0 0 72 72;" xml:space="preserve">
<g>
	<path d="M25,60.59c-1.07,0-2.07-0.42-2.83-1.17l-9.59-9.59c-0.76-0.76-1.17-1.76-1.17-2.83s0.42-2.07,1.17-2.83l26.09-26.09
		c1.51-1.51,4.15-1.51,5.66,0l9.59,9.59c0.76,0.76,1.17,1.76,1.17,2.83s-0.42,2.07-1.17,2.83L27.83,59.41
		C27.07,60.17,26.07,60.59,25,60.59z M18.24,47L25,53.76L48.26,30.5l-6.76-6.76L18.24,47z"/>
	<path d="M8.15,65.97l-2.12-2.12c-0.2-0.2-0.2-0.51,0-0.71L19.5,49.67l2.83,2.83L8.85,65.98C8.66,66.17,8.34,66.17,8.15,65.97z"/>
	<rect x="41.72" y="16.5" transform="matrix(0.7071 -0.7071 0.7071 0.7071 1.587 42.8316)" width="21.56" height="6"/>
	<path d="M63.15,23.39L48.61,8.85c-0.2-0.2-0.2-0.51,0-0.71l3.54-3.54c0.2-0.2,0.51-0.2,0.71,0l14.54,14.54c0.2,0.2,0.2,0.51,0,0.71
		l-3.54,3.54C63.66,23.58,63.34,23.58,63.15,23.39z"/>
	<path d="M30.5,55.33l-7.97-7.98c-0.2-0.2-0.2-0.51,0-0.71l2.12-2.12c0.2-0.2,0.51-0.2,0.71,0l7.97,7.98L30.5,55.33z"/>
	<path d="M36,49.83l-7.97-7.98c-0.2-0.2-0.2-0.51,0-0.71l2.12-2.12c0.2-0.2,0.51-0.2,0.71,0L38.83,47L36,49.83z"/>
	<path d="M41.5,44.33l-7.97-7.98c-0.2-0.2-0.2-0.51,0-0.71l2.12-2.12c0.2-0.2,0.51-0.2,0.71,0l7.97,7.98L41.5,44.33z"/>
	<path d="M47,38.83l-7.97-7.98c-0.2-0.2-0.2-0.51,0-0.71l2.12-2.12c0.2-0.2,0.51-0.2,0.71,0L49.83,36L47,38.83z"/>
</g>
</svg>
