<?xml version="1.0" encoding="utf-8"?>
<!-- Generator: Adobe Illustrator 28.1.0, SVG Export Plug-In . SVG Version: 6.00 Build 0)  -->
<svg version="1.1" id="Layer_1" xmlns="http://www.w3.org/2000/svg" xmlns:xlink="http://www.w3.org/1999/xlink" x="0px" y="0px"
	 viewBox="0 0 72 72" style="enable-background:new 0 0 72 72;" xml:space="preserve">
<path d="M16.45,55.92c-0.2,0-0.39-0.02-0.59-0.06c-0.19-0.04-0.38-0.09-0.56-0.17c-0.18-0.07-0.35-0.17-0.52-0.28
	c-0.16-0.1-0.31-0.23-0.45-0.37c-0.14-0.14-0.27-0.29-0.37-0.45c-0.11-0.17-0.21-0.34-0.28-0.52c-0.08-0.18-0.13-0.37-0.17-0.56
	c-0.04-0.2-0.06-0.39-0.06-0.59c0-0.79,0.32-1.56,0.88-2.12c0.14-0.14,0.29-0.27,0.45-0.37c0.17-0.11,0.34-0.21,0.52-0.28
	s0.37-0.13,0.56-0.17c0.39-0.08,0.79-0.08,1.18,0c0.19,0.04,0.38,0.1,0.56,0.17c0.18,0.08,0.35,0.17,0.51,0.28
	c0.17,0.1,0.32,0.23,0.46,0.37c0.56,0.56,0.88,1.33,0.88,2.12c0,0.2-0.02,0.39-0.06,0.59c-0.04,0.19-0.1,0.38-0.17,0.56
	c-0.08,0.18-0.17,0.35-0.28,0.52c-0.11,0.16-0.23,0.31-0.37,0.45C18.01,55.6,17.24,55.92,16.45,55.92z"/>
<path d="M20.13,66c-4.36,0-7.94-1.26-10.41-3.73c-3.73-3.73-4.7-10-2.73-17.67c1.6-6.25,4.92-12.45,8.65-16.18
	c13-13,31.88-6.91,32.68-6.65c0.9,0.3,1.6,1,1.9,1.9c0.27,0.8,6.36,19.67-6.65,32.68c-3.73,3.73-9.93,7.05-16.18,8.65
	C24.8,65.67,22.36,66,20.13,66z M37.05,26.17c-5.33,0-11.96,1.3-17.16,6.5c-5.74,5.74-10.84,20.44-5.92,25.36
	c4.92,4.92,19.62-0.18,25.36-5.92c8.49-8.49,6.58-20.79,5.59-25.04C43.28,26.69,40.42,26.17,37.05,26.17z"/>
<path d="M54.28,28.61c-4.37,0-7.65-1.07-7.86-1.14c-0.9-0.3-1.6-1-1.9-1.9c-0.11-0.32-2.56-7.87,0.09-15.48
	C45.48,7.6,47.75,6,50.39,6c0.01,0,0.03,0,0.04,0c2.68,0.02,4.97,1.67,5.81,4.21l1.36,4.08c0.02,0.05,0.05,0.08,0.1,0.1l4.08,1.36
	c2.54,0.85,4.19,3.13,4.21,5.81c0.02,2.66-1.59,4.95-4.1,5.82l0,0C59.25,28.31,56.61,28.61,54.28,28.61z M60.92,24.55L60.92,24.55
	L60.92,24.55z M49.84,22.16c2.13,0.43,6.18,0.92,10.09-0.44c0.04-0.01,0.05-0.02,0.06-0.03c0.01-0.02,0.02-0.1,0-0.18
	c-0.01-0.03-0.02-0.05-0.09-0.07l-4.08-1.36c-1.83-0.61-3.28-2.06-3.89-3.89l-1.36-4.08c-0.03-0.08-0.04-0.08-0.07-0.09
	c-0.08-0.03-0.16-0.01-0.19,0C48.92,15.97,49.41,20.03,49.84,22.16z"/>
<path d="M41.45,56.24c-0.84,0-1.62-0.54-1.9-1.38c-0.34-1.05,0.23-2.18,1.28-2.52l9.02-2.95c0.59-0.19,1.03-0.64,1.21-1.23
	c0.18-0.59,0.07-1.21-0.3-1.69l-3.9-5.08c-0.67-0.88-0.51-2.13,0.37-2.8c0.88-0.67,2.13-0.51,2.8,0.37l3.9,5.08
	c1.16,1.51,1.51,3.49,0.95,5.31s-1.98,3.25-3.79,3.85l-9.02,2.95C41.86,56.2,41.65,56.24,41.45,56.24z"/>
<path d="M11.7,42.07c-0.05,0-0.09,0-0.14,0c-1.1-0.08-1.93-1.03-1.85-2.14c0.12-1.76,1.36-17.36,6.65-22.64
	c4.38-4.38,8.27-3.69,10.2-2.89c3.87,1.6,6.18,6.01,6.18,9.34c0,1.1-0.9,2-2,2s-2-0.9-2-2c0-1.94-1.53-4.74-3.71-5.64
	c-1.8-0.74-3.76-0.06-5.84,2.02c-3.59,3.59-5.18,15.72-5.48,20.09C13.62,41.27,12.74,42.07,11.7,42.07z"/>
<path d="M28.53,63.56c-0.06,0-0.11,0-0.17-0.01c-1.1-0.09-1.92-1.06-1.83-2.16c0.36-4.34-1.19-8.59-4.27-11.66
	c-2.78-2.77-6.78-3.93-11.89-3.44c-1.1,0.1-2.08-0.7-2.18-1.8c-0.1-1.1,0.7-2.08,1.8-2.18c6.35-0.61,11.44,0.94,15.1,4.6
	c3.91,3.91,5.89,9.31,5.43,14.83C30.44,62.77,29.56,63.56,28.53,63.56z"/>
</svg>
