<?xml version="1.0" encoding="utf-8"?>
<!-- Generator: Adobe Illustrator 28.1.0, SVG Export Plug-In . SVG Version: 6.00 Build 0)  -->
<svg version="1.1" id="Layer_1" xmlns="http://www.w3.org/2000/svg" xmlns:xlink="http://www.w3.org/1999/xlink" x="0px" y="0px"
	 viewBox="0 0 72 72" style="enable-background:new 0 0 72 72;" xml:space="preserve">
<g>
	<path d="M7.88,30h6v21h-1.5c-1.66,0-3,1.34-3,3s1.34,3,3,3h45c1.66,0,3-1.34,3-3s-1.34-3-3-3h-1.5V30h6c1.32,0,2.49-0.87,2.87-2.13
		c0.38-1.27-0.11-2.63-1.21-3.37l-27-18c-1.01-0.67-2.32-0.67-3.33,0l-27,18c-1.1,0.73-1.59,2.1-1.21,3.37
		C5.39,29.13,6.56,30,7.88,30z M19.88,30h3v21h-3V30z M40.88,30v21h-12V30H40.88z M49.88,51h-3V30h3V51z M34.88,12.61L51.97,24
		H17.79L34.88,12.61z"/>
	<path d="M61.88,60h-54c-1.66,0-3,1.34-3,3s1.34,3,3,3h54c1.66,0,3-1.34,3-3S63.54,60,61.88,60z"/>
</g>
</svg>
