<?xml version="1.0" encoding="utf-8"?>
<!-- Generator: Adobe Illustrator 28.1.0, SVG Export Plug-In . SVG Version: 6.00 Build 0)  -->
<svg version="1.1" id="Layer_1" xmlns="http://www.w3.org/2000/svg" xmlns:xlink="http://www.w3.org/1999/xlink" x="0px" y="0px"
	 viewBox="0 0 72 72" style="enable-background:new 0 0 72 72;" xml:space="preserve">
<g>
	<path d="M9.84,33.76l22.28,14.86c1.18,0.79,2.54,1.18,3.89,1.18c1.35,0,2.7-0.39,3.88-1.18l22.27-14.86
		c1.4-0.93,2.23-2.49,2.23-4.16s-0.83-3.24-2.23-4.16L39.89,10.57c-2.37-1.58-5.42-1.58-7.77,0L9.84,25.43
		c-1.4,0.93-2.23,2.48-2.23,4.16C7.61,31.27,8.44,32.83,9.84,33.76z M35.46,15.56c0.33-0.22,0.76-0.22,1.1,0.01l21.02,14.03
		L36.55,43.63c-0.33,0.22-0.77,0.22-1.1,0L14.41,29.59L35.46,15.56z"/>
	<path d="M65.5,40.74c-0.92-1.38-2.78-1.75-4.16-0.83L36.56,56.42c-0.34,0.23-0.77,0.23-1.11,0L10.66,39.9
		c-1.38-0.92-3.24-0.55-4.16,0.83s-0.55,3.24,0.83,4.16l24.77,16.52c1.18,0.79,2.53,1.19,3.89,1.19c1.35,0,2.71-0.39,3.89-1.18
		L64.66,44.9C66.04,43.98,66.42,42.11,65.5,40.74z"/>
</g>
</svg>
