<?xml version="1.0" encoding="utf-8"?>
<!-- Generator: Adobe Illustrator 28.1.0, SVG Export Plug-In . SVG Version: 6.00 Build 0)  -->
<svg version="1.1" id="Layer_1" xmlns="http://www.w3.org/2000/svg" xmlns:xlink="http://www.w3.org/1999/xlink" x="0px" y="0px"
	 viewBox="0 0 72 72" style="enable-background:new 0 0 72 72;" xml:space="preserve">
<g>
	<polygon points="36.31,4.5 16.95,23.86 24.07,30.97 36.31,18.74 48.55,30.98 55.67,23.86 	"/>
	<rect x="6.89" y="30.97" transform="matrix(0.7071 -0.7071 0.7071 0.7071 -21.9647 18.9745)" width="10.07" height="10.07"/>
	<polygon points="16.94,48.14 16.95,48.15 36.31,67.5 55.67,48.14 55.67,48.13 48.55,41.02 36.31,53.26 24.07,41.03 	"/>
	<rect x="55.65" y="30.97" transform="matrix(0.7071 -0.7071 0.7071 0.7071 -7.6839 53.4551)" width="10.07" height="10.07"/>
	<polygon points="43.53,36 43.53,36 43.53,36 36.31,28.77 30.97,34.11 30.35,34.72 29.09,35.99 29.08,36 29.09,36.01 36.31,43.23 	
		"/>
</g>
</svg>
