<?xml version="1.0" encoding="utf-8"?>
<!-- Generator: Adobe Illustrator 28.1.0, SVG Export Plug-In . SVG Version: 6.00 Build 0)  -->
<svg version="1.1" id="Layer_1" xmlns="http://www.w3.org/2000/svg" xmlns:xlink="http://www.w3.org/1999/xlink" x="0px" y="0px"
	 viewBox="0 0 72 72" style="enable-background:new 0 0 72 72;" xml:space="preserve">
<g>
	<path d="M25.77,46.64h-5c-0.28,0-0.5-0.22-0.5-0.5V23.27c0-1.66,1.34-3,3-3h22.86c0.28,0,0.5,0.22,0.5,0.5v5
		c0,0.28-0.22,0.5-0.5,0.5H26.27v19.86C26.27,46.41,26.05,46.64,25.77,46.64z"/>
	<path d="M48.37,52.62L22.76,27L27,22.76l25.62,25.62c0.2,0.2,0.2,0.51,0,0.71l-3.54,3.54C48.89,52.81,48.57,52.81,48.37,52.62z"/>
</g>
</svg>
