<?xml version="1.0" encoding="utf-8"?>
<!-- Generator: Adobe Illustrator 28.1.0, SVG Export Plug-In . SVG Version: 6.00 Build 0)  -->
<svg version="1.1" id="Layer_1" xmlns="http://www.w3.org/2000/svg" xmlns:xlink="http://www.w3.org/1999/xlink" x="0px" y="0px"
	 viewBox="0 0 72 72" style="enable-background:new 0 0 72 72;" xml:space="preserve">
<g>
	<path d="M65.35,29.28L42.72,6.65c-0.2-0.2-0.51-0.2-0.71,0L6.65,42.01c-0.2,0.2-0.2,0.51,0,0.71l22.63,22.63
		c0.2,0.2,0.51,0.2,0.71,0l35.36-35.36C65.54,29.79,65.54,29.48,65.35,29.28z M29.64,57.21L14.79,42.36l27.58-27.58l14.85,14.85
		L29.64,57.21z"/>
	<path d="M64.41,42.73c-0.78-0.78-2.05-0.78-2.83,0l-6.41,6.41c-0.2,0.2-0.2,0.51,0,0.71l2.12,2.12c0.2,0.2,0.51,0.2,0.71,0l3-3V54
		c0,3.87-3.13,7-7,7h-1.5c-0.28,0-0.5,0.22-0.5,0.5v3c0,0.28,0.22,0.5,0.5,0.5H54c6.08,0,11-4.92,11-11v-5.02l3,3
		c0.2,0.2,0.51,0.2,0.71,0l2.12-2.12c0.2-0.2,0.2-0.51,0-0.71L64.41,42.73z"/>
	<path d="M10.41,28.41L16.83,22c0.2-0.2,0.2-0.51,0-0.71l-2.12-2.12c-0.2-0.2-0.51-0.2-0.71,0l-3,3V18c0-3.87,3.13-7,7-7h1.5
		c0.28,0,0.5-0.22,0.5-0.5v-3C20,7.22,19.78,7,19.5,7H18C11.92,7,7,11.92,7,18v4.17l-3-3c-0.2-0.2-0.51-0.2-0.71,0l-2.12,2.12
		c-0.2,0.2-0.2,0.51,0,0.71l6.41,6.41C8.37,29.2,9.63,29.2,10.41,28.41z"/>
</g>
</svg>
