<?xml version="1.0" encoding="utf-8"?>
<!-- Generator: Adobe Illustrator 28.1.0, SVG Export Plug-In . SVG Version: 6.00 Build 0)  -->
<svg version="1.1" id="Layer_1" xmlns="http://www.w3.org/2000/svg" xmlns:xlink="http://www.w3.org/1999/xlink" x="0px" y="0px"
	 viewBox="0 0 72 72" style="enable-background:new 0 0 72 72;" xml:space="preserve">
<g>
	<path d="M65.5,24h-14c-0.28,0-0.5,0.22-0.5,0.5V33h-8.5c-0.28,0-0.5,0.22-0.5,0.5V42h-8.5c-0.28,0-0.5,0.22-0.5,0.5V51h-8.5
		c-0.28,0-0.5,0.22-0.5,0.5v14c0,0.28,0.22,0.5,0.5,0.5h5c0.28,0,0.5-0.22,0.5-0.5V57h8.5c0.28,0,0.5-0.22,0.5-0.5V48h8.5
		c0.28,0,0.5-0.22,0.5-0.5V39h8.5c0.28,0,0.5-0.22,0.5-0.5V30h8.5c0.28,0,0.5-0.22,0.5-0.5v-5C66,24.22,65.78,24,65.5,24z"/>
	<path d="M16,19.5h-5c-0.28,0-0.5,0.22-0.5,0.5v16c0,1.66,1.34,3,3,3h16c0.28,0,0.5-0.22,0.5-0.5v-5c0-0.28-0.22-0.5-0.5-0.5h-8.76
		l19.15-19.15c0.2-0.2,0.2-0.51,0-0.71l-3.54-3.54c-0.2-0.2-0.51-0.2-0.71,0L16.5,28.76V20C16.5,19.72,16.28,19.5,16,19.5z"/>
</g>
</svg>
