<?xml version="1.0" encoding="utf-8"?>
<!-- Generator: Adobe Illustrator 28.1.0, SVG Export Plug-In . SVG Version: 6.00 Build 0)  -->
<svg version="1.1" id="Layer_1" xmlns="http://www.w3.org/2000/svg" xmlns:xlink="http://www.w3.org/1999/xlink" x="0px" y="0px"
	 viewBox="0 0 72 72" style="enable-background:new 0 0 72 72;" xml:space="preserve">
<path d="M54,33H39V18c0-1.66-1.34-3-3-3c-1.66,0-3,1.34-3,3v15H18c-1.66,0-3,1.34-3,3c0,1.66,1.34,3,3,3h15v15c0,1.66,1.34,3,3,3
	c1.66,0,3-1.34,3-3V39h15c1.66,0,3-1.34,3-3C57,34.34,55.66,33,54,33z"/>
</svg>
