<?xml version="1.0" encoding="utf-8"?>
<!-- Generator: Adobe Illustrator 28.1.0, SVG Export Plug-In . SVG Version: 6.00 Build 0)  -->
<svg version="1.1" id="Layer_1" xmlns="http://www.w3.org/2000/svg" xmlns:xlink="http://www.w3.org/1999/xlink" x="0px" y="0px"
	 viewBox="0 0 72 72" style="enable-background:new 0 0 72 72;" xml:space="preserve">
<path d="M65.87,52.3l-7.05-36.32c-0.74-3.78-4.42-6.27-8.21-5.53l-5.4,1.05c-1.26,0.24-2.37,0.82-3.27,1.61
	c-1.28-1.59-3.25-2.61-5.44-2.61H31c-1.49,0-2.86,0.47-4,1.26c-1.14-0.79-2.51-1.26-4-1.26h-5.5c-3.86,0-7,3.14-7,7v37
	c0,3.86,3.14,7,7,7H23c1.49,0,2.86-0.47,4-1.26c1.14,0.79,2.51,1.26,4,1.26h5.5c3.86,0,7-3.14,7-7V39.41l3.22,16.61
	c0.65,3.34,3.59,5.66,6.87,5.66c0.44,0,0.89-0.04,1.34-0.13l5.4-1.05C64.12,59.77,66.6,56.09,65.87,52.3z M46.9,25.42L54.26,24
	l4.38,22.58l-7.36,1.43L46.9,25.42z M46.35,17.38C46.35,17.38,46.35,17.38,46.35,17.38l5.4-1.05c0.06-0.01,0.13-0.02,0.19-0.02
	c0.47,0,0.89,0.33,0.98,0.81l0.57,2.95l-7.36,1.43l-0.57-2.94C45.46,18.02,45.81,17.49,46.35,17.38z M16.5,24.5H24v23h-7.5V24.5z
	 M30,24.5h7.5v23H30V24.5z M31,16.5h5.5c0.55,0,1,0.45,1,1v3H30v-3C30,16.95,30.45,16.5,31,16.5z M17.5,16.5H23c0.55,0,1,0.45,1,1v3
	h-7.5v-3C16.5,16.95,16.95,16.5,17.5,16.5z M23,55.5h-5.5c-0.55,0-1-0.45-1-1v-3H24v3C24,55.05,23.55,55.5,23,55.5z M36.5,55.5H31
	c-0.55,0-1-0.45-1-1v-3h7.5v3C37.5,55.05,37.05,55.5,36.5,55.5z M59.19,54.61l-5.4,1.05c-0.54,0.11-1.07-0.25-1.17-0.79l-0.57-2.95
	l7.36-1.43l0.57,2.94C60.08,53.98,59.73,54.51,59.19,54.61z"/>
</svg>
