<?xml version="1.0" encoding="utf-8"?>
<!-- Generator: Adobe Illustrator 28.1.0, SVG Export Plug-In . SVG Version: 6.00 Build 0)  -->
<svg version="1.1" id="Layer_1" xmlns="http://www.w3.org/2000/svg" xmlns:xlink="http://www.w3.org/1999/xlink" x="0px" y="0px"
	 viewBox="0 0 72 72" style="enable-background:new 0 0 72 72;" xml:space="preserve">
<g>
	<path d="M63,24h-6V9c0-1.66-1.34-3-3-3H18c-1.66,0-3,1.34-3,3v15H9c-1.66,0-3,1.34-3,3v27c0,1.66,1.34,3,3,3h6v6c0,1.66,1.34,3,3,3
		h36c1.66,0,3-1.34,3-3v-6h6c1.66,0,3-1.34,3-3V27C66,25.34,64.66,24,63,24z M21,12h30v12H21V12z M51,60H21v-6v-6h30v6V60z M60,51
		h-3v-6c0-1.66-1.34-3-3-3H18c-1.66,0-3,1.34-3,3v6h-3V30h6h36h6V51z"/>
	<path d="M51.88,33.88c-0.14,0.14-0.26,0.29-0.37,0.46c-0.11,0.16-0.2,0.33-0.28,0.51c-0.07,0.18-0.13,0.37-0.17,0.56
		C51.02,35.61,51,35.81,51,36c0,0.79,0.32,1.56,0.88,2.12c0.14,0.14,0.29,0.27,0.46,0.37c0.16,0.11,0.33,0.21,0.51,0.28
		c0.18,0.08,0.37,0.13,0.56,0.17C53.61,38.98,53.81,39,54,39c0.79,0,1.56-0.32,2.12-0.88C56.68,37.56,57,36.79,57,36
		c0-0.19-0.02-0.39-0.06-0.59c-0.04-0.19-0.09-0.38-0.17-0.56c-0.07-0.18-0.17-0.35-0.28-0.51c-0.1-0.17-0.23-0.32-0.37-0.46
		C55,32.76,53,32.76,51.88,33.88z"/>
	<path d="M45,52H27c-1.1,0-2,0.9-2,2s0.9,2,2,2h18c1.1,0,2-0.9,2-2S46.1,52,45,52z"/>
</g>
</svg>
