<?xml version="1.0" encoding="utf-8"?>
<!-- Generator: Adobe Illustrator 28.1.0, SVG Export Plug-In . SVG Version: 6.00 Build 0)  -->
<svg version="1.1" id="Layer_1" xmlns="http://www.w3.org/2000/svg" xmlns:xlink="http://www.w3.org/1999/xlink" x="0px" y="0px"
	 viewBox="0 0 72 72" style="enable-background:new 0 0 72 72;" xml:space="preserve">
<path d="M28.29,39c-7.86,0-14.25-6.39-14.25-14.25S20.43,10.5,28.29,10.5s14.25,6.39,14.25,14.25S36.14,39,28.29,39z M28.29,16.5
	c-4.55,0-8.25,3.7-8.25,8.25S23.74,33,28.29,33s8.25-3.7,8.25-8.25S32.83,16.5,28.29,16.5z"/>
<path d="M28.29,66C24.56,66,6,65.48,6,55.29C6,43,16,33,28.29,33s22.29,10,22.29,22.29C50.57,65.48,32.01,66,28.29,66z M28.29,39
	C19.31,39,12,46.31,12,55.29c0,2.22,6.97,4.7,16.29,4.71c9.32-0.01,16.28-2.5,16.28-4.71C44.57,46.31,37.27,39,28.29,39z"/>
<path d="M43.71,39c-3.64,0-7.11-1.38-9.77-3.9c-1.2-1.14-1.26-3.04-0.12-4.24c1.14-1.21,3.04-1.26,4.24-0.12
	C39.6,32.2,41.61,33,43.71,33c4.55,0,8.25-3.7,8.25-8.25s-3.7-8.25-8.25-8.25c-2.1,0-4.11,0.8-5.65,2.26
	c-1.21,1.14-3.1,1.08-4.24-0.12c-1.14-1.2-1.08-3.1,0.12-4.24c2.66-2.51,6.13-3.9,9.77-3.9c7.86,0,14.25,6.39,14.25,14.25
	S51.57,39,43.71,39z"/>
<path d="M43.71,66c-0.16,0-3.89-0.01-8.17-0.66c-1.64-0.25-2.76-1.78-2.51-3.42c0.25-1.64,1.78-2.77,3.42-2.51
	c3.81,0.58,7.23,0.59,7.26,0.59C53.03,59.99,60,57.5,60,55.29C60,46.31,52.69,39,43.71,39c-2.25,0-4.44,0.46-6.51,1.36
	c-1.52,0.66-3.29-0.03-3.95-1.55s0.03-3.29,1.55-3.95c2.83-1.24,5.83-1.87,8.92-1.87C56,33,66,43,66,55.29
	c0,3.32-2.09,7.7-12.05,9.69C48.89,65.99,43.92,66,43.71,66z"/>
</svg>
