<?xml version="1.0" encoding="utf-8"?>
<!-- Generator: Adobe Illustrator 28.1.0, SVG Export Plug-In . SVG Version: 6.00 Build 0)  -->
<svg version="1.1" id="Layer_1" xmlns="http://www.w3.org/2000/svg" xmlns:xlink="http://www.w3.org/1999/xlink" x="0px" y="0px"
	 viewBox="0 0 72 72" style="enable-background:new 0 0 72 72;" xml:space="preserve">
<path d="M64.42,24.36c-0.98-0.52-2.16-0.46-3.08,0.15l-8.9,5.94c-0.47-3.99-3.56-7.18-7.49-7.81c0.52-1.19,0.81-2.5,0.81-3.88
	C45.75,13.37,41.38,9,36,9c-2.62,0-5,1.04-6.75,2.73C27.5,10.04,25.12,9,22.5,9c-5.38,0-9.75,4.37-9.75,9.75
	c0,1.38,0.29,2.69,0.81,3.88C9.28,23.32,6,27.03,6,31.5V48c0,4.96,4.04,9,9,9h28.5c4.14,0,7.62-2.81,8.67-6.62l9.17,6.11
	c0.5,0.33,1.08,0.5,1.66,0.5c0.49,0,0.97-0.12,1.42-0.35C65.39,56.12,66,55.11,66,54V27C66,25.89,65.39,24.88,64.42,24.36z M36,15
	c2.07,0,3.75,1.68,3.75,3.75S38.07,22.5,36,22.5c-2.07,0-3.75-1.68-3.75-3.75S33.93,15,36,15z M22.5,15c2.07,0,3.75,1.68,3.75,3.75
	s-1.68,3.75-3.75,3.75s-3.75-1.68-3.75-3.75S20.43,15,22.5,15z M46.5,48c0,1.65-1.35,3-3,3H15c-1.65,0-3-1.35-3-3V31.5
	c0-1.65,1.35-3,3-3h28.5c1.65,0,3,1.35,3,3V36v9V48z M60,48.39l-7.5-5v-5.79l7.5-5V48.39z"/>
</svg>
