<?xml version="1.0" encoding="utf-8"?>
<!-- Generator: Adobe Illustrator 28.1.0, SVG Export Plug-In . SVG Version: 6.00 Build 0)  -->
<svg version="1.1" id="Layer_1" xmlns="http://www.w3.org/2000/svg" xmlns:xlink="http://www.w3.org/1999/xlink" x="0px" y="0px"
	 viewBox="0 0 72 72" style="enable-background:new 0 0 72 72;" xml:space="preserve">
<g>
	<path d="M58.5,46.5c-1.66,0-3,1.34-3,3v1.76l-8.38-8.38c-1.17-1.17-3.07-1.17-4.24,0c-1.17,1.17-1.17,3.07,0,4.24l8.38,8.38H49.5
		c-1.66,0-3,1.34-3,3s1.34,3,3,3h9c0.2,0,0.39-0.02,0.59-0.06c0.09-0.02,0.17-0.05,0.26-0.08c0.1-0.03,0.21-0.05,0.3-0.09
		c0.1-0.04,0.19-0.1,0.29-0.15c0.08-0.04,0.16-0.08,0.23-0.12c0.33-0.22,0.61-0.5,0.83-0.83c0.05-0.07,0.08-0.15,0.12-0.22
		c0.05-0.1,0.11-0.19,0.15-0.29c0.04-0.1,0.06-0.2,0.09-0.3c0.03-0.09,0.06-0.17,0.08-0.26c0.04-0.19,0.06-0.39,0.06-0.59v-9
		C61.5,47.84,60.16,46.5,58.5,46.5z"/>
	<path d="M61.36,12.66c-0.03-0.1-0.05-0.21-0.09-0.3c-0.04-0.1-0.1-0.19-0.15-0.29c-0.04-0.07-0.07-0.15-0.12-0.22
		c-0.22-0.33-0.5-0.61-0.83-0.83c-0.07-0.05-0.15-0.08-0.23-0.12c-0.09-0.05-0.19-0.11-0.29-0.15c-0.1-0.04-0.2-0.07-0.31-0.1
		c-0.08-0.02-0.17-0.06-0.25-0.08c-0.19-0.04-0.39-0.06-0.59-0.06h-9c-1.66,0-3,1.34-3,3s1.34,3,3,3h1.76l-8.38,8.38
		c-1.17,1.17-1.17,3.07,0,4.24C43.46,29.71,44.23,30,45,30s1.54-0.29,2.12-0.88l8.38-8.38v1.76c0,1.66,1.34,3,3,3s3-1.34,3-3v-9
		c0-0.2-0.02-0.39-0.06-0.59C61.42,12.82,61.39,12.74,61.36,12.66z"/>
	<path d="M20.74,16.5h1.76c1.66,0,3-1.34,3-3s-1.34-3-3-3h-9c-0.2,0-0.39,0.02-0.59,0.06c-0.09,0.02-0.17,0.05-0.25,0.08
		c-0.1,0.03-0.21,0.05-0.31,0.1c-0.1,0.04-0.19,0.1-0.29,0.15c-0.08,0.04-0.16,0.08-0.23,0.12c-0.33,0.22-0.61,0.5-0.83,0.83
		c-0.05,0.07-0.08,0.15-0.12,0.22c-0.05,0.1-0.11,0.19-0.15,0.29c-0.04,0.1-0.06,0.2-0.09,0.3c-0.03,0.09-0.06,0.17-0.08,0.26
		c-0.04,0.19-0.06,0.39-0.06,0.59v9c0,1.66,1.34,3,3,3s3-1.34,3-3v-1.76l8.38,8.38C25.46,29.71,26.23,30,27,30s1.54-0.29,2.12-0.88
		c1.17-1.17,1.17-3.07,0-4.24L20.74,16.5z"/>
	<path d="M24.88,42.88l-8.38,8.38V49.5c0-1.66-1.34-3-3-3s-3,1.34-3,3v9c0,0.2,0.02,0.39,0.06,0.59c0.02,0.09,0.05,0.17,0.08,0.26
		c0.03,0.1,0.05,0.21,0.09,0.3c0.04,0.1,0.1,0.19,0.15,0.29c0.04,0.07,0.07,0.15,0.12,0.22c0.22,0.33,0.5,0.61,0.83,0.83
		c0.07,0.05,0.15,0.08,0.23,0.12c0.1,0.05,0.19,0.11,0.29,0.15c0.1,0.04,0.2,0.06,0.3,0.09c0.09,0.03,0.17,0.06,0.26,0.08
		c0.19,0.04,0.39,0.06,0.59,0.06h9c1.66,0,3-1.34,3-3s-1.34-3-3-3h-1.76l8.38-8.38c1.17-1.17,1.17-3.07,0-4.24
		C27.95,41.71,26.05,41.71,24.88,42.88z"/>
</g>
</svg>
