<?xml version="1.0" encoding="utf-8"?>
<!-- Generator: Adobe Illustrator 28.1.0, SVG Export Plug-In . SVG Version: 6.00 Build 0)  -->
<svg version="1.1" id="Layer_1" xmlns="http://www.w3.org/2000/svg" xmlns:xlink="http://www.w3.org/1999/xlink" x="0px" y="0px"
	 viewBox="0 0 72 72" style="enable-background:new 0 0 72 72;" xml:space="preserve">
<path d="M60,4.5H12c-4.14,0-7.5,3.36-7.5,7.5v48c0,4.14,3.36,7.5,7.5,7.5h48c4.14,0,7.5-3.36,7.5-7.5V12C67.5,7.86,64.14,4.5,60,4.5
	z M24,28.5V57h-9V28.5H24z M15,20.2c0-2.1,1.8-3.7,4.5-3.7s4.4,1.6,4.5,3.7c0,2.1-1.68,3.8-4.5,3.8C16.8,24,15,22.31,15,20.2z
	 M57,57h-9c0,0,0-13.89,0-15c0-3-1.5-6-5.25-6.06h-0.12c-3.63,0-5.13,3.09-5.13,6.06c0,1.37,0,15,0,15h-9V28.5h9v3.84
	c0,0,2.9-3.84,8.72-3.84C52.17,28.5,57,32.59,57,40.89V57z"/>
</svg>
