<?xml version="1.0" encoding="utf-8"?>
<!-- Generator: Adobe Illustrator 28.1.0, SVG Export Plug-In . SVG Version: 6.00 Build 0)  -->
<svg version="1.1" id="Layer_1" xmlns="http://www.w3.org/2000/svg" xmlns:xlink="http://www.w3.org/1999/xlink" x="0px" y="0px"
	 viewBox="0 0 72 72" style="enable-background:new 0 0 72 72;" xml:space="preserve">
<path d="M18.81,42.5v-4c6.44,0,9.73-1.8,13.54-3.88c4.39-2.4,9.37-5.12,19.6-5.12v4c-9.21,0-13.51,2.35-17.68,4.63
	C30.33,40.28,26.27,42.5,18.81,42.5z"/>
<path d="M53.45,57H18.55c-0.99,0-1.93-0.42-2.59-1.15c-0.66-0.73-0.99-1.71-0.89-2.7l3.78-37.18C19.37,10.3,24.08,6,29.81,6h12.39
	c5.73,0,10.44,4.3,10.95,10l3.78,37.14c0.1,0.99-0.23,1.97-0.89,2.7C55.38,56.58,54.43,57,53.45,57z M21.32,51h29.36l-3.5-34.42
	C46.94,13.95,44.8,12,42.19,12H29.81c-2.6,0-4.74,1.95-4.98,4.55L21.32,51z"/>
<path d="M10.57,42.85l-3.92-0.78l4.57-22.85c0.37-1.86,2.02-3.22,3.92-3.22h45.48c1.22,0,2.36,0.55,3.12,1.5
	c0.76,0.95,1.05,2.19,0.78,3.38c-1.93,8.61-6.63,13.54-12.89,13.54h-2v-4h2c5.78,0,8.12-6.53,8.99-10.42l-45.48,0L10.57,42.85z"/>
<rect x="18" y="60" width="36" height="6"/>
</svg>
