<?xml version="1.0" encoding="utf-8"?>
<!-- Generator: Adobe Illustrator 28.1.0, SVG Export Plug-In . SVG Version: 6.00 Build 0)  -->
<svg version="1.1" id="Layer_1" xmlns="http://www.w3.org/2000/svg" xmlns:xlink="http://www.w3.org/1999/xlink" x="0px" y="0px"
	 viewBox="0 0 72 72" style="enable-background:new 0 0 72 72;" xml:space="preserve">
<g>
	<path d="M65.5,51H55.24l-8.97-8.97c0.91-0.96,1.81-2.42,2.7-4.37c2.86-6.25,2.66-11.15-5.57-11.15c-5.32,0-7.42,2.12-7.39,5.26
		L20.12,15.88C19.56,15.32,18.8,15,18,15H6.5C6.22,15,6,15.22,6,15.5v5C6,20.78,6.22,21,6.5,21h10.26l35.12,35.12
		C52.44,56.68,53.2,57,54,57h11.5c0.28,0,0.5-0.22,0.5-0.5v-5C66,51.22,65.78,51,65.5,51z"/>
	<path d="M23.29,47.29v-3c0-0.28-0.22-0.5-0.5-0.5h-8.5c-1.1,0-2,0.9-2,2v8.5c0,0.28,0.22,0.5,0.5,0.5h3c0.28,0,0.5-0.22,0.5-0.5
		v-3.67l9.73,9.73c0.2,0.2,0.51,0.2,0.71,0l2.12-2.12c0.2-0.2,0.2-0.51,0-0.71l-9.73-9.73h3.67C23.07,47.79,23.29,47.57,23.29,47.29
		z"/>
	<circle cx="43.32" cy="18.71" r="5.21"/>
</g>
</svg>
