<?xml version="1.0" encoding="utf-8"?>
<!-- Generator: Adobe Illustrator 28.1.0, SVG Export Plug-In . SVG Version: 6.00 Build 0)  -->
<svg version="1.1" id="Layer_1" xmlns="http://www.w3.org/2000/svg" xmlns:xlink="http://www.w3.org/1999/xlink" x="0px" y="0px"
	 viewBox="0 0 72 72" style="enable-background:new 0 0 72 72;" xml:space="preserve">
<g>
	<g>
		<path d="M20.41,66h31.18c1.07,0,2.06-0.57,2.6-1.5l15.59-27c0.54-0.93,0.54-2.07,0-3l-15.59-27C53.65,6.57,52.66,6,51.59,6H20.41
			c-1.07,0-2.06,0.57-2.6,1.5l-15.59,27c-0.54,0.93-0.54,2.07,0,3l15.59,27C18.35,65.43,19.34,66,20.41,66z M22.14,12h27.71
			l13.86,24L49.86,60H22.14L8.29,36L22.14,12z"/>
	</g>
</g>
</svg>
