<?xml version="1.0" encoding="utf-8"?>
<!-- Generator: Adobe Illustrator 28.1.0, SVG Export Plug-In . SVG Version: 6.00 Build 0)  -->
<svg version="1.1" id="Layer_1" xmlns="http://www.w3.org/2000/svg" xmlns:xlink="http://www.w3.org/1999/xlink" x="0px" y="0px"
	 viewBox="0 0 72 72" style="enable-background:new 0 0 72 72;" xml:space="preserve">
<path d="M45,24c-0.34,0-0.66,0.03-1,0.04C40.39,19.09,33.99,16,27,16C15.97,16,7,23.63,7,33c0,4.58,2.17,8.96,6,12.15V54
	c0,0.81,0.49,1.54,1.23,1.85C14.48,55.95,14.74,56,15,56c0.52,0,1.03-0.2,1.41-0.59l5.88-5.88c1.26,0.26,2.58,0.39,3.9,0.43
	C29.63,55.9,36.76,60,45,60c1.49,0,2.95-0.13,4.37-0.39l5.51,5.51C55.45,65.7,56.22,66,57,66c0.39,0,0.78-0.07,1.15-0.23
	C59.27,65.31,60,64.21,60,63v-8.39c3.83-3.35,6-7.87,6-12.61C66,32.07,56.58,24,45,24z M22.18,45.4c-0.69-0.18-1.42,0.02-1.92,0.52
	L17,49.17v-4.99c0-0.63-0.3-1.22-0.8-1.6C12.89,40.11,11,36.62,11,33c0-7.17,7.18-13,16-13c4.84,0,9.31,1.76,12.3,4.69
	C30.49,26.83,24,33.77,24,42c0,1.31,0.17,2.58,0.49,3.82C23.7,45.72,22.92,45.59,22.18,45.4z M55.2,50.78
	c-0.76,0.57-1.2,1.46-1.2,2.4v2.58l-1.55-1.55c-0.57-0.57-1.34-0.88-2.12-0.88c-0.25,0-0.51,0.03-0.76,0.1
	C48.12,53.81,46.58,54,45,54c-8.27,0-15-5.38-15-12c0-6.62,6.73-12,15-12c8.27,0,15,5.38,15,12C60,45.3,58.25,48.5,55.2,50.78z"/>
</svg>
