<?xml version="1.0" encoding="utf-8"?>
<!-- Generator: Adobe Illustrator 28.1.0, SVG Export Plug-In . SVG Version: 6.00 Build 0)  -->
<svg version="1.1" id="Layer_1" xmlns="http://www.w3.org/2000/svg" xmlns:xlink="http://www.w3.org/1999/xlink" x="0px" y="0px"
	 viewBox="0 0 72 72" style="enable-background:new 0 0 72 72;" xml:space="preserve">
<g>
	<path d="M27.89,28.66c0.11,0.08,0.22,0.14,0.35,0.19c0.12,0.05,0.24,0.09,0.37,0.11C28.74,28.99,28.87,29,29,29
		c0.53,0,1.04-0.21,1.41-0.58c0.1-0.1,0.18-0.2,0.25-0.31c0.08-0.11,0.14-0.22,0.19-0.34c0.05-0.12,0.09-0.25,0.11-0.38
		C30.99,27.26,31,27.13,31,27c0-0.13-0.01-0.26-0.04-0.39c-0.02-0.13-0.06-0.25-0.11-0.37s-0.11-0.24-0.19-0.35
		c-0.07-0.11-0.15-0.21-0.25-0.3c-0.46-0.47-1.15-0.68-1.8-0.55c-0.13,0.03-0.25,0.06-0.37,0.11c-0.13,0.05-0.24,0.12-0.35,0.19
		s-0.21,0.15-0.3,0.25c-0.1,0.09-0.18,0.19-0.25,0.3c-0.07,0.11-0.14,0.23-0.19,0.35c-0.05,0.12-0.09,0.24-0.11,0.37
		C27.01,26.74,27,26.87,27,27c0,0.52,0.21,1.04,0.59,1.42C27.68,28.51,27.78,28.59,27.89,28.66z"/>
	<path d="M37.85,50.45c-0.05-0.12-0.11-0.23-0.19-0.34c-0.07-0.11-0.15-0.21-0.24-0.31c-0.1-0.09-0.2-0.17-0.31-0.25
		c-0.11-0.07-0.22-0.13-0.34-0.18c-0.13-0.05-0.25-0.09-0.38-0.11c-0.26-0.06-0.52-0.06-0.78,0c-0.13,0.02-0.25,0.06-0.38,0.11
		c-0.12,0.05-0.23,0.11-0.34,0.18c-0.11,0.08-0.21,0.16-0.3,0.25c-0.1,0.1-0.18,0.2-0.25,0.31s-0.14,0.22-0.19,0.34
		c-0.05,0.12-0.08,0.25-0.11,0.38C34.01,50.96,34,51.09,34,51.22c0,0.52,0.21,1.04,0.59,1.41c0.09,0.09,0.19,0.18,0.3,0.25
		s0.22,0.13,0.34,0.18c0.13,0.05,0.25,0.09,0.38,0.12c0.13,0.02,0.26,0.04,0.39,0.04s0.26-0.02,0.39-0.04
		c0.13-0.03,0.25-0.07,0.38-0.12c0.12-0.05,0.23-0.11,0.34-0.18c0.11-0.07,0.21-0.16,0.31-0.25c0.37-0.37,0.58-0.89,0.58-1.41
		c0-0.13-0.01-0.26-0.04-0.39C37.94,50.7,37.9,50.57,37.85,50.45z"/>
	<path d="M41.59,28.41C41.96,28.79,42.47,29,43,29c0.13,0,0.26-0.01,0.39-0.04c0.13-0.02,0.26-0.06,0.38-0.11
		c0.12-0.05,0.23-0.12,0.34-0.19c0.11-0.07,0.21-0.15,0.31-0.25C44.79,28.04,45,27.53,45,27c0-0.53-0.21-1.04-0.58-1.41
		c-0.1-0.1-0.2-0.18-0.31-0.25c-0.11-0.07-0.22-0.14-0.34-0.19c-0.12-0.05-0.25-0.08-0.38-0.11c-0.26-0.05-0.52-0.05-0.78,0
		c-0.13,0.03-0.25,0.06-0.38,0.11c-0.12,0.05-0.23,0.12-0.34,0.19s-0.21,0.15-0.3,0.25C41.21,25.96,41,26.47,41,27
		C41,27.53,41.21,28.04,41.59,28.41z"/>
	<path d="M61.5,56.5V11c0-2.76-2.24-5-5-5h-41c-2.76,0-5,2.24-5,5v45.5c0,2.76,2.24,5,5,5h4V66h6v-4.5h21V66h6v-4.5h4
		C59.26,61.5,61.5,59.26,61.5,56.5z M55.5,43H38V12h17.5V43z M34,12v31H16.5V12H34z M52.5,55.5h-6h-21h-6h-3V47H34h4h17.5v8.5H52.5z
		"/>
</g>
</svg>
