<?xml version="1.0" encoding="utf-8"?>
<!-- Generator: Adobe Illustrator 28.1.0, SVG Export Plug-In . SVG Version: 6.00 Build 0)  -->
<svg version="1.1" id="Layer_1" xmlns="http://www.w3.org/2000/svg" xmlns:xlink="http://www.w3.org/1999/xlink" x="0px" y="0px"
	 viewBox="0 0 72 72" style="enable-background:new 0 0 72 72;" xml:space="preserve">
<g>
	<g>
		<path d="M63,24h-6V9c0-1.66-1.34-3-3-3H18c-1.66,0-3,1.34-3,3v15H9c-1.66,0-3,1.34-3,3v27c0,1.66,1.34,3,3,3h6v6
			c0,1.66,1.34,3,3,3h36c1.66,0,3-1.34,3-3v-6h6c1.66,0,3-1.34,3-3V27C66,25.34,64.66,24,63,24z M21,12h30v12H21V12z M51,60H21v-6
			v-6h30v6V60z M60,51h-3v-6c0-1.66-1.34-3-3-3H18c-1.66,0-3,1.34-3,3v6h-3V30h6h36h6V51z"/>
	</g>
	<g>
		<path d="M51.88,33.88C51.32,34.44,51,35.21,51,36s0.32,1.56,0.88,2.12C52.44,38.68,53.21,39,54,39s1.56-0.32,2.12-0.88
			C56.68,37.56,57,36.79,57,36s-0.32-1.56-0.88-2.12C55,32.76,53,32.76,51.88,33.88z"/>
	</g>
	<g>
		<path d="M45,52H27c-1.1,0-2,0.9-2,2s0.9,2,2,2h18c1.1,0,2-0.9,2-2S46.1,52,45,52z"/>
	</g>
</g>
</svg>
