<?xml version="1.0" encoding="utf-8"?>
<!-- Generator: Adobe Illustrator 28.1.0, SVG Export Plug-In . SVG Version: 6.00 Build 0)  -->
<svg version="1.1" id="Layer_1" xmlns="http://www.w3.org/2000/svg" xmlns:xlink="http://www.w3.org/1999/xlink" x="0px" y="0px"
	 viewBox="0 0 72 72" style="enable-background:new 0 0 72 72;" xml:space="preserve">
<g>
	<g>
		<path d="M36,66c3.72,0,22.29-0.52,22.29-10.71c0-8.83-5.16-16.48-12.63-20.08c2.82-2.61,4.6-6.32,4.6-10.45
			c0-7.86-6.39-14.25-14.25-14.25s-14.25,6.39-14.25,14.25c0,4.13,1.78,7.85,4.6,10.45c-7.47,3.6-12.63,11.25-12.63,20.08
			C13.71,65.48,32.28,66,36,66z M27.75,24.75c0-4.55,3.7-8.25,8.25-8.25s8.25,3.7,8.25,8.25S40.55,33,36,33S27.75,29.3,27.75,24.75z
			 M36,39c8.98,0,16.29,7.31,16.29,16.29c0,2.22-6.97,4.7-16.28,4.71c-9.32-0.01-16.29-2.5-16.29-4.71C19.71,46.31,27.02,39,36,39z"
			/>
	</g>
	<g>
		<path d="M28.81,52.69H34v5.19c0,0.28,0.22,0.5,0.5,0.5h3c0.28,0,0.5-0.22,0.5-0.5v-5.19h5.19c0.28,0,0.5-0.22,0.5-0.5v-3
			c0-0.28-0.22-0.5-0.5-0.5H38V43.5c0-0.28-0.22-0.5-0.5-0.5h-3c-0.28,0-0.5,0.22-0.5,0.5v5.19h-5.19c-0.28,0-0.5,0.22-0.5,0.5v3
			C28.31,52.47,28.53,52.69,28.81,52.69z"/>
	</g>
</g>
</svg>
