<?xml version="1.0" encoding="utf-8"?>
<!-- Generator: Adobe Illustrator 28.1.0, SVG Export Plug-In . SVG Version: 6.00 Build 0)  -->
<svg version="1.1" id="Layer_1" xmlns="http://www.w3.org/2000/svg" xmlns:xlink="http://www.w3.org/1999/xlink" x="0px" y="0px"
	 viewBox="0 0 72 72" style="enable-background:new 0 0 72 72;" xml:space="preserve">
<g>
	<path d="M24,43v4.5c0,0.28,0.22,0.5,0.5,0.5h5c0.28,0,0.5-0.22,0.5-0.5V43c0-7.18,5.82-13,13-13h3.76l-5.65,5.65
		c-0.2,0.2-0.2,0.51,0,0.71l3.54,3.54c0.2,0.2,0.51,0.2,0.71,0l10.77-10.77c1.17-1.17,1.17-3.07,0-4.24L45.35,14.11
		c-0.2-0.2-0.51-0.2-0.71,0l-3.54,3.54c-0.2,0.2-0.2,0.51,0,0.71L46.76,24H43C32.51,24,24,32.51,24,43z"/>
	<path d="M15.5,61.5h41c0.28,0,0.5-0.22,0.5-0.5v-5c0-0.28-0.22-0.5-0.5-0.5h-41c-0.28,0-0.5,0.22-0.5,0.5v5
		C15,61.28,15.22,61.5,15.5,61.5z"/>
</g>
</svg>
