<?xml version="1.0" encoding="utf-8"?>
<!-- Generator: Adobe Illustrator 28.1.0, SVG Export Plug-In . SVG Version: 6.00 Build 0)  -->
<svg version="1.1" id="Layer_1" xmlns="http://www.w3.org/2000/svg" xmlns:xlink="http://www.w3.org/1999/xlink" x="0px" y="0px"
	 viewBox="0 0 72 72" style="enable-background:new 0 0 72 72;" xml:space="preserve">
<g>
	<g>
		<path d="M42.5,6.75h-4c0,6.41,2.18,9.9,4.4,12.75H39c-0.35-0.46-0.71-0.91-1.07-1.35c-2.28-2.83-4.43-5.51-4.43-11.4h-4
			c0,6.41,2.18,9.9,4.4,12.75H30c-0.35-0.46-0.71-0.91-1.07-1.35c-2.28-2.83-4.43-5.51-4.43-11.4h-4c0,6.41,2.18,9.9,4.4,12.75
			H14.01c-0.94,0-1.85,0.39-2.51,1.06c-0.66,0.67-1.02,1.59-1,2.52c0.05,2.22,0.39,4.37,0.99,6.42H9v4h4.03
			c2.28,4.69,5.95,8.6,10.47,11.17l-5.89,17.67C17.5,62.67,17.74,63,18.09,63h3.16c0.22,0,0.41-0.14,0.47-0.34l5.42-16.27
			c2.17,0.81,4.47,1.34,6.85,1.53V62.5c0,0.28,0.22,0.5,0.5,0.5h3c0.28,0,0.5-0.22,0.5-0.5V47.91c2.39-0.19,4.69-0.71,6.85-1.53
			l5.42,16.27c0.07,0.2,0.26,0.34,0.47,0.34h3.16c0.34,0,0.58-0.33,0.47-0.66L48.5,44.67c4.52-2.57,8.19-6.48,10.47-11.17h4.47v-4
			h-2.93c0.59-2.05,0.94-4.2,0.99-6.41c0.02-0.94-0.34-1.86-1-2.53c-0.66-0.67-1.57-1.06-2.51-1.06H48
			c-0.35-0.46-0.71-0.91-1.07-1.35C44.65,15.32,42.5,12.64,42.5,6.75z M55.27,25.5C53.81,34.8,45.65,42,36,42
			c-9.65,0-17.8-7.19-19.27-16.5H28.9c0.38,1.06,0.6,2.27,0.6,3.75h4c0-1.41-0.16-2.64-0.43-3.75h4.82c0.38,1.06,0.6,2.27,0.6,3.75
			h4c0-1.41-0.16-2.64-0.43-3.75h4.82c0.38,1.06,0.6,2.27,0.6,3.75h4c0-1.41-0.16-2.64-0.43-3.75H55.27z"/>
	</g>
</g>
</svg>
