<?xml version="1.0" encoding="utf-8"?>
<!-- Generator: Adobe Illustrator 28.1.0, SVG Export Plug-In . SVG Version: 6.00 Build 0)  -->
<svg version="1.1" id="Layer_1" xmlns="http://www.w3.org/2000/svg" xmlns:xlink="http://www.w3.org/1999/xlink" x="0px" y="0px"
	 viewBox="0 0 72 72" style="enable-background:new 0 0 72 72;" xml:space="preserve">
<path d="M56.77,37.15c0.04-0.1,0.06-0.2,0.09-0.3c0.03-0.09,0.06-0.17,0.08-0.26C56.98,36.39,57,36.2,57,36c0,0,0,0,0,0c0,0,0,0,0,0
	c0-0.2-0.02-0.39-0.06-0.58c-0.02-0.09-0.05-0.17-0.08-0.26c-0.03-0.1-0.05-0.2-0.09-0.3c-0.04-0.1-0.1-0.2-0.16-0.3
	c-0.04-0.07-0.07-0.15-0.12-0.22c-0.11-0.17-0.24-0.32-0.38-0.46l-9-9c-1.17-1.17-3.07-1.17-4.24,0c-1.17,1.17-1.17,3.07,0,4.24
	L46.76,33H34c-10.48,0-19,8.52-19,19v2c0,1.66,1.34,3,3,3s3-1.34,3-3v-2c0-7.17,5.83-13,13-13h12.76l-3.88,3.88
	c-1.17,1.17-1.17,3.07,0,4.24C43.46,47.71,44.23,48,45,48s1.54-0.29,2.12-0.88l9-9c0.14-0.14,0.27-0.3,0.38-0.46
	c0.05-0.07,0.08-0.15,0.12-0.22C56.67,37.35,56.73,37.25,56.77,37.15z"/>
</svg>
