<?xml version="1.0" encoding="utf-8"?>
<!-- Generator: Adobe Illustrator 28.1.0, SVG Export Plug-In . SVG Version: 6.00 Build 0)  -->
<svg version="1.1" id="Layer_1" xmlns="http://www.w3.org/2000/svg" xmlns:xlink="http://www.w3.org/1999/xlink" x="0px" y="0px"
	 viewBox="0 0 72 72" style="enable-background:new 0 0 72 72;" xml:space="preserve">
<path d="M57,57H15c-4.96,0-9-4.04-9-9V24c0-4.96,4.04-9,9-9h42c4.96,0,9,4.04,9,9v24C66,52.96,61.96,57,57,57z M15,21
	c-1.65,0-3,1.35-3,3v24c0,1.65,1.35,3,3,3h42c1.65,0,3-1.35,3-3V24c0-1.65-1.35-3-3-3H15z"/>
<path d="M18,48c-0.2,0-0.39-0.02-0.59-0.06c-0.19-0.04-0.38-0.09-0.56-0.17c-0.18-0.07-0.35-0.17-0.52-0.28
	c-0.16-0.1-0.31-0.23-0.45-0.37c-0.14-0.14-0.27-0.29-0.37-0.45c-0.11-0.17-0.21-0.34-0.28-0.52c-0.08-0.18-0.13-0.37-0.17-0.56
	C15.02,45.39,15,45.2,15,45c0-0.2,0.02-0.39,0.06-0.59c0.04-0.19,0.09-0.38,0.17-0.56c0.07-0.18,0.17-0.35,0.28-0.52
	c0.1-0.16,0.23-0.31,0.37-0.45s0.29-0.27,0.45-0.37c0.17-0.11,0.34-0.2,0.52-0.28c0.18-0.07,0.37-0.13,0.56-0.17
	c0.39-0.08,0.79-0.08,1.18,0c0.19,0.04,0.38,0.1,0.56,0.17c0.18,0.08,0.35,0.17,0.52,0.28c0.16,0.1,0.31,0.23,0.45,0.37
	c0.14,0.14,0.27,0.29,0.38,0.45c0.1,0.17,0.2,0.34,0.27,0.52c0.08,0.18,0.13,0.37,0.17,0.56C20.98,44.61,21,44.8,21,45
	c0,0.2-0.02,0.39-0.06,0.59c-0.04,0.19-0.09,0.38-0.17,0.56c-0.07,0.18-0.17,0.35-0.27,0.52c-0.11,0.16-0.24,0.31-0.38,0.45
	c-0.14,0.14-0.29,0.27-0.45,0.37c-0.17,0.11-0.34,0.21-0.52,0.28c-0.18,0.08-0.37,0.13-0.56,0.17C18.39,47.98,18.19,48,18,48z"/>
<path d="M27,48c-0.19,0-0.39-0.02-0.59-0.06c-0.19-0.04-0.38-0.09-0.56-0.17c-0.18-0.07-0.35-0.17-0.51-0.28
	c-0.17-0.1-0.32-0.23-0.46-0.37C24.32,46.56,24,45.79,24,45s0.32-1.56,0.88-2.12c0.14-0.14,0.29-0.26,0.46-0.37
	c0.16-0.11,0.33-0.2,0.51-0.28c0.18-0.07,0.37-0.13,0.56-0.17c0.39-0.08,0.79-0.08,1.18,0c0.19,0.04,0.38,0.1,0.56,0.17
	c0.18,0.08,0.35,0.17,0.52,0.28c0.16,0.11,0.31,0.23,0.45,0.37C29.68,43.44,30,44.21,30,45s-0.32,1.56-0.88,2.12
	c-0.14,0.14-0.29,0.27-0.45,0.37c-0.17,0.11-0.34,0.21-0.52,0.28c-0.18,0.08-0.37,0.13-0.56,0.17C27.39,47.98,27.2,48,27,48z"/>
<path d="M63,33.5H9c-1.1,0-2-0.9-2-2s0.9-2,2-2h54c1.1,0,2,0.9,2,2S64.1,33.5,63,33.5z"/>
</svg>
