<?xml version="1.0" encoding="utf-8"?>
<!-- Generator: Adobe Illustrator 28.1.0, SVG Export Plug-In . SVG Version: 6.00 Build 0)  -->
<svg version="1.1" id="Layer_1" xmlns="http://www.w3.org/2000/svg" xmlns:xlink="http://www.w3.org/1999/xlink" x="0px" y="0px"
	 viewBox="0 0 72 72" style="enable-background:new 0 0 72 72;" xml:space="preserve">
<g>
	<path d="M43.42,42.88c-1.98,1.98-4.62,3.08-7.42,3.08s-5.44-1.09-7.42-3.08c-1.17-1.17-3.07-1.17-4.24,0
		c-1.17,1.17-1.17,3.07,0,4.24c3.12,3.12,7.26,4.83,11.67,4.83s8.55-1.72,11.67-4.83c1.17-1.17,1.17-3.07,0-4.24
		C46.5,41.71,44.6,41.71,43.42,42.88z"/>
	<path d="M45,35c1.66,0,3-1.34,3-3v-5c0-1.66-1.34-3-3-3s-3,1.34-3,3v5C42,33.66,43.34,35,45,35z"/>
	<path d="M24,32c0,1.66,1.34,3,3,3s3-1.34,3-3v-5c0-1.66-1.34-3-3-3s-3,1.34-3,3V32z"/>
</g>
</svg>
