<?xml version="1.0" encoding="utf-8"?>
<!-- Generator: Adobe Illustrator 28.1.0, SVG Export Plug-In . SVG Version: 6.00 Build 0)  -->
<svg version="1.1" id="Layer_1" xmlns="http://www.w3.org/2000/svg" xmlns:xlink="http://www.w3.org/1999/xlink" x="0px" y="0px"
	 viewBox="0 0 72 72" style="enable-background:new 0 0 72 72;" xml:space="preserve">
<g>
	<path d="M36.91,25.76l-1.18-0.63c-0.15-0.08-0.32-0.08-0.47,0l-1.18,0.63c-0.48,0.25-11.65,6.36-11.65,18.75
		c0,7.57,5.86,13.73,13.06,13.73s13.06-6.16,13.06-13.73C48.56,32.11,37.39,26.01,36.91,25.76z M35.5,52.24
		c-3.89,0-7.06-3.47-7.06-7.73c0-6.6,4.64-10.8,7.06-12.54c2.41,1.74,7.07,5.96,7.07,12.54C42.56,48.77,39.39,52.24,35.5,52.24z"/>
	<path d="M44.56,5.6c-0.15-0.15-0.38-0.19-0.58-0.09l-1.61,0.81c-0.31,0.15-7.27,3.66-14.68,9.03c-3.83-1.03-6.41-1.55-6.54-1.58
		l-1.31-0.26c-0.16-0.03-0.33,0.02-0.45,0.14l-0.95,0.95c-0.34,0.34-8.06,8.24-8.57,23.68c-0.49,15.1,11.49,28,26.6,27.72
		c14.19-0.26,25.66-11.89,25.66-26.14c0-16.48-15.64-32.31-16.31-32.98L44.56,5.6z M34.95,59.97
		c-11.04-0.56-19.37-10.21-19.08-21.26c0.27-10.05,3.99-16.22,5.83-18.68c1.34,0.31,3.38,0.81,5.79,1.48l1.19,0.33
		c0.15,0.04,0.31,0.01,0.43-0.08l0.99-0.74c5.1-3.82,10.25-6.81,12.98-8.3c3.71,4.18,13.06,15.83,13.06,27.13
		C56.14,51.31,46.53,60.56,34.95,59.97z"/>
</g>
</svg>
