<?xml version="1.0" encoding="utf-8"?>
<!-- Generator: Adobe Illustrator 28.1.0, SVG Export Plug-In . SVG Version: 6.00 Build 0)  -->
<svg version="1.1" id="Layer_1" xmlns="http://www.w3.org/2000/svg" xmlns:xlink="http://www.w3.org/1999/xlink" x="0px" y="0px"
	 viewBox="0 0 72 72" style="enable-background:new 0 0 72 72;" xml:space="preserve">
<g>
	<path d="M14.33,50.8c-0.56,0.56-0.88,1.33-0.88,2.12c0,0.79,0.32,1.56,0.88,2.12c0.56,0.56,1.33,0.88,2.12,0.88
		s1.56-0.32,2.12-0.88c0.56-0.56,0.88-1.33,0.88-2.12c0-0.79-0.32-1.56-0.88-2.12C17.45,49.68,15.45,49.68,14.33,50.8z"/>
	<path d="M61.79,15.74l-4.09-1.36c-0.04-0.01-0.07-0.04-0.08-0.09l-1.36-4.08C55.4,7.67,53.12,6.01,50.43,6c-0.01,0-0.02,0-0.04,0
		c-2.65,0-4.91,1.6-5.78,4.09c-1.34,3.86-1.38,7.69-1.07,10.58c-2.96-0.49-7.04-0.82-11.46-0.21c-0.94-2.5-2.87-4.95-5.54-6.05
		c-1.93-0.8-5.83-1.49-10.2,2.89c-3.98,3.98-5.67,13.85-6.3,19.2c-1.28,2.55-2.34,5.33-3.05,8.11c-1.97,7.67-1,13.94,2.73,17.67
		c2.47,2.47,6.05,3.73,10.41,3.73c2.23,0,4.67-0.33,7.26-1c6.25-1.6,12.45-4.92,16.18-8.65c0.34-0.34,0.66-0.69,0.97-1.04l6.55-2.14
		c1.81-0.59,3.23-2.03,3.79-3.85c0.56-1.82,0.2-3.8-0.95-5.31l-2.52-3.28c0.77-4.74,0.43-9.14-0.09-12.29
		c0.9,0.1,1.89,0.16,2.95,0.16c2.33,0,4.98-0.31,7.63-1.23c2.5-0.87,4.11-3.15,4.1-5.81C65.99,18.88,64.33,16.6,61.79,15.74z
		 M19.17,20.12c2.08-2.08,4.05-2.76,5.84-2.02c1.34,0.56,2.43,1.82,3.07,3.17c-4.25,1.15-8.61,3.32-12.45,7.16
		c-0.04,0.04-0.08,0.09-0.12,0.13C16.38,25.01,17.58,21.72,19.17,20.12z M13.96,58.04c-2.37-2.37-2.41-7.03-1.17-11.85
		c3.97,0.04,7.17,1.21,9.49,3.53c2.51,2.51,3.99,5.81,4.26,9.3C21.45,60.45,16.45,60.53,13.96,58.04z M30.43,57.67
		c-0.54-4.04-2.39-7.83-5.33-10.77c-2.79-2.79-6.57-4.36-11.04-4.66c1.48-3.8,3.6-7.35,5.82-9.57c5.2-5.2,11.83-6.5,17.17-6.5
		c3.37,0,6.23,0.52,7.88,0.9c0.99,4.25,2.89,16.55-5.59,25.04C37.24,54.2,33.98,56.2,30.43,57.67z M50.76,46.46
		c0.38,0.49,0.49,1.1,0.3,1.69c-0.18,0.59-0.62,1.04-1.21,1.23l-1.46,0.48c0.73-1.37,1.32-2.76,1.79-4.15L50.76,46.46z M59.99,21.69
		c0,0-0.01,0.01-0.06,0.03c0,0,0,0,0,0c-3.92,1.37-7.96,0.88-10.09,0.44c-0.43-2.14-0.92-6.19,0.46-10.15
		c0.03-0.02,0.11-0.03,0.19,0c0.03,0.01,0.05,0.02,0.08,0.1l1.36,4.07c0.61,1.84,2.06,3.29,3.89,3.9l4.08,1.36
		c0.08,0.03,0.09,0.04,0.1,0.08C60.01,21.59,60,21.67,59.99,21.69z"/>
</g>
</svg>
