<?xml version="1.0" encoding="utf-8"?>
<!-- Generator: Adobe Illustrator 28.1.0, SVG Export Plug-In . SVG Version: 6.00 Build 0)  -->
<svg version="1.1" id="Layer_1" xmlns="http://www.w3.org/2000/svg" xmlns:xlink="http://www.w3.org/1999/xlink" x="0px" y="0px"
	 viewBox="0 0 72 72" style="enable-background:new 0 0 72 72;" xml:space="preserve">
<g>
	<path d="M57.57,30c1.6,0,3.11,0.62,4.24,1.76c1.17,1.17,3.07,1.17,4.24,0c1.17-1.17,1.17-3.07,0-4.24
		C63.79,25.25,60.77,24,57.57,24s-6.22,1.25-8.48,3.51c-2.27,2.27-3.52,5.28-3.52,8.49c0,0.01,0,0.01,0,0.02
		c-0.36-0.48-0.77-0.92-1.23-1.3c0.47-0.98,0.73-2.07,0.73-3.22c0-4.14-3.36-7.5-7.5-7.5h-7c-1.66,0-3,1.34-3,3v14.29l-7.82-15.63
		C19.24,24.64,18.2,24,17.07,24s-2.18,0.64-2.68,1.66l-9,18c-0.74,1.48-0.14,3.28,1.34,4.02c1.48,0.74,3.28,0.14,4.02-1.34
		l1.42-2.84h9.79l1.42,2.84c0.53,1.05,1.58,1.66,2.69,1.66c0.45,0,0.91-0.1,1.34-0.32c0.36-0.18,0.67-0.42,0.91-0.71
		C28.87,47.6,29.67,48,30.57,48h9c3.75,0,6.85-2.76,7.4-6.36c0.55,1.03,1.26,1.99,2.11,2.84c2.27,2.27,5.28,3.52,8.49,3.52
		s6.22-1.25,8.49-3.52c1.17-1.17,1.17-3.07,0-4.24c-1.17-1.17-3.07-1.17-4.24,0C60.68,41.38,59.17,42,57.57,42s-3.11-0.62-4.24-1.76
		c-1.13-1.13-1.76-2.64-1.76-4.24s0.62-3.11,1.76-4.24C54.46,30.62,55.97,30,57.57,30z M15.17,37.5l1.9-3.79l1.9,3.79H15.17z
		 M37.57,30c0.83,0,1.5,0.67,1.5,1.5S38.4,33,37.57,33h-4v-3H37.57z M39.57,42h-6v-3h4h2c0.83,0,1.5,0.67,1.5,1.5S40.4,42,39.57,42z
		"/>
</g>
</svg>
