<?xml version="1.0" encoding="utf-8"?>
<!-- Generator: Adobe Illustrator 28.1.0, SVG Export Plug-In . SVG Version: 6.00 Build 0)  -->
<svg version="1.1" id="Layer_1" xmlns="http://www.w3.org/2000/svg" xmlns:xlink="http://www.w3.org/1999/xlink" x="0px" y="0px"
	 viewBox="0 0 72 72" style="enable-background:new 0 0 72 72;" xml:space="preserve">
<path d="M22.84,61.82c-5.55,0-9.49-6.21-11.99-10.91C7.2,44.04,6.57,38.25,9.02,34.18c2.27-3.77,6.8-5.68,13.48-5.68
	c6.44,0,10.84,1.77,13.09,5.27c2.52,3.92,2.07,9.47-1.36,16.98l0,0c-2.14,4.67-5.62,10.9-11.17,11.07
	C22.99,61.82,22.91,61.82,22.84,61.82z M22.5,34.5c-3.04,0-6.96,0.48-8.34,2.77c-1.27,2.11-0.55,6.05,1.99,10.82
	c3.94,7.42,6.3,7.72,6.73,7.73c1.19-0.04,3.36-2.04,5.89-7.57l0,0c3.09-6.76,2.67-9.85,1.77-11.24C29.21,34.94,25.43,34.5,22.5,34.5
	z"/>
<path d="M49.5,34.5c-6.62,0-12-5.38-12-12s5.38-12,12-12s12,5.38,12,12S56.12,34.5,49.5,34.5z M49.5,16.5c-3.31,0-6,2.69-6,6
	s2.69,6,6,6s6-2.69,6-6S52.81,16.5,49.5,16.5z"/>
<path d="M22.5,34.5c-6.62,0-12-5.38-12-12s5.38-12,12-12s12,5.38,12,12S29.12,34.5,22.5,34.5z M22.5,16.5c-3.31,0-6,2.69-6,6
	s2.69,6,6,6s6-2.69,6-6S25.81,16.5,22.5,16.5z"/>
<path d="M49.37,61.82c-6.44,0-10.84-1.77-13.09-5.27c-2.52-3.92-2.07-9.47,1.36-16.98l0,0c2.14-4.67,5.62-10.9,11.17-11.07
	c5.69-0.12,9.68,6.15,12.21,10.91c3.65,6.87,4.28,12.65,1.83,16.73C60.58,59.91,56.05,61.82,49.37,61.82z M43.1,42.07
	c-3.09,6.76-2.67,9.85-1.77,11.24c1.33,2.07,5.11,2.51,8.04,2.51c3.04,0,6.96-0.48,8.34-2.77c1.27-2.11,0.55-6.05-1.99-10.82
	c-3.94-7.42-6.28-7.73-6.73-7.73C47.8,34.54,45.62,36.54,43.1,42.07L43.1,42.07z"/>
</svg>
