<?xml version="1.0" encoding="utf-8"?>
<!-- Generator: Adobe Illustrator 28.1.0, SVG Export Plug-In . SVG Version: 6.00 Build 0)  -->
<svg version="1.1" id="Layer_1" xmlns="http://www.w3.org/2000/svg" xmlns:xlink="http://www.w3.org/1999/xlink" x="0px" y="0px"
	 viewBox="0 0 72 72" style="enable-background:new 0 0 72 72;" xml:space="preserve">
<g>
	<path d="M6,38.5C6,38.78,6.22,39,6.5,39h4v18c0,4.96,4.04,9,9,9h33c4.96,0,9-4.04,9-9V39h4c0.28,0,0.5-0.22,0.5-0.5V33
		c0-4.97-4.03-9-9-9h-4.72c1.36-0.93,2.65-1.97,3.86-3.13c0.2-0.2,0.2-0.52,0-0.72l-2.12-2.12c-0.19-0.19-0.5-0.19-0.69,0
		c-2.94,2.83-6.46,4.86-10.29,5.98h-2.14c1.58-2.46,3.11-5.68,3.11-9c0-4.41-3.59-8-8-8s-8,3.59-8,8c0,3.32,1.52,6.54,3.11,9h-2.14
		c-3.83-1.12-7.35-3.15-10.29-5.98c-0.2-0.19-0.5-0.19-0.69,0l-2.12,2.12c-0.2,0.2-0.2,0.53,0,0.72c1.21,1.17,2.5,2.21,3.86,3.13H15
		c-4.97,0-9,4.03-9,9V38.5z M34,60H19.5c-1.65,0-3-1.35-3-3V39H34V60z M55.5,57c0,1.65-1.35,3-3,3H38V39h17.5V57z M57,30
		c1.65,0,3,1.35,3,3H38v-3H57z M36,11c2.21,0,4,1.79,4,4c0,3.4-2.4,6.96-4,8.96c-1.6-2-4-5.56-4-8.96C32,12.79,33.79,11,36,11z
		 M15,30h19v3H12C12,31.35,13.35,30,15,30z"/>
</g>
</svg>
