<?xml version="1.0" encoding="utf-8"?>
<!-- Generator: Adobe Illustrator 28.1.0, SVG Export Plug-In . SVG Version: 6.00 Build 0)  -->
<svg version="1.1" id="Layer_1" xmlns="http://www.w3.org/2000/svg" xmlns:xlink="http://www.w3.org/1999/xlink" x="0px" y="0px"
	 viewBox="0 0 72 72" style="enable-background:new 0 0 72 72;" xml:space="preserve">
<path d="M45.54,36.01l16.8-16.81c0.39-0.39,0.39-1.02,0-1.41l-8.13-8.13c-0.39-0.39-1.03-0.39-1.42,0l-16.8,16.8L19.2,9.67
	c-0.39-0.39-1.02-0.39-1.41,0L9.66,17.8c-0.39,0.39-0.39,1.02,0,1.41L26.46,36L9.67,52.8c-0.39,0.39-0.39,1.02,0,1.41l8.13,8.13
	c0.39,0.39,1.02,0.39,1.41,0L36,45.55l16.8,16.79c0.39,0.39,1.02,0.39,1.41,0l8.13-8.13c0.39-0.39,0.39-1.03-0.01-1.41L45.54,36.01z
	"/>
</svg>
