<?xml version="1.0" encoding="utf-8"?>
<!-- Generator: Adobe Illustrator 28.1.0, SVG Export Plug-In . SVG Version: 6.00 Build 0)  -->
<svg version="1.1" id="Layer_1" xmlns="http://www.w3.org/2000/svg" xmlns:xlink="http://www.w3.org/1999/xlink" x="0px" y="0px"
	 viewBox="0 0 72 72" style="enable-background:new 0 0 72 72;" xml:space="preserve">
<path d="M54,10.5H18c-1.66,0-3,1.34-3,3v27c0,5.14,3.45,10.24,10.24,15.16c4.7,3.4,9.34,5.49,9.53,5.58
	c0.39,0.17,0.81,0.26,1.23,0.26s0.84-0.09,1.23-0.26c0.19-0.09,4.84-2.18,9.53-5.58C53.55,50.74,57,45.64,57,40.5v-27
	C57,11.84,55.66,10.5,54,10.5z M21,40.5v-24h13v37.62C28.77,51.19,21,45.73,21,40.5z M51,40.5c0,5.23-7.77,10.69-13,13.62V16.5h13
	V40.5z"/>
</svg>
