<?xml version="1.0" encoding="utf-8"?>
<!-- Generator: Adobe Illustrator 28.1.0, SVG Export Plug-In . SVG Version: 6.00 Build 0)  -->
<svg version="1.1" id="Layer_1" xmlns="http://www.w3.org/2000/svg" xmlns:xlink="http://www.w3.org/1999/xlink" x="0px" y="0px"
	 viewBox="0 0 72 72" style="enable-background:new 0 0 72 72;" xml:space="preserve">
<g>
	<path d="M17.54,52.99c5.81,0,10.54-4.73,10.54-10.54c0-3.4-1.62-6.41-4.12-8.34l2.12-4.23l6.75,13.47c0.34,0.68,1.03,1.1,1.79,1.1
		h6.74c0.94,4.86,5.22,8.54,10.35,8.54c5.81,0,10.54-4.73,10.54-10.54c0-5.81-4.73-10.54-10.54-10.54c-0.99,0-1.94,0.15-2.84,0.4
		l-2.48-4.94c0.93-0.18,1.63-0.99,1.63-1.96c0-1.1-0.9-2-2-2h-5.69c-1.1,0-2,0.9-2,2c0,0.98,0.7,1.79,1.63,1.96l-5.32,10.61
		L28.31,25.4c0.06-0.13,0.12-0.26,0.17-0.37c0.08-0.18,0.17-0.37,0.25-0.53c0.23,0,0.54,0.01,0.83,0.02
		c0.46,0.02,1.02,0.03,1.7,0.04c0.28,0,0.51-0.22,0.51-0.5v-3c0-0.27-0.23-0.5-0.5-0.5c-0.63-0.01-1.15-0.02-1.58-0.04
		c-2.77-0.09-3.63,0.23-4.84,2.81c-0.15,0.33-0.33,0.71-0.57,1.18l-3.91,7.8c-0.91-0.25-1.86-0.4-2.84-0.4
		C11.73,31.91,7,36.64,7,42.45C7,48.26,11.73,52.99,17.54,52.99z M47.13,37.79l1.34,2.67h-2.99C45.81,39.43,46.38,38.52,47.13,37.79
		z M51.7,35.91c3.61,0,6.54,2.93,6.54,6.54s-2.93,6.54-6.54,6.54c-2.91,0-5.38-1.91-6.23-4.54h6.23c0.69,0,1.34-0.36,1.7-0.95
		s0.4-1.33,0.09-1.95L50.7,36C51.03,35.95,51.36,35.91,51.7,35.91z M43.16,29.88l2.12,4.23c-2,1.54-3.43,3.77-3.93,6.34h-3.5
		L43.16,29.88z M17.54,35.91c0.34,0,0.67,0.03,1,0.08l-2.56,5.11c-0.12,0.25-0.02,0.55,0.22,0.67l2.68,1.34
		c0.25,0.12,0.55,0.02,0.67-0.22l2.56-5.12c1.21,1.19,1.97,2.84,1.97,4.67c0,3.61-2.93,6.54-6.54,6.54c-3.61,0-6.54-2.93-6.54-6.54
		S13.93,35.91,17.54,35.91z"/>
</g>
</svg>
