<?xml version="1.0" encoding="utf-8"?>
<!-- Generator: Adobe Illustrator 28.1.0, SVG Export Plug-In . SVG Version: 6.00 Build 0)  -->
<svg version="1.1" id="Layer_1" xmlns="http://www.w3.org/2000/svg" xmlns:xlink="http://www.w3.org/1999/xlink" x="0px" y="0px"
	 viewBox="0 0 72 72" style="enable-background:new 0 0 72 72;" xml:space="preserve">
<path d="M36,18.59l11.09,19.21L58.18,57H36H13.82l11.09-19.21L36,18.59 M36,9c-0.81,0-1.63,0.4-2.09,1.21l-14.2,24.59L5.52,59.38
	C4.59,60.99,5.75,63,7.61,63H36h28.39c1.86,0,3.02-2.01,2.09-3.62l-14.2-24.59l-14.2-24.59C37.63,9.4,36.81,9,36,9L36,9z"/>
<g>
	<path d="M38.5,42.5h-5c-0.28,0-0.5-0.11-0.5-0.25v-13c0-0.14,0.22-0.25,0.5-0.25h5c0.28,0,0.5,0.11,0.5,0.25v13
		C39,42.39,38.78,42.5,38.5,42.5z"/>
	<path d="M36,53c-0.19,0-0.39-0.02-0.59-0.06c-0.19-0.04-0.38-0.09-0.56-0.17c-0.18-0.07-0.35-0.17-0.51-0.27
		c-0.17-0.11-0.32-0.24-0.46-0.38c-0.14-0.14-0.26-0.29-0.37-0.45c-0.11-0.17-0.2-0.34-0.28-0.52c-0.07-0.18-0.13-0.37-0.17-0.56
		C33.02,50.39,33,50.2,33,50c0-0.19,0.02-0.39,0.06-0.59c0.04-0.19,0.1-0.38,0.17-0.56c0.08-0.18,0.17-0.35,0.28-0.51
		c0.11-0.17,0.23-0.32,0.37-0.46s0.29-0.26,0.46-0.37c0.16-0.11,0.33-0.2,0.51-0.28c0.18-0.07,0.37-0.13,0.56-0.17
		c0.39-0.08,0.79-0.08,1.18,0c0.19,0.04,0.38,0.1,0.56,0.17c0.18,0.08,0.35,0.17,0.52,0.28c0.16,0.11,0.31,0.23,0.45,0.37
		c0.14,0.14,0.27,0.29,0.37,0.46c0.11,0.16,0.21,0.33,0.28,0.51c0.08,0.18,0.13,0.37,0.17,0.56C38.98,49.61,39,49.81,39,50
		c0,0.2-0.02,0.39-0.06,0.59c-0.04,0.19-0.09,0.38-0.17,0.56c-0.07,0.18-0.17,0.35-0.28,0.52c-0.1,0.16-0.23,0.31-0.37,0.45
		c-0.14,0.14-0.29,0.27-0.45,0.38c-0.17,0.1-0.34,0.2-0.52,0.27c-0.18,0.08-0.37,0.13-0.56,0.17C36.39,52.98,36.2,53,36,53z"/>
</g>
</svg>
