<?xml version="1.0" encoding="utf-8"?>
<!-- Generator: Adobe Illustrator 28.1.0, SVG Export Plug-In . SVG Version: 6.00 Build 0)  -->
<svg version="1.1" id="Layer_1" xmlns="http://www.w3.org/2000/svg" xmlns:xlink="http://www.w3.org/1999/xlink" x="0px" y="0px"
	 viewBox="0 0 72 72" style="enable-background:new 0 0 72 72;" xml:space="preserve">
<g>
	<path d="M9.73,52.68h9.77h36.35h5.65v-6h-2.65l1.48-2.97c0.76-1.52,1.16-3.22,1.16-4.92v-4.11v-6V18.63c0-1.83-1.37-3.32-3.18-3.49
		h0C54.45,14.8,20.11,12.8,6.47,47.9c-0.42,1.08-0.28,2.29,0.37,3.25C7.5,52.11,8.58,52.68,9.73,52.68z M55.5,21.01v7.67h-3v-4.5H42
		v4.5H28.58C39.07,21.62,50.49,20.92,55.5,21.01z M21.54,34.68H55.5v4.11c0,0.77-0.18,1.55-0.53,2.24l-2.83,5.65H19.5h-5.99
		C15.78,41.82,18.54,37.89,21.54,34.68z"/>
	<path d="M45,43.91c0.2,0,0.39-0.02,0.59-0.06c0.19-0.03,0.38-0.09,0.56-0.17c0.18-0.07,0.35-0.16,0.52-0.27
		c0.16-0.11,0.31-0.24,0.45-0.37C47.68,42.48,48,41.7,48,40.91s-0.32-1.56-0.88-2.12c-0.14-0.14-0.29-0.26-0.45-0.37
		c-0.17-0.11-0.34-0.2-0.52-0.28c-0.18-0.07-0.37-0.13-0.56-0.17c-0.98-0.19-2.01,0.13-2.71,0.82C42.32,39.35,42,40.12,42,40.91
		s0.32,1.57,0.88,2.13C43.44,43.59,44.21,43.91,45,43.91z"/>
	<path d="M25.85,61.27c0.18,0.08,0.37,0.13,0.56,0.17c0.2,0.04,0.4,0.06,0.59,0.06c0.79,0,1.56-0.32,2.12-0.88
		C29.68,60.06,30,59.29,30,58.5c0-0.2-0.02-0.39-0.06-0.59c-0.04-0.19-0.09-0.38-0.17-0.56C29.7,57.17,29.6,57,29.5,56.83
		c-0.11-0.16-0.24-0.31-0.38-0.45c-0.69-0.7-1.73-1.02-2.71-0.82c-0.19,0.04-0.38,0.1-0.56,0.17c-0.18,0.08-0.35,0.17-0.51,0.28
		c-0.17,0.11-0.32,0.23-0.46,0.37s-0.27,0.29-0.37,0.45c-0.11,0.17-0.2,0.34-0.28,0.52c-0.08,0.18-0.13,0.37-0.17,0.56
		C24.02,58.11,24,58.3,24,58.5c0,0.79,0.32,1.56,0.88,2.12c0.14,0.14,0.29,0.27,0.46,0.37C25.5,61.1,25.67,61.2,25.85,61.27z"/>
	<path d="M36.59,61.44c0.19-0.04,0.38-0.09,0.56-0.17c0.18-0.07,0.35-0.17,0.52-0.27c0.16-0.11,0.31-0.24,0.45-0.38
		C38.68,60.06,39,59.29,39,58.5c0-0.19-0.02-0.39-0.06-0.59c-0.04-0.19-0.09-0.38-0.17-0.56C38.7,57.17,38.6,57,38.5,56.83
		c-0.11-0.16-0.24-0.31-0.38-0.45c-0.14-0.14-0.29-0.27-0.45-0.37c-0.17-0.11-0.34-0.2-0.52-0.28c-0.18-0.07-0.37-0.13-0.56-0.17
		c-0.98-0.2-2.02,0.12-2.71,0.82c-0.14,0.14-0.26,0.29-0.37,0.45c-0.11,0.17-0.2,0.34-0.28,0.52c-0.08,0.18-0.13,0.37-0.17,0.56
		c-0.04,0.2-0.06,0.4-0.06,0.59c0,0.79,0.32,1.56,0.88,2.12c0.56,0.56,1.33,0.88,2.12,0.88C36.2,61.5,36.39,61.48,36.59,61.44z"/>
	<path d="M43.85,61.27c0.18,0.08,0.37,0.13,0.56,0.17c0.2,0.04,0.4,0.06,0.59,0.06c0.79,0,1.56-0.32,2.12-0.88
		C47.68,60.06,48,59.29,48,58.5s-0.32-1.56-0.88-2.12c-0.69-0.7-1.73-1.02-2.71-0.82c-0.19,0.04-0.38,0.09-0.56,0.17
		c-0.18,0.07-0.35,0.17-0.52,0.28c-0.16,0.1-0.31,0.23-0.45,0.37C42.32,56.94,42,57.71,42,58.5s0.32,1.56,0.88,2.12
		c0.14,0.14,0.29,0.26,0.45,0.37C43.5,61.1,43.67,61.2,43.85,61.27z"/>
</g>
</svg>
