<?xml version="1.0" encoding="utf-8"?>
<!-- Generator: Adobe Illustrator 28.1.0, SVG Export Plug-In . SVG Version: 6.00 Build 0)  -->
<svg version="1.1" id="Layer_1" xmlns="http://www.w3.org/2000/svg" xmlns:xlink="http://www.w3.org/1999/xlink" x="0px" y="0px"
	 viewBox="0 0 72 72" style="enable-background:new 0 0 72 72;" xml:space="preserve">
<g>
	<g>
		<path d="M65.76,11.35c-2.49,1.48-5.27,2.55-8.21,3.13c-2.36-2.51-5.72-4.08-9.43-4.08c-7.14,0-12.93,5.78-12.93,12.92
			c0,1.01,0.12,2,0.34,2.95c-10.74-0.54-20.26-5.69-26.64-13.51c-1.11,1.92-1.75,4.13-1.75,6.5c0,4.48,2.28,8.44,5.75,10.76
			c-2.12-0.07-4.11-0.65-5.86-1.62c0,0.05,0,0.11,0,0.16c0,6.27,4.46,11.48,10.36,12.68c-1.08,0.29-2.22,0.45-3.4,0.45
			c-0.83,0-1.64-0.08-2.44-0.24c1.65,5.13,6.42,8.88,12.07,8.98c-4.42,3.47-9.99,5.53-16.05,5.53c-1.05,0-2.07-0.06-3.08-0.18
			c5.72,3.67,12.51,5.81,19.81,5.81c23.77,0,36.78-19.69,36.78-36.77c0-0.56-0.01-1.12-0.03-1.67c2.52-1.82,4.71-4.1,6.45-6.69
			c-2.32,1.03-4.81,1.72-7.43,2.04C62.74,16.9,64.79,14.36,65.76,11.35z"/>
	</g>
</g>
</svg>
