<?xml version="1.0" encoding="utf-8"?>
<!-- Generator: Adobe Illustrator 28.1.0, SVG Export Plug-In . SVG Version: 6.00 Build 0)  -->
<svg version="1.1" id="Layer_1" xmlns="http://www.w3.org/2000/svg" xmlns:xlink="http://www.w3.org/1999/xlink" x="0px" y="0px"
	 viewBox="0 0 72 72" style="enable-background:new 0 0 72 72;" xml:space="preserve">
<g>
	<g>
		<path d="M11,61.5h5c0.28,0,0.5-0.22,0.5-0.5v-8.5H25c0.28,0,0.5-0.22,0.5-0.5v-8.5H34c0.28,0,0.5-0.22,0.5-0.5v-8.5H43
			c0.28,0,0.5-0.22,0.5-0.5v-8.5H52c0.28,0,0.5-0.22,0.5-0.5v-8.5H61c0.28,0,0.5-0.22,0.5-0.5v-5c0-0.28-0.22-0.5-0.5-0.5H47
			c-0.28,0-0.5,0.22-0.5,0.5v8.5H38c-0.28,0-0.5,0.22-0.5,0.5v8.5H29c-0.28,0-0.5,0.22-0.5,0.5v8.5H20c-0.28,0-0.5,0.22-0.5,0.5v8.5
			H11c-0.28,0-0.5,0.22-0.5,0.5v14C10.5,61.28,10.72,61.5,11,61.5z"/>
	</g>
</g>
</svg>
