<?xml version="1.0" encoding="utf-8"?>
<!-- Generator: Adobe Illustrator 28.1.0, SVG Export Plug-In . SVG Version: 6.00 Build 0)  -->
<svg version="1.1" id="Layer_1" xmlns="http://www.w3.org/2000/svg" xmlns:xlink="http://www.w3.org/1999/xlink" x="0px" y="0px"
	 viewBox="0 0 72 72" style="enable-background:new 0 0 72 72;" xml:space="preserve">
<path d="M49.39,62.03l-14.3-9.53H13c-3.87,0-7-3.13-7-7V18c0-3.87,3.13-7,7-7h46c3.87,0,7,3.13,7,7v27.5c0,3.87-3.13,7-7,7h-6.5
	v7.87C52.5,61.97,50.72,62.92,49.39,62.03z M13,17c-0.55,0-1,0.45-1,1v27.5c0,0.55,0.45,1,1,1h23.91l9.59,6.39V46.5H59
	c0.55,0,1-0.45,1-1V18c0-0.55-0.45-1-1-1H13z"/>
</svg>
