<?xml version="1.0" encoding="utf-8"?>
<!-- Generator: Adobe Illustrator 28.1.0, SVG Export Plug-In . SVG Version: 6.00 Build 0)  -->
<svg version="1.1" id="Layer_1" xmlns="http://www.w3.org/2000/svg" xmlns:xlink="http://www.w3.org/1999/xlink" x="0px" y="0px"
	 viewBox="0 0 72 72" style="enable-background:new 0 0 72 72;" xml:space="preserve">
<g>
	<path d="M32.05,54.29c0.2,0.2,0.51,0.2,0.71,0l3.54-3.54c0.2-0.2,0.2-0.51,0-0.71L25.24,39H56.5c0.28,0,0.5-0.22,0.5-0.5v-5
		c0-0.28-0.22-0.5-0.5-0.5H25.24l11.05-11.05c0.2-0.2,0.2-0.51,0-0.71l-3.54-3.54c-0.2-0.2-0.51-0.2-0.71,0L15.88,33.88
		c-1.17,1.17-1.17,3.07,0,4.24L32.05,54.29z"/>
</g>
</svg>
