<?xml version="1.0" encoding="utf-8"?>
<!-- Generator: Adobe Illustrator 28.1.0, SVG Export Plug-In . SVG Version: 6.00 Build 0)  -->
<svg version="1.1" id="Layer_1" xmlns="http://www.w3.org/2000/svg" xmlns:xlink="http://www.w3.org/1999/xlink" x="0px" y="0px"
	 viewBox="0 0 72 72" style="enable-background:new 0 0 72 72;" xml:space="preserve">
<g>
	<path d="M22.84,61.82c0.07,0,0.15,0,0.22,0c5.55-0.16,9.03-6.4,11.17-11.07c0.17-0.38,0.33-0.75,0.49-1.12
		c-0.18,2.72,0.34,5.02,1.56,6.92c2.24,3.49,6.65,5.27,13.09,5.27c6.68,0,11.21-1.91,13.48-5.68c2.45-4.07,1.82-9.86-1.83-16.73
		c-1.22-2.3-2.78-4.94-4.7-7.05c3.13-2.17,5.18-5.78,5.18-9.86c0-6.62-5.38-12-12-12s-12,5.38-12,12c0,3.88,1.86,7.33,4.73,9.53
		c-1.97,2.21-3.47,5.09-4.59,7.54c-0.17,0.38-0.33,0.75-0.49,1.12c0.18-2.72-0.34-5.02-1.56-6.92c-0.94-1.47-2.29-2.61-3.99-3.47
		c1.8-2.1,2.9-4.82,2.9-7.8c0-6.62-5.38-12-12-12s-12,5.38-12,12c0,2.97,1.09,5.69,2.89,7.79c-1.89,0.94-3.36,2.22-4.37,3.89
		c-2.45,4.07-1.82,9.86,1.83,16.73C13.35,55.61,17.29,61.82,22.84,61.82z M49.5,16.5c3.31,0,6,2.69,6,6s-2.69,6-6,6s-6-2.69-6-6
		S46.19,16.5,49.5,16.5z M43.1,42.07c2.52-5.52,4.7-7.53,5.89-7.57c0.45,0,2.79,0.3,6.73,7.73c2.53,4.77,3.25,8.71,1.99,10.82
		c-1.38,2.29-5.29,2.77-8.34,2.77c-2.93,0-6.71-0.44-8.04-2.51C40.43,51.91,40.01,48.83,43.1,42.07z M28.77,48.25
		c-2.52,5.52-4.7,7.53-5.89,7.57c-0.43,0-2.79-0.3-6.73-7.73c-2.53-4.77-3.25-8.71-1.99-10.82c1.38-2.29,5.29-2.77,8.34-2.77
		c2.93,0,6.71,0.44,8.04,2.51C31.44,38.41,31.86,41.49,28.77,48.25z M16.5,22.5c0-3.31,2.69-6,6-6s6,2.69,6,6s-2.69,6-6,6
		S16.5,25.81,16.5,22.5z"/>
</g>
</svg>
