<?xml version="1.0" encoding="utf-8"?>
<!-- Generator: Adobe Illustrator 28.1.0, SVG Export Plug-In . SVG Version: 6.00 Build 0)  -->
<svg version="1.1" id="Layer_1" xmlns="http://www.w3.org/2000/svg" xmlns:xlink="http://www.w3.org/1999/xlink" x="0px" y="0px"
	 viewBox="0 0 72 72" style="enable-background:new 0 0 72 72;" xml:space="preserve">
<g>
	<path d="M48.73,51.73H25.86c-0.28,0-0.5-0.22-0.5-0.5v-5c0-0.28,0.22-0.5,0.5-0.5h19.86V25.86c0-0.28,0.22-0.5,0.5-0.5h5
		c0.28,0,0.5,0.22,0.5,0.5v22.86C51.73,50.38,50.38,51.73,48.73,51.73z"/>
	<path d="M45,49.24L19.38,23.63c-0.2-0.2-0.2-0.51,0-0.71l3.54-3.54c0.2-0.2,0.51-0.2,0.71,0L49.24,45L45,49.24z"/>
</g>
</svg>
