<?xml version="1.0" encoding="utf-8"?>
<!-- Generator: Adobe Illustrator 28.1.0, SVG Export Plug-In . SVG Version: 6.00 Build 0)  -->
<svg version="1.1" id="Layer_1" xmlns="http://www.w3.org/2000/svg" xmlns:xlink="http://www.w3.org/1999/xlink" x="0px" y="0px"
	 viewBox="0 0 72 72" style="enable-background:new 0 0 72 72;" xml:space="preserve">
<g>
	<path d="M51.23,46.64h-5c-0.28,0-0.5-0.22-0.5-0.5V26.27H25.86c-0.28,0-0.5-0.22-0.5-0.5v-5c0-0.28,0.22-0.5,0.5-0.5h22.86
		c1.66,0,3,1.34,3,3v22.86C51.73,46.41,51.5,46.64,51.23,46.64z"/>
	<path d="M22.92,52.62l-3.54-3.54c-0.2-0.2-0.2-0.51,0-0.71L45,22.76L49.24,27L23.63,52.62C23.43,52.81,23.11,52.81,22.92,52.62z"/>
</g>
</svg>
