<?xml version="1.0" encoding="utf-8"?>
<!-- Generator: Adobe Illustrator 28.1.0, SVG Export Plug-In . SVG Version: 6.00 Build 0)  -->
<svg version="1.1" id="Layer_1" xmlns="http://www.w3.org/2000/svg" xmlns:xlink="http://www.w3.org/1999/xlink" x="0px" y="0px"
	 viewBox="0 0 72 72" style="enable-background:new 0 0 72 72;" xml:space="preserve">
<g>
	<path d="M53.41,28.18c1-1.8,1.59-3.94,1.59-6.24c0-6.31-4.37-11.44-9.75-11.44c-4.31,0-7.96,3.29-9.25,7.85
		c-1.29-4.55-4.94-7.85-9.25-7.85c-5.38,0-9.75,5.13-9.75,11.44c0,2.3,0.59,4.45,1.59,6.24c-3.48-2.43-7.98-2.39-10.69,0.32
		c-3.1,3.1-2.71,8.54,0.88,12.12c1.96,1.96,4.48,2.97,6.86,2.97c0.24,0,0.47-0.01,0.71-0.03C15.49,45.84,15,48.3,15,50.88
		c0,3.43,0.87,5.84,2.65,7.34c2.77,2.34,6.49,1.71,10.8,0.98c2.3-0.39,4.91-0.83,7.55-0.83s5.25,0.44,7.55,0.83
		c2.03,0.34,3.92,0.66,5.65,0.66c1.95,0,3.68-0.41,5.15-1.65c1.78-1.51,2.65-3.91,2.65-7.34c0-2.58-0.49-5.04-1.34-7.32
		c0.23,0.02,0.47,0.03,0.71,0.03c2.38,0,4.9-1.01,6.86-2.97c3.58-3.58,3.97-9.02,0.88-12.12C61.39,25.79,56.89,25.75,53.41,28.18z
		 M47.2,33.14c1.07-0.26,2.08-0.73,2.99-1.36c-0.49,0.89-0.82,1.83-1,2.78C48.56,34.04,47.89,33.58,47.2,33.14z M22.81,34.55
		c-0.18-0.94-0.52-1.88-1-2.78c0.91,0.63,1.92,1.11,2.99,1.36C24.11,33.58,23.44,34.04,22.81,34.55z M45.25,16.5
		c2.03,0,3.75,2.49,3.75,5.44s-1.72,5.44-3.75,5.44s-3.75-2.49-3.75-5.44S43.22,16.5,45.25,16.5z M38.35,30.02
		c-0.77-0.09-1.56-0.14-2.35-0.14s-1.58,0.05-2.35,0.14c1.06-1.25,1.87-2.78,2.35-4.49C36.48,27.24,37.29,28.77,38.35,30.02z
		 M26.75,16.5c2.03,0,3.75,2.49,3.75,5.44s-1.72,5.44-3.75,5.44S23,24.88,23,21.94S24.72,16.5,26.75,16.5z M13.02,36.38
		c-1.29-1.29-1.53-2.98-0.88-3.63c0.23-0.23,0.59-0.35,1.02-0.35c0.78,0,1.78,0.39,2.61,1.23c1.29,1.29,1.53,2.98,0.88,3.63
		C16,37.9,14.31,37.67,13.02,36.38z M50.48,53.64c-0.64,0.54-3.82,0-5.93-0.35c-2.53-0.43-5.4-0.91-8.55-0.91s-6.02,0.48-8.55,0.91
		c-2.1,0.35-5.29,0.89-5.93,0.35C21.5,53.62,21,53.17,21,50.88c0-8.27,6.73-15,15-15s15,6.73,15,15C51,53.17,50.5,53.62,50.48,53.64
		z M58.98,36.38c-1.29,1.29-2.99,1.52-3.63,0.88c-0.65-0.65-0.42-2.34,0.88-3.63c0.83-0.83,1.83-1.23,2.61-1.23
		c0.43,0,0.79,0.12,1.02,0.35C60.51,33.4,60.27,35.09,58.98,36.38z"/>
</g>
</svg>
