<?xml version="1.0" encoding="utf-8"?>
<!-- Generator: Adobe Illustrator 28.1.0, SVG Export Plug-In . SVG Version: 6.00 Build 0)  -->
<svg version="1.1" id="Layer_1" xmlns="http://www.w3.org/2000/svg" xmlns:xlink="http://www.w3.org/1999/xlink" x="0px" y="0px"
	 viewBox="0 0 72 72" style="enable-background:new 0 0 72 72;" xml:space="preserve">
<path d="M59.84,19.82L37.34,8.57c-0.84-0.42-1.84-0.42-2.68,0l-22.5,11.25c-1.02,0.51-1.66,1.55-1.66,2.68v25
	c0,1.14,0.64,2.17,1.66,2.68l22.5,11.25c0.42,0.21,0.88,0.32,1.34,0.32s0.92-0.11,1.34-0.32l22.5-11.25
	c1.02-0.51,1.66-1.55,1.66-2.68v-25C61.5,21.36,60.86,20.32,59.84,19.82z M36,14.6l16.91,8.45L36,31.51l-16.91-8.45L36,14.6z
	 M16.5,26.24L34,34.99V54.4l-17.5-8.75V26.24z M38,54.4V34.99l17.5-8.75v19.41L38,54.4z"/>
</svg>
