<?xml version="1.0" encoding="utf-8"?>
<!-- Generator: Adobe Illustrator 28.1.0, SVG Export Plug-In . SVG Version: 6.00 Build 0)  -->
<svg version="1.1" id="Layer_1" xmlns="http://www.w3.org/2000/svg" xmlns:xlink="http://www.w3.org/1999/xlink" x="0px" y="0px"
	 viewBox="0 0 72 72" style="enable-background:new 0 0 72 72;" xml:space="preserve">
<path d="M65.95,24.88c-0.45-6.43-4.11-11.62-9.55-13.55c-3.09-1.1-10.95-2.51-20.4,6.21c-9.45-8.72-17.31-7.31-20.4-6.21
	c-5.44,1.93-9.1,7.12-9.55,13.55C5.71,29.7,6.76,46.58,34.61,61.16L36,61.89l1.39-0.73C65.24,46.58,66.29,29.7,65.95,24.88z
	 M12.03,25.3c0.29-4.07,2.37-7.18,5.57-8.32c0.92-0.33,1.89-0.48,2.9-0.48c4.09,0,8.86,2.58,13.3,7.32l1.12,1.19l3.15,9.96
	l-8.91,4.45l3.43,13.71C16.78,43.51,11.51,32.65,12.03,25.3z M37.06,54.5l-3.23-12.93l9.09-4.55l-4.31-13.64
	c5.43-5.6,11.29-8,15.78-6.41c3.2,1.14,5.28,4.25,5.57,8.32C60.51,33,54.7,44.55,37.06,54.5z"/>
</svg>
