<?xml version="1.0" encoding="utf-8"?>
<!-- Generator: Adobe Illustrator 28.1.0, SVG Export Plug-In . SVG Version: 6.00 Build 0)  -->
<svg version="1.1" id="Layer_1" xmlns="http://www.w3.org/2000/svg" xmlns:xlink="http://www.w3.org/1999/xlink" x="0px" y="0px"
	 viewBox="0 0 72 72" style="enable-background:new 0 0 72 72;" xml:space="preserve">
<g>
	<path d="M60.08,25.64c-3.25-4.04-7.8-6.39-12.1-6.39c-5.69,0-8.09,2.71-12.04,2.71c-4.07,0-7.16-2.7-12.08-2.7
		c-4.83,0-9.97,2.94-13.22,7.95c-4.6,7.06-3.81,20.34,3.63,31.67c2.66,4.04,6.21,8.59,10.84,8.63c4.13,0.04,5.3-2.63,10.89-2.65
		c5.6-0.05,6.67,2.68,10.79,2.64c4.63-0.03,8.38-5.08,11.04-9.13c1.9-2.89,2.61-4.36,4.09-7.64C51.18,46.66,49.45,31.47,60.08,25.64
		z"/>
	<path d="M43.66,14.73c2.07-2.66,3.64-6.41,3.07-10.23c-3.38,0.23-7.32,2.39-9.63,5.18c-2.09,2.55-3.83,6.32-3.15,9.98
		C37.64,19.77,41.45,17.57,43.66,14.73z"/>
</g>
</svg>
