<?xml version="1.0" encoding="utf-8"?>
<!-- Generator: Adobe Illustrator 28.1.0, SVG Export Plug-In . SVG Version: 6.00 Build 0)  -->
<svg version="1.1" id="Layer_1" xmlns="http://www.w3.org/2000/svg" xmlns:xlink="http://www.w3.org/1999/xlink" x="0px" y="0px"
	 viewBox="0 0 72 72" style="enable-background:new 0 0 72 72;" xml:space="preserve">
<g>
	<g>
		<path d="M60.32,6H11.68C9.93,6,8.47,7.25,8.22,8.99C7.85,11.52,6,24.65,6,33.75s1.85,22.23,2.22,24.77
			c0.25,1.73,1.71,2.98,3.46,2.98h48.64c1.75,0,3.21-1.25,3.46-2.99C64.15,55.98,66,42.85,66,33.75s-1.85-22.23-2.22-24.77
			C63.53,7.25,62.07,6,60.32,6z M58.15,55.5H13.85C13.23,50.87,12,40.93,12,33.75c0-7.18,1.23-17.12,1.85-21.75h44.29
			C58.77,16.63,60,26.57,60,33.75C60,40.93,58.77,50.87,58.15,55.5z"/>
	</g>
	<g>
		<path d="M36,19.5c-9.1,0-16.5,7.4-16.5,16.5S26.9,52.5,36,52.5S52.5,45.1,52.5,36S45.1,19.5,36,19.5z M36,25.5
			c3.5,0,6.6,1.73,8.51,4.37c-5.31,0.83-8.46,2.93-11.31,4.84c-2.3,1.55-4.37,2.93-7.46,3.5C25.59,37.5,25.5,36.76,25.5,36
			C25.5,30.21,30.21,25.5,36,25.5z M36,46.5c-3.58,0-6.74-1.8-8.63-4.54c3.39-0.8,5.75-2.38,8.06-3.93
			c2.91-1.95,5.69-3.81,10.8-4.36C46.4,34.42,46.5,35.2,46.5,36C46.5,41.79,41.79,46.5,36,46.5z"/>
	</g>
	<g>
		<path d="M19.73,19.15c0.07,0.18,0.17,0.35,0.28,0.52c0.1,0.16,0.23,0.31,0.37,0.45C20.94,20.68,21.71,21,22.5,21
			s1.56-0.32,2.12-0.88c0.56-0.56,0.88-1.33,0.88-2.12c0-0.19-0.02-0.39-0.06-0.59c-0.04-0.19-0.09-0.38-0.17-0.56
			c-0.07-0.18-0.17-0.35-0.28-0.52c-0.1-0.16-0.23-0.31-0.37-0.45c-0.7-0.7-1.73-1.02-2.71-0.82c-0.19,0.04-0.38,0.09-0.56,0.17
			c-0.18,0.07-0.35,0.17-0.52,0.28c-0.16,0.1-0.31,0.23-0.45,0.37s-0.27,0.29-0.37,0.45c-0.11,0.17-0.21,0.34-0.28,0.52
			c-0.08,0.18-0.13,0.37-0.17,0.56c-0.04,0.2-0.06,0.4-0.06,0.59c0,0.2,0.02,0.39,0.06,0.59C19.6,18.78,19.65,18.97,19.73,19.15z"/>
	</g>
</g>
</svg>
