<?xml version="1.0" encoding="utf-8"?>
<!-- Generator: Adobe Illustrator 28.1.0, SVG Export Plug-In . SVG Version: 6.00 Build 0)  -->
<svg version="1.1" id="Layer_1" xmlns="http://www.w3.org/2000/svg" xmlns:xlink="http://www.w3.org/1999/xlink" x="0px" y="0px"
	 viewBox="0 0 72 72" style="enable-background:new 0 0 72 72;" xml:space="preserve">
<path d="M36,61.75c-0.46,0-0.92-0.11-1.34-0.32l-22.5-11.25c-1.02-0.51-1.66-1.55-1.66-2.68v-25c0-1.14,0.64-2.18,1.66-2.68
	l22.5-11.25c0.85-0.42,1.84-0.42,2.68,0l22.5,11.25c1.02,0.51,1.66,1.55,1.66,2.68v25c0,1.14-0.64,2.18-1.66,2.68l-22.5,11.25
	C36.92,61.64,36.46,61.75,36,61.75z M16.5,45.65L36,55.4l19.5-9.75V24.35L36,14.6l-19.5,9.75V45.65z"/>
<path d="M36,60.75c-1.1,0-2-0.9-2-2v-25c0-0.76,0.43-1.45,1.11-1.79l22.5-11.25c0.99-0.49,2.19-0.09,2.68,0.89
	c0.49,0.99,0.09,2.19-0.89,2.68L38,34.99v23.76C38,59.85,37.1,60.75,36,60.75z"/>
<path d="M36,35.75c-0.3,0-0.61-0.07-0.89-0.21l-22.5-11.25c-0.99-0.49-1.39-1.7-0.89-2.68c0.49-0.99,1.69-1.39,2.68-0.89l22.5,11.25
	c0.99,0.49,1.39,1.7,0.89,2.68C37.44,35.35,36.73,35.75,36,35.75z"/>
</svg>
