<?xml version="1.0" encoding="utf-8"?>
<!-- Generator: Adobe Illustrator 28.1.0, SVG Export Plug-In . SVG Version: 6.00 Build 0)  -->
<svg version="1.1" id="Layer_1" xmlns="http://www.w3.org/2000/svg" xmlns:xlink="http://www.w3.org/1999/xlink" x="0px" y="0px"
	 viewBox="0 0 72 72" style="enable-background:new 0 0 72 72;" xml:space="preserve">
<path d="M38.12,6.88c-1.17-1.17-3.07-1.17-4.24,0C33.11,7.65,15,25.98,15,45c0,11.58,9.42,21,21,21c11.58,0,21-9.42,21-21
	C57,25.98,38.89,7.65,38.12,6.88z M36,60c-8.27,0-15-6.73-15-15c0-12.95,10.41-26.31,15-31.56C40.58,18.69,51,32.05,51,45
	C51,53.27,44.27,60,36,60z"/>
</svg>
