<?xml version="1.0" encoding="utf-8"?>
<!-- Generator: Adobe Illustrator 28.1.0, SVG Export Plug-In . SVG Version: 6.00 Build 0)  -->
<svg version="1.1" id="Layer_1" xmlns="http://www.w3.org/2000/svg" xmlns:xlink="http://www.w3.org/1999/xlink" x="0px" y="0px"
	 viewBox="0 0 72 72" style="enable-background:new 0 0 72 72;" xml:space="preserve">
<g>
	<g>
		<path d="M33.5,48h5c0.28,0,0.5-0.22,0.5-0.5V20.74l5.65,5.65c0.2,0.2,0.51,0.2,0.71,0l3.54-3.54c0.2-0.2,0.2-0.51,0-0.71
			L38.12,11.38c-1.17-1.17-3.07-1.17-4.24,0L23.11,22.15c-0.2,0.2-0.2,0.51,0,0.71l3.54,3.54c0.2,0.2,0.51,0.2,0.71,0L33,20.74V47.5
			C33,47.78,33.22,48,33.5,48z"/>
	</g>
	<g>
		<path d="M56.5,55.5h-41c-0.28,0-0.5,0.22-0.5,0.5v5c0,0.28,0.22,0.5,0.5,0.5h41c0.28,0,0.5-0.22,0.5-0.5v-5
			C57,55.72,56.78,55.5,56.5,55.5z"/>
	</g>
</g>
</svg>
