<?xml version="1.0" encoding="utf-8"?>
<!-- Generator: Adobe Illustrator 28.1.0, SVG Export Plug-In . SVG Version: 6.00 Build 0)  -->
<svg version="1.1" id="Layer_1" xmlns="http://www.w3.org/2000/svg" xmlns:xlink="http://www.w3.org/1999/xlink" x="0px" y="0px"
	 viewBox="0 0 72 72" style="enable-background:new 0 0 72 72;" xml:space="preserve">
<g>
	<path d="M47.5,33H39v-8.5c0-0.28-0.22-0.5-0.5-0.5h-5c-0.28,0-0.5,0.22-0.5,0.5V33h-8.5c-0.28,0-0.5,0.22-0.5,0.5v5
		c0,0.28,0.22,0.5,0.5,0.5H33v8.5c0,0.28,0.22,0.5,0.5,0.5h5c0.28,0,0.5-0.22,0.5-0.5V39h8.5c0.28,0,0.5-0.22,0.5-0.5v-5
		C48,33.22,47.78,33,47.5,33z"/>
	<path d="M36,6C19.46,6,6,19.46,6,36s13.46,30,30,30s30-13.46,30-30S52.54,6,36,6z M36,60c-13.23,0-24-10.77-24-24s10.77-24,24-24
		s24,10.77,24,24S49.23,60,36,60z"/>
</g>
</svg>
