<?xml version="1.0" encoding="utf-8"?>
<!-- Generator: Adobe Illustrator 28.1.0, SVG Export Plug-In . SVG Version: 6.00 Build 0)  -->
<svg version="1.1" id="Layer_1" xmlns="http://www.w3.org/2000/svg" xmlns:xlink="http://www.w3.org/1999/xlink" x="0px" y="0px"
	 viewBox="0 0 72 72" style="enable-background:new 0 0 72 72;" xml:space="preserve">
<g>
	<path d="M45,33H27c-1.66,0-3,1.34-3,3c0,1.66,1.34,3,3,3h18c1.66,0,3-1.34,3-3C48,34.34,46.66,33,45,33z"/>
	<path d="M36,6C19.46,6,6,19.46,6,36s13.46,30,30,30s30-13.46,30-30S52.54,6,36,6z M36,60c-13.23,0-24-10.77-24-24
		c0-13.23,10.77-24,24-24c13.23,0,24,10.77,24,24C60,49.23,49.23,60,36,60z"/>
</g>
</svg>
