<?xml version="1.0" encoding="utf-8"?>
<!-- Generator: Adobe Illustrator 28.1.0, SVG Export Plug-In . SVG Version: 6.00 Build 0)  -->
<svg version="1.1" id="Layer_1" xmlns="http://www.w3.org/2000/svg" xmlns:xlink="http://www.w3.org/1999/xlink" x="0px" y="0px"
	 viewBox="0 0 72 72" style="enable-background:new 0 0 72 72;" xml:space="preserve">
<g>
	<g>
		<path d="M20.56,35.77c-0.15,2.53,1.8,4.69,4.33,4.84c0.09,0,0.18,0,0.27,0c2.55,0,4.6-2.05,4.58-4.6c0-2.55-2.05-4.6-4.6-4.58
			C22.7,31.43,20.68,33.34,20.56,35.77z"/>
	</g>
	<g>
		<path d="M3.43,34.59c-0.82-0.05-1.53,0.58-1.56,1.4s0.58,1.53,1.4,1.56c0.82,0.05,1.51-0.58,1.56-1.4
			C4.88,35.34,4.25,34.65,3.43,34.59z"/>
	</g>
	<g>
		<path d="M18.92,6.47c-0.73,0.36-1.02,1.25-0.65,1.98c0.36,0.75,1.25,1.05,2,0.67c0.73-0.36,1.02-1.27,0.65-2
			C20.56,6.39,19.65,6.1,18.92,6.47z"/>
	</g>
	<g>
		<path d="M24.92,17.25c1.13-0.56,1.58-1.95,1.02-3.07c-0.56-1.13-1.95-1.58-3.07-1.02c-1.13,0.56-1.58,1.95-1.02,3.07
			C22.41,17.36,23.79,17.81,24.92,17.25z"/>
	</g>
	<g>
		<path d="M9.25,22.83c0.87,0.56,2.04,0.33,2.62-0.55c0.56-0.87,0.33-2.04-0.55-2.62c-0.87-0.56-2.04-0.33-2.62,0.55
			C8.12,21.08,8.38,22.26,9.25,22.83z"/>
	</g>
	<g>
		<path d="M12.03,33.77c-1.27-0.07-2.35,0.89-2.42,2.16c-0.07,1.27,0.89,2.35,2.16,2.42c1.27,0.07,2.35-0.89,2.42-2.16
			C14.27,34.94,13.3,33.85,12.03,33.77z"/>
	</g>
	<g>
		<path d="M9.5,49.17c-0.93,0.47-1.31,1.6-0.84,2.55c0.47,0.93,1.6,1.31,2.55,0.84c0.93-0.47,1.31-1.6,0.84-2.55
			C11.57,49.08,10.43,48.7,9.5,49.17z"/>
	</g>
	<g>
		<path d="M18.41,29.03c1.25,0.82,2.93,0.47,3.73-0.78c0.82-1.25,0.47-2.93-0.78-3.73c-1.25-0.82-2.93-0.47-3.73,0.78
			C16.81,26.54,17.16,28.21,18.41,29.03z"/>
	</g>
	<g>
		<path d="M46.68,17.07c1.05,0.69,2.49,0.4,3.18-0.65s0.4-2.49-0.65-3.18c-1.05-0.69-2.49-0.4-3.18,0.65
			C45.32,14.96,45.61,16.37,46.68,17.07z"/>
	</g>
	<g>
		<path d="M51.37,8.98c0.69,0.45,1.6,0.25,2.05-0.44c0.45-0.69,0.25-1.6-0.44-2.05c-0.69-0.45-1.6-0.25-2.05,0.42
			C50.5,7.59,50.7,8.52,51.37,8.98z"/>
	</g>
	<g>
		<path d="M46.52,40.55c0.09,0,0.18,0,0.25,0c2.53,0,4.58-2.05,4.58-4.6c0.02-2.42-1.89-4.44-4.33-4.56
			c-2.53-0.15-4.71,1.8-4.84,4.33C42.04,38.25,43.99,40.43,46.52,40.55z"/>
	</g>
	<g>
		<path d="M35.12,26.63c0-0.71-0.16-1.42-0.49-2.07c-1.15-2.27-3.91-3.18-6.16-2.04c-2.27,1.16-3.18,3.93-2.04,6.18
			c0.78,1.55,2.36,2.53,4.11,2.53C33.06,31.23,35.12,29.17,35.12,26.63z"/>
	</g>
	<g>
		<path d="M62.41,22.83c0.93-0.47,1.29-1.62,0.82-2.55c-0.47-0.93-1.62-1.29-2.55-0.82s-1.29,1.6-0.84,2.53
			C60.33,22.92,61.46,23.3,62.41,22.83z"/>
	</g>
	<g>
		<path d="M53.19,29.1c1.33-0.67,1.87-2.29,1.2-3.62s-2.29-1.85-3.62-1.2c-1.33,0.67-1.87,2.29-1.2,3.62S51.86,29.77,53.19,29.1z"/>
	</g>
	<g>
		<path d="M33.99,6.27c-0.05,1.05,0.75,1.95,1.78,2.02c1.04,0.05,1.93-0.75,2-1.78c0.07-1.04-0.75-1.93-1.78-2
			C34.95,4.45,34.06,5.23,33.99,6.27z"/>
	</g>
	<g>
		<path d="M38.59,17.61c0.09-1.49-1.05-2.76-2.55-2.84c-1.49-0.09-2.76,1.05-2.84,2.55c-0.07,1.49,1.05,2.76,2.55,2.84
			C37.25,20.25,38.52,19.1,38.59,17.61z"/>
	</g>
	<g>
		<path d="M21.14,47.72c1.33-0.67,1.87-2.29,1.2-3.62c-0.67-1.33-2.29-1.87-3.62-1.2s-1.87,2.29-1.2,3.62
			C18.19,47.84,19.81,48.39,21.14,47.72z"/>
	</g>
	<g>
		<path d="M38.83,30.45c2.13,1.38,4.96,0.8,6.34-1.33s0.8-4.96-1.33-6.34c-0.75-0.49-1.62-0.75-2.51-0.75
			c-1.55,0-2.98,0.78-3.84,2.07C36.12,26.23,36.7,29.06,38.83,30.45z"/>
	</g>
	<g>
		<path d="M45.5,43.34c0-0.02,0-0.02-0.02-0.04c-1.15-2.27-3.91-3.18-6.16-2.04c-2.27,1.15-3.18,3.91-2.04,6.16
			c1.15,2.27,3.91,3.18,6.16,2.04C45.7,48.34,46.63,45.61,45.5,43.34z"/>
	</g>
	<g>
		<path d="M53.5,42.97c-1.25-0.82-2.93-0.47-3.73,0.78c-0.82,1.25-0.47,2.93,0.78,3.73c1.25,0.82,2.93,0.47,3.73-0.78
			C55.1,45.46,54.75,43.79,53.5,42.97z"/>
	</g>
	<g>
		<path d="M62.3,36.08c0.07-1.27-0.89-2.35-2.16-2.42s-2.35,0.89-2.42,2.16c-0.07,1.27,0.89,2.35,2.16,2.42
			C61.13,38.32,62.22,37.34,62.3,36.08z"/>
	</g>
	<g>
		<path d="M68.64,34.45c-0.82-0.05-1.53,0.58-1.56,1.4s0.58,1.53,1.4,1.56c0.82,0.05,1.51-0.58,1.56-1.4
			C70.08,35.19,69.46,34.5,68.64,34.45z"/>
	</g>
	<g>
		<path d="M62.66,49.17c-0.87-0.56-2.04-0.33-2.62,0.55c-0.56,0.87-0.33,2.04,0.55,2.62c0.87,0.56,2.04,0.33,2.62-0.55
			C63.79,50.92,63.53,49.74,62.66,49.17z"/>
	</g>
	<g>
		<path d="M20.52,63.02c-0.69-0.45-1.6-0.25-2.05,0.42c-0.45,0.69-0.25,1.6,0.42,2.05c0.69,0.45,1.6,0.25,2.05-0.42
			C21.41,64.41,21.21,63.48,20.52,63.02z"/>
	</g>
	<g>
		<path d="M51.64,62.88c-0.73,0.36-1.02,1.27-0.65,2c0.36,0.73,1.27,1.02,2,0.65c0.73-0.36,1.02-1.25,0.65-1.98
			C53.28,62.81,52.39,62.5,51.64,62.88z"/>
	</g>
	<g>
		<path d="M34.41,47.9c1.38-2.13,0.8-4.96-1.33-6.36c-2.13-1.38-4.96-0.8-6.36,1.33s-0.8,4.96,1.33,6.36
			c0.75,0.49,1.62,0.75,2.51,0.75C32.12,49.99,33.55,49.21,34.41,47.9z"/>
	</g>
	<g>
		<path d="M25.23,54.93c-1.05-0.69-2.49-0.4-3.18,0.65s-0.4,2.49,0.65,3.18s2.49,0.4,3.18-0.65C26.59,57.06,26.3,55.63,25.23,54.93z
			"/>
	</g>
	<g>
		<path d="M35.94,63.72c-1.04-0.05-1.93,0.75-2,1.78c-0.07,1.04,0.75,1.93,1.78,2c1.04,0.05,1.93-0.73,2-1.76
			C37.77,64.68,36.97,63.79,35.94,63.72z"/>
	</g>
	<g>
		<path d="M35.95,51.84c-1.49-0.09-2.76,1.05-2.84,2.55c-0.09,1.49,1.05,2.76,2.55,2.84c1.49,0.07,2.76-1.05,2.84-2.55
			C38.59,53.21,37.45,51.92,35.95,51.84z"/>
	</g>
	<g>
		<path d="M46.99,54.75c-1.13,0.58-1.58,1.96-1,3.09c0.58,1.13,1.96,1.58,3.09,1c1.13-0.56,1.58-1.95,1.02-3.07
			C49.52,54.64,48.14,54.17,46.99,54.75z"/>
	</g>
</g>
</svg>
