<?xml version="1.0" encoding="utf-8"?>
<!-- Generator: Adobe Illustrator 28.1.0, SVG Export Plug-In . SVG Version: 6.00 Build 0)  -->
<svg version="1.1" id="Layer_1" xmlns="http://www.w3.org/2000/svg" xmlns:xlink="http://www.w3.org/1999/xlink" x="0px" y="0px"
	 viewBox="0 0 72 72" style="enable-background:new 0 0 72 72;" xml:space="preserve">
<g>
	<path d="M54.5,66h-37c-3.86,0-7-3.14-7-7V17.5c0-3.86,3.14-7,7-7h37c3.86,0,7,3.14,7,7V59C61.5,62.86,58.36,66,54.5,66z M17.5,16.5
		c-0.55,0-1,0.45-1,1V59c0,0.55,0.45,1,1,1h37c0.55,0,1-0.45,1-1V17.5c0-0.55-0.45-1-1-1H17.5z"/>
</g>
<path d="M24,20h-3c-0.28,0-0.5-0.22-0.5-0.5v-12C20.5,7.22,20.72,7,21,7h3c0.28,0,0.5,0.22,0.5,0.5v12C24.5,19.78,24.28,20,24,20z"
	/>
<path d="M33,20h-3c-0.28,0-0.5-0.22-0.5-0.5v-12C29.5,7.22,29.72,7,30,7h3c0.28,0,0.5,0.22,0.5,0.5v12C33.5,19.78,33.28,20,33,20z"
	/>
<path d="M42,20h-3c-0.28,0-0.5-0.22-0.5-0.5v-12C38.5,7.22,38.72,7,39,7h3c0.28,0,0.5,0.22,0.5,0.5v12C42.5,19.78,42.28,20,42,20z"
	/>
<path d="M51,20h-3c-0.28,0-0.5-0.22-0.5-0.5v-12C47.5,7.22,47.72,7,48,7h3c0.28,0,0.5,0.22,0.5,0.5v12C51.5,19.78,51.28,20,51,20z"
	/>
</svg>
