<?xml version="1.0" encoding="utf-8"?>
<!-- Generator: Adobe Illustrator 28.1.0, SVG Export Plug-In . SVG Version: 6.00 Build 0)  -->
<svg version="1.1" id="Layer_1" xmlns="http://www.w3.org/2000/svg" xmlns:xlink="http://www.w3.org/1999/xlink" x="0px" y="0px"
	 viewBox="0 0 72 72" style="enable-background:new 0 0 72 72;" xml:space="preserve">
<path d="M20.86,66c-5.52,0-10.63-2.69-13.82-7.46c-1.19-1.78-2.01-3.81-2.4-5.92c-0.98-5.36,0.6-10.6,4.19-14.42
	C9.03,38,9.36,38,9.56,38.2l3.54,3.54c0.19,0.19,0.19,0.49,0.01,0.69c-1.77,1.94-2.74,4.43-2.74,7.08c0,2.8,1.09,5.44,3.08,7.42
	c4.09,4.09,10.75,4.09,14.85,0l28.64-28.64c4.09-4.09,4.09-10.76,0-14.85c-1.98-1.98-4.62-3.08-7.42-3.08s-5.44,1.09-7.42,3.08
	L22.98,32.53c-2.52,2.52-2.32,6.75,0.59,9.01c2.41,1.86,5.88,1.49,8.04-0.67L47.38,25.1c0.38-0.38,0.44-0.83,0.44-1.06
	c0-0.23-0.06-0.68-0.44-1.06c-0.58-0.58-1.54-0.58-2.12,0L29.7,38.54c-0.2,0.2-0.51,0.2-0.71,0L25.46,35c-0.2-0.2-0.2-0.51,0-0.71
	l15.37-15.37c2.7-2.7,7.03-3.17,10.05-0.84c3.65,2.82,3.9,8.11,0.74,11.26L35.71,45.26c-4.95,4.95-13.18,4.66-17.75-0.86
	c-3.98-4.81-3.39-11.95,1.03-16.37L37.56,9.47c2.87-2.87,6.62-4.76,10.67-5.06c6.28-0.47,12.19,2.54,15.57,8.15
	c0.77,1.27,1.34,2.67,1.7,4.11c1.45,5.91-0.23,11.77-4.32,15.86L32.53,61.17C29.41,64.28,25.27,66,20.86,66z"/>
</svg>
