<?xml version="1.0" encoding="utf-8"?>
<!-- Generator: Adobe Illustrator 28.1.0, SVG Export Plug-In . SVG Version: 6.00 Build 0)  -->
<svg version="1.1" id="Layer_1" xmlns="http://www.w3.org/2000/svg" xmlns:xlink="http://www.w3.org/1999/xlink" x="0px" y="0px"
	 viewBox="0 0 72 72" style="enable-background:new 0 0 72 72;" xml:space="preserve">
<path d="M36,39c-7.86,0-14.25-6.39-14.25-14.25S28.14,10.5,36,10.5s14.25,6.39,14.25,14.25S43.86,39,36,39z M36,16.5
	c-4.55,0-8.25,3.7-8.25,8.25S31.45,33,36,33s8.25-3.7,8.25-8.25S40.55,16.5,36,16.5z"/>
<path d="M36,66c-3.72,0-22.29-0.52-22.29-10.71C13.71,43,23.71,33,36,33s22.29,10,22.29,22.29C58.29,65.48,39.72,66,36,66z M36,39
	c-8.98,0-16.29,7.31-16.29,16.29c0,2.22,6.97,4.7,16.29,4.71c9.32-0.01,16.28-2.5,16.28-4.71C52.29,46.31,44.98,39,36,39z"/>
<path d="M24.72,39.41c-6.73,0-12.2-5.48-12.2-12.2S17.99,15,24.72,15c0.92,0,1.85,0.11,2.79,0.33c1.61,0.38,2.61,1.99,2.24,3.6
	c-0.38,1.61-1.99,2.62-3.6,2.24c-0.5-0.12-0.96-0.17-1.42-0.17c-3.42,0-6.2,2.78-6.2,6.2s2.78,6.2,6.2,6.2
	c1.38,0,2.69-0.45,3.8-1.31c1.31-1.02,3.19-0.78,4.21,0.53c1.02,1.31,0.78,3.19-0.53,4.21C30.03,38.52,27.45,39.41,24.72,39.41z"/>
<path d="M47.28,39.41c-2.73,0-5.31-0.89-7.48-2.57c-1.31-1.02-1.55-2.9-0.53-4.21c1.02-1.31,2.9-1.55,4.21-0.53
	c1.1,0.85,2.41,1.31,3.8,1.31c3.42,0,6.2-2.78,6.2-6.2S50.7,21,47.28,21c-0.46,0-0.93,0.06-1.42,0.17c-1.61,0.38-3.23-0.62-3.6-2.24
	c-0.38-1.61,0.62-3.23,2.24-3.6c0.94-0.22,1.88-0.33,2.79-0.33c6.73,0,12.2,5.48,12.2,12.2S54.01,39.41,47.28,39.41z"/>
<path d="M17.56,60.85c-0.17,0-0.35-0.02-0.52-0.05c-9.17-1.62-11.09-5.58-11.09-8.61c0-10.35,8.42-18.78,18.78-18.78
	c1.93,0,3.84,0.3,5.68,0.88c1.23,0.39,2.07,1.52,2.09,2.8c0.02,1.29-0.77,2.45-1.99,2.88c-6.46,2.32-10.79,8.47-10.79,15.31
	c0,0.3,0.08,0.54,0.28,0.81c0.71,0.99,0.75,2.31,0.1,3.35C19.54,60.33,18.58,60.85,17.56,60.85z M19.22,40.65
	c-4.3,2.06-7.28,6.46-7.28,11.53c0,0.36,0.54,0.93,1.83,1.5C14.13,48.8,16.09,44.24,19.22,40.65z"/>
<path d="M54.44,60.85c-1.02,0-1.98-0.52-2.54-1.4c-0.65-1.03-0.61-2.36,0.1-3.35c0.19-0.27,0.28-0.51,0.28-0.81
	c0-6.84-4.34-13-10.79-15.31c-1.21-0.43-2.01-1.59-1.99-2.88c0.02-1.29,0.87-2.41,2.09-2.8c1.84-0.58,3.75-0.88,5.68-0.88
	c10.35,0,18.78,8.42,18.78,18.78c0,3.03-1.92,6.99-11.09,8.61C54.79,60.83,54.62,60.85,54.44,60.85z M52.78,40.65
	c3.13,3.59,5.09,8.14,5.45,13.03c1.29-0.57,1.83-1.14,1.83-1.5C60.06,47.11,57.08,42.71,52.78,40.65z"/>
</svg>
