<?xml version="1.0" encoding="utf-8"?>
<!-- Generator: Adobe Illustrator 28.1.0, SVG Export Plug-In . SVG Version: 6.00 Build 0)  -->
<svg version="1.1" id="Layer_1" xmlns="http://www.w3.org/2000/svg" xmlns:xlink="http://www.w3.org/1999/xlink" x="0px" y="0px"
	 viewBox="0 0 72 72" style="enable-background:new 0 0 72 72;" xml:space="preserve">
<path d="M24.5,38h-4l0-15.05c0-8.34,6.39-15.52,14.72-15.93c8.9-0.44,16.28,6.68,16.28,15.48V24c0,0.28-0.22,0.5-0.5,0.5h-3
	c-0.28,0-0.5-0.22-0.5-0.5v-1.16c0-5.98-4.43-11.22-10.39-11.78C30.27,10.41,24.5,15.79,24.5,22.5V38z"/>
<path d="M50.5,66h-29c-6.08,0-11-4.92-11-11V33.5c0-0.28,0.22-0.5,0.5-0.5h50c0.28,0,0.5,0.22,0.5,0.5V55
	C61.5,61.08,56.58,66,50.5,66z M16.5,39v16c0,2.76,2.24,5,5,5h29c2.76,0,5-2.24,5-5V39H16.5z"/>
<path d="M38.5,57h-5c-0.28,0-0.5-0.22-0.5-0.5v-14c0-0.28,0.22-0.5,0.5-0.5h5c0.28,0,0.5,0.22,0.5,0.5v14C39,56.78,38.78,57,38.5,57
	z"/>
</svg>
