<?xml version="1.0" encoding="utf-8"?>
<!-- Generator: Adobe Illustrator 28.1.0, SVG Export Plug-In . SVG Version: 6.00 Build 0)  -->
<svg version="1.1" id="Layer_1" xmlns="http://www.w3.org/2000/svg" xmlns:xlink="http://www.w3.org/1999/xlink" x="0px" y="0px"
	 viewBox="0 0 72 72" style="enable-background:new 0 0 72 72;" xml:space="preserve">
<g>
	<path d="M59,11H13c-3.87,0-7,3.13-7,7v27.5c0,3.87,3.13,7,7,7h22.09l14.3,9.53c1.33,0.89,3.11-0.07,3.11-1.66V52.5H59
		c3.87,0,7-3.13,7-7V18C66,14.13,62.87,11,59,11z M60,45.5c0,0.55-0.45,1-1,1H46.5v6.39l-9.59-6.39H13c-0.55,0-1-0.45-1-1V18
		c0-0.55,0.45-1,1-1h46c0.55,0,1,0.45,1,1V45.5z"/>
</g>
</svg>
