<?xml version="1.0" encoding="utf-8"?>
<!-- Generator: Adobe Illustrator 28.1.0, SVG Export Plug-In . SVG Version: 6.00 Build 0)  -->
<svg version="1.1" id="Layer_1" xmlns="http://www.w3.org/2000/svg" xmlns:xlink="http://www.w3.org/1999/xlink" x="0px" y="0px"
	 viewBox="0 0 72 72" style="enable-background:new 0 0 72 72;" xml:space="preserve">
<g>
	<path d="M29.5,6h-14C15.22,6,15,6.22,15,6.5v59c0,0.28,0.22,0.5,0.5,0.5h14c0.28,0,0.5-0.22,0.5-0.5V63c0-3.57,3.13-6.42,6.79-5.95
		c3.02,0.39,5.21,3.11,5.21,6.16v2.29c0,0.28,0.22,0.5,0.5,0.5h14c0.28,0,0.5-0.22,0.5-0.5v-59C57,6.22,56.78,6,56.5,6h-14
		C42.22,6,42,6.22,42,6.5V9c0,3.57-3.13,6.42-6.79,5.95C32.19,14.56,30,11.84,30,8.79V6.5C30,6.22,29.78,6,29.5,6z M36,21
		c5.58,0,10.29-3.83,11.62-9H51v48h-3.38c-1.33-5.17-6.04-9-11.62-9s-10.29,3.83-11.62,9H21V12h3.38C25.71,17.17,30.42,21,36,21z"/>
	<path d="M26.57,42.06c-0.19,0.04-0.37,0.09-0.56,0.17c-0.18,0.07-0.35,0.17-0.51,0.28c-0.17,0.1-0.32,0.23-0.46,0.37
		c-0.56,0.56-0.88,1.33-0.88,2.12c0,0.2,0.02,0.39,0.06,0.59c0.04,0.19,0.1,0.38,0.17,0.56c0.08,0.18,0.17,0.35,0.28,0.52
		c0.11,0.16,0.23,0.31,0.37,0.45c0.14,0.14,0.29,0.27,0.46,0.38c0.16,0.1,0.33,0.2,0.51,0.27c0.19,0.08,0.37,0.13,0.56,0.17
		c0.2,0.04,0.4,0.06,0.59,0.06c0.2,0,0.39-0.02,0.59-0.06c0.19-0.04,0.38-0.09,0.56-0.17c0.18-0.07,0.35-0.17,0.52-0.27
		c0.16-0.11,0.32-0.24,0.45-0.38c0.14-0.14,0.27-0.29,0.38-0.45c0.1-0.17,0.2-0.34,0.27-0.52c0.08-0.18,0.13-0.37,0.17-0.56
		c0.04-0.2,0.06-0.39,0.06-0.59c0-0.79-0.32-1.56-0.88-2.12c-0.13-0.14-0.29-0.27-0.45-0.37c-0.17-0.11-0.34-0.21-0.52-0.28
		c-0.18-0.08-0.37-0.13-0.56-0.17C27.36,41.98,26.96,41.98,26.57,42.06z"/>
	<path d="M34.34,47.49c0.16,0.11,0.33,0.21,0.51,0.28c0.18,0.08,0.37,0.13,0.56,0.17C35.61,47.98,35.8,48,36,48
		c0.79,0,1.56-0.32,2.12-0.88C38.68,46.56,39,45.79,39,45c0-0.2-0.02-0.39-0.06-0.59c-0.04-0.19-0.09-0.38-0.17-0.56
		c-0.07-0.18-0.17-0.35-0.27-0.52c-0.11-0.16-0.24-0.31-0.38-0.45c-0.7-0.7-1.73-1.02-2.71-0.82c-0.19,0.04-0.38,0.1-0.56,0.17
		c-0.18,0.08-0.35,0.17-0.51,0.28c-0.17,0.11-0.32,0.23-0.46,0.37s-0.26,0.29-0.37,0.45c-0.11,0.17-0.2,0.34-0.28,0.52
		c-0.08,0.18-0.13,0.37-0.17,0.56C33.02,44.61,33,44.81,33,45c0,0.79,0.32,1.56,0.88,2.12C34.02,47.26,34.17,47.39,34.34,47.49z"/>
	<path d="M42.23,46.15c0.08,0.18,0.17,0.35,0.28,0.52c0.11,0.16,0.23,0.31,0.37,0.45c0.14,0.14,0.29,0.27,0.46,0.37
		c0.16,0.11,0.33,0.21,0.51,0.28c0.18,0.08,0.37,0.13,0.56,0.17C44.61,47.98,44.81,48,45,48c0.2,0,0.39-0.02,0.59-0.06
		c0.19-0.04,0.38-0.09,0.56-0.17c0.18-0.07,0.35-0.17,0.52-0.28c0.16-0.1,0.31-0.23,0.45-0.37c0.14-0.14,0.27-0.29,0.38-0.45
		c0.1-0.17,0.2-0.34,0.27-0.52c0.08-0.18,0.13-0.37,0.17-0.56C47.98,45.39,48,45.2,48,45c0-0.2-0.02-0.39-0.06-0.59
		c-0.04-0.19-0.09-0.38-0.17-0.56c-0.07-0.18-0.17-0.35-0.27-0.51c-0.11-0.17-0.24-0.32-0.38-0.46c-0.14-0.14-0.29-0.26-0.45-0.37
		c-0.17-0.11-0.34-0.2-0.52-0.28c-0.18-0.08-0.37-0.13-0.56-0.17c-0.39-0.08-0.79-0.08-1.18,0c-0.19,0.04-0.38,0.09-0.56,0.17
		c-0.18,0.08-0.35,0.17-0.51,0.28c-0.17,0.11-0.32,0.23-0.46,0.37C42.32,43.44,42,44.21,42,45c0,0.2,0.02,0.39,0.06,0.59
		C42.1,45.78,42.15,45.97,42.23,46.15z"/>
</g>
</svg>
