<?xml version="1.0" encoding="utf-8"?>
<!-- Generator: Adobe Illustrator 28.1.0, SVG Export Plug-In . SVG Version: 6.00 Build 0)  -->
<svg version="1.1" id="Layer_1" xmlns="http://www.w3.org/2000/svg" xmlns:xlink="http://www.w3.org/1999/xlink" x="0px" y="0px"
	 viewBox="0 0 72 72" style="enable-background:new 0 0 72 72;" xml:space="preserve">
<g>
	<path d="M62,37.5h-1.65l-7.89-15.79c-0.68-1.36-2.05-2.21-3.58-2.21H47v-4c0-2.21-1.79-4-4-4H29c-2.21,0-4,1.79-4,4v4h-1.88
		c-1.52,0-2.9,0.85-3.58,2.21L11.65,37.5H10c-2.21,0-4,1.79-4,4V51v6v5c0,2.21,1.79,4,4,4h2.5c2.21,0,4-1.79,4-4v-5h39v5
		c0,2.21,1.79,4,4,4H62c2.21,0,4-1.79,4-4v-5v-6v-9.5C66,39.29,64.21,37.5,62,37.5z M29,15.5h14v4H29V15.5z M16.44,45.59
		c-0.04,0.19-0.09,0.38-0.17,0.56C16.2,46.33,16.1,46.5,16,46.67c-0.11,0.16-0.24,0.31-0.38,0.45C15.06,47.68,14.29,48,13.5,48
		c-0.19,0-0.39-0.02-0.59-0.06c-0.19-0.04-0.38-0.09-0.56-0.17C12.17,47.7,12,47.6,11.83,47.5c-0.16-0.11-0.31-0.24-0.45-0.38
		c-0.14-0.14-0.26-0.29-0.37-0.45c-0.11-0.17-0.2-0.34-0.28-0.52c-0.07-0.18-0.13-0.37-0.17-0.56c-0.04-0.2-0.06-0.4-0.06-0.59
		c0-0.2,0.02-0.39,0.06-0.59c0.04-0.19,0.1-0.38,0.17-0.56c0.08-0.18,0.17-0.35,0.28-0.51c0.11-0.17,0.23-0.32,0.37-0.46
		s0.29-0.27,0.45-0.37c0.17-0.11,0.34-0.2,0.52-0.28c0.18-0.08,0.37-0.13,0.56-0.17c0.98-0.2,2.02,0.12,2.71,0.82
		c0.14,0.14,0.27,0.29,0.38,0.46c0.1,0.16,0.2,0.33,0.27,0.51c0.08,0.18,0.13,0.37,0.17,0.56c0.04,0.2,0.06,0.39,0.06,0.59
		S16.48,45.39,16.44,45.59z M18.35,37.5l6-12h23.29l6,12H18.35z M61.44,45.59c-0.04,0.19-0.09,0.38-0.17,0.56
		C61.2,46.33,61.1,46.5,61,46.67c-0.11,0.16-0.24,0.31-0.38,0.45C60.06,47.68,59.29,48,58.5,48c-0.19,0-0.39-0.02-0.59-0.06
		c-0.19-0.04-0.38-0.09-0.56-0.17C57.17,47.7,57,47.6,56.83,47.5c-0.16-0.11-0.31-0.24-0.45-0.38c-0.14-0.14-0.27-0.29-0.37-0.45
		c-0.11-0.17-0.21-0.34-0.28-0.52c-0.08-0.18-0.13-0.37-0.17-0.56c-0.04-0.2-0.06-0.4-0.06-0.59c0-0.2,0.02-0.39,0.06-0.59
		c0.04-0.19,0.09-0.38,0.17-0.56c0.07-0.18,0.17-0.35,0.28-0.51c0.1-0.17,0.23-0.32,0.37-0.46s0.29-0.27,0.45-0.37
		c0.17-0.11,0.34-0.2,0.52-0.28c0.18-0.08,0.37-0.13,0.56-0.17c0.98-0.2,2.01,0.12,2.71,0.82c0.14,0.14,0.27,0.29,0.38,0.46
		c0.1,0.16,0.2,0.33,0.27,0.51c0.08,0.18,0.13,0.37,0.17,0.56c0.04,0.2,0.06,0.39,0.06,0.59C61.5,45.19,61.48,45.39,61.44,45.59z"/>
</g>
</svg>
