<?xml version="1.0" encoding="utf-8"?>
<!-- Generator: Adobe Illustrator 28.1.0, SVG Export Plug-In . SVG Version: 6.00 Build 0)  -->
<svg version="1.1" id="Layer_1" xmlns="http://www.w3.org/2000/svg" xmlns:xlink="http://www.w3.org/1999/xlink" x="0px" y="0px"
	 viewBox="0 0 72 72" style="enable-background:new 0 0 72 72;" xml:space="preserve">
<g>
	<path d="M9,34.5h18c1.66,0,3-1.34,3-3v-18c0-1.66-1.34-3-3-3H9c-1.66,0-3,1.34-3,3v18C6,33.16,7.34,34.5,9,34.5z M12,16.5h12v12H12
		V16.5z"/>
	<path d="M63,10.5H36c-1.66,0-3,1.34-3,3v18c0,1.66,1.34,3,3,3h27c1.66,0,3-1.34,3-3v-18C66,11.84,64.66,10.5,63,10.5z M60,28.5H39
		v-12h21V28.5z"/>
	<path d="M45,37.5H9c-1.66,0-3,1.34-3,3v18c0,1.66,1.34,3,3,3h36c1.66,0,3-1.34,3-3v-18C48,38.84,46.66,37.5,45,37.5z M42,55.5H12
		v-12h30V55.5z"/>
	<path d="M63,37.5h-9c-1.66,0-3,1.34-3,3v18c0,1.66,1.34,3,3,3h9c1.66,0,3-1.34,3-3v-18C66,38.84,64.66,37.5,63,37.5z M60,55.5h-3
		v-12h3V55.5z"/>
</g>
</svg>
