<?xml version="1.0" encoding="utf-8"?>
<!-- Generator: Adobe Illustrator 28.1.0, SVG Export Plug-In . SVG Version: 6.00 Build 0)  -->
<svg version="1.1" id="Layer_1" xmlns="http://www.w3.org/2000/svg" xmlns:xlink="http://www.w3.org/1999/xlink" x="0px" y="0px"
	 viewBox="0 0 72 72" style="enable-background:new 0 0 72 72;" xml:space="preserve">
<g>
	<path d="M48.37,12.25c-8.95,0-16.38,6.54-17.82,15.09H24L9.27,23.66c-0.89-0.22-1.84-0.02-2.57,0.55
		c-0.73,0.57-1.15,1.44-1.15,2.36v3.77c0,1,0.5,1.94,1.33,2.49l12.21,8.17l-2.19,15.32c-0.12,0.86,0.13,1.73,0.7,2.39
		c0.57,0.66,1.4,1.03,2.27,1.03h30.18c0.87,0,1.7-0.38,2.27-1.03c0.57-0.66,0.83-1.53,0.7-2.39l-1.18-8.24
		c8.32-1.62,14.62-8.96,14.62-17.75C66.46,20.37,58.34,12.25,48.37,12.25z M20.28,32.6l-0.26,1.82l-4.49-3.01L20.28,32.6z
		 M23.32,53.75l2.92-20.41h17.43l1.71,11.97c0,0.04-0.01,0.08-0.01,0.12c0,0.33,0.07,0.64,0.16,0.93l1.06,7.39H23.32z M50.99,42.14
		l-1.75-12.22c-0.21-1.48-1.48-2.58-2.97-2.58h-9.6c1.34-5.22,6.07-9.09,11.7-9.09c6.67,0,12.09,5.42,12.09,12.09
		C60.46,36.11,56.4,40.94,50.99,42.14z"/>
</g>
</svg>
