<?xml version="1.0" encoding="utf-8"?>
<!-- Generator: Adobe Illustrator 28.1.0, SVG Export Plug-In . SVG Version: 6.00 Build 0)  -->
<svg version="1.1" id="Layer_1" xmlns="http://www.w3.org/2000/svg" xmlns:xlink="http://www.w3.org/1999/xlink" x="0px" y="0px"
	 viewBox="0 0 72 72" style="enable-background:new 0 0 72 72;" xml:space="preserve">
<path d="M59,61.5H13c-3.86,0-7-3.14-7-7v-28c0-3.86,3.14-7,7-7h46c3.86,0,7,3.14,7,7v28C66,58.36,62.86,61.5,59,61.5z M13,25.5
	c-0.55,0-1,0.45-1,1v28c0,0.55,0.45,1,1,1h46c0.55,0,1-0.45,1-1v-28c0-0.55-0.45-1-1-1H13z"/>
<path d="M45,34.5c-1.66,0-3-1.34-3-3V18c0-3.31-2.69-6-6-6s-6,2.69-6,6v13.5c0,1.66-1.34,3-3,3s-3-1.34-3-3V18c0-6.62,5.38-12,12-12
	s12,5.38,12,12v13.5C48,33.16,46.66,34.5,45,34.5z"/>
</svg>
