<?xml version="1.0" encoding="utf-8"?>
<!-- Generator: Adobe Illustrator 28.1.0, SVG Export Plug-In . SVG Version: 6.00 Build 0)  -->
<svg version="1.1" id="Layer_1" xmlns="http://www.w3.org/2000/svg" xmlns:xlink="http://www.w3.org/1999/xlink" x="0px" y="0px"
	 viewBox="0 0 72 72" style="enable-background:new 0 0 72 72;" xml:space="preserve">
<g>
	<g>
		<path d="M35.45,65.99C47.28,66.3,57,56.76,57,45C57,25.98,38.89,7.65,38.12,6.88l-1.77-1.77c-0.2-0.2-0.51-0.2-0.71,0l-1.77,1.77
			c-0.73,0.73-17.2,17.4-18.76,35.42C14.05,54.57,23.13,65.67,35.45,65.99z M36,13.44C40.58,18.69,51,32.05,51,45
			c0,8.27-6.73,15-15,15s-15-6.73-15-15C21,32.05,31.42,18.69,36,13.44z"/>
	</g>
</g>
</svg>
