<?xml version="1.0" encoding="utf-8"?>
<!-- Generator: Adobe Illustrator 28.1.0, SVG Export Plug-In . SVG Version: 6.00 Build 0)  -->
<svg version="1.1" id="Layer_1" xmlns="http://www.w3.org/2000/svg" xmlns:xlink="http://www.w3.org/1999/xlink" x="0px" y="0px"
	 viewBox="0 0 72 72" style="enable-background:new 0 0 72 72;" xml:space="preserve">
<g>
	<path d="M27,20h4.5c1.1,0,2-0.9,2-2s-0.9-2-2-2H27c-1.1,0-2,0.9-2,2S25.9,20,27,20z"/>
	<path d="M27,34c-1.1,0-2,0.9-2,2v4.5c0,1.1,0.9,2,2,2s2-0.9,2-2V36C29,34.9,28.1,34,27,34z"/>
	<path d="M50,6H22c-3.86,0-7,3.14-7,7v46c0,3.86,3.14,7,7,7h28c3.86,0,7-3.14,7-7V13C57,9.14,53.86,6,50,6z M22,12h28
		c0.55,0,1,0.45,1,1v12H21V13C21,12.45,21.45,12,22,12z M50,60H22c-0.55,0-1-0.45-1-1V29h30v30C51,59.55,50.55,60,50,60z"/>
</g>
</svg>
