<?xml version="1.0" encoding="utf-8"?>
<!-- Generator: Adobe Illustrator 28.1.0, SVG Export Plug-In . SVG Version: 6.00 Build 0)  -->
<svg version="1.1" id="Layer_1" xmlns="http://www.w3.org/2000/svg" xmlns:xlink="http://www.w3.org/1999/xlink" x="0px" y="0px"
	 viewBox="0 0 72 72" style="enable-background:new 0 0 72 72;" xml:space="preserve">
<g>
	<path d="M54.25,10.5h-30c-3.86,0-7,3.14-7,7v3h-3c-0.28,0-0.5,0.22-0.5,0.5v3c0,0.28,0.22,0.5,0.5,0.5h3v5h-3
		c-0.28,0-0.5,0.22-0.5,0.5v3c0,0.28,0.22,0.5,0.5,0.5h3v5h-3c-0.28,0-0.5,0.22-0.5,0.5v3c0,0.28,0.22,0.5,0.5,0.5h3v5h-3
		c-0.28,0-0.5,0.22-0.5,0.5v3c0,0.28,0.22,0.5,0.5,0.5h3v3c0,3.86,3.14,7,7,7h30c3.86,0,7-3.14,7-7v-37
		C61.25,13.64,58.11,10.5,54.25,10.5z M55.25,54.5c0,0.55-0.45,1-1,1h-30c-0.55,0-1-0.45-1-1v-3h3c0.28,0,0.5-0.22,0.5-0.5v-3
		c0-0.28-0.22-0.5-0.5-0.5h-3v-5h3c0.28,0,0.5-0.22,0.5-0.5v-3c0-0.28-0.22-0.5-0.5-0.5h-3v-5h3c0.28,0,0.5-0.22,0.5-0.5v-3
		c0-0.28-0.22-0.5-0.5-0.5h-3v-5h3c0.28,0,0.5-0.22,0.5-0.5v-3c0-0.28-0.22-0.5-0.5-0.5h-3v-3c0-0.55,0.45-1,1-1h30
		c0.55,0,1,0.45,1,1V54.5z"/>
</g>
</svg>
