<?xml version="1.0" encoding="utf-8"?>
<!-- Generator: Adobe Illustrator 28.1.0, SVG Export Plug-In . SVG Version: 6.00 Build 0)  -->
<svg version="1.1" id="Layer_1" xmlns="http://www.w3.org/2000/svg" xmlns:xlink="http://www.w3.org/1999/xlink" x="0px" y="0px"
	 viewBox="0 0 72 72" style="enable-background:new 0 0 72 72;" xml:space="preserve">
<g>
	<path d="M63,44h-1.5V20c0-3.86-3.14-7-7-7h-37c-3.86,0-7,3.14-7,7v24H9c-1.66,0-3,1.34-3,3v3c0,4.96,4.04,9,9,9h42
		c4.96,0,9-4.04,9-9v-3C66,45.34,64.66,44,63,44z M16.5,20c0-0.55,0.45-1,1-1h37c0.55,0,1,0.45,1,1v24h-39V20z M57,53H15
		c-1.65,0-3-1.35-3-3h1.5h45H60C60,51.65,58.65,53,57,53z"/>
</g>
</svg>
