<?xml version="1.0" encoding="utf-8"?>
<!-- Generator: Adobe Illustrator 28.1.0, SVG Export Plug-In . SVG Version: 6.00 Build 0)  -->
<svg version="1.1" id="Layer_1" xmlns="http://www.w3.org/2000/svg" xmlns:xlink="http://www.w3.org/1999/xlink" x="0px" y="0px"
	 viewBox="0 0 72 72" style="enable-background:new 0 0 72 72;" xml:space="preserve">
<path d="M13.15,66.89l-3.54-3.54c-0.2-0.2-0.2-0.51,0-0.71l17.04-17.04c0.2-0.2,0.51-0.2,0.71,0l3.54,3.54c0.2,0.2,0.2,0.51,0,0.71
	L13.85,66.89C13.66,67.08,13.34,67.08,13.15,66.89z"/>
<path d="M26.65,66.89L9.61,49.85c-0.2-0.2-0.2-0.51,0-0.71l3.54-3.54c0.2-0.2,0.51-0.2,0.71,0l17.04,17.04c0.2,0.2,0.2,0.51,0,0.71
	l-3.54,3.54C27.16,67.08,26.84,67.08,26.65,66.89z"/>
<g>
	<path d="M54.5,66H40.68c-0.11,0-0.22-0.04-0.31-0.11l-6.25-5C33.74,60.6,33.95,60,34.43,60H54.5c0.55,0,1-0.45,1-1V17.5
		c0-0.55-0.45-1-1-1h-37c-0.55,0-1,0.45-1,1v24.57c0,0.47-0.6,0.68-0.89,0.31l-5-6.25c-0.07-0.09-0.11-0.2-0.11-0.31V17.5
		c0-3.87,3.13-7,7-7h37c3.87,0,7,3.13,7,7V59C61.5,62.87,58.37,66,54.5,66z"/>
</g>
<path d="M24,20h-3c-0.28,0-0.5-0.22-0.5-0.5v-12C20.5,7.22,20.72,7,21,7h3c0.28,0,0.5,0.22,0.5,0.5v12C24.5,19.78,24.28,20,24,20z"
	/>
<path d="M33,20h-3c-0.28,0-0.5-0.22-0.5-0.5v-12C29.5,7.22,29.72,7,30,7h3c0.28,0,0.5,0.22,0.5,0.5v12C33.5,19.78,33.28,20,33,20z"
	/>
<path d="M42,20h-3c-0.28,0-0.5-0.22-0.5-0.5v-12C38.5,7.22,38.72,7,39,7h3c0.28,0,0.5,0.22,0.5,0.5v12C42.5,19.78,42.28,20,42,20z"
	/>
<path d="M51,20h-3c-0.28,0-0.5-0.22-0.5-0.5v-12C47.5,7.22,47.72,7,48,7h3c0.28,0,0.5,0.22,0.5,0.5v12C51.5,19.78,51.28,20,51,20z"
	/>
</svg>
