<?xml version="1.0" encoding="utf-8"?>
<!-- Generator: Adobe Illustrator 28.1.0, SVG Export Plug-In . SVG Version: 6.00 Build 0)  -->
<svg version="1.1" id="Layer_1" xmlns="http://www.w3.org/2000/svg" xmlns:xlink="http://www.w3.org/1999/xlink" x="0px" y="0px"
	 viewBox="0 0 72 72" style="enable-background:new 0 0 72 72;" xml:space="preserve">
<g>
	<path d="M20.77,34.85c-0.07-0.18-0.17-0.35-0.28-0.51c-0.1-0.17-0.23-0.32-0.37-0.46c-1.11-1.12-3.12-1.12-4.24,0
		c-0.14,0.14-0.26,0.29-0.37,0.46c-0.11,0.16-0.2,0.33-0.28,0.51c-0.07,0.18-0.13,0.37-0.17,0.56C15.02,35.61,15,35.8,15,36
		s0.02,0.39,0.06,0.59c0.04,0.19,0.1,0.38,0.17,0.56c0.08,0.18,0.17,0.35,0.28,0.52c0.11,0.16,0.23,0.31,0.37,0.45
		c0.14,0.14,0.29,0.27,0.46,0.37c0.16,0.11,0.33,0.21,0.51,0.28c0.18,0.08,0.37,0.13,0.57,0.17C17.61,38.98,17.81,39,18,39
		c0.2,0,0.39-0.02,0.59-0.06c0.19-0.04,0.38-0.09,0.56-0.17c0.18-0.07,0.35-0.17,0.52-0.28c0.16-0.1,0.31-0.23,0.45-0.37
		c0.14-0.14,0.27-0.29,0.37-0.45c0.11-0.17,0.21-0.34,0.28-0.52c0.08-0.18,0.13-0.37,0.17-0.56C20.98,36.39,21,36.2,21,36
		s-0.02-0.39-0.06-0.59C20.9,35.22,20.85,35.03,20.77,34.85z"/>
	<path d="M59,15H13c-3.86,0-7,3.14-7,7v28c0,3.86,3.14,7,7,7h46c3.86,0,7-3.14,7-7V22C66,18.14,62.86,15,59,15z M60,50
		c0,0.55-0.45,1-1,1H13c-0.55,0-1-0.45-1-1V22c0-0.55,0.45-1,1-1h46c0.55,0,1,0.45,1,1V50z"/>
</g>
</svg>
