<?xml version="1.0" encoding="utf-8"?>
<!-- Generator: Adobe Illustrator 28.1.0, SVG Export Plug-In . SVG Version: 6.00 Build 0)  -->
<svg version="1.1" id="Layer_1" xmlns="http://www.w3.org/2000/svg" xmlns:xlink="http://www.w3.org/1999/xlink" x="0px" y="0px"
	 viewBox="0 0 72 72" style="enable-background:new 0 0 72 72;" xml:space="preserve">
<g>
	<g>
		<path d="M46,6H26c-6.08,0-11,4.92-11,11v50.04c0,0.37,0.39,0.61,0.72,0.45L36,57.35l20.28,10.14c0.33,0.17,0.72-0.08,0.72-0.45V17
			C57,10.92,52.08,6,46,6z M51,58.15l-14.78-7.39c-0.14-0.07-0.31-0.07-0.45,0L21,58.15V17c0-2.76,2.24-5,5-5h20c2.76,0,5,2.24,5,5
			V58.15z"/>
	</g>
</g>
</svg>
