<?xml version="1.0" encoding="utf-8"?>
<!-- Generator: Adobe Illustrator 28.1.0, SVG Export Plug-In . SVG Version: 6.00 Build 0)  -->
<svg version="1.1" id="Layer_1" xmlns="http://www.w3.org/2000/svg" xmlns:xlink="http://www.w3.org/1999/xlink" x="0px" y="0px"
	 viewBox="0 0 72 72" style="enable-background:new 0 0 72 72;" xml:space="preserve">
<path d="M42.59,56.62c-0.24,0-0.48-0.01-0.72-0.04c-1.64-0.18-3.22-0.96-4.45-2.2l-19.8-19.8c-2.73-2.73-2.98-6.92-0.57-9.33
	l8.2-8.2c1.24-1.24,3.02-1.84,4.88-1.63c1.64,0.18,3.22,0.96,4.45,2.2l19.8,19.8c2.73,2.73,2.98,6.92,0.57,9.33l-8.2,8.2
	C45.67,56.03,44.18,56.62,42.59,56.62z M21.38,29.41c0,0.16,0.1,0.55,0.48,0.93l19.8,19.8c0.38,0.38,0.77,0.48,0.93,0.48l8.04-8.04
	c0-0.16-0.1-0.55-0.48-0.93l-19.8-19.8c-0.38-0.38-0.77-0.48-0.93-0.48L21.38,29.41z"/>
<path d="M53.68,60.04l-3.54-3.54c-0.2-0.2-0.2-0.51,0-0.71l5.66-5.66c0.2-0.2,0.51-0.2,0.71,0l3.54,3.54c0.2,0.2,0.2,0.51,0,0.71
	l-5.66,5.66C54.19,60.24,53.87,60.24,53.68,60.04z"/>
<path d="M38.5,36h-5c-0.28,0-0.5-0.22-0.5-0.5V5c0-0.28,0.22-0.5,0.5-0.5h5C38.78,4.5,39,4.72,39,5v30.5C39,35.78,38.78,36,38.5,36z
	"/>
</svg>
