<?xml version="1.0" encoding="utf-8"?>
<!-- Generator: Adobe Illustrator 28.1.0, SVG Export Plug-In . SVG Version: 6.00 Build 0)  -->
<svg version="1.1" id="Layer_1" xmlns="http://www.w3.org/2000/svg" xmlns:xlink="http://www.w3.org/1999/xlink" x="0px" y="0px"
	 viewBox="0 0 72 72" style="enable-background:new 0 0 72 72;" xml:space="preserve">
<g>
	<g>
		<path d="M19.67,33.51c-0.17-0.11-0.34-0.2-0.52-0.28c-0.18-0.07-0.37-0.13-0.56-0.17c-0.39-0.08-0.79-0.08-1.18,0
			c-0.19,0.04-0.38,0.1-0.56,0.17c-0.18,0.08-0.35,0.17-0.52,0.28c-0.16,0.11-0.31,0.23-0.45,0.37s-0.27,0.29-0.37,0.45
			c-0.11,0.17-0.2,0.34-0.28,0.52c-0.08,0.18-0.13,0.37-0.17,0.57C15.02,35.61,15,35.81,15,36c0,0.79,0.32,1.56,0.88,2.12
			c0.14,0.14,0.29,0.27,0.45,0.37c0.17,0.11,0.34,0.21,0.52,0.28c0.18,0.08,0.37,0.13,0.56,0.17C17.61,38.98,17.81,39,18,39
			c0.2,0,0.39-0.02,0.59-0.06c0.19-0.04,0.38-0.09,0.56-0.17c0.18-0.07,0.35-0.17,0.52-0.28c0.16-0.1,0.31-0.23,0.45-0.37
			c0.14-0.14,0.27-0.29,0.38-0.45c0.1-0.17,0.2-0.34,0.27-0.52c0.08-0.18,0.13-0.37,0.17-0.56C20.98,36.39,21,36.2,21,36
			c0-0.79-0.32-1.56-0.88-2.12C19.98,33.74,19.83,33.62,19.67,33.51z"/>
	</g>
	<g>
		<path d="M59,15H13c-3.86,0-7,3.14-7,7v28c0,3.86,3.14,7,7,7h46c3.86,0,7-3.14,7-7V22C66,18.14,62.86,15,59,15z M60,50
			c0,0.55-0.45,1-1,1H13c-0.55,0-1-0.45-1-1V22c0-0.55,0.45-1,1-1h46c0.55,0,1,0.45,1,1V50z"/>
	</g>
</g>
</svg>
