<?xml version="1.0" encoding="utf-8"?>
<!-- Generator: Adobe Illustrator 28.1.0, SVG Export Plug-In . SVG Version: 6.00 Build 0)  -->
<svg version="1.1" id="Layer_1" xmlns="http://www.w3.org/2000/svg" xmlns:xlink="http://www.w3.org/1999/xlink" x="0px" y="0px"
	 viewBox="0 0 72 72" style="enable-background:new 0 0 72 72;" xml:space="preserve">
<g>
	<path d="M4.5,6v6H6v25.5H4.5v6H6v12H4.5v6H6h9v6h6v-6h12v6h6v-6h12v6h6v-6h9h1.5v-6H66v-12h1.5v-6H66V12h1.5V6H66H6H4.5z M12,20h13
		v17.5H12V20z M43,20v17.5H29V20H43z M29,16v-4h14v4H29z M60,55.5H12v-12h48V55.5z M47,37.5V20h13v17.5H47z M60,16H47v-4h13V16z
		 M25,12v4H12v-4H25z"/>
</g>
</svg>
