<?xml version="1.0" encoding="utf-8"?>
<!-- Generator: Adobe Illustrator 28.1.0, SVG Export Plug-In . SVG Version: 6.00 Build 0)  -->
<svg version="1.1" id="Layer_1" xmlns="http://www.w3.org/2000/svg" xmlns:xlink="http://www.w3.org/1999/xlink" x="0px" y="0px"
	 viewBox="0 0 72 72" style="enable-background:new 0 0 72 72;" xml:space="preserve">
<g>
	<path d="M59,19.5H48v-6c0-1.66-1.34-3-3-3H27c-1.66,0-3,1.34-3,3v6H13c-3.86,0-7,3.14-7,7v28c0,3.86,3.14,7,7,7h46
		c3.86,0,7-3.14,7-7v-28C66,22.64,62.86,19.5,59,19.5z M25,55.5H13c-0.55,0-1-0.45-1-1v-28c0-0.55,0.45-1,1-1h12V55.5z M30,16.5h12
		v3H30V16.5z M43,55.5H29v-30h14V55.5z M60,54.5c0,0.55-0.45,1-1,1H47v-30h12c0.55,0,1,0.45,1,1V54.5z"/>
</g>
</svg>
