<?xml version="1.0" encoding="utf-8"?>
<!-- Generator: Adobe Illustrator 28.1.0, SVG Export Plug-In . SVG Version: 6.00 Build 0)  -->
<svg version="1.1" id="Layer_1" xmlns="http://www.w3.org/2000/svg" xmlns:xlink="http://www.w3.org/1999/xlink" x="0px" y="0px"
	 viewBox="0 0 72 72" style="enable-background:new 0 0 72 72;" xml:space="preserve">
<path d="M57,66H15c-4.96,0-9-4.04-9-9V15c0-4.96,4.04-9,9-9h42c4.96,0,9,4.04,9,9v42C66,61.96,61.96,66,57,66z M15,12
	c-1.65,0-3,1.35-3,3v42c0,1.65,1.35,3,3,3h42c1.65,0,3-1.35,3-3V15c0-1.65-1.35-3-3-3H15z"/>
<path d="M57,56H15c-4.41,0-8-3.59-8-8V15c0-4.41,3.59-8,8-8h42c4.41,0,8,3.59,8,8v33C65,52.41,61.41,56,57,56z M15,11
	c-2.21,0-4,1.79-4,4v33c0,2.21,1.79,4,4,4h42c2.21,0,4-1.79,4-4V15c0-2.21-1.79-4-4-4H15z"/>
</svg>
