<?xml version="1.0" encoding="utf-8"?>
<!-- Generator: Adobe Illustrator 28.1.0, SVG Export Plug-In . SVG Version: 6.00 Build 0)  -->
<svg version="1.1" id="Layer_1" xmlns="http://www.w3.org/2000/svg" xmlns:xlink="http://www.w3.org/1999/xlink" x="0px" y="0px"
	 viewBox="0 0 72 72" style="enable-background:new 0 0 72 72;" xml:space="preserve">
<g>
	<path d="M10.54,37.46c0.02,0.38,0.05,0.76,0.09,1.13c0,0.02,0,0.03,0.01,0.05c1.18,11.51,9.98,20.77,21.39,22.54
		c0.04,0.01,0.08,0.01,0.11,0.02c0.32,0.05,0.65,0.09,0.98,0.12c0.11,0.01,0.22,0.03,0.33,0.04c0.27,0.03,0.54,0.04,0.82,0.06
		c0.16,0.01,0.32,0.03,0.48,0.03c0.03,0,0.05,0,0.08,0.01c0.06,0,0.12,0,0.18,0c0.01,0,0.02,0,0.03,0c0.32,0.01,0.64,0.02,0.96,0.02
		c14.06,0,25.5-11.44,25.5-25.5S50.06,10.5,36,10.5c-0.38,0-0.75,0.01-1.12,0.03c-0.01,0-0.03,0-0.04,0c-0.03,0-0.05,0-0.08,0.01
		c-0.17,0.01-0.33,0.02-0.5,0.03c-0.27,0.02-0.54,0.04-0.81,0.06c-0.12,0.01-0.23,0.03-0.35,0.04c-0.32,0.04-0.64,0.07-0.96,0.12
		c-0.04,0.01-0.09,0.02-0.13,0.02c-11.41,1.78-20.2,11.03-21.38,22.54c0,0.02,0,0.03-0.01,0.05c-0.04,0.38-0.07,0.75-0.09,1.13
		c0,0.05-0.01,0.11-0.01,0.16c-0.02,0.43-0.03,0.86-0.03,1.3s0.01,0.87,0.03,1.3C10.54,37.36,10.54,37.41,10.54,37.46z M34.5,16.58
		c0.01,0,0.02,0,0.03,0c0.49-0.04,0.97-0.07,1.47-0.07c10.75,0,19.5,8.75,19.5,19.5S46.75,55.5,36,55.5c-0.5,0-0.99-0.04-1.47-0.07
		c-0.01,0-0.02,0-0.03,0V16.58z"/>
</g>
</svg>
