<?xml version="1.0" encoding="utf-8"?>
<!-- Generator: Adobe Illustrator 28.1.0, SVG Export Plug-In . SVG Version: 6.00 Build 0)  -->
<svg version="1.1" id="Layer_1" xmlns="http://www.w3.org/2000/svg" xmlns:xlink="http://www.w3.org/1999/xlink" x="0px" y="0px"
	 viewBox="0 0 72 72" style="enable-background:new 0 0 72 72;" xml:space="preserve">
<path d="M47.01,29.1c-0.97-1.14-2.09-2.1-3.33-2.87c1.29-1.65,2.06-3.72,2.06-5.98c0-5.38-4.37-9.75-9.75-9.75s-9.75,4.37-9.75,9.75
	c0,2.25,0.78,4.33,2.06,5.98c-1.23,0.78-2.36,1.73-3.33,2.87c-2.75,3.25-3.93,7.51-3.23,11.71l2.14,12.84
	c0.32,1.95,1.98,3.36,3.95,3.36h0.65V67.5h6V57.01h3V67.5h6V57.01h0.65c1.96,0,3.62-1.41,3.95-3.35l2.14-12.85v0
	C50.94,36.62,49.76,32.35,47.01,29.1z M32.25,20.25c0-2.07,1.68-3.75,3.75-3.75c2.07,0,3.75,1.68,3.75,3.75S38.07,24,36,24
	C33.93,24,32.25,22.32,32.25,20.25z M44.32,39.83l-1.86,11.18H29.54l-1.86-11.18c-0.41-2.45,0.28-4.95,1.89-6.85
	C31.17,31.09,33.52,30,36,30s4.83,1.09,6.43,2.98C44.04,34.88,44.73,37.37,44.32,39.83z"/>
</svg>
