<?xml version="1.0" encoding="utf-8"?>
<!-- Generator: Adobe Illustrator 28.1.0, SVG Export Plug-In . SVG Version: 6.00 Build 0)  -->
<svg version="1.1" id="Layer_1" xmlns="http://www.w3.org/2000/svg" xmlns:xlink="http://www.w3.org/1999/xlink" x="0px" y="0px"
	 viewBox="0 0 72 72" style="enable-background:new 0 0 72 72;" xml:space="preserve">
<g>
	<g>
		<path d="M61,33H24.5V22.5c0-6.71,5.77-12.09,12.61-11.45c5.96,0.56,10.39,5.8,10.39,11.78V24c0,0.28,0.22,0.5,0.5,0.5h3
			c0.28,0,0.5-0.22,0.5-0.5v-1.5c0-8.81-7.38-15.92-16.28-15.48C26.89,7.43,20.5,14.61,20.5,22.95V33H11c-0.28,0-0.5,0.22-0.5,0.5
			V55c0,6.08,4.92,11,11,11h29c6.08,0,11-4.92,11-11V33.5C61.5,33.22,61.28,33,61,33z M55.5,55c0,2.76-2.24,5-5,5h-29
			c-2.76,0-5-2.24-5-5V39h39V55z"/>
	</g>
	<g>
		<path d="M33.5,57h5c0.28,0,0.5-0.22,0.5-0.5v-14c0-0.28-0.22-0.5-0.5-0.5h-5c-0.28,0-0.5,0.22-0.5,0.5v14
			C33,56.78,33.22,57,33.5,57z"/>
	</g>
</g>
</svg>
