<?xml version="1.0" encoding="utf-8"?>
<!-- Generator: Adobe Illustrator 28.1.0, SVG Export Plug-In . SVG Version: 6.00 Build 0)  -->
<svg version="1.1" id="Layer_1" xmlns="http://www.w3.org/2000/svg" xmlns:xlink="http://www.w3.org/1999/xlink" x="0px" y="0px"
	 viewBox="0 0 72 72" style="enable-background:new 0 0 72 72;" xml:space="preserve">
<g>
	<g>
		<path d="M6,30h4.5v30H6v6h60v-6h-4.5V30H66V6H6V30z M40.75,51.5V54c0,2.62-2.13,4.75-4.75,4.75s-4.75-2.13-4.75-4.75v-2.5H40.75z
			 M55.5,60H42.35c1.48-1.57,2.4-3.68,2.4-6v-6.5H38V47c0-1.1-0.9-2-2-2s-2,0.9-2,2v0.5h-6.75V54c0,2.32,0.92,4.43,2.4,6H16.5V30
			h9.76l4,8H34v2.5c0,1.1,0.9,2,2,2s2-0.9,2-2V38h3.74l4-8h9.76V60z M32.74,34l-2-4h10.53l-2,4H32.74z M12,12h48v12H12V12z"/>
	</g>
	<g>
		<path d="M46.85,17.24c-0.05-0.12-0.11-0.24-0.19-0.35c-0.07-0.11-0.15-0.21-0.24-0.3c-0.75-0.75-2.09-0.75-2.83,0
			c-0.1,0.09-0.18,0.19-0.25,0.3c-0.07,0.11-0.14,0.23-0.19,0.35c-0.05,0.12-0.09,0.24-0.11,0.37C43.01,17.74,43,17.87,43,18
			c0,0.13,0.01,0.26,0.04,0.39c0.02,0.13,0.06,0.25,0.11,0.38c0.05,0.12,0.12,0.23,0.19,0.34s0.15,0.21,0.25,0.3
			C43.96,19.79,44.47,20,45,20c0.13,0,0.26-0.01,0.39-0.04c0.13-0.02,0.25-0.06,0.38-0.11c0.12-0.05,0.23-0.11,0.34-0.19
			c0.11-0.07,0.21-0.15,0.31-0.25c0.09-0.09,0.17-0.19,0.24-0.3c0.08-0.11,0.14-0.22,0.19-0.34c0.05-0.13,0.09-0.25,0.11-0.38
			C46.99,18.26,47,18.13,47,18c0-0.13-0.01-0.26-0.04-0.39C46.94,17.48,46.9,17.36,46.85,17.24z"/>
	</g>
	<g>
		<path d="M55.11,16.34c-0.11-0.07-0.22-0.14-0.34-0.19c-0.12-0.05-0.25-0.08-0.38-0.11c-0.26-0.05-0.52-0.05-0.78,0
			c-0.13,0.03-0.25,0.06-0.38,0.11c-0.12,0.05-0.23,0.12-0.34,0.19s-0.21,0.15-0.3,0.25C52.21,16.96,52,17.47,52,18
			c0,0.13,0.01,0.26,0.04,0.39c0.02,0.13,0.06,0.25,0.11,0.38c0.05,0.12,0.11,0.23,0.19,0.34c0.07,0.11,0.15,0.21,0.25,0.3
			c0.09,0.1,0.19,0.18,0.3,0.25c0.11,0.07,0.22,0.14,0.34,0.19c0.13,0.05,0.25,0.09,0.38,0.11C53.74,19.99,53.87,20,54,20
			s0.26-0.01,0.39-0.04c0.13-0.02,0.25-0.06,0.38-0.11c0.12-0.05,0.23-0.12,0.34-0.19c0.11-0.07,0.21-0.15,0.31-0.25
			c0.09-0.09,0.17-0.19,0.24-0.3c0.08-0.11,0.14-0.22,0.19-0.34c0.05-0.13,0.09-0.25,0.11-0.38C55.99,18.26,56,18.13,56,18
			c0-0.53-0.21-1.04-0.58-1.41C55.32,16.49,55.22,16.41,55.11,16.34z"/>
	</g>
</g>
</svg>
