<?xml version="1.0" encoding="utf-8"?>
<!-- Generator: Adobe Illustrator 28.1.0, SVG Export Plug-In . SVG Version: 6.00 Build 0)  -->
<svg version="1.1" id="Layer_1" xmlns="http://www.w3.org/2000/svg" xmlns:xlink="http://www.w3.org/1999/xlink" x="0px" y="0px"
	 viewBox="0 0 72 72" style="enable-background:new 0 0 72 72;" xml:space="preserve">
<g>
	<g>
		<path d="M13,66h46c3.86,0,7-3.14,7-7V31.5c0-1.16-0.67-2.22-1.73-2.72c-0.54-0.25-1.14-0.33-1.71-0.25L56,23.06V18
			c0-1.1-0.9-2-2-2h-6.48L37.28,7.46c-0.74-0.62-1.82-0.62-2.56,0L24.48,16H18c-1.1,0-2,0.9-2,2v5.06l-6.57,5.47
			c-0.57-0.08-1.16-0.01-1.71,0.25C6.67,29.28,6,30.34,6,31.5V59C6,62.86,9.14,66,13,66z M60,59c0,0.55-0.45,1-1,1H13
			c-0.55,0-1-0.45-1-1V37.91l22.08,18.4c1.11,0.93,2.73,0.93,3.84,0L60,37.91V59z M59.09,30.85L56,33.43v-5.16L59.09,30.85z
			 M36,11.6l5.28,4.4H30.72L36,11.6z M52,20v16.76L36,50.09L20,36.76V20H52z M16,33.43l-3.09-2.58L16,28.27V33.43z"/>
	</g>
</g>
</svg>
