<?xml version="1.0" encoding="utf-8"?>
<!-- Generator: Adobe Illustrator 28.1.0, SVG Export Plug-In . SVG Version: 6.00 Build 0)  -->
<svg version="1.1" id="Layer_1" xmlns="http://www.w3.org/2000/svg" xmlns:xlink="http://www.w3.org/1999/xlink" x="0px" y="0px"
	 viewBox="0 0 72 72" style="enable-background:new 0 0 72 72;" xml:space="preserve">
<path d="M26.65,48.89l-3.54-3.54c-0.2-0.2-0.2-0.51,0-0.71l21.54-21.54c0.2-0.2,0.51-0.2,0.71,0l3.54,3.54c0.2,0.2,0.2,0.51,0,0.71
	L27.35,48.89C27.16,49.08,26.84,49.08,26.65,48.89z"/>
<path d="M44.65,48.89L23.11,27.35c-0.2-0.2-0.2-0.51,0-0.71l3.54-3.54c0.2-0.2,0.51-0.2,0.71,0l21.54,21.54c0.2,0.2,0.2,0.51,0,0.71
	l-3.54,3.54C45.16,49.08,44.84,49.08,44.65,48.89z"/>
<path d="M36,66C19.46,66,6,52.54,6,36S19.46,6,36,6s30,13.46,30,30S52.54,66,36,66z M36,12c-13.23,0-24,10.77-24,24s10.77,24,24,24
	s24-10.77,24-24S49.23,12,36,12z"/>
</svg>
