<?xml version="1.0" encoding="utf-8"?>
<!-- Generator: Adobe Illustrator 28.1.0, SVG Export Plug-In . SVG Version: 6.00 Build 0)  -->
<svg version="1.1" id="Layer_1" xmlns="http://www.w3.org/2000/svg" xmlns:xlink="http://www.w3.org/1999/xlink" x="0px" y="0px"
	 viewBox="0 0 72 72" style="enable-background:new 0 0 72 72;" xml:space="preserve">
<g>
	<g>
		<path d="M54.44,53.37H31.51l4.29-14.46l6.68-1.89l1.4-4.79l-6.58,1.99l6.98-23.73v-0.38c0,0,0,0,0,0
			c-0.02-0.64-0.56-1.14-1.2-1.12h-8.87c-0.69-0.02-1.31,0.43-1.5,1.1l-8.28,28.12l-6.58,1.99l-1.5,4.59l6.58-1.99l-5.88,20.04
			h35.09c0.69,0.03,1.31-0.43,1.5-1.1l1.99-6.88v-0.38c0,0,0,0,0,0C55.62,53.84,55.08,53.34,54.44,53.37z"/>
	</g>
</g>
</svg>
