<?xml version="1.0" encoding="utf-8"?>
<!-- Generator: Adobe Illustrator 28.1.0, SVG Export Plug-In . SVG Version: 6.00 Build 0)  -->
<svg version="1.1" id="Layer_1" xmlns="http://www.w3.org/2000/svg" xmlns:xlink="http://www.w3.org/1999/xlink" x="0px" y="0px"
	 viewBox="0 0 72 72" style="enable-background:new 0 0 72 72;" xml:space="preserve">
<path d="M21.13,65.5h-10c-3.86,0-7-3.14-7-7V13c0-3.86,3.14-7,7-7h10c3.86,0,7,3.14,7,7v45.5C28.13,62.36,24.99,65.5,21.13,65.5z
	 M11.13,12c-0.55,0-1,0.45-1,1v45.5c0,0.55,0.45,1,1,1h10c0.55,0,1-0.45,1-1V13c0-0.55-0.45-1-1-1H11.13z"/>
<rect x="7.13" y="20" width="18" height="4"/>
<rect x="7.13" y="34" width="18" height="4"/>
<rect x="7.13" y="47" width="18" height="4"/>
<rect x="35.05" y="15.93" transform="matrix(0.5 -0.866 0.866 0.5 -3.0609 44.5499)" width="4" height="18"/>
<rect x="29.49" y="30.54" transform="matrix(0.5 -0.866 0.866 0.5 -17.061 46.2104)" width="4" height="14.68"/>
<rect x="26.24" y="47.43" transform="matrix(0.5 -0.8661 0.8661 0.5 -30.0612 49.9655)" width="4" height="7.18"/>
<rect x="51.21" y="29.42" transform="matrix(0.866 -0.5 0.5 0.866 -12.0817 31.7499)" width="4" height="18"/>
<rect x="39.96" y="39.71" transform="matrix(0.866 -0.5 0.5 0.866 -17.8525 27.2723)" width="4" height="14.47"/>
<rect x="30.58" y="53.22" transform="matrix(0.866 -0.5 0.5 0.866 -23.9845 23.8873)" width="4" height="6.96"/>
<path d="M23.12,66.03c-1.19,0-2.39-0.3-3.49-0.94l-9.7-5.6h11.2c0.55,0,1-0.45,1-1V26.77l9.03-15.64c0.94-1.62,2.44-2.78,4.25-3.26
	c1.81-0.48,3.69-0.24,5.31,0.7l8.66,5c3.34,1.93,4.49,6.22,2.56,9.56l-22.75,39.4C27.9,64.78,25.54,66.03,23.12,66.03z M28.13,28.38
	v24l18.62-32.24c0.28-0.48,0.11-1.09-0.37-1.37l-8.66-5c-0.31-0.18-0.61-0.14-0.76-0.1c-0.15,0.04-0.43,0.15-0.61,0.47L28.13,28.38z
	"/>
<path d="M24.11,68c-2.42,0-4.78-1.25-6.07-3.5l-2.89-5h6.79l0.7,0.4c0.48,0.28,1.09,0.11,1.37-0.37l15.68-27.16L55,23.53
	c3.34-1.93,7.63-0.78,9.56,2.56l5,8.66c0.93,1.62,1.18,3.51,0.7,5.31s-1.64,3.32-3.26,4.25L27.6,67.06C26.5,67.7,25.29,68,24.11,68z
	 M44.07,36.76l-12,20.78L64,39.12c0.31-0.18,0.43-0.46,0.47-0.61s0.08-0.45-0.1-0.76l-5-8.66c-0.18-0.31-0.46-0.43-0.61-0.47
	c-0.15-0.04-0.45-0.08-0.76,0.1L44.07,36.76z"/>
</svg>
