<?xml version="1.0" encoding="utf-8"?>
<!-- Generator: Adobe Illustrator 28.1.0, SVG Export Plug-In . SVG Version: 6.00 Build 0)  -->
<svg version="1.1" id="Layer_1" xmlns="http://www.w3.org/2000/svg" xmlns:xlink="http://www.w3.org/1999/xlink" x="0px" y="0px"
	 viewBox="0 0 72 72" style="enable-background:new 0 0 72 72;" xml:space="preserve">
<g>
	<path d="M50.05,36.29L36,22.24L21.95,36.29c-0.2,0.2-0.51,0.2-0.71,0l-3.54-3.54c-0.2-0.2-0.2-0.51,0-0.71l16.17-16.17
		c1.17-1.17,3.07-1.17,4.24,0l16.17,16.17c0.2,0.2,0.2,0.51,0,0.71l-3.54,3.54C50.56,36.48,50.24,36.48,50.05,36.29z"/>
	<path d="M38.5,57h-5c-0.28,0-0.5-0.22-0.5-0.5v-37h6v37C39,56.78,38.78,57,38.5,57z"/>
</g>
</svg>
