<?xml version="1.0" encoding="utf-8"?>
<!-- Generator: Adobe Illustrator 28.1.0, SVG Export Plug-In . SVG Version: 6.00 Build 0)  -->
<svg version="1.1" id="Layer_1" xmlns="http://www.w3.org/2000/svg" xmlns:xlink="http://www.w3.org/1999/xlink" x="0px" y="0px"
	 viewBox="0 0 72 72" style="enable-background:new 0 0 72 72;" xml:space="preserve">
<g>
	<path d="M61,33h-9.5V22.5C51.5,13.95,44.55,7,36,7s-15.5,6.95-15.5,15.5V33H11c-0.28,0-0.5,0.22-0.5,0.5V55c0,6.08,4.92,11,11,11
		h29c6.08,0,11-4.92,11-11V33.5C61.5,33.22,61.28,33,61,33z M24.5,22.5C24.5,16.16,29.66,11,36,11s11.5,5.16,11.5,11.5V33h-23V22.5z
		 M55.5,55c0,2.76-2.24,5-5,5h-29c-2.76,0-5-2.24-5-5V39h39V55z"/>
	<path d="M33.5,57h5c0.28,0,0.5-0.22,0.5-0.5v-14c0-0.28-0.22-0.5-0.5-0.5h-5c-0.28,0-0.5,0.22-0.5,0.5v14
		C33,56.78,33.22,57,33.5,57z"/>
</g>
</svg>
