<?xml version="1.0" encoding="utf-8"?>
<!-- Generator: Adobe Illustrator 28.1.0, SVG Export Plug-In . SVG Version: 6.00 Build 0)  -->
<svg version="1.1" id="Layer_1" xmlns="http://www.w3.org/2000/svg" xmlns:xlink="http://www.w3.org/1999/xlink" x="0px" y="0px"
	 viewBox="0 0 72 72" style="enable-background:new 0 0 72 72;" xml:space="preserve">
<g>
	<g>
		<path d="M66,51h-8.46l1.25-7.5H63v-6h-3.21l1.25-7.5H66V17c0-6.07-4.93-11-11-11H17C10.93,6,6,10.93,6,17v13h4.96l3.5,21H6v15h60
			V51z M53.71,37.5H52.5V30h2.46L53.71,37.5z M46.5,33H30v-3h16.5V33z M34.5,39H42v3h-7.5V39z M12,17c0-2.76,2.24-5,5-5h38
			c2.76,0,5,2.24,5,5v7h-7.5H24H12V17z M17.04,30H24v9h4.5v9H48v-4.5h4.71L51.46,51H20.54L17.04,30z M60,60H12v-3h48V60z"/>
	</g>
	<g>
		<path d="M20.77,16.85c-0.07-0.18-0.17-0.35-0.28-0.51c-0.1-0.17-0.23-0.32-0.37-0.46c-0.14-0.14-0.29-0.26-0.45-0.37
			c-0.17-0.11-0.34-0.2-0.52-0.28c-0.18-0.07-0.37-0.13-0.56-0.17c-0.39-0.08-0.79-0.08-1.18,0c-0.19,0.04-0.38,0.1-0.56,0.17
			c-0.18,0.08-0.35,0.17-0.52,0.28c-0.16,0.11-0.31,0.23-0.45,0.37s-0.27,0.29-0.37,0.46c-0.11,0.16-0.2,0.33-0.28,0.51
			c-0.08,0.18-0.13,0.37-0.17,0.56C15.02,17.61,15,17.8,15,18c0,0.79,0.32,1.56,0.88,2.12c0.14,0.14,0.29,0.27,0.45,0.37
			c0.17,0.11,0.34,0.21,0.52,0.28c0.18,0.08,0.37,0.13,0.56,0.17C17.61,20.98,17.81,21,18,21c0.79,0,1.56-0.32,2.12-0.88
			C20.68,19.56,21,18.79,21,18c0-0.2-0.02-0.39-0.06-0.59C20.9,17.22,20.85,17.03,20.77,16.85z"/>
	</g>
	<g>
		<path d="M24.23,19.15c0.08,0.18,0.17,0.35,0.28,0.52c0.11,0.16,0.23,0.31,0.37,0.45c0.14,0.14,0.29,0.27,0.46,0.37
			c0.16,0.11,0.33,0.21,0.51,0.28c0.18,0.08,0.37,0.13,0.56,0.17C26.61,20.98,26.81,21,27,21c0.2,0,0.39-0.02,0.59-0.06
			c0.19-0.04,0.38-0.09,0.56-0.17c0.18-0.07,0.35-0.17,0.52-0.28c0.16-0.1,0.31-0.23,0.45-0.37c0.14-0.14,0.27-0.29,0.37-0.45
			c0.11-0.17,0.21-0.34,0.28-0.52c0.08-0.18,0.13-0.37,0.17-0.56C29.98,18.39,30,18.2,30,18c0-0.2-0.02-0.39-0.06-0.59
			c-0.04-0.19-0.09-0.38-0.17-0.56c-0.07-0.18-0.17-0.35-0.28-0.52c-0.1-0.16-0.23-0.31-0.37-0.45c-0.14-0.14-0.29-0.26-0.45-0.37
			c-0.17-0.11-0.34-0.2-0.52-0.28c-0.18-0.07-0.37-0.13-0.56-0.17c-0.39-0.08-0.79-0.08-1.18,0c-0.19,0.04-0.38,0.1-0.56,0.17
			c-0.18,0.08-0.35,0.17-0.51,0.28c-0.17,0.11-0.32,0.23-0.46,0.37s-0.26,0.29-0.37,0.45c-0.11,0.17-0.2,0.34-0.28,0.52
			c-0.08,0.18-0.13,0.37-0.17,0.56C24.02,17.61,24,17.8,24,18c0,0.2,0.02,0.39,0.06,0.59C24.1,18.78,24.15,18.97,24.23,19.15z"/>
	</g>
</g>
</svg>
