<?xml version="1.0" encoding="utf-8"?>
<!-- Generator: Adobe Illustrator 28.1.0, SVG Export Plug-In . SVG Version: 6.00 Build 0)  -->
<svg version="1.1" id="Layer_1" xmlns="http://www.w3.org/2000/svg" xmlns:xlink="http://www.w3.org/1999/xlink" x="0px" y="0px"
	 viewBox="0 0 72 72" style="enable-background:new 0 0 72 72;" xml:space="preserve">
<g>
	<g>
		<path d="M23.06,67V57h0.65c1.96,0,3.62-1.4,3.95-3.34l2.14-12.85c0.7-4.19-0.48-8.46-3.22-11.7c-0.97-1.14-2.1-2.1-3.33-2.88
			c1.29-1.65,2.06-3.72,2.06-5.98c0-5.38-4.37-9.75-9.75-9.75s-9.75,4.37-9.75,9.75c0,2.25,0.78,4.33,2.06,5.98
			c-1.23,0.78-2.36,1.74-3.33,2.88c-2.75,3.24-3.92,7.51-3.22,11.7l2.14,12.85C3.78,55.59,5.44,57,7.41,57h0.65v10
			c0,0.28,0.22,0.5,0.5,0.5h5c0.28,0,0.5-0.22,0.5-0.5V57h3v10c0,0.28,0.22,0.5,0.5,0.5h5C22.84,67.5,23.06,67.28,23.06,67z
			 M11.81,20.25c0-2.07,1.68-3.75,3.75-3.75s3.75,1.68,3.75,3.75S17.63,24,15.56,24S11.81,22.32,11.81,20.25z M7.24,39.82
			c-0.41-2.45,0.28-4.94,1.88-6.84S13.08,30,15.56,30s4.83,1.09,6.44,2.98s2.29,4.39,1.88,6.84L22.02,51H9.1L7.24,39.82z"/>
	</g>
	<g>
		<path d="M67.25,33.17c-0.43-2.58-1.73-4.81-3.56-6.43c1.55-1.73,2.49-4,2.49-6.49c0-5.38-4.37-9.75-9.75-9.75
			s-9.75,4.37-9.75,9.75c0,2.49,0.95,4.76,2.49,6.49c-1.83,1.62-3.13,3.85-3.56,6.43l-3.2,19.18c-0.19,1.16,0.13,2.34,0.89,3.24
			c0.76,0.9,1.87,1.42,3.05,1.42h2.57v10c0,0.28,0.22,0.5,0.5,0.5h5c0.28,0,0.5-0.22,0.5-0.5V57h3v10c0,0.28,0.22,0.5,0.5,0.5h5
			c0.28,0,0.5-0.22,0.5-0.5V57h2.57c1.18,0,2.29-0.52,3.05-1.41s1.09-2.08,0.89-3.24L67.25,33.17z M52.68,20.25
			c0-2.07,1.68-3.75,3.75-3.75s3.75,1.68,3.75,3.75S58.5,24,56.43,24S52.68,22.32,52.68,20.25z M48.72,51l2.81-16.85
			c0.4-2.41,2.46-4.15,4.9-4.15s4.5,1.75,4.9,4.15L64.14,51H48.72z"/>
	</g>
	<g>
		<path d="M34.5,67.5h3c0.28,0,0.5-0.22,0.5-0.5V5c0-0.28-0.22-0.5-0.5-0.5h-3C34.22,4.5,34,4.72,34,5v62
			C34,67.28,34.22,67.5,34.5,67.5z"/>
	</g>
</g>
</svg>
