<?xml version="1.0" encoding="utf-8"?>
<!-- Generator: Adobe Illustrator 28.1.0, SVG Export Plug-In . SVG Version: 6.00 Build 0)  -->
<svg version="1.1" id="Layer_1" xmlns="http://www.w3.org/2000/svg" xmlns:xlink="http://www.w3.org/1999/xlink" x="0px" y="0px"
	 viewBox="0 0 72 72" style="enable-background:new 0 0 72 72;" xml:space="preserve">
<g>
	<path d="M33.88,56.12C34.46,56.71,35.23,57,36,57s1.54-0.29,2.12-0.88l16.17-16.17c0.2-0.2,0.2-0.51,0-0.71l-3.54-3.54
		c-0.2-0.2-0.51-0.2-0.71,0L39,46.76V15.5c0-0.28-0.22-0.5-0.5-0.5h-5c-0.28,0-0.5,0.22-0.5,0.5v31.26L21.95,35.71
		c-0.2-0.2-0.51-0.2-0.71,0l-3.54,3.54c-0.2,0.2-0.2,0.51,0,0.71L33.88,56.12z"/>
</g>
</svg>
