<?xml version="1.0" encoding="utf-8"?>
<!-- Generator: Adobe Illustrator 28.1.0, SVG Export Plug-In . SVG Version: 6.00 Build 0)  -->
<svg version="1.1" id="Layer_1" xmlns="http://www.w3.org/2000/svg" xmlns:xlink="http://www.w3.org/1999/xlink" x="0px" y="0px"
	 viewBox="0 0 72 72" style="enable-background:new 0 0 72 72;" xml:space="preserve">
<g>
	<path d="M58.5,61.5c-0.77,0-1.54-0.29-2.12-0.88l-45-45c-1.17-1.17-1.17-3.07,0-4.24c1.17-1.17,3.07-1.17,4.24,0l45,45
		c1.17,1.17,1.17,3.07,0,4.24C60.04,61.21,59.27,61.5,58.5,61.5z"/>
	<path d="M13.5,61.5c-0.77,0-1.54-0.29-2.12-0.88c-1.17-1.17-1.17-3.07,0-4.24l45-45c1.17-1.17,3.07-1.17,4.24,0
		c1.17,1.17,1.17,3.07,0,4.24l-45,45C15.04,61.21,14.27,61.5,13.5,61.5z"/>
</g>
</svg>
