<?xml version="1.0" encoding="utf-8"?>
<!-- Generator: Adobe Illustrator 28.1.0, SVG Export Plug-In . SVG Version: 6.00 Build 0)  -->
<svg version="1.1" id="Layer_1" xmlns="http://www.w3.org/2000/svg" xmlns:xlink="http://www.w3.org/1999/xlink" x="0px" y="0px"
	 viewBox="0 0 72 72" style="enable-background:new 0 0 72 72;" xml:space="preserve">
<path d="M36,61.5c-14.06,0-25.5-11.44-25.5-25.5S21.94,10.5,36,10.5S61.5,21.94,61.5,36S50.06,61.5,36,61.5z M36,16.5
	c-10.75,0-19.5,8.75-19.5,19.5S25.25,55.5,36,55.5S55.5,46.75,55.5,36S46.75,16.5,36,16.5z"/>
<path d="M17.65,66.89l-3.54-3.54c-0.2-0.2-0.2-0.51,0-0.71l7.97-7.97c1.74-1.74,4.57-1.74,6.32,0l1.08,1.08L18.35,66.89
	C18.16,67.08,17.84,67.08,17.65,66.89z"/>
<path d="M53.65,66.89L42.52,55.76l1.73-1.73c1.39-1.39,3.64-1.39,5.03,0l8.61,8.61c0.2,0.2,0.2,0.51,0,0.71l-3.54,3.54
	C54.16,67.08,53.84,67.08,53.65,66.89z"/>
<path d="M39,16.5h-6v-10C33,6.22,33.22,6,33.5,6h5C38.78,6,39,6.22,39,6.5V16.5z"/>
<path d="M10.5,20h-3C7.22,20,7,19.78,7,19.5V18c0-6.08,4.92-11,11-11h1.5C19.78,7,20,7.22,20,7.5v3c0,0.28-0.22,0.5-0.5,0.5H18
	c-3.87,0-7,3.13-7,7v1.5C11,19.78,10.78,20,10.5,20z"/>
<path d="M64.5,20h-3c-0.28,0-0.5-0.22-0.5-0.5V18c0-3.87-3.13-7-7-7h-1.5c-0.28,0-0.5-0.22-0.5-0.5v-3C52,7.22,52.22,7,52.5,7H54
	c6.08,0,11,4.92,11,11v1.5C65,19.78,64.78,20,64.5,20z"/>
<path d="M44.65,47.48L34.59,37.41C34.21,37.04,34,36.53,34,36V20.84c0-0.28,0.22-0.5,0.5-0.5h3c0.28,0,0.5,0.22,0.5,0.5v14.33
	l9.47,9.48c0.2,0.2,0.2,0.51,0,0.71l-2.12,2.12C45.16,47.67,44.84,47.67,44.65,47.48z"/>
</svg>
