<?xml version="1.0" encoding="UTF-8"?>
<svg id="circular-loader" xmlns="http://www.w3.org/2000/svg" viewBox="0 0 72 72">
  <path d="M54.64,33.6c-.03-.05-.39-.29-.43-.25-.63.51-1.1,1.55-1.9,1.67s-1.57-.6-2.35-.92c-.78-.32-1.24-.83-1.71-1.45s-1.3-1.21-1.38-2.01c0-.06.27.05.21.06-.77.23-1.71.34-2.49.15s-1.36-.89-1.95-1.49c-.59-.59-.93-1.29-1.12-2.04s.15-1.46.38-2.23c.02-.06-.47.07-.53.06-.8-.09-1.3-1.01-1.95-1.48s-1.07-.9-1.39-1.68c-.32-.78-.81-1.48-.69-2.25s.56-1.52,1.07-2.15c.04-.05.15-.38.09-.41-.71-.39-1.63-.59-2.04-1.28s-.44-1.57-.44-2.41c-.83,0-1.61.44-2.42.53s-1.75-.55-2.55-.37-1.37,1.19-2.14,1.45-1.62.27-2.36.62-1.42.77-2.12,1.2-1.59.57-2.24,1.07c-.65.5-.91,1.44-1.5,2-.59.56-1.11,1.15-1.64,1.77s-1.42.96-1.88,1.64-.97,1.35-1.35,2.07-.86,1.44-1.15,2.21-.25,1.66-.46,2.45-.38,1.59-.51,2.41-.03,1.63-.07,2.46-.48,1.64-.43,2.47.53,1.64.68,2.45-.09,1.76.14,2.55,1.3,1.31,1.62,2.07.14,1.77.55,2.5.83,1.48,1.31,2.15.96,1.41,1.52,2.02,1.28,1.11,1.9,1.67,1.41.92,2.08,1.4,1.14,1.34,1.87,1.75,1.55.71,2.32,1.04,1.74.08,2.54.32c.79.24,1.52.78,2.34.92.81.14,1.67-.03,2.51.02s1.64.23,2.44.19,1.61-.35,2.41-.47,1.54-.49,2.33-.7,1.82.28,2.57-.02,1.57-.62,2.29-1,1.19-1.24,1.87-1.69,1.16-1.14,1.79-1.66,1.51-.76,2.08-1.35,1.13-1.2,1.63-1.85.77-1.46,1.19-2.16,1.17-1.24,1.52-1.98.6-1.55.87-2.33.22-1.64.39-2.45.13-1.62.22-2.44.57-1.85.57-2.67c-.84,0-1.64-.36-2.31-.76s-1.4-.68-1.79-1.39Z" style="fill: none; stroke: #231f20; stroke-miterlimit: 10; stroke-width: 4px;"/>
  <path d="M53.95,13.5c0,.82-.09,1.64-.47,2.3s-1.11,1.1-1.79,1.49c-.66.38-1.37.81-2.19.81s-1.6-.3-2.26-.69-1.22-1-1.61-1.68-.59-1.42-.59-2.24.14-1.62.52-2.28.99-1.27,1.67-1.67,1.46-.58,2.28-.58,1.6.24,2.26.62,1.26.97,1.66,1.65.54,1.44.54,2.26Z" style="fill: none; stroke: #231f20; stroke-miterlimit: 10; stroke-width: 4px;"/>
  <path d="M40.46,45c0,.82-.14,1.61-.53,2.27s-1,1.24-1.68,1.63-1.44.58-2.25.58-1.6-.18-2.26-.57-1.25-.98-1.64-1.66c-.38-.66-.54-1.43-.54-2.25s.17-1.59.55-2.25,1.01-1.17,1.69-1.56,1.38-.7,2.2-.7,1.62.18,2.28.56,1.29.98,1.68,1.66.5,1.47.5,2.29Z" style="fill: none; stroke: #231f20; stroke-miterlimit: 10; stroke-width: 4px;"/>
  <path d="M26.98,38.25c0,1.24-.98,2.27-2.23,2.27s-2.29-1.03-2.29-2.27,1.05-2.19,2.29-2.19,2.23.95,2.23,2.19Z" style="fill: none; stroke: #231f20; stroke-miterlimit: 10; stroke-width: 4px;"/>
  <path d="M36.02,29.25c0,1.24-1.03,2.25-2.27,2.25s-2.22-1-2.22-2.25.98-2.25,2.22-2.25,2.27,1.01,2.27,2.25Z" style="fill: none; stroke: #231f20; stroke-miterlimit: 10; stroke-width: 4px;"/>
</svg>