<?xml version="1.0" encoding="utf-8"?>
<!-- Generator: Adobe Illustrator 28.1.0, SVG Export Plug-In . SVG Version: 6.00 Build 0)  -->
<svg version="1.1" id="Layer_1" xmlns="http://www.w3.org/2000/svg" xmlns:xlink="http://www.w3.org/1999/xlink" x="0px" y="0px"
	 viewBox="0 0 72 72" style="enable-background:new 0 0 72 72;" xml:space="preserve">
<path style="opacity:0.5;fill:#ED2024;" d="M56.5,58.5h-41c-1.1,0-2-0.9-2-2v-41c0-1.1,0.9-2,2-2h41c1.1,0,2,0.9,2,2v41
	C58.5,57.6,57.6,58.5,56.5,58.5z"/>
<line style="fill:none;stroke:#ED2024;stroke-width:4;stroke-miterlimit:10;" x1="24.75" y1="13.5" x2="24.75" y2="58.5"/>
<line style="fill:none;stroke:#ED2024;stroke-width:4;stroke-miterlimit:10;" x1="36" y1="13.5" x2="36" y2="58.5"/>
<line style="fill:none;stroke:#ED2024;stroke-width:4;stroke-miterlimit:10;" x1="47.25" y1="58.5" x2="47.25" y2="13.5"/>
<path style="fill:none;stroke:#010101;stroke-width:4;stroke-miterlimit:10;" d="M58.5,15.5v41c0,1.1-0.9,2-2,2h-41
	c-1.1,0-2-0.9-2-2v-41c0-1.1,0.9-2,2-2h41C57.6,13.5,58.5,14.4,58.5,15.5z"/>
</svg>
