<?xml version="1.0" encoding="UTF-8"?>
<svg id="Layer_1" data-name="Layer 1" xmlns="http://www.w3.org/2000/svg" viewBox="0 0 72 72">
  <path d="M17.5,13.5h37c2.21,0,4,1.79,4,4v28c0,2.21-1.79,4-4,4h-23s-9,9-9,9v-9s-5,0-5,0c-2.21,0-4-1.79-4-4v-28c0-2.21,1.79-4,4-4Z" style="fill: #ed2024; opacity: .5; stroke-width: 0px;"/>
  <path d="M26.11,35.09l14.51-14.51c.44-.44,1.16-.44,1.6,0l6.05,6.05c.44.44.44,1.16,0,1.6l-14.51,14.51h-7.66v-7.66Z" style="fill: none; stroke: #231f20; stroke-miterlimit: 10; stroke-width: 4px;"/>
  <line x1="37.74" y1="23.47" x2="45.39" y2="31.12" style="fill: none; stroke: #231f20; stroke-miterlimit: 10; stroke-width: 4px;"/>
  <line x1="26.11" y1="35.09" x2="33.77" y2="42.75" style="fill: none; stroke: #231f20; stroke-miterlimit: 10; stroke-width: 4px;"/>
  <path d="M17.5,13.5h37c2.21,0,4,1.79,4,4v28c0,2.21-1.79,4-4,4h-23s-9,9-9,9v-9s-5,0-5,0c-2.21,0-4-1.79-4-4v-28c0-2.21,1.79-4,4-4Z" style="fill: none; stroke: #000; stroke-miterlimit: 10; stroke-width: 4px;"/>
</svg>