<?xml version="1.0" encoding="utf-8"?>
<!-- Generator: Adobe Illustrator 28.1.0, SVG Export Plug-In . SVG Version: 6.00 Build 0)  -->
<svg version="1.1" id="Layer_1" xmlns="http://www.w3.org/2000/svg" xmlns:xlink="http://www.w3.org/1999/xlink" x="0px" y="0px"
	 viewBox="0 0 72 72" style="enable-background:new 0 0 72 72;" xml:space="preserve">
<path style="opacity:0.5;fill:#ED2024;" d="M52.5,58.5h-33c-3.31,0-6-2.69-6-6v-33c0-3.31,2.69-6,6-6h33c3.31,0,6,2.69,6,6v33
	C58.5,55.81,55.81,58.5,52.5,58.5z"/>
<path style="opacity:0.5;fill:#ED2024;" d="M52.5,49.5h-33c-3.31,0-6-2.69-6-6v-24c0-3.31,2.69-6,6-6h33c3.31,0,6,2.69,6,6v24
	C58.5,46.81,55.81,49.5,52.5,49.5z"/>
<path style="fill:none;stroke:#ED2024;stroke-width:4;stroke-miterlimit:10;" d="M58.5,31.5v12c0,3.31-2.69,6-6,6h-33
	c-3.31,0-6-2.69-6-6v-24c0-3.31,2.69-6,6-6h21"/>
<path style="fill:none;stroke:#010101;stroke-width:4;stroke-miterlimit:10;" d="M58.5,31.5v21c0,3.31-2.69,6-6,6h-33
	c-3.31,0-6-2.69-6-6v-33c0-3.31,2.69-6,6-6h21"/>
<line style="fill:none;stroke:#010101;stroke-width:4;stroke-miterlimit:10;" x1="47.64" y1="11.64" x2="60.36" y2="24.36"/>
<line style="fill:none;stroke:#010101;stroke-width:4;stroke-miterlimit:10;" x1="60.36" y1="11.64" x2="47.64" y2="24.36"/>
</svg>
