<?xml version="1.0" encoding="utf-8"?>
<!-- Generator: Adobe Illustrator 28.1.0, SVG Export Plug-In . SVG Version: 6.00 Build 0)  -->
<svg version="1.1" id="Layer_1" xmlns="http://www.w3.org/2000/svg" xmlns:xlink="http://www.w3.org/1999/xlink" x="0px" y="0px"
	 viewBox="0 0 72 72" style="enable-background:new 0 0 72 72;" xml:space="preserve">
<path style="opacity:0.5;fill:#ED2024;" d="M42.5,40.5h14c1.1,0,2,0.9,2,2v14c0,1.1-0.9,2-2,2h-14c-1.1,0-2-0.9-2-2v-14
	C40.5,41.4,41.4,40.5,42.5,40.5z"/>
<path style="opacity:0.5;fill:#ED2024;" d="M15.5,40.5h14c1.1,0,2,0.9,2,2v14c0,1.1-0.9,2-2,2h-14c-1.1,0-2-0.9-2-2v-14
	C13.5,41.4,14.4,40.5,15.5,40.5z"/>
<path style="opacity:0.5;fill:#ED2024;" d="M15.5,13.5h14c1.1,0,2,0.9,2,2v14c0,1.1-0.9,2-2,2h-14c-1.1,0-2-0.9-2-2v-14
	C13.5,14.4,14.4,13.5,15.5,13.5z"/>
<path style="opacity:0.5;fill:#ED2024;" d="M42.5,13.5h14c1.1,0,2,0.9,2,2v14c0,1.1-0.9,2-2,2h-14c-1.1,0-2-0.9-2-2v-14
	C40.5,14.4,41.4,13.5,42.5,13.5z"/>
<path style="fill:none;stroke:#010101;stroke-width:4;stroke-miterlimit:10;" d="M42.5,40.5l14,0c1.1,0,2,0.9,2,2l0,14
	c0,1.1-0.9,2-2,2l-14,0c-1.1,0-2-0.9-2-2l0-14C40.5,41.4,41.4,40.5,42.5,40.5z"/>
<path style="fill:none;stroke:#010101;stroke-width:4;stroke-miterlimit:10;" d="M15.5,40.5l14,0c1.1,0,2,0.9,2,2l0,14
	c0,1.1-0.9,2-2,2l-14,0c-1.1,0-2-0.9-2-2l0-14C13.5,41.4,14.4,40.5,15.5,40.5z"/>
<path style="fill:none;stroke:#010101;stroke-width:4;stroke-miterlimit:10;" d="M42.5,13.5l14,0c1.1,0,2,0.9,2,2l0,14
	c0,1.1-0.9,2-2,2l-14,0c-1.1,0-2-0.9-2-2l0-14C40.5,14.4,41.4,13.5,42.5,13.5z"/>
<path style="fill:none;stroke:#010101;stroke-width:4;stroke-miterlimit:10;" d="M15.5,13.5l14,0c1.1,0,2,0.9,2,2l0,14
	c0,1.1-0.9,2-2,2l-14,0c-1.1,0-2-0.9-2-2l0-14C13.5,14.4,14.4,13.5,15.5,13.5z"/>
</svg>
