<?xml version="1.0" encoding="UTF-8"?>
<svg id="Layer_1" data-name="Layer 1" xmlns="http://www.w3.org/2000/svg" viewBox="0 0 72 72">
  <g>
    <path d="M36,60.81H9.66c-1.54,0-2.5-1.67-1.73-3l13.17-22.81,13.17-22.81c.77-1.33,2.69-1.33,3.46,0l13.17,22.81,13.17,22.81c.77,1.33-.19,3-1.73,3h-26.34Z" style="fill: #ed2024; opacity: .5; stroke-width: 0px;"/>
    <path d="M36,60.81H9.66c-1.54,0-2.5-1.67-1.73-3l13.17-22.81,13.17-22.81c.77-1.33,2.69-1.33,3.46,0l13.17,22.81,13.17,22.81c.77,1.33-.19,3-1.73,3h-26.34Z" style="fill: none; stroke: #ed2024; stroke-miterlimit: 10; stroke-width: 4px;"/>
  </g>
  <g>
    <path d="M46.26,44.55s-4.59,6.16-10.26,6.16-10.26-6.16-10.26-6.16c0,0,4.59-6.16,10.26-6.16s10.26,6.16,10.26,6.16Z" style="fill: none; stroke: #010101; stroke-linecap: square; stroke-miterlimit: 10; stroke-width: 4px;"/>
    <line x1="46.26" y1="36" x2="25.74" y2="53.1" style="fill: none; stroke: #010101; stroke-linecap: square; stroke-miterlimit: 10; stroke-width: 4px;"/>
  </g>
</svg>