<?xml version="1.0" encoding="UTF-8"?>
<svg id="Layer_1" data-name="Layer 1" xmlns="http://www.w3.org/2000/svg" viewBox="0 0 72 72">
  <defs>
    <style>
      .cls-1 {
        stroke: #ed2024;
      }

      .cls-1, .cls-2 {
        fill: none;
        stroke-linecap: round;
        stroke-linejoin: round;
        stroke-width: 4px;
      }

      .cls-2 {
        stroke: #010101;
      }

      .cls-3 {
        fill: #ed2024;
        opacity: .5;
        stroke-width: 0px;
      }
    </style>
  </defs>
  <path class="cls-3" d="M59,18H13c-2.21,0-4,1.79-4,4v32.5c0,2.21,1.79,4,4,4h46c2.21,0,4-1.79,4-4V22c0-2.21-1.79-4-4-4ZM45,49.5h-27v-22.5h27v22.5Z"/>
  <rect class="cls-2" x="9" y="18" width="54" height="40.5" rx="4" ry="4"/>
  <rect class="cls-1" x="18" y="27" width="27" height="22.5"/>
  <line class="cls-2" x1="27" y1="9" x2="31.5" y2="18"/>
  <line class="cls-2" x1="45" y1="9" x2="40.5" y2="18"/>
  <line class="cls-2" x1="54" y1="31.5" x2="54" y2="31.5"/>
  <line class="cls-2" x1="54" y1="40.5" x2="54" y2="40.5"/>
</svg>