<?xml version="1.0" encoding="UTF-8"?>
<svg id="Layer_1" data-name="Layer 1" xmlns="http://www.w3.org/2000/svg" viewBox="0 0 72 72">
  <defs>
    <style>
      .cls-1 {
        stroke: #ed2024;
      }

      .cls-1, .cls-2 {
        fill: none;
        stroke-miterlimit: 10;
        stroke-width: 4px;
      }

      .cls-2 {
        stroke: #231f20;
      }

      .cls-3 {
        fill: #ed2024;
        opacity: .5;
        stroke-width: 0px;
      }
    </style>
  </defs>
  <path class="cls-3" d="M57.47,42.45c-7.9,7.9-23.84,4.77-23.84,4.77,0,0-3.13-15.94,4.77-23.84,7.9-7.9,23.84-4.77,23.84-4.77,0,0,3.13,15.94-4.77,23.84Z"/>
  <path class="cls-3" d="M25.58,33.07c6.69,3.36,8.06,14.15,8.06,14.15,0,0-9.48,5.35-16.16,1.99s-8.06-14.15-8.06-14.15c0,0,9.48-5.35,16.16-1.99Z"/>
  <path class="cls-2" d="M57.47,42.45c-7.9,7.9-23.84,4.77-23.84,4.77,0,0-3.13-15.94,4.77-23.84,7.9-7.9,23.84-4.77,23.84-4.77,0,0,3.13,15.94-4.77,23.84Z"/>
  <line class="cls-1" x1="62.24" y1="18.61" x2="33.63" y2="47.22"/>
  <path class="cls-2" d="M25.58,33.07c6.69,3.36,8.06,14.15,8.06,14.15,0,0-9.48,5.35-16.16,1.99s-8.06-14.15-8.06-14.15c0,0,9.48-5.35,16.16-1.99Z"/>
  <line class="cls-1" x1="9.41" y1="35.06" x2="33.63" y2="47.22"/>
  <line class="cls-1" x1="36" y1="58.5" x2="33.63" y2="47.22"/>
</svg>