<?xml version="1.0" encoding="UTF-8"?>
<svg id="Layer_1" data-name="Layer 1" xmlns="http://www.w3.org/2000/svg" viewBox="0 0 72 72">
  <defs>
    <style>
      .cls-1 {
        stroke: #ed2024;
      }

      .cls-1, .cls-2 {
        fill: none;
        stroke-miterlimit: 10;
        stroke-width: 4px;
      }

      .cls-2 {
        stroke: #010101;
      }

      .cls-3 {
        fill: #ed2024;
        opacity: .5;
        stroke-width: 0px;
      }
    </style>
  </defs>
  <rect class="cls-3" x="18" y="18" width="36" height="36" rx="2" ry="2"/>
  <rect class="cls-2" x="18" y="18" width="36" height="36" rx="2" ry="2"/>
  <line class="cls-1" x1="27" y1="9" x2="27" y2="18"/>
  <line class="cls-1" x1="36" y1="9" x2="36" y2="18"/>
  <line class="cls-1" x1="45" y1="9" x2="45" y2="18"/>
  <line class="cls-1" x1="27" y1="54" x2="27" y2="63"/>
  <line class="cls-1" x1="36" y1="54" x2="36" y2="63"/>
  <line class="cls-1" x1="45" y1="54" x2="45" y2="63"/>
  <line class="cls-1" x1="9" y1="45" x2="18" y2="45"/>
  <line class="cls-1" x1="9" y1="36" x2="18" y2="36"/>
  <line class="cls-1" x1="9" y1="27" x2="18" y2="27"/>
  <line class="cls-1" x1="54" y1="45" x2="63" y2="45"/>
  <line class="cls-1" x1="54" y1="36" x2="63" y2="36"/>
  <line class="cls-1" x1="54" y1="27" x2="63" y2="27"/>
</svg>