<?xml version="1.0" encoding="UTF-8"?>
<svg id="Layer_1" data-name="Layer 1" xmlns="http://www.w3.org/2000/svg" viewBox="0 0 72 72">
  <defs>
    <style>
      .cls-1 {
        stroke: #ed2024;
      }

      .cls-1, .cls-2 {
        fill: none;
        stroke-miterlimit: 10;
        stroke-width: 4px;
      }

      .cls-2 {
        stroke: #231f20;
      }

      .cls-3 {
        fill: #ed2024;
        opacity: .5;
        stroke-width: 0px;
      }
    </style>
  </defs>
  <path class="cls-3" d="M52.5,38.75c0,1.37-.11,2.72-.32,4.04-2.91,18.29-29.44,18.29-32.35,0-.21-1.32-.32-2.67-.32-4.04,0-9.28,5.26-17.57,9.85-23.03,3.46-4.12,9.85-4.12,13.31,0,4.58,5.46,9.85,13.75,9.85,23.03Z"/>
  <path class="cls-2" d="M52.5,38.75c0,1.37-.11,2.72-.32,4.04-2.91,18.29-29.44,18.29-32.35,0-.21-1.32-.32-2.67-.32-4.04,0-9.28,5.26-17.57,9.85-23.03,3.46-4.12,9.85-4.12,13.31,0,4.58,5.46,9.85,13.75,9.85,23.03Z"/>
  <line class="cls-1" x1="36" y1="31.5" x2="36" y2="67.5"/>
  <line class="cls-1" x1="36" y1="45" x2="45" y2="36"/>
  <line class="cls-1" x1="27" y1="40.5" x2="36" y2="49.5"/>
</svg>