<?xml version="1.0" encoding="utf-8"?>
<!-- Generator: Adobe Illustrator 28.1.0, SVG Export Plug-In . SVG Version: 6.00 Build 0)  -->
<svg version="1.1" id="Layer_1" xmlns="http://www.w3.org/2000/svg" xmlns:xlink="http://www.w3.org/1999/xlink" x="0px" y="0px"
	 viewBox="0 0 72 72" style="enable-background:new 0 0 72 72;" xml:space="preserve">
<g style="opacity:0.5;">
	<path style="fill:#ED2024;" d="M54.5,13.41h-37c-2.21,0-4,1.79-4,4v37c0,2.21,1.79,4,4,4h37c2.21,0,4-1.79,4-4v-37
		C58.5,15.2,56.71,13.41,54.5,13.41z"/>
</g>
<polyline style="fill:none;stroke:#000000;stroke-width:4;stroke-miterlimit:10;" points="40.5,45.64 48.21,58.5 58.5,40.5 "/>
<g>
	<path style="fill:none;stroke:#010101;stroke-width:4;stroke-miterlimit:10;" d="M58.5,36V17.5c0-2.21-1.79-4-4-4h-37
		c-2.21,0-4,1.79-4,4v37c0,2.21,1.79,4,4,4h23"/>
</g>
<line style="fill:#010101;stroke:#ED2024;stroke-width:4;stroke-miterlimit:10;" x1="22.5" y1="6.5" x2="22.5" y2="20"/>
<line style="fill:#010101;stroke:#ED2024;stroke-width:4;stroke-miterlimit:10;" x1="31.5" y1="6.5" x2="31.5" y2="20"/>
<line style="fill:#010101;stroke:#ED2024;stroke-width:4;stroke-miterlimit:10;" x1="40.5" y1="6.5" x2="40.5" y2="20"/>
<line style="fill:#010101;stroke:#ED2024;stroke-width:4;stroke-miterlimit:10;" x1="49.5" y1="6.5" x2="49.5" y2="20"/>
</svg>
