<?xml version="1.0" encoding="UTF-8"?>
<svg id="Layer_1" data-name="Layer 1" xmlns="http://www.w3.org/2000/svg" viewBox="0 0 72 72">
  <defs>
    <style>
      .cls-1 {
        stroke: #ed2024;
      }

      .cls-1, .cls-2 {
        fill: none;
        stroke-miterlimit: 10;
        stroke-width: 4px;
      }

      .cls-2 {
        stroke: #010101;
      }

      .cls-3 {
        fill: #ed2024;
        opacity: .5;
        stroke-width: 0px;
      }
    </style>
  </defs>
  <path class="cls-3" d="M49.5,39.22h9v-5c0-2.21-1.79-4-4-4H17.5c-2.21,0-4,1.79-4,4v23.5c0,2.21,1.79,4,4,4h37c2.21,0,4-1.79,4-4v-9.5h-9c-2.49,0-4.5-2.01-4.5-4.5s2.01-4.5,4.5-4.5Z"/>
  <path class="cls-1" d="M58.5,39.22h-9c-2.49,0-4.5,2.01-4.5,4.5h0c0,2.49,2.01,4.5,4.5,4.5h9"/>
  <rect class="cls-1" x="18" y="21.24" width="13.96" height="9"/>
  <rect class="cls-1" x="31.96" y="15.22" width="19.79" height="15.02"/>
  <rect class="cls-2" x="13.5" y="30.22" width="45" height="31.5" rx="4" ry="4"/>
</svg>