<?xml version="1.0" encoding="UTF-8"?>
<svg id="Layer_1" data-name="Layer 1" xmlns="http://www.w3.org/2000/svg" viewBox="0 0 72 72">
  <defs>
    <style>
      .cls-1 {
        stroke: #010101;
      }

      .cls-1, .cls-2 {
        stroke-linecap: round;
      }

      .cls-1, .cls-2, .cls-3 {
        fill: none;
        stroke-miterlimit: 10;
        stroke-width: 4px;
      }

      .cls-2 {
        stroke: #ed2024;
      }

      .cls-3 {
        stroke: #231f20;
      }

      .cls-4 {
        fill: #ed2024;
        opacity: .5;
        stroke-width: 0px;
      }
    </style>
  </defs>
  <path class="cls-4" d="M40.5,9h-23c-2.21,0-4,1.79-4,4v46c0,2.21,1.79,4,4,4h37c2.21,0,4-1.79,4-4V27l-18-18Z"/>
  <path class="cls-2" d="M40.5,9v14c0,2.21,1.79,4,4,4h14"/>
  <path class="cls-1" d="M40.5,9h-23c-2.21,0-4,1.79-4,4v46c0,2.21,1.79,4,4,4h37c2.21,0,4-1.79,4-4V27l-18-18Z"/>
  <path class="cls-3" d="M22.5,46.34l14.51-14.51c.44-.44,1.16-.44,1.6,0l6.05,6.05c.44.44.44,1.16,0,1.6l-14.51,14.51h-7.66v-7.66Z"/>
  <line class="cls-3" x1="34.13" y1="34.72" x2="41.78" y2="42.37"/>
  <line class="cls-3" x1="22.5" y1="46.34" x2="30.16" y2="54"/>
</svg>