<?xml version="1.0" encoding="UTF-8"?>
<svg id="circular-loader" xmlns="http://www.w3.org/2000/svg" viewBox="0 0 72 72">
  <path d="M27,13.5h-9v36h9s9,0,9,9c0-18,0-40.5,0-40.5,0-4.5-9-4.5-9-4.5Z" style="fill: #ed1c24; opacity: .5;"/>
  <path d="M45,13.5s-9,0-9,4.5c0,0,0,22.5,0,40.5,0-9,9-9,9-9h9V13.5h-9Z" style="fill: #ed1c24; opacity: .5;"/>
  <path d="M27,13.5h-9v36h9s9,0,9,9c0-18,0-40.5,0-40.5,0-4.5-9-4.5-9-4.5Z" style="fill: none; stroke: #231f20; stroke-miterlimit: 10; stroke-width: 4px;"/>
  <path d="M45,13.5s-9,0-9,4.5c0,0,0,22.5,0,40.5,0-9,9-9,9-9h9V13.5h-9Z" style="fill: none; stroke: #231f20; stroke-miterlimit: 10; stroke-width: 4px;"/>
  <path d="M18,18h-9v36h14.4s12.6,0,12.6,4.5" style="fill: none; stroke: #231f20; stroke-miterlimit: 10; stroke-width: 4px;"/>
  <path d="M36,58.5c0-4.5,12.6-4.5,12.6-4.5h14.4V18h-9" style="fill: none; stroke: #231f20; stroke-miterlimit: 10; stroke-width: 4px;"/>
</svg>