<?xml version="1.0" encoding="utf-8"?>
<!-- Generator: Adobe Illustrator 28.1.0, SVG Export Plug-In . SVG Version: 6.00 Build 0)  -->
<svg version="1.1" id="Layer_1" xmlns="http://www.w3.org/2000/svg" xmlns:xlink="http://www.w3.org/1999/xlink" x="0px" y="0px"
	 viewBox="0 0 72 72" style="enable-background:new 0 0 72 72;" xml:space="preserve">
<path style="opacity:0.5;fill:#ED2024;" d="M40.5,9h-23c-2.21,0-4,1.79-4,4v46c0,2.21,1.79,4,4,4h37c2.21,0,4-1.79,4-4V27L40.5,9z"
	/>
<line style="fill:none;stroke:#010101;stroke-width:4;stroke-miterlimit:10;" x1="27" y1="45" x2="45" y2="45"/>
<path style="fill:none;stroke:#ED2024;stroke-width:4;stroke-linecap:round;stroke-miterlimit:10;" d="M40.5,9v14c0,2.21,1.79,4,4,4
	h14"/>
<path style="fill:none;stroke:#010101;stroke-width:4;stroke-linecap:round;stroke-miterlimit:10;" d="M40.5,9h-23
	c-2.21,0-4,1.79-4,4v46c0,2.21,1.79,4,4,4h37c2.21,0,4-1.79,4-4V27L40.5,9z"/>
</svg>
