<?xml version="1.0" encoding="utf-8"?>
<!-- Generator: Adobe Illustrator 28.1.0, SVG Export Plug-In . SVG Version: 6.00 Build 0)  -->
<svg version="1.1" id="Layer_1" xmlns="http://www.w3.org/2000/svg" xmlns:xlink="http://www.w3.org/1999/xlink" x="0px" y="0px"
	 viewBox="0 0 72 72" style="enable-background:new 0 0 72 72;" xml:space="preserve">
<path style="fill:none;stroke:#010101;stroke-width:4;stroke-miterlimit:10;" d="M45,49.5c0,4.97-4.03,9-9,9s-9-4.03-9-9"/>
<path style="fill:none;stroke:#010101;stroke-width:4;stroke-miterlimit:10;" d="M36,13.5c-8.95,0-13.67,6.75-16.2,18l-3.5,15.56
	c-0.28,1.25,0.67,2.44,1.95,2.44H36h17.75c1.28,0,2.23-1.19,1.95-2.44L52.2,31.5C49.67,20.25,44.95,13.5,36,13.5L36,13.5z"/>
<path style="fill:none;stroke:#010101;stroke-width:4;stroke-miterlimit:10;" d="M9.75,31.5C7.48,22.18,11.17,12.11,18,9"/>
<path style="fill:none;stroke:#010101;stroke-width:4;stroke-miterlimit:10;" d="M62.25,31.5C64.52,22.18,60.83,12.11,54,9"/>
</svg>
