<?xml version="1.0" encoding="UTF-8"?>
<svg id="Layer_1" data-name="Layer 1" xmlns="http://www.w3.org/2000/svg" viewBox="0 0 72 72">
  <defs>
    <style>
      .cls-1 {
        fill: none;
        stroke: #000;
        stroke-miterlimit: 10;
        stroke-width: 4px;
      }

      .cls-2 {
        fill: #ed2024;
        opacity: .5;
        stroke-width: 0px;
      }
    </style>
  </defs>
  <path class="cls-2" d="M9,31.5c0-14.91,12.09-21.6,27-21.6,14.91,0,27,6.69,27,21.6s-12.09,21.6-27,21.6c-1.63,0-3.22-.08-4.77-.25l-9.74,9.74c-.86.86-2.34.25-2.34-.97v-12.32c-6.18-3.43-10.15-9.27-10.15-17.81Z"/>
  <path class="cls-1" d="M9,31.5c0-14.91,12.09-21.6,27-21.6,14.91,0,27,6.69,27,21.6s-12.09,21.6-27,21.6c-1.63,0-3.22-.08-4.77-.25l-9.74,9.74c-.86.86-2.34.25-2.34-.97v-12.32c-6.18-3.43-10.15-9.27-10.15-17.81Z"/>
</svg>