<?xml version="1.0" encoding="UTF-8"?>
<svg id="Layer_1" data-name="Layer 1" xmlns="http://www.w3.org/2000/svg" viewBox="0 0 72 72">
  <defs>
    <style>
      .cls-1 {
        fill: #010101;
        stroke: #ed2024;
      }

      .cls-1, .cls-2, .cls-3 {
        stroke-miterlimit: 10;
        stroke-width: 4px;
      }

      .cls-2 {
        stroke: #231f20;
      }

      .cls-2, .cls-3 {
        fill: none;
      }

      .cls-3 {
        stroke: #010101;
      }

      .cls-4 {
        opacity: .5;
      }

      .cls-5 {
        fill: #ed2024;
        stroke-width: 0px;
      }
    </style>
  </defs>
  <g class="cls-4">
    <rect class="cls-5" x="13.5" y="13.5" width="45" height="45" rx="4" ry="4"/>
  </g>
  <path class="cls-2" d="M43.66,36l14.51,14.51c.44.44.44,1.16,0,1.6l-6.05,6.05c-.44.44-1.16.44-1.6,0l-14.51-14.51v-7.66s7.66,0,7.66,0Z"/>
  <line class="cls-2" x1="39.22" y1="46.87" x2="46.87" y2="39.22"/>
  <line class="cls-2" x1="43.66" y1="36" x2="36" y2="43.66"/>
  <g>
    <path class="cls-3" d="M58.5,41.5v-24c0-2.21-1.79-4-4-4H17.5c-2.21,0-4,1.79-4,4v37c0,2.21,1.79,4,4,4h23"/>
    <path class="cls-3" d="M58.5,41.5v-24c0-2.21-1.79-4-4-4H17.5c-2.21,0-4,1.79-4,4v37c0,2.21,1.79,4,4,4h23"/>
  </g>
  <line class="cls-1" x1="22.5" y1="6.5" x2="22.5" y2="20"/>
  <line class="cls-1" x1="31.5" y1="6.5" x2="31.5" y2="20"/>
  <line class="cls-1" x1="40.5" y1="6.5" x2="40.5" y2="20"/>
  <line class="cls-1" x1="49.5" y1="6.5" x2="49.5" y2="20"/>
</svg>