<?xml version="1.0" encoding="UTF-8"?>
<svg id="Layer_1" data-name="Layer 1" xmlns="http://www.w3.org/2000/svg" viewBox="0 0 72 72">
  <defs>
    <style>
      .cls-1 {
        stroke: #ed2024;
      }

      .cls-1, .cls-2 {
        fill: none;
        stroke-miterlimit: 10;
        stroke-width: 4px;
      }

      .cls-2 {
        stroke: #231f20;
      }

      .cls-3 {
        fill: #ed2024;
        opacity: .5;
        stroke-width: 0px;
      }
    </style>
  </defs>
  <path class="cls-3" d="M40.5,40.5c0,7.46-6.04,13.5-13.5,13.5s-13.5-6.04-13.5-13.5,6.04-22.5,13.5-22.5,13.5,15.04,13.5,22.5Z"/>
  <path class="cls-3" d="M57.94,45.56c0,4.66-3.78,8.44-8.44,8.44s-8.44-3.78-8.44-8.44,3.78-14.06,8.44-14.06,8.44,9.4,8.44,14.06Z"/>
  <path class="cls-2" d="M40.5,40.5c0,7.46-6.04,13.5-13.5,13.5s-13.5-6.04-13.5-13.5,6.04-22.5,13.5-22.5,13.5,15.04,13.5,22.5Z"/>
  <path class="cls-2" d="M57.94,45.56c0,4.66-3.78,8.44-8.44,8.44s-8.44-3.78-8.44-8.44,3.78-14.06,8.44-14.06,8.44,9.4,8.44,14.06Z"/>
  <line class="cls-1" x1="27" y1="40.5" x2="27" y2="63"/>
  <line class="cls-1" x1="49.5" y1="45" x2="49.5" y2="63"/>
  <line class="cls-1" x1="9" y1="63" x2="63" y2="63"/>
</svg>