<?xml version="1.0" encoding="utf-8"?>
<!-- Generator: Adobe Illustrator 28.1.0, SVG Export Plug-In . SVG Version: 6.00 Build 0)  -->
<svg version="1.1" id="Layer_1" xmlns="http://www.w3.org/2000/svg" xmlns:xlink="http://www.w3.org/1999/xlink" x="0px" y="0px"
	 viewBox="0 0 72 72" style="enable-background:new 0 0 72 72;" xml:space="preserve">
<path style="fill:none;stroke:#010101;stroke-width:4;stroke-linecap:round;stroke-miterlimit:10;" d="M54,30
	c-0.2,0-0.39,0.02-0.58,0.03C51.43,22.26,44.39,16.5,36,16.5s-15.43,5.76-17.42,13.53C18.39,30.02,18.2,30,18,30c-4.97,0-9,4.03-9,9
	s4.03,9,9,9c1.74,0,3.36-0.5,4.74-1.36c3.29,3.59,8.01,5.86,13.26,5.86s9.97-2.27,13.26-5.86C50.64,47.5,52.26,48,54,48
	c4.97,0,9-4.03,9-9S58.97,30,54,30z"/>
</svg>
