<?xml version="1.0" encoding="utf-8"?>
<!-- Generator: Adobe Illustrator 28.1.0, SVG Export Plug-In . SVG Version: 6.00 Build 0)  -->
<svg version="1.1" id="Layer_1" xmlns="http://www.w3.org/2000/svg" xmlns:xlink="http://www.w3.org/1999/xlink" x="0px" y="0px"
	 viewBox="0 0 72 72" style="enable-background:new 0 0 72 72;" xml:space="preserve">
<path style="opacity:0.5;fill:#ED2024;" d="M63,40.5c0-11.18-9.07-16.2-20.25-16.2S22.5,29.32,22.5,40.5s9.07,16.2,20.25,16.2
	c2.98,0,5.8-0.37,8.35-1.1l5.7,5.7c0.63,0.63,1.71,0.18,1.71-0.71v-8.98C61.31,48.99,63,45.32,63,40.5z"/>
<path style="fill:none;stroke:#ED2024;stroke-width:4;stroke-miterlimit:10;" d="M49.16,24.92c-1.71-8.74-9.97-12.71-19.91-12.71
	C18.07,12.21,9,17.23,9,28.41c0,4.82,1.69,8.49,4.5,11.11v8.98c0,0.89,1.08,1.34,1.71,0.71l5.7-5.7c0.63,0.18,1.28,0.34,1.94,0.48"
	/>
<path style="fill:none;stroke:#000000;stroke-width:4;stroke-miterlimit:10;" d="M63,40.5c0-11.18-9.07-16.2-20.25-16.2
	S22.5,29.32,22.5,40.5s9.07,16.2,20.25,16.2c2.98,0,5.8-0.37,8.35-1.1l5.7,5.7c0.63,0.63,1.71,0.18,1.71-0.71v-8.98
	C61.31,48.99,63,45.32,63,40.5z"/>
</svg>
