<?xml version="1.0" encoding="UTF-8"?>
<svg id="Layer_1" data-name="Layer 1" xmlns="http://www.w3.org/2000/svg" viewBox="0 0 72 72">
  <g style="opacity: .5;">
    <rect x="13.5" y="13.5" width="45" height="45" rx="4" ry="4" style="fill: #ed2024; stroke-width: 0px;"/>
  </g>
  <path d="M58.5,41.5v-24c0-2.21-1.79-4-4-4H17.5c-2.21,0-4,1.79-4,4v37c0,2.21,1.79,4,4,4h23" style="fill: none; stroke: #010101; stroke-miterlimit: 10; stroke-width: 4px;"/>
  <line x1="22.5" y1="6.5" x2="22.5" y2="20" style="fill: #010101; stroke: #ed2024; stroke-miterlimit: 10; stroke-width: 4px;"/>
  <line x1="31.5" y1="6.5" x2="31.5" y2="20" style="fill: #010101; stroke: #ed2024; stroke-miterlimit: 10; stroke-width: 4px;"/>
  <line x1="40.5" y1="6.5" x2="40.5" y2="20" style="fill: #010101; stroke: #ed2024; stroke-miterlimit: 10; stroke-width: 4px;"/>
  <line x1="49.5" y1="6.5" x2="49.5" y2="20" style="fill: #010101; stroke: #ed2024; stroke-miterlimit: 10; stroke-width: 4px;"/>
  <path d="M62.26,53.91s-4.59,6.16-10.26,6.16-10.26-6.16-10.26-6.16c0,0,4.59-6.16,10.26-6.16s10.26,6.16,10.26,6.16Z" style="fill: none; stroke: #010101; stroke-linecap: square; stroke-miterlimit: 10; stroke-width: 4px;"/>
  <line x1="62.26" y1="45.7" x2="41.74" y2="62.8" style="fill: none; stroke: #010101; stroke-linecap: square; stroke-miterlimit: 10; stroke-width: 4px;"/>
</svg>