<?xml version="1.0" encoding="UTF-8"?>
<svg id="Layer_1" data-name="Layer 1" xmlns="http://www.w3.org/2000/svg" viewBox="0 0 72 72">
  <rect x="13.5" y="13.5" width="45" height="45" rx="6" ry="6" style="fill: #ed2024; opacity: .5; stroke-width: 0px;"/>
  <rect x="13.5" y="13.5" width="45" height="36" rx="6" ry="6" style="fill: #ed2024; opacity: .5; stroke-width: 0px;"/>
  <path d="M58.5,31.5v12c0,3.31-2.69,6-6,6H19.5c-3.31,0-6-2.69-6-6v-24c0-3.31,2.69-6,6-6h21" style="fill: none; stroke: #ed2024; stroke-miterlimit: 10; stroke-width: 4px;"/>
  <path d="M58.5,31.5v21c0,3.31-2.69,6-6,6H19.5c-3.31,0-6-2.69-6-6V19.5c0-3.31,2.69-6,6-6h21" style="fill: none; stroke: #010101; stroke-miterlimit: 10; stroke-width: 4px;"/>
  <g>
    <path d="M46.89,27.05c1.56-1.56,3.72-2.53,6.11-2.53s4.54.97,6.11,2.53" style="fill: none; stroke: #010101; stroke-linecap: round; stroke-miterlimit: 10; stroke-width: 4px;"/>
    <line x1="58.76" y1="16.2" x2="58.76" y2="13" style="fill: #fff; stroke: #010101; stroke-linecap: round; stroke-linejoin: round; stroke-width: 4px;"/>
    <line x1="47.24" y1="16.2" x2="47.24" y2="13" style="fill: #fff; stroke: #010101; stroke-linecap: round; stroke-linejoin: round; stroke-width: 4px;"/>
  </g>
</svg>