<?xml version="1.0" encoding="UTF-8"?>
<svg id="Layer_1" data-name="Layer 1" xmlns="http://www.w3.org/2000/svg" viewBox="0 0 72 72">
  <g>
    <path d="M36,60.81H9.66c-1.54,0-2.5-1.67-1.73-3l13.17-22.81,13.17-22.81c.77-1.33,2.69-1.33,3.46,0l13.17,22.81,13.17,22.81c.77,1.33-.19,3-1.73,3h-26.34Z" style="fill: #ed2024; opacity: .5; stroke-width: 0px;"/>
    <path d="M36,60.81H9.66c-1.54,0-2.5-1.67-1.73-3l13.17-22.81,13.17-22.81c.77-1.33,2.69-1.33,3.46,0l13.17,22.81,13.17,22.81c.77,1.33-.19,3-1.73,3h-26.34Z" style="fill: none; stroke: #ed2024; stroke-miterlimit: 10; stroke-width: 4px;"/>
  </g>
  <g>
    <path d="M29.89,50.05c1.56-1.56,3.72-2.53,6.11-2.53s4.54.97,6.11,2.53" style="fill: none; stroke: #010101; stroke-linecap: round; stroke-miterlimit: 10; stroke-width: 4px;"/>
    <line x1="41.76" y1="39.2" x2="41.76" y2="36" style="fill: #fff; stroke: #010101; stroke-linecap: round; stroke-linejoin: round; stroke-width: 4px;"/>
    <line x1="30.24" y1="39.2" x2="30.24" y2="36" style="fill: #fff; stroke: #010101; stroke-linecap: round; stroke-linejoin: round; stroke-width: 4px;"/>
  </g>
</svg>