<?xml version="1.0" encoding="UTF-8"?>
<svg id="Layer_1" data-name="Layer 1" xmlns="http://www.w3.org/2000/svg" viewBox="0 0 72 72">
  <path d="M36,60.81H9.66c-1.54,0-2.5-1.67-1.73-3l13.17-22.81,13.17-22.81c.77-1.33,2.69-1.33,3.46,0l13.17,22.81,13.17,22.81c.77,1.33-.19,3-1.73,3h-26.34Z" style="fill: #ed2024; opacity: .5; stroke-width: 0px;"/>
  <path d="M36,60.81H9.66c-1.54,0-2.5-1.67-1.73-3l13.17-22.81,13.17-22.81c.77-1.33,2.69-1.33,3.46,0l13.17,22.81,13.17,22.81c.77,1.33-.19,3-1.73,3h-26.34Z" style="fill: none; stroke: #ed2024; stroke-miterlimit: 10; stroke-width: 4px;"/>
</svg>