<?xml version="1.0" encoding="utf-8"?>
<!-- Generator: Adobe Illustrator 28.1.0, SVG Export Plug-In . SVG Version: 6.00 Build 0)  -->
<svg version="1.1" id="Layer_1" xmlns="http://www.w3.org/2000/svg" xmlns:xlink="http://www.w3.org/1999/xlink" x="0px" y="0px"
	 viewBox="0 0 72 72" style="enable-background:new 0 0 72 72;" xml:space="preserve">
<g style="opacity:0.5;">
	<path style="fill:#ED2024;" d="M36.27,49.08l16.56,11.84c0.79,0.56,1.84-0.21,1.53-1.13l-6.44-19.32L64.3,28.38
		c0.78-0.58,0.37-1.81-0.6-1.8l-20.36,0.15L36.9,7.42C36.6,6.5,35.29,6.51,35,7.43l-6.14,19.41L8.5,27
		c-0.97,0.01-1.36,1.25-0.57,1.81l16.56,11.84l-6.14,19.41c-0.29,0.92,0.77,1.68,1.55,1.11L36.27,49.08z"/>
</g>
<g>
	<path style="fill:none;stroke:#000000;stroke-width:4;stroke-miterlimit:10;" d="M36.27,49.08l16.56,11.84
		c0.79,0.56,1.84-0.21,1.53-1.13l-6.44-19.32L64.3,28.38c0.78-0.58,0.37-1.81-0.6-1.8l-20.36,0.15L36.9,7.42
		C36.6,6.5,35.29,6.51,35,7.43l-6.14,19.41L8.5,27c-0.97,0.01-1.36,1.25-0.57,1.81l16.56,11.84l-6.14,19.41
		c-0.29,0.92,0.77,1.68,1.55,1.11L36.27,49.08z"/>
</g>
</svg>
