<?xml version="1.0" encoding="UTF-8"?>
<svg id="Layer_1" data-name="Layer 1" xmlns="http://www.w3.org/2000/svg" viewBox="0 0 72 72">
  <defs>
    <style>
      .cls-1, .cls-2 {
        stroke-linecap: round;
      }

      .cls-1, .cls-2, .cls-3, .cls-4 {
        fill: none;
        stroke-miterlimit: 10;
        stroke-width: 4px;
      }

      .cls-1, .cls-4 {
        stroke: #010101;
      }

      .cls-2, .cls-3 {
        stroke: #ed2024;
      }

      .cls-5 {
        fill: #ed2024;
        opacity: .5;
        stroke-width: 0px;
      }
    </style>
  </defs>
  <path class="cls-5" d="M54,27c0-9.94-8.06-18-18-18s-18,8.06-18,18c0,13.5,10.8,18,10.8,27v5c0,2.21,1.79,4,4,4h6.4c2.21,0,4-1.79,4-4v-5c0-9,10.8-13.5,10.8-27"/>
  <path class="cls-2" d="M40.5,31.5c0,2.49-2.01,4.5-4.5,4.5s-4.5-2.01-4.5-4.5"/>
  <line class="cls-3" x1="36" y1="36" x2="36" y2="54"/>
  <path class="cls-1" d="M54,27c0-9.94-8.06-18-18-18s-18,8.06-18,18c0,13.5,10.8,18,10.8,27v5c0,2.21,1.79,4,4,4h6.4c2.21,0,4-1.79,4-4v-5c0-9,10.8-13.5,10.8-27"/>
  <line class="cls-4" x1="27" y1="54" x2="45" y2="54"/>
</svg>