<?xml version="1.0" encoding="utf-8"?>
<!-- Generator: Adobe Illustrator 28.1.0, SVG Export Plug-In . SVG Version: 6.00 Build 0)  -->
<svg version="1.1" id="Layer_1" xmlns="http://www.w3.org/2000/svg" xmlns:xlink="http://www.w3.org/1999/xlink" x="0px" y="0px"
	 viewBox="0 0 72 72" style="enable-background:new 0 0 72 72;" xml:space="preserve">
<path style="opacity:0.5;fill:#ED2024;" d="M63,30.6C63,15.69,50.91,9,36,9S9,15.69,9,30.6s12.09,21.6,27,21.6
	c1.63,0,3.22-0.08,4.77-0.25l9.74,9.74c0.86,0.86,2.34,0.25,2.34-0.97V48.41C59.03,44.97,63,39.14,63,30.6z"/>
<path style="fill:none;stroke:#000000;stroke-width:4;stroke-miterlimit:10;" d="M63,30.6C63,15.69,50.91,9,36,9S9,15.69,9,30.6
	s12.09,21.6,27,21.6c1.63,0,3.22-0.08,4.77-0.25l9.74,9.74c0.86,0.86,2.34,0.25,2.34-0.97V48.41C59.03,44.97,63,39.14,63,30.6z"/>
</svg>
