<?xml version="1.0" encoding="utf-8"?>
<!-- Generator: Adobe Illustrator 28.1.0, SVG Export Plug-In . SVG Version: 6.00 Build 0)  -->
<svg version="1.1" id="Layer_1" xmlns="http://www.w3.org/2000/svg" xmlns:xlink="http://www.w3.org/1999/xlink" x="0px" y="0px"
	 viewBox="0 0 72 72" style="enable-background:new 0 0 72 72;" xml:space="preserve">
<path style="opacity:0.5;fill:#ED2024;stroke:#ED2024;stroke-width:4;stroke-miterlimit:10;" d="M54.5,58.5h-37c-2.21,0-4-1.79-4-4
	v-37c0-2.21,1.79-4,4-4h37c2.21,0,4,1.79,4,4v37C58.5,56.71,56.71,58.5,54.5,58.5z"/>
<path style="fill:none;stroke:#ED2024;stroke-width:4;stroke-miterlimit:10;" d="M54.5,58.5h-37c-2.21,0-4-1.79-4-4v-37
	c0-2.21,1.79-4,4-4h37c2.21,0,4,1.79,4,4v37C58.5,56.71,56.71,58.5,54.5,58.5z"/>
</svg>
