<?xml version="1.0" encoding="UTF-8"?>
<svg id="Layer_1" data-name="Layer 1" xmlns="http://www.w3.org/2000/svg" viewBox="0 0 72 72">
  <defs>
    <style>
      .cls-1 {
        stroke: #ed2024;
      }

      .cls-1, .cls-2, .cls-3 {
        fill: none;
        stroke-miterlimit: 10;
        stroke-width: 4px;
      }

      .cls-2 {
        stroke: #231f20;
      }

      .cls-3 {
        stroke: #010101;
      }

      .cls-4 {
        fill: #ed2024;
        opacity: .5;
        stroke-width: 0px;
      }
    </style>
  </defs>
  <path class="cls-4" d="M17.5,58.5h37c2.21,0,4-1.79,4-4v-28c0-2.21-1.79-4-4-4h-18.5l-3.39-6.79c-.68-1.36-2.06-2.21-3.58-2.21h-11.53c-2.21,0-4,1.79-4,4v37c0,2.21,1.79,4,4,4Z"/>
  <line class="cls-1" x1="13.5" y1="31.5" x2="58.5" y2="31.5"/>
  <path class="cls-3" d="M58.5,40.5v-14c0-2.21-1.79-4-4-4h-18.5l-3.39-6.79c-.68-1.36-2.06-2.21-3.58-2.21h-11.53c-2.21,0-4,1.79-4,4v37c0,2.21,1.79,4,4,4h23"/>
  <g>
    <path class="cls-2" d="M48.16,40.5l14.51,14.51c.44.44.44,1.16,0,1.6l-6.05,6.05c-.44.44-1.16.44-1.6,0l-14.51-14.51v-7.66h7.66Z"/>
    <line class="cls-2" x1="59.78" y1="52.13" x2="52.13" y2="59.78"/>
    <line class="cls-2" x1="48.16" y1="40.5" x2="40.5" y2="48.16"/>
  </g>
</svg>